G04 #@! TF.GenerationSoftware,KiCad,Pcbnew,8.0.1-8.0.1-1~ubuntu22.04.1*
G04 #@! TF.CreationDate,2024-05-04T13:13:50+02:00*
G04 #@! TF.ProjectId,MCU_Board,4d43555f-426f-4617-9264-2e6b69636164,rev?*
G04 #@! TF.SameCoordinates,Original*
G04 #@! TF.FileFunction,Copper,L2,Bot*
G04 #@! TF.FilePolarity,Positive*
%FSLAX46Y46*%
G04 Gerber Fmt 4.6, Leading zero omitted, Abs format (unit mm)*
G04 Created by KiCad (PCBNEW 8.0.1-8.0.1-1~ubuntu22.04.1) date 2024-05-04 13:13:50*
%MOMM*%
%LPD*%
G01*
G04 APERTURE LIST*
G04 Aperture macros list*
%AMRoundRect*
0 Rectangle with rounded corners*
0 $1 Rounding radius*
0 $2 $3 $4 $5 $6 $7 $8 $9 X,Y pos of 4 corners*
0 Add a 4 corners polygon primitive as box body*
4,1,4,$2,$3,$4,$5,$6,$7,$8,$9,$2,$3,0*
0 Add four circle primitives for the rounded corners*
1,1,$1+$1,$2,$3*
1,1,$1+$1,$4,$5*
1,1,$1+$1,$6,$7*
1,1,$1+$1,$8,$9*
0 Add four rect primitives between the rounded corners*
20,1,$1+$1,$2,$3,$4,$5,0*
20,1,$1+$1,$4,$5,$6,$7,0*
20,1,$1+$1,$6,$7,$8,$9,0*
20,1,$1+$1,$8,$9,$2,$3,0*%
G04 Aperture macros list end*
G04 #@! TA.AperFunction,ComponentPad*
%ADD10R,1.700000X1.700000*%
G04 #@! TD*
G04 #@! TA.AperFunction,ComponentPad*
%ADD11O,1.700000X1.700000*%
G04 #@! TD*
G04 #@! TA.AperFunction,ComponentPad*
%ADD12O,2.080000X3.600000*%
G04 #@! TD*
G04 #@! TA.AperFunction,ComponentPad*
%ADD13R,2.000000X2.000000*%
G04 #@! TD*
G04 #@! TA.AperFunction,ComponentPad*
%ADD14C,2.000000*%
G04 #@! TD*
G04 #@! TA.AperFunction,ComponentPad*
%ADD15RoundRect,0.575000X0.575000X-0.575000X0.575000X0.575000X-0.575000X0.575000X-0.575000X-0.575000X0*%
G04 #@! TD*
G04 #@! TA.AperFunction,ComponentPad*
%ADD16C,2.300000*%
G04 #@! TD*
G04 #@! TA.AperFunction,ComponentPad*
%ADD17C,1.600000*%
G04 #@! TD*
G04 #@! TA.AperFunction,ComponentPad*
%ADD18O,1.600000X1.600000*%
G04 #@! TD*
G04 #@! TA.AperFunction,ComponentPad*
%ADD19C,2.600000*%
G04 #@! TD*
G04 #@! TA.AperFunction,Conductor*
%ADD20C,1.000000*%
G04 #@! TD*
G04 APERTURE END LIST*
D10*
X90170000Y-143510000D03*
D11*
X87630000Y-143510000D03*
X85090000Y-143510000D03*
X82550000Y-143510000D03*
X80010000Y-143510000D03*
X77470000Y-143510000D03*
X74930000Y-143510000D03*
X72390000Y-143510000D03*
X69850000Y-143510000D03*
X67310000Y-143510000D03*
X64770000Y-143510000D03*
X62230000Y-143510000D03*
X59690000Y-143510000D03*
X57150000Y-143510000D03*
X54610000Y-143510000D03*
D12*
X83820000Y-104100000D03*
X78740000Y-104100000D03*
X73660000Y-104100000D03*
X68580000Y-104100000D03*
D13*
X81107677Y-128270000D03*
D14*
X76107677Y-128270000D03*
D10*
X54610000Y-137160000D03*
D11*
X57150000Y-137160000D03*
X59690000Y-137160000D03*
X62230000Y-137160000D03*
X64770000Y-137160000D03*
X67310000Y-137160000D03*
X69850000Y-137160000D03*
X72390000Y-137160000D03*
X74930000Y-137160000D03*
X77470000Y-137160000D03*
X80010000Y-137160000D03*
X82550000Y-137160000D03*
X85090000Y-137160000D03*
X87630000Y-137160000D03*
X90170000Y-137160000D03*
D10*
X54610000Y-158750000D03*
D11*
X57150000Y-158750000D03*
X59690000Y-158750000D03*
X62230000Y-158750000D03*
X64770000Y-158750000D03*
X67310000Y-158750000D03*
X69850000Y-158750000D03*
X72390000Y-158750000D03*
X74930000Y-158750000D03*
X77470000Y-158750000D03*
X80010000Y-158750000D03*
X82550000Y-158750000D03*
X85090000Y-158750000D03*
X87630000Y-158750000D03*
X90170000Y-158750000D03*
D15*
X49530000Y-122010000D03*
X49530000Y-117410000D03*
D16*
X49530000Y-106110000D03*
X49530000Y-101510000D03*
D17*
X87503000Y-122174000D03*
D18*
X87503000Y-119634000D03*
D17*
X56815000Y-130810000D03*
D18*
X59355000Y-130810000D03*
D17*
X88940000Y-127635000D03*
X93940000Y-127635000D03*
X66040000Y-125730000D03*
D18*
X68580000Y-125730000D03*
D17*
X66040000Y-130810000D03*
D18*
X68580000Y-130810000D03*
D17*
X92075000Y-106426000D03*
D18*
X94615000Y-106426000D03*
D17*
X74295000Y-114340000D03*
X74295000Y-119340000D03*
D19*
X80899000Y-114340000D03*
X80899000Y-119340000D03*
D17*
X83900000Y-133350000D03*
X88900000Y-133350000D03*
D10*
X90170000Y-165100000D03*
D11*
X87630000Y-165100000D03*
X85090000Y-165100000D03*
X82550000Y-165100000D03*
X80010000Y-165100000D03*
X77470000Y-165100000D03*
X74930000Y-165100000D03*
X72390000Y-165100000D03*
X69850000Y-165100000D03*
X67310000Y-165100000D03*
X64770000Y-165100000D03*
X62230000Y-165100000D03*
X59690000Y-165100000D03*
X57150000Y-165100000D03*
X54610000Y-165100000D03*
D10*
X91435000Y-101600000D03*
D11*
X93975000Y-101600000D03*
D10*
X49530000Y-129545000D03*
D11*
X49530000Y-127005000D03*
D13*
X59000000Y-121767677D03*
D14*
X59000000Y-116767677D03*
D20*
X57150000Y-148590000D02*
X62230000Y-153670000D01*
X57150000Y-143510000D02*
X57150000Y-148590000D01*
X82203677Y-122174000D02*
X87503000Y-122174000D01*
X62230000Y-153670000D02*
X62230000Y-158750000D01*
X61572323Y-119340000D02*
X59000000Y-116767677D01*
X74295000Y-119340000D02*
X61572323Y-119340000D01*
X76107677Y-128270000D02*
X82203677Y-122174000D01*
X83820000Y-128270000D02*
X81107677Y-128270000D01*
X88900000Y-133350000D02*
X83820000Y-128270000D01*
G04 #@! TA.AperFunction,Conductor*
G36*
X96387539Y-99155185D02*
G01*
X96433294Y-99207989D01*
X96444500Y-99259500D01*
X96444500Y-167440500D01*
X96424815Y-167507539D01*
X96372011Y-167553294D01*
X96320500Y-167564500D01*
X45919500Y-167564500D01*
X45852461Y-167544815D01*
X45806706Y-167492011D01*
X45795500Y-167440500D01*
X45795500Y-165100005D01*
X53246844Y-165100005D01*
X53265434Y-165324359D01*
X53265436Y-165324371D01*
X53320703Y-165542614D01*
X53411140Y-165748792D01*
X53534276Y-165937265D01*
X53534284Y-165937276D01*
X53660967Y-166074888D01*
X53686760Y-166102906D01*
X53864424Y-166241189D01*
X53864425Y-166241189D01*
X53864427Y-166241191D01*
X53924314Y-166273600D01*
X54062426Y-166348342D01*
X54275365Y-166421444D01*
X54497431Y-166458500D01*
X54722569Y-166458500D01*
X54944635Y-166421444D01*
X55157574Y-166348342D01*
X55355576Y-166241189D01*
X55533240Y-166102906D01*
X55654594Y-165971082D01*
X55685715Y-165937276D01*
X55685715Y-165937275D01*
X55685722Y-165937268D01*
X55776193Y-165798790D01*
X55829338Y-165753437D01*
X55898569Y-165744013D01*
X55961905Y-165773515D01*
X55983804Y-165798787D01*
X56074278Y-165937268D01*
X56074283Y-165937273D01*
X56074284Y-165937276D01*
X56200967Y-166074888D01*
X56226760Y-166102906D01*
X56404424Y-166241189D01*
X56404425Y-166241189D01*
X56404427Y-166241191D01*
X56464314Y-166273600D01*
X56602426Y-166348342D01*
X56815365Y-166421444D01*
X57037431Y-166458500D01*
X57262569Y-166458500D01*
X57484635Y-166421444D01*
X57697574Y-166348342D01*
X57895576Y-166241189D01*
X58073240Y-166102906D01*
X58194594Y-165971082D01*
X58225715Y-165937276D01*
X58225715Y-165937275D01*
X58225722Y-165937268D01*
X58316193Y-165798790D01*
X58369338Y-165753437D01*
X58438569Y-165744013D01*
X58501905Y-165773515D01*
X58523804Y-165798787D01*
X58614278Y-165937268D01*
X58614283Y-165937273D01*
X58614284Y-165937276D01*
X58740967Y-166074888D01*
X58766760Y-166102906D01*
X58944424Y-166241189D01*
X58944425Y-166241189D01*
X58944427Y-166241191D01*
X59004314Y-166273600D01*
X59142426Y-166348342D01*
X59355365Y-166421444D01*
X59577431Y-166458500D01*
X59802569Y-166458500D01*
X60024635Y-166421444D01*
X60237574Y-166348342D01*
X60435576Y-166241189D01*
X60613240Y-166102906D01*
X60734594Y-165971082D01*
X60765715Y-165937276D01*
X60765715Y-165937275D01*
X60765722Y-165937268D01*
X60859749Y-165793347D01*
X60912894Y-165747994D01*
X60982125Y-165738570D01*
X61045461Y-165768072D01*
X61065130Y-165790048D01*
X61191890Y-165971078D01*
X61358917Y-166138105D01*
X61552421Y-166273600D01*
X61766507Y-166373429D01*
X61766516Y-166373433D01*
X61980000Y-166430634D01*
X61980000Y-165533012D01*
X62037007Y-165565925D01*
X62164174Y-165600000D01*
X62295826Y-165600000D01*
X62422993Y-165565925D01*
X62480000Y-165533012D01*
X62480000Y-166430633D01*
X62693483Y-166373433D01*
X62693492Y-166373429D01*
X62907578Y-166273600D01*
X63101082Y-166138105D01*
X63268105Y-165971082D01*
X63394868Y-165790048D01*
X63449445Y-165746423D01*
X63518944Y-165739231D01*
X63581298Y-165770753D01*
X63600251Y-165793350D01*
X63694276Y-165937265D01*
X63694284Y-165937276D01*
X63820967Y-166074888D01*
X63846760Y-166102906D01*
X64024424Y-166241189D01*
X64024425Y-166241189D01*
X64024427Y-166241191D01*
X64084314Y-166273600D01*
X64222426Y-166348342D01*
X64435365Y-166421444D01*
X64657431Y-166458500D01*
X64882569Y-166458500D01*
X65104635Y-166421444D01*
X65317574Y-166348342D01*
X65515576Y-166241189D01*
X65693240Y-166102906D01*
X65814594Y-165971082D01*
X65845715Y-165937276D01*
X65845715Y-165937275D01*
X65845722Y-165937268D01*
X65936193Y-165798790D01*
X65989338Y-165753437D01*
X66058569Y-165744013D01*
X66121905Y-165773515D01*
X66143804Y-165798787D01*
X66234278Y-165937268D01*
X66234283Y-165937273D01*
X66234284Y-165937276D01*
X66360967Y-166074888D01*
X66386760Y-166102906D01*
X66564424Y-166241189D01*
X66564425Y-166241189D01*
X66564427Y-166241191D01*
X66624314Y-166273600D01*
X66762426Y-166348342D01*
X66975365Y-166421444D01*
X67197431Y-166458500D01*
X67422569Y-166458500D01*
X67644635Y-166421444D01*
X67857574Y-166348342D01*
X68055576Y-166241189D01*
X68233240Y-166102906D01*
X68354594Y-165971082D01*
X68385715Y-165937276D01*
X68385715Y-165937275D01*
X68385722Y-165937268D01*
X68476193Y-165798790D01*
X68529338Y-165753437D01*
X68598569Y-165744013D01*
X68661905Y-165773515D01*
X68683804Y-165798787D01*
X68774278Y-165937268D01*
X68774283Y-165937273D01*
X68774284Y-165937276D01*
X68900967Y-166074888D01*
X68926760Y-166102906D01*
X69104424Y-166241189D01*
X69104425Y-166241189D01*
X69104427Y-166241191D01*
X69164314Y-166273600D01*
X69302426Y-166348342D01*
X69515365Y-166421444D01*
X69737431Y-166458500D01*
X69962569Y-166458500D01*
X70184635Y-166421444D01*
X70397574Y-166348342D01*
X70595576Y-166241189D01*
X70773240Y-166102906D01*
X70894594Y-165971082D01*
X70925715Y-165937276D01*
X70925715Y-165937275D01*
X70925722Y-165937268D01*
X71016193Y-165798790D01*
X71069338Y-165753437D01*
X71138569Y-165744013D01*
X71201905Y-165773515D01*
X71223804Y-165798787D01*
X71314278Y-165937268D01*
X71314283Y-165937273D01*
X71314284Y-165937276D01*
X71440967Y-166074888D01*
X71466760Y-166102906D01*
X71644424Y-166241189D01*
X71644425Y-166241189D01*
X71644427Y-166241191D01*
X71704314Y-166273600D01*
X71842426Y-166348342D01*
X72055365Y-166421444D01*
X72277431Y-166458500D01*
X72502569Y-166458500D01*
X72724635Y-166421444D01*
X72937574Y-166348342D01*
X73135576Y-166241189D01*
X73313240Y-166102906D01*
X73434594Y-165971082D01*
X73465715Y-165937276D01*
X73465715Y-165937275D01*
X73465722Y-165937268D01*
X73556193Y-165798790D01*
X73609338Y-165753437D01*
X73678569Y-165744013D01*
X73741905Y-165773515D01*
X73763804Y-165798787D01*
X73854278Y-165937268D01*
X73854283Y-165937273D01*
X73854284Y-165937276D01*
X73980967Y-166074888D01*
X74006760Y-166102906D01*
X74184424Y-166241189D01*
X74184425Y-166241189D01*
X74184427Y-166241191D01*
X74244314Y-166273600D01*
X74382426Y-166348342D01*
X74595365Y-166421444D01*
X74817431Y-166458500D01*
X75042569Y-166458500D01*
X75264635Y-166421444D01*
X75477574Y-166348342D01*
X75675576Y-166241189D01*
X75853240Y-166102906D01*
X75974594Y-165971082D01*
X76005715Y-165937276D01*
X76005715Y-165937275D01*
X76005722Y-165937268D01*
X76096193Y-165798790D01*
X76149338Y-165753437D01*
X76218569Y-165744013D01*
X76281905Y-165773515D01*
X76303804Y-165798787D01*
X76394278Y-165937268D01*
X76394283Y-165937273D01*
X76394284Y-165937276D01*
X76520967Y-166074888D01*
X76546760Y-166102906D01*
X76724424Y-166241189D01*
X76724425Y-166241189D01*
X76724427Y-166241191D01*
X76784314Y-166273600D01*
X76922426Y-166348342D01*
X77135365Y-166421444D01*
X77357431Y-166458500D01*
X77582569Y-166458500D01*
X77804635Y-166421444D01*
X78017574Y-166348342D01*
X78215576Y-166241189D01*
X78393240Y-166102906D01*
X78514594Y-165971082D01*
X78545715Y-165937276D01*
X78545715Y-165937275D01*
X78545722Y-165937268D01*
X78636193Y-165798790D01*
X78689338Y-165753437D01*
X78758569Y-165744013D01*
X78821905Y-165773515D01*
X78843804Y-165798787D01*
X78934278Y-165937268D01*
X78934283Y-165937273D01*
X78934284Y-165937276D01*
X79060967Y-166074888D01*
X79086760Y-166102906D01*
X79264424Y-166241189D01*
X79264425Y-166241189D01*
X79264427Y-166241191D01*
X79324314Y-166273600D01*
X79462426Y-166348342D01*
X79675365Y-166421444D01*
X79897431Y-166458500D01*
X80122569Y-166458500D01*
X80344635Y-166421444D01*
X80557574Y-166348342D01*
X80755576Y-166241189D01*
X80933240Y-166102906D01*
X81054594Y-165971082D01*
X81085715Y-165937276D01*
X81085715Y-165937275D01*
X81085722Y-165937268D01*
X81176193Y-165798790D01*
X81229338Y-165753437D01*
X81298569Y-165744013D01*
X81361905Y-165773515D01*
X81383804Y-165798787D01*
X81474278Y-165937268D01*
X81474283Y-165937273D01*
X81474284Y-165937276D01*
X81600967Y-166074888D01*
X81626760Y-166102906D01*
X81804424Y-166241189D01*
X81804425Y-166241189D01*
X81804427Y-166241191D01*
X81864314Y-166273600D01*
X82002426Y-166348342D01*
X82215365Y-166421444D01*
X82437431Y-166458500D01*
X82662569Y-166458500D01*
X82884635Y-166421444D01*
X83097574Y-166348342D01*
X83295576Y-166241189D01*
X83473240Y-166102906D01*
X83594594Y-165971082D01*
X83625715Y-165937276D01*
X83625715Y-165937275D01*
X83625722Y-165937268D01*
X83716193Y-165798790D01*
X83769338Y-165753437D01*
X83838569Y-165744013D01*
X83901905Y-165773515D01*
X83923804Y-165798787D01*
X84014278Y-165937268D01*
X84014283Y-165937273D01*
X84014284Y-165937276D01*
X84140967Y-166074888D01*
X84166760Y-166102906D01*
X84344424Y-166241189D01*
X84344425Y-166241189D01*
X84344427Y-166241191D01*
X84404314Y-166273600D01*
X84542426Y-166348342D01*
X84755365Y-166421444D01*
X84977431Y-166458500D01*
X85202569Y-166458500D01*
X85424635Y-166421444D01*
X85637574Y-166348342D01*
X85835576Y-166241189D01*
X86013240Y-166102906D01*
X86134594Y-165971082D01*
X86165715Y-165937276D01*
X86165715Y-165937275D01*
X86165722Y-165937268D01*
X86256193Y-165798790D01*
X86309338Y-165753437D01*
X86378569Y-165744013D01*
X86441905Y-165773515D01*
X86463804Y-165798787D01*
X86554278Y-165937268D01*
X86554283Y-165937273D01*
X86554284Y-165937276D01*
X86680967Y-166074888D01*
X86706760Y-166102906D01*
X86884424Y-166241189D01*
X86884425Y-166241189D01*
X86884427Y-166241191D01*
X86944314Y-166273600D01*
X87082426Y-166348342D01*
X87295365Y-166421444D01*
X87517431Y-166458500D01*
X87742569Y-166458500D01*
X87964635Y-166421444D01*
X88177574Y-166348342D01*
X88375576Y-166241189D01*
X88553240Y-166102906D01*
X88616452Y-166034239D01*
X88676337Y-165998250D01*
X88746175Y-166000349D01*
X88803791Y-166039873D01*
X88823861Y-166074888D01*
X88869111Y-166196204D01*
X88956739Y-166313261D01*
X89073796Y-166400889D01*
X89210799Y-166451989D01*
X89238050Y-166454918D01*
X89271345Y-166458499D01*
X89271362Y-166458500D01*
X91068638Y-166458500D01*
X91068654Y-166458499D01*
X91095692Y-166455591D01*
X91129201Y-166451989D01*
X91266204Y-166400889D01*
X91383261Y-166313261D01*
X91470889Y-166196204D01*
X91521989Y-166059201D01*
X91525591Y-166025692D01*
X91528499Y-165998654D01*
X91528500Y-165998637D01*
X91528500Y-164201362D01*
X91528499Y-164201345D01*
X91524672Y-164165759D01*
X91521989Y-164140799D01*
X91470889Y-164003796D01*
X91383261Y-163886739D01*
X91266204Y-163799111D01*
X91129203Y-163748011D01*
X91068654Y-163741500D01*
X91068638Y-163741500D01*
X89271362Y-163741500D01*
X89271345Y-163741500D01*
X89210797Y-163748011D01*
X89210795Y-163748011D01*
X89073795Y-163799111D01*
X88956739Y-163886739D01*
X88869111Y-164003795D01*
X88823861Y-164125111D01*
X88781989Y-164181044D01*
X88716524Y-164205460D01*
X88648252Y-164190607D01*
X88616454Y-164165762D01*
X88553240Y-164097094D01*
X88375576Y-163958811D01*
X88375575Y-163958810D01*
X88375572Y-163958808D01*
X88177580Y-163851661D01*
X88177577Y-163851659D01*
X88177574Y-163851658D01*
X88177571Y-163851657D01*
X88177569Y-163851656D01*
X87964637Y-163778556D01*
X87742569Y-163741500D01*
X87517431Y-163741500D01*
X87295362Y-163778556D01*
X87082430Y-163851656D01*
X87082419Y-163851661D01*
X86884427Y-163958808D01*
X86884422Y-163958812D01*
X86706761Y-164097092D01*
X86706756Y-164097097D01*
X86554284Y-164262723D01*
X86554276Y-164262734D01*
X86463808Y-164401206D01*
X86410662Y-164446562D01*
X86341431Y-164455986D01*
X86278095Y-164426484D01*
X86256192Y-164401206D01*
X86165723Y-164262734D01*
X86165715Y-164262723D01*
X86013243Y-164097097D01*
X86013238Y-164097092D01*
X85835577Y-163958812D01*
X85835572Y-163958808D01*
X85637580Y-163851661D01*
X85637577Y-163851659D01*
X85637574Y-163851658D01*
X85637571Y-163851657D01*
X85637569Y-163851656D01*
X85424637Y-163778556D01*
X85202569Y-163741500D01*
X84977431Y-163741500D01*
X84755362Y-163778556D01*
X84542430Y-163851656D01*
X84542419Y-163851661D01*
X84344427Y-163958808D01*
X84344422Y-163958812D01*
X84166761Y-164097092D01*
X84166756Y-164097097D01*
X84014284Y-164262723D01*
X84014276Y-164262734D01*
X83923808Y-164401206D01*
X83870662Y-164446562D01*
X83801431Y-164455986D01*
X83738095Y-164426484D01*
X83716192Y-164401206D01*
X83625723Y-164262734D01*
X83625715Y-164262723D01*
X83473243Y-164097097D01*
X83473238Y-164097092D01*
X83295577Y-163958812D01*
X83295572Y-163958808D01*
X83097580Y-163851661D01*
X83097577Y-163851659D01*
X83097574Y-163851658D01*
X83097571Y-163851657D01*
X83097569Y-163851656D01*
X82884637Y-163778556D01*
X82662569Y-163741500D01*
X82437431Y-163741500D01*
X82215362Y-163778556D01*
X82002430Y-163851656D01*
X82002419Y-163851661D01*
X81804427Y-163958808D01*
X81804422Y-163958812D01*
X81626761Y-164097092D01*
X81626756Y-164097097D01*
X81474284Y-164262723D01*
X81474276Y-164262734D01*
X81383808Y-164401206D01*
X81330662Y-164446562D01*
X81261431Y-164455986D01*
X81198095Y-164426484D01*
X81176192Y-164401206D01*
X81085723Y-164262734D01*
X81085715Y-164262723D01*
X80933243Y-164097097D01*
X80933238Y-164097092D01*
X80755577Y-163958812D01*
X80755572Y-163958808D01*
X80557580Y-163851661D01*
X80557577Y-163851659D01*
X80557574Y-163851658D01*
X80557571Y-163851657D01*
X80557569Y-163851656D01*
X80344637Y-163778556D01*
X80122569Y-163741500D01*
X79897431Y-163741500D01*
X79675362Y-163778556D01*
X79462430Y-163851656D01*
X79462419Y-163851661D01*
X79264427Y-163958808D01*
X79264422Y-163958812D01*
X79086761Y-164097092D01*
X79086756Y-164097097D01*
X78934284Y-164262723D01*
X78934276Y-164262734D01*
X78843808Y-164401206D01*
X78790662Y-164446562D01*
X78721431Y-164455986D01*
X78658095Y-164426484D01*
X78636192Y-164401206D01*
X78545723Y-164262734D01*
X78545715Y-164262723D01*
X78393243Y-164097097D01*
X78393238Y-164097092D01*
X78215577Y-163958812D01*
X78215572Y-163958808D01*
X78017580Y-163851661D01*
X78017577Y-163851659D01*
X78017574Y-163851658D01*
X78017571Y-163851657D01*
X78017569Y-163851656D01*
X77804637Y-163778556D01*
X77582569Y-163741500D01*
X77357431Y-163741500D01*
X77135362Y-163778556D01*
X76922430Y-163851656D01*
X76922419Y-163851661D01*
X76724427Y-163958808D01*
X76724422Y-163958812D01*
X76546761Y-164097092D01*
X76546756Y-164097097D01*
X76394284Y-164262723D01*
X76394276Y-164262734D01*
X76303808Y-164401206D01*
X76250662Y-164446562D01*
X76181431Y-164455986D01*
X76118095Y-164426484D01*
X76096192Y-164401206D01*
X76005723Y-164262734D01*
X76005715Y-164262723D01*
X75853243Y-164097097D01*
X75853238Y-164097092D01*
X75675577Y-163958812D01*
X75675572Y-163958808D01*
X75477580Y-163851661D01*
X75477577Y-163851659D01*
X75477574Y-163851658D01*
X75477571Y-163851657D01*
X75477569Y-163851656D01*
X75264637Y-163778556D01*
X75042569Y-163741500D01*
X74817431Y-163741500D01*
X74595362Y-163778556D01*
X74382430Y-163851656D01*
X74382419Y-163851661D01*
X74184427Y-163958808D01*
X74184422Y-163958812D01*
X74006761Y-164097092D01*
X74006756Y-164097097D01*
X73854284Y-164262723D01*
X73854276Y-164262734D01*
X73763808Y-164401206D01*
X73710662Y-164446562D01*
X73641431Y-164455986D01*
X73578095Y-164426484D01*
X73556192Y-164401206D01*
X73465723Y-164262734D01*
X73465715Y-164262723D01*
X73313243Y-164097097D01*
X73313238Y-164097092D01*
X73135577Y-163958812D01*
X73135572Y-163958808D01*
X72937580Y-163851661D01*
X72937577Y-163851659D01*
X72937574Y-163851658D01*
X72937571Y-163851657D01*
X72937569Y-163851656D01*
X72724637Y-163778556D01*
X72502569Y-163741500D01*
X72277431Y-163741500D01*
X72055362Y-163778556D01*
X71842430Y-163851656D01*
X71842419Y-163851661D01*
X71644427Y-163958808D01*
X71644422Y-163958812D01*
X71466761Y-164097092D01*
X71466756Y-164097097D01*
X71314284Y-164262723D01*
X71314276Y-164262734D01*
X71223808Y-164401206D01*
X71170662Y-164446562D01*
X71101431Y-164455986D01*
X71038095Y-164426484D01*
X71016192Y-164401206D01*
X70925723Y-164262734D01*
X70925715Y-164262723D01*
X70773243Y-164097097D01*
X70773238Y-164097092D01*
X70595577Y-163958812D01*
X70595572Y-163958808D01*
X70397580Y-163851661D01*
X70397577Y-163851659D01*
X70397574Y-163851658D01*
X70397571Y-163851657D01*
X70397569Y-163851656D01*
X70184637Y-163778556D01*
X69962569Y-163741500D01*
X69737431Y-163741500D01*
X69515362Y-163778556D01*
X69302430Y-163851656D01*
X69302419Y-163851661D01*
X69104427Y-163958808D01*
X69104422Y-163958812D01*
X68926761Y-164097092D01*
X68926756Y-164097097D01*
X68774284Y-164262723D01*
X68774276Y-164262734D01*
X68683808Y-164401206D01*
X68630662Y-164446562D01*
X68561431Y-164455986D01*
X68498095Y-164426484D01*
X68476192Y-164401206D01*
X68385723Y-164262734D01*
X68385715Y-164262723D01*
X68233243Y-164097097D01*
X68233238Y-164097092D01*
X68055577Y-163958812D01*
X68055572Y-163958808D01*
X67857580Y-163851661D01*
X67857577Y-163851659D01*
X67857574Y-163851658D01*
X67857571Y-163851657D01*
X67857569Y-163851656D01*
X67644637Y-163778556D01*
X67422569Y-163741500D01*
X67197431Y-163741500D01*
X66975362Y-163778556D01*
X66762430Y-163851656D01*
X66762419Y-163851661D01*
X66564427Y-163958808D01*
X66564422Y-163958812D01*
X66386761Y-164097092D01*
X66386756Y-164097097D01*
X66234284Y-164262723D01*
X66234276Y-164262734D01*
X66143808Y-164401206D01*
X66090662Y-164446562D01*
X66021431Y-164455986D01*
X65958095Y-164426484D01*
X65936192Y-164401206D01*
X65845723Y-164262734D01*
X65845715Y-164262723D01*
X65693243Y-164097097D01*
X65693238Y-164097092D01*
X65515577Y-163958812D01*
X65515572Y-163958808D01*
X65317580Y-163851661D01*
X65317577Y-163851659D01*
X65317574Y-163851658D01*
X65317571Y-163851657D01*
X65317569Y-163851656D01*
X65104637Y-163778556D01*
X64882569Y-163741500D01*
X64657431Y-163741500D01*
X64435362Y-163778556D01*
X64222430Y-163851656D01*
X64222419Y-163851661D01*
X64024427Y-163958808D01*
X64024422Y-163958812D01*
X63846761Y-164097092D01*
X63846756Y-164097097D01*
X63694284Y-164262723D01*
X63694276Y-164262734D01*
X63600251Y-164406650D01*
X63547105Y-164452007D01*
X63477873Y-164461430D01*
X63414538Y-164431928D01*
X63394868Y-164409951D01*
X63268113Y-164228926D01*
X63268108Y-164228920D01*
X63101082Y-164061894D01*
X62907578Y-163926399D01*
X62693492Y-163826570D01*
X62693486Y-163826567D01*
X62480000Y-163769364D01*
X62480000Y-164666988D01*
X62422993Y-164634075D01*
X62295826Y-164600000D01*
X62164174Y-164600000D01*
X62037007Y-164634075D01*
X61980000Y-164666988D01*
X61980000Y-163769364D01*
X61979999Y-163769364D01*
X61766513Y-163826567D01*
X61766507Y-163826570D01*
X61552422Y-163926399D01*
X61552420Y-163926400D01*
X61358926Y-164061886D01*
X61358920Y-164061891D01*
X61191891Y-164228920D01*
X61191890Y-164228922D01*
X61065131Y-164409952D01*
X61010554Y-164453577D01*
X60941055Y-164460769D01*
X60878701Y-164429247D01*
X60859752Y-164406656D01*
X60765722Y-164262732D01*
X60765715Y-164262725D01*
X60765715Y-164262723D01*
X60613243Y-164097097D01*
X60613238Y-164097092D01*
X60435577Y-163958812D01*
X60435572Y-163958808D01*
X60237580Y-163851661D01*
X60237577Y-163851659D01*
X60237574Y-163851658D01*
X60237571Y-163851657D01*
X60237569Y-163851656D01*
X60024637Y-163778556D01*
X59802569Y-163741500D01*
X59577431Y-163741500D01*
X59355362Y-163778556D01*
X59142430Y-163851656D01*
X59142419Y-163851661D01*
X58944427Y-163958808D01*
X58944422Y-163958812D01*
X58766761Y-164097092D01*
X58766756Y-164097097D01*
X58614284Y-164262723D01*
X58614276Y-164262734D01*
X58523808Y-164401206D01*
X58470662Y-164446562D01*
X58401431Y-164455986D01*
X58338095Y-164426484D01*
X58316192Y-164401206D01*
X58225723Y-164262734D01*
X58225715Y-164262723D01*
X58073243Y-164097097D01*
X58073238Y-164097092D01*
X57895577Y-163958812D01*
X57895572Y-163958808D01*
X57697580Y-163851661D01*
X57697577Y-163851659D01*
X57697574Y-163851658D01*
X57697571Y-163851657D01*
X57697569Y-163851656D01*
X57484637Y-163778556D01*
X57262569Y-163741500D01*
X57037431Y-163741500D01*
X56815362Y-163778556D01*
X56602430Y-163851656D01*
X56602419Y-163851661D01*
X56404427Y-163958808D01*
X56404422Y-163958812D01*
X56226761Y-164097092D01*
X56226756Y-164097097D01*
X56074284Y-164262723D01*
X56074276Y-164262734D01*
X55983808Y-164401206D01*
X55930662Y-164446562D01*
X55861431Y-164455986D01*
X55798095Y-164426484D01*
X55776192Y-164401206D01*
X55685723Y-164262734D01*
X55685715Y-164262723D01*
X55533243Y-164097097D01*
X55533238Y-164097092D01*
X55355577Y-163958812D01*
X55355572Y-163958808D01*
X55157580Y-163851661D01*
X55157577Y-163851659D01*
X55157574Y-163851658D01*
X55157571Y-163851657D01*
X55157569Y-163851656D01*
X54944637Y-163778556D01*
X54722569Y-163741500D01*
X54497431Y-163741500D01*
X54275362Y-163778556D01*
X54062430Y-163851656D01*
X54062419Y-163851661D01*
X53864427Y-163958808D01*
X53864422Y-163958812D01*
X53686761Y-164097092D01*
X53686756Y-164097097D01*
X53534284Y-164262723D01*
X53534276Y-164262734D01*
X53411140Y-164451207D01*
X53320703Y-164657385D01*
X53265436Y-164875628D01*
X53265434Y-164875640D01*
X53246844Y-165099994D01*
X53246844Y-165100005D01*
X45795500Y-165100005D01*
X45795500Y-159648654D01*
X53251500Y-159648654D01*
X53258011Y-159709202D01*
X53258011Y-159709204D01*
X53309111Y-159846204D01*
X53396739Y-159963261D01*
X53513796Y-160050889D01*
X53650799Y-160101989D01*
X53678050Y-160104918D01*
X53711345Y-160108499D01*
X53711362Y-160108500D01*
X55508638Y-160108500D01*
X55508654Y-160108499D01*
X55535692Y-160105591D01*
X55569201Y-160101989D01*
X55706204Y-160050889D01*
X55823261Y-159963261D01*
X55910889Y-159846204D01*
X55956138Y-159724887D01*
X55998009Y-159668956D01*
X56063474Y-159644539D01*
X56131746Y-159659391D01*
X56163545Y-159684236D01*
X56226760Y-159752906D01*
X56404424Y-159891189D01*
X56404425Y-159891189D01*
X56404427Y-159891191D01*
X56464314Y-159923600D01*
X56602426Y-159998342D01*
X56815365Y-160071444D01*
X57037431Y-160108500D01*
X57262569Y-160108500D01*
X57484635Y-160071444D01*
X57697574Y-159998342D01*
X57895576Y-159891189D01*
X58073240Y-159752906D01*
X58194594Y-159621082D01*
X58225715Y-159587276D01*
X58225715Y-159587275D01*
X58225722Y-159587268D01*
X58316193Y-159448790D01*
X58369338Y-159403437D01*
X58438569Y-159394013D01*
X58501905Y-159423515D01*
X58523804Y-159448787D01*
X58614278Y-159587268D01*
X58614283Y-159587273D01*
X58614284Y-159587276D01*
X58740968Y-159724889D01*
X58766760Y-159752906D01*
X58944424Y-159891189D01*
X58944425Y-159891189D01*
X58944427Y-159891191D01*
X59004314Y-159923600D01*
X59142426Y-159998342D01*
X59355365Y-160071444D01*
X59577431Y-160108500D01*
X59802569Y-160108500D01*
X60024635Y-160071444D01*
X60237574Y-159998342D01*
X60435576Y-159891189D01*
X60613240Y-159752906D01*
X60734594Y-159621082D01*
X60765715Y-159587276D01*
X60765715Y-159587275D01*
X60765722Y-159587268D01*
X60859749Y-159443347D01*
X60912894Y-159397994D01*
X60982125Y-159388570D01*
X61045461Y-159418072D01*
X61065130Y-159440048D01*
X61191890Y-159621078D01*
X61358917Y-159788105D01*
X61552421Y-159923600D01*
X61766507Y-160023429D01*
X61766516Y-160023433D01*
X61980000Y-160080634D01*
X61980000Y-159183012D01*
X62037007Y-159215925D01*
X62164174Y-159250000D01*
X62295826Y-159250000D01*
X62422993Y-159215925D01*
X62480000Y-159183012D01*
X62480000Y-160080633D01*
X62693483Y-160023433D01*
X62693492Y-160023429D01*
X62907578Y-159923600D01*
X63101082Y-159788105D01*
X63268105Y-159621082D01*
X63394868Y-159440048D01*
X63449445Y-159396423D01*
X63518944Y-159389231D01*
X63581298Y-159420753D01*
X63600251Y-159443350D01*
X63694276Y-159587265D01*
X63694284Y-159587276D01*
X63820968Y-159724889D01*
X63846760Y-159752906D01*
X64024424Y-159891189D01*
X64024425Y-159891189D01*
X64024427Y-159891191D01*
X64084314Y-159923600D01*
X64222426Y-159998342D01*
X64435365Y-160071444D01*
X64657431Y-160108500D01*
X64882569Y-160108500D01*
X65104635Y-160071444D01*
X65317574Y-159998342D01*
X65515576Y-159891189D01*
X65693240Y-159752906D01*
X65814594Y-159621082D01*
X65845715Y-159587276D01*
X65845715Y-159587275D01*
X65845722Y-159587268D01*
X65936193Y-159448790D01*
X65989338Y-159403437D01*
X66058569Y-159394013D01*
X66121905Y-159423515D01*
X66143804Y-159448787D01*
X66234278Y-159587268D01*
X66234283Y-159587273D01*
X66234284Y-159587276D01*
X66360968Y-159724889D01*
X66386760Y-159752906D01*
X66564424Y-159891189D01*
X66564425Y-159891189D01*
X66564427Y-159891191D01*
X66624314Y-159923600D01*
X66762426Y-159998342D01*
X66975365Y-160071444D01*
X67197431Y-160108500D01*
X67422569Y-160108500D01*
X67644635Y-160071444D01*
X67857574Y-159998342D01*
X68055576Y-159891189D01*
X68233240Y-159752906D01*
X68354594Y-159621082D01*
X68385715Y-159587276D01*
X68385715Y-159587275D01*
X68385722Y-159587268D01*
X68476193Y-159448790D01*
X68529338Y-159403437D01*
X68598569Y-159394013D01*
X68661905Y-159423515D01*
X68683804Y-159448787D01*
X68774278Y-159587268D01*
X68774283Y-159587273D01*
X68774284Y-159587276D01*
X68900968Y-159724889D01*
X68926760Y-159752906D01*
X69104424Y-159891189D01*
X69104425Y-159891189D01*
X69104427Y-159891191D01*
X69164314Y-159923600D01*
X69302426Y-159998342D01*
X69515365Y-160071444D01*
X69737431Y-160108500D01*
X69962569Y-160108500D01*
X70184635Y-160071444D01*
X70397574Y-159998342D01*
X70595576Y-159891189D01*
X70773240Y-159752906D01*
X70894594Y-159621082D01*
X70925715Y-159587276D01*
X70925715Y-159587275D01*
X70925722Y-159587268D01*
X71016193Y-159448790D01*
X71069338Y-159403437D01*
X71138569Y-159394013D01*
X71201905Y-159423515D01*
X71223804Y-159448787D01*
X71314278Y-159587268D01*
X71314283Y-159587273D01*
X71314284Y-159587276D01*
X71440968Y-159724889D01*
X71466760Y-159752906D01*
X71644424Y-159891189D01*
X71644425Y-159891189D01*
X71644427Y-159891191D01*
X71704314Y-159923600D01*
X71842426Y-159998342D01*
X72055365Y-160071444D01*
X72277431Y-160108500D01*
X72502569Y-160108500D01*
X72724635Y-160071444D01*
X72937574Y-159998342D01*
X73135576Y-159891189D01*
X73313240Y-159752906D01*
X73434594Y-159621082D01*
X73465715Y-159587276D01*
X73465715Y-159587275D01*
X73465722Y-159587268D01*
X73556193Y-159448790D01*
X73609338Y-159403437D01*
X73678569Y-159394013D01*
X73741905Y-159423515D01*
X73763804Y-159448787D01*
X73854278Y-159587268D01*
X73854283Y-159587273D01*
X73854284Y-159587276D01*
X73980968Y-159724889D01*
X74006760Y-159752906D01*
X74184424Y-159891189D01*
X74184425Y-159891189D01*
X74184427Y-159891191D01*
X74244314Y-159923600D01*
X74382426Y-159998342D01*
X74595365Y-160071444D01*
X74817431Y-160108500D01*
X75042569Y-160108500D01*
X75264635Y-160071444D01*
X75477574Y-159998342D01*
X75675576Y-159891189D01*
X75853240Y-159752906D01*
X75974594Y-159621082D01*
X76005715Y-159587276D01*
X76005715Y-159587275D01*
X76005722Y-159587268D01*
X76096193Y-159448790D01*
X76149338Y-159403437D01*
X76218569Y-159394013D01*
X76281905Y-159423515D01*
X76303804Y-159448787D01*
X76394278Y-159587268D01*
X76394283Y-159587273D01*
X76394284Y-159587276D01*
X76520968Y-159724889D01*
X76546760Y-159752906D01*
X76724424Y-159891189D01*
X76724425Y-159891189D01*
X76724427Y-159891191D01*
X76784314Y-159923600D01*
X76922426Y-159998342D01*
X77135365Y-160071444D01*
X77357431Y-160108500D01*
X77582569Y-160108500D01*
X77804635Y-160071444D01*
X78017574Y-159998342D01*
X78215576Y-159891189D01*
X78393240Y-159752906D01*
X78514594Y-159621082D01*
X78545715Y-159587276D01*
X78545715Y-159587275D01*
X78545722Y-159587268D01*
X78636193Y-159448790D01*
X78689338Y-159403437D01*
X78758569Y-159394013D01*
X78821905Y-159423515D01*
X78843804Y-159448787D01*
X78934278Y-159587268D01*
X78934283Y-159587273D01*
X78934284Y-159587276D01*
X79060968Y-159724889D01*
X79086760Y-159752906D01*
X79264424Y-159891189D01*
X79264425Y-159891189D01*
X79264427Y-159891191D01*
X79324314Y-159923600D01*
X79462426Y-159998342D01*
X79675365Y-160071444D01*
X79897431Y-160108500D01*
X80122569Y-160108500D01*
X80344635Y-160071444D01*
X80557574Y-159998342D01*
X80755576Y-159891189D01*
X80933240Y-159752906D01*
X81054594Y-159621082D01*
X81085715Y-159587276D01*
X81085715Y-159587275D01*
X81085722Y-159587268D01*
X81176193Y-159448790D01*
X81229338Y-159403437D01*
X81298569Y-159394013D01*
X81361905Y-159423515D01*
X81383804Y-159448787D01*
X81474278Y-159587268D01*
X81474283Y-159587273D01*
X81474284Y-159587276D01*
X81600968Y-159724889D01*
X81626760Y-159752906D01*
X81804424Y-159891189D01*
X81804425Y-159891189D01*
X81804427Y-159891191D01*
X81864314Y-159923600D01*
X82002426Y-159998342D01*
X82215365Y-160071444D01*
X82437431Y-160108500D01*
X82662569Y-160108500D01*
X82884635Y-160071444D01*
X83097574Y-159998342D01*
X83295576Y-159891189D01*
X83473240Y-159752906D01*
X83594594Y-159621082D01*
X83625715Y-159587276D01*
X83625715Y-159587275D01*
X83625722Y-159587268D01*
X83716193Y-159448790D01*
X83769338Y-159403437D01*
X83838569Y-159394013D01*
X83901905Y-159423515D01*
X83923804Y-159448787D01*
X84014278Y-159587268D01*
X84014283Y-159587273D01*
X84014284Y-159587276D01*
X84140968Y-159724889D01*
X84166760Y-159752906D01*
X84344424Y-159891189D01*
X84344425Y-159891189D01*
X84344427Y-159891191D01*
X84404314Y-159923600D01*
X84542426Y-159998342D01*
X84755365Y-160071444D01*
X84977431Y-160108500D01*
X85202569Y-160108500D01*
X85424635Y-160071444D01*
X85637574Y-159998342D01*
X85835576Y-159891189D01*
X86013240Y-159752906D01*
X86134594Y-159621082D01*
X86165715Y-159587276D01*
X86165715Y-159587275D01*
X86165722Y-159587268D01*
X86256193Y-159448790D01*
X86309338Y-159403437D01*
X86378569Y-159394013D01*
X86441905Y-159423515D01*
X86463804Y-159448787D01*
X86554278Y-159587268D01*
X86554283Y-159587273D01*
X86554284Y-159587276D01*
X86680968Y-159724889D01*
X86706760Y-159752906D01*
X86884424Y-159891189D01*
X86884425Y-159891189D01*
X86884427Y-159891191D01*
X86944314Y-159923600D01*
X87082426Y-159998342D01*
X87295365Y-160071444D01*
X87517431Y-160108500D01*
X87742569Y-160108500D01*
X87964635Y-160071444D01*
X88177574Y-159998342D01*
X88375576Y-159891189D01*
X88553240Y-159752906D01*
X88674594Y-159621082D01*
X88705715Y-159587276D01*
X88705715Y-159587275D01*
X88705722Y-159587268D01*
X88796193Y-159448790D01*
X88849338Y-159403437D01*
X88918569Y-159394013D01*
X88981905Y-159423515D01*
X89003804Y-159448787D01*
X89094278Y-159587268D01*
X89094283Y-159587273D01*
X89094284Y-159587276D01*
X89220968Y-159724889D01*
X89246760Y-159752906D01*
X89424424Y-159891189D01*
X89424425Y-159891189D01*
X89424427Y-159891191D01*
X89484314Y-159923600D01*
X89622426Y-159998342D01*
X89835365Y-160071444D01*
X90057431Y-160108500D01*
X90282569Y-160108500D01*
X90504635Y-160071444D01*
X90717574Y-159998342D01*
X90915576Y-159891189D01*
X91093240Y-159752906D01*
X91214594Y-159621082D01*
X91245715Y-159587276D01*
X91245717Y-159587273D01*
X91245722Y-159587268D01*
X91368860Y-159398791D01*
X91459296Y-159192616D01*
X91514564Y-158974368D01*
X91517164Y-158942993D01*
X91533156Y-158750005D01*
X91533156Y-158749994D01*
X91514565Y-158525640D01*
X91514563Y-158525628D01*
X91459296Y-158307385D01*
X91449071Y-158284075D01*
X91368860Y-158101209D01*
X91352706Y-158076484D01*
X91245723Y-157912734D01*
X91245715Y-157912723D01*
X91093243Y-157747097D01*
X91093238Y-157747092D01*
X90915577Y-157608812D01*
X90915572Y-157608808D01*
X90717580Y-157501661D01*
X90717577Y-157501659D01*
X90717574Y-157501658D01*
X90717571Y-157501657D01*
X90717569Y-157501656D01*
X90504637Y-157428556D01*
X90282569Y-157391500D01*
X90057431Y-157391500D01*
X89835362Y-157428556D01*
X89622430Y-157501656D01*
X89622419Y-157501661D01*
X89424427Y-157608808D01*
X89424422Y-157608812D01*
X89246761Y-157747092D01*
X89246756Y-157747097D01*
X89094284Y-157912723D01*
X89094276Y-157912734D01*
X89003808Y-158051206D01*
X88950662Y-158096562D01*
X88881431Y-158105986D01*
X88818095Y-158076484D01*
X88796192Y-158051206D01*
X88705723Y-157912734D01*
X88705715Y-157912723D01*
X88553243Y-157747097D01*
X88553238Y-157747092D01*
X88375577Y-157608812D01*
X88375572Y-157608808D01*
X88177580Y-157501661D01*
X88177577Y-157501659D01*
X88177574Y-157501658D01*
X88177571Y-157501657D01*
X88177569Y-157501656D01*
X87964637Y-157428556D01*
X87742569Y-157391500D01*
X87517431Y-157391500D01*
X87295362Y-157428556D01*
X87082430Y-157501656D01*
X87082419Y-157501661D01*
X86884427Y-157608808D01*
X86884422Y-157608812D01*
X86706761Y-157747092D01*
X86706756Y-157747097D01*
X86554284Y-157912723D01*
X86554276Y-157912734D01*
X86463808Y-158051206D01*
X86410662Y-158096562D01*
X86341431Y-158105986D01*
X86278095Y-158076484D01*
X86256192Y-158051206D01*
X86165723Y-157912734D01*
X86165715Y-157912723D01*
X86013243Y-157747097D01*
X86013238Y-157747092D01*
X85835577Y-157608812D01*
X85835572Y-157608808D01*
X85637580Y-157501661D01*
X85637577Y-157501659D01*
X85637574Y-157501658D01*
X85637571Y-157501657D01*
X85637569Y-157501656D01*
X85424637Y-157428556D01*
X85202569Y-157391500D01*
X84977431Y-157391500D01*
X84755362Y-157428556D01*
X84542430Y-157501656D01*
X84542419Y-157501661D01*
X84344427Y-157608808D01*
X84344422Y-157608812D01*
X84166761Y-157747092D01*
X84166756Y-157747097D01*
X84014284Y-157912723D01*
X84014276Y-157912734D01*
X83923808Y-158051206D01*
X83870662Y-158096562D01*
X83801431Y-158105986D01*
X83738095Y-158076484D01*
X83716192Y-158051206D01*
X83625723Y-157912734D01*
X83625715Y-157912723D01*
X83473243Y-157747097D01*
X83473238Y-157747092D01*
X83295577Y-157608812D01*
X83295572Y-157608808D01*
X83097580Y-157501661D01*
X83097577Y-157501659D01*
X83097574Y-157501658D01*
X83097571Y-157501657D01*
X83097569Y-157501656D01*
X82884637Y-157428556D01*
X82662569Y-157391500D01*
X82437431Y-157391500D01*
X82215362Y-157428556D01*
X82002430Y-157501656D01*
X82002419Y-157501661D01*
X81804427Y-157608808D01*
X81804422Y-157608812D01*
X81626761Y-157747092D01*
X81626756Y-157747097D01*
X81474284Y-157912723D01*
X81474276Y-157912734D01*
X81383808Y-158051206D01*
X81330662Y-158096562D01*
X81261431Y-158105986D01*
X81198095Y-158076484D01*
X81176192Y-158051206D01*
X81085723Y-157912734D01*
X81085715Y-157912723D01*
X80933243Y-157747097D01*
X80933238Y-157747092D01*
X80755577Y-157608812D01*
X80755572Y-157608808D01*
X80557580Y-157501661D01*
X80557577Y-157501659D01*
X80557574Y-157501658D01*
X80557571Y-157501657D01*
X80557569Y-157501656D01*
X80344637Y-157428556D01*
X80122569Y-157391500D01*
X79897431Y-157391500D01*
X79675362Y-157428556D01*
X79462430Y-157501656D01*
X79462419Y-157501661D01*
X79264427Y-157608808D01*
X79264422Y-157608812D01*
X79086761Y-157747092D01*
X79086756Y-157747097D01*
X78934284Y-157912723D01*
X78934276Y-157912734D01*
X78843808Y-158051206D01*
X78790662Y-158096562D01*
X78721431Y-158105986D01*
X78658095Y-158076484D01*
X78636192Y-158051206D01*
X78545723Y-157912734D01*
X78545715Y-157912723D01*
X78393243Y-157747097D01*
X78393238Y-157747092D01*
X78215577Y-157608812D01*
X78215572Y-157608808D01*
X78017580Y-157501661D01*
X78017577Y-157501659D01*
X78017574Y-157501658D01*
X78017571Y-157501657D01*
X78017569Y-157501656D01*
X77804637Y-157428556D01*
X77582569Y-157391500D01*
X77357431Y-157391500D01*
X77135362Y-157428556D01*
X76922430Y-157501656D01*
X76922419Y-157501661D01*
X76724427Y-157608808D01*
X76724422Y-157608812D01*
X76546761Y-157747092D01*
X76546756Y-157747097D01*
X76394284Y-157912723D01*
X76394276Y-157912734D01*
X76303808Y-158051206D01*
X76250662Y-158096562D01*
X76181431Y-158105986D01*
X76118095Y-158076484D01*
X76096192Y-158051206D01*
X76005723Y-157912734D01*
X76005715Y-157912723D01*
X75853243Y-157747097D01*
X75853238Y-157747092D01*
X75675577Y-157608812D01*
X75675572Y-157608808D01*
X75477580Y-157501661D01*
X75477577Y-157501659D01*
X75477574Y-157501658D01*
X75477571Y-157501657D01*
X75477569Y-157501656D01*
X75264637Y-157428556D01*
X75042569Y-157391500D01*
X74817431Y-157391500D01*
X74595362Y-157428556D01*
X74382430Y-157501656D01*
X74382419Y-157501661D01*
X74184427Y-157608808D01*
X74184422Y-157608812D01*
X74006761Y-157747092D01*
X74006756Y-157747097D01*
X73854284Y-157912723D01*
X73854276Y-157912734D01*
X73763808Y-158051206D01*
X73710662Y-158096562D01*
X73641431Y-158105986D01*
X73578095Y-158076484D01*
X73556192Y-158051206D01*
X73465723Y-157912734D01*
X73465715Y-157912723D01*
X73313243Y-157747097D01*
X73313238Y-157747092D01*
X73135577Y-157608812D01*
X73135572Y-157608808D01*
X72937580Y-157501661D01*
X72937577Y-157501659D01*
X72937574Y-157501658D01*
X72937571Y-157501657D01*
X72937569Y-157501656D01*
X72724637Y-157428556D01*
X72502569Y-157391500D01*
X72277431Y-157391500D01*
X72055362Y-157428556D01*
X71842430Y-157501656D01*
X71842419Y-157501661D01*
X71644427Y-157608808D01*
X71644422Y-157608812D01*
X71466761Y-157747092D01*
X71466756Y-157747097D01*
X71314284Y-157912723D01*
X71314276Y-157912734D01*
X71223808Y-158051206D01*
X71170662Y-158096562D01*
X71101431Y-158105986D01*
X71038095Y-158076484D01*
X71016192Y-158051206D01*
X70925723Y-157912734D01*
X70925715Y-157912723D01*
X70773243Y-157747097D01*
X70773238Y-157747092D01*
X70595577Y-157608812D01*
X70595572Y-157608808D01*
X70397580Y-157501661D01*
X70397577Y-157501659D01*
X70397574Y-157501658D01*
X70397571Y-157501657D01*
X70397569Y-157501656D01*
X70184637Y-157428556D01*
X69962569Y-157391500D01*
X69737431Y-157391500D01*
X69515362Y-157428556D01*
X69302430Y-157501656D01*
X69302419Y-157501661D01*
X69104427Y-157608808D01*
X69104422Y-157608812D01*
X68926761Y-157747092D01*
X68926756Y-157747097D01*
X68774284Y-157912723D01*
X68774276Y-157912734D01*
X68683808Y-158051206D01*
X68630662Y-158096562D01*
X68561431Y-158105986D01*
X68498095Y-158076484D01*
X68476192Y-158051206D01*
X68385723Y-157912734D01*
X68385715Y-157912723D01*
X68233243Y-157747097D01*
X68233238Y-157747092D01*
X68055577Y-157608812D01*
X68055572Y-157608808D01*
X67857580Y-157501661D01*
X67857577Y-157501659D01*
X67857574Y-157501658D01*
X67857571Y-157501657D01*
X67857569Y-157501656D01*
X67644637Y-157428556D01*
X67422569Y-157391500D01*
X67197431Y-157391500D01*
X66975362Y-157428556D01*
X66762430Y-157501656D01*
X66762419Y-157501661D01*
X66564427Y-157608808D01*
X66564422Y-157608812D01*
X66386761Y-157747092D01*
X66386756Y-157747097D01*
X66234284Y-157912723D01*
X66234276Y-157912734D01*
X66143808Y-158051206D01*
X66090662Y-158096562D01*
X66021431Y-158105986D01*
X65958095Y-158076484D01*
X65936192Y-158051206D01*
X65845723Y-157912734D01*
X65845715Y-157912723D01*
X65693243Y-157747097D01*
X65693238Y-157747092D01*
X65515577Y-157608812D01*
X65515572Y-157608808D01*
X65317580Y-157501661D01*
X65317577Y-157501659D01*
X65317574Y-157501658D01*
X65317571Y-157501657D01*
X65317569Y-157501656D01*
X65104637Y-157428556D01*
X64882569Y-157391500D01*
X64657431Y-157391500D01*
X64435362Y-157428556D01*
X64222430Y-157501656D01*
X64222419Y-157501661D01*
X64024427Y-157608808D01*
X64024422Y-157608812D01*
X63846761Y-157747092D01*
X63846756Y-157747097D01*
X63694284Y-157912723D01*
X63694276Y-157912734D01*
X63600251Y-158056650D01*
X63547105Y-158102007D01*
X63477873Y-158111430D01*
X63414538Y-158081928D01*
X63394868Y-158059951D01*
X63268113Y-157878926D01*
X63268108Y-157878920D01*
X63101082Y-157711894D01*
X62907578Y-157576399D01*
X62693492Y-157476570D01*
X62693486Y-157476567D01*
X62480000Y-157419364D01*
X62480000Y-158316988D01*
X62422993Y-158284075D01*
X62295826Y-158250000D01*
X62164174Y-158250000D01*
X62037007Y-158284075D01*
X61980000Y-158316988D01*
X61980000Y-157419364D01*
X61979999Y-157419364D01*
X61766513Y-157476567D01*
X61766507Y-157476570D01*
X61552422Y-157576399D01*
X61552420Y-157576400D01*
X61358926Y-157711886D01*
X61358920Y-157711891D01*
X61191891Y-157878920D01*
X61191890Y-157878922D01*
X61065131Y-158059952D01*
X61010554Y-158103577D01*
X60941055Y-158110769D01*
X60878701Y-158079247D01*
X60859752Y-158056656D01*
X60765722Y-157912732D01*
X60765715Y-157912725D01*
X60765715Y-157912723D01*
X60613243Y-157747097D01*
X60613238Y-157747092D01*
X60435577Y-157608812D01*
X60435572Y-157608808D01*
X60237580Y-157501661D01*
X60237577Y-157501659D01*
X60237574Y-157501658D01*
X60237571Y-157501657D01*
X60237569Y-157501656D01*
X60024637Y-157428556D01*
X59802569Y-157391500D01*
X59577431Y-157391500D01*
X59355362Y-157428556D01*
X59142430Y-157501656D01*
X59142419Y-157501661D01*
X58944427Y-157608808D01*
X58944422Y-157608812D01*
X58766761Y-157747092D01*
X58766756Y-157747097D01*
X58614284Y-157912723D01*
X58614276Y-157912734D01*
X58523808Y-158051206D01*
X58470662Y-158096562D01*
X58401431Y-158105986D01*
X58338095Y-158076484D01*
X58316192Y-158051206D01*
X58225723Y-157912734D01*
X58225715Y-157912723D01*
X58073243Y-157747097D01*
X58073238Y-157747092D01*
X57895577Y-157608812D01*
X57895572Y-157608808D01*
X57697580Y-157501661D01*
X57697577Y-157501659D01*
X57697574Y-157501658D01*
X57697571Y-157501657D01*
X57697569Y-157501656D01*
X57484637Y-157428556D01*
X57262569Y-157391500D01*
X57037431Y-157391500D01*
X56815362Y-157428556D01*
X56602430Y-157501656D01*
X56602419Y-157501661D01*
X56404427Y-157608808D01*
X56404422Y-157608812D01*
X56226761Y-157747092D01*
X56163548Y-157815760D01*
X56103661Y-157851750D01*
X56033823Y-157849649D01*
X55976207Y-157810124D01*
X55956138Y-157775110D01*
X55910889Y-157653796D01*
X55877214Y-157608812D01*
X55823261Y-157536739D01*
X55706204Y-157449111D01*
X55569203Y-157398011D01*
X55508654Y-157391500D01*
X55508638Y-157391500D01*
X53711362Y-157391500D01*
X53711345Y-157391500D01*
X53650797Y-157398011D01*
X53650795Y-157398011D01*
X53513795Y-157449111D01*
X53396739Y-157536739D01*
X53309111Y-157653795D01*
X53258011Y-157790795D01*
X53258011Y-157790797D01*
X53251500Y-157851345D01*
X53251500Y-159648654D01*
X45795500Y-159648654D01*
X45795500Y-143510005D01*
X53246844Y-143510005D01*
X53265434Y-143734359D01*
X53265436Y-143734371D01*
X53320703Y-143952614D01*
X53411140Y-144158792D01*
X53534276Y-144347265D01*
X53534284Y-144347276D01*
X53660967Y-144484888D01*
X53686760Y-144512906D01*
X53864424Y-144651189D01*
X53864425Y-144651189D01*
X53864427Y-144651191D01*
X53924314Y-144683600D01*
X54062426Y-144758342D01*
X54275365Y-144831444D01*
X54497431Y-144868500D01*
X54722569Y-144868500D01*
X54944635Y-144831444D01*
X55157574Y-144758342D01*
X55355576Y-144651189D01*
X55533240Y-144512906D01*
X55654594Y-144381082D01*
X55685715Y-144347276D01*
X55685715Y-144347275D01*
X55685722Y-144347268D01*
X55779749Y-144203347D01*
X55832894Y-144157994D01*
X55902125Y-144148570D01*
X55965461Y-144178072D01*
X55985130Y-144200048D01*
X56111890Y-144381078D01*
X56278917Y-144548105D01*
X56472421Y-144683600D01*
X56686507Y-144783429D01*
X56686516Y-144783433D01*
X56900000Y-144840634D01*
X56900000Y-143943012D01*
X56957007Y-143975925D01*
X57084174Y-144010000D01*
X57215826Y-144010000D01*
X57342993Y-143975925D01*
X57400000Y-143943012D01*
X57400000Y-144840633D01*
X57613483Y-144783433D01*
X57613492Y-144783429D01*
X57827578Y-144683600D01*
X58021082Y-144548105D01*
X58188105Y-144381082D01*
X58314868Y-144200048D01*
X58369445Y-144156423D01*
X58438944Y-144149231D01*
X58501298Y-144180753D01*
X58520251Y-144203350D01*
X58614276Y-144347265D01*
X58614284Y-144347276D01*
X58740967Y-144484888D01*
X58766760Y-144512906D01*
X58944424Y-144651189D01*
X58944425Y-144651189D01*
X58944427Y-144651191D01*
X59004314Y-144683600D01*
X59142426Y-144758342D01*
X59355365Y-144831444D01*
X59577431Y-144868500D01*
X59802569Y-144868500D01*
X60024635Y-144831444D01*
X60237574Y-144758342D01*
X60435576Y-144651189D01*
X60613240Y-144512906D01*
X60734594Y-144381082D01*
X60765715Y-144347276D01*
X60765715Y-144347275D01*
X60765722Y-144347268D01*
X60856193Y-144208790D01*
X60909338Y-144163437D01*
X60978569Y-144154013D01*
X61041905Y-144183515D01*
X61063804Y-144208787D01*
X61154278Y-144347268D01*
X61154283Y-144347273D01*
X61154284Y-144347276D01*
X61280967Y-144484888D01*
X61306760Y-144512906D01*
X61484424Y-144651189D01*
X61484425Y-144651189D01*
X61484427Y-144651191D01*
X61544314Y-144683600D01*
X61682426Y-144758342D01*
X61895365Y-144831444D01*
X62117431Y-144868500D01*
X62342569Y-144868500D01*
X62564635Y-144831444D01*
X62777574Y-144758342D01*
X62975576Y-144651189D01*
X63153240Y-144512906D01*
X63274594Y-144381082D01*
X63305715Y-144347276D01*
X63305715Y-144347275D01*
X63305722Y-144347268D01*
X63396193Y-144208790D01*
X63449338Y-144163437D01*
X63518569Y-144154013D01*
X63581905Y-144183515D01*
X63603804Y-144208787D01*
X63694278Y-144347268D01*
X63694283Y-144347273D01*
X63694284Y-144347276D01*
X63820967Y-144484888D01*
X63846760Y-144512906D01*
X64024424Y-144651189D01*
X64024425Y-144651189D01*
X64024427Y-144651191D01*
X64084314Y-144683600D01*
X64222426Y-144758342D01*
X64435365Y-144831444D01*
X64657431Y-144868500D01*
X64882569Y-144868500D01*
X65104635Y-144831444D01*
X65317574Y-144758342D01*
X65515576Y-144651189D01*
X65693240Y-144512906D01*
X65814594Y-144381082D01*
X65845715Y-144347276D01*
X65845715Y-144347275D01*
X65845722Y-144347268D01*
X65936193Y-144208790D01*
X65989338Y-144163437D01*
X66058569Y-144154013D01*
X66121905Y-144183515D01*
X66143804Y-144208787D01*
X66234278Y-144347268D01*
X66234283Y-144347273D01*
X66234284Y-144347276D01*
X66360967Y-144484888D01*
X66386760Y-144512906D01*
X66564424Y-144651189D01*
X66564425Y-144651189D01*
X66564427Y-144651191D01*
X66624314Y-144683600D01*
X66762426Y-144758342D01*
X66975365Y-144831444D01*
X67197431Y-144868500D01*
X67422569Y-144868500D01*
X67644635Y-144831444D01*
X67857574Y-144758342D01*
X68055576Y-144651189D01*
X68233240Y-144512906D01*
X68354594Y-144381082D01*
X68385715Y-144347276D01*
X68385715Y-144347275D01*
X68385722Y-144347268D01*
X68476193Y-144208790D01*
X68529338Y-144163437D01*
X68598569Y-144154013D01*
X68661905Y-144183515D01*
X68683804Y-144208787D01*
X68774278Y-144347268D01*
X68774283Y-144347273D01*
X68774284Y-144347276D01*
X68900967Y-144484888D01*
X68926760Y-144512906D01*
X69104424Y-144651189D01*
X69104425Y-144651189D01*
X69104427Y-144651191D01*
X69164314Y-144683600D01*
X69302426Y-144758342D01*
X69515365Y-144831444D01*
X69737431Y-144868500D01*
X69962569Y-144868500D01*
X70184635Y-144831444D01*
X70397574Y-144758342D01*
X70595576Y-144651189D01*
X70773240Y-144512906D01*
X70894594Y-144381082D01*
X70925715Y-144347276D01*
X70925715Y-144347275D01*
X70925722Y-144347268D01*
X71016193Y-144208790D01*
X71069338Y-144163437D01*
X71138569Y-144154013D01*
X71201905Y-144183515D01*
X71223804Y-144208787D01*
X71314278Y-144347268D01*
X71314283Y-144347273D01*
X71314284Y-144347276D01*
X71440967Y-144484888D01*
X71466760Y-144512906D01*
X71644424Y-144651189D01*
X71644425Y-144651189D01*
X71644427Y-144651191D01*
X71704314Y-144683600D01*
X71842426Y-144758342D01*
X72055365Y-144831444D01*
X72277431Y-144868500D01*
X72502569Y-144868500D01*
X72724635Y-144831444D01*
X72937574Y-144758342D01*
X73135576Y-144651189D01*
X73313240Y-144512906D01*
X73434594Y-144381082D01*
X73465715Y-144347276D01*
X73465715Y-144347275D01*
X73465722Y-144347268D01*
X73556193Y-144208790D01*
X73609338Y-144163437D01*
X73678569Y-144154013D01*
X73741905Y-144183515D01*
X73763804Y-144208787D01*
X73854278Y-144347268D01*
X73854283Y-144347273D01*
X73854284Y-144347276D01*
X73980967Y-144484888D01*
X74006760Y-144512906D01*
X74184424Y-144651189D01*
X74184425Y-144651189D01*
X74184427Y-144651191D01*
X74244314Y-144683600D01*
X74382426Y-144758342D01*
X74595365Y-144831444D01*
X74817431Y-144868500D01*
X75042569Y-144868500D01*
X75264635Y-144831444D01*
X75477574Y-144758342D01*
X75675576Y-144651189D01*
X75853240Y-144512906D01*
X75974594Y-144381082D01*
X76005715Y-144347276D01*
X76005715Y-144347275D01*
X76005722Y-144347268D01*
X76096193Y-144208790D01*
X76149338Y-144163437D01*
X76218569Y-144154013D01*
X76281905Y-144183515D01*
X76303804Y-144208787D01*
X76394278Y-144347268D01*
X76394283Y-144347273D01*
X76394284Y-144347276D01*
X76520967Y-144484888D01*
X76546760Y-144512906D01*
X76724424Y-144651189D01*
X76724425Y-144651189D01*
X76724427Y-144651191D01*
X76784314Y-144683600D01*
X76922426Y-144758342D01*
X77135365Y-144831444D01*
X77357431Y-144868500D01*
X77582569Y-144868500D01*
X77804635Y-144831444D01*
X78017574Y-144758342D01*
X78215576Y-144651189D01*
X78393240Y-144512906D01*
X78514594Y-144381082D01*
X78545715Y-144347276D01*
X78545715Y-144347275D01*
X78545722Y-144347268D01*
X78636193Y-144208790D01*
X78689338Y-144163437D01*
X78758569Y-144154013D01*
X78821905Y-144183515D01*
X78843804Y-144208787D01*
X78934278Y-144347268D01*
X78934283Y-144347273D01*
X78934284Y-144347276D01*
X79060967Y-144484888D01*
X79086760Y-144512906D01*
X79264424Y-144651189D01*
X79264425Y-144651189D01*
X79264427Y-144651191D01*
X79324314Y-144683600D01*
X79462426Y-144758342D01*
X79675365Y-144831444D01*
X79897431Y-144868500D01*
X80122569Y-144868500D01*
X80344635Y-144831444D01*
X80557574Y-144758342D01*
X80755576Y-144651189D01*
X80933240Y-144512906D01*
X81054594Y-144381082D01*
X81085715Y-144347276D01*
X81085715Y-144347275D01*
X81085722Y-144347268D01*
X81176193Y-144208790D01*
X81229338Y-144163437D01*
X81298569Y-144154013D01*
X81361905Y-144183515D01*
X81383804Y-144208787D01*
X81474278Y-144347268D01*
X81474283Y-144347273D01*
X81474284Y-144347276D01*
X81600967Y-144484888D01*
X81626760Y-144512906D01*
X81804424Y-144651189D01*
X81804425Y-144651189D01*
X81804427Y-144651191D01*
X81864314Y-144683600D01*
X82002426Y-144758342D01*
X82215365Y-144831444D01*
X82437431Y-144868500D01*
X82662569Y-144868500D01*
X82884635Y-144831444D01*
X83097574Y-144758342D01*
X83295576Y-144651189D01*
X83473240Y-144512906D01*
X83594594Y-144381082D01*
X83625715Y-144347276D01*
X83625715Y-144347275D01*
X83625722Y-144347268D01*
X83716193Y-144208790D01*
X83769338Y-144163437D01*
X83838569Y-144154013D01*
X83901905Y-144183515D01*
X83923804Y-144208787D01*
X84014278Y-144347268D01*
X84014283Y-144347273D01*
X84014284Y-144347276D01*
X84140967Y-144484888D01*
X84166760Y-144512906D01*
X84344424Y-144651189D01*
X84344425Y-144651189D01*
X84344427Y-144651191D01*
X84404314Y-144683600D01*
X84542426Y-144758342D01*
X84755365Y-144831444D01*
X84977431Y-144868500D01*
X85202569Y-144868500D01*
X85424635Y-144831444D01*
X85637574Y-144758342D01*
X85835576Y-144651189D01*
X86013240Y-144512906D01*
X86134594Y-144381082D01*
X86165715Y-144347276D01*
X86165715Y-144347275D01*
X86165722Y-144347268D01*
X86256193Y-144208790D01*
X86309338Y-144163437D01*
X86378569Y-144154013D01*
X86441905Y-144183515D01*
X86463804Y-144208787D01*
X86554278Y-144347268D01*
X86554283Y-144347273D01*
X86554284Y-144347276D01*
X86680967Y-144484888D01*
X86706760Y-144512906D01*
X86884424Y-144651189D01*
X86884425Y-144651189D01*
X86884427Y-144651191D01*
X86944314Y-144683600D01*
X87082426Y-144758342D01*
X87295365Y-144831444D01*
X87517431Y-144868500D01*
X87742569Y-144868500D01*
X87964635Y-144831444D01*
X88177574Y-144758342D01*
X88375576Y-144651189D01*
X88553240Y-144512906D01*
X88616452Y-144444239D01*
X88676337Y-144408250D01*
X88746175Y-144410349D01*
X88803791Y-144449873D01*
X88823861Y-144484888D01*
X88869111Y-144606204D01*
X88956739Y-144723261D01*
X89073796Y-144810889D01*
X89210799Y-144861989D01*
X89238050Y-144864918D01*
X89271345Y-144868499D01*
X89271362Y-144868500D01*
X91068638Y-144868500D01*
X91068654Y-144868499D01*
X91095692Y-144865591D01*
X91129201Y-144861989D01*
X91266204Y-144810889D01*
X91383261Y-144723261D01*
X91470889Y-144606204D01*
X91521989Y-144469201D01*
X91525591Y-144435692D01*
X91528499Y-144408654D01*
X91528500Y-144408637D01*
X91528500Y-142611362D01*
X91528499Y-142611345D01*
X91524672Y-142575759D01*
X91521989Y-142550799D01*
X91470889Y-142413796D01*
X91383261Y-142296739D01*
X91266204Y-142209111D01*
X91129203Y-142158011D01*
X91068654Y-142151500D01*
X91068638Y-142151500D01*
X89271362Y-142151500D01*
X89271345Y-142151500D01*
X89210797Y-142158011D01*
X89210795Y-142158011D01*
X89073795Y-142209111D01*
X88956739Y-142296739D01*
X88869111Y-142413795D01*
X88823861Y-142535111D01*
X88781989Y-142591044D01*
X88716524Y-142615460D01*
X88648252Y-142600607D01*
X88616454Y-142575762D01*
X88553240Y-142507094D01*
X88375576Y-142368811D01*
X88375575Y-142368810D01*
X88375572Y-142368808D01*
X88177580Y-142261661D01*
X88177577Y-142261659D01*
X88177574Y-142261658D01*
X88177571Y-142261657D01*
X88177569Y-142261656D01*
X87964637Y-142188556D01*
X87742569Y-142151500D01*
X87517431Y-142151500D01*
X87295362Y-142188556D01*
X87082430Y-142261656D01*
X87082419Y-142261661D01*
X86884427Y-142368808D01*
X86884422Y-142368812D01*
X86706761Y-142507092D01*
X86706756Y-142507097D01*
X86554284Y-142672723D01*
X86554276Y-142672734D01*
X86463808Y-142811206D01*
X86410662Y-142856562D01*
X86341431Y-142865986D01*
X86278095Y-142836484D01*
X86256192Y-142811206D01*
X86165723Y-142672734D01*
X86165715Y-142672723D01*
X86013243Y-142507097D01*
X86013238Y-142507092D01*
X85835577Y-142368812D01*
X85835572Y-142368808D01*
X85637580Y-142261661D01*
X85637577Y-142261659D01*
X85637574Y-142261658D01*
X85637571Y-142261657D01*
X85637569Y-142261656D01*
X85424637Y-142188556D01*
X85202569Y-142151500D01*
X84977431Y-142151500D01*
X84755362Y-142188556D01*
X84542430Y-142261656D01*
X84542419Y-142261661D01*
X84344427Y-142368808D01*
X84344422Y-142368812D01*
X84166761Y-142507092D01*
X84166756Y-142507097D01*
X84014284Y-142672723D01*
X84014276Y-142672734D01*
X83923808Y-142811206D01*
X83870662Y-142856562D01*
X83801431Y-142865986D01*
X83738095Y-142836484D01*
X83716192Y-142811206D01*
X83625723Y-142672734D01*
X83625715Y-142672723D01*
X83473243Y-142507097D01*
X83473238Y-142507092D01*
X83295577Y-142368812D01*
X83295572Y-142368808D01*
X83097580Y-142261661D01*
X83097577Y-142261659D01*
X83097574Y-142261658D01*
X83097571Y-142261657D01*
X83097569Y-142261656D01*
X82884637Y-142188556D01*
X82662569Y-142151500D01*
X82437431Y-142151500D01*
X82215362Y-142188556D01*
X82002430Y-142261656D01*
X82002419Y-142261661D01*
X81804427Y-142368808D01*
X81804422Y-142368812D01*
X81626761Y-142507092D01*
X81626756Y-142507097D01*
X81474284Y-142672723D01*
X81474276Y-142672734D01*
X81383808Y-142811206D01*
X81330662Y-142856562D01*
X81261431Y-142865986D01*
X81198095Y-142836484D01*
X81176192Y-142811206D01*
X81085723Y-142672734D01*
X81085715Y-142672723D01*
X80933243Y-142507097D01*
X80933238Y-142507092D01*
X80755577Y-142368812D01*
X80755572Y-142368808D01*
X80557580Y-142261661D01*
X80557577Y-142261659D01*
X80557574Y-142261658D01*
X80557571Y-142261657D01*
X80557569Y-142261656D01*
X80344637Y-142188556D01*
X80122569Y-142151500D01*
X79897431Y-142151500D01*
X79675362Y-142188556D01*
X79462430Y-142261656D01*
X79462419Y-142261661D01*
X79264427Y-142368808D01*
X79264422Y-142368812D01*
X79086761Y-142507092D01*
X79086756Y-142507097D01*
X78934284Y-142672723D01*
X78934276Y-142672734D01*
X78843808Y-142811206D01*
X78790662Y-142856562D01*
X78721431Y-142865986D01*
X78658095Y-142836484D01*
X78636192Y-142811206D01*
X78545723Y-142672734D01*
X78545715Y-142672723D01*
X78393243Y-142507097D01*
X78393238Y-142507092D01*
X78215577Y-142368812D01*
X78215572Y-142368808D01*
X78017580Y-142261661D01*
X78017577Y-142261659D01*
X78017574Y-142261658D01*
X78017571Y-142261657D01*
X78017569Y-142261656D01*
X77804637Y-142188556D01*
X77582569Y-142151500D01*
X77357431Y-142151500D01*
X77135362Y-142188556D01*
X76922430Y-142261656D01*
X76922419Y-142261661D01*
X76724427Y-142368808D01*
X76724422Y-142368812D01*
X76546761Y-142507092D01*
X76546756Y-142507097D01*
X76394284Y-142672723D01*
X76394276Y-142672734D01*
X76303808Y-142811206D01*
X76250662Y-142856562D01*
X76181431Y-142865986D01*
X76118095Y-142836484D01*
X76096192Y-142811206D01*
X76005723Y-142672734D01*
X76005715Y-142672723D01*
X75853243Y-142507097D01*
X75853238Y-142507092D01*
X75675577Y-142368812D01*
X75675572Y-142368808D01*
X75477580Y-142261661D01*
X75477577Y-142261659D01*
X75477574Y-142261658D01*
X75477571Y-142261657D01*
X75477569Y-142261656D01*
X75264637Y-142188556D01*
X75042569Y-142151500D01*
X74817431Y-142151500D01*
X74595362Y-142188556D01*
X74382430Y-142261656D01*
X74382419Y-142261661D01*
X74184427Y-142368808D01*
X74184422Y-142368812D01*
X74006761Y-142507092D01*
X74006756Y-142507097D01*
X73854284Y-142672723D01*
X73854276Y-142672734D01*
X73763808Y-142811206D01*
X73710662Y-142856562D01*
X73641431Y-142865986D01*
X73578095Y-142836484D01*
X73556192Y-142811206D01*
X73465723Y-142672734D01*
X73465715Y-142672723D01*
X73313243Y-142507097D01*
X73313238Y-142507092D01*
X73135577Y-142368812D01*
X73135572Y-142368808D01*
X72937580Y-142261661D01*
X72937577Y-142261659D01*
X72937574Y-142261658D01*
X72937571Y-142261657D01*
X72937569Y-142261656D01*
X72724637Y-142188556D01*
X72502569Y-142151500D01*
X72277431Y-142151500D01*
X72055362Y-142188556D01*
X71842430Y-142261656D01*
X71842419Y-142261661D01*
X71644427Y-142368808D01*
X71644422Y-142368812D01*
X71466761Y-142507092D01*
X71466756Y-142507097D01*
X71314284Y-142672723D01*
X71314276Y-142672734D01*
X71223808Y-142811206D01*
X71170662Y-142856562D01*
X71101431Y-142865986D01*
X71038095Y-142836484D01*
X71016192Y-142811206D01*
X70925723Y-142672734D01*
X70925715Y-142672723D01*
X70773243Y-142507097D01*
X70773238Y-142507092D01*
X70595577Y-142368812D01*
X70595572Y-142368808D01*
X70397580Y-142261661D01*
X70397577Y-142261659D01*
X70397574Y-142261658D01*
X70397571Y-142261657D01*
X70397569Y-142261656D01*
X70184637Y-142188556D01*
X69962569Y-142151500D01*
X69737431Y-142151500D01*
X69515362Y-142188556D01*
X69302430Y-142261656D01*
X69302419Y-142261661D01*
X69104427Y-142368808D01*
X69104422Y-142368812D01*
X68926761Y-142507092D01*
X68926756Y-142507097D01*
X68774284Y-142672723D01*
X68774276Y-142672734D01*
X68683808Y-142811206D01*
X68630662Y-142856562D01*
X68561431Y-142865986D01*
X68498095Y-142836484D01*
X68476192Y-142811206D01*
X68385723Y-142672734D01*
X68385715Y-142672723D01*
X68233243Y-142507097D01*
X68233238Y-142507092D01*
X68055577Y-142368812D01*
X68055572Y-142368808D01*
X67857580Y-142261661D01*
X67857577Y-142261659D01*
X67857574Y-142261658D01*
X67857571Y-142261657D01*
X67857569Y-142261656D01*
X67644637Y-142188556D01*
X67422569Y-142151500D01*
X67197431Y-142151500D01*
X66975362Y-142188556D01*
X66762430Y-142261656D01*
X66762419Y-142261661D01*
X66564427Y-142368808D01*
X66564422Y-142368812D01*
X66386761Y-142507092D01*
X66386756Y-142507097D01*
X66234284Y-142672723D01*
X66234276Y-142672734D01*
X66143808Y-142811206D01*
X66090662Y-142856562D01*
X66021431Y-142865986D01*
X65958095Y-142836484D01*
X65936192Y-142811206D01*
X65845723Y-142672734D01*
X65845715Y-142672723D01*
X65693243Y-142507097D01*
X65693238Y-142507092D01*
X65515577Y-142368812D01*
X65515572Y-142368808D01*
X65317580Y-142261661D01*
X65317577Y-142261659D01*
X65317574Y-142261658D01*
X65317571Y-142261657D01*
X65317569Y-142261656D01*
X65104637Y-142188556D01*
X64882569Y-142151500D01*
X64657431Y-142151500D01*
X64435362Y-142188556D01*
X64222430Y-142261656D01*
X64222419Y-142261661D01*
X64024427Y-142368808D01*
X64024422Y-142368812D01*
X63846761Y-142507092D01*
X63846756Y-142507097D01*
X63694284Y-142672723D01*
X63694276Y-142672734D01*
X63603808Y-142811206D01*
X63550662Y-142856562D01*
X63481431Y-142865986D01*
X63418095Y-142836484D01*
X63396192Y-142811206D01*
X63305723Y-142672734D01*
X63305715Y-142672723D01*
X63153243Y-142507097D01*
X63153238Y-142507092D01*
X62975577Y-142368812D01*
X62975572Y-142368808D01*
X62777580Y-142261661D01*
X62777577Y-142261659D01*
X62777574Y-142261658D01*
X62777571Y-142261657D01*
X62777569Y-142261656D01*
X62564637Y-142188556D01*
X62342569Y-142151500D01*
X62117431Y-142151500D01*
X61895362Y-142188556D01*
X61682430Y-142261656D01*
X61682419Y-142261661D01*
X61484427Y-142368808D01*
X61484422Y-142368812D01*
X61306761Y-142507092D01*
X61306756Y-142507097D01*
X61154284Y-142672723D01*
X61154276Y-142672734D01*
X61063808Y-142811206D01*
X61010662Y-142856562D01*
X60941431Y-142865986D01*
X60878095Y-142836484D01*
X60856192Y-142811206D01*
X60765723Y-142672734D01*
X60765715Y-142672723D01*
X60613243Y-142507097D01*
X60613238Y-142507092D01*
X60435577Y-142368812D01*
X60435572Y-142368808D01*
X60237580Y-142261661D01*
X60237577Y-142261659D01*
X60237574Y-142261658D01*
X60237571Y-142261657D01*
X60237569Y-142261656D01*
X60024637Y-142188556D01*
X59802569Y-142151500D01*
X59577431Y-142151500D01*
X59355362Y-142188556D01*
X59142430Y-142261656D01*
X59142419Y-142261661D01*
X58944427Y-142368808D01*
X58944422Y-142368812D01*
X58766761Y-142507092D01*
X58766756Y-142507097D01*
X58614284Y-142672723D01*
X58614276Y-142672734D01*
X58520251Y-142816650D01*
X58467105Y-142862007D01*
X58397873Y-142871430D01*
X58334538Y-142841928D01*
X58314868Y-142819951D01*
X58188113Y-142638926D01*
X58188108Y-142638920D01*
X58021082Y-142471894D01*
X57827578Y-142336399D01*
X57613492Y-142236570D01*
X57613486Y-142236567D01*
X57400000Y-142179364D01*
X57400000Y-143076988D01*
X57342993Y-143044075D01*
X57215826Y-143010000D01*
X57084174Y-143010000D01*
X56957007Y-143044075D01*
X56900000Y-143076988D01*
X56900000Y-142179364D01*
X56899999Y-142179364D01*
X56686513Y-142236567D01*
X56686507Y-142236570D01*
X56472422Y-142336399D01*
X56472420Y-142336400D01*
X56278926Y-142471886D01*
X56278920Y-142471891D01*
X56111891Y-142638920D01*
X56111890Y-142638922D01*
X55985131Y-142819952D01*
X55930554Y-142863577D01*
X55861055Y-142870769D01*
X55798701Y-142839247D01*
X55779752Y-142816656D01*
X55685722Y-142672732D01*
X55685715Y-142672725D01*
X55685715Y-142672723D01*
X55533243Y-142507097D01*
X55533238Y-142507092D01*
X55355577Y-142368812D01*
X55355572Y-142368808D01*
X55157580Y-142261661D01*
X55157577Y-142261659D01*
X55157574Y-142261658D01*
X55157571Y-142261657D01*
X55157569Y-142261656D01*
X54944637Y-142188556D01*
X54722569Y-142151500D01*
X54497431Y-142151500D01*
X54275362Y-142188556D01*
X54062430Y-142261656D01*
X54062419Y-142261661D01*
X53864427Y-142368808D01*
X53864422Y-142368812D01*
X53686761Y-142507092D01*
X53686756Y-142507097D01*
X53534284Y-142672723D01*
X53534276Y-142672734D01*
X53411140Y-142861207D01*
X53320703Y-143067385D01*
X53265436Y-143285628D01*
X53265434Y-143285640D01*
X53246844Y-143509994D01*
X53246844Y-143510005D01*
X45795500Y-143510005D01*
X45795500Y-138058654D01*
X53251500Y-138058654D01*
X53258011Y-138119202D01*
X53258011Y-138119204D01*
X53309111Y-138256204D01*
X53396739Y-138373261D01*
X53513796Y-138460889D01*
X53650799Y-138511989D01*
X53678050Y-138514918D01*
X53711345Y-138518499D01*
X53711362Y-138518500D01*
X55508638Y-138518500D01*
X55508654Y-138518499D01*
X55535692Y-138515591D01*
X55569201Y-138511989D01*
X55706204Y-138460889D01*
X55823261Y-138373261D01*
X55910889Y-138256204D01*
X55959223Y-138126615D01*
X56001093Y-138070686D01*
X56066557Y-138046269D01*
X56134830Y-138061121D01*
X56163084Y-138082272D01*
X56278917Y-138198105D01*
X56472421Y-138333600D01*
X56686507Y-138433429D01*
X56686516Y-138433433D01*
X56900000Y-138490634D01*
X56900000Y-137593012D01*
X56957007Y-137625925D01*
X57084174Y-137660000D01*
X57215826Y-137660000D01*
X57342993Y-137625925D01*
X57400000Y-137593012D01*
X57400000Y-138490633D01*
X57613483Y-138433433D01*
X57613492Y-138433429D01*
X57827578Y-138333600D01*
X58021082Y-138198105D01*
X58188105Y-138031082D01*
X58314868Y-137850048D01*
X58369445Y-137806423D01*
X58438944Y-137799231D01*
X58501298Y-137830753D01*
X58520251Y-137853350D01*
X58614276Y-137997265D01*
X58614284Y-137997276D01*
X58733355Y-138126619D01*
X58766760Y-138162906D01*
X58944424Y-138301189D01*
X58944425Y-138301189D01*
X58944427Y-138301191D01*
X59004314Y-138333600D01*
X59142426Y-138408342D01*
X59355365Y-138481444D01*
X59577431Y-138518500D01*
X59802569Y-138518500D01*
X60024635Y-138481444D01*
X60237574Y-138408342D01*
X60435576Y-138301189D01*
X60613240Y-138162906D01*
X60765722Y-137997268D01*
X60856193Y-137858790D01*
X60909338Y-137813437D01*
X60978569Y-137804013D01*
X61041905Y-137833515D01*
X61063804Y-137858787D01*
X61154278Y-137997268D01*
X61154283Y-137997273D01*
X61154284Y-137997276D01*
X61273355Y-138126619D01*
X61306760Y-138162906D01*
X61484424Y-138301189D01*
X61484425Y-138301189D01*
X61484427Y-138301191D01*
X61544314Y-138333600D01*
X61682426Y-138408342D01*
X61895365Y-138481444D01*
X62117431Y-138518500D01*
X62342569Y-138518500D01*
X62564635Y-138481444D01*
X62777574Y-138408342D01*
X62975576Y-138301189D01*
X63153240Y-138162906D01*
X63305722Y-137997268D01*
X63396193Y-137858790D01*
X63449338Y-137813437D01*
X63518569Y-137804013D01*
X63581905Y-137833515D01*
X63603804Y-137858787D01*
X63694278Y-137997268D01*
X63694283Y-137997273D01*
X63694284Y-137997276D01*
X63813355Y-138126619D01*
X63846760Y-138162906D01*
X64024424Y-138301189D01*
X64024425Y-138301189D01*
X64024427Y-138301191D01*
X64084314Y-138333600D01*
X64222426Y-138408342D01*
X64435365Y-138481444D01*
X64657431Y-138518500D01*
X64882569Y-138518500D01*
X65104635Y-138481444D01*
X65317574Y-138408342D01*
X65515576Y-138301189D01*
X65693240Y-138162906D01*
X65845722Y-137997268D01*
X65936193Y-137858790D01*
X65989338Y-137813437D01*
X66058569Y-137804013D01*
X66121905Y-137833515D01*
X66143804Y-137858787D01*
X66234278Y-137997268D01*
X66234283Y-137997273D01*
X66234284Y-137997276D01*
X66353355Y-138126619D01*
X66386760Y-138162906D01*
X66564424Y-138301189D01*
X66564425Y-138301189D01*
X66564427Y-138301191D01*
X66624314Y-138333600D01*
X66762426Y-138408342D01*
X66975365Y-138481444D01*
X67197431Y-138518500D01*
X67422569Y-138518500D01*
X67644635Y-138481444D01*
X67857574Y-138408342D01*
X68055576Y-138301189D01*
X68233240Y-138162906D01*
X68385722Y-137997268D01*
X68476193Y-137858790D01*
X68529338Y-137813437D01*
X68598569Y-137804013D01*
X68661905Y-137833515D01*
X68683804Y-137858787D01*
X68774278Y-137997268D01*
X68774283Y-137997273D01*
X68774284Y-137997276D01*
X68893355Y-138126619D01*
X68926760Y-138162906D01*
X69104424Y-138301189D01*
X69104425Y-138301189D01*
X69104427Y-138301191D01*
X69164314Y-138333600D01*
X69302426Y-138408342D01*
X69515365Y-138481444D01*
X69737431Y-138518500D01*
X69962569Y-138518500D01*
X70184635Y-138481444D01*
X70397574Y-138408342D01*
X70595576Y-138301189D01*
X70773240Y-138162906D01*
X70925722Y-137997268D01*
X71016193Y-137858790D01*
X71069338Y-137813437D01*
X71138569Y-137804013D01*
X71201905Y-137833515D01*
X71223804Y-137858787D01*
X71314278Y-137997268D01*
X71314283Y-137997273D01*
X71314284Y-137997276D01*
X71433355Y-138126619D01*
X71466760Y-138162906D01*
X71644424Y-138301189D01*
X71644425Y-138301189D01*
X71644427Y-138301191D01*
X71704314Y-138333600D01*
X71842426Y-138408342D01*
X72055365Y-138481444D01*
X72277431Y-138518500D01*
X72502569Y-138518500D01*
X72724635Y-138481444D01*
X72937574Y-138408342D01*
X73135576Y-138301189D01*
X73313240Y-138162906D01*
X73465722Y-137997268D01*
X73556193Y-137858790D01*
X73609338Y-137813437D01*
X73678569Y-137804013D01*
X73741905Y-137833515D01*
X73763804Y-137858787D01*
X73854278Y-137997268D01*
X73854283Y-137997273D01*
X73854284Y-137997276D01*
X73973355Y-138126619D01*
X74006760Y-138162906D01*
X74184424Y-138301189D01*
X74184425Y-138301189D01*
X74184427Y-138301191D01*
X74244314Y-138333600D01*
X74382426Y-138408342D01*
X74595365Y-138481444D01*
X74817431Y-138518500D01*
X75042569Y-138518500D01*
X75264635Y-138481444D01*
X75477574Y-138408342D01*
X75675576Y-138301189D01*
X75853240Y-138162906D01*
X76005722Y-137997268D01*
X76096193Y-137858790D01*
X76149338Y-137813437D01*
X76218569Y-137804013D01*
X76281905Y-137833515D01*
X76303804Y-137858787D01*
X76394278Y-137997268D01*
X76394283Y-137997273D01*
X76394284Y-137997276D01*
X76513355Y-138126619D01*
X76546760Y-138162906D01*
X76724424Y-138301189D01*
X76724425Y-138301189D01*
X76724427Y-138301191D01*
X76784314Y-138333600D01*
X76922426Y-138408342D01*
X77135365Y-138481444D01*
X77357431Y-138518500D01*
X77582569Y-138518500D01*
X77804635Y-138481444D01*
X78017574Y-138408342D01*
X78215576Y-138301189D01*
X78393240Y-138162906D01*
X78545722Y-137997268D01*
X78636193Y-137858790D01*
X78689338Y-137813437D01*
X78758569Y-137804013D01*
X78821905Y-137833515D01*
X78843804Y-137858787D01*
X78934278Y-137997268D01*
X78934283Y-137997273D01*
X78934284Y-137997276D01*
X79053355Y-138126619D01*
X79086760Y-138162906D01*
X79264424Y-138301189D01*
X79264425Y-138301189D01*
X79264427Y-138301191D01*
X79324314Y-138333600D01*
X79462426Y-138408342D01*
X79675365Y-138481444D01*
X79897431Y-138518500D01*
X80122569Y-138518500D01*
X80344635Y-138481444D01*
X80557574Y-138408342D01*
X80755576Y-138301189D01*
X80933240Y-138162906D01*
X81085722Y-137997268D01*
X81176193Y-137858790D01*
X81229338Y-137813437D01*
X81298569Y-137804013D01*
X81361905Y-137833515D01*
X81383804Y-137858787D01*
X81474278Y-137997268D01*
X81474283Y-137997273D01*
X81474284Y-137997276D01*
X81593355Y-138126619D01*
X81626760Y-138162906D01*
X81804424Y-138301189D01*
X81804425Y-138301189D01*
X81804427Y-138301191D01*
X81864314Y-138333600D01*
X82002426Y-138408342D01*
X82215365Y-138481444D01*
X82437431Y-138518500D01*
X82662569Y-138518500D01*
X82884635Y-138481444D01*
X83097574Y-138408342D01*
X83295576Y-138301189D01*
X83473240Y-138162906D01*
X83625722Y-137997268D01*
X83716193Y-137858790D01*
X83769338Y-137813437D01*
X83838569Y-137804013D01*
X83901905Y-137833515D01*
X83923804Y-137858787D01*
X84014278Y-137997268D01*
X84014283Y-137997273D01*
X84014284Y-137997276D01*
X84133355Y-138126619D01*
X84166760Y-138162906D01*
X84344424Y-138301189D01*
X84344425Y-138301189D01*
X84344427Y-138301191D01*
X84404314Y-138333600D01*
X84542426Y-138408342D01*
X84755365Y-138481444D01*
X84977431Y-138518500D01*
X85202569Y-138518500D01*
X85424635Y-138481444D01*
X85637574Y-138408342D01*
X85835576Y-138301189D01*
X86013240Y-138162906D01*
X86165722Y-137997268D01*
X86256193Y-137858790D01*
X86309338Y-137813437D01*
X86378569Y-137804013D01*
X86441905Y-137833515D01*
X86463804Y-137858787D01*
X86554278Y-137997268D01*
X86554283Y-137997273D01*
X86554284Y-137997276D01*
X86673355Y-138126619D01*
X86706760Y-138162906D01*
X86884424Y-138301189D01*
X86884425Y-138301189D01*
X86884427Y-138301191D01*
X86944314Y-138333600D01*
X87082426Y-138408342D01*
X87295365Y-138481444D01*
X87517431Y-138518500D01*
X87742569Y-138518500D01*
X87964635Y-138481444D01*
X88177574Y-138408342D01*
X88375576Y-138301189D01*
X88553240Y-138162906D01*
X88705722Y-137997268D01*
X88796193Y-137858790D01*
X88849338Y-137813437D01*
X88918569Y-137804013D01*
X88981905Y-137833515D01*
X89003804Y-137858787D01*
X89094278Y-137997268D01*
X89094283Y-137997273D01*
X89094284Y-137997276D01*
X89213355Y-138126619D01*
X89246760Y-138162906D01*
X89424424Y-138301189D01*
X89424425Y-138301189D01*
X89424427Y-138301191D01*
X89484314Y-138333600D01*
X89622426Y-138408342D01*
X89835365Y-138481444D01*
X90057431Y-138518500D01*
X90282569Y-138518500D01*
X90504635Y-138481444D01*
X90717574Y-138408342D01*
X90915576Y-138301189D01*
X91093240Y-138162906D01*
X91245722Y-137997268D01*
X91368860Y-137808791D01*
X91459296Y-137602616D01*
X91514564Y-137384368D01*
X91517164Y-137352993D01*
X91533156Y-137160005D01*
X91533156Y-137159994D01*
X91514565Y-136935640D01*
X91514563Y-136935628D01*
X91459296Y-136717385D01*
X91449071Y-136694075D01*
X91368860Y-136511209D01*
X91352706Y-136486484D01*
X91245723Y-136322734D01*
X91245715Y-136322723D01*
X91093243Y-136157097D01*
X91093238Y-136157092D01*
X90915577Y-136018812D01*
X90915572Y-136018808D01*
X90717580Y-135911661D01*
X90717577Y-135911659D01*
X90717574Y-135911658D01*
X90717571Y-135911657D01*
X90717569Y-135911656D01*
X90504637Y-135838556D01*
X90282569Y-135801500D01*
X90057431Y-135801500D01*
X89835362Y-135838556D01*
X89622430Y-135911656D01*
X89622419Y-135911661D01*
X89424427Y-136018808D01*
X89424422Y-136018812D01*
X89246761Y-136157092D01*
X89246756Y-136157097D01*
X89094284Y-136322723D01*
X89094276Y-136322734D01*
X89003808Y-136461206D01*
X88950662Y-136506562D01*
X88881431Y-136515986D01*
X88818095Y-136486484D01*
X88796192Y-136461206D01*
X88705723Y-136322734D01*
X88705715Y-136322723D01*
X88553243Y-136157097D01*
X88553238Y-136157092D01*
X88375577Y-136018812D01*
X88375572Y-136018808D01*
X88177580Y-135911661D01*
X88177577Y-135911659D01*
X88177574Y-135911658D01*
X88177571Y-135911657D01*
X88177569Y-135911656D01*
X87964637Y-135838556D01*
X87742569Y-135801500D01*
X87517431Y-135801500D01*
X87295362Y-135838556D01*
X87082430Y-135911656D01*
X87082419Y-135911661D01*
X86884427Y-136018808D01*
X86884422Y-136018812D01*
X86706761Y-136157092D01*
X86706756Y-136157097D01*
X86554284Y-136322723D01*
X86554276Y-136322734D01*
X86463808Y-136461206D01*
X86410662Y-136506562D01*
X86341431Y-136515986D01*
X86278095Y-136486484D01*
X86256192Y-136461206D01*
X86165723Y-136322734D01*
X86165715Y-136322723D01*
X86013243Y-136157097D01*
X86013238Y-136157092D01*
X85835577Y-136018812D01*
X85835572Y-136018808D01*
X85637580Y-135911661D01*
X85637577Y-135911659D01*
X85637574Y-135911658D01*
X85637571Y-135911657D01*
X85637569Y-135911656D01*
X85424637Y-135838556D01*
X85202569Y-135801500D01*
X84977431Y-135801500D01*
X84755362Y-135838556D01*
X84542430Y-135911656D01*
X84542419Y-135911661D01*
X84344427Y-136018808D01*
X84344422Y-136018812D01*
X84166761Y-136157092D01*
X84166756Y-136157097D01*
X84014284Y-136322723D01*
X84014276Y-136322734D01*
X83923808Y-136461206D01*
X83870662Y-136506562D01*
X83801431Y-136515986D01*
X83738095Y-136486484D01*
X83716192Y-136461206D01*
X83625723Y-136322734D01*
X83625715Y-136322723D01*
X83473243Y-136157097D01*
X83473238Y-136157092D01*
X83295577Y-136018812D01*
X83295572Y-136018808D01*
X83097580Y-135911661D01*
X83097577Y-135911659D01*
X83097574Y-135911658D01*
X83097571Y-135911657D01*
X83097569Y-135911656D01*
X82884637Y-135838556D01*
X82662569Y-135801500D01*
X82437431Y-135801500D01*
X82215362Y-135838556D01*
X82002430Y-135911656D01*
X82002419Y-135911661D01*
X81804427Y-136018808D01*
X81804422Y-136018812D01*
X81626761Y-136157092D01*
X81626756Y-136157097D01*
X81474284Y-136322723D01*
X81474276Y-136322734D01*
X81383808Y-136461206D01*
X81330662Y-136506562D01*
X81261431Y-136515986D01*
X81198095Y-136486484D01*
X81176192Y-136461206D01*
X81085723Y-136322734D01*
X81085715Y-136322723D01*
X80933243Y-136157097D01*
X80933238Y-136157092D01*
X80755577Y-136018812D01*
X80755572Y-136018808D01*
X80557580Y-135911661D01*
X80557577Y-135911659D01*
X80557574Y-135911658D01*
X80557571Y-135911657D01*
X80557569Y-135911656D01*
X80344637Y-135838556D01*
X80122569Y-135801500D01*
X79897431Y-135801500D01*
X79675362Y-135838556D01*
X79462430Y-135911656D01*
X79462419Y-135911661D01*
X79264427Y-136018808D01*
X79264422Y-136018812D01*
X79086761Y-136157092D01*
X79086756Y-136157097D01*
X78934284Y-136322723D01*
X78934276Y-136322734D01*
X78843808Y-136461206D01*
X78790662Y-136506562D01*
X78721431Y-136515986D01*
X78658095Y-136486484D01*
X78636192Y-136461206D01*
X78545723Y-136322734D01*
X78545715Y-136322723D01*
X78393243Y-136157097D01*
X78393238Y-136157092D01*
X78215577Y-136018812D01*
X78215572Y-136018808D01*
X78017580Y-135911661D01*
X78017577Y-135911659D01*
X78017574Y-135911658D01*
X78017571Y-135911657D01*
X78017569Y-135911656D01*
X77804637Y-135838556D01*
X77582569Y-135801500D01*
X77357431Y-135801500D01*
X77135362Y-135838556D01*
X76922430Y-135911656D01*
X76922419Y-135911661D01*
X76724427Y-136018808D01*
X76724422Y-136018812D01*
X76546761Y-136157092D01*
X76546756Y-136157097D01*
X76394284Y-136322723D01*
X76394276Y-136322734D01*
X76303808Y-136461206D01*
X76250662Y-136506562D01*
X76181431Y-136515986D01*
X76118095Y-136486484D01*
X76096192Y-136461206D01*
X76005723Y-136322734D01*
X76005715Y-136322723D01*
X75853243Y-136157097D01*
X75853238Y-136157092D01*
X75675577Y-136018812D01*
X75675572Y-136018808D01*
X75477580Y-135911661D01*
X75477577Y-135911659D01*
X75477574Y-135911658D01*
X75477571Y-135911657D01*
X75477569Y-135911656D01*
X75264637Y-135838556D01*
X75042569Y-135801500D01*
X74817431Y-135801500D01*
X74595362Y-135838556D01*
X74382430Y-135911656D01*
X74382419Y-135911661D01*
X74184427Y-136018808D01*
X74184422Y-136018812D01*
X74006761Y-136157092D01*
X74006756Y-136157097D01*
X73854284Y-136322723D01*
X73854276Y-136322734D01*
X73763808Y-136461206D01*
X73710662Y-136506562D01*
X73641431Y-136515986D01*
X73578095Y-136486484D01*
X73556192Y-136461206D01*
X73465723Y-136322734D01*
X73465715Y-136322723D01*
X73313243Y-136157097D01*
X73313238Y-136157092D01*
X73135577Y-136018812D01*
X73135572Y-136018808D01*
X72937580Y-135911661D01*
X72937577Y-135911659D01*
X72937574Y-135911658D01*
X72937571Y-135911657D01*
X72937569Y-135911656D01*
X72724637Y-135838556D01*
X72502569Y-135801500D01*
X72277431Y-135801500D01*
X72055362Y-135838556D01*
X71842430Y-135911656D01*
X71842419Y-135911661D01*
X71644427Y-136018808D01*
X71644422Y-136018812D01*
X71466761Y-136157092D01*
X71466756Y-136157097D01*
X71314284Y-136322723D01*
X71314276Y-136322734D01*
X71223808Y-136461206D01*
X71170662Y-136506562D01*
X71101431Y-136515986D01*
X71038095Y-136486484D01*
X71016192Y-136461206D01*
X70925723Y-136322734D01*
X70925715Y-136322723D01*
X70773243Y-136157097D01*
X70773238Y-136157092D01*
X70595577Y-136018812D01*
X70595572Y-136018808D01*
X70397580Y-135911661D01*
X70397577Y-135911659D01*
X70397574Y-135911658D01*
X70397571Y-135911657D01*
X70397569Y-135911656D01*
X70184637Y-135838556D01*
X69962569Y-135801500D01*
X69737431Y-135801500D01*
X69515362Y-135838556D01*
X69302430Y-135911656D01*
X69302419Y-135911661D01*
X69104427Y-136018808D01*
X69104422Y-136018812D01*
X68926761Y-136157092D01*
X68926756Y-136157097D01*
X68774284Y-136322723D01*
X68774276Y-136322734D01*
X68683808Y-136461206D01*
X68630662Y-136506562D01*
X68561431Y-136515986D01*
X68498095Y-136486484D01*
X68476192Y-136461206D01*
X68385723Y-136322734D01*
X68385715Y-136322723D01*
X68233243Y-136157097D01*
X68233238Y-136157092D01*
X68055577Y-136018812D01*
X68055572Y-136018808D01*
X67857580Y-135911661D01*
X67857577Y-135911659D01*
X67857574Y-135911658D01*
X67857571Y-135911657D01*
X67857569Y-135911656D01*
X67644637Y-135838556D01*
X67422569Y-135801500D01*
X67197431Y-135801500D01*
X66975362Y-135838556D01*
X66762430Y-135911656D01*
X66762419Y-135911661D01*
X66564427Y-136018808D01*
X66564422Y-136018812D01*
X66386761Y-136157092D01*
X66386756Y-136157097D01*
X66234284Y-136322723D01*
X66234276Y-136322734D01*
X66143808Y-136461206D01*
X66090662Y-136506562D01*
X66021431Y-136515986D01*
X65958095Y-136486484D01*
X65936192Y-136461206D01*
X65845723Y-136322734D01*
X65845715Y-136322723D01*
X65693243Y-136157097D01*
X65693238Y-136157092D01*
X65515577Y-136018812D01*
X65515572Y-136018808D01*
X65317580Y-135911661D01*
X65317577Y-135911659D01*
X65317574Y-135911658D01*
X65317571Y-135911657D01*
X65317569Y-135911656D01*
X65104637Y-135838556D01*
X64882569Y-135801500D01*
X64657431Y-135801500D01*
X64435362Y-135838556D01*
X64222430Y-135911656D01*
X64222419Y-135911661D01*
X64024427Y-136018808D01*
X64024422Y-136018812D01*
X63846761Y-136157092D01*
X63846756Y-136157097D01*
X63694284Y-136322723D01*
X63694276Y-136322734D01*
X63603808Y-136461206D01*
X63550662Y-136506562D01*
X63481431Y-136515986D01*
X63418095Y-136486484D01*
X63396192Y-136461206D01*
X63305723Y-136322734D01*
X63305715Y-136322723D01*
X63153243Y-136157097D01*
X63153238Y-136157092D01*
X62975577Y-136018812D01*
X62975572Y-136018808D01*
X62777580Y-135911661D01*
X62777577Y-135911659D01*
X62777574Y-135911658D01*
X62777571Y-135911657D01*
X62777569Y-135911656D01*
X62564637Y-135838556D01*
X62342569Y-135801500D01*
X62117431Y-135801500D01*
X61895362Y-135838556D01*
X61682430Y-135911656D01*
X61682419Y-135911661D01*
X61484427Y-136018808D01*
X61484422Y-136018812D01*
X61306761Y-136157092D01*
X61306756Y-136157097D01*
X61154284Y-136322723D01*
X61154276Y-136322734D01*
X61063808Y-136461206D01*
X61010662Y-136506562D01*
X60941431Y-136515986D01*
X60878095Y-136486484D01*
X60856192Y-136461206D01*
X60765723Y-136322734D01*
X60765715Y-136322723D01*
X60613243Y-136157097D01*
X60613238Y-136157092D01*
X60435577Y-136018812D01*
X60435572Y-136018808D01*
X60237580Y-135911661D01*
X60237577Y-135911659D01*
X60237574Y-135911658D01*
X60237571Y-135911657D01*
X60237569Y-135911656D01*
X60024637Y-135838556D01*
X59802569Y-135801500D01*
X59577431Y-135801500D01*
X59355362Y-135838556D01*
X59142430Y-135911656D01*
X59142419Y-135911661D01*
X58944427Y-136018808D01*
X58944422Y-136018812D01*
X58766761Y-136157092D01*
X58766756Y-136157097D01*
X58614284Y-136322723D01*
X58614276Y-136322734D01*
X58520251Y-136466650D01*
X58467105Y-136512007D01*
X58397873Y-136521430D01*
X58334538Y-136491928D01*
X58314868Y-136469951D01*
X58188113Y-136288926D01*
X58188108Y-136288920D01*
X58021082Y-136121894D01*
X57827578Y-135986399D01*
X57613492Y-135886570D01*
X57613486Y-135886567D01*
X57400000Y-135829364D01*
X57400000Y-136726988D01*
X57342993Y-136694075D01*
X57215826Y-136660000D01*
X57084174Y-136660000D01*
X56957007Y-136694075D01*
X56900000Y-136726988D01*
X56900000Y-135829364D01*
X56899999Y-135829364D01*
X56686513Y-135886567D01*
X56686507Y-135886570D01*
X56472422Y-135986399D01*
X56472420Y-135986400D01*
X56278926Y-136121886D01*
X56163084Y-136237728D01*
X56101761Y-136271212D01*
X56032069Y-136266228D01*
X55976136Y-136224356D01*
X55959223Y-136193384D01*
X55910889Y-136063796D01*
X55823261Y-135946739D01*
X55706204Y-135859111D01*
X55569203Y-135808011D01*
X55508654Y-135801500D01*
X55508638Y-135801500D01*
X53711362Y-135801500D01*
X53711345Y-135801500D01*
X53650797Y-135808011D01*
X53650795Y-135808011D01*
X53513795Y-135859111D01*
X53396739Y-135946739D01*
X53309111Y-136063795D01*
X53258011Y-136200795D01*
X53258011Y-136200797D01*
X53251500Y-136261345D01*
X53251500Y-138058654D01*
X45795500Y-138058654D01*
X45795500Y-133350002D01*
X82595034Y-133350002D01*
X82614858Y-133576599D01*
X82614860Y-133576610D01*
X82673730Y-133796317D01*
X82673735Y-133796331D01*
X82769863Y-134002478D01*
X82820974Y-134075472D01*
X83500000Y-133396446D01*
X83500000Y-133402661D01*
X83527259Y-133504394D01*
X83579920Y-133595606D01*
X83654394Y-133670080D01*
X83745606Y-133722741D01*
X83847339Y-133750000D01*
X83853553Y-133750000D01*
X83174526Y-134429025D01*
X83247513Y-134480132D01*
X83247521Y-134480136D01*
X83453668Y-134576264D01*
X83453682Y-134576269D01*
X83673389Y-134635139D01*
X83673400Y-134635141D01*
X83899998Y-134654966D01*
X83900002Y-134654966D01*
X84126599Y-134635141D01*
X84126610Y-134635139D01*
X84346317Y-134576269D01*
X84346331Y-134576264D01*
X84552478Y-134480136D01*
X84625471Y-134429024D01*
X83946447Y-133750000D01*
X83952661Y-133750000D01*
X84054394Y-133722741D01*
X84145606Y-133670080D01*
X84220080Y-133595606D01*
X84272741Y-133504394D01*
X84300000Y-133402661D01*
X84300000Y-133396447D01*
X84979024Y-134075471D01*
X85030136Y-134002478D01*
X85126264Y-133796331D01*
X85126269Y-133796317D01*
X85185139Y-133576610D01*
X85185141Y-133576599D01*
X85204966Y-133350002D01*
X85204966Y-133349997D01*
X85185141Y-133123400D01*
X85185139Y-133123389D01*
X85126269Y-132903682D01*
X85126264Y-132903668D01*
X85030136Y-132697521D01*
X85030132Y-132697513D01*
X84979025Y-132624526D01*
X84300000Y-133303551D01*
X84300000Y-133297339D01*
X84272741Y-133195606D01*
X84220080Y-133104394D01*
X84145606Y-133029920D01*
X84054394Y-132977259D01*
X83952661Y-132950000D01*
X83946448Y-132950000D01*
X84625472Y-132270974D01*
X84552478Y-132219863D01*
X84346331Y-132123735D01*
X84346317Y-132123730D01*
X84126610Y-132064860D01*
X84126599Y-132064858D01*
X83900002Y-132045034D01*
X83899998Y-132045034D01*
X83673400Y-132064858D01*
X83673389Y-132064860D01*
X83453682Y-132123730D01*
X83453673Y-132123734D01*
X83247516Y-132219866D01*
X83247512Y-132219868D01*
X83174526Y-132270973D01*
X83174526Y-132270974D01*
X83853553Y-132950000D01*
X83847339Y-132950000D01*
X83745606Y-132977259D01*
X83654394Y-133029920D01*
X83579920Y-133104394D01*
X83527259Y-133195606D01*
X83500000Y-133297339D01*
X83500000Y-133303552D01*
X82820974Y-132624526D01*
X82820973Y-132624526D01*
X82769868Y-132697512D01*
X82769866Y-132697516D01*
X82673734Y-132903673D01*
X82673730Y-132903682D01*
X82614860Y-133123389D01*
X82614858Y-133123400D01*
X82595034Y-133349997D01*
X82595034Y-133350002D01*
X45795500Y-133350002D01*
X45795500Y-127005005D01*
X48166844Y-127005005D01*
X48185434Y-127229359D01*
X48185436Y-127229371D01*
X48240703Y-127447614D01*
X48331140Y-127653792D01*
X48353268Y-127687661D01*
X48454278Y-127842268D01*
X48605707Y-128006762D01*
X48636629Y-128069415D01*
X48628769Y-128138841D01*
X48584622Y-128192997D01*
X48557811Y-128206926D01*
X48437912Y-128251646D01*
X48437906Y-128251649D01*
X48322812Y-128337809D01*
X48322809Y-128337812D01*
X48236649Y-128452906D01*
X48236645Y-128452913D01*
X48186403Y-128587620D01*
X48186401Y-128587627D01*
X48180000Y-128647155D01*
X48180000Y-129295000D01*
X49096988Y-129295000D01*
X49064075Y-129352007D01*
X49030000Y-129479174D01*
X49030000Y-129610826D01*
X49064075Y-129737993D01*
X49096988Y-129795000D01*
X48180000Y-129795000D01*
X48180000Y-130442844D01*
X48186401Y-130502372D01*
X48186403Y-130502379D01*
X48236645Y-130637086D01*
X48236649Y-130637093D01*
X48322809Y-130752187D01*
X48322812Y-130752190D01*
X48437906Y-130838350D01*
X48437913Y-130838354D01*
X48572620Y-130888596D01*
X48572627Y-130888598D01*
X48632155Y-130894999D01*
X48632172Y-130895000D01*
X49280000Y-130895000D01*
X49280000Y-129978012D01*
X49337007Y-130010925D01*
X49464174Y-130045000D01*
X49595826Y-130045000D01*
X49722993Y-130010925D01*
X49780000Y-129978012D01*
X49780000Y-130895000D01*
X50427828Y-130895000D01*
X50427844Y-130894999D01*
X50487372Y-130888598D01*
X50487379Y-130888596D01*
X50622086Y-130838354D01*
X50622093Y-130838350D01*
X50659961Y-130810002D01*
X55510034Y-130810002D01*
X55529858Y-131036599D01*
X55529860Y-131036610D01*
X55588730Y-131256317D01*
X55588735Y-131256331D01*
X55684863Y-131462478D01*
X55735974Y-131535472D01*
X56415000Y-130856446D01*
X56415000Y-130862661D01*
X56442259Y-130964394D01*
X56494920Y-131055606D01*
X56569394Y-131130080D01*
X56660606Y-131182741D01*
X56762339Y-131210000D01*
X56768553Y-131210000D01*
X56089526Y-131889025D01*
X56162513Y-131940132D01*
X56162521Y-131940136D01*
X56368668Y-132036264D01*
X56368682Y-132036269D01*
X56588389Y-132095139D01*
X56588400Y-132095141D01*
X56814998Y-132114966D01*
X56815002Y-132114966D01*
X57041599Y-132095141D01*
X57041610Y-132095139D01*
X57261317Y-132036269D01*
X57261331Y-132036264D01*
X57467478Y-131940136D01*
X57540471Y-131889024D01*
X56861447Y-131210000D01*
X56867661Y-131210000D01*
X56969394Y-131182741D01*
X57060606Y-131130080D01*
X57135080Y-131055606D01*
X57187741Y-130964394D01*
X57215000Y-130862661D01*
X57215000Y-130856447D01*
X57894024Y-131535471D01*
X57945133Y-131462482D01*
X57967928Y-131413599D01*
X58014100Y-131361160D01*
X58081294Y-131342007D01*
X58148175Y-131362222D01*
X58192692Y-131413598D01*
X58217477Y-131466749D01*
X58348802Y-131654300D01*
X58510700Y-131816198D01*
X58698251Y-131947523D01*
X58823091Y-132005736D01*
X58905750Y-132044281D01*
X58905752Y-132044281D01*
X58905757Y-132044284D01*
X59126913Y-132103543D01*
X59289832Y-132117796D01*
X59354998Y-132123498D01*
X59355000Y-132123498D01*
X59355002Y-132123498D01*
X59412021Y-132118509D01*
X59583087Y-132103543D01*
X59804243Y-132044284D01*
X60011749Y-131947523D01*
X60199300Y-131816198D01*
X60361198Y-131654300D01*
X60492523Y-131466749D01*
X60589284Y-131259243D01*
X60648543Y-131038087D01*
X60668498Y-130810001D01*
X64726502Y-130810001D01*
X64746456Y-131038081D01*
X64746457Y-131038089D01*
X64805714Y-131259238D01*
X64805718Y-131259249D01*
X64877693Y-131413599D01*
X64902477Y-131466749D01*
X65033802Y-131654300D01*
X65195700Y-131816198D01*
X65383251Y-131947523D01*
X65508091Y-132005736D01*
X65590750Y-132044281D01*
X65590752Y-132044281D01*
X65590757Y-132044284D01*
X65811913Y-132103543D01*
X65974832Y-132117796D01*
X66039998Y-132123498D01*
X66040000Y-132123498D01*
X66040002Y-132123498D01*
X66097021Y-132118509D01*
X66268087Y-132103543D01*
X66489243Y-132044284D01*
X66696749Y-131947523D01*
X66884300Y-131816198D01*
X67046198Y-131654300D01*
X67177523Y-131466749D01*
X67197618Y-131423655D01*
X67243790Y-131371215D01*
X67310983Y-131352063D01*
X67377864Y-131372278D01*
X67422382Y-131423655D01*
X67442477Y-131466749D01*
X67573802Y-131654300D01*
X67735700Y-131816198D01*
X67923251Y-131947523D01*
X68048091Y-132005736D01*
X68130750Y-132044281D01*
X68130752Y-132044281D01*
X68130757Y-132044284D01*
X68351913Y-132103543D01*
X68514832Y-132117796D01*
X68579998Y-132123498D01*
X68580000Y-132123498D01*
X68580002Y-132123498D01*
X68637021Y-132118509D01*
X68808087Y-132103543D01*
X69029243Y-132044284D01*
X69236749Y-131947523D01*
X69424300Y-131816198D01*
X69586198Y-131654300D01*
X69717523Y-131466749D01*
X69814284Y-131259243D01*
X69873543Y-131038087D01*
X69893498Y-130810000D01*
X69873543Y-130581913D01*
X69814284Y-130360757D01*
X69717523Y-130153251D01*
X69586198Y-129965700D01*
X69424300Y-129803802D01*
X69236749Y-129672477D01*
X69236745Y-129672475D01*
X69029249Y-129575718D01*
X69029238Y-129575714D01*
X68808089Y-129516457D01*
X68808081Y-129516456D01*
X68580002Y-129496502D01*
X68579998Y-129496502D01*
X68351918Y-129516456D01*
X68351910Y-129516457D01*
X68130761Y-129575714D01*
X68130750Y-129575718D01*
X67923254Y-129672475D01*
X67923252Y-129672476D01*
X67854113Y-129720888D01*
X67735700Y-129803802D01*
X67735698Y-129803803D01*
X67735695Y-129803806D01*
X67573806Y-129965695D01*
X67442476Y-130153251D01*
X67422382Y-130196345D01*
X67376209Y-130248784D01*
X67309016Y-130267936D01*
X67242135Y-130247720D01*
X67197618Y-130196345D01*
X67177523Y-130153251D01*
X67129401Y-130084526D01*
X67046198Y-129965700D01*
X66884300Y-129803802D01*
X66696749Y-129672477D01*
X66696745Y-129672475D01*
X66489249Y-129575718D01*
X66489238Y-129575714D01*
X66268089Y-129516457D01*
X66268081Y-129516456D01*
X66040002Y-129496502D01*
X66039998Y-129496502D01*
X65811918Y-129516456D01*
X65811910Y-129516457D01*
X65590761Y-129575714D01*
X65590750Y-129575718D01*
X65383254Y-129672475D01*
X65383252Y-129672476D01*
X65314113Y-129720888D01*
X65195700Y-129803802D01*
X65195698Y-129803803D01*
X65195695Y-129803806D01*
X65033806Y-129965695D01*
X65033803Y-129965698D01*
X65033802Y-129965700D01*
X64951767Y-130082856D01*
X64902476Y-130153252D01*
X64902475Y-130153254D01*
X64805718Y-130360750D01*
X64805714Y-130360761D01*
X64746457Y-130581910D01*
X64746456Y-130581918D01*
X64726502Y-130809998D01*
X64726502Y-130810001D01*
X60668498Y-130810001D01*
X60668498Y-130810000D01*
X60648543Y-130581913D01*
X60589284Y-130360757D01*
X60492523Y-130153251D01*
X60361198Y-129965700D01*
X60199300Y-129803802D01*
X60011749Y-129672477D01*
X60011745Y-129672475D01*
X59804249Y-129575718D01*
X59804238Y-129575714D01*
X59583089Y-129516457D01*
X59583081Y-129516456D01*
X59355002Y-129496502D01*
X59354998Y-129496502D01*
X59126918Y-129516456D01*
X59126910Y-129516457D01*
X58905761Y-129575714D01*
X58905750Y-129575718D01*
X58698254Y-129672475D01*
X58698252Y-129672476D01*
X58629113Y-129720888D01*
X58510700Y-129803802D01*
X58510698Y-129803803D01*
X58510695Y-129803806D01*
X58348806Y-129965695D01*
X58217476Y-130153251D01*
X58192693Y-130206401D01*
X58146521Y-130258840D01*
X58079327Y-130277992D01*
X58012446Y-130257776D01*
X57967929Y-130206400D01*
X57945136Y-130157521D01*
X57945132Y-130157513D01*
X57894025Y-130084526D01*
X57215000Y-130763551D01*
X57215000Y-130757339D01*
X57187741Y-130655606D01*
X57135080Y-130564394D01*
X57060606Y-130489920D01*
X56969394Y-130437259D01*
X56867661Y-130410000D01*
X56861448Y-130410000D01*
X57540472Y-129730974D01*
X57467478Y-129679863D01*
X57261331Y-129583735D01*
X57261317Y-129583730D01*
X57041610Y-129524860D01*
X57041599Y-129524858D01*
X56815002Y-129505034D01*
X56814998Y-129505034D01*
X56588400Y-129524858D01*
X56588389Y-129524860D01*
X56368682Y-129583730D01*
X56368673Y-129583734D01*
X56162516Y-129679866D01*
X56162512Y-129679868D01*
X56089526Y-129730973D01*
X56089526Y-129730974D01*
X56768553Y-130410000D01*
X56762339Y-130410000D01*
X56660606Y-130437259D01*
X56569394Y-130489920D01*
X56494920Y-130564394D01*
X56442259Y-130655606D01*
X56415000Y-130757339D01*
X56415000Y-130763552D01*
X55735974Y-130084526D01*
X55735973Y-130084526D01*
X55684868Y-130157512D01*
X55684866Y-130157516D01*
X55588734Y-130363673D01*
X55588730Y-130363682D01*
X55529860Y-130583389D01*
X55529858Y-130583400D01*
X55510034Y-130809997D01*
X55510034Y-130810002D01*
X50659961Y-130810002D01*
X50737187Y-130752190D01*
X50737190Y-130752187D01*
X50823350Y-130637093D01*
X50823354Y-130637086D01*
X50873596Y-130502379D01*
X50873598Y-130502372D01*
X50879999Y-130442844D01*
X50880000Y-130442827D01*
X50880000Y-129795000D01*
X49963012Y-129795000D01*
X49995925Y-129737993D01*
X50030000Y-129610826D01*
X50030000Y-129479174D01*
X49995925Y-129352007D01*
X49963012Y-129295000D01*
X50880000Y-129295000D01*
X50880000Y-128647172D01*
X50879999Y-128647155D01*
X50873598Y-128587627D01*
X50873596Y-128587620D01*
X50823354Y-128452913D01*
X50823350Y-128452906D01*
X50737190Y-128337812D01*
X50737187Y-128337809D01*
X50646613Y-128270005D01*
X74602536Y-128270005D01*
X74623062Y-128517729D01*
X74623064Y-128517738D01*
X74684089Y-128758717D01*
X74783943Y-128986364D01*
X74884241Y-129139882D01*
X75624714Y-128399409D01*
X75641752Y-128462993D01*
X75707578Y-128577007D01*
X75800670Y-128670099D01*
X75914684Y-128735925D01*
X75978267Y-128752962D01*
X75237619Y-129493609D01*
X75284445Y-129530055D01*
X75284447Y-129530056D01*
X75503062Y-129648364D01*
X75503073Y-129648369D01*
X75738183Y-129729083D01*
X75983384Y-129770000D01*
X76231970Y-129770000D01*
X76477170Y-129729083D01*
X76712280Y-129648369D01*
X76712291Y-129648364D01*
X76930905Y-129530057D01*
X76930908Y-129530055D01*
X76977733Y-129493609D01*
X76802778Y-129318654D01*
X79599177Y-129318654D01*
X79605688Y-129379202D01*
X79605688Y-129379204D01*
X79642976Y-129479174D01*
X79656788Y-129516204D01*
X79744416Y-129633261D01*
X79861473Y-129720889D01*
X79998476Y-129771989D01*
X80025727Y-129774918D01*
X80059022Y-129778499D01*
X80059039Y-129778500D01*
X82156315Y-129778500D01*
X82156331Y-129778499D01*
X82183369Y-129775591D01*
X82216878Y-129771989D01*
X82353881Y-129720889D01*
X82470938Y-129633261D01*
X82558566Y-129516204D01*
X82609666Y-129379201D01*
X82609666Y-129379195D01*
X82610897Y-129373992D01*
X82645467Y-129313274D01*
X82707375Y-129280884D01*
X82731575Y-129278500D01*
X83350904Y-129278500D01*
X83417943Y-129298185D01*
X83438585Y-129314819D01*
X87565396Y-133441630D01*
X87598881Y-133502953D01*
X87601243Y-133518501D01*
X87606456Y-133578083D01*
X87606457Y-133578089D01*
X87665714Y-133799238D01*
X87665718Y-133799249D01*
X87760485Y-134002478D01*
X87762477Y-134006749D01*
X87893802Y-134194300D01*
X88055700Y-134356198D01*
X88243251Y-134487523D01*
X88368091Y-134545736D01*
X88450750Y-134584281D01*
X88450752Y-134584281D01*
X88450757Y-134584284D01*
X88671913Y-134643543D01*
X88834832Y-134657796D01*
X88899998Y-134663498D01*
X88900000Y-134663498D01*
X88900002Y-134663498D01*
X88957021Y-134658509D01*
X89128087Y-134643543D01*
X89349243Y-134584284D01*
X89556749Y-134487523D01*
X89744300Y-134356198D01*
X89906198Y-134194300D01*
X90037523Y-134006749D01*
X90134284Y-133799243D01*
X90193543Y-133578087D01*
X90213498Y-133350000D01*
X90193543Y-133121913D01*
X90134284Y-132900757D01*
X90037523Y-132693251D01*
X89906198Y-132505700D01*
X89744300Y-132343802D01*
X89556749Y-132212477D01*
X89556745Y-132212475D01*
X89349249Y-132115718D01*
X89349238Y-132115714D01*
X89128089Y-132056457D01*
X89128083Y-132056456D01*
X89068501Y-132051243D01*
X89003433Y-132025789D01*
X88991630Y-132015396D01*
X84611237Y-127635002D01*
X87635034Y-127635002D01*
X87654858Y-127861599D01*
X87654860Y-127861610D01*
X87713730Y-128081317D01*
X87713735Y-128081331D01*
X87809863Y-128287478D01*
X87860974Y-128360472D01*
X88540000Y-127681446D01*
X88540000Y-127687661D01*
X88567259Y-127789394D01*
X88619920Y-127880606D01*
X88694394Y-127955080D01*
X88785606Y-128007741D01*
X88887339Y-128035000D01*
X88893553Y-128035000D01*
X88214526Y-128714025D01*
X88287513Y-128765132D01*
X88287521Y-128765136D01*
X88493668Y-128861264D01*
X88493682Y-128861269D01*
X88713389Y-128920139D01*
X88713400Y-128920141D01*
X88939998Y-128939966D01*
X88940002Y-128939966D01*
X89166599Y-128920141D01*
X89166610Y-128920139D01*
X89386317Y-128861269D01*
X89386331Y-128861264D01*
X89592478Y-128765136D01*
X89665471Y-128714024D01*
X88986447Y-128035000D01*
X88992661Y-128035000D01*
X89094394Y-128007741D01*
X89185606Y-127955080D01*
X89260080Y-127880606D01*
X89312741Y-127789394D01*
X89340000Y-127687661D01*
X89340000Y-127681447D01*
X90019024Y-128360471D01*
X90070136Y-128287478D01*
X90166264Y-128081331D01*
X90166269Y-128081317D01*
X90225139Y-127861610D01*
X90225141Y-127861599D01*
X90244966Y-127635002D01*
X90244966Y-127635001D01*
X92626502Y-127635001D01*
X92646456Y-127863081D01*
X92646457Y-127863089D01*
X92705714Y-128084238D01*
X92705718Y-128084249D01*
X92800485Y-128287478D01*
X92802477Y-128291749D01*
X92933802Y-128479300D01*
X93095700Y-128641198D01*
X93283251Y-128772523D01*
X93408091Y-128830736D01*
X93490750Y-128869281D01*
X93490752Y-128869281D01*
X93490757Y-128869284D01*
X93711913Y-128928543D01*
X93874832Y-128942796D01*
X93939998Y-128948498D01*
X93940000Y-128948498D01*
X93940002Y-128948498D01*
X93997021Y-128943509D01*
X94168087Y-128928543D01*
X94389243Y-128869284D01*
X94596749Y-128772523D01*
X94784300Y-128641198D01*
X94946198Y-128479300D01*
X95077523Y-128291749D01*
X95174284Y-128084243D01*
X95233543Y-127863087D01*
X95253498Y-127635000D01*
X95233543Y-127406913D01*
X95174284Y-127185757D01*
X95077523Y-126978251D01*
X94946198Y-126790700D01*
X94784300Y-126628802D01*
X94596749Y-126497477D01*
X94596745Y-126497475D01*
X94389249Y-126400718D01*
X94389238Y-126400714D01*
X94168089Y-126341457D01*
X94168081Y-126341456D01*
X93940002Y-126321502D01*
X93939998Y-126321502D01*
X93711918Y-126341456D01*
X93711910Y-126341457D01*
X93490761Y-126400714D01*
X93490750Y-126400718D01*
X93283254Y-126497475D01*
X93283252Y-126497476D01*
X93212856Y-126546767D01*
X93095700Y-126628802D01*
X93095698Y-126628803D01*
X93095695Y-126628806D01*
X92933806Y-126790695D01*
X92933803Y-126790698D01*
X92933802Y-126790700D01*
X92863126Y-126891635D01*
X92802476Y-126978252D01*
X92802475Y-126978254D01*
X92705718Y-127185750D01*
X92705714Y-127185761D01*
X92646457Y-127406910D01*
X92646456Y-127406918D01*
X92626502Y-127634998D01*
X92626502Y-127635001D01*
X90244966Y-127635001D01*
X90244966Y-127634997D01*
X90225141Y-127408400D01*
X90225139Y-127408389D01*
X90166269Y-127188682D01*
X90166264Y-127188668D01*
X90070136Y-126982521D01*
X90070132Y-126982513D01*
X90019025Y-126909526D01*
X89340000Y-127588551D01*
X89340000Y-127582339D01*
X89312741Y-127480606D01*
X89260080Y-127389394D01*
X89185606Y-127314920D01*
X89094394Y-127262259D01*
X88992661Y-127235000D01*
X88986448Y-127235000D01*
X89665472Y-126555974D01*
X89592478Y-126504863D01*
X89386331Y-126408735D01*
X89386317Y-126408730D01*
X89166610Y-126349860D01*
X89166599Y-126349858D01*
X88940002Y-126330034D01*
X88939998Y-126330034D01*
X88713400Y-126349858D01*
X88713389Y-126349860D01*
X88493682Y-126408730D01*
X88493673Y-126408734D01*
X88287516Y-126504866D01*
X88287512Y-126504868D01*
X88214526Y-126555973D01*
X88214526Y-126555974D01*
X88893553Y-127235000D01*
X88887339Y-127235000D01*
X88785606Y-127262259D01*
X88694394Y-127314920D01*
X88619920Y-127389394D01*
X88567259Y-127480606D01*
X88540000Y-127582339D01*
X88540000Y-127588552D01*
X87860974Y-126909526D01*
X87860973Y-126909526D01*
X87809868Y-126982512D01*
X87809866Y-126982516D01*
X87713734Y-127188673D01*
X87713730Y-127188682D01*
X87654860Y-127408389D01*
X87654858Y-127408400D01*
X87635034Y-127634997D01*
X87635034Y-127635002D01*
X84611237Y-127635002D01*
X84462884Y-127486649D01*
X84462880Y-127486646D01*
X84297710Y-127376282D01*
X84297700Y-127376277D01*
X84282547Y-127370001D01*
X84282545Y-127369999D01*
X84282545Y-127370000D01*
X84114169Y-127300256D01*
X84114161Y-127300254D01*
X83919333Y-127261500D01*
X83919329Y-127261500D01*
X82731575Y-127261500D01*
X82664536Y-127241815D01*
X82618781Y-127189011D01*
X82610897Y-127166008D01*
X82609666Y-127160803D01*
X82609666Y-127160799D01*
X82558566Y-127023796D01*
X82470938Y-126906739D01*
X82353881Y-126819111D01*
X82331910Y-126810916D01*
X82216880Y-126768011D01*
X82156331Y-126761500D01*
X82156315Y-126761500D01*
X80059039Y-126761500D01*
X80059022Y-126761500D01*
X79998474Y-126768011D01*
X79998472Y-126768011D01*
X79861472Y-126819111D01*
X79744416Y-126906739D01*
X79656788Y-127023795D01*
X79605688Y-127160795D01*
X79605688Y-127160797D01*
X79599177Y-127221345D01*
X79599177Y-129318654D01*
X76802778Y-129318654D01*
X76237086Y-128752962D01*
X76300670Y-128735925D01*
X76414684Y-128670099D01*
X76507776Y-128577007D01*
X76573602Y-128462993D01*
X76590639Y-128399410D01*
X77331111Y-129139882D01*
X77431408Y-128986369D01*
X77531264Y-128758717D01*
X77592289Y-128517738D01*
X77592291Y-128517729D01*
X77612818Y-128270005D01*
X77612818Y-128269994D01*
X77592291Y-128022270D01*
X77592289Y-128022261D01*
X77531264Y-127781282D01*
X77431408Y-127553630D01*
X77331111Y-127400116D01*
X76590639Y-128140589D01*
X76573602Y-128077007D01*
X76507776Y-127962993D01*
X76414684Y-127869901D01*
X76300670Y-127804075D01*
X76237087Y-127787037D01*
X76977734Y-127046390D01*
X76977733Y-127046389D01*
X76930906Y-127009943D01*
X76712291Y-126891635D01*
X76712280Y-126891630D01*
X76477170Y-126810916D01*
X76231970Y-126770000D01*
X75983384Y-126770000D01*
X75738183Y-126810916D01*
X75503073Y-126891630D01*
X75503067Y-126891632D01*
X75284438Y-127009949D01*
X75237619Y-127046388D01*
X75237619Y-127046390D01*
X75978267Y-127787037D01*
X75914684Y-127804075D01*
X75800670Y-127869901D01*
X75707578Y-127962993D01*
X75641752Y-128077007D01*
X75624714Y-128140589D01*
X74884241Y-127400116D01*
X74783944Y-127553632D01*
X74684089Y-127781282D01*
X74623064Y-128022261D01*
X74623062Y-128022270D01*
X74602536Y-128269994D01*
X74602536Y-128270005D01*
X50646613Y-128270005D01*
X50622093Y-128251649D01*
X50622088Y-128251646D01*
X50502188Y-128206926D01*
X50446255Y-128165054D01*
X50421838Y-128099590D01*
X50436690Y-128031317D01*
X50454286Y-128006769D01*
X50605722Y-127842268D01*
X50728860Y-127653791D01*
X50819296Y-127447616D01*
X50874564Y-127229368D01*
X50874565Y-127229359D01*
X50893156Y-127005005D01*
X50893156Y-127004994D01*
X50874565Y-126780640D01*
X50874563Y-126780628D01*
X50836115Y-126628802D01*
X50819296Y-126562384D01*
X50728860Y-126356209D01*
X50719221Y-126341456D01*
X50613246Y-126179249D01*
X50605722Y-126167732D01*
X50605719Y-126167729D01*
X50605715Y-126167723D01*
X50453243Y-126002097D01*
X50453238Y-126002092D01*
X50275577Y-125863812D01*
X50275572Y-125863808D01*
X50077580Y-125756661D01*
X50077577Y-125756659D01*
X50077574Y-125756658D01*
X50077571Y-125756657D01*
X50077569Y-125756656D01*
X49999926Y-125730001D01*
X64726502Y-125730001D01*
X64746456Y-125958081D01*
X64746457Y-125958089D01*
X64805714Y-126179238D01*
X64805718Y-126179249D01*
X64885275Y-126349860D01*
X64902477Y-126386749D01*
X65033802Y-126574300D01*
X65195700Y-126736198D01*
X65383251Y-126867523D01*
X65508091Y-126925736D01*
X65590750Y-126964281D01*
X65590752Y-126964281D01*
X65590757Y-126964284D01*
X65811913Y-127023543D01*
X65974832Y-127037796D01*
X66039998Y-127043498D01*
X66040000Y-127043498D01*
X66040002Y-127043498D01*
X66097021Y-127038509D01*
X66268087Y-127023543D01*
X66489243Y-126964284D01*
X66696749Y-126867523D01*
X66884300Y-126736198D01*
X67046198Y-126574300D01*
X67177523Y-126386749D01*
X67197618Y-126343655D01*
X67243790Y-126291215D01*
X67310983Y-126272063D01*
X67377864Y-126292278D01*
X67422382Y-126343655D01*
X67425274Y-126349858D01*
X67442477Y-126386749D01*
X67573802Y-126574300D01*
X67735700Y-126736198D01*
X67923251Y-126867523D01*
X68048091Y-126925736D01*
X68130750Y-126964281D01*
X68130752Y-126964281D01*
X68130757Y-126964284D01*
X68351913Y-127023543D01*
X68514832Y-127037796D01*
X68579998Y-127043498D01*
X68580000Y-127043498D01*
X68580002Y-127043498D01*
X68637021Y-127038509D01*
X68808087Y-127023543D01*
X69029243Y-126964284D01*
X69236749Y-126867523D01*
X69424300Y-126736198D01*
X69586198Y-126574300D01*
X69717523Y-126386749D01*
X69814284Y-126179243D01*
X69873543Y-125958087D01*
X69893498Y-125730000D01*
X69873543Y-125501913D01*
X69814284Y-125280757D01*
X69717523Y-125073251D01*
X69586198Y-124885700D01*
X69424300Y-124723802D01*
X69236749Y-124592477D01*
X69236745Y-124592475D01*
X69029249Y-124495718D01*
X69029238Y-124495714D01*
X68808089Y-124436457D01*
X68808081Y-124436456D01*
X68580002Y-124416502D01*
X68579998Y-124416502D01*
X68351918Y-124436456D01*
X68351910Y-124436457D01*
X68130761Y-124495714D01*
X68130750Y-124495718D01*
X67923254Y-124592475D01*
X67923252Y-124592476D01*
X67923251Y-124592477D01*
X67735700Y-124723802D01*
X67735698Y-124723803D01*
X67735695Y-124723806D01*
X67573806Y-124885695D01*
X67442476Y-125073251D01*
X67422382Y-125116345D01*
X67376209Y-125168784D01*
X67309016Y-125187936D01*
X67242135Y-125167720D01*
X67197618Y-125116345D01*
X67177523Y-125073251D01*
X67046198Y-124885700D01*
X66884300Y-124723802D01*
X66696749Y-124592477D01*
X66696745Y-124592475D01*
X66489249Y-124495718D01*
X66489238Y-124495714D01*
X66268089Y-124436457D01*
X66268081Y-124436456D01*
X66040002Y-124416502D01*
X66039998Y-124416502D01*
X65811918Y-124436456D01*
X65811910Y-124436457D01*
X65590761Y-124495714D01*
X65590750Y-124495718D01*
X65383254Y-124592475D01*
X65383252Y-124592476D01*
X65383251Y-124592477D01*
X65195700Y-124723802D01*
X65195698Y-124723803D01*
X65195695Y-124723806D01*
X65033806Y-124885695D01*
X64902476Y-125073252D01*
X64902475Y-125073254D01*
X64805718Y-125280750D01*
X64805714Y-125280761D01*
X64746457Y-125501910D01*
X64746456Y-125501918D01*
X64726502Y-125729998D01*
X64726502Y-125730001D01*
X49999926Y-125730001D01*
X49864637Y-125683556D01*
X49642569Y-125646500D01*
X49417431Y-125646500D01*
X49195362Y-125683556D01*
X48982430Y-125756656D01*
X48982419Y-125756661D01*
X48784427Y-125863808D01*
X48784422Y-125863812D01*
X48606761Y-126002092D01*
X48606756Y-126002097D01*
X48454284Y-126167723D01*
X48454276Y-126167734D01*
X48331140Y-126356207D01*
X48240703Y-126562385D01*
X48185436Y-126780628D01*
X48185434Y-126780640D01*
X48166844Y-127004994D01*
X48166844Y-127005005D01*
X45795500Y-127005005D01*
X45795500Y-122667717D01*
X47871500Y-122667717D01*
X47871501Y-122667728D01*
X47874268Y-122714208D01*
X47874269Y-122714221D01*
X47918251Y-122916402D01*
X47918254Y-122916412D01*
X47999710Y-123106628D01*
X48115692Y-123277991D01*
X48262009Y-123424308D01*
X48433372Y-123540290D01*
X48623588Y-123621746D01*
X48825783Y-123665731D01*
X48872269Y-123668500D01*
X50187730Y-123668499D01*
X50234217Y-123665731D01*
X50436412Y-123621746D01*
X50626628Y-123540290D01*
X50797991Y-123424308D01*
X50944308Y-123277991D01*
X51060290Y-123106628D01*
X51141746Y-122916412D01*
X51163517Y-122816331D01*
X57491500Y-122816331D01*
X57498011Y-122876879D01*
X57498011Y-122876881D01*
X57549111Y-123013881D01*
X57636739Y-123130938D01*
X57753796Y-123218566D01*
X57890799Y-123269666D01*
X57918050Y-123272595D01*
X57951345Y-123276176D01*
X57951362Y-123276177D01*
X60048638Y-123276177D01*
X60048654Y-123276176D01*
X60075692Y-123273268D01*
X60109201Y-123269666D01*
X60246204Y-123218566D01*
X60363261Y-123130938D01*
X60450889Y-123013881D01*
X60501989Y-122876878D01*
X60505591Y-122843369D01*
X60508499Y-122816331D01*
X60508500Y-122816314D01*
X60508500Y-120719039D01*
X60508499Y-120719022D01*
X60505157Y-120687947D01*
X60501989Y-120658476D01*
X60450889Y-120521473D01*
X60363261Y-120404416D01*
X60246204Y-120316788D01*
X60109203Y-120265688D01*
X60048654Y-120259177D01*
X60048638Y-120259177D01*
X57951362Y-120259177D01*
X57951345Y-120259177D01*
X57890797Y-120265688D01*
X57890795Y-120265688D01*
X57753795Y-120316788D01*
X57636739Y-120404416D01*
X57549111Y-120521472D01*
X57498011Y-120658472D01*
X57498011Y-120658474D01*
X57491500Y-120719022D01*
X57491500Y-122816331D01*
X51163517Y-122816331D01*
X51185731Y-122714217D01*
X51188500Y-122667731D01*
X51188499Y-121352270D01*
X51185731Y-121305783D01*
X51141746Y-121103588D01*
X51060290Y-120913372D01*
X50944308Y-120742009D01*
X50797991Y-120595692D01*
X50626628Y-120479710D01*
X50626623Y-120479708D01*
X50626622Y-120479707D01*
X50436413Y-120398254D01*
X50436402Y-120398251D01*
X50234222Y-120354270D01*
X50234221Y-120354269D01*
X50234217Y-120354269D01*
X50187731Y-120351500D01*
X50187719Y-120351500D01*
X48872282Y-120351500D01*
X48872271Y-120351500D01*
X48872270Y-120351501D01*
X48867525Y-120351783D01*
X48825791Y-120354268D01*
X48825778Y-120354269D01*
X48623597Y-120398251D01*
X48623586Y-120398254D01*
X48433377Y-120479707D01*
X48433373Y-120479709D01*
X48433372Y-120479710D01*
X48371669Y-120521472D01*
X48262011Y-120595690D01*
X48262006Y-120595694D01*
X48115694Y-120742006D01*
X48115690Y-120742011D01*
X48078943Y-120796305D01*
X48001586Y-120910601D01*
X47999707Y-120913377D01*
X47918254Y-121103586D01*
X47918251Y-121103597D01*
X47874270Y-121305777D01*
X47874269Y-121305783D01*
X47871500Y-121352269D01*
X47871500Y-121352279D01*
X47871500Y-121352280D01*
X47871500Y-122667717D01*
X45795500Y-122667717D01*
X45795500Y-119340002D01*
X72990034Y-119340002D01*
X73009858Y-119566599D01*
X73009860Y-119566610D01*
X73068730Y-119786317D01*
X73068735Y-119786331D01*
X73164863Y-119992478D01*
X73215974Y-120065472D01*
X73895000Y-119386446D01*
X73895000Y-119392661D01*
X73922259Y-119494394D01*
X73974920Y-119585606D01*
X74049394Y-119660080D01*
X74140606Y-119712741D01*
X74242339Y-119740000D01*
X74248553Y-119740000D01*
X73569526Y-120419025D01*
X73642513Y-120470132D01*
X73642521Y-120470136D01*
X73848668Y-120566264D01*
X73848682Y-120566269D01*
X74068389Y-120625139D01*
X74068400Y-120625141D01*
X74294998Y-120644966D01*
X74295002Y-120644966D01*
X74521599Y-120625141D01*
X74521610Y-120625139D01*
X74741317Y-120566269D01*
X74741331Y-120566264D01*
X74947478Y-120470136D01*
X75020471Y-120419024D01*
X74341447Y-119740000D01*
X74347661Y-119740000D01*
X74449394Y-119712741D01*
X74540606Y-119660080D01*
X74615080Y-119585606D01*
X74667741Y-119494394D01*
X74695000Y-119392661D01*
X74695000Y-119386447D01*
X75374024Y-120065471D01*
X75425136Y-119992478D01*
X75521264Y-119786331D01*
X75521269Y-119786317D01*
X75580139Y-119566610D01*
X75580141Y-119566599D01*
X75599966Y-119340004D01*
X79085429Y-119340004D01*
X79105683Y-119610289D01*
X79105684Y-119610294D01*
X79165997Y-119874545D01*
X79165999Y-119874554D01*
X79166001Y-119874559D01*
X79265029Y-120126879D01*
X79400557Y-120361621D01*
X79569558Y-120573542D01*
X79768257Y-120757907D01*
X79992215Y-120910599D01*
X79992218Y-120910600D01*
X79992219Y-120910601D01*
X80022614Y-120925238D01*
X80236428Y-121028206D01*
X80495442Y-121108101D01*
X80495443Y-121108101D01*
X80495446Y-121108102D01*
X80763464Y-121148499D01*
X80763469Y-121148499D01*
X80763472Y-121148500D01*
X80763473Y-121148500D01*
X81034527Y-121148500D01*
X81034528Y-121148500D01*
X81034535Y-121148499D01*
X81302553Y-121108102D01*
X81302554Y-121108101D01*
X81302558Y-121108101D01*
X81561572Y-121028206D01*
X81770601Y-120927543D01*
X81805778Y-120910603D01*
X81805778Y-120910602D01*
X81805786Y-120910599D01*
X82029743Y-120757907D01*
X82228442Y-120573542D01*
X82397443Y-120361621D01*
X82532971Y-120126879D01*
X82631999Y-119874559D01*
X82686905Y-119634001D01*
X86189502Y-119634001D01*
X86209456Y-119862081D01*
X86209457Y-119862089D01*
X86268714Y-120083238D01*
X86268718Y-120083249D01*
X86350755Y-120259177D01*
X86365477Y-120290749D01*
X86496802Y-120478300D01*
X86658700Y-120640198D01*
X86846251Y-120771523D01*
X86899401Y-120796307D01*
X86951840Y-120842479D01*
X86970992Y-120909673D01*
X86950776Y-120976554D01*
X86899401Y-121021071D01*
X86850517Y-121043866D01*
X86850512Y-121043868D01*
X86777526Y-121094973D01*
X86777526Y-121094974D01*
X87456553Y-121774000D01*
X87450339Y-121774000D01*
X87348606Y-121801259D01*
X87257394Y-121853920D01*
X87182920Y-121928394D01*
X87130259Y-122019606D01*
X87103000Y-122121339D01*
X87103000Y-122127552D01*
X86423974Y-121448526D01*
X86423973Y-121448526D01*
X86372868Y-121521512D01*
X86372866Y-121521516D01*
X86276734Y-121727673D01*
X86276730Y-121727682D01*
X86217860Y-121947389D01*
X86217858Y-121947400D01*
X86198034Y-122173997D01*
X86198034Y-122174002D01*
X86217858Y-122400599D01*
X86217860Y-122400610D01*
X86276730Y-122620317D01*
X86276735Y-122620331D01*
X86372863Y-122826478D01*
X86423974Y-122899472D01*
X87103000Y-122220446D01*
X87103000Y-122226661D01*
X87130259Y-122328394D01*
X87182920Y-122419606D01*
X87257394Y-122494080D01*
X87348606Y-122546741D01*
X87450339Y-122574000D01*
X87456553Y-122574000D01*
X86777526Y-123253025D01*
X86850513Y-123304132D01*
X86850521Y-123304136D01*
X87056668Y-123400264D01*
X87056682Y-123400269D01*
X87276389Y-123459139D01*
X87276400Y-123459141D01*
X87502998Y-123478966D01*
X87503002Y-123478966D01*
X87729599Y-123459141D01*
X87729610Y-123459139D01*
X87949317Y-123400269D01*
X87949331Y-123400264D01*
X88155478Y-123304136D01*
X88228471Y-123253024D01*
X87549447Y-122574000D01*
X87555661Y-122574000D01*
X87657394Y-122546741D01*
X87748606Y-122494080D01*
X87823080Y-122419606D01*
X87875741Y-122328394D01*
X87903000Y-122226661D01*
X87903000Y-122220447D01*
X88582024Y-122899471D01*
X88633136Y-122826478D01*
X88729264Y-122620331D01*
X88729269Y-122620317D01*
X88788139Y-122400610D01*
X88788141Y-122400599D01*
X88807966Y-122174002D01*
X88807966Y-122173997D01*
X88788141Y-121947400D01*
X88788139Y-121947389D01*
X88729269Y-121727682D01*
X88729264Y-121727668D01*
X88633136Y-121521521D01*
X88633132Y-121521513D01*
X88582025Y-121448526D01*
X87903000Y-122127551D01*
X87903000Y-122121339D01*
X87875741Y-122019606D01*
X87823080Y-121928394D01*
X87748606Y-121853920D01*
X87657394Y-121801259D01*
X87555661Y-121774000D01*
X87549448Y-121774000D01*
X88228472Y-121094974D01*
X88155480Y-121043864D01*
X88106598Y-121021070D01*
X88054159Y-120974897D01*
X88035007Y-120907704D01*
X88055223Y-120840822D01*
X88106598Y-120796307D01*
X88159749Y-120771523D01*
X88347300Y-120640198D01*
X88509198Y-120478300D01*
X88640523Y-120290749D01*
X88737284Y-120083243D01*
X88796543Y-119862087D01*
X88816498Y-119634000D01*
X88814424Y-119610299D01*
X88796543Y-119405918D01*
X88796543Y-119405913D01*
X88737284Y-119184757D01*
X88640523Y-118977251D01*
X88509198Y-118789700D01*
X88347300Y-118627802D01*
X88159749Y-118496477D01*
X88159745Y-118496475D01*
X87952249Y-118399718D01*
X87952238Y-118399714D01*
X87731089Y-118340457D01*
X87731081Y-118340456D01*
X87503002Y-118320502D01*
X87502998Y-118320502D01*
X87274918Y-118340456D01*
X87274910Y-118340457D01*
X87053761Y-118399714D01*
X87053750Y-118399718D01*
X86846254Y-118496475D01*
X86846252Y-118496476D01*
X86846251Y-118496477D01*
X86658700Y-118627802D01*
X86658698Y-118627803D01*
X86658695Y-118627806D01*
X86496806Y-118789695D01*
X86496803Y-118789698D01*
X86496802Y-118789700D01*
X86424003Y-118893668D01*
X86365476Y-118977252D01*
X86365475Y-118977254D01*
X86268718Y-119184750D01*
X86268714Y-119184761D01*
X86209457Y-119405910D01*
X86209456Y-119405918D01*
X86189502Y-119633998D01*
X86189502Y-119634001D01*
X82686905Y-119634001D01*
X82692315Y-119610299D01*
X82692316Y-119610289D01*
X82712571Y-119340004D01*
X82712571Y-119339995D01*
X82692316Y-119069710D01*
X82692315Y-119069705D01*
X82692315Y-119069701D01*
X82631999Y-118805441D01*
X82532971Y-118553121D01*
X82397443Y-118318379D01*
X82228442Y-118106458D01*
X82029743Y-117922093D01*
X81805786Y-117769401D01*
X81805780Y-117769398D01*
X81805779Y-117769397D01*
X81805778Y-117769396D01*
X81561574Y-117651795D01*
X81561576Y-117651795D01*
X81302559Y-117571899D01*
X81302553Y-117571897D01*
X81034535Y-117531500D01*
X81034528Y-117531500D01*
X80763472Y-117531500D01*
X80763464Y-117531500D01*
X80495446Y-117571897D01*
X80495440Y-117571899D01*
X80236427Y-117651794D01*
X79992219Y-117769398D01*
X79768256Y-117922093D01*
X79569560Y-118106456D01*
X79569558Y-118106458D01*
X79400557Y-118318379D01*
X79265029Y-118553120D01*
X79166003Y-118805435D01*
X79165997Y-118805454D01*
X79105684Y-119069705D01*
X79105683Y-119069710D01*
X79085429Y-119339995D01*
X79085429Y-119340004D01*
X75599966Y-119340004D01*
X75599966Y-119340002D01*
X75599966Y-119339997D01*
X75580141Y-119113400D01*
X75580139Y-119113389D01*
X75521269Y-118893682D01*
X75521264Y-118893668D01*
X75425136Y-118687521D01*
X75425132Y-118687513D01*
X75374025Y-118614526D01*
X74695000Y-119293551D01*
X74695000Y-119287339D01*
X74667741Y-119185606D01*
X74615080Y-119094394D01*
X74540606Y-119019920D01*
X74449394Y-118967259D01*
X74347661Y-118940000D01*
X74341448Y-118940000D01*
X75020472Y-118260974D01*
X74947478Y-118209863D01*
X74741331Y-118113735D01*
X74741317Y-118113730D01*
X74521610Y-118054860D01*
X74521599Y-118054858D01*
X74295002Y-118035034D01*
X74294998Y-118035034D01*
X74068400Y-118054858D01*
X74068389Y-118054860D01*
X73848682Y-118113730D01*
X73848673Y-118113734D01*
X73642516Y-118209866D01*
X73642512Y-118209868D01*
X73569526Y-118260973D01*
X73569526Y-118260974D01*
X74248553Y-118940000D01*
X74242339Y-118940000D01*
X74140606Y-118967259D01*
X74049394Y-119019920D01*
X73974920Y-119094394D01*
X73922259Y-119185606D01*
X73895000Y-119287339D01*
X73895000Y-119293552D01*
X73215974Y-118614526D01*
X73215973Y-118614526D01*
X73164868Y-118687512D01*
X73164866Y-118687516D01*
X73068734Y-118893673D01*
X73068730Y-118893682D01*
X73009860Y-119113389D01*
X73009858Y-119113400D01*
X72990034Y-119339997D01*
X72990034Y-119340002D01*
X45795500Y-119340002D01*
X45795500Y-118067717D01*
X47871500Y-118067717D01*
X47871501Y-118067728D01*
X47874268Y-118114208D01*
X47874269Y-118114221D01*
X47918251Y-118316402D01*
X47918254Y-118316413D01*
X47995362Y-118496476D01*
X47999710Y-118506628D01*
X48115692Y-118677991D01*
X48262009Y-118824308D01*
X48433372Y-118940290D01*
X48623588Y-119021746D01*
X48825783Y-119065731D01*
X48872269Y-119068500D01*
X50187730Y-119068499D01*
X50234217Y-119065731D01*
X50436412Y-119021746D01*
X50626628Y-118940290D01*
X50797991Y-118824308D01*
X50944308Y-118677991D01*
X51060290Y-118506628D01*
X51141746Y-118316412D01*
X51185731Y-118114217D01*
X51188500Y-118067731D01*
X51188499Y-116767682D01*
X57494859Y-116767682D01*
X57515385Y-117015406D01*
X57515387Y-117015415D01*
X57576412Y-117256394D01*
X57676266Y-117484041D01*
X57776564Y-117637559D01*
X58517037Y-116897086D01*
X58534075Y-116960670D01*
X58599901Y-117074684D01*
X58692993Y-117167776D01*
X58807007Y-117233602D01*
X58870590Y-117250639D01*
X58129942Y-117991286D01*
X58176768Y-118027732D01*
X58176770Y-118027733D01*
X58395385Y-118146041D01*
X58395396Y-118146046D01*
X58630506Y-118226760D01*
X58875707Y-118267677D01*
X59124293Y-118267677D01*
X59369493Y-118226760D01*
X59604603Y-118146046D01*
X59604614Y-118146041D01*
X59823228Y-118027734D01*
X59823231Y-118027732D01*
X59870056Y-117991286D01*
X59129409Y-117250639D01*
X59192993Y-117233602D01*
X59307007Y-117167776D01*
X59400099Y-117074684D01*
X59465925Y-116960670D01*
X59482962Y-116897086D01*
X60223434Y-117637559D01*
X60323731Y-117484046D01*
X60423587Y-117256394D01*
X60484612Y-117015415D01*
X60484614Y-117015406D01*
X60505141Y-116767682D01*
X60505141Y-116767671D01*
X60484614Y-116519947D01*
X60484612Y-116519938D01*
X60423587Y-116278959D01*
X60323731Y-116051307D01*
X60223434Y-115897793D01*
X59482962Y-116638266D01*
X59465925Y-116574684D01*
X59400099Y-116460670D01*
X59307007Y-116367578D01*
X59192993Y-116301752D01*
X59129410Y-116284714D01*
X59870057Y-115544067D01*
X59870056Y-115544066D01*
X59823229Y-115507620D01*
X59604614Y-115389312D01*
X59604603Y-115389307D01*
X59369493Y-115308593D01*
X59124293Y-115267677D01*
X58875707Y-115267677D01*
X58630506Y-115308593D01*
X58395396Y-115389307D01*
X58395390Y-115389309D01*
X58176761Y-115507626D01*
X58129942Y-115544065D01*
X58129942Y-115544067D01*
X58870590Y-116284714D01*
X58807007Y-116301752D01*
X58692993Y-116367578D01*
X58599901Y-116460670D01*
X58534075Y-116574684D01*
X58517037Y-116638266D01*
X57776564Y-115897793D01*
X57676267Y-116051309D01*
X57576412Y-116278959D01*
X57515387Y-116519938D01*
X57515385Y-116519947D01*
X57494859Y-116767671D01*
X57494859Y-116767682D01*
X51188499Y-116767682D01*
X51188499Y-116752270D01*
X51185731Y-116705783D01*
X51141746Y-116503588D01*
X51060290Y-116313372D01*
X50944308Y-116142009D01*
X50797991Y-115995692D01*
X50626628Y-115879710D01*
X50626623Y-115879708D01*
X50626622Y-115879707D01*
X50436413Y-115798254D01*
X50436402Y-115798251D01*
X50234222Y-115754270D01*
X50234221Y-115754269D01*
X50234217Y-115754269D01*
X50187731Y-115751500D01*
X50187719Y-115751500D01*
X48872282Y-115751500D01*
X48872271Y-115751500D01*
X48872270Y-115751501D01*
X48867525Y-115751783D01*
X48825791Y-115754268D01*
X48825778Y-115754269D01*
X48623597Y-115798251D01*
X48623586Y-115798254D01*
X48433377Y-115879707D01*
X48433373Y-115879709D01*
X48433372Y-115879710D01*
X48387734Y-115910599D01*
X48262011Y-115995690D01*
X48262006Y-115995694D01*
X48115694Y-116142006D01*
X48115690Y-116142011D01*
X48042939Y-116249500D01*
X48023002Y-116278959D01*
X47999707Y-116313377D01*
X47918254Y-116503586D01*
X47918251Y-116503597D01*
X47875124Y-116701851D01*
X47874269Y-116705783D01*
X47871500Y-116752269D01*
X47871500Y-116752279D01*
X47871500Y-116752280D01*
X47871500Y-118067717D01*
X45795500Y-118067717D01*
X45795500Y-114340001D01*
X72981502Y-114340001D01*
X73001456Y-114568081D01*
X73001457Y-114568089D01*
X73060714Y-114789238D01*
X73060718Y-114789249D01*
X73157475Y-114996745D01*
X73157477Y-114996749D01*
X73288802Y-115184300D01*
X73450700Y-115346198D01*
X73638251Y-115477523D01*
X73702795Y-115507620D01*
X73845750Y-115574281D01*
X73845752Y-115574281D01*
X73845757Y-115574284D01*
X74066913Y-115633543D01*
X74229832Y-115647796D01*
X74294998Y-115653498D01*
X74295000Y-115653498D01*
X74295002Y-115653498D01*
X74352021Y-115648509D01*
X74523087Y-115633543D01*
X74744243Y-115574284D01*
X74951749Y-115477523D01*
X75139300Y-115346198D01*
X75301198Y-115184300D01*
X75432523Y-114996749D01*
X75529284Y-114789243D01*
X75588543Y-114568087D01*
X75608498Y-114340004D01*
X79085429Y-114340004D01*
X79105683Y-114610289D01*
X79105684Y-114610294D01*
X79165997Y-114874545D01*
X79165999Y-114874554D01*
X79166001Y-114874559D01*
X79265029Y-115126879D01*
X79400557Y-115361621D01*
X79569558Y-115573542D01*
X79768257Y-115757907D01*
X79992215Y-115910599D01*
X80236428Y-116028206D01*
X80495442Y-116108101D01*
X80495443Y-116108101D01*
X80495446Y-116108102D01*
X80763464Y-116148499D01*
X80763469Y-116148499D01*
X80763472Y-116148500D01*
X80763473Y-116148500D01*
X81034527Y-116148500D01*
X81034528Y-116148500D01*
X81077580Y-116142011D01*
X81302553Y-116108102D01*
X81302554Y-116108101D01*
X81302558Y-116108101D01*
X81561572Y-116028206D01*
X81805786Y-115910599D01*
X82029743Y-115757907D01*
X82228442Y-115573542D01*
X82397443Y-115361621D01*
X82532971Y-115126879D01*
X82631999Y-114874559D01*
X82692315Y-114610299D01*
X82695478Y-114568089D01*
X82712571Y-114340004D01*
X82712571Y-114339995D01*
X82692316Y-114069710D01*
X82692315Y-114069705D01*
X82692315Y-114069701D01*
X82631999Y-113805441D01*
X82532971Y-113553121D01*
X82397443Y-113318379D01*
X82228442Y-113106458D01*
X82029743Y-112922093D01*
X81805786Y-112769401D01*
X81805780Y-112769398D01*
X81805779Y-112769397D01*
X81805778Y-112769396D01*
X81561574Y-112651795D01*
X81561576Y-112651795D01*
X81302559Y-112571899D01*
X81302553Y-112571897D01*
X81034535Y-112531500D01*
X81034528Y-112531500D01*
X80763472Y-112531500D01*
X80763464Y-112531500D01*
X80495446Y-112571897D01*
X80495440Y-112571899D01*
X80236427Y-112651794D01*
X79992219Y-112769398D01*
X79768256Y-112922093D01*
X79569560Y-113106456D01*
X79569558Y-113106458D01*
X79400557Y-113318379D01*
X79265029Y-113553120D01*
X79166003Y-113805435D01*
X79165997Y-113805454D01*
X79105684Y-114069705D01*
X79105683Y-114069710D01*
X79085429Y-114339995D01*
X79085429Y-114340004D01*
X75608498Y-114340004D01*
X75608498Y-114340000D01*
X75588543Y-114111913D01*
X75529284Y-113890757D01*
X75432523Y-113683251D01*
X75301198Y-113495700D01*
X75139300Y-113333802D01*
X74951749Y-113202477D01*
X74951745Y-113202475D01*
X74744249Y-113105718D01*
X74744238Y-113105714D01*
X74523089Y-113046457D01*
X74523081Y-113046456D01*
X74295002Y-113026502D01*
X74294998Y-113026502D01*
X74066918Y-113046456D01*
X74066910Y-113046457D01*
X73845761Y-113105714D01*
X73845750Y-113105718D01*
X73638254Y-113202475D01*
X73638252Y-113202476D01*
X73638251Y-113202477D01*
X73450700Y-113333802D01*
X73450698Y-113333803D01*
X73450695Y-113333806D01*
X73288806Y-113495695D01*
X73288803Y-113495698D01*
X73288802Y-113495700D01*
X73206767Y-113612856D01*
X73157476Y-113683252D01*
X73157475Y-113683254D01*
X73060718Y-113890750D01*
X73060714Y-113890761D01*
X73001457Y-114111910D01*
X73001456Y-114111918D01*
X72981502Y-114339998D01*
X72981502Y-114340001D01*
X45795500Y-114340001D01*
X45795500Y-106110000D01*
X47866372Y-106110000D01*
X47886854Y-106370249D01*
X47947796Y-106624089D01*
X47947797Y-106624091D01*
X48047696Y-106865271D01*
X48184095Y-107087853D01*
X48184098Y-107087858D01*
X48260949Y-107177839D01*
X48353637Y-107286363D01*
X48480701Y-107394885D01*
X48552141Y-107455901D01*
X48552146Y-107455904D01*
X48774728Y-107592303D01*
X48859998Y-107627622D01*
X49015911Y-107692204D01*
X49269751Y-107753146D01*
X49530000Y-107773628D01*
X49790249Y-107753146D01*
X50044089Y-107692204D01*
X50285271Y-107592303D01*
X50507856Y-107455903D01*
X50706363Y-107286363D01*
X50875903Y-107087856D01*
X51012303Y-106865271D01*
X51112204Y-106624089D01*
X51159761Y-106426001D01*
X90761502Y-106426001D01*
X90781456Y-106654081D01*
X90781457Y-106654089D01*
X90840714Y-106875238D01*
X90840718Y-106875249D01*
X90917382Y-107039655D01*
X90937477Y-107082749D01*
X91068802Y-107270300D01*
X91230700Y-107432198D01*
X91418251Y-107563523D01*
X91543091Y-107621736D01*
X91625750Y-107660281D01*
X91625752Y-107660281D01*
X91625757Y-107660284D01*
X91846913Y-107719543D01*
X92009832Y-107733796D01*
X92074998Y-107739498D01*
X92075000Y-107739498D01*
X92075002Y-107739498D01*
X92132021Y-107734509D01*
X92303087Y-107719543D01*
X92524243Y-107660284D01*
X92731749Y-107563523D01*
X92919300Y-107432198D01*
X93081198Y-107270300D01*
X93212523Y-107082749D01*
X93232618Y-107039655D01*
X93278790Y-106987215D01*
X93345983Y-106968063D01*
X93412864Y-106988278D01*
X93457382Y-107039655D01*
X93477477Y-107082749D01*
X93608802Y-107270300D01*
X93770700Y-107432198D01*
X93958251Y-107563523D01*
X94083091Y-107621736D01*
X94165750Y-107660281D01*
X94165752Y-107660281D01*
X94165757Y-107660284D01*
X94386913Y-107719543D01*
X94549832Y-107733796D01*
X94614998Y-107739498D01*
X94615000Y-107739498D01*
X94615002Y-107739498D01*
X94672021Y-107734509D01*
X94843087Y-107719543D01*
X95064243Y-107660284D01*
X95271749Y-107563523D01*
X95459300Y-107432198D01*
X95621198Y-107270300D01*
X95752523Y-107082749D01*
X95849284Y-106875243D01*
X95908543Y-106654087D01*
X95928498Y-106426000D01*
X95908543Y-106197913D01*
X95849284Y-105976757D01*
X95752523Y-105769251D01*
X95621198Y-105581700D01*
X95459300Y-105419802D01*
X95271749Y-105288477D01*
X95271745Y-105288475D01*
X95064249Y-105191718D01*
X95064238Y-105191714D01*
X94843089Y-105132457D01*
X94843081Y-105132456D01*
X94615002Y-105112502D01*
X94614998Y-105112502D01*
X94386918Y-105132456D01*
X94386910Y-105132457D01*
X94165761Y-105191714D01*
X94165750Y-105191718D01*
X93958254Y-105288475D01*
X93958252Y-105288476D01*
X93958251Y-105288477D01*
X93770700Y-105419802D01*
X93770698Y-105419803D01*
X93770695Y-105419806D01*
X93608806Y-105581695D01*
X93608803Y-105581698D01*
X93608802Y-105581700D01*
X93565090Y-105644126D01*
X93477476Y-105769251D01*
X93457382Y-105812345D01*
X93411209Y-105864784D01*
X93344016Y-105883936D01*
X93277135Y-105863720D01*
X93232618Y-105812345D01*
X93212523Y-105769251D01*
X93081198Y-105581700D01*
X92919300Y-105419802D01*
X92731749Y-105288477D01*
X92731745Y-105288475D01*
X92524249Y-105191718D01*
X92524238Y-105191714D01*
X92303089Y-105132457D01*
X92303081Y-105132456D01*
X92075002Y-105112502D01*
X92074998Y-105112502D01*
X91846918Y-105132456D01*
X91846910Y-105132457D01*
X91625761Y-105191714D01*
X91625750Y-105191718D01*
X91418254Y-105288475D01*
X91418252Y-105288476D01*
X91418251Y-105288477D01*
X91230700Y-105419802D01*
X91230698Y-105419803D01*
X91230695Y-105419806D01*
X91068806Y-105581695D01*
X91068803Y-105581698D01*
X91068802Y-105581700D01*
X90986767Y-105698856D01*
X90937476Y-105769252D01*
X90937475Y-105769254D01*
X90840718Y-105976750D01*
X90840714Y-105976761D01*
X90781457Y-106197910D01*
X90781456Y-106197918D01*
X90761502Y-106425998D01*
X90761502Y-106426001D01*
X51159761Y-106426001D01*
X51173146Y-106370249D01*
X51193628Y-106110000D01*
X51173146Y-105849751D01*
X51112204Y-105595911D01*
X51012303Y-105354729D01*
X51012303Y-105354728D01*
X50875904Y-105132146D01*
X50875901Y-105132141D01*
X50814885Y-105060701D01*
X50747562Y-104981875D01*
X67031500Y-104981875D01*
X67069628Y-105222608D01*
X67144950Y-105454422D01*
X67217043Y-105595911D01*
X67255604Y-105671591D01*
X67398871Y-105868780D01*
X67571220Y-106041129D01*
X67768409Y-106184396D01*
X67871014Y-106236676D01*
X67985577Y-106295049D01*
X67985579Y-106295049D01*
X67985582Y-106295051D01*
X68109837Y-106335424D01*
X68217391Y-106370371D01*
X68458125Y-106408500D01*
X68458130Y-106408500D01*
X68701875Y-106408500D01*
X68942608Y-106370371D01*
X68968125Y-106362080D01*
X69174418Y-106295051D01*
X69391591Y-106184396D01*
X69588780Y-106041129D01*
X69761129Y-105868780D01*
X69904396Y-105671591D01*
X70015051Y-105454418D01*
X70090371Y-105222608D01*
X70090686Y-105220618D01*
X70128500Y-104981875D01*
X70128500Y-104981200D01*
X72120000Y-104981200D01*
X72157920Y-105220618D01*
X72232827Y-105451159D01*
X72342874Y-105667136D01*
X72485356Y-105863245D01*
X72656754Y-106034643D01*
X72852863Y-106177125D01*
X73068840Y-106287172D01*
X73299381Y-106362080D01*
X73410000Y-106379600D01*
X73410000Y-104754120D01*
X73455818Y-104773099D01*
X73591056Y-104800000D01*
X73728944Y-104800000D01*
X73864182Y-104773099D01*
X73910000Y-104754120D01*
X73910000Y-106379599D01*
X74020618Y-106362080D01*
X74251159Y-106287172D01*
X74467136Y-106177125D01*
X74663245Y-106034643D01*
X74834643Y-105863245D01*
X74977125Y-105667136D01*
X75087172Y-105451159D01*
X75162079Y-105220618D01*
X75199893Y-104981875D01*
X77191500Y-104981875D01*
X77229628Y-105222608D01*
X77304950Y-105454422D01*
X77377043Y-105595911D01*
X77415604Y-105671591D01*
X77558871Y-105868780D01*
X77731220Y-106041129D01*
X77928409Y-106184396D01*
X78031014Y-106236676D01*
X78145577Y-106295049D01*
X78145579Y-106295049D01*
X78145582Y-106295051D01*
X78269837Y-106335424D01*
X78377391Y-106370371D01*
X78618125Y-106408500D01*
X78618130Y-106408500D01*
X78861875Y-106408500D01*
X79102608Y-106370371D01*
X79128125Y-106362080D01*
X79334418Y-106295051D01*
X79551591Y-106184396D01*
X79748780Y-106041129D01*
X79921129Y-105868780D01*
X80064396Y-105671591D01*
X80175051Y-105454418D01*
X80250371Y-105222608D01*
X80250686Y-105220618D01*
X80288500Y-104981875D01*
X82271500Y-104981875D01*
X82309628Y-105222608D01*
X82384950Y-105454422D01*
X82457043Y-105595911D01*
X82495604Y-105671591D01*
X82638871Y-105868780D01*
X82811220Y-106041129D01*
X83008409Y-106184396D01*
X83111014Y-106236676D01*
X83225577Y-106295049D01*
X83225579Y-106295049D01*
X83225582Y-106295051D01*
X83349837Y-106335424D01*
X83457391Y-106370371D01*
X83698125Y-106408500D01*
X83698130Y-106408500D01*
X83941875Y-106408500D01*
X84182608Y-106370371D01*
X84208125Y-106362080D01*
X84414418Y-106295051D01*
X84631591Y-106184396D01*
X84828780Y-106041129D01*
X85001129Y-105868780D01*
X85144396Y-105671591D01*
X85255051Y-105454418D01*
X85330371Y-105222608D01*
X85330686Y-105220618D01*
X85368500Y-104981875D01*
X85368500Y-103218124D01*
X85330371Y-102977391D01*
X85277041Y-102813260D01*
X85255051Y-102745582D01*
X85255049Y-102745579D01*
X85255049Y-102745577D01*
X85196676Y-102631014D01*
X85144396Y-102528409D01*
X85122778Y-102498654D01*
X90076500Y-102498654D01*
X90083011Y-102559202D01*
X90083011Y-102559204D01*
X90130440Y-102686362D01*
X90134111Y-102696204D01*
X90221739Y-102813261D01*
X90338796Y-102900889D01*
X90475799Y-102951989D01*
X90503050Y-102954918D01*
X90536345Y-102958499D01*
X90536362Y-102958500D01*
X92333638Y-102958500D01*
X92333654Y-102958499D01*
X92360692Y-102955591D01*
X92394201Y-102951989D01*
X92531204Y-102900889D01*
X92648261Y-102813261D01*
X92735889Y-102696204D01*
X92781138Y-102574887D01*
X92823009Y-102518956D01*
X92888474Y-102494539D01*
X92956746Y-102509391D01*
X92988545Y-102534236D01*
X93051760Y-102602906D01*
X93229424Y-102741189D01*
X93229425Y-102741189D01*
X93229427Y-102741191D01*
X93356135Y-102809761D01*
X93427426Y-102848342D01*
X93640365Y-102921444D01*
X93862431Y-102958500D01*
X94087569Y-102958500D01*
X94309635Y-102921444D01*
X94522574Y-102848342D01*
X94720576Y-102741189D01*
X94898240Y-102602906D01*
X95050722Y-102437268D01*
X95173860Y-102248791D01*
X95264296Y-102042616D01*
X95319564Y-101824368D01*
X95322288Y-101791500D01*
X95338156Y-101600005D01*
X95338156Y-101599994D01*
X95319565Y-101375640D01*
X95319563Y-101375628D01*
X95316876Y-101365018D01*
X95264296Y-101157384D01*
X95173860Y-100951209D01*
X95050722Y-100762732D01*
X95050719Y-100762729D01*
X95050715Y-100762723D01*
X94898243Y-100597097D01*
X94898238Y-100597092D01*
X94720577Y-100458812D01*
X94720572Y-100458808D01*
X94522580Y-100351661D01*
X94522577Y-100351659D01*
X94522574Y-100351658D01*
X94522571Y-100351657D01*
X94522569Y-100351656D01*
X94309637Y-100278556D01*
X94087569Y-100241500D01*
X93862431Y-100241500D01*
X93640362Y-100278556D01*
X93427430Y-100351656D01*
X93427419Y-100351661D01*
X93229427Y-100458808D01*
X93229422Y-100458812D01*
X93051761Y-100597092D01*
X92988548Y-100665760D01*
X92928661Y-100701750D01*
X92858823Y-100699649D01*
X92801207Y-100660124D01*
X92781138Y-100625110D01*
X92735889Y-100503796D01*
X92702214Y-100458812D01*
X92648261Y-100386739D01*
X92531204Y-100299111D01*
X92394203Y-100248011D01*
X92333654Y-100241500D01*
X92333638Y-100241500D01*
X90536362Y-100241500D01*
X90536345Y-100241500D01*
X90475797Y-100248011D01*
X90475795Y-100248011D01*
X90338795Y-100299111D01*
X90221739Y-100386739D01*
X90134111Y-100503795D01*
X90083011Y-100640795D01*
X90083011Y-100640797D01*
X90076500Y-100701345D01*
X90076500Y-102498654D01*
X85122778Y-102498654D01*
X85001129Y-102331220D01*
X84828780Y-102158871D01*
X84631591Y-102015604D01*
X84414422Y-101904950D01*
X84182608Y-101829628D01*
X83941875Y-101791500D01*
X83941870Y-101791500D01*
X83698130Y-101791500D01*
X83698125Y-101791500D01*
X83457391Y-101829628D01*
X83225577Y-101904950D01*
X83008408Y-102015604D01*
X82971230Y-102042616D01*
X82811220Y-102158871D01*
X82811218Y-102158873D01*
X82811217Y-102158873D01*
X82638873Y-102331217D01*
X82638873Y-102331218D01*
X82638871Y-102331220D01*
X82577343Y-102415904D01*
X82495604Y-102528408D01*
X82384950Y-102745577D01*
X82309628Y-102977391D01*
X82271500Y-103218124D01*
X82271500Y-104981875D01*
X80288500Y-104981875D01*
X80288500Y-103218124D01*
X80250371Y-102977391D01*
X80197041Y-102813260D01*
X80175051Y-102745582D01*
X80175049Y-102745579D01*
X80175049Y-102745577D01*
X80116676Y-102631014D01*
X80064396Y-102528409D01*
X79921129Y-102331220D01*
X79748780Y-102158871D01*
X79551591Y-102015604D01*
X79334422Y-101904950D01*
X79102608Y-101829628D01*
X78861875Y-101791500D01*
X78861870Y-101791500D01*
X78618130Y-101791500D01*
X78618125Y-101791500D01*
X78377391Y-101829628D01*
X78145577Y-101904950D01*
X77928408Y-102015604D01*
X77891230Y-102042616D01*
X77731220Y-102158871D01*
X77731218Y-102158873D01*
X77731217Y-102158873D01*
X77558873Y-102331217D01*
X77558873Y-102331218D01*
X77558871Y-102331220D01*
X77497343Y-102415904D01*
X77415604Y-102528408D01*
X77304950Y-102745577D01*
X77229628Y-102977391D01*
X77191500Y-103218124D01*
X77191500Y-104981875D01*
X75199893Y-104981875D01*
X75200000Y-104981200D01*
X75200000Y-104350000D01*
X74314121Y-104350000D01*
X74333099Y-104304182D01*
X74360000Y-104168944D01*
X74360000Y-104031056D01*
X74333099Y-103895818D01*
X74314121Y-103850000D01*
X75200000Y-103850000D01*
X75200000Y-103218799D01*
X75162079Y-102979381D01*
X75087172Y-102748840D01*
X74977125Y-102532863D01*
X74834643Y-102336754D01*
X74663245Y-102165356D01*
X74467136Y-102022874D01*
X74251157Y-101912827D01*
X74020614Y-101837919D01*
X73910000Y-101820399D01*
X73910000Y-103445879D01*
X73864182Y-103426901D01*
X73728944Y-103400000D01*
X73591056Y-103400000D01*
X73455818Y-103426901D01*
X73410000Y-103445879D01*
X73410000Y-101820399D01*
X73409999Y-101820399D01*
X73299385Y-101837919D01*
X73068842Y-101912827D01*
X72852863Y-102022874D01*
X72656754Y-102165356D01*
X72485356Y-102336754D01*
X72342874Y-102532863D01*
X72232827Y-102748840D01*
X72157920Y-102979381D01*
X72120000Y-103218799D01*
X72120000Y-103850000D01*
X73005879Y-103850000D01*
X72986901Y-103895818D01*
X72960000Y-104031056D01*
X72960000Y-104168944D01*
X72986901Y-104304182D01*
X73005879Y-104350000D01*
X72120000Y-104350000D01*
X72120000Y-104981200D01*
X70128500Y-104981200D01*
X70128500Y-103218124D01*
X70090371Y-102977391D01*
X70037041Y-102813260D01*
X70015051Y-102745582D01*
X70015049Y-102745579D01*
X70015049Y-102745577D01*
X69956676Y-102631014D01*
X69904396Y-102528409D01*
X69761129Y-102331220D01*
X69588780Y-102158871D01*
X69391591Y-102015604D01*
X69174422Y-101904950D01*
X68942608Y-101829628D01*
X68701875Y-101791500D01*
X68701870Y-101791500D01*
X68458130Y-101791500D01*
X68458125Y-101791500D01*
X68217391Y-101829628D01*
X67985577Y-101904950D01*
X67768408Y-102015604D01*
X67731230Y-102042616D01*
X67571220Y-102158871D01*
X67571218Y-102158873D01*
X67571217Y-102158873D01*
X67398873Y-102331217D01*
X67398873Y-102331218D01*
X67398871Y-102331220D01*
X67337343Y-102415904D01*
X67255604Y-102528408D01*
X67144950Y-102745577D01*
X67069628Y-102977391D01*
X67031500Y-103218124D01*
X67031500Y-104981875D01*
X50747562Y-104981875D01*
X50706363Y-104933637D01*
X50597839Y-104840949D01*
X50507858Y-104764098D01*
X50507853Y-104764095D01*
X50285271Y-104627696D01*
X50044091Y-104527797D01*
X50044089Y-104527796D01*
X49870445Y-104486107D01*
X49790250Y-104466854D01*
X49530000Y-104446372D01*
X49269749Y-104466854D01*
X49109357Y-104505361D01*
X49015911Y-104527796D01*
X49015909Y-104527796D01*
X49015908Y-104527797D01*
X48774728Y-104627696D01*
X48552146Y-104764095D01*
X48552141Y-104764098D01*
X48353637Y-104933637D01*
X48184098Y-105132141D01*
X48184095Y-105132146D01*
X48047696Y-105354728D01*
X47947797Y-105595908D01*
X47886854Y-105849749D01*
X47876859Y-105976750D01*
X47866372Y-106110000D01*
X45795500Y-106110000D01*
X45795500Y-101510000D01*
X47866372Y-101510000D01*
X47886854Y-101770249D01*
X47947796Y-102024089D01*
X47947797Y-102024091D01*
X48047696Y-102265271D01*
X48184095Y-102487853D01*
X48184098Y-102487858D01*
X48258430Y-102574889D01*
X48353637Y-102686363D01*
X48422974Y-102745582D01*
X48552141Y-102855901D01*
X48552146Y-102855904D01*
X48774728Y-102992303D01*
X48859998Y-103027622D01*
X49015911Y-103092204D01*
X49269751Y-103153146D01*
X49530000Y-103173628D01*
X49790249Y-103153146D01*
X50044089Y-103092204D01*
X50285271Y-102992303D01*
X50507856Y-102855903D01*
X50706363Y-102686363D01*
X50875903Y-102487856D01*
X51012303Y-102265271D01*
X51112204Y-102024089D01*
X51173146Y-101770249D01*
X51193628Y-101510000D01*
X51173146Y-101249751D01*
X51112204Y-100995911D01*
X51015618Y-100762732D01*
X51012303Y-100754728D01*
X50875904Y-100532146D01*
X50875901Y-100532141D01*
X50813271Y-100458811D01*
X50706363Y-100333637D01*
X50597839Y-100240949D01*
X50507858Y-100164098D01*
X50507853Y-100164095D01*
X50285271Y-100027696D01*
X50044091Y-99927797D01*
X50044089Y-99927796D01*
X49870445Y-99886107D01*
X49790250Y-99866854D01*
X49530000Y-99846372D01*
X49269749Y-99866854D01*
X49109357Y-99905361D01*
X49015911Y-99927796D01*
X49015909Y-99927796D01*
X49015908Y-99927797D01*
X48774728Y-100027696D01*
X48552146Y-100164095D01*
X48552141Y-100164098D01*
X48353637Y-100333637D01*
X48184098Y-100532141D01*
X48184095Y-100532146D01*
X48047696Y-100754728D01*
X47947797Y-100995908D01*
X47909030Y-101157384D01*
X47886854Y-101249751D01*
X47866372Y-101510000D01*
X45795500Y-101510000D01*
X45795500Y-99259500D01*
X45815185Y-99192461D01*
X45867989Y-99146706D01*
X45919500Y-99135500D01*
X96320500Y-99135500D01*
X96387539Y-99155185D01*
G37*
G04 #@! TD.AperFunction*
M02*
