M48
; DRILL file {KiCad 8.0.1-8.0.1-1~ubuntu22.04.1} date 2024-04-21T12:36:50+0200
; FORMAT={-:-/ absolute / inch / decimal}
; #@! TF.CreationDate,2024-04-21T12:36:50+02:00
; #@! TF.GenerationSoftware,Kicad,Pcbnew,8.0.1-8.0.1-1~ubuntu22.04.1
; #@! TF.FileFunction,Plated,1,2,PTH
FMAT,2
INCH
; #@! TA.AperFunction,Plated,PTH,ViaDrill
T1C0.0157
; #@! TA.AperFunction,Plated,PTH,ComponentDrill
T2C0.0315
; #@! TA.AperFunction,Plated,PTH,ComponentDrill
T3C0.0354
; #@! TA.AperFunction,Plated,PTH,ComponentDrill
T4C0.0394
; #@! TA.AperFunction,Plated,PTH,ComponentDrill
T5C0.0512
; #@! TA.AperFunction,Plated,PTH,ComponentDrill
T6C0.0551
%
G90
G05
T1
X3.0866Y-5.0827
X3.1181Y-5.0591
X3.1476Y-5.0315
T2
X2.9193Y-5.8189
X3.1122Y-5.8189
T3
X2.9283Y-4.8071
X3.0283Y-4.8071
X3.1283Y-4.8071
X3.2283Y-4.8071
T4
X1.9Y-5.0
X1.9Y-5.1
X1.9Y-5.2
X1.9Y-5.3
X1.9Y-5.4
X1.9Y-5.5
X1.9Y-5.6
X1.9Y-5.7
X2.2375Y-5.6142
X2.3228Y-4.5972
X2.3228Y-4.794
X2.4343Y-5.6142
X3.45Y-5.0
X3.45Y-5.1
X3.45Y-5.2
X3.45Y-5.3
X3.45Y-5.4
X3.45Y-5.5
X3.45Y-5.6
X3.55Y-5.0
X3.55Y-5.1
X3.55Y-5.2
X3.55Y-5.3
X3.55Y-5.4
X3.55Y-5.5
X3.55Y-5.6
X3.5827Y-4.1
X3.5827Y-4.2
X3.7Y-5.0
X3.7Y-5.1
X3.7Y-5.2
X3.7Y-5.3
X3.7Y-5.4
X3.7Y-5.5
X3.7Y-5.6
X3.7Y-5.7
T5
X1.95Y-3.9965
X1.95Y-4.1776
X1.95Y-4.6224
X1.95Y-4.8035
X2.2362Y-5.1969
X2.4331Y-5.1969
T6
X2.7Y-4.0984
X2.9Y-4.0984
X3.1Y-4.0984
X3.3Y-4.0984
M30
