G04 #@! TF.GenerationSoftware,KiCad,Pcbnew,8.0.1-8.0.1-1~ubuntu22.04.1*
G04 #@! TF.CreationDate,2024-04-21T12:37:43+02:00*
G04 #@! TF.ProjectId,MCU_Board,4d43555f-426f-4617-9264-2e6b69636164,rev?*
G04 #@! TF.SameCoordinates,Original*
G04 #@! TF.FileFunction,Legend,Bot*
G04 #@! TF.FilePolarity,Positive*
%FSLAX46Y46*%
G04 Gerber Fmt 4.6, Leading zero omitted, Abs format (unit mm)*
G04 Created by KiCad (PCBNEW 8.0.1-8.0.1-1~ubuntu22.04.1) date 2024-04-21 12:37:43*
%MOMM*%
%LPD*%
G01*
G04 APERTURE LIST*
%ADD10C,0.300000*%
G04 APERTURE END LIST*
D10*
X94516917Y-150299442D02*
X94302632Y-150370870D01*
X94302632Y-150370870D02*
X93945489Y-150370870D01*
X93945489Y-150370870D02*
X93802632Y-150299442D01*
X93802632Y-150299442D02*
X93731203Y-150228013D01*
X93731203Y-150228013D02*
X93659774Y-150085156D01*
X93659774Y-150085156D02*
X93659774Y-149942299D01*
X93659774Y-149942299D02*
X93731203Y-149799442D01*
X93731203Y-149799442D02*
X93802632Y-149728013D01*
X93802632Y-149728013D02*
X93945489Y-149656584D01*
X93945489Y-149656584D02*
X94231203Y-149585156D01*
X94231203Y-149585156D02*
X94374060Y-149513727D01*
X94374060Y-149513727D02*
X94445489Y-149442299D01*
X94445489Y-149442299D02*
X94516917Y-149299442D01*
X94516917Y-149299442D02*
X94516917Y-149156584D01*
X94516917Y-149156584D02*
X94445489Y-149013727D01*
X94445489Y-149013727D02*
X94374060Y-148942299D01*
X94374060Y-148942299D02*
X94231203Y-148870870D01*
X94231203Y-148870870D02*
X93874060Y-148870870D01*
X93874060Y-148870870D02*
X93659774Y-148942299D01*
X93231203Y-148870870D02*
X92374061Y-148870870D01*
X92802632Y-150370870D02*
X92802632Y-148870870D01*
X91874061Y-150370870D02*
X91874061Y-148870870D01*
X91874061Y-148870870D02*
X91374061Y-149942299D01*
X91374061Y-149942299D02*
X90874061Y-148870870D01*
X90874061Y-148870870D02*
X90874061Y-150370870D01*
X90302632Y-148870870D02*
X89374060Y-148870870D01*
X89374060Y-148870870D02*
X89874060Y-149442299D01*
X89874060Y-149442299D02*
X89659775Y-149442299D01*
X89659775Y-149442299D02*
X89516918Y-149513727D01*
X89516918Y-149513727D02*
X89445489Y-149585156D01*
X89445489Y-149585156D02*
X89374060Y-149728013D01*
X89374060Y-149728013D02*
X89374060Y-150085156D01*
X89374060Y-150085156D02*
X89445489Y-150228013D01*
X89445489Y-150228013D02*
X89516918Y-150299442D01*
X89516918Y-150299442D02*
X89659775Y-150370870D01*
X89659775Y-150370870D02*
X90088346Y-150370870D01*
X90088346Y-150370870D02*
X90231203Y-150299442D01*
X90231203Y-150299442D02*
X90302632Y-150228013D01*
X88802632Y-149013727D02*
X88731204Y-148942299D01*
X88731204Y-148942299D02*
X88588347Y-148870870D01*
X88588347Y-148870870D02*
X88231204Y-148870870D01*
X88231204Y-148870870D02*
X88088347Y-148942299D01*
X88088347Y-148942299D02*
X88016918Y-149013727D01*
X88016918Y-149013727D02*
X87945489Y-149156584D01*
X87945489Y-149156584D02*
X87945489Y-149299442D01*
X87945489Y-149299442D02*
X88016918Y-149513727D01*
X88016918Y-149513727D02*
X88874061Y-150370870D01*
X88874061Y-150370870D02*
X87945489Y-150370870D01*
X87302633Y-149799442D02*
X86159776Y-149799442D01*
X84588347Y-150228013D02*
X84659775Y-150299442D01*
X84659775Y-150299442D02*
X84874061Y-150370870D01*
X84874061Y-150370870D02*
X85016918Y-150370870D01*
X85016918Y-150370870D02*
X85231204Y-150299442D01*
X85231204Y-150299442D02*
X85374061Y-150156584D01*
X85374061Y-150156584D02*
X85445490Y-150013727D01*
X85445490Y-150013727D02*
X85516918Y-149728013D01*
X85516918Y-149728013D02*
X85516918Y-149513727D01*
X85516918Y-149513727D02*
X85445490Y-149228013D01*
X85445490Y-149228013D02*
X85374061Y-149085156D01*
X85374061Y-149085156D02*
X85231204Y-148942299D01*
X85231204Y-148942299D02*
X85016918Y-148870870D01*
X85016918Y-148870870D02*
X84874061Y-148870870D01*
X84874061Y-148870870D02*
X84659775Y-148942299D01*
X84659775Y-148942299D02*
X84588347Y-149013727D01*
X84016918Y-149942299D02*
X83302633Y-149942299D01*
X84159775Y-150370870D02*
X83659775Y-148870870D01*
X83659775Y-148870870D02*
X83159775Y-150370870D01*
X82659776Y-150370870D02*
X82659776Y-148870870D01*
X82659776Y-148870870D02*
X81802633Y-150370870D01*
X81802633Y-150370870D02*
X81802633Y-148870870D01*
X81088347Y-149799442D02*
X79945490Y-149799442D01*
X78731204Y-149585156D02*
X78516918Y-149656584D01*
X78516918Y-149656584D02*
X78445489Y-149728013D01*
X78445489Y-149728013D02*
X78374061Y-149870870D01*
X78374061Y-149870870D02*
X78374061Y-150085156D01*
X78374061Y-150085156D02*
X78445489Y-150228013D01*
X78445489Y-150228013D02*
X78516918Y-150299442D01*
X78516918Y-150299442D02*
X78659775Y-150370870D01*
X78659775Y-150370870D02*
X79231204Y-150370870D01*
X79231204Y-150370870D02*
X79231204Y-148870870D01*
X79231204Y-148870870D02*
X78731204Y-148870870D01*
X78731204Y-148870870D02*
X78588347Y-148942299D01*
X78588347Y-148942299D02*
X78516918Y-149013727D01*
X78516918Y-149013727D02*
X78445489Y-149156584D01*
X78445489Y-149156584D02*
X78445489Y-149299442D01*
X78445489Y-149299442D02*
X78516918Y-149442299D01*
X78516918Y-149442299D02*
X78588347Y-149513727D01*
X78588347Y-149513727D02*
X78731204Y-149585156D01*
X78731204Y-149585156D02*
X79231204Y-149585156D01*
X77088347Y-149370870D02*
X77088347Y-150370870D01*
X77731204Y-149370870D02*
X77731204Y-150156584D01*
X77731204Y-150156584D02*
X77659775Y-150299442D01*
X77659775Y-150299442D02*
X77516918Y-150370870D01*
X77516918Y-150370870D02*
X77302632Y-150370870D01*
X77302632Y-150370870D02*
X77159775Y-150299442D01*
X77159775Y-150299442D02*
X77088347Y-150228013D01*
X76445489Y-150299442D02*
X76302632Y-150370870D01*
X76302632Y-150370870D02*
X76016918Y-150370870D01*
X76016918Y-150370870D02*
X75874061Y-150299442D01*
X75874061Y-150299442D02*
X75802632Y-150156584D01*
X75802632Y-150156584D02*
X75802632Y-150085156D01*
X75802632Y-150085156D02*
X75874061Y-149942299D01*
X75874061Y-149942299D02*
X76016918Y-149870870D01*
X76016918Y-149870870D02*
X76231204Y-149870870D01*
X76231204Y-149870870D02*
X76374061Y-149799442D01*
X76374061Y-149799442D02*
X76445489Y-149656584D01*
X76445489Y-149656584D02*
X76445489Y-149585156D01*
X76445489Y-149585156D02*
X76374061Y-149442299D01*
X76374061Y-149442299D02*
X76231204Y-149370870D01*
X76231204Y-149370870D02*
X76016918Y-149370870D01*
X76016918Y-149370870D02*
X75874061Y-149442299D01*
X75159775Y-149799442D02*
X74016918Y-149799442D01*
X73302632Y-150370870D02*
X73302632Y-148870870D01*
X73302632Y-149442299D02*
X73159775Y-149370870D01*
X73159775Y-149370870D02*
X72874060Y-149370870D01*
X72874060Y-149370870D02*
X72731203Y-149442299D01*
X72731203Y-149442299D02*
X72659775Y-149513727D01*
X72659775Y-149513727D02*
X72588346Y-149656584D01*
X72588346Y-149656584D02*
X72588346Y-150085156D01*
X72588346Y-150085156D02*
X72659775Y-150228013D01*
X72659775Y-150228013D02*
X72731203Y-150299442D01*
X72731203Y-150299442D02*
X72874060Y-150370870D01*
X72874060Y-150370870D02*
X73159775Y-150370870D01*
X73159775Y-150370870D02*
X73302632Y-150299442D01*
X71731203Y-150370870D02*
X71874060Y-150299442D01*
X71874060Y-150299442D02*
X71945489Y-150228013D01*
X71945489Y-150228013D02*
X72016917Y-150085156D01*
X72016917Y-150085156D02*
X72016917Y-149656584D01*
X72016917Y-149656584D02*
X71945489Y-149513727D01*
X71945489Y-149513727D02*
X71874060Y-149442299D01*
X71874060Y-149442299D02*
X71731203Y-149370870D01*
X71731203Y-149370870D02*
X71516917Y-149370870D01*
X71516917Y-149370870D02*
X71374060Y-149442299D01*
X71374060Y-149442299D02*
X71302632Y-149513727D01*
X71302632Y-149513727D02*
X71231203Y-149656584D01*
X71231203Y-149656584D02*
X71231203Y-150085156D01*
X71231203Y-150085156D02*
X71302632Y-150228013D01*
X71302632Y-150228013D02*
X71374060Y-150299442D01*
X71374060Y-150299442D02*
X71516917Y-150370870D01*
X71516917Y-150370870D02*
X71731203Y-150370870D01*
X69945489Y-150370870D02*
X69945489Y-149585156D01*
X69945489Y-149585156D02*
X70016917Y-149442299D01*
X70016917Y-149442299D02*
X70159774Y-149370870D01*
X70159774Y-149370870D02*
X70445489Y-149370870D01*
X70445489Y-149370870D02*
X70588346Y-149442299D01*
X69945489Y-150299442D02*
X70088346Y-150370870D01*
X70088346Y-150370870D02*
X70445489Y-150370870D01*
X70445489Y-150370870D02*
X70588346Y-150299442D01*
X70588346Y-150299442D02*
X70659774Y-150156584D01*
X70659774Y-150156584D02*
X70659774Y-150013727D01*
X70659774Y-150013727D02*
X70588346Y-149870870D01*
X70588346Y-149870870D02*
X70445489Y-149799442D01*
X70445489Y-149799442D02*
X70088346Y-149799442D01*
X70088346Y-149799442D02*
X69945489Y-149728013D01*
X69231203Y-150370870D02*
X69231203Y-149370870D01*
X69231203Y-149656584D02*
X69159774Y-149513727D01*
X69159774Y-149513727D02*
X69088346Y-149442299D01*
X69088346Y-149442299D02*
X68945488Y-149370870D01*
X68945488Y-149370870D02*
X68802631Y-149370870D01*
X67659775Y-150370870D02*
X67659775Y-148870870D01*
X67659775Y-150299442D02*
X67802632Y-150370870D01*
X67802632Y-150370870D02*
X68088346Y-150370870D01*
X68088346Y-150370870D02*
X68231203Y-150299442D01*
X68231203Y-150299442D02*
X68302632Y-150228013D01*
X68302632Y-150228013D02*
X68374060Y-150085156D01*
X68374060Y-150085156D02*
X68374060Y-149656584D01*
X68374060Y-149656584D02*
X68302632Y-149513727D01*
X68302632Y-149513727D02*
X68231203Y-149442299D01*
X68231203Y-149442299D02*
X68088346Y-149370870D01*
X68088346Y-149370870D02*
X67802632Y-149370870D01*
X67802632Y-149370870D02*
X67659775Y-149442299D01*
X93588346Y-152785786D02*
X94088346Y-152071500D01*
X94445489Y-152785786D02*
X94445489Y-151285786D01*
X94445489Y-151285786D02*
X93874060Y-151285786D01*
X93874060Y-151285786D02*
X93731203Y-151357215D01*
X93731203Y-151357215D02*
X93659774Y-151428643D01*
X93659774Y-151428643D02*
X93588346Y-151571500D01*
X93588346Y-151571500D02*
X93588346Y-151785786D01*
X93588346Y-151785786D02*
X93659774Y-151928643D01*
X93659774Y-151928643D02*
X93731203Y-152000072D01*
X93731203Y-152000072D02*
X93874060Y-152071500D01*
X93874060Y-152071500D02*
X94445489Y-152071500D01*
X92374060Y-152714358D02*
X92516917Y-152785786D01*
X92516917Y-152785786D02*
X92802632Y-152785786D01*
X92802632Y-152785786D02*
X92945489Y-152714358D01*
X92945489Y-152714358D02*
X93016917Y-152571500D01*
X93016917Y-152571500D02*
X93016917Y-152000072D01*
X93016917Y-152000072D02*
X92945489Y-151857215D01*
X92945489Y-151857215D02*
X92802632Y-151785786D01*
X92802632Y-151785786D02*
X92516917Y-151785786D01*
X92516917Y-151785786D02*
X92374060Y-151857215D01*
X92374060Y-151857215D02*
X92302632Y-152000072D01*
X92302632Y-152000072D02*
X92302632Y-152142929D01*
X92302632Y-152142929D02*
X93016917Y-152285786D01*
X91802632Y-151785786D02*
X91445489Y-152785786D01*
X91445489Y-152785786D02*
X91088346Y-151785786D01*
X90516918Y-152642929D02*
X90445489Y-152714358D01*
X90445489Y-152714358D02*
X90516918Y-152785786D01*
X90516918Y-152785786D02*
X90588346Y-152714358D01*
X90588346Y-152714358D02*
X90516918Y-152642929D01*
X90516918Y-152642929D02*
X90516918Y-152785786D01*
X90516918Y-151857215D02*
X90445489Y-151928643D01*
X90445489Y-151928643D02*
X90516918Y-152000072D01*
X90516918Y-152000072D02*
X90588346Y-151928643D01*
X90588346Y-151928643D02*
X90516918Y-151857215D01*
X90516918Y-151857215D02*
X90516918Y-152000072D01*
X88731203Y-152357215D02*
X88016918Y-152357215D01*
X88874060Y-152785786D02*
X88374060Y-151285786D01*
X88374060Y-151285786D02*
X87874060Y-152785786D01*
M02*
