M48
; DRILL file {KiCad 8.0.1-8.0.1-1~ubuntu22.04.1} date 2024-05-04T13:13:52+0200
; FORMAT={-:-/ absolute / inch / decimal}
; #@! TF.CreationDate,2024-05-04T13:13:52+02:00
; #@! TF.GenerationSoftware,Kicad,Pcbnew,8.0.1-8.0.1-1~ubuntu22.04.1
; #@! TF.FileFunction,Plated,1,2,PTH
FMAT,2
INCH
; #@! TA.AperFunction,Plated,PTH,ComponentDrill
T1C0.0315
; #@! TA.AperFunction,Plated,PTH,ComponentDrill
T2C0.0394
; #@! TA.AperFunction,Plated,PTH,ComponentDrill
T3C0.0512
; #@! TA.AperFunction,Plated,PTH,ComponentDrill
T4C0.0551
%
G90
G05
T1
X2.2368Y-5.15
X2.3368Y-5.15
X2.6Y-4.95
X2.6Y-5.15
X2.7Y-4.95
X2.7Y-5.15
X2.925Y-4.5016
X2.925Y-4.6984
X3.3031Y-5.25
X3.445Y-4.71
X3.445Y-4.81
X3.5Y-5.25
X3.5016Y-5.025
X3.625Y-4.19
X3.6984Y-5.025
X3.725Y-4.19
T2
X1.95Y-5.0002
X1.95Y-5.1002
X2.15Y-5.4
X2.15Y-5.65
X2.15Y-6.25
X2.15Y-6.5
X2.25Y-5.4
X2.25Y-5.65
X2.25Y-6.25
X2.25Y-6.5
X2.3228Y-4.5972
X2.3228Y-4.794
X2.35Y-5.4
X2.35Y-5.65
X2.35Y-6.25
X2.35Y-6.5
X2.45Y-5.4
X2.45Y-5.65
X2.45Y-6.25
X2.45Y-6.5
X2.55Y-5.4
X2.55Y-5.65
X2.55Y-6.25
X2.55Y-6.5
X2.65Y-5.4
X2.65Y-5.65
X2.65Y-6.25
X2.65Y-6.5
X2.75Y-5.4
X2.75Y-5.65
X2.75Y-6.25
X2.75Y-6.5
X2.85Y-5.4
X2.85Y-5.65
X2.85Y-6.25
X2.85Y-6.5
X2.95Y-5.4
X2.95Y-5.65
X2.95Y-6.25
X2.95Y-6.5
X2.9964Y-5.05
X3.05Y-5.4
X3.05Y-5.65
X3.05Y-6.25
X3.05Y-6.5
X3.15Y-5.4
X3.15Y-5.65
X3.15Y-6.25
X3.15Y-6.5
X3.1932Y-5.05
X3.25Y-5.4
X3.25Y-5.65
X3.25Y-6.25
X3.25Y-6.5
X3.35Y-5.4
X3.35Y-5.65
X3.35Y-6.25
X3.35Y-6.5
X3.45Y-5.4
X3.45Y-5.65
X3.45Y-6.25
X3.45Y-6.5
X3.55Y-5.4
X3.55Y-5.65
X3.55Y-6.25
X3.55Y-6.5
X3.5998Y-4.0
X3.6998Y-4.0
T3
X1.95Y-3.9965
X1.95Y-4.1776
X1.95Y-4.6224
X1.95Y-4.8035
X3.185Y-4.5016
X3.185Y-4.6984
T4
X2.7Y-4.0984
X2.9Y-4.0984
X3.1Y-4.0984
X3.3Y-4.0984
M30
