G04 #@! TF.GenerationSoftware,KiCad,Pcbnew,8.0.1-8.0.1-1~ubuntu22.04.1*
G04 #@! TF.CreationDate,2024-05-04T13:13:50+02:00*
G04 #@! TF.ProjectId,MCU_Board,4d43555f-426f-4617-9264-2e6b69636164,rev?*
G04 #@! TF.SameCoordinates,Original*
G04 #@! TF.FileFunction,Legend,Top*
G04 #@! TF.FilePolarity,Positive*
%FSLAX46Y46*%
G04 Gerber Fmt 4.6, Leading zero omitted, Abs format (unit mm)*
G04 Created by KiCad (PCBNEW 8.0.1-8.0.1-1~ubuntu22.04.1) date 2024-05-04 13:13:50*
%MOMM*%
%LPD*%
G01*
G04 APERTURE LIST*
%ADD10C,0.150000*%
%ADD11C,0.120000*%
G04 APERTURE END LIST*
D10*
X90532295Y-141442839D02*
X89732295Y-141442839D01*
X89732295Y-141442839D02*
X89732295Y-141138077D01*
X89732295Y-141138077D02*
X89770390Y-141061887D01*
X89770390Y-141061887D02*
X89808485Y-141023792D01*
X89808485Y-141023792D02*
X89884676Y-140985696D01*
X89884676Y-140985696D02*
X89998961Y-140985696D01*
X89998961Y-140985696D02*
X90075152Y-141023792D01*
X90075152Y-141023792D02*
X90113247Y-141061887D01*
X90113247Y-141061887D02*
X90151342Y-141138077D01*
X90151342Y-141138077D02*
X90151342Y-141442839D01*
X90113247Y-140376173D02*
X90151342Y-140261887D01*
X90151342Y-140261887D02*
X90189438Y-140223792D01*
X90189438Y-140223792D02*
X90265628Y-140185696D01*
X90265628Y-140185696D02*
X90379914Y-140185696D01*
X90379914Y-140185696D02*
X90456104Y-140223792D01*
X90456104Y-140223792D02*
X90494200Y-140261887D01*
X90494200Y-140261887D02*
X90532295Y-140338077D01*
X90532295Y-140338077D02*
X90532295Y-140642839D01*
X90532295Y-140642839D02*
X89732295Y-140642839D01*
X89732295Y-140642839D02*
X89732295Y-140376173D01*
X89732295Y-140376173D02*
X89770390Y-140299982D01*
X89770390Y-140299982D02*
X89808485Y-140261887D01*
X89808485Y-140261887D02*
X89884676Y-140223792D01*
X89884676Y-140223792D02*
X89960866Y-140223792D01*
X89960866Y-140223792D02*
X90037057Y-140261887D01*
X90037057Y-140261887D02*
X90075152Y-140299982D01*
X90075152Y-140299982D02*
X90113247Y-140376173D01*
X90113247Y-140376173D02*
X90113247Y-140642839D01*
X89732295Y-139919030D02*
X89732295Y-139423792D01*
X89732295Y-139423792D02*
X90037057Y-139690458D01*
X90037057Y-139690458D02*
X90037057Y-139576173D01*
X90037057Y-139576173D02*
X90075152Y-139499982D01*
X90075152Y-139499982D02*
X90113247Y-139461887D01*
X90113247Y-139461887D02*
X90189438Y-139423792D01*
X90189438Y-139423792D02*
X90379914Y-139423792D01*
X90379914Y-139423792D02*
X90456104Y-139461887D01*
X90456104Y-139461887D02*
X90494200Y-139499982D01*
X90494200Y-139499982D02*
X90532295Y-139576173D01*
X90532295Y-139576173D02*
X90532295Y-139804744D01*
X90532295Y-139804744D02*
X90494200Y-139880935D01*
X90494200Y-139880935D02*
X90456104Y-139919030D01*
X87192295Y-141519030D02*
X87192295Y-141023792D01*
X87192295Y-141023792D02*
X87497057Y-141290458D01*
X87497057Y-141290458D02*
X87497057Y-141176173D01*
X87497057Y-141176173D02*
X87535152Y-141099982D01*
X87535152Y-141099982D02*
X87573247Y-141061887D01*
X87573247Y-141061887D02*
X87649438Y-141023792D01*
X87649438Y-141023792D02*
X87839914Y-141023792D01*
X87839914Y-141023792D02*
X87916104Y-141061887D01*
X87916104Y-141061887D02*
X87954200Y-141099982D01*
X87954200Y-141099982D02*
X87992295Y-141176173D01*
X87992295Y-141176173D02*
X87992295Y-141404744D01*
X87992295Y-141404744D02*
X87954200Y-141480935D01*
X87954200Y-141480935D02*
X87916104Y-141519030D01*
X87192295Y-140795220D02*
X87992295Y-140528553D01*
X87992295Y-140528553D02*
X87192295Y-140261887D01*
X87192295Y-140071411D02*
X87192295Y-139576173D01*
X87192295Y-139576173D02*
X87497057Y-139842839D01*
X87497057Y-139842839D02*
X87497057Y-139728554D01*
X87497057Y-139728554D02*
X87535152Y-139652363D01*
X87535152Y-139652363D02*
X87573247Y-139614268D01*
X87573247Y-139614268D02*
X87649438Y-139576173D01*
X87649438Y-139576173D02*
X87839914Y-139576173D01*
X87839914Y-139576173D02*
X87916104Y-139614268D01*
X87916104Y-139614268D02*
X87954200Y-139652363D01*
X87954200Y-139652363D02*
X87992295Y-139728554D01*
X87992295Y-139728554D02*
X87992295Y-139957125D01*
X87992295Y-139957125D02*
X87954200Y-140033316D01*
X87954200Y-140033316D02*
X87916104Y-140071411D01*
X85223723Y-141480935D02*
X85223723Y-141099982D01*
X85452295Y-141557125D02*
X84652295Y-141290458D01*
X84652295Y-141290458D02*
X85452295Y-141023792D01*
X85452295Y-140299982D02*
X85071342Y-140566649D01*
X85452295Y-140757125D02*
X84652295Y-140757125D01*
X84652295Y-140757125D02*
X84652295Y-140452363D01*
X84652295Y-140452363D02*
X84690390Y-140376173D01*
X84690390Y-140376173D02*
X84728485Y-140338078D01*
X84728485Y-140338078D02*
X84804676Y-140299982D01*
X84804676Y-140299982D02*
X84918961Y-140299982D01*
X84918961Y-140299982D02*
X84995152Y-140338078D01*
X84995152Y-140338078D02*
X85033247Y-140376173D01*
X85033247Y-140376173D02*
X85071342Y-140452363D01*
X85071342Y-140452363D02*
X85071342Y-140757125D01*
X85033247Y-139957125D02*
X85033247Y-139690459D01*
X85452295Y-139576173D02*
X85452295Y-139957125D01*
X85452295Y-139957125D02*
X84652295Y-139957125D01*
X84652295Y-139957125D02*
X84652295Y-139576173D01*
X85033247Y-138966649D02*
X85033247Y-139233315D01*
X85452295Y-139233315D02*
X84652295Y-139233315D01*
X84652295Y-139233315D02*
X84652295Y-138852363D01*
X82912295Y-141442839D02*
X82112295Y-141442839D01*
X82112295Y-141442839D02*
X82112295Y-141138077D01*
X82112295Y-141138077D02*
X82150390Y-141061887D01*
X82150390Y-141061887D02*
X82188485Y-141023792D01*
X82188485Y-141023792D02*
X82264676Y-140985696D01*
X82264676Y-140985696D02*
X82378961Y-140985696D01*
X82378961Y-140985696D02*
X82455152Y-141023792D01*
X82455152Y-141023792D02*
X82493247Y-141061887D01*
X82493247Y-141061887D02*
X82531342Y-141138077D01*
X82531342Y-141138077D02*
X82531342Y-141442839D01*
X82683723Y-140680935D02*
X82683723Y-140299982D01*
X82912295Y-140757125D02*
X82112295Y-140490458D01*
X82112295Y-140490458D02*
X82912295Y-140223792D01*
X82112295Y-139804744D02*
X82112295Y-139728554D01*
X82112295Y-139728554D02*
X82150390Y-139652363D01*
X82150390Y-139652363D02*
X82188485Y-139614268D01*
X82188485Y-139614268D02*
X82264676Y-139576173D01*
X82264676Y-139576173D02*
X82417057Y-139538078D01*
X82417057Y-139538078D02*
X82607533Y-139538078D01*
X82607533Y-139538078D02*
X82759914Y-139576173D01*
X82759914Y-139576173D02*
X82836104Y-139614268D01*
X82836104Y-139614268D02*
X82874200Y-139652363D01*
X82874200Y-139652363D02*
X82912295Y-139728554D01*
X82912295Y-139728554D02*
X82912295Y-139804744D01*
X82912295Y-139804744D02*
X82874200Y-139880935D01*
X82874200Y-139880935D02*
X82836104Y-139919030D01*
X82836104Y-139919030D02*
X82759914Y-139957125D01*
X82759914Y-139957125D02*
X82607533Y-139995221D01*
X82607533Y-139995221D02*
X82417057Y-139995221D01*
X82417057Y-139995221D02*
X82264676Y-139957125D01*
X82264676Y-139957125D02*
X82188485Y-139919030D01*
X82188485Y-139919030D02*
X82150390Y-139880935D01*
X82150390Y-139880935D02*
X82112295Y-139804744D01*
X80372295Y-141442839D02*
X79572295Y-141442839D01*
X79572295Y-141442839D02*
X79572295Y-141138077D01*
X79572295Y-141138077D02*
X79610390Y-141061887D01*
X79610390Y-141061887D02*
X79648485Y-141023792D01*
X79648485Y-141023792D02*
X79724676Y-140985696D01*
X79724676Y-140985696D02*
X79838961Y-140985696D01*
X79838961Y-140985696D02*
X79915152Y-141023792D01*
X79915152Y-141023792D02*
X79953247Y-141061887D01*
X79953247Y-141061887D02*
X79991342Y-141138077D01*
X79991342Y-141138077D02*
X79991342Y-141442839D01*
X80143723Y-140680935D02*
X80143723Y-140299982D01*
X80372295Y-140757125D02*
X79572295Y-140490458D01*
X79572295Y-140490458D02*
X80372295Y-140223792D01*
X80372295Y-139538078D02*
X80372295Y-139995221D01*
X80372295Y-139766649D02*
X79572295Y-139766649D01*
X79572295Y-139766649D02*
X79686580Y-139842840D01*
X79686580Y-139842840D02*
X79762771Y-139919030D01*
X79762771Y-139919030D02*
X79800866Y-139995221D01*
X77832295Y-141442839D02*
X77032295Y-141442839D01*
X77032295Y-141442839D02*
X77032295Y-141138077D01*
X77032295Y-141138077D02*
X77070390Y-141061887D01*
X77070390Y-141061887D02*
X77108485Y-141023792D01*
X77108485Y-141023792D02*
X77184676Y-140985696D01*
X77184676Y-140985696D02*
X77298961Y-140985696D01*
X77298961Y-140985696D02*
X77375152Y-141023792D01*
X77375152Y-141023792D02*
X77413247Y-141061887D01*
X77413247Y-141061887D02*
X77451342Y-141138077D01*
X77451342Y-141138077D02*
X77451342Y-141442839D01*
X77603723Y-140680935D02*
X77603723Y-140299982D01*
X77832295Y-140757125D02*
X77032295Y-140490458D01*
X77032295Y-140490458D02*
X77832295Y-140223792D01*
X77032295Y-140033316D02*
X77032295Y-139538078D01*
X77032295Y-139538078D02*
X77337057Y-139804744D01*
X77337057Y-139804744D02*
X77337057Y-139690459D01*
X77337057Y-139690459D02*
X77375152Y-139614268D01*
X77375152Y-139614268D02*
X77413247Y-139576173D01*
X77413247Y-139576173D02*
X77489438Y-139538078D01*
X77489438Y-139538078D02*
X77679914Y-139538078D01*
X77679914Y-139538078D02*
X77756104Y-139576173D01*
X77756104Y-139576173D02*
X77794200Y-139614268D01*
X77794200Y-139614268D02*
X77832295Y-139690459D01*
X77832295Y-139690459D02*
X77832295Y-139919030D01*
X77832295Y-139919030D02*
X77794200Y-139995221D01*
X77794200Y-139995221D02*
X77756104Y-140033316D01*
X75292295Y-141442839D02*
X74492295Y-141442839D01*
X74492295Y-141442839D02*
X74492295Y-141138077D01*
X74492295Y-141138077D02*
X74530390Y-141061887D01*
X74530390Y-141061887D02*
X74568485Y-141023792D01*
X74568485Y-141023792D02*
X74644676Y-140985696D01*
X74644676Y-140985696D02*
X74758961Y-140985696D01*
X74758961Y-140985696D02*
X74835152Y-141023792D01*
X74835152Y-141023792D02*
X74873247Y-141061887D01*
X74873247Y-141061887D02*
X74911342Y-141138077D01*
X74911342Y-141138077D02*
X74911342Y-141442839D01*
X75063723Y-140680935D02*
X75063723Y-140299982D01*
X75292295Y-140757125D02*
X74492295Y-140490458D01*
X74492295Y-140490458D02*
X75292295Y-140223792D01*
X74758961Y-139614268D02*
X75292295Y-139614268D01*
X74454200Y-139804744D02*
X75025628Y-139995221D01*
X75025628Y-139995221D02*
X75025628Y-139499982D01*
X72752295Y-141442839D02*
X71952295Y-141442839D01*
X71952295Y-141442839D02*
X71952295Y-141138077D01*
X71952295Y-141138077D02*
X71990390Y-141061887D01*
X71990390Y-141061887D02*
X72028485Y-141023792D01*
X72028485Y-141023792D02*
X72104676Y-140985696D01*
X72104676Y-140985696D02*
X72218961Y-140985696D01*
X72218961Y-140985696D02*
X72295152Y-141023792D01*
X72295152Y-141023792D02*
X72333247Y-141061887D01*
X72333247Y-141061887D02*
X72371342Y-141138077D01*
X72371342Y-141138077D02*
X72371342Y-141442839D01*
X72523723Y-140680935D02*
X72523723Y-140299982D01*
X72752295Y-140757125D02*
X71952295Y-140490458D01*
X71952295Y-140490458D02*
X72752295Y-140223792D01*
X71952295Y-139576173D02*
X71952295Y-139957125D01*
X71952295Y-139957125D02*
X72333247Y-139995221D01*
X72333247Y-139995221D02*
X72295152Y-139957125D01*
X72295152Y-139957125D02*
X72257057Y-139880935D01*
X72257057Y-139880935D02*
X72257057Y-139690459D01*
X72257057Y-139690459D02*
X72295152Y-139614268D01*
X72295152Y-139614268D02*
X72333247Y-139576173D01*
X72333247Y-139576173D02*
X72409438Y-139538078D01*
X72409438Y-139538078D02*
X72599914Y-139538078D01*
X72599914Y-139538078D02*
X72676104Y-139576173D01*
X72676104Y-139576173D02*
X72714200Y-139614268D01*
X72714200Y-139614268D02*
X72752295Y-139690459D01*
X72752295Y-139690459D02*
X72752295Y-139880935D01*
X72752295Y-139880935D02*
X72714200Y-139957125D01*
X72714200Y-139957125D02*
X72676104Y-139995221D01*
X70212295Y-141442839D02*
X69412295Y-141442839D01*
X69412295Y-141442839D02*
X69412295Y-141138077D01*
X69412295Y-141138077D02*
X69450390Y-141061887D01*
X69450390Y-141061887D02*
X69488485Y-141023792D01*
X69488485Y-141023792D02*
X69564676Y-140985696D01*
X69564676Y-140985696D02*
X69678961Y-140985696D01*
X69678961Y-140985696D02*
X69755152Y-141023792D01*
X69755152Y-141023792D02*
X69793247Y-141061887D01*
X69793247Y-141061887D02*
X69831342Y-141138077D01*
X69831342Y-141138077D02*
X69831342Y-141442839D01*
X69983723Y-140680935D02*
X69983723Y-140299982D01*
X70212295Y-140757125D02*
X69412295Y-140490458D01*
X69412295Y-140490458D02*
X70212295Y-140223792D01*
X69412295Y-139614268D02*
X69412295Y-139766649D01*
X69412295Y-139766649D02*
X69450390Y-139842840D01*
X69450390Y-139842840D02*
X69488485Y-139880935D01*
X69488485Y-139880935D02*
X69602771Y-139957125D01*
X69602771Y-139957125D02*
X69755152Y-139995221D01*
X69755152Y-139995221D02*
X70059914Y-139995221D01*
X70059914Y-139995221D02*
X70136104Y-139957125D01*
X70136104Y-139957125D02*
X70174200Y-139919030D01*
X70174200Y-139919030D02*
X70212295Y-139842840D01*
X70212295Y-139842840D02*
X70212295Y-139690459D01*
X70212295Y-139690459D02*
X70174200Y-139614268D01*
X70174200Y-139614268D02*
X70136104Y-139576173D01*
X70136104Y-139576173D02*
X70059914Y-139538078D01*
X70059914Y-139538078D02*
X69869438Y-139538078D01*
X69869438Y-139538078D02*
X69793247Y-139576173D01*
X69793247Y-139576173D02*
X69755152Y-139614268D01*
X69755152Y-139614268D02*
X69717057Y-139690459D01*
X69717057Y-139690459D02*
X69717057Y-139842840D01*
X69717057Y-139842840D02*
X69755152Y-139919030D01*
X69755152Y-139919030D02*
X69793247Y-139957125D01*
X69793247Y-139957125D02*
X69869438Y-139995221D01*
X67672295Y-141442839D02*
X66872295Y-141442839D01*
X66872295Y-141442839D02*
X66872295Y-141138077D01*
X66872295Y-141138077D02*
X66910390Y-141061887D01*
X66910390Y-141061887D02*
X66948485Y-141023792D01*
X66948485Y-141023792D02*
X67024676Y-140985696D01*
X67024676Y-140985696D02*
X67138961Y-140985696D01*
X67138961Y-140985696D02*
X67215152Y-141023792D01*
X67215152Y-141023792D02*
X67253247Y-141061887D01*
X67253247Y-141061887D02*
X67291342Y-141138077D01*
X67291342Y-141138077D02*
X67291342Y-141442839D01*
X67443723Y-140680935D02*
X67443723Y-140299982D01*
X67672295Y-140757125D02*
X66872295Y-140490458D01*
X66872295Y-140490458D02*
X67672295Y-140223792D01*
X66872295Y-140033316D02*
X66872295Y-139499982D01*
X66872295Y-139499982D02*
X67672295Y-139842840D01*
X65132295Y-141442839D02*
X64332295Y-141442839D01*
X64332295Y-141442839D02*
X64332295Y-141138077D01*
X64332295Y-141138077D02*
X64370390Y-141061887D01*
X64370390Y-141061887D02*
X64408485Y-141023792D01*
X64408485Y-141023792D02*
X64484676Y-140985696D01*
X64484676Y-140985696D02*
X64598961Y-140985696D01*
X64598961Y-140985696D02*
X64675152Y-141023792D01*
X64675152Y-141023792D02*
X64713247Y-141061887D01*
X64713247Y-141061887D02*
X64751342Y-141138077D01*
X64751342Y-141138077D02*
X64751342Y-141442839D01*
X64903723Y-140680935D02*
X64903723Y-140299982D01*
X65132295Y-140757125D02*
X64332295Y-140490458D01*
X64332295Y-140490458D02*
X65132295Y-140223792D01*
X64408485Y-139995221D02*
X64370390Y-139957125D01*
X64370390Y-139957125D02*
X64332295Y-139880935D01*
X64332295Y-139880935D02*
X64332295Y-139690459D01*
X64332295Y-139690459D02*
X64370390Y-139614268D01*
X64370390Y-139614268D02*
X64408485Y-139576173D01*
X64408485Y-139576173D02*
X64484676Y-139538078D01*
X64484676Y-139538078D02*
X64560866Y-139538078D01*
X64560866Y-139538078D02*
X64675152Y-139576173D01*
X64675152Y-139576173D02*
X65132295Y-140033316D01*
X65132295Y-140033316D02*
X65132295Y-139538078D01*
X61792295Y-141061887D02*
X61792295Y-141442839D01*
X61792295Y-141442839D02*
X62173247Y-141480935D01*
X62173247Y-141480935D02*
X62135152Y-141442839D01*
X62135152Y-141442839D02*
X62097057Y-141366649D01*
X62097057Y-141366649D02*
X62097057Y-141176173D01*
X62097057Y-141176173D02*
X62135152Y-141099982D01*
X62135152Y-141099982D02*
X62173247Y-141061887D01*
X62173247Y-141061887D02*
X62249438Y-141023792D01*
X62249438Y-141023792D02*
X62439914Y-141023792D01*
X62439914Y-141023792D02*
X62516104Y-141061887D01*
X62516104Y-141061887D02*
X62554200Y-141099982D01*
X62554200Y-141099982D02*
X62592295Y-141176173D01*
X62592295Y-141176173D02*
X62592295Y-141366649D01*
X62592295Y-141366649D02*
X62554200Y-141442839D01*
X62554200Y-141442839D02*
X62516104Y-141480935D01*
X61792295Y-140795220D02*
X62592295Y-140528553D01*
X62592295Y-140528553D02*
X61792295Y-140261887D01*
X60052295Y-141442839D02*
X59252295Y-141442839D01*
X59252295Y-141442839D02*
X60052295Y-140985696D01*
X60052295Y-140985696D02*
X59252295Y-140985696D01*
X60052295Y-140147601D02*
X59671342Y-140414268D01*
X60052295Y-140604744D02*
X59252295Y-140604744D01*
X59252295Y-140604744D02*
X59252295Y-140299982D01*
X59252295Y-140299982D02*
X59290390Y-140223792D01*
X59290390Y-140223792D02*
X59328485Y-140185697D01*
X59328485Y-140185697D02*
X59404676Y-140147601D01*
X59404676Y-140147601D02*
X59518961Y-140147601D01*
X59518961Y-140147601D02*
X59595152Y-140185697D01*
X59595152Y-140185697D02*
X59633247Y-140223792D01*
X59633247Y-140223792D02*
X59671342Y-140299982D01*
X59671342Y-140299982D02*
X59671342Y-140604744D01*
X60014200Y-139842840D02*
X60052295Y-139728554D01*
X60052295Y-139728554D02*
X60052295Y-139538078D01*
X60052295Y-139538078D02*
X60014200Y-139461887D01*
X60014200Y-139461887D02*
X59976104Y-139423792D01*
X59976104Y-139423792D02*
X59899914Y-139385697D01*
X59899914Y-139385697D02*
X59823723Y-139385697D01*
X59823723Y-139385697D02*
X59747533Y-139423792D01*
X59747533Y-139423792D02*
X59709438Y-139461887D01*
X59709438Y-139461887D02*
X59671342Y-139538078D01*
X59671342Y-139538078D02*
X59633247Y-139690459D01*
X59633247Y-139690459D02*
X59595152Y-139766649D01*
X59595152Y-139766649D02*
X59557057Y-139804744D01*
X59557057Y-139804744D02*
X59480866Y-139842840D01*
X59480866Y-139842840D02*
X59404676Y-139842840D01*
X59404676Y-139842840D02*
X59328485Y-139804744D01*
X59328485Y-139804744D02*
X59290390Y-139766649D01*
X59290390Y-139766649D02*
X59252295Y-139690459D01*
X59252295Y-139690459D02*
X59252295Y-139499982D01*
X59252295Y-139499982D02*
X59290390Y-139385697D01*
X59252295Y-139157125D02*
X59252295Y-138699982D01*
X60052295Y-138928554D02*
X59252295Y-138928554D01*
X56750390Y-141023792D02*
X56712295Y-141099982D01*
X56712295Y-141099982D02*
X56712295Y-141214268D01*
X56712295Y-141214268D02*
X56750390Y-141328554D01*
X56750390Y-141328554D02*
X56826580Y-141404744D01*
X56826580Y-141404744D02*
X56902771Y-141442839D01*
X56902771Y-141442839D02*
X57055152Y-141480935D01*
X57055152Y-141480935D02*
X57169438Y-141480935D01*
X57169438Y-141480935D02*
X57321819Y-141442839D01*
X57321819Y-141442839D02*
X57398009Y-141404744D01*
X57398009Y-141404744D02*
X57474200Y-141328554D01*
X57474200Y-141328554D02*
X57512295Y-141214268D01*
X57512295Y-141214268D02*
X57512295Y-141138077D01*
X57512295Y-141138077D02*
X57474200Y-141023792D01*
X57474200Y-141023792D02*
X57436104Y-140985696D01*
X57436104Y-140985696D02*
X57169438Y-140985696D01*
X57169438Y-140985696D02*
X57169438Y-141138077D01*
X57512295Y-140642839D02*
X56712295Y-140642839D01*
X56712295Y-140642839D02*
X57512295Y-140185696D01*
X57512295Y-140185696D02*
X56712295Y-140185696D01*
X57512295Y-139804744D02*
X56712295Y-139804744D01*
X56712295Y-139804744D02*
X56712295Y-139614268D01*
X56712295Y-139614268D02*
X56750390Y-139499982D01*
X56750390Y-139499982D02*
X56826580Y-139423792D01*
X56826580Y-139423792D02*
X56902771Y-139385697D01*
X56902771Y-139385697D02*
X57055152Y-139347601D01*
X57055152Y-139347601D02*
X57169438Y-139347601D01*
X57169438Y-139347601D02*
X57321819Y-139385697D01*
X57321819Y-139385697D02*
X57398009Y-139423792D01*
X57398009Y-139423792D02*
X57474200Y-139499982D01*
X57474200Y-139499982D02*
X57512295Y-139614268D01*
X57512295Y-139614268D02*
X57512295Y-139804744D01*
X54172295Y-141557125D02*
X54972295Y-141290458D01*
X54972295Y-141290458D02*
X54172295Y-141023792D01*
X54972295Y-140757125D02*
X54172295Y-140757125D01*
X54972295Y-140376173D02*
X54172295Y-140376173D01*
X54172295Y-140376173D02*
X54972295Y-139919030D01*
X54972295Y-139919030D02*
X54172295Y-139919030D01*
X90532295Y-162798112D02*
X89732295Y-162798112D01*
X89732295Y-162798112D02*
X89732295Y-162493350D01*
X89732295Y-162493350D02*
X89770390Y-162417160D01*
X89770390Y-162417160D02*
X89808485Y-162379065D01*
X89808485Y-162379065D02*
X89884676Y-162340969D01*
X89884676Y-162340969D02*
X89998961Y-162340969D01*
X89998961Y-162340969D02*
X90075152Y-162379065D01*
X90075152Y-162379065D02*
X90113247Y-162417160D01*
X90113247Y-162417160D02*
X90151342Y-162493350D01*
X90151342Y-162493350D02*
X90151342Y-162798112D01*
X90113247Y-161731446D02*
X90151342Y-161617160D01*
X90151342Y-161617160D02*
X90189438Y-161579065D01*
X90189438Y-161579065D02*
X90265628Y-161540969D01*
X90265628Y-161540969D02*
X90379914Y-161540969D01*
X90379914Y-161540969D02*
X90456104Y-161579065D01*
X90456104Y-161579065D02*
X90494200Y-161617160D01*
X90494200Y-161617160D02*
X90532295Y-161693350D01*
X90532295Y-161693350D02*
X90532295Y-161998112D01*
X90532295Y-161998112D02*
X89732295Y-161998112D01*
X89732295Y-161998112D02*
X89732295Y-161731446D01*
X89732295Y-161731446D02*
X89770390Y-161655255D01*
X89770390Y-161655255D02*
X89808485Y-161617160D01*
X89808485Y-161617160D02*
X89884676Y-161579065D01*
X89884676Y-161579065D02*
X89960866Y-161579065D01*
X89960866Y-161579065D02*
X90037057Y-161617160D01*
X90037057Y-161617160D02*
X90075152Y-161655255D01*
X90075152Y-161655255D02*
X90113247Y-161731446D01*
X90113247Y-161731446D02*
X90113247Y-161998112D01*
X89998961Y-160855255D02*
X90532295Y-160855255D01*
X89694200Y-161045731D02*
X90265628Y-161236208D01*
X90265628Y-161236208D02*
X90265628Y-160740969D01*
X87992295Y-162798112D02*
X87192295Y-162798112D01*
X87192295Y-162798112D02*
X87192295Y-162493350D01*
X87192295Y-162493350D02*
X87230390Y-162417160D01*
X87230390Y-162417160D02*
X87268485Y-162379065D01*
X87268485Y-162379065D02*
X87344676Y-162340969D01*
X87344676Y-162340969D02*
X87458961Y-162340969D01*
X87458961Y-162340969D02*
X87535152Y-162379065D01*
X87535152Y-162379065D02*
X87573247Y-162417160D01*
X87573247Y-162417160D02*
X87611342Y-162493350D01*
X87611342Y-162493350D02*
X87611342Y-162798112D01*
X87573247Y-161731446D02*
X87611342Y-161617160D01*
X87611342Y-161617160D02*
X87649438Y-161579065D01*
X87649438Y-161579065D02*
X87725628Y-161540969D01*
X87725628Y-161540969D02*
X87839914Y-161540969D01*
X87839914Y-161540969D02*
X87916104Y-161579065D01*
X87916104Y-161579065D02*
X87954200Y-161617160D01*
X87954200Y-161617160D02*
X87992295Y-161693350D01*
X87992295Y-161693350D02*
X87992295Y-161998112D01*
X87992295Y-161998112D02*
X87192295Y-161998112D01*
X87192295Y-161998112D02*
X87192295Y-161731446D01*
X87192295Y-161731446D02*
X87230390Y-161655255D01*
X87230390Y-161655255D02*
X87268485Y-161617160D01*
X87268485Y-161617160D02*
X87344676Y-161579065D01*
X87344676Y-161579065D02*
X87420866Y-161579065D01*
X87420866Y-161579065D02*
X87497057Y-161617160D01*
X87497057Y-161617160D02*
X87535152Y-161655255D01*
X87535152Y-161655255D02*
X87573247Y-161731446D01*
X87573247Y-161731446D02*
X87573247Y-161998112D01*
X87192295Y-160817160D02*
X87192295Y-161198112D01*
X87192295Y-161198112D02*
X87573247Y-161236208D01*
X87573247Y-161236208D02*
X87535152Y-161198112D01*
X87535152Y-161198112D02*
X87497057Y-161121922D01*
X87497057Y-161121922D02*
X87497057Y-160931446D01*
X87497057Y-160931446D02*
X87535152Y-160855255D01*
X87535152Y-160855255D02*
X87573247Y-160817160D01*
X87573247Y-160817160D02*
X87649438Y-160779065D01*
X87649438Y-160779065D02*
X87839914Y-160779065D01*
X87839914Y-160779065D02*
X87916104Y-160817160D01*
X87916104Y-160817160D02*
X87954200Y-160855255D01*
X87954200Y-160855255D02*
X87992295Y-160931446D01*
X87992295Y-160931446D02*
X87992295Y-161121922D01*
X87992295Y-161121922D02*
X87954200Y-161198112D01*
X87954200Y-161198112D02*
X87916104Y-161236208D01*
X85452295Y-163445731D02*
X84652295Y-163445731D01*
X84652295Y-163445731D02*
X84652295Y-163140969D01*
X84652295Y-163140969D02*
X84690390Y-163064779D01*
X84690390Y-163064779D02*
X84728485Y-163026684D01*
X84728485Y-163026684D02*
X84804676Y-162988588D01*
X84804676Y-162988588D02*
X84918961Y-162988588D01*
X84918961Y-162988588D02*
X84995152Y-163026684D01*
X84995152Y-163026684D02*
X85033247Y-163064779D01*
X85033247Y-163064779D02*
X85071342Y-163140969D01*
X85071342Y-163140969D02*
X85071342Y-163445731D01*
X85223723Y-162683827D02*
X85223723Y-162302874D01*
X85452295Y-162760017D02*
X84652295Y-162493350D01*
X84652295Y-162493350D02*
X85452295Y-162226684D01*
X85452295Y-161540970D02*
X85452295Y-161998113D01*
X85452295Y-161769541D02*
X84652295Y-161769541D01*
X84652295Y-161769541D02*
X84766580Y-161845732D01*
X84766580Y-161845732D02*
X84842771Y-161921922D01*
X84842771Y-161921922D02*
X84880866Y-161998113D01*
X85452295Y-160779065D02*
X85452295Y-161236208D01*
X85452295Y-161007636D02*
X84652295Y-161007636D01*
X84652295Y-161007636D02*
X84766580Y-161083827D01*
X84766580Y-161083827D02*
X84842771Y-161160017D01*
X84842771Y-161160017D02*
X84880866Y-161236208D01*
X82912295Y-162683826D02*
X82112295Y-162683826D01*
X82112295Y-162683826D02*
X82112295Y-162379064D01*
X82112295Y-162379064D02*
X82150390Y-162302874D01*
X82150390Y-162302874D02*
X82188485Y-162264779D01*
X82188485Y-162264779D02*
X82264676Y-162226683D01*
X82264676Y-162226683D02*
X82378961Y-162226683D01*
X82378961Y-162226683D02*
X82455152Y-162264779D01*
X82455152Y-162264779D02*
X82493247Y-162302874D01*
X82493247Y-162302874D02*
X82531342Y-162379064D01*
X82531342Y-162379064D02*
X82531342Y-162683826D01*
X82683723Y-161921922D02*
X82683723Y-161540969D01*
X82912295Y-161998112D02*
X82112295Y-161731445D01*
X82112295Y-161731445D02*
X82912295Y-161464779D01*
X82455152Y-161083827D02*
X82417057Y-161160017D01*
X82417057Y-161160017D02*
X82378961Y-161198112D01*
X82378961Y-161198112D02*
X82302771Y-161236208D01*
X82302771Y-161236208D02*
X82264676Y-161236208D01*
X82264676Y-161236208D02*
X82188485Y-161198112D01*
X82188485Y-161198112D02*
X82150390Y-161160017D01*
X82150390Y-161160017D02*
X82112295Y-161083827D01*
X82112295Y-161083827D02*
X82112295Y-160931446D01*
X82112295Y-160931446D02*
X82150390Y-160855255D01*
X82150390Y-160855255D02*
X82188485Y-160817160D01*
X82188485Y-160817160D02*
X82264676Y-160779065D01*
X82264676Y-160779065D02*
X82302771Y-160779065D01*
X82302771Y-160779065D02*
X82378961Y-160817160D01*
X82378961Y-160817160D02*
X82417057Y-160855255D01*
X82417057Y-160855255D02*
X82455152Y-160931446D01*
X82455152Y-160931446D02*
X82455152Y-161083827D01*
X82455152Y-161083827D02*
X82493247Y-161160017D01*
X82493247Y-161160017D02*
X82531342Y-161198112D01*
X82531342Y-161198112D02*
X82607533Y-161236208D01*
X82607533Y-161236208D02*
X82759914Y-161236208D01*
X82759914Y-161236208D02*
X82836104Y-161198112D01*
X82836104Y-161198112D02*
X82874200Y-161160017D01*
X82874200Y-161160017D02*
X82912295Y-161083827D01*
X82912295Y-161083827D02*
X82912295Y-160931446D01*
X82912295Y-160931446D02*
X82874200Y-160855255D01*
X82874200Y-160855255D02*
X82836104Y-160817160D01*
X82836104Y-160817160D02*
X82759914Y-160779065D01*
X82759914Y-160779065D02*
X82607533Y-160779065D01*
X82607533Y-160779065D02*
X82531342Y-160817160D01*
X82531342Y-160817160D02*
X82493247Y-160855255D01*
X82493247Y-160855255D02*
X82455152Y-160931446D01*
X80372295Y-163560017D02*
X79572295Y-163560017D01*
X79572295Y-163560017D02*
X79572295Y-163255255D01*
X79572295Y-163255255D02*
X79610390Y-163179065D01*
X79610390Y-163179065D02*
X79648485Y-163140970D01*
X79648485Y-163140970D02*
X79724676Y-163102874D01*
X79724676Y-163102874D02*
X79838961Y-163102874D01*
X79838961Y-163102874D02*
X79915152Y-163140970D01*
X79915152Y-163140970D02*
X79953247Y-163179065D01*
X79953247Y-163179065D02*
X79991342Y-163255255D01*
X79991342Y-163255255D02*
X79991342Y-163560017D01*
X80296104Y-162302874D02*
X80334200Y-162340970D01*
X80334200Y-162340970D02*
X80372295Y-162455255D01*
X80372295Y-162455255D02*
X80372295Y-162531446D01*
X80372295Y-162531446D02*
X80334200Y-162645732D01*
X80334200Y-162645732D02*
X80258009Y-162721922D01*
X80258009Y-162721922D02*
X80181819Y-162760017D01*
X80181819Y-162760017D02*
X80029438Y-162798113D01*
X80029438Y-162798113D02*
X79915152Y-162798113D01*
X79915152Y-162798113D02*
X79762771Y-162760017D01*
X79762771Y-162760017D02*
X79686580Y-162721922D01*
X79686580Y-162721922D02*
X79610390Y-162645732D01*
X79610390Y-162645732D02*
X79572295Y-162531446D01*
X79572295Y-162531446D02*
X79572295Y-162455255D01*
X79572295Y-162455255D02*
X79610390Y-162340970D01*
X79610390Y-162340970D02*
X79648485Y-162302874D01*
X80372295Y-161540970D02*
X80372295Y-161998113D01*
X80372295Y-161769541D02*
X79572295Y-161769541D01*
X79572295Y-161769541D02*
X79686580Y-161845732D01*
X79686580Y-161845732D02*
X79762771Y-161921922D01*
X79762771Y-161921922D02*
X79800866Y-161998113D01*
X79572295Y-160817160D02*
X79572295Y-161198112D01*
X79572295Y-161198112D02*
X79953247Y-161236208D01*
X79953247Y-161236208D02*
X79915152Y-161198112D01*
X79915152Y-161198112D02*
X79877057Y-161121922D01*
X79877057Y-161121922D02*
X79877057Y-160931446D01*
X79877057Y-160931446D02*
X79915152Y-160855255D01*
X79915152Y-160855255D02*
X79953247Y-160817160D01*
X79953247Y-160817160D02*
X80029438Y-160779065D01*
X80029438Y-160779065D02*
X80219914Y-160779065D01*
X80219914Y-160779065D02*
X80296104Y-160817160D01*
X80296104Y-160817160D02*
X80334200Y-160855255D01*
X80334200Y-160855255D02*
X80372295Y-160931446D01*
X80372295Y-160931446D02*
X80372295Y-161121922D01*
X80372295Y-161121922D02*
X80334200Y-161198112D01*
X80334200Y-161198112D02*
X80296104Y-161236208D01*
X77832295Y-163560017D02*
X77032295Y-163560017D01*
X77032295Y-163560017D02*
X77032295Y-163255255D01*
X77032295Y-163255255D02*
X77070390Y-163179065D01*
X77070390Y-163179065D02*
X77108485Y-163140970D01*
X77108485Y-163140970D02*
X77184676Y-163102874D01*
X77184676Y-163102874D02*
X77298961Y-163102874D01*
X77298961Y-163102874D02*
X77375152Y-163140970D01*
X77375152Y-163140970D02*
X77413247Y-163179065D01*
X77413247Y-163179065D02*
X77451342Y-163255255D01*
X77451342Y-163255255D02*
X77451342Y-163560017D01*
X77756104Y-162302874D02*
X77794200Y-162340970D01*
X77794200Y-162340970D02*
X77832295Y-162455255D01*
X77832295Y-162455255D02*
X77832295Y-162531446D01*
X77832295Y-162531446D02*
X77794200Y-162645732D01*
X77794200Y-162645732D02*
X77718009Y-162721922D01*
X77718009Y-162721922D02*
X77641819Y-162760017D01*
X77641819Y-162760017D02*
X77489438Y-162798113D01*
X77489438Y-162798113D02*
X77375152Y-162798113D01*
X77375152Y-162798113D02*
X77222771Y-162760017D01*
X77222771Y-162760017D02*
X77146580Y-162721922D01*
X77146580Y-162721922D02*
X77070390Y-162645732D01*
X77070390Y-162645732D02*
X77032295Y-162531446D01*
X77032295Y-162531446D02*
X77032295Y-162455255D01*
X77032295Y-162455255D02*
X77070390Y-162340970D01*
X77070390Y-162340970D02*
X77108485Y-162302874D01*
X77832295Y-161540970D02*
X77832295Y-161998113D01*
X77832295Y-161769541D02*
X77032295Y-161769541D01*
X77032295Y-161769541D02*
X77146580Y-161845732D01*
X77146580Y-161845732D02*
X77222771Y-161921922D01*
X77222771Y-161921922D02*
X77260866Y-161998113D01*
X77298961Y-160855255D02*
X77832295Y-160855255D01*
X76994200Y-161045731D02*
X77565628Y-161236208D01*
X77565628Y-161236208D02*
X77565628Y-160740969D01*
X75292295Y-162798112D02*
X74492295Y-162798112D01*
X74492295Y-162798112D02*
X74492295Y-162493350D01*
X74492295Y-162493350D02*
X74530390Y-162417160D01*
X74530390Y-162417160D02*
X74568485Y-162379065D01*
X74568485Y-162379065D02*
X74644676Y-162340969D01*
X74644676Y-162340969D02*
X74758961Y-162340969D01*
X74758961Y-162340969D02*
X74835152Y-162379065D01*
X74835152Y-162379065D02*
X74873247Y-162417160D01*
X74873247Y-162417160D02*
X74911342Y-162493350D01*
X74911342Y-162493350D02*
X74911342Y-162798112D01*
X74873247Y-161731446D02*
X74911342Y-161617160D01*
X74911342Y-161617160D02*
X74949438Y-161579065D01*
X74949438Y-161579065D02*
X75025628Y-161540969D01*
X75025628Y-161540969D02*
X75139914Y-161540969D01*
X75139914Y-161540969D02*
X75216104Y-161579065D01*
X75216104Y-161579065D02*
X75254200Y-161617160D01*
X75254200Y-161617160D02*
X75292295Y-161693350D01*
X75292295Y-161693350D02*
X75292295Y-161998112D01*
X75292295Y-161998112D02*
X74492295Y-161998112D01*
X74492295Y-161998112D02*
X74492295Y-161731446D01*
X74492295Y-161731446D02*
X74530390Y-161655255D01*
X74530390Y-161655255D02*
X74568485Y-161617160D01*
X74568485Y-161617160D02*
X74644676Y-161579065D01*
X74644676Y-161579065D02*
X74720866Y-161579065D01*
X74720866Y-161579065D02*
X74797057Y-161617160D01*
X74797057Y-161617160D02*
X74835152Y-161655255D01*
X74835152Y-161655255D02*
X74873247Y-161731446D01*
X74873247Y-161731446D02*
X74873247Y-161998112D01*
X75292295Y-160779065D02*
X75292295Y-161236208D01*
X75292295Y-161007636D02*
X74492295Y-161007636D01*
X74492295Y-161007636D02*
X74606580Y-161083827D01*
X74606580Y-161083827D02*
X74682771Y-161160017D01*
X74682771Y-161160017D02*
X74720866Y-161236208D01*
X72752295Y-162798112D02*
X71952295Y-162798112D01*
X71952295Y-162798112D02*
X71952295Y-162493350D01*
X71952295Y-162493350D02*
X71990390Y-162417160D01*
X71990390Y-162417160D02*
X72028485Y-162379065D01*
X72028485Y-162379065D02*
X72104676Y-162340969D01*
X72104676Y-162340969D02*
X72218961Y-162340969D01*
X72218961Y-162340969D02*
X72295152Y-162379065D01*
X72295152Y-162379065D02*
X72333247Y-162417160D01*
X72333247Y-162417160D02*
X72371342Y-162493350D01*
X72371342Y-162493350D02*
X72371342Y-162798112D01*
X72333247Y-161731446D02*
X72371342Y-161617160D01*
X72371342Y-161617160D02*
X72409438Y-161579065D01*
X72409438Y-161579065D02*
X72485628Y-161540969D01*
X72485628Y-161540969D02*
X72599914Y-161540969D01*
X72599914Y-161540969D02*
X72676104Y-161579065D01*
X72676104Y-161579065D02*
X72714200Y-161617160D01*
X72714200Y-161617160D02*
X72752295Y-161693350D01*
X72752295Y-161693350D02*
X72752295Y-161998112D01*
X72752295Y-161998112D02*
X71952295Y-161998112D01*
X71952295Y-161998112D02*
X71952295Y-161731446D01*
X71952295Y-161731446D02*
X71990390Y-161655255D01*
X71990390Y-161655255D02*
X72028485Y-161617160D01*
X72028485Y-161617160D02*
X72104676Y-161579065D01*
X72104676Y-161579065D02*
X72180866Y-161579065D01*
X72180866Y-161579065D02*
X72257057Y-161617160D01*
X72257057Y-161617160D02*
X72295152Y-161655255D01*
X72295152Y-161655255D02*
X72333247Y-161731446D01*
X72333247Y-161731446D02*
X72333247Y-161998112D01*
X71952295Y-160855255D02*
X71952295Y-161007636D01*
X71952295Y-161007636D02*
X71990390Y-161083827D01*
X71990390Y-161083827D02*
X72028485Y-161121922D01*
X72028485Y-161121922D02*
X72142771Y-161198112D01*
X72142771Y-161198112D02*
X72295152Y-161236208D01*
X72295152Y-161236208D02*
X72599914Y-161236208D01*
X72599914Y-161236208D02*
X72676104Y-161198112D01*
X72676104Y-161198112D02*
X72714200Y-161160017D01*
X72714200Y-161160017D02*
X72752295Y-161083827D01*
X72752295Y-161083827D02*
X72752295Y-160931446D01*
X72752295Y-160931446D02*
X72714200Y-160855255D01*
X72714200Y-160855255D02*
X72676104Y-160817160D01*
X72676104Y-160817160D02*
X72599914Y-160779065D01*
X72599914Y-160779065D02*
X72409438Y-160779065D01*
X72409438Y-160779065D02*
X72333247Y-160817160D01*
X72333247Y-160817160D02*
X72295152Y-160855255D01*
X72295152Y-160855255D02*
X72257057Y-160931446D01*
X72257057Y-160931446D02*
X72257057Y-161083827D01*
X72257057Y-161083827D02*
X72295152Y-161160017D01*
X72295152Y-161160017D02*
X72333247Y-161198112D01*
X72333247Y-161198112D02*
X72409438Y-161236208D01*
X70212295Y-162798112D02*
X69412295Y-162798112D01*
X69412295Y-162798112D02*
X69412295Y-162493350D01*
X69412295Y-162493350D02*
X69450390Y-162417160D01*
X69450390Y-162417160D02*
X69488485Y-162379065D01*
X69488485Y-162379065D02*
X69564676Y-162340969D01*
X69564676Y-162340969D02*
X69678961Y-162340969D01*
X69678961Y-162340969D02*
X69755152Y-162379065D01*
X69755152Y-162379065D02*
X69793247Y-162417160D01*
X69793247Y-162417160D02*
X69831342Y-162493350D01*
X69831342Y-162493350D02*
X69831342Y-162798112D01*
X69793247Y-161731446D02*
X69831342Y-161617160D01*
X69831342Y-161617160D02*
X69869438Y-161579065D01*
X69869438Y-161579065D02*
X69945628Y-161540969D01*
X69945628Y-161540969D02*
X70059914Y-161540969D01*
X70059914Y-161540969D02*
X70136104Y-161579065D01*
X70136104Y-161579065D02*
X70174200Y-161617160D01*
X70174200Y-161617160D02*
X70212295Y-161693350D01*
X70212295Y-161693350D02*
X70212295Y-161998112D01*
X70212295Y-161998112D02*
X69412295Y-161998112D01*
X69412295Y-161998112D02*
X69412295Y-161731446D01*
X69412295Y-161731446D02*
X69450390Y-161655255D01*
X69450390Y-161655255D02*
X69488485Y-161617160D01*
X69488485Y-161617160D02*
X69564676Y-161579065D01*
X69564676Y-161579065D02*
X69640866Y-161579065D01*
X69640866Y-161579065D02*
X69717057Y-161617160D01*
X69717057Y-161617160D02*
X69755152Y-161655255D01*
X69755152Y-161655255D02*
X69793247Y-161731446D01*
X69793247Y-161731446D02*
X69793247Y-161998112D01*
X69412295Y-161274303D02*
X69412295Y-160740969D01*
X69412295Y-160740969D02*
X70212295Y-161083827D01*
X67672295Y-162798112D02*
X66872295Y-162798112D01*
X66872295Y-162798112D02*
X66872295Y-162493350D01*
X66872295Y-162493350D02*
X66910390Y-162417160D01*
X66910390Y-162417160D02*
X66948485Y-162379065D01*
X66948485Y-162379065D02*
X67024676Y-162340969D01*
X67024676Y-162340969D02*
X67138961Y-162340969D01*
X67138961Y-162340969D02*
X67215152Y-162379065D01*
X67215152Y-162379065D02*
X67253247Y-162417160D01*
X67253247Y-162417160D02*
X67291342Y-162493350D01*
X67291342Y-162493350D02*
X67291342Y-162798112D01*
X67253247Y-161731446D02*
X67291342Y-161617160D01*
X67291342Y-161617160D02*
X67329438Y-161579065D01*
X67329438Y-161579065D02*
X67405628Y-161540969D01*
X67405628Y-161540969D02*
X67519914Y-161540969D01*
X67519914Y-161540969D02*
X67596104Y-161579065D01*
X67596104Y-161579065D02*
X67634200Y-161617160D01*
X67634200Y-161617160D02*
X67672295Y-161693350D01*
X67672295Y-161693350D02*
X67672295Y-161998112D01*
X67672295Y-161998112D02*
X66872295Y-161998112D01*
X66872295Y-161998112D02*
X66872295Y-161731446D01*
X66872295Y-161731446D02*
X66910390Y-161655255D01*
X66910390Y-161655255D02*
X66948485Y-161617160D01*
X66948485Y-161617160D02*
X67024676Y-161579065D01*
X67024676Y-161579065D02*
X67100866Y-161579065D01*
X67100866Y-161579065D02*
X67177057Y-161617160D01*
X67177057Y-161617160D02*
X67215152Y-161655255D01*
X67215152Y-161655255D02*
X67253247Y-161731446D01*
X67253247Y-161731446D02*
X67253247Y-161998112D01*
X66872295Y-161045731D02*
X66872295Y-160969541D01*
X66872295Y-160969541D02*
X66910390Y-160893350D01*
X66910390Y-160893350D02*
X66948485Y-160855255D01*
X66948485Y-160855255D02*
X67024676Y-160817160D01*
X67024676Y-160817160D02*
X67177057Y-160779065D01*
X67177057Y-160779065D02*
X67367533Y-160779065D01*
X67367533Y-160779065D02*
X67519914Y-160817160D01*
X67519914Y-160817160D02*
X67596104Y-160855255D01*
X67596104Y-160855255D02*
X67634200Y-160893350D01*
X67634200Y-160893350D02*
X67672295Y-160969541D01*
X67672295Y-160969541D02*
X67672295Y-161045731D01*
X67672295Y-161045731D02*
X67634200Y-161121922D01*
X67634200Y-161121922D02*
X67596104Y-161160017D01*
X67596104Y-161160017D02*
X67519914Y-161198112D01*
X67519914Y-161198112D02*
X67367533Y-161236208D01*
X67367533Y-161236208D02*
X67177057Y-161236208D01*
X67177057Y-161236208D02*
X67024676Y-161198112D01*
X67024676Y-161198112D02*
X66948485Y-161160017D01*
X66948485Y-161160017D02*
X66910390Y-161121922D01*
X66910390Y-161121922D02*
X66872295Y-161045731D01*
X65132295Y-163445731D02*
X64332295Y-163445731D01*
X64332295Y-163445731D02*
X64332295Y-163140969D01*
X64332295Y-163140969D02*
X64370390Y-163064779D01*
X64370390Y-163064779D02*
X64408485Y-163026684D01*
X64408485Y-163026684D02*
X64484676Y-162988588D01*
X64484676Y-162988588D02*
X64598961Y-162988588D01*
X64598961Y-162988588D02*
X64675152Y-163026684D01*
X64675152Y-163026684D02*
X64713247Y-163064779D01*
X64713247Y-163064779D02*
X64751342Y-163140969D01*
X64751342Y-163140969D02*
X64751342Y-163445731D01*
X64903723Y-162683827D02*
X64903723Y-162302874D01*
X65132295Y-162760017D02*
X64332295Y-162493350D01*
X64332295Y-162493350D02*
X65132295Y-162226684D01*
X65132295Y-161540970D02*
X65132295Y-161998113D01*
X65132295Y-161769541D02*
X64332295Y-161769541D01*
X64332295Y-161769541D02*
X64446580Y-161845732D01*
X64446580Y-161845732D02*
X64522771Y-161921922D01*
X64522771Y-161921922D02*
X64560866Y-161998113D01*
X64408485Y-161236208D02*
X64370390Y-161198112D01*
X64370390Y-161198112D02*
X64332295Y-161121922D01*
X64332295Y-161121922D02*
X64332295Y-160931446D01*
X64332295Y-160931446D02*
X64370390Y-160855255D01*
X64370390Y-160855255D02*
X64408485Y-160817160D01*
X64408485Y-160817160D02*
X64484676Y-160779065D01*
X64484676Y-160779065D02*
X64560866Y-160779065D01*
X64560866Y-160779065D02*
X64675152Y-160817160D01*
X64675152Y-160817160D02*
X65132295Y-161274303D01*
X65132295Y-161274303D02*
X65132295Y-160779065D01*
X61830390Y-162455255D02*
X61792295Y-162531445D01*
X61792295Y-162531445D02*
X61792295Y-162645731D01*
X61792295Y-162645731D02*
X61830390Y-162760017D01*
X61830390Y-162760017D02*
X61906580Y-162836207D01*
X61906580Y-162836207D02*
X61982771Y-162874302D01*
X61982771Y-162874302D02*
X62135152Y-162912398D01*
X62135152Y-162912398D02*
X62249438Y-162912398D01*
X62249438Y-162912398D02*
X62401819Y-162874302D01*
X62401819Y-162874302D02*
X62478009Y-162836207D01*
X62478009Y-162836207D02*
X62554200Y-162760017D01*
X62554200Y-162760017D02*
X62592295Y-162645731D01*
X62592295Y-162645731D02*
X62592295Y-162569540D01*
X62592295Y-162569540D02*
X62554200Y-162455255D01*
X62554200Y-162455255D02*
X62516104Y-162417159D01*
X62516104Y-162417159D02*
X62249438Y-162417159D01*
X62249438Y-162417159D02*
X62249438Y-162569540D01*
X62592295Y-162074302D02*
X61792295Y-162074302D01*
X61792295Y-162074302D02*
X62592295Y-161617159D01*
X62592295Y-161617159D02*
X61792295Y-161617159D01*
X62592295Y-161236207D02*
X61792295Y-161236207D01*
X61792295Y-161236207D02*
X61792295Y-161045731D01*
X61792295Y-161045731D02*
X61830390Y-160931445D01*
X61830390Y-160931445D02*
X61906580Y-160855255D01*
X61906580Y-160855255D02*
X61982771Y-160817160D01*
X61982771Y-160817160D02*
X62135152Y-160779064D01*
X62135152Y-160779064D02*
X62249438Y-160779064D01*
X62249438Y-160779064D02*
X62401819Y-160817160D01*
X62401819Y-160817160D02*
X62478009Y-160855255D01*
X62478009Y-160855255D02*
X62554200Y-160931445D01*
X62554200Y-160931445D02*
X62592295Y-161045731D01*
X62592295Y-161045731D02*
X62592295Y-161236207D01*
X60052295Y-163445731D02*
X59252295Y-163445731D01*
X59252295Y-163445731D02*
X60052295Y-162988588D01*
X60052295Y-162988588D02*
X59252295Y-162988588D01*
X60052295Y-162150493D02*
X59671342Y-162417160D01*
X60052295Y-162607636D02*
X59252295Y-162607636D01*
X59252295Y-162607636D02*
X59252295Y-162302874D01*
X59252295Y-162302874D02*
X59290390Y-162226684D01*
X59290390Y-162226684D02*
X59328485Y-162188589D01*
X59328485Y-162188589D02*
X59404676Y-162150493D01*
X59404676Y-162150493D02*
X59518961Y-162150493D01*
X59518961Y-162150493D02*
X59595152Y-162188589D01*
X59595152Y-162188589D02*
X59633247Y-162226684D01*
X59633247Y-162226684D02*
X59671342Y-162302874D01*
X59671342Y-162302874D02*
X59671342Y-162607636D01*
X60014200Y-161845732D02*
X60052295Y-161731446D01*
X60052295Y-161731446D02*
X60052295Y-161540970D01*
X60052295Y-161540970D02*
X60014200Y-161464779D01*
X60014200Y-161464779D02*
X59976104Y-161426684D01*
X59976104Y-161426684D02*
X59899914Y-161388589D01*
X59899914Y-161388589D02*
X59823723Y-161388589D01*
X59823723Y-161388589D02*
X59747533Y-161426684D01*
X59747533Y-161426684D02*
X59709438Y-161464779D01*
X59709438Y-161464779D02*
X59671342Y-161540970D01*
X59671342Y-161540970D02*
X59633247Y-161693351D01*
X59633247Y-161693351D02*
X59595152Y-161769541D01*
X59595152Y-161769541D02*
X59557057Y-161807636D01*
X59557057Y-161807636D02*
X59480866Y-161845732D01*
X59480866Y-161845732D02*
X59404676Y-161845732D01*
X59404676Y-161845732D02*
X59328485Y-161807636D01*
X59328485Y-161807636D02*
X59290390Y-161769541D01*
X59290390Y-161769541D02*
X59252295Y-161693351D01*
X59252295Y-161693351D02*
X59252295Y-161502874D01*
X59252295Y-161502874D02*
X59290390Y-161388589D01*
X59252295Y-161160017D02*
X59252295Y-160702874D01*
X60052295Y-160931446D02*
X59252295Y-160931446D01*
X57512295Y-163445731D02*
X56712295Y-163445731D01*
X56712295Y-163445731D02*
X56712295Y-163140969D01*
X56712295Y-163140969D02*
X56750390Y-163064779D01*
X56750390Y-163064779D02*
X56788485Y-163026684D01*
X56788485Y-163026684D02*
X56864676Y-162988588D01*
X56864676Y-162988588D02*
X56978961Y-162988588D01*
X56978961Y-162988588D02*
X57055152Y-163026684D01*
X57055152Y-163026684D02*
X57093247Y-163064779D01*
X57093247Y-163064779D02*
X57131342Y-163140969D01*
X57131342Y-163140969D02*
X57131342Y-163445731D01*
X57283723Y-162683827D02*
X57283723Y-162302874D01*
X57512295Y-162760017D02*
X56712295Y-162493350D01*
X56712295Y-162493350D02*
X57512295Y-162226684D01*
X57512295Y-161540970D02*
X57512295Y-161998113D01*
X57512295Y-161769541D02*
X56712295Y-161769541D01*
X56712295Y-161769541D02*
X56826580Y-161845732D01*
X56826580Y-161845732D02*
X56902771Y-161921922D01*
X56902771Y-161921922D02*
X56940866Y-161998113D01*
X56712295Y-161045731D02*
X56712295Y-160969541D01*
X56712295Y-160969541D02*
X56750390Y-160893350D01*
X56750390Y-160893350D02*
X56788485Y-160855255D01*
X56788485Y-160855255D02*
X56864676Y-160817160D01*
X56864676Y-160817160D02*
X57017057Y-160779065D01*
X57017057Y-160779065D02*
X57207533Y-160779065D01*
X57207533Y-160779065D02*
X57359914Y-160817160D01*
X57359914Y-160817160D02*
X57436104Y-160855255D01*
X57436104Y-160855255D02*
X57474200Y-160893350D01*
X57474200Y-160893350D02*
X57512295Y-160969541D01*
X57512295Y-160969541D02*
X57512295Y-161045731D01*
X57512295Y-161045731D02*
X57474200Y-161121922D01*
X57474200Y-161121922D02*
X57436104Y-161160017D01*
X57436104Y-161160017D02*
X57359914Y-161198112D01*
X57359914Y-161198112D02*
X57207533Y-161236208D01*
X57207533Y-161236208D02*
X57017057Y-161236208D01*
X57017057Y-161236208D02*
X56864676Y-161198112D01*
X56864676Y-161198112D02*
X56788485Y-161160017D01*
X56788485Y-161160017D02*
X56750390Y-161121922D01*
X56750390Y-161121922D02*
X56712295Y-161045731D01*
X54972295Y-162683826D02*
X54172295Y-162683826D01*
X54172295Y-162683826D02*
X54172295Y-162379064D01*
X54172295Y-162379064D02*
X54210390Y-162302874D01*
X54210390Y-162302874D02*
X54248485Y-162264779D01*
X54248485Y-162264779D02*
X54324676Y-162226683D01*
X54324676Y-162226683D02*
X54438961Y-162226683D01*
X54438961Y-162226683D02*
X54515152Y-162264779D01*
X54515152Y-162264779D02*
X54553247Y-162302874D01*
X54553247Y-162302874D02*
X54591342Y-162379064D01*
X54591342Y-162379064D02*
X54591342Y-162683826D01*
X54743723Y-161921922D02*
X54743723Y-161540969D01*
X54972295Y-161998112D02*
X54172295Y-161731445D01*
X54172295Y-161731445D02*
X54972295Y-161464779D01*
X54972295Y-161160017D02*
X54972295Y-161007636D01*
X54972295Y-161007636D02*
X54934200Y-160931446D01*
X54934200Y-160931446D02*
X54896104Y-160893350D01*
X54896104Y-160893350D02*
X54781819Y-160817160D01*
X54781819Y-160817160D02*
X54629438Y-160779065D01*
X54629438Y-160779065D02*
X54324676Y-160779065D01*
X54324676Y-160779065D02*
X54248485Y-160817160D01*
X54248485Y-160817160D02*
X54210390Y-160855255D01*
X54210390Y-160855255D02*
X54172295Y-160931446D01*
X54172295Y-160931446D02*
X54172295Y-161083827D01*
X54172295Y-161083827D02*
X54210390Y-161160017D01*
X54210390Y-161160017D02*
X54248485Y-161198112D01*
X54248485Y-161198112D02*
X54324676Y-161236208D01*
X54324676Y-161236208D02*
X54515152Y-161236208D01*
X54515152Y-161236208D02*
X54591342Y-161198112D01*
X54591342Y-161198112D02*
X54629438Y-161160017D01*
X54629438Y-161160017D02*
X54667533Y-161083827D01*
X54667533Y-161083827D02*
X54667533Y-160931446D01*
X54667533Y-160931446D02*
X54629438Y-160855255D01*
X54629438Y-160855255D02*
X54591342Y-160817160D01*
X54591342Y-160817160D02*
X54515152Y-160779065D01*
X78314286Y-111454819D02*
X78314286Y-110454819D01*
X78314286Y-110931009D02*
X78885714Y-110931009D01*
X78885714Y-111454819D02*
X78885714Y-110454819D01*
X52295588Y-129042438D02*
X52200350Y-128994819D01*
X52200350Y-128994819D02*
X52057493Y-128994819D01*
X52057493Y-128994819D02*
X51914636Y-129042438D01*
X51914636Y-129042438D02*
X51819398Y-129137676D01*
X51819398Y-129137676D02*
X51771779Y-129232914D01*
X51771779Y-129232914D02*
X51724160Y-129423390D01*
X51724160Y-129423390D02*
X51724160Y-129566247D01*
X51724160Y-129566247D02*
X51771779Y-129756723D01*
X51771779Y-129756723D02*
X51819398Y-129851961D01*
X51819398Y-129851961D02*
X51914636Y-129947200D01*
X51914636Y-129947200D02*
X52057493Y-129994819D01*
X52057493Y-129994819D02*
X52152731Y-129994819D01*
X52152731Y-129994819D02*
X52295588Y-129947200D01*
X52295588Y-129947200D02*
X52343207Y-129899580D01*
X52343207Y-129899580D02*
X52343207Y-129566247D01*
X52343207Y-129566247D02*
X52152731Y-129566247D01*
X52771779Y-129994819D02*
X52771779Y-128994819D01*
X52771779Y-128994819D02*
X53343207Y-129994819D01*
X53343207Y-129994819D02*
X53343207Y-128994819D01*
X53819398Y-129994819D02*
X53819398Y-128994819D01*
X53819398Y-128994819D02*
X54057493Y-128994819D01*
X54057493Y-128994819D02*
X54200350Y-129042438D01*
X54200350Y-129042438D02*
X54295588Y-129137676D01*
X54295588Y-129137676D02*
X54343207Y-129232914D01*
X54343207Y-129232914D02*
X54390826Y-129423390D01*
X54390826Y-129423390D02*
X54390826Y-129566247D01*
X54390826Y-129566247D02*
X54343207Y-129756723D01*
X54343207Y-129756723D02*
X54295588Y-129851961D01*
X54295588Y-129851961D02*
X54200350Y-129947200D01*
X54200350Y-129947200D02*
X54057493Y-129994819D01*
X54057493Y-129994819D02*
X53819398Y-129994819D01*
X84109523Y-111454819D02*
X83633333Y-111454819D01*
X83633333Y-111454819D02*
X83633333Y-110454819D01*
X72838095Y-110502438D02*
X72742857Y-110454819D01*
X72742857Y-110454819D02*
X72600000Y-110454819D01*
X72600000Y-110454819D02*
X72457143Y-110502438D01*
X72457143Y-110502438D02*
X72361905Y-110597676D01*
X72361905Y-110597676D02*
X72314286Y-110692914D01*
X72314286Y-110692914D02*
X72266667Y-110883390D01*
X72266667Y-110883390D02*
X72266667Y-111026247D01*
X72266667Y-111026247D02*
X72314286Y-111216723D01*
X72314286Y-111216723D02*
X72361905Y-111311961D01*
X72361905Y-111311961D02*
X72457143Y-111407200D01*
X72457143Y-111407200D02*
X72600000Y-111454819D01*
X72600000Y-111454819D02*
X72695238Y-111454819D01*
X72695238Y-111454819D02*
X72838095Y-111407200D01*
X72838095Y-111407200D02*
X72885714Y-111359580D01*
X72885714Y-111359580D02*
X72885714Y-111026247D01*
X72885714Y-111026247D02*
X72695238Y-111026247D01*
X73314286Y-111454819D02*
X73314286Y-110454819D01*
X73314286Y-110454819D02*
X73885714Y-111454819D01*
X73885714Y-111454819D02*
X73885714Y-110454819D01*
X74361905Y-111454819D02*
X74361905Y-110454819D01*
X74361905Y-110454819D02*
X74600000Y-110454819D01*
X74600000Y-110454819D02*
X74742857Y-110502438D01*
X74742857Y-110502438D02*
X74838095Y-110597676D01*
X74838095Y-110597676D02*
X74885714Y-110692914D01*
X74885714Y-110692914D02*
X74933333Y-110883390D01*
X74933333Y-110883390D02*
X74933333Y-111026247D01*
X74933333Y-111026247D02*
X74885714Y-111216723D01*
X74885714Y-111216723D02*
X74838095Y-111311961D01*
X74838095Y-111311961D02*
X74742857Y-111407200D01*
X74742857Y-111407200D02*
X74600000Y-111454819D01*
X74600000Y-111454819D02*
X74361905Y-111454819D01*
X51628922Y-126454819D02*
X51962255Y-127454819D01*
X51962255Y-127454819D02*
X52295588Y-126454819D01*
X52628922Y-127454819D02*
X52628922Y-126788152D01*
X52628922Y-126454819D02*
X52581303Y-126502438D01*
X52581303Y-126502438D02*
X52628922Y-126550057D01*
X52628922Y-126550057D02*
X52676541Y-126502438D01*
X52676541Y-126502438D02*
X52628922Y-126454819D01*
X52628922Y-126454819D02*
X52628922Y-126550057D01*
X53105112Y-126788152D02*
X53105112Y-127454819D01*
X53105112Y-126883390D02*
X53152731Y-126835771D01*
X53152731Y-126835771D02*
X53247969Y-126788152D01*
X53247969Y-126788152D02*
X53390826Y-126788152D01*
X53390826Y-126788152D02*
X53486064Y-126835771D01*
X53486064Y-126835771D02*
X53533683Y-126931009D01*
X53533683Y-126931009D02*
X53533683Y-127454819D01*
X54295588Y-127835771D02*
X54247969Y-127788152D01*
X54247969Y-127788152D02*
X54152731Y-127645295D01*
X54152731Y-127645295D02*
X54105112Y-127550057D01*
X54105112Y-127550057D02*
X54057493Y-127407200D01*
X54057493Y-127407200D02*
X54009874Y-127169104D01*
X54009874Y-127169104D02*
X54009874Y-126978628D01*
X54009874Y-126978628D02*
X54057493Y-126740533D01*
X54057493Y-126740533D02*
X54105112Y-126597676D01*
X54105112Y-126597676D02*
X54152731Y-126502438D01*
X54152731Y-126502438D02*
X54247969Y-126359580D01*
X54247969Y-126359580D02*
X54295588Y-126311961D01*
X54533684Y-126788152D02*
X54914636Y-126788152D01*
X54676541Y-127454819D02*
X54676541Y-126597676D01*
X54676541Y-126597676D02*
X54724160Y-126502438D01*
X54724160Y-126502438D02*
X54819398Y-126454819D01*
X54819398Y-126454819D02*
X54914636Y-126454819D01*
X55676541Y-126788152D02*
X55676541Y-127454819D01*
X55247970Y-126788152D02*
X55247970Y-127311961D01*
X55247970Y-127311961D02*
X55295589Y-127407200D01*
X55295589Y-127407200D02*
X55390827Y-127454819D01*
X55390827Y-127454819D02*
X55533684Y-127454819D01*
X55533684Y-127454819D02*
X55628922Y-127407200D01*
X55628922Y-127407200D02*
X55676541Y-127359580D01*
X56105113Y-127407200D02*
X56200351Y-127454819D01*
X56200351Y-127454819D02*
X56390827Y-127454819D01*
X56390827Y-127454819D02*
X56486065Y-127407200D01*
X56486065Y-127407200D02*
X56533684Y-127311961D01*
X56533684Y-127311961D02*
X56533684Y-127264342D01*
X56533684Y-127264342D02*
X56486065Y-127169104D01*
X56486065Y-127169104D02*
X56390827Y-127121485D01*
X56390827Y-127121485D02*
X56247970Y-127121485D01*
X56247970Y-127121485D02*
X56152732Y-127073866D01*
X56152732Y-127073866D02*
X56105113Y-126978628D01*
X56105113Y-126978628D02*
X56105113Y-126931009D01*
X56105113Y-126931009D02*
X56152732Y-126835771D01*
X56152732Y-126835771D02*
X56247970Y-126788152D01*
X56247970Y-126788152D02*
X56390827Y-126788152D01*
X56390827Y-126788152D02*
X56486065Y-126835771D01*
X57343208Y-127407200D02*
X57247970Y-127454819D01*
X57247970Y-127454819D02*
X57057494Y-127454819D01*
X57057494Y-127454819D02*
X56962256Y-127407200D01*
X56962256Y-127407200D02*
X56914637Y-127311961D01*
X56914637Y-127311961D02*
X56914637Y-126931009D01*
X56914637Y-126931009D02*
X56962256Y-126835771D01*
X56962256Y-126835771D02*
X57057494Y-126788152D01*
X57057494Y-126788152D02*
X57247970Y-126788152D01*
X57247970Y-126788152D02*
X57343208Y-126835771D01*
X57343208Y-126835771D02*
X57390827Y-126931009D01*
X57390827Y-126931009D02*
X57390827Y-127026247D01*
X57390827Y-127026247D02*
X56914637Y-127121485D01*
X57724161Y-127835771D02*
X57771780Y-127788152D01*
X57771780Y-127788152D02*
X57867018Y-127645295D01*
X57867018Y-127645295D02*
X57914637Y-127550057D01*
X57914637Y-127550057D02*
X57962256Y-127407200D01*
X57962256Y-127407200D02*
X58009875Y-127169104D01*
X58009875Y-127169104D02*
X58009875Y-126978628D01*
X58009875Y-126978628D02*
X57962256Y-126740533D01*
X57962256Y-126740533D02*
X57914637Y-126597676D01*
X57914637Y-126597676D02*
X57867018Y-126502438D01*
X57867018Y-126502438D02*
X57771780Y-126359580D01*
X57771780Y-126359580D02*
X57724161Y-126311961D01*
X67476191Y-110454819D02*
X67809524Y-111454819D01*
X67809524Y-111454819D02*
X68142857Y-110454819D01*
X68476191Y-111454819D02*
X68476191Y-110788152D01*
X68476191Y-110454819D02*
X68428572Y-110502438D01*
X68428572Y-110502438D02*
X68476191Y-110550057D01*
X68476191Y-110550057D02*
X68523810Y-110502438D01*
X68523810Y-110502438D02*
X68476191Y-110454819D01*
X68476191Y-110454819D02*
X68476191Y-110550057D01*
X68952381Y-110788152D02*
X68952381Y-111454819D01*
X68952381Y-110883390D02*
X69000000Y-110835771D01*
X69000000Y-110835771D02*
X69095238Y-110788152D01*
X69095238Y-110788152D02*
X69238095Y-110788152D01*
X69238095Y-110788152D02*
X69333333Y-110835771D01*
X69333333Y-110835771D02*
X69380952Y-110931009D01*
X69380952Y-110931009D02*
X69380952Y-111454819D01*
X55261905Y-101454819D02*
X55261905Y-100454819D01*
X55261905Y-100454819D02*
X55500000Y-100454819D01*
X55500000Y-100454819D02*
X55642857Y-100502438D01*
X55642857Y-100502438D02*
X55738095Y-100597676D01*
X55738095Y-100597676D02*
X55785714Y-100692914D01*
X55785714Y-100692914D02*
X55833333Y-100883390D01*
X55833333Y-100883390D02*
X55833333Y-101026247D01*
X55833333Y-101026247D02*
X55785714Y-101216723D01*
X55785714Y-101216723D02*
X55738095Y-101311961D01*
X55738095Y-101311961D02*
X55642857Y-101407200D01*
X55642857Y-101407200D02*
X55500000Y-101454819D01*
X55500000Y-101454819D02*
X55261905Y-101454819D01*
X56690476Y-100788152D02*
X56690476Y-101454819D01*
X56452381Y-100407200D02*
X56214286Y-101121485D01*
X56214286Y-101121485D02*
X56833333Y-101121485D01*
X60261905Y-101454819D02*
X60261905Y-100454819D01*
X60261905Y-100454819D02*
X60500000Y-100454819D01*
X60500000Y-100454819D02*
X60642857Y-100502438D01*
X60642857Y-100502438D02*
X60738095Y-100597676D01*
X60738095Y-100597676D02*
X60785714Y-100692914D01*
X60785714Y-100692914D02*
X60833333Y-100883390D01*
X60833333Y-100883390D02*
X60833333Y-101026247D01*
X60833333Y-101026247D02*
X60785714Y-101216723D01*
X60785714Y-101216723D02*
X60738095Y-101311961D01*
X60738095Y-101311961D02*
X60642857Y-101407200D01*
X60642857Y-101407200D02*
X60500000Y-101454819D01*
X60500000Y-101454819D02*
X60261905Y-101454819D01*
X61690476Y-100454819D02*
X61500000Y-100454819D01*
X61500000Y-100454819D02*
X61404762Y-100502438D01*
X61404762Y-100502438D02*
X61357143Y-100550057D01*
X61357143Y-100550057D02*
X61261905Y-100692914D01*
X61261905Y-100692914D02*
X61214286Y-100883390D01*
X61214286Y-100883390D02*
X61214286Y-101264342D01*
X61214286Y-101264342D02*
X61261905Y-101359580D01*
X61261905Y-101359580D02*
X61309524Y-101407200D01*
X61309524Y-101407200D02*
X61404762Y-101454819D01*
X61404762Y-101454819D02*
X61595238Y-101454819D01*
X61595238Y-101454819D02*
X61690476Y-101407200D01*
X61690476Y-101407200D02*
X61738095Y-101359580D01*
X61738095Y-101359580D02*
X61785714Y-101264342D01*
X61785714Y-101264342D02*
X61785714Y-101026247D01*
X61785714Y-101026247D02*
X61738095Y-100931009D01*
X61738095Y-100931009D02*
X61690476Y-100883390D01*
X61690476Y-100883390D02*
X61595238Y-100835771D01*
X61595238Y-100835771D02*
X61404762Y-100835771D01*
X61404762Y-100835771D02*
X61309524Y-100883390D01*
X61309524Y-100883390D02*
X61261905Y-100931009D01*
X61261905Y-100931009D02*
X61214286Y-101026247D01*
X84923333Y-128629580D02*
X84875714Y-128677200D01*
X84875714Y-128677200D02*
X84732857Y-128724819D01*
X84732857Y-128724819D02*
X84637619Y-128724819D01*
X84637619Y-128724819D02*
X84494762Y-128677200D01*
X84494762Y-128677200D02*
X84399524Y-128581961D01*
X84399524Y-128581961D02*
X84351905Y-128486723D01*
X84351905Y-128486723D02*
X84304286Y-128296247D01*
X84304286Y-128296247D02*
X84304286Y-128153390D01*
X84304286Y-128153390D02*
X84351905Y-127962914D01*
X84351905Y-127962914D02*
X84399524Y-127867676D01*
X84399524Y-127867676D02*
X84494762Y-127772438D01*
X84494762Y-127772438D02*
X84637619Y-127724819D01*
X84637619Y-127724819D02*
X84732857Y-127724819D01*
X84732857Y-127724819D02*
X84875714Y-127772438D01*
X84875714Y-127772438D02*
X84923333Y-127820057D01*
X85780476Y-127724819D02*
X85590000Y-127724819D01*
X85590000Y-127724819D02*
X85494762Y-127772438D01*
X85494762Y-127772438D02*
X85447143Y-127820057D01*
X85447143Y-127820057D02*
X85351905Y-127962914D01*
X85351905Y-127962914D02*
X85304286Y-128153390D01*
X85304286Y-128153390D02*
X85304286Y-128534342D01*
X85304286Y-128534342D02*
X85351905Y-128629580D01*
X85351905Y-128629580D02*
X85399524Y-128677200D01*
X85399524Y-128677200D02*
X85494762Y-128724819D01*
X85494762Y-128724819D02*
X85685238Y-128724819D01*
X85685238Y-128724819D02*
X85780476Y-128677200D01*
X85780476Y-128677200D02*
X85828095Y-128629580D01*
X85828095Y-128629580D02*
X85875714Y-128534342D01*
X85875714Y-128534342D02*
X85875714Y-128296247D01*
X85875714Y-128296247D02*
X85828095Y-128201009D01*
X85828095Y-128201009D02*
X85780476Y-128153390D01*
X85780476Y-128153390D02*
X85685238Y-128105771D01*
X85685238Y-128105771D02*
X85494762Y-128105771D01*
X85494762Y-128105771D02*
X85399524Y-128153390D01*
X85399524Y-128153390D02*
X85351905Y-128201009D01*
X85351905Y-128201009D02*
X85304286Y-128296247D01*
X62061905Y-114654819D02*
X62061905Y-113654819D01*
X62061905Y-113654819D02*
X62300000Y-113654819D01*
X62300000Y-113654819D02*
X62442857Y-113702438D01*
X62442857Y-113702438D02*
X62538095Y-113797676D01*
X62538095Y-113797676D02*
X62585714Y-113892914D01*
X62585714Y-113892914D02*
X62633333Y-114083390D01*
X62633333Y-114083390D02*
X62633333Y-114226247D01*
X62633333Y-114226247D02*
X62585714Y-114416723D01*
X62585714Y-114416723D02*
X62538095Y-114511961D01*
X62538095Y-114511961D02*
X62442857Y-114607200D01*
X62442857Y-114607200D02*
X62300000Y-114654819D01*
X62300000Y-114654819D02*
X62061905Y-114654819D01*
X63585714Y-114654819D02*
X63014286Y-114654819D01*
X63300000Y-114654819D02*
X63300000Y-113654819D01*
X63300000Y-113654819D02*
X63204762Y-113797676D01*
X63204762Y-113797676D02*
X63109524Y-113892914D01*
X63109524Y-113892914D02*
X63014286Y-113940533D01*
X84616333Y-122374819D02*
X84283000Y-121898628D01*
X84044905Y-122374819D02*
X84044905Y-121374819D01*
X84044905Y-121374819D02*
X84425857Y-121374819D01*
X84425857Y-121374819D02*
X84521095Y-121422438D01*
X84521095Y-121422438D02*
X84568714Y-121470057D01*
X84568714Y-121470057D02*
X84616333Y-121565295D01*
X84616333Y-121565295D02*
X84616333Y-121708152D01*
X84616333Y-121708152D02*
X84568714Y-121803390D01*
X84568714Y-121803390D02*
X84521095Y-121851009D01*
X84521095Y-121851009D02*
X84425857Y-121898628D01*
X84425857Y-121898628D02*
X84044905Y-121898628D01*
X84997286Y-121470057D02*
X85044905Y-121422438D01*
X85044905Y-121422438D02*
X85140143Y-121374819D01*
X85140143Y-121374819D02*
X85378238Y-121374819D01*
X85378238Y-121374819D02*
X85473476Y-121422438D01*
X85473476Y-121422438D02*
X85521095Y-121470057D01*
X85521095Y-121470057D02*
X85568714Y-121565295D01*
X85568714Y-121565295D02*
X85568714Y-121660533D01*
X85568714Y-121660533D02*
X85521095Y-121803390D01*
X85521095Y-121803390D02*
X84949667Y-122374819D01*
X84949667Y-122374819D02*
X85568714Y-122374819D01*
X61174333Y-132534819D02*
X60841000Y-132058628D01*
X60602905Y-132534819D02*
X60602905Y-131534819D01*
X60602905Y-131534819D02*
X60983857Y-131534819D01*
X60983857Y-131534819D02*
X61079095Y-131582438D01*
X61079095Y-131582438D02*
X61126714Y-131630057D01*
X61126714Y-131630057D02*
X61174333Y-131725295D01*
X61174333Y-131725295D02*
X61174333Y-131868152D01*
X61174333Y-131868152D02*
X61126714Y-131963390D01*
X61126714Y-131963390D02*
X61079095Y-132011009D01*
X61079095Y-132011009D02*
X60983857Y-132058628D01*
X60983857Y-132058628D02*
X60602905Y-132058628D01*
X62079095Y-131534819D02*
X61602905Y-131534819D01*
X61602905Y-131534819D02*
X61555286Y-132011009D01*
X61555286Y-132011009D02*
X61602905Y-131963390D01*
X61602905Y-131963390D02*
X61698143Y-131915771D01*
X61698143Y-131915771D02*
X61936238Y-131915771D01*
X61936238Y-131915771D02*
X62031476Y-131963390D01*
X62031476Y-131963390D02*
X62079095Y-132011009D01*
X62079095Y-132011009D02*
X62126714Y-132106247D01*
X62126714Y-132106247D02*
X62126714Y-132344342D01*
X62126714Y-132344342D02*
X62079095Y-132439580D01*
X62079095Y-132439580D02*
X62031476Y-132487200D01*
X62031476Y-132487200D02*
X61936238Y-132534819D01*
X61936238Y-132534819D02*
X61698143Y-132534819D01*
X61698143Y-132534819D02*
X61602905Y-132487200D01*
X61602905Y-132487200D02*
X61555286Y-132439580D01*
X92702142Y-130534580D02*
X92654523Y-130582200D01*
X92654523Y-130582200D02*
X92511666Y-130629819D01*
X92511666Y-130629819D02*
X92416428Y-130629819D01*
X92416428Y-130629819D02*
X92273571Y-130582200D01*
X92273571Y-130582200D02*
X92178333Y-130486961D01*
X92178333Y-130486961D02*
X92130714Y-130391723D01*
X92130714Y-130391723D02*
X92083095Y-130201247D01*
X92083095Y-130201247D02*
X92083095Y-130058390D01*
X92083095Y-130058390D02*
X92130714Y-129867914D01*
X92130714Y-129867914D02*
X92178333Y-129772676D01*
X92178333Y-129772676D02*
X92273571Y-129677438D01*
X92273571Y-129677438D02*
X92416428Y-129629819D01*
X92416428Y-129629819D02*
X92511666Y-129629819D01*
X92511666Y-129629819D02*
X92654523Y-129677438D01*
X92654523Y-129677438D02*
X92702142Y-129725057D01*
X93654523Y-130629819D02*
X93083095Y-130629819D01*
X93368809Y-130629819D02*
X93368809Y-129629819D01*
X93368809Y-129629819D02*
X93273571Y-129772676D01*
X93273571Y-129772676D02*
X93178333Y-129867914D01*
X93178333Y-129867914D02*
X93083095Y-129915533D01*
X94273571Y-129629819D02*
X94368809Y-129629819D01*
X94368809Y-129629819D02*
X94464047Y-129677438D01*
X94464047Y-129677438D02*
X94511666Y-129725057D01*
X94511666Y-129725057D02*
X94559285Y-129820295D01*
X94559285Y-129820295D02*
X94606904Y-130010771D01*
X94606904Y-130010771D02*
X94606904Y-130248866D01*
X94606904Y-130248866D02*
X94559285Y-130439342D01*
X94559285Y-130439342D02*
X94511666Y-130534580D01*
X94511666Y-130534580D02*
X94464047Y-130582200D01*
X94464047Y-130582200D02*
X94368809Y-130629819D01*
X94368809Y-130629819D02*
X94273571Y-130629819D01*
X94273571Y-130629819D02*
X94178333Y-130582200D01*
X94178333Y-130582200D02*
X94130714Y-130534580D01*
X94130714Y-130534580D02*
X94083095Y-130439342D01*
X94083095Y-130439342D02*
X94035476Y-130248866D01*
X94035476Y-130248866D02*
X94035476Y-130010771D01*
X94035476Y-130010771D02*
X94083095Y-129820295D01*
X94083095Y-129820295D02*
X94130714Y-129725057D01*
X94130714Y-129725057D02*
X94178333Y-129677438D01*
X94178333Y-129677438D02*
X94273571Y-129629819D01*
X60261905Y-112214819D02*
X60261905Y-111214819D01*
X60261905Y-111214819D02*
X60500000Y-111214819D01*
X60500000Y-111214819D02*
X60642857Y-111262438D01*
X60642857Y-111262438D02*
X60738095Y-111357676D01*
X60738095Y-111357676D02*
X60785714Y-111452914D01*
X60785714Y-111452914D02*
X60833333Y-111643390D01*
X60833333Y-111643390D02*
X60833333Y-111786247D01*
X60833333Y-111786247D02*
X60785714Y-111976723D01*
X60785714Y-111976723D02*
X60738095Y-112071961D01*
X60738095Y-112071961D02*
X60642857Y-112167200D01*
X60642857Y-112167200D02*
X60500000Y-112214819D01*
X60500000Y-112214819D02*
X60261905Y-112214819D01*
X61738095Y-111214819D02*
X61261905Y-111214819D01*
X61261905Y-111214819D02*
X61214286Y-111691009D01*
X61214286Y-111691009D02*
X61261905Y-111643390D01*
X61261905Y-111643390D02*
X61357143Y-111595771D01*
X61357143Y-111595771D02*
X61595238Y-111595771D01*
X61595238Y-111595771D02*
X61690476Y-111643390D01*
X61690476Y-111643390D02*
X61738095Y-111691009D01*
X61738095Y-111691009D02*
X61785714Y-111786247D01*
X61785714Y-111786247D02*
X61785714Y-112024342D01*
X61785714Y-112024342D02*
X61738095Y-112119580D01*
X61738095Y-112119580D02*
X61690476Y-112167200D01*
X61690476Y-112167200D02*
X61595238Y-112214819D01*
X61595238Y-112214819D02*
X61357143Y-112214819D01*
X61357143Y-112214819D02*
X61261905Y-112167200D01*
X61261905Y-112167200D02*
X61214286Y-112119580D01*
X70445333Y-127454819D02*
X70112000Y-126978628D01*
X69873905Y-127454819D02*
X69873905Y-126454819D01*
X69873905Y-126454819D02*
X70254857Y-126454819D01*
X70254857Y-126454819D02*
X70350095Y-126502438D01*
X70350095Y-126502438D02*
X70397714Y-126550057D01*
X70397714Y-126550057D02*
X70445333Y-126645295D01*
X70445333Y-126645295D02*
X70445333Y-126788152D01*
X70445333Y-126788152D02*
X70397714Y-126883390D01*
X70397714Y-126883390D02*
X70350095Y-126931009D01*
X70350095Y-126931009D02*
X70254857Y-126978628D01*
X70254857Y-126978628D02*
X69873905Y-126978628D01*
X70778667Y-126454819D02*
X71397714Y-126454819D01*
X71397714Y-126454819D02*
X71064381Y-126835771D01*
X71064381Y-126835771D02*
X71207238Y-126835771D01*
X71207238Y-126835771D02*
X71302476Y-126883390D01*
X71302476Y-126883390D02*
X71350095Y-126931009D01*
X71350095Y-126931009D02*
X71397714Y-127026247D01*
X71397714Y-127026247D02*
X71397714Y-127264342D01*
X71397714Y-127264342D02*
X71350095Y-127359580D01*
X71350095Y-127359580D02*
X71302476Y-127407200D01*
X71302476Y-127407200D02*
X71207238Y-127454819D01*
X71207238Y-127454819D02*
X70921524Y-127454819D01*
X70921524Y-127454819D02*
X70826286Y-127407200D01*
X70826286Y-127407200D02*
X70778667Y-127359580D01*
X70445333Y-132534819D02*
X70112000Y-132058628D01*
X69873905Y-132534819D02*
X69873905Y-131534819D01*
X69873905Y-131534819D02*
X70254857Y-131534819D01*
X70254857Y-131534819D02*
X70350095Y-131582438D01*
X70350095Y-131582438D02*
X70397714Y-131630057D01*
X70397714Y-131630057D02*
X70445333Y-131725295D01*
X70445333Y-131725295D02*
X70445333Y-131868152D01*
X70445333Y-131868152D02*
X70397714Y-131963390D01*
X70397714Y-131963390D02*
X70350095Y-132011009D01*
X70350095Y-132011009D02*
X70254857Y-132058628D01*
X70254857Y-132058628D02*
X69873905Y-132058628D01*
X71302476Y-131534819D02*
X71112000Y-131534819D01*
X71112000Y-131534819D02*
X71016762Y-131582438D01*
X71016762Y-131582438D02*
X70969143Y-131630057D01*
X70969143Y-131630057D02*
X70873905Y-131772914D01*
X70873905Y-131772914D02*
X70826286Y-131963390D01*
X70826286Y-131963390D02*
X70826286Y-132344342D01*
X70826286Y-132344342D02*
X70873905Y-132439580D01*
X70873905Y-132439580D02*
X70921524Y-132487200D01*
X70921524Y-132487200D02*
X71016762Y-132534819D01*
X71016762Y-132534819D02*
X71207238Y-132534819D01*
X71207238Y-132534819D02*
X71302476Y-132487200D01*
X71302476Y-132487200D02*
X71350095Y-132439580D01*
X71350095Y-132439580D02*
X71397714Y-132344342D01*
X71397714Y-132344342D02*
X71397714Y-132106247D01*
X71397714Y-132106247D02*
X71350095Y-132011009D01*
X71350095Y-132011009D02*
X71302476Y-131963390D01*
X71302476Y-131963390D02*
X71207238Y-131915771D01*
X71207238Y-131915771D02*
X71016762Y-131915771D01*
X71016762Y-131915771D02*
X70921524Y-131963390D01*
X70921524Y-131963390D02*
X70873905Y-132011009D01*
X70873905Y-132011009D02*
X70826286Y-132106247D01*
X89114333Y-107007819D02*
X88781000Y-106531628D01*
X88542905Y-107007819D02*
X88542905Y-106007819D01*
X88542905Y-106007819D02*
X88923857Y-106007819D01*
X88923857Y-106007819D02*
X89019095Y-106055438D01*
X89019095Y-106055438D02*
X89066714Y-106103057D01*
X89066714Y-106103057D02*
X89114333Y-106198295D01*
X89114333Y-106198295D02*
X89114333Y-106341152D01*
X89114333Y-106341152D02*
X89066714Y-106436390D01*
X89066714Y-106436390D02*
X89019095Y-106484009D01*
X89019095Y-106484009D02*
X88923857Y-106531628D01*
X88923857Y-106531628D02*
X88542905Y-106531628D01*
X89971476Y-106341152D02*
X89971476Y-107007819D01*
X89733381Y-105960200D02*
X89495286Y-106674485D01*
X89495286Y-106674485D02*
X90114333Y-106674485D01*
X74128333Y-121644580D02*
X74080714Y-121692200D01*
X74080714Y-121692200D02*
X73937857Y-121739819D01*
X73937857Y-121739819D02*
X73842619Y-121739819D01*
X73842619Y-121739819D02*
X73699762Y-121692200D01*
X73699762Y-121692200D02*
X73604524Y-121596961D01*
X73604524Y-121596961D02*
X73556905Y-121501723D01*
X73556905Y-121501723D02*
X73509286Y-121311247D01*
X73509286Y-121311247D02*
X73509286Y-121168390D01*
X73509286Y-121168390D02*
X73556905Y-120977914D01*
X73556905Y-120977914D02*
X73604524Y-120882676D01*
X73604524Y-120882676D02*
X73699762Y-120787438D01*
X73699762Y-120787438D02*
X73842619Y-120739819D01*
X73842619Y-120739819D02*
X73937857Y-120739819D01*
X73937857Y-120739819D02*
X74080714Y-120787438D01*
X74080714Y-120787438D02*
X74128333Y-120835057D01*
X74985476Y-121073152D02*
X74985476Y-121739819D01*
X74747381Y-120692200D02*
X74509286Y-121406485D01*
X74509286Y-121406485D02*
X75128333Y-121406485D01*
X91948095Y-120804819D02*
X91948095Y-121614342D01*
X91948095Y-121614342D02*
X91995714Y-121709580D01*
X91995714Y-121709580D02*
X92043333Y-121757200D01*
X92043333Y-121757200D02*
X92138571Y-121804819D01*
X92138571Y-121804819D02*
X92329047Y-121804819D01*
X92329047Y-121804819D02*
X92424285Y-121757200D01*
X92424285Y-121757200D02*
X92471904Y-121709580D01*
X92471904Y-121709580D02*
X92519523Y-121614342D01*
X92519523Y-121614342D02*
X92519523Y-120804819D01*
X92900476Y-120804819D02*
X93519523Y-120804819D01*
X93519523Y-120804819D02*
X93186190Y-121185771D01*
X93186190Y-121185771D02*
X93329047Y-121185771D01*
X93329047Y-121185771D02*
X93424285Y-121233390D01*
X93424285Y-121233390D02*
X93471904Y-121281009D01*
X93471904Y-121281009D02*
X93519523Y-121376247D01*
X93519523Y-121376247D02*
X93519523Y-121614342D01*
X93519523Y-121614342D02*
X93471904Y-121709580D01*
X93471904Y-121709580D02*
X93424285Y-121757200D01*
X93424285Y-121757200D02*
X93329047Y-121804819D01*
X93329047Y-121804819D02*
X93043333Y-121804819D01*
X93043333Y-121804819D02*
X92948095Y-121757200D01*
X92948095Y-121757200D02*
X92900476Y-121709580D01*
X67818095Y-118199819D02*
X67818095Y-119009342D01*
X67818095Y-119009342D02*
X67865714Y-119104580D01*
X67865714Y-119104580D02*
X67913333Y-119152200D01*
X67913333Y-119152200D02*
X68008571Y-119199819D01*
X68008571Y-119199819D02*
X68199047Y-119199819D01*
X68199047Y-119199819D02*
X68294285Y-119152200D01*
X68294285Y-119152200D02*
X68341904Y-119104580D01*
X68341904Y-119104580D02*
X68389523Y-119009342D01*
X68389523Y-119009342D02*
X68389523Y-118199819D01*
X68818095Y-118295057D02*
X68865714Y-118247438D01*
X68865714Y-118247438D02*
X68960952Y-118199819D01*
X68960952Y-118199819D02*
X69199047Y-118199819D01*
X69199047Y-118199819D02*
X69294285Y-118247438D01*
X69294285Y-118247438D02*
X69341904Y-118295057D01*
X69341904Y-118295057D02*
X69389523Y-118390295D01*
X69389523Y-118390295D02*
X69389523Y-118485533D01*
X69389523Y-118485533D02*
X69341904Y-118628390D01*
X69341904Y-118628390D02*
X68770476Y-119199819D01*
X68770476Y-119199819D02*
X69389523Y-119199819D01*
X82637333Y-117294819D02*
X82161143Y-117294819D01*
X82161143Y-117294819D02*
X82161143Y-116294819D01*
X83494476Y-117294819D02*
X82923048Y-117294819D01*
X83208762Y-117294819D02*
X83208762Y-116294819D01*
X83208762Y-116294819D02*
X83113524Y-116437676D01*
X83113524Y-116437676D02*
X83018286Y-116532914D01*
X83018286Y-116532914D02*
X82923048Y-116580533D01*
X81748333Y-134344580D02*
X81700714Y-134392200D01*
X81700714Y-134392200D02*
X81557857Y-134439819D01*
X81557857Y-134439819D02*
X81462619Y-134439819D01*
X81462619Y-134439819D02*
X81319762Y-134392200D01*
X81319762Y-134392200D02*
X81224524Y-134296961D01*
X81224524Y-134296961D02*
X81176905Y-134201723D01*
X81176905Y-134201723D02*
X81129286Y-134011247D01*
X81129286Y-134011247D02*
X81129286Y-133868390D01*
X81129286Y-133868390D02*
X81176905Y-133677914D01*
X81176905Y-133677914D02*
X81224524Y-133582676D01*
X81224524Y-133582676D02*
X81319762Y-133487438D01*
X81319762Y-133487438D02*
X81462619Y-133439819D01*
X81462619Y-133439819D02*
X81557857Y-133439819D01*
X81557857Y-133439819D02*
X81700714Y-133487438D01*
X81700714Y-133487438D02*
X81748333Y-133535057D01*
X82700714Y-134439819D02*
X82129286Y-134439819D01*
X82415000Y-134439819D02*
X82415000Y-133439819D01*
X82415000Y-133439819D02*
X82319762Y-133582676D01*
X82319762Y-133582676D02*
X82224524Y-133677914D01*
X82224524Y-133677914D02*
X82129286Y-133725533D01*
X89431905Y-112849819D02*
X89431905Y-111849819D01*
X89431905Y-111849819D02*
X89670000Y-111849819D01*
X89670000Y-111849819D02*
X89812857Y-111897438D01*
X89812857Y-111897438D02*
X89908095Y-111992676D01*
X89908095Y-111992676D02*
X89955714Y-112087914D01*
X89955714Y-112087914D02*
X90003333Y-112278390D01*
X90003333Y-112278390D02*
X90003333Y-112421247D01*
X90003333Y-112421247D02*
X89955714Y-112611723D01*
X89955714Y-112611723D02*
X89908095Y-112706961D01*
X89908095Y-112706961D02*
X89812857Y-112802200D01*
X89812857Y-112802200D02*
X89670000Y-112849819D01*
X89670000Y-112849819D02*
X89431905Y-112849819D01*
X90384286Y-111945057D02*
X90431905Y-111897438D01*
X90431905Y-111897438D02*
X90527143Y-111849819D01*
X90527143Y-111849819D02*
X90765238Y-111849819D01*
X90765238Y-111849819D02*
X90860476Y-111897438D01*
X90860476Y-111897438D02*
X90908095Y-111945057D01*
X90908095Y-111945057D02*
X90955714Y-112040295D01*
X90955714Y-112040295D02*
X90955714Y-112135533D01*
X90955714Y-112135533D02*
X90908095Y-112278390D01*
X90908095Y-112278390D02*
X90336667Y-112849819D01*
X90336667Y-112849819D02*
X90955714Y-112849819D01*
X64603333Y-122279580D02*
X64555714Y-122327200D01*
X64555714Y-122327200D02*
X64412857Y-122374819D01*
X64412857Y-122374819D02*
X64317619Y-122374819D01*
X64317619Y-122374819D02*
X64174762Y-122327200D01*
X64174762Y-122327200D02*
X64079524Y-122231961D01*
X64079524Y-122231961D02*
X64031905Y-122136723D01*
X64031905Y-122136723D02*
X63984286Y-121946247D01*
X63984286Y-121946247D02*
X63984286Y-121803390D01*
X63984286Y-121803390D02*
X64031905Y-121612914D01*
X64031905Y-121612914D02*
X64079524Y-121517676D01*
X64079524Y-121517676D02*
X64174762Y-121422438D01*
X64174762Y-121422438D02*
X64317619Y-121374819D01*
X64317619Y-121374819D02*
X64412857Y-121374819D01*
X64412857Y-121374819D02*
X64555714Y-121422438D01*
X64555714Y-121422438D02*
X64603333Y-121470057D01*
X65508095Y-121374819D02*
X65031905Y-121374819D01*
X65031905Y-121374819D02*
X64984286Y-121851009D01*
X64984286Y-121851009D02*
X65031905Y-121803390D01*
X65031905Y-121803390D02*
X65127143Y-121755771D01*
X65127143Y-121755771D02*
X65365238Y-121755771D01*
X65365238Y-121755771D02*
X65460476Y-121803390D01*
X65460476Y-121803390D02*
X65508095Y-121851009D01*
X65508095Y-121851009D02*
X65555714Y-121946247D01*
X65555714Y-121946247D02*
X65555714Y-122184342D01*
X65555714Y-122184342D02*
X65508095Y-122279580D01*
X65508095Y-122279580D02*
X65460476Y-122327200D01*
X65460476Y-122327200D02*
X65365238Y-122374819D01*
X65365238Y-122374819D02*
X65127143Y-122374819D01*
X65127143Y-122374819D02*
X65031905Y-122327200D01*
X65031905Y-122327200D02*
X64984286Y-122279580D01*
D11*
X53280000Y-142180000D02*
X53280000Y-144840000D01*
X88900000Y-142180000D02*
X53280000Y-142180000D01*
X88900000Y-142180000D02*
X88900000Y-144840000D01*
X88900000Y-144840000D02*
X53280000Y-144840000D01*
X90170000Y-142180000D02*
X91500000Y-142180000D01*
X91500000Y-142180000D02*
X91500000Y-143510000D01*
X64930000Y-100190000D02*
X64930000Y-109010000D01*
X64930000Y-108200000D02*
X67470000Y-108200000D01*
X64930000Y-109010000D02*
X87470000Y-109010000D01*
X65840000Y-101900000D02*
X66580000Y-101900000D01*
X65840000Y-107200000D02*
X65840000Y-101900000D01*
X67580000Y-107200000D02*
X69580000Y-107200000D01*
X67580000Y-109010000D02*
X67580000Y-107200000D01*
X69580000Y-107200000D02*
X69580000Y-109010000D01*
X69580000Y-109010000D02*
X67580000Y-109010000D01*
X71660000Y-101900000D02*
X70580000Y-101900000D01*
X72660000Y-107200000D02*
X74660000Y-107200000D01*
X72660000Y-108200000D02*
X69580000Y-108200000D01*
X72660000Y-109010000D02*
X72660000Y-107200000D01*
X74660000Y-107200000D02*
X74660000Y-109010000D01*
X74660000Y-109010000D02*
X72660000Y-109010000D01*
X76740000Y-101900000D02*
X75660000Y-101900000D01*
X77740000Y-107200000D02*
X79740000Y-107200000D01*
X77740000Y-108200000D02*
X74660000Y-108200000D01*
X77740000Y-109010000D02*
X77740000Y-107200000D01*
X79740000Y-107200000D02*
X79740000Y-109010000D01*
X79740000Y-109010000D02*
X77740000Y-109010000D01*
X81820000Y-101900000D02*
X80740000Y-101900000D01*
X82820000Y-107200000D02*
X84820000Y-107200000D01*
X82820000Y-108200000D02*
X79740000Y-108200000D01*
X82820000Y-109010000D02*
X82820000Y-107200000D01*
X84820000Y-107200000D02*
X84820000Y-109010000D01*
X84820000Y-109010000D02*
X82820000Y-109010000D01*
X85820000Y-101900000D02*
X86560000Y-101900000D01*
X86560000Y-101900000D02*
X86560000Y-107200000D01*
X86560000Y-107200000D02*
X65840000Y-107200000D01*
X87470000Y-100190000D02*
X64930000Y-100190000D01*
X87470000Y-108200000D02*
X84930000Y-108200000D01*
X87470000Y-109010000D02*
X87470000Y-100190000D01*
X66593158Y-101884179D02*
G75*
G02*
X70580000Y-101900000I1986842J-1665821D01*
G01*
X71673158Y-101884179D02*
G75*
G02*
X75660000Y-101900000I1986842J-1665821D01*
G01*
X76753158Y-101884179D02*
G75*
G02*
X80740000Y-101900000I1986842J-1665821D01*
G01*
X81833158Y-101884179D02*
G75*
G02*
X85820000Y-101900000I1986842J-1665821D01*
G01*
X54230000Y-101900000D02*
X54230000Y-107410000D01*
X57530000Y-101900000D02*
X54230000Y-101900000D01*
X57530000Y-101900000D02*
X57530000Y-107410000D01*
X59310000Y-108920000D02*
X59310000Y-103410000D01*
X59310000Y-108920000D02*
X62610000Y-108920000D01*
X62610000Y-108920000D02*
X62610000Y-103410000D01*
X73526677Y-128869000D02*
X73526677Y-127671000D01*
X73566677Y-129132000D02*
X73566677Y-127408000D01*
X73606677Y-129332000D02*
X73606677Y-127208000D01*
X73646677Y-129500000D02*
X73646677Y-127040000D01*
X73686677Y-129648000D02*
X73686677Y-126892000D01*
X73726677Y-129780000D02*
X73726677Y-126760000D01*
X73766677Y-129900000D02*
X73766677Y-126640000D01*
X73806677Y-130012000D02*
X73806677Y-126528000D01*
X73846677Y-130116000D02*
X73846677Y-126424000D01*
X73886677Y-130214000D02*
X73886677Y-126326000D01*
X73926677Y-130307000D02*
X73926677Y-126233000D01*
X73966677Y-130395000D02*
X73966677Y-126145000D01*
X74006677Y-130479000D02*
X74006677Y-126061000D01*
X74046677Y-130559000D02*
X74046677Y-125981000D01*
X74086677Y-130635000D02*
X74086677Y-125905000D01*
X74126677Y-130709000D02*
X74126677Y-125831000D01*
X74166677Y-130780000D02*
X74166677Y-125760000D01*
X74206677Y-130849000D02*
X74206677Y-125691000D01*
X74246677Y-130915000D02*
X74246677Y-125625000D01*
X74286677Y-130979000D02*
X74286677Y-125561000D01*
X74326677Y-131040000D02*
X74326677Y-125500000D01*
X74366677Y-131100000D02*
X74366677Y-125440000D01*
X74406677Y-131159000D02*
X74406677Y-125381000D01*
X74446677Y-131215000D02*
X74446677Y-125325000D01*
X74486677Y-131270000D02*
X74486677Y-125270000D01*
X74526677Y-131324000D02*
X74526677Y-125216000D01*
X74566677Y-131376000D02*
X74566677Y-125164000D01*
X74606677Y-131426000D02*
X74606677Y-125114000D01*
X74646677Y-131476000D02*
X74646677Y-125064000D01*
X74686677Y-131524000D02*
X74686677Y-125016000D01*
X74726677Y-131571000D02*
X74726677Y-124969000D01*
X74766677Y-131617000D02*
X74766677Y-124923000D01*
X74806677Y-131662000D02*
X74806677Y-124878000D01*
X74846677Y-131706000D02*
X74846677Y-124834000D01*
X74886677Y-127029000D02*
X74886677Y-124792000D01*
X74886677Y-131748000D02*
X74886677Y-129511000D01*
X74926677Y-127029000D02*
X74926677Y-124750000D01*
X74926677Y-131790000D02*
X74926677Y-129511000D01*
X74966677Y-127029000D02*
X74966677Y-124709000D01*
X74966677Y-131831000D02*
X74966677Y-129511000D01*
X75006677Y-127029000D02*
X75006677Y-124669000D01*
X75006677Y-131871000D02*
X75006677Y-129511000D01*
X75046677Y-127029000D02*
X75046677Y-124630000D01*
X75046677Y-131910000D02*
X75046677Y-129511000D01*
X75086677Y-127029000D02*
X75086677Y-124591000D01*
X75086677Y-131949000D02*
X75086677Y-129511000D01*
X75126677Y-127029000D02*
X75126677Y-124554000D01*
X75126677Y-131986000D02*
X75126677Y-129511000D01*
X75166677Y-127029000D02*
X75166677Y-124517000D01*
X75166677Y-132023000D02*
X75166677Y-129511000D01*
X75206677Y-127029000D02*
X75206677Y-124481000D01*
X75206677Y-132059000D02*
X75206677Y-129511000D01*
X75246677Y-127029000D02*
X75246677Y-124446000D01*
X75246677Y-132094000D02*
X75246677Y-129511000D01*
X75286677Y-127029000D02*
X75286677Y-124412000D01*
X75286677Y-132128000D02*
X75286677Y-129511000D01*
X75326677Y-127029000D02*
X75326677Y-124378000D01*
X75326677Y-132162000D02*
X75326677Y-129511000D01*
X75366677Y-127029000D02*
X75366677Y-124345000D01*
X75366677Y-132195000D02*
X75366677Y-129511000D01*
X75406677Y-127029000D02*
X75406677Y-124313000D01*
X75406677Y-132227000D02*
X75406677Y-129511000D01*
X75446677Y-127029000D02*
X75446677Y-124281000D01*
X75446677Y-132259000D02*
X75446677Y-129511000D01*
X75486677Y-127029000D02*
X75486677Y-124250000D01*
X75486677Y-132290000D02*
X75486677Y-129511000D01*
X75526677Y-127029000D02*
X75526677Y-124220000D01*
X75526677Y-132320000D02*
X75526677Y-129511000D01*
X75566677Y-127029000D02*
X75566677Y-124190000D01*
X75566677Y-132350000D02*
X75566677Y-129511000D01*
X75606677Y-127029000D02*
X75606677Y-124160000D01*
X75606677Y-132380000D02*
X75606677Y-129511000D01*
X75646677Y-127029000D02*
X75646677Y-124132000D01*
X75646677Y-132408000D02*
X75646677Y-129511000D01*
X75686677Y-127029000D02*
X75686677Y-124104000D01*
X75686677Y-132436000D02*
X75686677Y-129511000D01*
X75726677Y-127029000D02*
X75726677Y-124076000D01*
X75726677Y-132464000D02*
X75726677Y-129511000D01*
X75766677Y-127029000D02*
X75766677Y-124049000D01*
X75766677Y-132491000D02*
X75766677Y-129511000D01*
X75806677Y-127029000D02*
X75806677Y-124023000D01*
X75806677Y-132517000D02*
X75806677Y-129511000D01*
X75846677Y-127029000D02*
X75846677Y-123997000D01*
X75846677Y-132543000D02*
X75846677Y-129511000D01*
X75886677Y-127029000D02*
X75886677Y-123972000D01*
X75886677Y-132568000D02*
X75886677Y-129511000D01*
X75926677Y-127029000D02*
X75926677Y-123947000D01*
X75926677Y-132593000D02*
X75926677Y-129511000D01*
X75966677Y-127029000D02*
X75966677Y-123923000D01*
X75966677Y-132617000D02*
X75966677Y-129511000D01*
X76006677Y-127029000D02*
X76006677Y-123899000D01*
X76006677Y-132641000D02*
X76006677Y-129511000D01*
X76046677Y-127029000D02*
X76046677Y-123875000D01*
X76046677Y-132665000D02*
X76046677Y-129511000D01*
X76086677Y-127029000D02*
X76086677Y-123853000D01*
X76086677Y-132687000D02*
X76086677Y-129511000D01*
X76126677Y-127029000D02*
X76126677Y-123830000D01*
X76126677Y-132710000D02*
X76126677Y-129511000D01*
X76166677Y-127029000D02*
X76166677Y-123808000D01*
X76166677Y-132732000D02*
X76166677Y-129511000D01*
X76206677Y-127029000D02*
X76206677Y-123787000D01*
X76206677Y-132753000D02*
X76206677Y-129511000D01*
X76246677Y-127029000D02*
X76246677Y-123766000D01*
X76246677Y-132774000D02*
X76246677Y-129511000D01*
X76286677Y-127029000D02*
X76286677Y-123745000D01*
X76286677Y-132795000D02*
X76286677Y-129511000D01*
X76326677Y-127029000D02*
X76326677Y-123725000D01*
X76326677Y-132815000D02*
X76326677Y-129511000D01*
X76366677Y-127029000D02*
X76366677Y-123706000D01*
X76366677Y-132834000D02*
X76366677Y-129511000D01*
X76406677Y-127029000D02*
X76406677Y-123686000D01*
X76406677Y-132854000D02*
X76406677Y-129511000D01*
X76446677Y-127029000D02*
X76446677Y-123667000D01*
X76446677Y-132873000D02*
X76446677Y-129511000D01*
X76486677Y-127029000D02*
X76486677Y-123649000D01*
X76486677Y-132891000D02*
X76486677Y-129511000D01*
X76526677Y-127029000D02*
X76526677Y-123631000D01*
X76526677Y-132909000D02*
X76526677Y-129511000D01*
X76566677Y-127029000D02*
X76566677Y-123613000D01*
X76566677Y-132927000D02*
X76566677Y-129511000D01*
X76606677Y-127029000D02*
X76606677Y-123596000D01*
X76606677Y-132944000D02*
X76606677Y-129511000D01*
X76646677Y-127029000D02*
X76646677Y-123580000D01*
X76646677Y-132960000D02*
X76646677Y-129511000D01*
X76686677Y-127029000D02*
X76686677Y-123563000D01*
X76686677Y-132977000D02*
X76686677Y-129511000D01*
X76726677Y-127029000D02*
X76726677Y-123547000D01*
X76726677Y-132993000D02*
X76726677Y-129511000D01*
X76766677Y-127029000D02*
X76766677Y-123532000D01*
X76766677Y-133008000D02*
X76766677Y-129511000D01*
X76806677Y-127029000D02*
X76806677Y-123516000D01*
X76806677Y-133024000D02*
X76806677Y-129511000D01*
X76846677Y-127029000D02*
X76846677Y-123502000D01*
X76846677Y-133038000D02*
X76846677Y-129511000D01*
X76886677Y-127029000D02*
X76886677Y-123487000D01*
X76886677Y-133053000D02*
X76886677Y-129511000D01*
X76926677Y-127029000D02*
X76926677Y-123473000D01*
X76926677Y-133067000D02*
X76926677Y-129511000D01*
X76966677Y-127029000D02*
X76966677Y-123459000D01*
X76966677Y-133081000D02*
X76966677Y-129511000D01*
X77006677Y-127029000D02*
X77006677Y-123446000D01*
X77006677Y-133094000D02*
X77006677Y-129511000D01*
X77046677Y-127029000D02*
X77046677Y-123433000D01*
X77046677Y-133107000D02*
X77046677Y-129511000D01*
X77086677Y-127029000D02*
X77086677Y-123420000D01*
X77086677Y-133120000D02*
X77086677Y-129511000D01*
X77126677Y-127029000D02*
X77126677Y-123408000D01*
X77126677Y-133132000D02*
X77126677Y-129511000D01*
X77166677Y-127029000D02*
X77166677Y-123396000D01*
X77166677Y-133144000D02*
X77166677Y-129511000D01*
X77206677Y-127029000D02*
X77206677Y-123385000D01*
X77206677Y-133155000D02*
X77206677Y-129511000D01*
X77246677Y-127029000D02*
X77246677Y-123373000D01*
X77246677Y-133167000D02*
X77246677Y-129511000D01*
X77286677Y-127029000D02*
X77286677Y-123363000D01*
X77286677Y-133177000D02*
X77286677Y-129511000D01*
X77326677Y-127029000D02*
X77326677Y-123352000D01*
X77326677Y-133188000D02*
X77326677Y-129511000D01*
X77366677Y-133198000D02*
X77366677Y-123342000D01*
X77406677Y-133208000D02*
X77406677Y-123332000D01*
X77446677Y-133217000D02*
X77446677Y-123323000D01*
X77486677Y-133226000D02*
X77486677Y-123314000D01*
X77526677Y-133235000D02*
X77526677Y-123305000D01*
X77566677Y-133244000D02*
X77566677Y-123296000D01*
X77606677Y-133252000D02*
X77606677Y-123288000D01*
X77646677Y-133260000D02*
X77646677Y-123280000D01*
X77686677Y-133267000D02*
X77686677Y-123273000D01*
X77726677Y-133274000D02*
X77726677Y-123266000D01*
X77766677Y-133281000D02*
X77766677Y-123259000D01*
X77806677Y-133288000D02*
X77806677Y-123252000D01*
X77846677Y-133294000D02*
X77846677Y-123246000D01*
X77886677Y-133300000D02*
X77886677Y-123240000D01*
X77927677Y-133305000D02*
X77927677Y-123235000D01*
X77967677Y-133310000D02*
X77967677Y-123230000D01*
X78007677Y-133315000D02*
X78007677Y-123225000D01*
X78047677Y-133320000D02*
X78047677Y-123220000D01*
X78087677Y-133324000D02*
X78087677Y-123216000D01*
X78127677Y-133328000D02*
X78127677Y-123212000D01*
X78167677Y-133332000D02*
X78167677Y-123208000D01*
X78207677Y-133335000D02*
X78207677Y-123205000D01*
X78247677Y-133338000D02*
X78247677Y-123202000D01*
X78287677Y-133340000D02*
X78287677Y-123200000D01*
X78327677Y-133343000D02*
X78327677Y-123197000D01*
X78367677Y-133345000D02*
X78367677Y-123195000D01*
X78407677Y-133347000D02*
X78407677Y-123193000D01*
X78447677Y-133348000D02*
X78447677Y-123192000D01*
X78487677Y-133349000D02*
X78487677Y-123191000D01*
X78527677Y-133350000D02*
X78527677Y-123190000D01*
X78567677Y-133350000D02*
X78567677Y-123190000D01*
X78607677Y-133350000D02*
X78607677Y-123190000D01*
X83587323Y-131645000D02*
X83587323Y-130645000D01*
X84087323Y-131145000D02*
X83087323Y-131145000D01*
X83727677Y-128270000D02*
G75*
G02*
X73487677Y-128270000I-5120000J0D01*
G01*
X73487677Y-128270000D02*
G75*
G02*
X83727677Y-128270000I5120000J0D01*
G01*
X53280000Y-138490000D02*
X53280000Y-137160000D01*
X54610000Y-138490000D02*
X53280000Y-138490000D01*
X55880000Y-135830000D02*
X91500000Y-135830000D01*
X55880000Y-138490000D02*
X55880000Y-135830000D01*
X55880000Y-138490000D02*
X91500000Y-138490000D01*
X91500000Y-138490000D02*
X91500000Y-135830000D01*
X53280000Y-160080000D02*
X53280000Y-158750000D01*
X54610000Y-160080000D02*
X53280000Y-160080000D01*
X55880000Y-157420000D02*
X91500000Y-157420000D01*
X55880000Y-160080000D02*
X55880000Y-157420000D01*
X55880000Y-160080000D02*
X91500000Y-160080000D01*
X91500000Y-160080000D02*
X91500000Y-157420000D01*
X63850000Y-116460000D02*
X63850000Y-112800000D01*
X63850000Y-116460000D02*
X65750000Y-116460000D01*
X65750000Y-116460000D02*
X65750000Y-112800000D01*
X46560000Y-101560000D02*
X46560000Y-106060000D01*
X46560000Y-106060000D02*
X48130000Y-106060000D01*
X46560000Y-117460000D02*
X46560000Y-121960000D01*
X46560000Y-117460000D02*
X48130000Y-117460000D01*
X46560000Y-121960000D02*
X48130000Y-121960000D01*
X47030000Y-106060000D02*
X47030000Y-117460000D01*
X48130000Y-101560000D02*
X46560000Y-101560000D01*
X50930000Y-101560000D02*
X52500000Y-101560000D01*
X52030000Y-106060000D02*
X52030000Y-117460000D01*
X52500000Y-106060000D02*
X50930000Y-106060000D01*
X52500000Y-106060000D02*
X52500000Y-101560000D01*
X52500000Y-117460000D02*
X50930000Y-117460000D01*
X52500000Y-117460000D02*
X52500000Y-121960000D01*
X52500000Y-121960000D02*
X50930000Y-121960000D01*
X88474379Y-120829226D02*
G75*
G02*
X86703001Y-120720729I-971379J-1344774D01*
G01*
X58159774Y-131781379D02*
G75*
G02*
X58268271Y-130010001I-1344774J971379D01*
G01*
X88820000Y-126265000D02*
X88820000Y-126580000D01*
X88820000Y-126265000D02*
X94060000Y-126265000D01*
X88820000Y-128690000D02*
X88820000Y-129005000D01*
X88820000Y-129005000D02*
X94060000Y-129005000D01*
X94060000Y-126265000D02*
X94060000Y-126580000D01*
X94060000Y-128690000D02*
X94060000Y-129005000D01*
X59410000Y-110810000D02*
X55750000Y-110810000D01*
X59410000Y-112710000D02*
X55750000Y-112710000D01*
X59410000Y-112710000D02*
X59410000Y-110810000D01*
X67384774Y-126701379D02*
G75*
G02*
X67493271Y-124930001I-1344774J971379D01*
G01*
X67384774Y-131781379D02*
G75*
G02*
X67493271Y-130010001I-1344774J971379D01*
G01*
X93419774Y-107397379D02*
G75*
G02*
X93528271Y-105626001I-1344774J971379D01*
G01*
X72925000Y-114220000D02*
X72925000Y-119460000D01*
X73240000Y-114220000D02*
X72925000Y-114220000D01*
X73240000Y-119460000D02*
X72925000Y-119460000D01*
X75665000Y-114220000D02*
X75350000Y-114220000D01*
X75665000Y-114220000D02*
X75665000Y-119460000D01*
X75665000Y-119460000D02*
X75350000Y-119460000D01*
X90150000Y-121285000D02*
X90150000Y-119335000D01*
X90150000Y-121285000D02*
X90150000Y-123235000D01*
X95270000Y-121285000D02*
X95270000Y-119335000D01*
X95270000Y-121285000D02*
X95270000Y-123235000D01*
X90245000Y-123985000D02*
X89915000Y-124225000D01*
X89915000Y-123745000D01*
X90245000Y-123985000D01*
G36*
X90245000Y-123985000D02*
G01*
X89915000Y-124225000D01*
X89915000Y-123745000D01*
X90245000Y-123985000D01*
G37*
X66440000Y-118800000D02*
X66440000Y-116850000D01*
X66440000Y-118800000D02*
X66440000Y-120750000D01*
X71560000Y-118800000D02*
X71560000Y-116850000D01*
X71560000Y-118800000D02*
X71560000Y-120750000D01*
X71795000Y-116340000D02*
X71465000Y-116100000D01*
X71795000Y-115860000D01*
X71795000Y-116340000D01*
G36*
X71795000Y-116340000D02*
G01*
X71465000Y-116100000D01*
X71795000Y-115860000D01*
X71795000Y-116340000D01*
G37*
X85369000Y-116840000D02*
G75*
G02*
X76429000Y-116840000I-4470000J0D01*
G01*
X76429000Y-116840000D02*
G75*
G02*
X85369000Y-116840000I4470000J0D01*
G01*
X83780000Y-131980000D02*
X83780000Y-132295000D01*
X83780000Y-131980000D02*
X89020000Y-131980000D01*
X83780000Y-134405000D02*
X83780000Y-134720000D01*
X83780000Y-134720000D02*
X89020000Y-134720000D01*
X89020000Y-131980000D02*
X89020000Y-132295000D01*
X89020000Y-134405000D02*
X89020000Y-134720000D01*
X91765000Y-113155000D02*
X91765000Y-111695000D01*
X91765000Y-113155000D02*
X92695000Y-113155000D01*
X94925000Y-112355000D02*
X94925000Y-111555000D01*
X94925000Y-112355000D02*
X94925000Y-113155000D01*
X94925000Y-113155000D02*
X93995000Y-113155000D01*
X95285000Y-111295000D02*
X94955000Y-111055000D01*
X95285000Y-110815000D01*
X95285000Y-111295000D01*
G36*
X95285000Y-111295000D02*
G01*
X94955000Y-111055000D01*
X95285000Y-110815000D01*
X95285000Y-111295000D01*
G37*
X53280000Y-163770000D02*
X53280000Y-166430000D01*
X88900000Y-163770000D02*
X53280000Y-163770000D01*
X88900000Y-163770000D02*
X88900000Y-166430000D01*
X88900000Y-166430000D02*
X53280000Y-166430000D01*
X90170000Y-163770000D02*
X91500000Y-163770000D01*
X91500000Y-163770000D02*
X91500000Y-165100000D01*
X90105000Y-102930000D02*
X90105000Y-101600000D01*
X91435000Y-102930000D02*
X90105000Y-102930000D01*
X92705000Y-100270000D02*
X95305000Y-100270000D01*
X92705000Y-102930000D02*
X92705000Y-100270000D01*
X92705000Y-102930000D02*
X95305000Y-102930000D01*
X95305000Y-102930000D02*
X95305000Y-100270000D01*
X48200000Y-128275000D02*
X48200000Y-125675000D01*
X50860000Y-125675000D02*
X48200000Y-125675000D01*
X50860000Y-128275000D02*
X48200000Y-128275000D01*
X50860000Y-128275000D02*
X50860000Y-125675000D01*
X50860000Y-129545000D02*
X50860000Y-130875000D01*
X50860000Y-130875000D02*
X49530000Y-130875000D01*
X53920000Y-119187677D02*
X64080000Y-119187677D01*
X53920000Y-119227677D02*
X64080000Y-119227677D01*
X53920000Y-119267677D02*
X64080000Y-119267677D01*
X53921000Y-119147677D02*
X64079000Y-119147677D01*
X53922000Y-119107677D02*
X64078000Y-119107677D01*
X53923000Y-119067677D02*
X64077000Y-119067677D01*
X53925000Y-119027677D02*
X64075000Y-119027677D01*
X53927000Y-118987677D02*
X64073000Y-118987677D01*
X53930000Y-118947677D02*
X64070000Y-118947677D01*
X53932000Y-118907677D02*
X64068000Y-118907677D01*
X53935000Y-118867677D02*
X64065000Y-118867677D01*
X53938000Y-118827677D02*
X64062000Y-118827677D01*
X53942000Y-118787677D02*
X64058000Y-118787677D01*
X53946000Y-118747677D02*
X64054000Y-118747677D01*
X53950000Y-118707677D02*
X64050000Y-118707677D01*
X53955000Y-118667677D02*
X64045000Y-118667677D01*
X53960000Y-118627677D02*
X64040000Y-118627677D01*
X53965000Y-118587677D02*
X64035000Y-118587677D01*
X53970000Y-118546677D02*
X64030000Y-118546677D01*
X53976000Y-118506677D02*
X64024000Y-118506677D01*
X53982000Y-118466677D02*
X64018000Y-118466677D01*
X53989000Y-118426677D02*
X64011000Y-118426677D01*
X53996000Y-118386677D02*
X64004000Y-118386677D01*
X54003000Y-118346677D02*
X63997000Y-118346677D01*
X54010000Y-118306677D02*
X63990000Y-118306677D01*
X54018000Y-118266677D02*
X63982000Y-118266677D01*
X54026000Y-118226677D02*
X63974000Y-118226677D01*
X54035000Y-118186677D02*
X63965000Y-118186677D01*
X54044000Y-118146677D02*
X63956000Y-118146677D01*
X54053000Y-118106677D02*
X63947000Y-118106677D01*
X54062000Y-118066677D02*
X63938000Y-118066677D01*
X54072000Y-118026677D02*
X63928000Y-118026677D01*
X54082000Y-117986677D02*
X57759000Y-117986677D01*
X54093000Y-117946677D02*
X57759000Y-117946677D01*
X54103000Y-117906677D02*
X57759000Y-117906677D01*
X54115000Y-117866677D02*
X57759000Y-117866677D01*
X54126000Y-117826677D02*
X57759000Y-117826677D01*
X54138000Y-117786677D02*
X57759000Y-117786677D01*
X54150000Y-117746677D02*
X57759000Y-117746677D01*
X54163000Y-117706677D02*
X57759000Y-117706677D01*
X54176000Y-117666677D02*
X57759000Y-117666677D01*
X54189000Y-117626677D02*
X57759000Y-117626677D01*
X54203000Y-117586677D02*
X57759000Y-117586677D01*
X54217000Y-117546677D02*
X57759000Y-117546677D01*
X54232000Y-117506677D02*
X57759000Y-117506677D01*
X54246000Y-117466677D02*
X57759000Y-117466677D01*
X54262000Y-117426677D02*
X57759000Y-117426677D01*
X54277000Y-117386677D02*
X57759000Y-117386677D01*
X54293000Y-117346677D02*
X57759000Y-117346677D01*
X54310000Y-117306677D02*
X57759000Y-117306677D01*
X54326000Y-117266677D02*
X57759000Y-117266677D01*
X54343000Y-117226677D02*
X57759000Y-117226677D01*
X54361000Y-117186677D02*
X57759000Y-117186677D01*
X54379000Y-117146677D02*
X57759000Y-117146677D01*
X54397000Y-117106677D02*
X57759000Y-117106677D01*
X54416000Y-117066677D02*
X57759000Y-117066677D01*
X54436000Y-117026677D02*
X57759000Y-117026677D01*
X54455000Y-116986677D02*
X57759000Y-116986677D01*
X54475000Y-116946677D02*
X57759000Y-116946677D01*
X54496000Y-116906677D02*
X57759000Y-116906677D01*
X54517000Y-116866677D02*
X57759000Y-116866677D01*
X54538000Y-116826677D02*
X57759000Y-116826677D01*
X54560000Y-116786677D02*
X57759000Y-116786677D01*
X54583000Y-116746677D02*
X57759000Y-116746677D01*
X54605000Y-116706677D02*
X57759000Y-116706677D01*
X54629000Y-116666677D02*
X57759000Y-116666677D01*
X54653000Y-116626677D02*
X57759000Y-116626677D01*
X54677000Y-116586677D02*
X57759000Y-116586677D01*
X54702000Y-116546677D02*
X57759000Y-116546677D01*
X54727000Y-116506677D02*
X57759000Y-116506677D01*
X54753000Y-116466677D02*
X57759000Y-116466677D01*
X54779000Y-116426677D02*
X57759000Y-116426677D01*
X54806000Y-116386677D02*
X57759000Y-116386677D01*
X54834000Y-116346677D02*
X57759000Y-116346677D01*
X54862000Y-116306677D02*
X57759000Y-116306677D01*
X54890000Y-116266677D02*
X57759000Y-116266677D01*
X54920000Y-116226677D02*
X57759000Y-116226677D01*
X54950000Y-116186677D02*
X57759000Y-116186677D01*
X54980000Y-116146677D02*
X57759000Y-116146677D01*
X55011000Y-116106677D02*
X57759000Y-116106677D01*
X55043000Y-116066677D02*
X57759000Y-116066677D01*
X55075000Y-116026677D02*
X57759000Y-116026677D01*
X55108000Y-115986677D02*
X57759000Y-115986677D01*
X55142000Y-115946677D02*
X57759000Y-115946677D01*
X55176000Y-115906677D02*
X57759000Y-115906677D01*
X55211000Y-115866677D02*
X57759000Y-115866677D01*
X55247000Y-115826677D02*
X57759000Y-115826677D01*
X55284000Y-115786677D02*
X57759000Y-115786677D01*
X55321000Y-115746677D02*
X57759000Y-115746677D01*
X55360000Y-115706677D02*
X57759000Y-115706677D01*
X55399000Y-115666677D02*
X57759000Y-115666677D01*
X55439000Y-115626677D02*
X57759000Y-115626677D01*
X55480000Y-115586677D02*
X57759000Y-115586677D01*
X55522000Y-115546677D02*
X57759000Y-115546677D01*
X55564000Y-115506677D02*
X62436000Y-115506677D01*
X55608000Y-115466677D02*
X62392000Y-115466677D01*
X55625000Y-124247323D02*
X56625000Y-124247323D01*
X55653000Y-115426677D02*
X62347000Y-115426677D01*
X55699000Y-115386677D02*
X62301000Y-115386677D01*
X55746000Y-115346677D02*
X62254000Y-115346677D01*
X55794000Y-115306677D02*
X62206000Y-115306677D01*
X55844000Y-115266677D02*
X62156000Y-115266677D01*
X55894000Y-115226677D02*
X62106000Y-115226677D01*
X55946000Y-115186677D02*
X62054000Y-115186677D01*
X56000000Y-115146677D02*
X62000000Y-115146677D01*
X56055000Y-115106677D02*
X61945000Y-115106677D01*
X56111000Y-115066677D02*
X61889000Y-115066677D01*
X56125000Y-124747323D02*
X56125000Y-123747323D01*
X56170000Y-115026677D02*
X61830000Y-115026677D01*
X56230000Y-114986677D02*
X61770000Y-114986677D01*
X56291000Y-114946677D02*
X61709000Y-114946677D01*
X56355000Y-114906677D02*
X61645000Y-114906677D01*
X56421000Y-114866677D02*
X61579000Y-114866677D01*
X56490000Y-114826677D02*
X61510000Y-114826677D01*
X56561000Y-114786677D02*
X61439000Y-114786677D01*
X56635000Y-114746677D02*
X61365000Y-114746677D01*
X56711000Y-114706677D02*
X61289000Y-114706677D01*
X56791000Y-114666677D02*
X61209000Y-114666677D01*
X56875000Y-114626677D02*
X61125000Y-114626677D01*
X56963000Y-114586677D02*
X61037000Y-114586677D01*
X57056000Y-114546677D02*
X60944000Y-114546677D01*
X57154000Y-114506677D02*
X60846000Y-114506677D01*
X57258000Y-114466677D02*
X60742000Y-114466677D01*
X57370000Y-114426677D02*
X60630000Y-114426677D01*
X57490000Y-114386677D02*
X60510000Y-114386677D01*
X57622000Y-114346677D02*
X60378000Y-114346677D01*
X57770000Y-114306677D02*
X60230000Y-114306677D01*
X57938000Y-114266677D02*
X60062000Y-114266677D01*
X58138000Y-114226677D02*
X59862000Y-114226677D01*
X58401000Y-114186677D02*
X59599000Y-114186677D01*
X60241000Y-115546677D02*
X62478000Y-115546677D01*
X60241000Y-115586677D02*
X62520000Y-115586677D01*
X60241000Y-115626677D02*
X62561000Y-115626677D01*
X60241000Y-115666677D02*
X62601000Y-115666677D01*
X60241000Y-115706677D02*
X62640000Y-115706677D01*
X60241000Y-115746677D02*
X62679000Y-115746677D01*
X60241000Y-115786677D02*
X62716000Y-115786677D01*
X60241000Y-115826677D02*
X62753000Y-115826677D01*
X60241000Y-115866677D02*
X62789000Y-115866677D01*
X60241000Y-115906677D02*
X62824000Y-115906677D01*
X60241000Y-115946677D02*
X62858000Y-115946677D01*
X60241000Y-115986677D02*
X62892000Y-115986677D01*
X60241000Y-116026677D02*
X62925000Y-116026677D01*
X60241000Y-116066677D02*
X62957000Y-116066677D01*
X60241000Y-116106677D02*
X62989000Y-116106677D01*
X60241000Y-116146677D02*
X63020000Y-116146677D01*
X60241000Y-116186677D02*
X63050000Y-116186677D01*
X60241000Y-116226677D02*
X63080000Y-116226677D01*
X60241000Y-116266677D02*
X63110000Y-116266677D01*
X60241000Y-116306677D02*
X63138000Y-116306677D01*
X60241000Y-116346677D02*
X63166000Y-116346677D01*
X60241000Y-116386677D02*
X63194000Y-116386677D01*
X60241000Y-116426677D02*
X63221000Y-116426677D01*
X60241000Y-116466677D02*
X63247000Y-116466677D01*
X60241000Y-116506677D02*
X63273000Y-116506677D01*
X60241000Y-116546677D02*
X63298000Y-116546677D01*
X60241000Y-116586677D02*
X63323000Y-116586677D01*
X60241000Y-116626677D02*
X63347000Y-116626677D01*
X60241000Y-116666677D02*
X63371000Y-116666677D01*
X60241000Y-116706677D02*
X63395000Y-116706677D01*
X60241000Y-116746677D02*
X63417000Y-116746677D01*
X60241000Y-116786677D02*
X63440000Y-116786677D01*
X60241000Y-116826677D02*
X63462000Y-116826677D01*
X60241000Y-116866677D02*
X63483000Y-116866677D01*
X60241000Y-116906677D02*
X63504000Y-116906677D01*
X60241000Y-116946677D02*
X63525000Y-116946677D01*
X60241000Y-116986677D02*
X63545000Y-116986677D01*
X60241000Y-117026677D02*
X63564000Y-117026677D01*
X60241000Y-117066677D02*
X63584000Y-117066677D01*
X60241000Y-117106677D02*
X63603000Y-117106677D01*
X60241000Y-117146677D02*
X63621000Y-117146677D01*
X60241000Y-117186677D02*
X63639000Y-117186677D01*
X60241000Y-117226677D02*
X63657000Y-117226677D01*
X60241000Y-117266677D02*
X63674000Y-117266677D01*
X60241000Y-117306677D02*
X63690000Y-117306677D01*
X60241000Y-117346677D02*
X63707000Y-117346677D01*
X60241000Y-117386677D02*
X63723000Y-117386677D01*
X60241000Y-117426677D02*
X63738000Y-117426677D01*
X60241000Y-117466677D02*
X63754000Y-117466677D01*
X60241000Y-117506677D02*
X63768000Y-117506677D01*
X60241000Y-117546677D02*
X63783000Y-117546677D01*
X60241000Y-117586677D02*
X63797000Y-117586677D01*
X60241000Y-117626677D02*
X63811000Y-117626677D01*
X60241000Y-117666677D02*
X63824000Y-117666677D01*
X60241000Y-117706677D02*
X63837000Y-117706677D01*
X60241000Y-117746677D02*
X63850000Y-117746677D01*
X60241000Y-117786677D02*
X63862000Y-117786677D01*
X60241000Y-117826677D02*
X63874000Y-117826677D01*
X60241000Y-117866677D02*
X63885000Y-117866677D01*
X60241000Y-117906677D02*
X63897000Y-117906677D01*
X60241000Y-117946677D02*
X63907000Y-117946677D01*
X60241000Y-117986677D02*
X63918000Y-117986677D01*
X64120000Y-119267677D02*
G75*
G02*
X53880000Y-119267677I-5120000J0D01*
G01*
X53880000Y-119267677D02*
G75*
G02*
X64120000Y-119267677I5120000J0D01*
G01*
M02*
