G04 #@! TF.GenerationSoftware,KiCad,Pcbnew,8.0.1-8.0.1-1~ubuntu22.04.1*
G04 #@! TF.CreationDate,2024-04-21T12:37:43+02:00*
G04 #@! TF.ProjectId,MCU_Board,4d43555f-426f-4617-9264-2e6b69636164,rev?*
G04 #@! TF.SameCoordinates,Original*
G04 #@! TF.FileFunction,Paste,Top*
G04 #@! TF.FilePolarity,Positive*
%FSLAX46Y46*%
G04 Gerber Fmt 4.6, Leading zero omitted, Abs format (unit mm)*
G04 Created by KiCad (PCBNEW 8.0.1-8.0.1-1~ubuntu22.04.1) date 2024-04-21 12:37:43*
%MOMM*%
%LPD*%
G01*
G04 APERTURE LIST*
G04 Aperture macros list*
%AMRoundRect*
0 Rectangle with rounded corners*
0 $1 Rounding radius*
0 $2 $3 $4 $5 $6 $7 $8 $9 X,Y pos of 4 corners*
0 Add a 4 corners polygon primitive as box body*
4,1,4,$2,$3,$4,$5,$6,$7,$8,$9,$2,$3,0*
0 Add four circle primitives for the rounded corners*
1,1,$1+$1,$2,$3*
1,1,$1+$1,$4,$5*
1,1,$1+$1,$6,$7*
1,1,$1+$1,$8,$9*
0 Add four rect primitives between the rounded corners*
20,1,$1+$1,$2,$3,$4,$5,0*
20,1,$1+$1,$4,$5,$6,$7,0*
20,1,$1+$1,$6,$7,$8,$9,0*
20,1,$1+$1,$8,$9,$2,$3,0*%
G04 Aperture macros list end*
%ADD10R,0.900000X1.700000*%
%ADD11RoundRect,0.250000X-0.337500X-0.475000X0.337500X-0.475000X0.337500X0.475000X-0.337500X0.475000X0*%
%ADD12RoundRect,0.250000X-0.650000X1.000000X-0.650000X-1.000000X0.650000X-1.000000X0.650000X1.000000X0*%
%ADD13RoundRect,0.125000X0.125000X-0.625000X0.125000X0.625000X-0.125000X0.625000X-0.125000X-0.625000X0*%
%ADD14RoundRect,0.125000X0.625000X-0.125000X0.625000X0.125000X-0.625000X0.125000X-0.625000X-0.125000X0*%
%ADD15RoundRect,0.250000X0.650000X-1.000000X0.650000X1.000000X-0.650000X1.000000X-0.650000X-1.000000X0*%
%ADD16RoundRect,0.250000X-0.450000X0.350000X-0.450000X-0.350000X0.450000X-0.350000X0.450000X0.350000X0*%
%ADD17RoundRect,0.250000X-0.475000X0.337500X-0.475000X-0.337500X0.475000X-0.337500X0.475000X0.337500X0*%
%ADD18R,1.200000X1.200000*%
%ADD19RoundRect,0.250000X-0.350000X-0.450000X0.350000X-0.450000X0.350000X0.450000X-0.350000X0.450000X0*%
%ADD20RoundRect,0.250000X0.337500X0.475000X-0.337500X0.475000X-0.337500X-0.475000X0.337500X-0.475000X0*%
%ADD21RoundRect,0.250000X0.475000X-0.337500X0.475000X0.337500X-0.475000X0.337500X-0.475000X-0.337500X0*%
%ADD22RoundRect,0.250000X-0.275000X-0.350000X0.275000X-0.350000X0.275000X0.350000X-0.275000X0.350000X0*%
%ADD23RoundRect,0.150000X-0.825000X-0.150000X0.825000X-0.150000X0.825000X0.150000X-0.825000X0.150000X0*%
%ADD24RoundRect,0.150000X-0.150000X0.825000X-0.150000X-0.825000X0.150000X-0.825000X0.150000X0.825000X0*%
%ADD25RoundRect,0.200000X-0.750000X-0.200000X0.750000X-0.200000X0.750000X0.200000X-0.750000X0.200000X0*%
G04 APERTURE END LIST*
D10*
X51700000Y-152000000D03*
X48300000Y-152000000D03*
D11*
X79725000Y-125800000D03*
X81800000Y-125800000D03*
D12*
X55880000Y-103410000D03*
X55880000Y-107410000D03*
D13*
X75200000Y-139675000D03*
X76000000Y-139675000D03*
X76800000Y-139675000D03*
X77600000Y-139675000D03*
X78400000Y-139675000D03*
X79200000Y-139675000D03*
X80000000Y-139675000D03*
X80800000Y-139675000D03*
D14*
X82175000Y-138300000D03*
X82175000Y-137500000D03*
X82175000Y-136700000D03*
X82175000Y-135900000D03*
X82175000Y-135100000D03*
X82175000Y-134300000D03*
X82175000Y-133500000D03*
X82175000Y-132700000D03*
D13*
X80800000Y-131325000D03*
X80000000Y-131325000D03*
X79200000Y-131325000D03*
X78400000Y-131325000D03*
X77600000Y-131325000D03*
X76800000Y-131325000D03*
X76000000Y-131325000D03*
X75200000Y-131325000D03*
D14*
X73825000Y-132700000D03*
X73825000Y-133500000D03*
X73825000Y-134300000D03*
X73825000Y-135100000D03*
X73825000Y-135900000D03*
X73825000Y-136700000D03*
X73825000Y-137500000D03*
X73825000Y-138300000D03*
D15*
X60960000Y-107410000D03*
X60960000Y-103410000D03*
D16*
X69800000Y-141800000D03*
X69800000Y-143800000D03*
D17*
X84000000Y-147762500D03*
X84000000Y-149837500D03*
D18*
X64800000Y-115600000D03*
X64800000Y-112800000D03*
D11*
X49162500Y-148600000D03*
X51237500Y-148600000D03*
D19*
X87600000Y-112400000D03*
X89600000Y-112400000D03*
X58200000Y-126200000D03*
X60200000Y-126200000D03*
D20*
X83437500Y-115400000D03*
X81362500Y-115400000D03*
D18*
X58550000Y-111760000D03*
X55750000Y-111760000D03*
D21*
X72400000Y-143800000D03*
X72400000Y-141725000D03*
D19*
X68800000Y-124100000D03*
X70800000Y-124100000D03*
X62800000Y-126200000D03*
X64800000Y-126200000D03*
D16*
X94200000Y-104800000D03*
X94200000Y-106800000D03*
D20*
X70637500Y-113000000D03*
X68562500Y-113000000D03*
D22*
X90250000Y-151400000D03*
X92550000Y-151400000D03*
D23*
X85925000Y-114695000D03*
X85925000Y-115965000D03*
X85925000Y-117235000D03*
X85925000Y-118505000D03*
X90875000Y-118505000D03*
X90875000Y-117235000D03*
X90875000Y-115965000D03*
X90875000Y-114695000D03*
D24*
X70905000Y-116325000D03*
X69635000Y-116325000D03*
X68365000Y-116325000D03*
X67095000Y-116325000D03*
X67095000Y-121275000D03*
X68365000Y-121275000D03*
X69635000Y-121275000D03*
X70905000Y-121275000D03*
D17*
X69200000Y-147762500D03*
X69200000Y-149837500D03*
D25*
X90500000Y-121050000D03*
X90500000Y-122950000D03*
X93500000Y-122000000D03*
D11*
X90362500Y-149000000D03*
X92437500Y-149000000D03*
M02*
