G04 #@! TF.GenerationSoftware,KiCad,Pcbnew,7.0.6*
G04 #@! TF.CreationDate,2023-08-02T00:38:46+02:00*
G04 #@! TF.ProjectId,MCU_Board,4d43555f-426f-4617-9264-2e6b69636164,rev?*
G04 #@! TF.SameCoordinates,Original*
G04 #@! TF.FileFunction,Copper,L2,Bot*
G04 #@! TF.FilePolarity,Positive*
%FSLAX46Y46*%
G04 Gerber Fmt 4.6, Leading zero omitted, Abs format (unit mm)*
G04 Created by KiCad (PCBNEW 7.0.6) date 2023-08-02 00:38:46*
%MOMM*%
%LPD*%
G01*
G04 APERTURE LIST*
G04 #@! TA.AperFunction,ComponentPad*
%ADD10O,1.200000X1.900000*%
G04 #@! TD*
G04 #@! TA.AperFunction,ComponentPad*
%ADD11C,1.500000*%
G04 #@! TD*
G04 #@! TA.AperFunction,ComponentPad*
%ADD12O,1.700000X1.700000*%
G04 #@! TD*
G04 #@! TA.AperFunction,ComponentPad*
%ADD13O,2.080000X3.600000*%
G04 #@! TD*
G04 #@! TA.AperFunction,ComponentPad*
%ADD14R,1.700000X1.700000*%
G04 #@! TD*
G04 #@! TA.AperFunction,ViaPad*
%ADD15C,0.800000*%
G04 #@! TD*
G04 #@! TA.AperFunction,Conductor*
%ADD16C,1.000000*%
G04 #@! TD*
G04 #@! TA.AperFunction,Conductor*
%ADD17C,0.500000*%
G04 #@! TD*
G04 #@! TA.AperFunction,Conductor*
%ADD18C,0.300000*%
G04 #@! TD*
G04 APERTURE END LIST*
D10*
X81967402Y-127393402D03*
X79427402Y-127393402D03*
X76887402Y-127393402D03*
X74347402Y-127393402D03*
D11*
X79460000Y-145756000D03*
X84360000Y-145756000D03*
D12*
X68580000Y-127000000D03*
X68580000Y-129540000D03*
X68580000Y-132080000D03*
X68580000Y-134620000D03*
X68580000Y-137160000D03*
X68580000Y-139700000D03*
X68580000Y-142240000D03*
X68580000Y-144780000D03*
X93980000Y-126960000D03*
X93980000Y-129500000D03*
X93980000Y-132040000D03*
X93980000Y-134580000D03*
X93980000Y-137120000D03*
X93980000Y-139660000D03*
X93980000Y-142200000D03*
X93980000Y-144740000D03*
D13*
X88910000Y-104100000D03*
X83830000Y-104100000D03*
X78750000Y-104100000D03*
X73670000Y-104100000D03*
D14*
X93740000Y-113700000D03*
D12*
X91200000Y-113700000D03*
X86960000Y-124420000D03*
X89500000Y-124420000D03*
X86960000Y-126960000D03*
X89500000Y-126960000D03*
X86960000Y-129500000D03*
X89500000Y-129500000D03*
X86960000Y-132040000D03*
X89500000Y-132040000D03*
X86960000Y-134580000D03*
X89500000Y-134580000D03*
X86960000Y-137120000D03*
X89500000Y-137120000D03*
X86960000Y-139660000D03*
X89500000Y-139660000D03*
D15*
X78300000Y-142100000D03*
X81200000Y-129800000D03*
X80085689Y-129628545D03*
X79137419Y-129312651D03*
D16*
X87715000Y-122515000D02*
X89620000Y-124420000D01*
X80100000Y-104100000D02*
X78750000Y-104100000D01*
X81967402Y-127043402D02*
X86495804Y-122515000D01*
X81967402Y-127393402D02*
X81967402Y-105967402D01*
X81967402Y-105967402D02*
X80100000Y-104100000D01*
X86495804Y-122515000D02*
X87715000Y-122515000D01*
D17*
X75620000Y-144780000D02*
X69267402Y-144780000D01*
X78300000Y-142100000D02*
X75620000Y-144780000D01*
D16*
X69267402Y-126885402D02*
X71267402Y-126885402D01*
X72970804Y-125182000D02*
X77566000Y-125182000D01*
X77566000Y-125182000D02*
X79427402Y-127043402D01*
X71267402Y-126885402D02*
X72970804Y-125182000D01*
D18*
X93500000Y-133240000D02*
X94700000Y-132040000D01*
X81200000Y-129800000D02*
X84640000Y-133240000D01*
X84640000Y-133240000D02*
X93500000Y-133240000D01*
X86119339Y-135780000D02*
X93500000Y-135780000D01*
X80085689Y-129628545D02*
X80085689Y-129746350D01*
X93500000Y-135780000D02*
X94700000Y-134580000D01*
X80085689Y-129746350D02*
X86119339Y-135780000D01*
X86462943Y-138320000D02*
X93500000Y-138320000D01*
X93500000Y-138320000D02*
X94700000Y-137120000D01*
X79137419Y-130994476D02*
X86462943Y-138320000D01*
X79137419Y-129312651D02*
X79137419Y-130994476D01*
G04 #@! TA.AperFunction,Conductor*
G36*
X89693039Y-138998185D02*
G01*
X89738794Y-139050989D01*
X89750000Y-139102500D01*
X89750000Y-139224498D01*
X89642315Y-139175320D01*
X89535763Y-139160000D01*
X89464237Y-139160000D01*
X89357685Y-139175320D01*
X89250000Y-139224498D01*
X89250000Y-139102500D01*
X89269685Y-139035461D01*
X89322489Y-138989706D01*
X89374000Y-138978500D01*
X89626000Y-138978500D01*
X89693039Y-138998185D01*
G37*
G04 #@! TD.AperFunction*
G04 #@! TA.AperFunction,Conductor*
G36*
X89357685Y-137604680D02*
G01*
X89464237Y-137620000D01*
X89535763Y-137620000D01*
X89642315Y-137604680D01*
X89743895Y-137558289D01*
X89730315Y-137604539D01*
X89677511Y-137650294D01*
X89626000Y-137661500D01*
X89374000Y-137661500D01*
X89306961Y-137641815D01*
X89261206Y-137589011D01*
X89254348Y-137557487D01*
X89357685Y-137604680D01*
G37*
G04 #@! TD.AperFunction*
G04 #@! TA.AperFunction,Conductor*
G36*
X92672731Y-136458185D02*
G01*
X92718486Y-136510989D01*
X92728430Y-136580147D01*
X92719248Y-136612310D01*
X92690703Y-136677385D01*
X92635436Y-136895628D01*
X92635434Y-136895640D01*
X92616844Y-137119994D01*
X92616844Y-137120005D01*
X92635434Y-137344359D01*
X92635436Y-137344371D01*
X92676635Y-137507060D01*
X92674010Y-137576880D01*
X92634054Y-137634198D01*
X92569452Y-137660814D01*
X92556429Y-137661500D01*
X90914129Y-137661500D01*
X90847090Y-137641815D01*
X90801335Y-137589011D01*
X90791391Y-137519853D01*
X90794354Y-137505406D01*
X90830636Y-137370000D01*
X89933686Y-137370000D01*
X89959493Y-137329844D01*
X90000000Y-137191889D01*
X90000000Y-137048111D01*
X89959493Y-136910156D01*
X89933686Y-136870000D01*
X90830636Y-136870000D01*
X90830635Y-136869999D01*
X90773432Y-136656513D01*
X90773431Y-136656511D01*
X90754030Y-136614904D01*
X90743539Y-136545826D01*
X90772059Y-136482043D01*
X90830536Y-136443803D01*
X90866413Y-136438500D01*
X92605692Y-136438500D01*
X92672731Y-136458185D01*
G37*
G04 #@! TD.AperFunction*
G04 #@! TA.AperFunction,Conductor*
G36*
X89693039Y-136458185D02*
G01*
X89738794Y-136510989D01*
X89750000Y-136562500D01*
X89750000Y-136684498D01*
X89642315Y-136635320D01*
X89535763Y-136620000D01*
X89464237Y-136620000D01*
X89357685Y-136635320D01*
X89250000Y-136684498D01*
X89250000Y-136562500D01*
X89269685Y-136495461D01*
X89322489Y-136449706D01*
X89374000Y-136438500D01*
X89626000Y-136438500D01*
X89693039Y-136458185D01*
G37*
G04 #@! TD.AperFunction*
G04 #@! TA.AperFunction,Conductor*
G36*
X89357685Y-135064680D02*
G01*
X89464237Y-135080000D01*
X89535763Y-135080000D01*
X89642315Y-135064680D01*
X89743895Y-135018289D01*
X89730315Y-135064539D01*
X89677511Y-135110294D01*
X89626000Y-135121500D01*
X89374000Y-135121500D01*
X89306961Y-135101815D01*
X89261206Y-135049011D01*
X89254348Y-135017487D01*
X89357685Y-135064680D01*
G37*
G04 #@! TD.AperFunction*
G04 #@! TA.AperFunction,Conductor*
G36*
X92672731Y-133918185D02*
G01*
X92718486Y-133970989D01*
X92728430Y-134040147D01*
X92719248Y-134072310D01*
X92690703Y-134137385D01*
X92635436Y-134355628D01*
X92635434Y-134355640D01*
X92616844Y-134579994D01*
X92616844Y-134580005D01*
X92635434Y-134804359D01*
X92635436Y-134804371D01*
X92676635Y-134967060D01*
X92674010Y-135036880D01*
X92634054Y-135094198D01*
X92569452Y-135120814D01*
X92556429Y-135121500D01*
X90914129Y-135121500D01*
X90847090Y-135101815D01*
X90801335Y-135049011D01*
X90791391Y-134979853D01*
X90794354Y-134965406D01*
X90830636Y-134830000D01*
X89933686Y-134830000D01*
X89959493Y-134789844D01*
X90000000Y-134651889D01*
X90000000Y-134508111D01*
X89959493Y-134370156D01*
X89933686Y-134330000D01*
X90830636Y-134330000D01*
X90830635Y-134329999D01*
X90773432Y-134116513D01*
X90773431Y-134116511D01*
X90754030Y-134074904D01*
X90743539Y-134005826D01*
X90772059Y-133942043D01*
X90830536Y-133903803D01*
X90866413Y-133898500D01*
X92605692Y-133898500D01*
X92672731Y-133918185D01*
G37*
G04 #@! TD.AperFunction*
G04 #@! TA.AperFunction,Conductor*
G36*
X89693039Y-133918185D02*
G01*
X89738794Y-133970989D01*
X89750000Y-134022500D01*
X89750000Y-134144498D01*
X89642315Y-134095320D01*
X89535763Y-134080000D01*
X89464237Y-134080000D01*
X89357685Y-134095320D01*
X89250000Y-134144498D01*
X89250000Y-134022500D01*
X89269685Y-133955461D01*
X89322489Y-133909706D01*
X89374000Y-133898500D01*
X89626000Y-133898500D01*
X89693039Y-133918185D01*
G37*
G04 #@! TD.AperFunction*
G04 #@! TA.AperFunction,Conductor*
G36*
X89357685Y-132524680D02*
G01*
X89464237Y-132540000D01*
X89535763Y-132540000D01*
X89642315Y-132524680D01*
X89743895Y-132478289D01*
X89730315Y-132524539D01*
X89677511Y-132570294D01*
X89626000Y-132581500D01*
X89374000Y-132581500D01*
X89306961Y-132561815D01*
X89261206Y-132509011D01*
X89254348Y-132477487D01*
X89357685Y-132524680D01*
G37*
G04 #@! TD.AperFunction*
G04 #@! TA.AperFunction,Conductor*
G36*
X89750000Y-131604498D02*
G01*
X89642315Y-131555320D01*
X89535763Y-131540000D01*
X89464237Y-131540000D01*
X89357685Y-131555320D01*
X89249999Y-131604498D01*
X89249999Y-129935501D01*
X89357685Y-129984680D01*
X89464237Y-130000000D01*
X89535763Y-130000000D01*
X89642315Y-129984680D01*
X89750000Y-129935501D01*
X89750000Y-131604498D01*
G37*
G04 #@! TD.AperFunction*
G04 #@! TA.AperFunction,Conductor*
G36*
X89750000Y-129064498D02*
G01*
X89642315Y-129015320D01*
X89535763Y-129000000D01*
X89464237Y-129000000D01*
X89357685Y-129015320D01*
X89249999Y-129064498D01*
X89249999Y-127395501D01*
X89357685Y-127444680D01*
X89464237Y-127460000D01*
X89535763Y-127460000D01*
X89642315Y-127444680D01*
X89750000Y-127395501D01*
X89750000Y-129064498D01*
G37*
G04 #@! TD.AperFunction*
G04 #@! TA.AperFunction,Conductor*
G36*
X89750000Y-126524498D02*
G01*
X89642315Y-126475320D01*
X89535763Y-126460000D01*
X89464237Y-126460000D01*
X89357685Y-126475320D01*
X89249999Y-126524498D01*
X89249999Y-124855501D01*
X89357685Y-124904680D01*
X89464237Y-124920000D01*
X89535763Y-124920000D01*
X89642315Y-124904680D01*
X89750000Y-124855501D01*
X89750000Y-126524498D01*
G37*
G04 #@! TD.AperFunction*
G04 #@! TA.AperFunction,Conductor*
G36*
X96117539Y-99095185D02*
G01*
X96163294Y-99147989D01*
X96174500Y-99199500D01*
X96174500Y-153800500D01*
X96154815Y-153867539D01*
X96102011Y-153913294D01*
X96050500Y-153924500D01*
X66449500Y-153924500D01*
X66382461Y-153904815D01*
X66336706Y-153852011D01*
X66325500Y-153800500D01*
X66325500Y-151458833D01*
X69645624Y-151458833D01*
X69655944Y-151622860D01*
X69706732Y-151779171D01*
X69706734Y-151779175D01*
X69794798Y-151917940D01*
X69914603Y-152030445D01*
X69914611Y-152030451D01*
X69994860Y-152074568D01*
X70058632Y-152109627D01*
X70217823Y-152150500D01*
X70217827Y-152150500D01*
X70340923Y-152150500D01*
X70340925Y-152150500D01*
X70340930Y-152150499D01*
X70340934Y-152150499D01*
X70354174Y-152148826D01*
X70463058Y-152135071D01*
X70615871Y-152074568D01*
X70615878Y-152074563D01*
X70748835Y-151977965D01*
X70748835Y-151977963D01*
X70748837Y-151977963D01*
X70853600Y-151851326D01*
X70923579Y-151702613D01*
X70954376Y-151541170D01*
X70944056Y-151377140D01*
X70893268Y-151220829D01*
X70805202Y-151082060D01*
X70741281Y-151022034D01*
X70685396Y-150969554D01*
X70685388Y-150969548D01*
X70541371Y-150890374D01*
X70541361Y-150890371D01*
X70382180Y-150849500D01*
X70382177Y-150849500D01*
X70259075Y-150849500D01*
X70259065Y-150849500D01*
X70136942Y-150864929D01*
X70136939Y-150864929D01*
X69984130Y-150925431D01*
X69984121Y-150925436D01*
X69851164Y-151022034D01*
X69851162Y-151022037D01*
X69746400Y-151148673D01*
X69676420Y-151297387D01*
X69661207Y-151377139D01*
X69645624Y-151458830D01*
X69645624Y-151458832D01*
X69645624Y-151458833D01*
X66325500Y-151458833D01*
X66325500Y-144780005D01*
X67216844Y-144780005D01*
X67235434Y-145004359D01*
X67235436Y-145004371D01*
X67290703Y-145222614D01*
X67381140Y-145428792D01*
X67504276Y-145617265D01*
X67504284Y-145617276D01*
X67656756Y-145782902D01*
X67656760Y-145782906D01*
X67834424Y-145921189D01*
X67834425Y-145921189D01*
X67834427Y-145921191D01*
X67934533Y-145975365D01*
X68032426Y-146028342D01*
X68245365Y-146101444D01*
X68467431Y-146138500D01*
X68692569Y-146138500D01*
X68914635Y-146101444D01*
X69127574Y-146028342D01*
X69325576Y-145921189D01*
X69503240Y-145782906D01*
X69528007Y-145756002D01*
X78196693Y-145756002D01*
X78215884Y-145975365D01*
X78215885Y-145975372D01*
X78219361Y-145988343D01*
X78272880Y-146188076D01*
X78365944Y-146387654D01*
X78492251Y-146568038D01*
X78647962Y-146723749D01*
X78828346Y-146850056D01*
X79027924Y-146943120D01*
X79240629Y-147000115D01*
X79397322Y-147013823D01*
X79459998Y-147019307D01*
X79460000Y-147019307D01*
X79460002Y-147019307D01*
X79514842Y-147014508D01*
X79679371Y-147000115D01*
X79892076Y-146943120D01*
X80091654Y-146850056D01*
X80272038Y-146723749D01*
X80427749Y-146568038D01*
X80554056Y-146387654D01*
X80647120Y-146188076D01*
X80704115Y-145975371D01*
X80720953Y-145782906D01*
X80723307Y-145756002D01*
X83096693Y-145756002D01*
X83115884Y-145975365D01*
X83115885Y-145975372D01*
X83119361Y-145988343D01*
X83172880Y-146188076D01*
X83265944Y-146387654D01*
X83392251Y-146568038D01*
X83547962Y-146723749D01*
X83728346Y-146850056D01*
X83927924Y-146943120D01*
X84140629Y-147000115D01*
X84297322Y-147013823D01*
X84359998Y-147019307D01*
X84360000Y-147019307D01*
X84360002Y-147019307D01*
X84414842Y-147014508D01*
X84579371Y-147000115D01*
X84792076Y-146943120D01*
X84991654Y-146850056D01*
X85172038Y-146723749D01*
X85327749Y-146568038D01*
X85454056Y-146387654D01*
X85547120Y-146188076D01*
X85604115Y-145975371D01*
X85620953Y-145782906D01*
X85623307Y-145756002D01*
X85623307Y-145755997D01*
X85616110Y-145673735D01*
X85604115Y-145536629D01*
X85547120Y-145323924D01*
X85454056Y-145124347D01*
X85454054Y-145124344D01*
X85454053Y-145124342D01*
X85370039Y-145004359D01*
X85327749Y-144943962D01*
X85172038Y-144788251D01*
X84991654Y-144661944D01*
X84991650Y-144661942D01*
X84792081Y-144568882D01*
X84792079Y-144568881D01*
X84792076Y-144568880D01*
X84593385Y-144515640D01*
X84579372Y-144511885D01*
X84579365Y-144511884D01*
X84360002Y-144492693D01*
X84359998Y-144492693D01*
X84140634Y-144511884D01*
X84140627Y-144511885D01*
X83927920Y-144568881D01*
X83728346Y-144661944D01*
X83728342Y-144661946D01*
X83547967Y-144788247D01*
X83547960Y-144788252D01*
X83392252Y-144943960D01*
X83392247Y-144943967D01*
X83265946Y-145124342D01*
X83265944Y-145124346D01*
X83172881Y-145323920D01*
X83115885Y-145536627D01*
X83115884Y-145536634D01*
X83096693Y-145755997D01*
X83096693Y-145756002D01*
X80723307Y-145756002D01*
X80723307Y-145755997D01*
X80716110Y-145673735D01*
X80704115Y-145536629D01*
X80647120Y-145323924D01*
X80554056Y-145124347D01*
X80554054Y-145124344D01*
X80554053Y-145124342D01*
X80470039Y-145004359D01*
X80427749Y-144943962D01*
X80272038Y-144788251D01*
X80091654Y-144661944D01*
X80091650Y-144661942D01*
X79892081Y-144568882D01*
X79892079Y-144568881D01*
X79892076Y-144568880D01*
X79693385Y-144515640D01*
X79679372Y-144511885D01*
X79679365Y-144511884D01*
X79460002Y-144492693D01*
X79459998Y-144492693D01*
X79240634Y-144511884D01*
X79240627Y-144511885D01*
X79027920Y-144568881D01*
X78828346Y-144661944D01*
X78828342Y-144661946D01*
X78647967Y-144788247D01*
X78647960Y-144788252D01*
X78492252Y-144943960D01*
X78492247Y-144943967D01*
X78365946Y-145124342D01*
X78365944Y-145124346D01*
X78272881Y-145323920D01*
X78215885Y-145536627D01*
X78215884Y-145536634D01*
X78196693Y-145755997D01*
X78196693Y-145756002D01*
X69528007Y-145756002D01*
X69655722Y-145617268D01*
X69670482Y-145594675D01*
X69723628Y-145549321D01*
X69774289Y-145538500D01*
X75555706Y-145538500D01*
X75573676Y-145539809D01*
X75576174Y-145540174D01*
X75597789Y-145543341D01*
X75650426Y-145538735D01*
X75655828Y-145538500D01*
X75664175Y-145538500D01*
X75664180Y-145538500D01*
X75687835Y-145535734D01*
X75697096Y-145534652D01*
X75774419Y-145527888D01*
X75774422Y-145527887D01*
X75774426Y-145527887D01*
X75774429Y-145527885D01*
X75781493Y-145526427D01*
X75781502Y-145526474D01*
X75789097Y-145524790D01*
X75789087Y-145524744D01*
X75796107Y-145523079D01*
X75796113Y-145523079D01*
X75869065Y-145496526D01*
X75942738Y-145472114D01*
X75942746Y-145472108D01*
X75949284Y-145469061D01*
X75949305Y-145469106D01*
X75956302Y-145465719D01*
X75956280Y-145465675D01*
X75962729Y-145462436D01*
X75962728Y-145462436D01*
X75962732Y-145462435D01*
X76027605Y-145419766D01*
X76093651Y-145379030D01*
X76093655Y-145379025D01*
X76099319Y-145374548D01*
X76099350Y-145374587D01*
X76105374Y-145369680D01*
X76105342Y-145369642D01*
X76110864Y-145365007D01*
X76110874Y-145365001D01*
X76132823Y-145341735D01*
X76164163Y-145308518D01*
X77873874Y-143598806D01*
X78456752Y-143015927D01*
X78518073Y-142982444D01*
X78518290Y-142982397D01*
X78582288Y-142968794D01*
X78756752Y-142891118D01*
X78911253Y-142778866D01*
X79039040Y-142636944D01*
X79134527Y-142471556D01*
X79193542Y-142289928D01*
X79213504Y-142100000D01*
X79193542Y-141910072D01*
X79134527Y-141728444D01*
X79039040Y-141563056D01*
X78911253Y-141421134D01*
X78756752Y-141308882D01*
X78582288Y-141231206D01*
X78582286Y-141231205D01*
X78395487Y-141191500D01*
X78204513Y-141191500D01*
X78017714Y-141231205D01*
X77843246Y-141308883D01*
X77688745Y-141421135D01*
X77560959Y-141563057D01*
X77465473Y-141728443D01*
X77465470Y-141728450D01*
X77410465Y-141897739D01*
X77380215Y-141947102D01*
X75342138Y-143985181D01*
X75280815Y-144018666D01*
X75254457Y-144021500D01*
X69774289Y-144021500D01*
X69707250Y-144001815D01*
X69670482Y-143965324D01*
X69655722Y-143942732D01*
X69655718Y-143942728D01*
X69655715Y-143942723D01*
X69503243Y-143777097D01*
X69503238Y-143777092D01*
X69325577Y-143638812D01*
X69325578Y-143638812D01*
X69325576Y-143638811D01*
X69289070Y-143619055D01*
X69239479Y-143569836D01*
X69224371Y-143501619D01*
X69248541Y-143436064D01*
X69289070Y-143400945D01*
X69298089Y-143396064D01*
X69325576Y-143381189D01*
X69503240Y-143242906D01*
X69655722Y-143077268D01*
X69778860Y-142888791D01*
X69869296Y-142682616D01*
X69924564Y-142464368D01*
X69924565Y-142464359D01*
X69943156Y-142240005D01*
X69943156Y-142239994D01*
X69924565Y-142015640D01*
X69924563Y-142015628D01*
X69907210Y-141947102D01*
X69869296Y-141797384D01*
X69778860Y-141591209D01*
X69760467Y-141563057D01*
X69667745Y-141421135D01*
X69655722Y-141402732D01*
X69655719Y-141402729D01*
X69655715Y-141402723D01*
X69503243Y-141237097D01*
X69503238Y-141237092D01*
X69325577Y-141098812D01*
X69325578Y-141098812D01*
X69325576Y-141098811D01*
X69289070Y-141079055D01*
X69239479Y-141029836D01*
X69224371Y-140961619D01*
X69248541Y-140896064D01*
X69289070Y-140860945D01*
X69298089Y-140856064D01*
X69325576Y-140841189D01*
X69503240Y-140702906D01*
X69655722Y-140537268D01*
X69778860Y-140348791D01*
X69869296Y-140142616D01*
X69924564Y-139924368D01*
X69925755Y-139910000D01*
X69943156Y-139700005D01*
X69943156Y-139699994D01*
X69924565Y-139475640D01*
X69924563Y-139475628D01*
X69869296Y-139257385D01*
X69859498Y-139235048D01*
X69778860Y-139051209D01*
X69778716Y-139050989D01*
X69655723Y-138862734D01*
X69655715Y-138862723D01*
X69503243Y-138697097D01*
X69503238Y-138697092D01*
X69325577Y-138558812D01*
X69325578Y-138558812D01*
X69325576Y-138558811D01*
X69289070Y-138539055D01*
X69239479Y-138489836D01*
X69224371Y-138421619D01*
X69248541Y-138356064D01*
X69289070Y-138320945D01*
X69298089Y-138316064D01*
X69325576Y-138301189D01*
X69503240Y-138162906D01*
X69655722Y-137997268D01*
X69778860Y-137808791D01*
X69869296Y-137602616D01*
X69924564Y-137384368D01*
X69925755Y-137370000D01*
X69943156Y-137160005D01*
X69943156Y-137159994D01*
X69924565Y-136935640D01*
X69924563Y-136935628D01*
X69869296Y-136717385D01*
X69859498Y-136695048D01*
X69778860Y-136511209D01*
X69778716Y-136510989D01*
X69655723Y-136322734D01*
X69655715Y-136322723D01*
X69503243Y-136157097D01*
X69503238Y-136157092D01*
X69325577Y-136018812D01*
X69325578Y-136018812D01*
X69325576Y-136018811D01*
X69289070Y-135999055D01*
X69239479Y-135949836D01*
X69224371Y-135881619D01*
X69248541Y-135816064D01*
X69289070Y-135780945D01*
X69298089Y-135776064D01*
X69325576Y-135761189D01*
X69503240Y-135622906D01*
X69655722Y-135457268D01*
X69778860Y-135268791D01*
X69869296Y-135062616D01*
X69924564Y-134844368D01*
X69925755Y-134830000D01*
X69943156Y-134620005D01*
X69943156Y-134619994D01*
X69924565Y-134395640D01*
X69924563Y-134395628D01*
X69869296Y-134177385D01*
X69859498Y-134155048D01*
X69778860Y-133971209D01*
X69778716Y-133970989D01*
X69655723Y-133782734D01*
X69655715Y-133782723D01*
X69503243Y-133617097D01*
X69503238Y-133617092D01*
X69325577Y-133478812D01*
X69325578Y-133478812D01*
X69325576Y-133478811D01*
X69289070Y-133459055D01*
X69239479Y-133409836D01*
X69224371Y-133341619D01*
X69248541Y-133276064D01*
X69289070Y-133240945D01*
X69298089Y-133236064D01*
X69325576Y-133221189D01*
X69503240Y-133082906D01*
X69655722Y-132917268D01*
X69778860Y-132728791D01*
X69869296Y-132522616D01*
X69924564Y-132304368D01*
X69925755Y-132290000D01*
X69943156Y-132080005D01*
X69943156Y-132079994D01*
X69924565Y-131855640D01*
X69924563Y-131855628D01*
X69869296Y-131637385D01*
X69859498Y-131615048D01*
X69778860Y-131431209D01*
X69769287Y-131416557D01*
X69677893Y-131276667D01*
X69655722Y-131242732D01*
X69655719Y-131242729D01*
X69655715Y-131242723D01*
X69503243Y-131077097D01*
X69503238Y-131077092D01*
X69325577Y-130938812D01*
X69325572Y-130938808D01*
X69289068Y-130919053D01*
X69239478Y-130869833D01*
X69224371Y-130801616D01*
X69248542Y-130736061D01*
X69289069Y-130700945D01*
X69325576Y-130681189D01*
X69503240Y-130542906D01*
X69655722Y-130377268D01*
X69778860Y-130188791D01*
X69869296Y-129982616D01*
X69924564Y-129764368D01*
X69925764Y-129749885D01*
X69943156Y-129540005D01*
X69943156Y-129539994D01*
X69924565Y-129315640D01*
X69924563Y-129315628D01*
X69887483Y-129169202D01*
X69869296Y-129097384D01*
X69778860Y-128891209D01*
X69774594Y-128884680D01*
X69705737Y-128779286D01*
X69655722Y-128702732D01*
X69655719Y-128702729D01*
X69655715Y-128702723D01*
X69503243Y-128537097D01*
X69503238Y-128537092D01*
X69367888Y-128431744D01*
X69325576Y-128398811D01*
X69325575Y-128398810D01*
X69325572Y-128398808D01*
X69289068Y-128379053D01*
X69239478Y-128329833D01*
X69224371Y-128261616D01*
X69248542Y-128196061D01*
X69289069Y-128160945D01*
X69325576Y-128141189D01*
X69503240Y-128002906D01*
X69549620Y-127952524D01*
X69566748Y-127933919D01*
X69626635Y-127897928D01*
X69657977Y-127893902D01*
X71214804Y-127893902D01*
X71220884Y-127894201D01*
X71234913Y-127895582D01*
X71267402Y-127898782D01*
X71465103Y-127879311D01*
X71655206Y-127821643D01*
X71690842Y-127802595D01*
X71830406Y-127727997D01*
X71983970Y-127601970D01*
X72013640Y-127565815D01*
X72017690Y-127561346D01*
X73138285Y-126440752D01*
X73199607Y-126407268D01*
X73269299Y-126412252D01*
X73325232Y-126454124D01*
X73349649Y-126519588D01*
X73341083Y-126574520D01*
X73278965Y-126729682D01*
X73258807Y-126834275D01*
X73238902Y-126937553D01*
X73238902Y-127796205D01*
X73253983Y-127954141D01*
X73268302Y-128002906D01*
X73311141Y-128148806D01*
X73313625Y-128157264D01*
X73410631Y-128345428D01*
X73541494Y-128511834D01*
X73541496Y-128511836D01*
X73701479Y-128650463D01*
X73701490Y-128650471D01*
X73792014Y-128702734D01*
X73884820Y-128756315D01*
X74084875Y-128825555D01*
X74294418Y-128855683D01*
X74505876Y-128845610D01*
X74711606Y-128795700D01*
X74904173Y-128707758D01*
X74994401Y-128643507D01*
X75076612Y-128584965D01*
X75076613Y-128584963D01*
X75076617Y-128584961D01*
X75222705Y-128431748D01*
X75243873Y-128398811D01*
X75304844Y-128303937D01*
X75337158Y-128253656D01*
X75415838Y-128057123D01*
X75455902Y-127849251D01*
X75455902Y-126990599D01*
X75440821Y-126832663D01*
X75381179Y-126629540D01*
X75284173Y-126441376D01*
X75261270Y-126412252D01*
X75244677Y-126391152D01*
X75218708Y-126326287D01*
X75231931Y-126257680D01*
X75280147Y-126207113D01*
X75342147Y-126190500D01*
X75890763Y-126190500D01*
X75957802Y-126210185D01*
X76003557Y-126262989D01*
X76013501Y-126332147D01*
X75995079Y-126381539D01*
X75897646Y-126533147D01*
X75818965Y-126729682D01*
X75798807Y-126834275D01*
X75778902Y-126937553D01*
X75778902Y-127796205D01*
X75793983Y-127954141D01*
X75808302Y-128002906D01*
X75851141Y-128148806D01*
X75853625Y-128157264D01*
X75950631Y-128345428D01*
X76081494Y-128511834D01*
X76081496Y-128511836D01*
X76241479Y-128650463D01*
X76241490Y-128650471D01*
X76332014Y-128702734D01*
X76424820Y-128756315D01*
X76624875Y-128825555D01*
X76834418Y-128855683D01*
X77045876Y-128845610D01*
X77251606Y-128795700D01*
X77444173Y-128707758D01*
X77534401Y-128643507D01*
X77616612Y-128584965D01*
X77616613Y-128584963D01*
X77616617Y-128584961D01*
X77762705Y-128431748D01*
X77783873Y-128398811D01*
X77844844Y-128303937D01*
X77877158Y-128253656D01*
X77955838Y-128057123D01*
X77995902Y-127849251D01*
X77995902Y-127337497D01*
X78015587Y-127270459D01*
X78068391Y-127224704D01*
X78137549Y-127214760D01*
X78201105Y-127243785D01*
X78207583Y-127249817D01*
X78282583Y-127324817D01*
X78316068Y-127386140D01*
X78318902Y-127412498D01*
X78318902Y-127796205D01*
X78333983Y-127954141D01*
X78348302Y-128002906D01*
X78391141Y-128148806D01*
X78393625Y-128157264D01*
X78419523Y-128207499D01*
X78490631Y-128345429D01*
X78568236Y-128444112D01*
X78594204Y-128508976D01*
X78580980Y-128577583D01*
X78543653Y-128621079D01*
X78526167Y-128633783D01*
X78526165Y-128633785D01*
X78398378Y-128775708D01*
X78302892Y-128941094D01*
X78302889Y-128941101D01*
X78244394Y-129121132D01*
X78243877Y-129122723D01*
X78223915Y-129312651D01*
X78243877Y-129502579D01*
X78243878Y-129502582D01*
X78302889Y-129684200D01*
X78302892Y-129684207D01*
X78398378Y-129849594D01*
X78447068Y-129903669D01*
X78477299Y-129966661D01*
X78478919Y-129986642D01*
X78478919Y-130908085D01*
X78477137Y-130924222D01*
X78477365Y-130924244D01*
X78476630Y-130932010D01*
X78478919Y-131004818D01*
X78478919Y-131035910D01*
X78479852Y-131043305D01*
X78480310Y-131049123D01*
X78481856Y-131098305D01*
X78481857Y-131098308D01*
X78487883Y-131119053D01*
X78491826Y-131138094D01*
X78494535Y-131159529D01*
X78494536Y-131159533D01*
X78494537Y-131159540D01*
X78510703Y-131200373D01*
X78512653Y-131205298D01*
X78514544Y-131210824D01*
X78528273Y-131258074D01*
X78539269Y-131276667D01*
X78547829Y-131294141D01*
X78555782Y-131314230D01*
X78584708Y-131354041D01*
X78587909Y-131358913D01*
X78612966Y-131401283D01*
X78612970Y-131401287D01*
X78628240Y-131416557D01*
X78640878Y-131431353D01*
X78653578Y-131448833D01*
X78653582Y-131448837D01*
X78691497Y-131480203D01*
X78695808Y-131484125D01*
X82321978Y-135110294D01*
X85872559Y-138660875D01*
X85906044Y-138722198D01*
X85901060Y-138791890D01*
X85886464Y-138818033D01*
X85887083Y-138818438D01*
X85761139Y-139011209D01*
X85670703Y-139217385D01*
X85615436Y-139435628D01*
X85615434Y-139435640D01*
X85596844Y-139659994D01*
X85596844Y-139660005D01*
X85615434Y-139884359D01*
X85615436Y-139884371D01*
X85670703Y-140102614D01*
X85761140Y-140308792D01*
X85884276Y-140497265D01*
X85884284Y-140497276D01*
X86036756Y-140662902D01*
X86036760Y-140662906D01*
X86214424Y-140801189D01*
X86214425Y-140801189D01*
X86214427Y-140801191D01*
X86288345Y-140841193D01*
X86412426Y-140908342D01*
X86625365Y-140981444D01*
X86847431Y-141018500D01*
X87072569Y-141018500D01*
X87294635Y-140981444D01*
X87507574Y-140908342D01*
X87705576Y-140801189D01*
X87883240Y-140662906D01*
X88004594Y-140531082D01*
X88035715Y-140497276D01*
X88035715Y-140497275D01*
X88035722Y-140497268D01*
X88129749Y-140353347D01*
X88182894Y-140307994D01*
X88252125Y-140298570D01*
X88315461Y-140328072D01*
X88335130Y-140350048D01*
X88461890Y-140531078D01*
X88628917Y-140698105D01*
X88822421Y-140833600D01*
X89036507Y-140933429D01*
X89036516Y-140933433D01*
X89250000Y-140990634D01*
X89250000Y-140095501D01*
X89357685Y-140144680D01*
X89464237Y-140160000D01*
X89535763Y-140160000D01*
X89642315Y-140144680D01*
X89750000Y-140095501D01*
X89750000Y-140990633D01*
X89963483Y-140933433D01*
X89963492Y-140933429D01*
X90177578Y-140833600D01*
X90371082Y-140698105D01*
X90538105Y-140531082D01*
X90673600Y-140337578D01*
X90773429Y-140123492D01*
X90773432Y-140123486D01*
X90830636Y-139910000D01*
X89933686Y-139910000D01*
X89959493Y-139869844D01*
X90000000Y-139731889D01*
X90000000Y-139588111D01*
X89959493Y-139450156D01*
X89933686Y-139410000D01*
X90830636Y-139410000D01*
X90830635Y-139409999D01*
X90773432Y-139196513D01*
X90773431Y-139196511D01*
X90754030Y-139154904D01*
X90743539Y-139085826D01*
X90772059Y-139022043D01*
X90830536Y-138983803D01*
X90866413Y-138978500D01*
X92605692Y-138978500D01*
X92672731Y-138998185D01*
X92718486Y-139050989D01*
X92728430Y-139120147D01*
X92719248Y-139152310D01*
X92690703Y-139217385D01*
X92635436Y-139435628D01*
X92635434Y-139435640D01*
X92616844Y-139659994D01*
X92616844Y-139660005D01*
X92635434Y-139884359D01*
X92635436Y-139884371D01*
X92690703Y-140102614D01*
X92781140Y-140308792D01*
X92904276Y-140497265D01*
X92904284Y-140497276D01*
X93056756Y-140662902D01*
X93056760Y-140662906D01*
X93234424Y-140801189D01*
X93234429Y-140801191D01*
X93234431Y-140801193D01*
X93270930Y-140820946D01*
X93320520Y-140870165D01*
X93335628Y-140938382D01*
X93311457Y-141003937D01*
X93270930Y-141039054D01*
X93234431Y-141058806D01*
X93234422Y-141058812D01*
X93056761Y-141197092D01*
X93056756Y-141197097D01*
X92904284Y-141362723D01*
X92904276Y-141362734D01*
X92781140Y-141551207D01*
X92690703Y-141757385D01*
X92635436Y-141975628D01*
X92635434Y-141975640D01*
X92616844Y-142199994D01*
X92616844Y-142200005D01*
X92635434Y-142424359D01*
X92635436Y-142424371D01*
X92690703Y-142642614D01*
X92781140Y-142848792D01*
X92904276Y-143037265D01*
X92904284Y-143037276D01*
X93056756Y-143202902D01*
X93056760Y-143202906D01*
X93234424Y-143341189D01*
X93234429Y-143341191D01*
X93234431Y-143341193D01*
X93270930Y-143360946D01*
X93320520Y-143410165D01*
X93335628Y-143478382D01*
X93311457Y-143543937D01*
X93270930Y-143579054D01*
X93234431Y-143598806D01*
X93234422Y-143598812D01*
X93056761Y-143737092D01*
X93056756Y-143737097D01*
X92904284Y-143902723D01*
X92904276Y-143902734D01*
X92781140Y-144091207D01*
X92690703Y-144297385D01*
X92635436Y-144515628D01*
X92635434Y-144515640D01*
X92616844Y-144739994D01*
X92616844Y-144740005D01*
X92635434Y-144964359D01*
X92635436Y-144964371D01*
X92690703Y-145182614D01*
X92781140Y-145388792D01*
X92904276Y-145577265D01*
X92904284Y-145577276D01*
X93056756Y-145742902D01*
X93056761Y-145742907D01*
X93108146Y-145782902D01*
X93234424Y-145881189D01*
X93234425Y-145881189D01*
X93234427Y-145881191D01*
X93308341Y-145921191D01*
X93432426Y-145988342D01*
X93645365Y-146061444D01*
X93867431Y-146098500D01*
X94092569Y-146098500D01*
X94314635Y-146061444D01*
X94527574Y-145988342D01*
X94725576Y-145881189D01*
X94903240Y-145742906D01*
X95055722Y-145577268D01*
X95178860Y-145388791D01*
X95269296Y-145182616D01*
X95324564Y-144964368D01*
X95339841Y-144780005D01*
X95343156Y-144740005D01*
X95343156Y-144739994D01*
X95324565Y-144515640D01*
X95324563Y-144515628D01*
X95318755Y-144492693D01*
X95269296Y-144297384D01*
X95178860Y-144091209D01*
X95055722Y-143902732D01*
X95055719Y-143902729D01*
X95055715Y-143902723D01*
X94903243Y-143737097D01*
X94903238Y-143737092D01*
X94725577Y-143598812D01*
X94725578Y-143598812D01*
X94725576Y-143598811D01*
X94689070Y-143579055D01*
X94639479Y-143529836D01*
X94624371Y-143461619D01*
X94648541Y-143396064D01*
X94689070Y-143360945D01*
X94689084Y-143360936D01*
X94725576Y-143341189D01*
X94903240Y-143202906D01*
X95055722Y-143037268D01*
X95178860Y-142848791D01*
X95269296Y-142642616D01*
X95324564Y-142424368D01*
X95335704Y-142289931D01*
X95343156Y-142200005D01*
X95343156Y-142199994D01*
X95324565Y-141975640D01*
X95324563Y-141975628D01*
X95304839Y-141897739D01*
X95269296Y-141757384D01*
X95178860Y-141551209D01*
X95055722Y-141362732D01*
X95055719Y-141362729D01*
X95055715Y-141362723D01*
X94903243Y-141197097D01*
X94903238Y-141197092D01*
X94725577Y-141058812D01*
X94725578Y-141058812D01*
X94725576Y-141058811D01*
X94689070Y-141039055D01*
X94639479Y-140989836D01*
X94624371Y-140921619D01*
X94648541Y-140856064D01*
X94689070Y-140820945D01*
X94689084Y-140820936D01*
X94725576Y-140801189D01*
X94903240Y-140662906D01*
X95024594Y-140531082D01*
X95055715Y-140497276D01*
X95055717Y-140497273D01*
X95055722Y-140497268D01*
X95178860Y-140308791D01*
X95269296Y-140102616D01*
X95324564Y-139884368D01*
X95339841Y-139700005D01*
X95343156Y-139660005D01*
X95343156Y-139659994D01*
X95324565Y-139435640D01*
X95324563Y-139435628D01*
X95297612Y-139329202D01*
X95269296Y-139217384D01*
X95178860Y-139011209D01*
X95164811Y-138989706D01*
X95117291Y-138916970D01*
X95055722Y-138822732D01*
X95055719Y-138822729D01*
X95055715Y-138822723D01*
X94903243Y-138657097D01*
X94903238Y-138657092D01*
X94725577Y-138518812D01*
X94725578Y-138518812D01*
X94725576Y-138518811D01*
X94689070Y-138499055D01*
X94639479Y-138449836D01*
X94624371Y-138381619D01*
X94648541Y-138316064D01*
X94689070Y-138280945D01*
X94689084Y-138280936D01*
X94725576Y-138261189D01*
X94903240Y-138122906D01*
X95055722Y-137957268D01*
X95178860Y-137768791D01*
X95269296Y-137562616D01*
X95324564Y-137344368D01*
X95324565Y-137344359D01*
X95324669Y-137343735D01*
X95325057Y-137342417D01*
X95325823Y-137339395D01*
X95325940Y-137339424D01*
X95333180Y-137314877D01*
X95337379Y-137305177D01*
X95363406Y-137140849D01*
X95347749Y-136975211D01*
X95347749Y-136975209D01*
X95331752Y-136930779D01*
X95324842Y-136898994D01*
X95324564Y-136895633D01*
X95279426Y-136717385D01*
X95269296Y-136677384D01*
X95178860Y-136471209D01*
X95164811Y-136449706D01*
X95100522Y-136351304D01*
X95055722Y-136282732D01*
X95055719Y-136282729D01*
X95055715Y-136282723D01*
X94903243Y-136117097D01*
X94903238Y-136117092D01*
X94725577Y-135978812D01*
X94725578Y-135978812D01*
X94725576Y-135978811D01*
X94689070Y-135959055D01*
X94639479Y-135909836D01*
X94624371Y-135841619D01*
X94648541Y-135776064D01*
X94689070Y-135740945D01*
X94689084Y-135740936D01*
X94725576Y-135721189D01*
X94903240Y-135582906D01*
X95055722Y-135417268D01*
X95178860Y-135228791D01*
X95269296Y-135022616D01*
X95324564Y-134804368D01*
X95324565Y-134804359D01*
X95324669Y-134803735D01*
X95325057Y-134802417D01*
X95325823Y-134799395D01*
X95325940Y-134799424D01*
X95333180Y-134774877D01*
X95337379Y-134765177D01*
X95363406Y-134600849D01*
X95347749Y-134435211D01*
X95347749Y-134435209D01*
X95331752Y-134390779D01*
X95324842Y-134358994D01*
X95324564Y-134355633D01*
X95322383Y-134347018D01*
X95269296Y-134137384D01*
X95178860Y-133931209D01*
X95164811Y-133909706D01*
X95117291Y-133836970D01*
X95055722Y-133742732D01*
X95055719Y-133742729D01*
X95055715Y-133742723D01*
X94903243Y-133577097D01*
X94903238Y-133577092D01*
X94725577Y-133438812D01*
X94725578Y-133438812D01*
X94725576Y-133438811D01*
X94689070Y-133419055D01*
X94639479Y-133369836D01*
X94624371Y-133301619D01*
X94648541Y-133236064D01*
X94689070Y-133200945D01*
X94689084Y-133200936D01*
X94725576Y-133181189D01*
X94903240Y-133042906D01*
X95055722Y-132877268D01*
X95178860Y-132688791D01*
X95269296Y-132482616D01*
X95324564Y-132264368D01*
X95324565Y-132264359D01*
X95324669Y-132263735D01*
X95325057Y-132262417D01*
X95325823Y-132259395D01*
X95325940Y-132259424D01*
X95333180Y-132234877D01*
X95337379Y-132225177D01*
X95363406Y-132060849D01*
X95347749Y-131895211D01*
X95347749Y-131895209D01*
X95331752Y-131850779D01*
X95324842Y-131818994D01*
X95324564Y-131815633D01*
X95279426Y-131637385D01*
X95269296Y-131597384D01*
X95178860Y-131391209D01*
X95151905Y-131349952D01*
X95091879Y-131258074D01*
X95055722Y-131202732D01*
X95055719Y-131202729D01*
X95055715Y-131202723D01*
X94903243Y-131037097D01*
X94903238Y-131037092D01*
X94755082Y-130921777D01*
X94725577Y-130898811D01*
X94682303Y-130875393D01*
X94632713Y-130826173D01*
X94617605Y-130757957D01*
X94641775Y-130692401D01*
X94670198Y-130664763D01*
X94851079Y-130538108D01*
X95018105Y-130371082D01*
X95153600Y-130177578D01*
X95253429Y-129963492D01*
X95253432Y-129963486D01*
X95310636Y-129750000D01*
X94413686Y-129750000D01*
X94439493Y-129709844D01*
X94480000Y-129571889D01*
X94480000Y-129428111D01*
X94439493Y-129290156D01*
X94413686Y-129250000D01*
X95310636Y-129250000D01*
X95310635Y-129249999D01*
X95253432Y-129036513D01*
X95253429Y-129036507D01*
X95153600Y-128822422D01*
X95153599Y-128822420D01*
X95018113Y-128628926D01*
X95018108Y-128628920D01*
X94851082Y-128461894D01*
X94670197Y-128335236D01*
X94626572Y-128280659D01*
X94619380Y-128211160D01*
X94650902Y-128148806D01*
X94682300Y-128124608D01*
X94725576Y-128101189D01*
X94903240Y-127962906D01*
X95024594Y-127831082D01*
X95055715Y-127797276D01*
X95055717Y-127797273D01*
X95055722Y-127797268D01*
X95178860Y-127608791D01*
X95269296Y-127402616D01*
X95324564Y-127184368D01*
X95327959Y-127143402D01*
X95343156Y-126960005D01*
X95343156Y-126959994D01*
X95324565Y-126735640D01*
X95324563Y-126735628D01*
X95283765Y-126574520D01*
X95269296Y-126517384D01*
X95178860Y-126311209D01*
X95151905Y-126269952D01*
X95099997Y-126190500D01*
X95055722Y-126122732D01*
X95055719Y-126122729D01*
X95055715Y-126122723D01*
X94903243Y-125957097D01*
X94903238Y-125957092D01*
X94725577Y-125818812D01*
X94725572Y-125818808D01*
X94527580Y-125711661D01*
X94527577Y-125711659D01*
X94527574Y-125711658D01*
X94527571Y-125711657D01*
X94527569Y-125711656D01*
X94314637Y-125638556D01*
X94092569Y-125601500D01*
X93867431Y-125601500D01*
X93645362Y-125638556D01*
X93432430Y-125711656D01*
X93432419Y-125711661D01*
X93234427Y-125818808D01*
X93234422Y-125818812D01*
X93056761Y-125957092D01*
X93056756Y-125957097D01*
X92904284Y-126122723D01*
X92904276Y-126122734D01*
X92781140Y-126311207D01*
X92690703Y-126517385D01*
X92635436Y-126735628D01*
X92635434Y-126735640D01*
X92616844Y-126959994D01*
X92616844Y-126960005D01*
X92635434Y-127184359D01*
X92635436Y-127184371D01*
X92690703Y-127402614D01*
X92781140Y-127608792D01*
X92904276Y-127797265D01*
X92904284Y-127797276D01*
X93047206Y-127952528D01*
X93056760Y-127962906D01*
X93234424Y-128101189D01*
X93270930Y-128120945D01*
X93277695Y-128124606D01*
X93327286Y-128173825D01*
X93342394Y-128242042D01*
X93318224Y-128307597D01*
X93289802Y-128335236D01*
X93108922Y-128461890D01*
X93108920Y-128461891D01*
X92941891Y-128628920D01*
X92941886Y-128628926D01*
X92806400Y-128822420D01*
X92806399Y-128822422D01*
X92706570Y-129036507D01*
X92706567Y-129036513D01*
X92649364Y-129249999D01*
X92649364Y-129250000D01*
X93546314Y-129250000D01*
X93520507Y-129290156D01*
X93480000Y-129428111D01*
X93480000Y-129571889D01*
X93520507Y-129709844D01*
X93546314Y-129750000D01*
X92649364Y-129750000D01*
X92706567Y-129963486D01*
X92706570Y-129963492D01*
X92806399Y-130177578D01*
X92941894Y-130371082D01*
X93108917Y-130538105D01*
X93289802Y-130664763D01*
X93333427Y-130719340D01*
X93340619Y-130788839D01*
X93309097Y-130851193D01*
X93277697Y-130875392D01*
X93234427Y-130898809D01*
X93234422Y-130898812D01*
X93056761Y-131037092D01*
X93056756Y-131037097D01*
X92904284Y-131202723D01*
X92904276Y-131202734D01*
X92781140Y-131391207D01*
X92690703Y-131597385D01*
X92635436Y-131815628D01*
X92635434Y-131815640D01*
X92616844Y-132039994D01*
X92616844Y-132040005D01*
X92635434Y-132264359D01*
X92635436Y-132264371D01*
X92676635Y-132427060D01*
X92674010Y-132496880D01*
X92634054Y-132554198D01*
X92569452Y-132580814D01*
X92556429Y-132581500D01*
X90914129Y-132581500D01*
X90847090Y-132561815D01*
X90801335Y-132509011D01*
X90791391Y-132439853D01*
X90794354Y-132425406D01*
X90830636Y-132290000D01*
X89933686Y-132290000D01*
X89959493Y-132249844D01*
X90000000Y-132111889D01*
X90000000Y-131968111D01*
X89959493Y-131830156D01*
X89933686Y-131790000D01*
X90830636Y-131790000D01*
X90830635Y-131789999D01*
X90773432Y-131576513D01*
X90773429Y-131576507D01*
X90673600Y-131362422D01*
X90673599Y-131362420D01*
X90538113Y-131168926D01*
X90538108Y-131168920D01*
X90371082Y-131001894D01*
X90184968Y-130871575D01*
X90141344Y-130816998D01*
X90134151Y-130747499D01*
X90165673Y-130685145D01*
X90184968Y-130668425D01*
X90371082Y-130538105D01*
X90538105Y-130371082D01*
X90673600Y-130177578D01*
X90773429Y-129963492D01*
X90773432Y-129963486D01*
X90830636Y-129750000D01*
X89933686Y-129750000D01*
X89959493Y-129709844D01*
X90000000Y-129571889D01*
X90000000Y-129428111D01*
X89959493Y-129290156D01*
X89933686Y-129250000D01*
X90830636Y-129250000D01*
X90830635Y-129249999D01*
X90773432Y-129036513D01*
X90773429Y-129036507D01*
X90673600Y-128822422D01*
X90673599Y-128822420D01*
X90538113Y-128628926D01*
X90538108Y-128628920D01*
X90371082Y-128461894D01*
X90184968Y-128331575D01*
X90141344Y-128276998D01*
X90134151Y-128207499D01*
X90165673Y-128145145D01*
X90184968Y-128128425D01*
X90371082Y-127998105D01*
X90538105Y-127831082D01*
X90673600Y-127637578D01*
X90773429Y-127423492D01*
X90773432Y-127423486D01*
X90830636Y-127210000D01*
X89933686Y-127210000D01*
X89959493Y-127169844D01*
X90000000Y-127031889D01*
X90000000Y-126888111D01*
X89959493Y-126750156D01*
X89933686Y-126710000D01*
X90830636Y-126710000D01*
X90830635Y-126709999D01*
X90773432Y-126496513D01*
X90773429Y-126496507D01*
X90673600Y-126282422D01*
X90673599Y-126282420D01*
X90538113Y-126088926D01*
X90538108Y-126088920D01*
X90371082Y-125921894D01*
X90184968Y-125791575D01*
X90141344Y-125736998D01*
X90134151Y-125667499D01*
X90165673Y-125605145D01*
X90184968Y-125588425D01*
X90371082Y-125458105D01*
X90538105Y-125291082D01*
X90673600Y-125097578D01*
X90773429Y-124883492D01*
X90773432Y-124883486D01*
X90830636Y-124670000D01*
X89933686Y-124670000D01*
X89959493Y-124629844D01*
X90000000Y-124491889D01*
X90000000Y-124348111D01*
X89959493Y-124210156D01*
X89933686Y-124170000D01*
X90830636Y-124170000D01*
X90830635Y-124169999D01*
X90773432Y-123956513D01*
X90773429Y-123956507D01*
X90673600Y-123742422D01*
X90673599Y-123742420D01*
X90538113Y-123548926D01*
X90538108Y-123548920D01*
X90371082Y-123381894D01*
X90177578Y-123246399D01*
X89963492Y-123146570D01*
X89963486Y-123146567D01*
X89750000Y-123089364D01*
X89750000Y-123984498D01*
X89642315Y-123935320D01*
X89535763Y-123920000D01*
X89464237Y-123920000D01*
X89357685Y-123935320D01*
X89249999Y-123984498D01*
X89249999Y-123089364D01*
X89036513Y-123146567D01*
X89036507Y-123146570D01*
X88822422Y-123246399D01*
X88822420Y-123246400D01*
X88628926Y-123381886D01*
X88628920Y-123381891D01*
X88461891Y-123548920D01*
X88461890Y-123548922D01*
X88335131Y-123729952D01*
X88280554Y-123773577D01*
X88211055Y-123780769D01*
X88148701Y-123749247D01*
X88129752Y-123726656D01*
X88035722Y-123582732D01*
X88035715Y-123582725D01*
X88035715Y-123582723D01*
X87883243Y-123417097D01*
X87883238Y-123417092D01*
X87705577Y-123278812D01*
X87705572Y-123278808D01*
X87507580Y-123171661D01*
X87507577Y-123171659D01*
X87507574Y-123171658D01*
X87507571Y-123171657D01*
X87507569Y-123171656D01*
X87294637Y-123098556D01*
X87072569Y-123061500D01*
X86847431Y-123061500D01*
X86625362Y-123098556D01*
X86412430Y-123171656D01*
X86412419Y-123171661D01*
X86214427Y-123278808D01*
X86214422Y-123278812D01*
X86036761Y-123417092D01*
X86036756Y-123417097D01*
X85884284Y-123582723D01*
X85884276Y-123582734D01*
X85761140Y-123771207D01*
X85670703Y-123977385D01*
X85615436Y-124195628D01*
X85615434Y-124195640D01*
X85596844Y-124419994D01*
X85596844Y-124420005D01*
X85615434Y-124644359D01*
X85615436Y-124644371D01*
X85670703Y-124862614D01*
X85761140Y-125068792D01*
X85884276Y-125257265D01*
X85884284Y-125257276D01*
X86036756Y-125422902D01*
X86036760Y-125422906D01*
X86214424Y-125561189D01*
X86250930Y-125580945D01*
X86300519Y-125630162D01*
X86315629Y-125698378D01*
X86291459Y-125763934D01*
X86250932Y-125799052D01*
X86214432Y-125818805D01*
X86214422Y-125818812D01*
X86036761Y-125957092D01*
X86036756Y-125957097D01*
X85884284Y-126122723D01*
X85884276Y-126122734D01*
X85761140Y-126311207D01*
X85670703Y-126517385D01*
X85615436Y-126735628D01*
X85615434Y-126735640D01*
X85596844Y-126959994D01*
X85596844Y-126960005D01*
X85615434Y-127184359D01*
X85615436Y-127184371D01*
X85670703Y-127402614D01*
X85761140Y-127608792D01*
X85884276Y-127797265D01*
X85884284Y-127797276D01*
X86027206Y-127952528D01*
X86036760Y-127962906D01*
X86214424Y-128101189D01*
X86214429Y-128101191D01*
X86214431Y-128101193D01*
X86250930Y-128120946D01*
X86300520Y-128170165D01*
X86315628Y-128238382D01*
X86291457Y-128303937D01*
X86250930Y-128339054D01*
X86214431Y-128358806D01*
X86214422Y-128358812D01*
X86036761Y-128497092D01*
X86036756Y-128497097D01*
X85884284Y-128662723D01*
X85884276Y-128662734D01*
X85761140Y-128851207D01*
X85670703Y-129057385D01*
X85615436Y-129275628D01*
X85615434Y-129275640D01*
X85596844Y-129499994D01*
X85596844Y-129500005D01*
X85615434Y-129724359D01*
X85615436Y-129724371D01*
X85670703Y-129942614D01*
X85761140Y-130148792D01*
X85884276Y-130337265D01*
X85884284Y-130337276D01*
X86031635Y-130497339D01*
X86036760Y-130502906D01*
X86214424Y-130641189D01*
X86214429Y-130641191D01*
X86214431Y-130641193D01*
X86250930Y-130660946D01*
X86300520Y-130710165D01*
X86315628Y-130778382D01*
X86291457Y-130843937D01*
X86250930Y-130879054D01*
X86214431Y-130898806D01*
X86214422Y-130898812D01*
X86036761Y-131037092D01*
X86036756Y-131037097D01*
X85884284Y-131202723D01*
X85884276Y-131202734D01*
X85761140Y-131391207D01*
X85670703Y-131597385D01*
X85615436Y-131815628D01*
X85615434Y-131815640D01*
X85596844Y-132039994D01*
X85596844Y-132040005D01*
X85615434Y-132264359D01*
X85615436Y-132264371D01*
X85656635Y-132427060D01*
X85654010Y-132496880D01*
X85614054Y-132554198D01*
X85549452Y-132580814D01*
X85536429Y-132581500D01*
X84964122Y-132581500D01*
X84897083Y-132561815D01*
X84876441Y-132545181D01*
X82142468Y-129811208D01*
X82108983Y-129749885D01*
X82106828Y-129736488D01*
X82093542Y-129610072D01*
X82034527Y-129428444D01*
X81939040Y-129263056D01*
X81811253Y-129121134D01*
X81811251Y-129121132D01*
X81696726Y-129037925D01*
X81654060Y-128982595D01*
X81648081Y-128912982D01*
X81680687Y-128851187D01*
X81688405Y-128843897D01*
X81717402Y-128818769D01*
X81717402Y-127767591D01*
X81769949Y-127803418D01*
X81899575Y-127843402D01*
X82001126Y-127843402D01*
X82101540Y-127828267D01*
X82217402Y-127772470D01*
X82217402Y-128814659D01*
X82328811Y-128787631D01*
X82519909Y-128700361D01*
X82691021Y-128578512D01*
X82691027Y-128578506D01*
X82835994Y-128426469D01*
X82949568Y-128249744D01*
X83027646Y-128054716D01*
X83067402Y-127848439D01*
X83067402Y-127643402D01*
X82342680Y-127643402D01*
X82391027Y-127559662D01*
X82421212Y-127427410D01*
X82411075Y-127292137D01*
X82361515Y-127165861D01*
X82343605Y-127143402D01*
X83067402Y-127143402D01*
X83067402Y-126991003D01*
X83052436Y-126834279D01*
X83052435Y-126834275D01*
X82993252Y-126632715D01*
X82896988Y-126445987D01*
X82767133Y-126280864D01*
X82767130Y-126280861D01*
X82608371Y-126143296D01*
X82608360Y-126143287D01*
X82426441Y-126038257D01*
X82426434Y-126038254D01*
X82227918Y-125969546D01*
X82217402Y-125968034D01*
X82217402Y-127019212D01*
X82164855Y-126983386D01*
X82035229Y-126943402D01*
X81933678Y-126943402D01*
X81833264Y-126958537D01*
X81717402Y-127014333D01*
X81717402Y-125972142D01*
X81717401Y-125972142D01*
X81605996Y-125999170D01*
X81605984Y-125999174D01*
X81414899Y-126086439D01*
X81414898Y-126086440D01*
X81243782Y-126208291D01*
X81243776Y-126208297D01*
X81098809Y-126360334D01*
X80985235Y-126537059D01*
X80907157Y-126732087D01*
X80867402Y-126938364D01*
X80867402Y-127143402D01*
X81592124Y-127143402D01*
X81543777Y-127227142D01*
X81513592Y-127359394D01*
X81523729Y-127494667D01*
X81573289Y-127620943D01*
X81591199Y-127643402D01*
X80867402Y-127643402D01*
X80867402Y-127795800D01*
X80882367Y-127952524D01*
X80882368Y-127952528D01*
X80941551Y-128154088D01*
X81037815Y-128340816D01*
X81167670Y-128505939D01*
X81167673Y-128505942D01*
X81326432Y-128643507D01*
X81326440Y-128643513D01*
X81355190Y-128660112D01*
X81403406Y-128710679D01*
X81416630Y-128779286D01*
X81390662Y-128844151D01*
X81333748Y-128884680D01*
X81293191Y-128891500D01*
X81104513Y-128891500D01*
X80917713Y-128931205D01*
X80917710Y-128931206D01*
X80829822Y-128970336D01*
X80760572Y-128979620D01*
X80702856Y-128952594D01*
X80702199Y-128953499D01*
X80697506Y-128950089D01*
X80697296Y-128949991D01*
X80696967Y-128949698D01*
X80696944Y-128949681D01*
X80696942Y-128949679D01*
X80542441Y-128837427D01*
X80367977Y-128759751D01*
X80367975Y-128759750D01*
X80367976Y-128759750D01*
X80270843Y-128739104D01*
X80209362Y-128705911D01*
X80175585Y-128644748D01*
X80180238Y-128575033D01*
X80206882Y-128532244D01*
X80231964Y-128505939D01*
X80302705Y-128431748D01*
X80323873Y-128398811D01*
X80384844Y-128303937D01*
X80417158Y-128253656D01*
X80495838Y-128057123D01*
X80535902Y-127849251D01*
X80535902Y-126990599D01*
X80520821Y-126832663D01*
X80461179Y-126629540D01*
X80364173Y-126441376D01*
X80233310Y-126274970D01*
X80227519Y-126269952D01*
X80073324Y-126136340D01*
X80073313Y-126136332D01*
X79889988Y-126030491D01*
X79889984Y-126030489D01*
X79841601Y-126013743D01*
X79794478Y-125984244D01*
X79067499Y-125257265D01*
X78316301Y-124506067D01*
X78312222Y-124501566D01*
X78282567Y-124465430D01*
X78129005Y-124339405D01*
X78128998Y-124339401D01*
X77953654Y-124245678D01*
X77952330Y-124245312D01*
X77763703Y-124188091D01*
X77631900Y-124175110D01*
X77566000Y-124168620D01*
X77565999Y-124168620D01*
X77519482Y-124173201D01*
X77513402Y-124173500D01*
X73023400Y-124173500D01*
X73017319Y-124173201D01*
X72970804Y-124168620D01*
X72921257Y-124173500D01*
X72773104Y-124188091D01*
X72582995Y-124245760D01*
X72407805Y-124339401D01*
X72407798Y-124339405D01*
X72254235Y-124465432D01*
X72224579Y-124501567D01*
X72220491Y-124506077D01*
X70885987Y-125840583D01*
X70824664Y-125874068D01*
X70798306Y-125876902D01*
X69390183Y-125876902D01*
X69331019Y-125859529D01*
X69330087Y-125861252D01*
X69127580Y-125751661D01*
X69127577Y-125751659D01*
X69127574Y-125751658D01*
X69127571Y-125751657D01*
X69127569Y-125751656D01*
X68914637Y-125678556D01*
X68692569Y-125641500D01*
X68467431Y-125641500D01*
X68245362Y-125678556D01*
X68032430Y-125751656D01*
X68032419Y-125751661D01*
X67834427Y-125858808D01*
X67834422Y-125858812D01*
X67656761Y-125997092D01*
X67656756Y-125997097D01*
X67504284Y-126162723D01*
X67504276Y-126162734D01*
X67381140Y-126351207D01*
X67290703Y-126557385D01*
X67235436Y-126775628D01*
X67235434Y-126775640D01*
X67216844Y-126999994D01*
X67216844Y-127000005D01*
X67235434Y-127224359D01*
X67235436Y-127224371D01*
X67290703Y-127442614D01*
X67381140Y-127648792D01*
X67504276Y-127837265D01*
X67504284Y-127837276D01*
X67652340Y-127998105D01*
X67656760Y-128002906D01*
X67834424Y-128141189D01*
X67870930Y-128160945D01*
X67920519Y-128210162D01*
X67935629Y-128278378D01*
X67911459Y-128343934D01*
X67870932Y-128379052D01*
X67834432Y-128398805D01*
X67834422Y-128398812D01*
X67656761Y-128537092D01*
X67656756Y-128537097D01*
X67504284Y-128702723D01*
X67504276Y-128702734D01*
X67381140Y-128891207D01*
X67290703Y-129097385D01*
X67235436Y-129315628D01*
X67235434Y-129315640D01*
X67216844Y-129539994D01*
X67216844Y-129540005D01*
X67235434Y-129764359D01*
X67235436Y-129764371D01*
X67290703Y-129982614D01*
X67381140Y-130188792D01*
X67504276Y-130377265D01*
X67504284Y-130377276D01*
X67640162Y-130524876D01*
X67656760Y-130542906D01*
X67834424Y-130681189D01*
X67870930Y-130700945D01*
X67920519Y-130750162D01*
X67935629Y-130818378D01*
X67911459Y-130883934D01*
X67870932Y-130919052D01*
X67834432Y-130938805D01*
X67834422Y-130938812D01*
X67656761Y-131077092D01*
X67656756Y-131077097D01*
X67504284Y-131242723D01*
X67504276Y-131242734D01*
X67381140Y-131431207D01*
X67290703Y-131637385D01*
X67235436Y-131855628D01*
X67235434Y-131855640D01*
X67216844Y-132079994D01*
X67216844Y-132080005D01*
X67235434Y-132304359D01*
X67235436Y-132304371D01*
X67290703Y-132522614D01*
X67381140Y-132728792D01*
X67504276Y-132917265D01*
X67504284Y-132917276D01*
X67656756Y-133082902D01*
X67656760Y-133082906D01*
X67834424Y-133221189D01*
X67834429Y-133221191D01*
X67834431Y-133221193D01*
X67870930Y-133240946D01*
X67920520Y-133290165D01*
X67935628Y-133358382D01*
X67911457Y-133423937D01*
X67870930Y-133459054D01*
X67834431Y-133478806D01*
X67834422Y-133478812D01*
X67656761Y-133617092D01*
X67656756Y-133617097D01*
X67504284Y-133782723D01*
X67504276Y-133782734D01*
X67381140Y-133971207D01*
X67290703Y-134177385D01*
X67235436Y-134395628D01*
X67235434Y-134395640D01*
X67216844Y-134619994D01*
X67216844Y-134620005D01*
X67235434Y-134844359D01*
X67235436Y-134844371D01*
X67290703Y-135062614D01*
X67381140Y-135268792D01*
X67504276Y-135457265D01*
X67504284Y-135457276D01*
X67656756Y-135622902D01*
X67656760Y-135622906D01*
X67834424Y-135761189D01*
X67834429Y-135761191D01*
X67834431Y-135761193D01*
X67870930Y-135780946D01*
X67920520Y-135830165D01*
X67935628Y-135898382D01*
X67911457Y-135963937D01*
X67870930Y-135999054D01*
X67834431Y-136018806D01*
X67834422Y-136018812D01*
X67656761Y-136157092D01*
X67656756Y-136157097D01*
X67504284Y-136322723D01*
X67504276Y-136322734D01*
X67381140Y-136511207D01*
X67290703Y-136717385D01*
X67235436Y-136935628D01*
X67235434Y-136935640D01*
X67216844Y-137159994D01*
X67216844Y-137160005D01*
X67235434Y-137384359D01*
X67235436Y-137384371D01*
X67290703Y-137602614D01*
X67381140Y-137808792D01*
X67504276Y-137997265D01*
X67504284Y-137997276D01*
X67656756Y-138162902D01*
X67656760Y-138162906D01*
X67834424Y-138301189D01*
X67834429Y-138301191D01*
X67834431Y-138301193D01*
X67870930Y-138320946D01*
X67920520Y-138370165D01*
X67935628Y-138438382D01*
X67911457Y-138503937D01*
X67870930Y-138539054D01*
X67834431Y-138558806D01*
X67834422Y-138558812D01*
X67656761Y-138697092D01*
X67656756Y-138697097D01*
X67504284Y-138862723D01*
X67504276Y-138862734D01*
X67381140Y-139051207D01*
X67290703Y-139257385D01*
X67235436Y-139475628D01*
X67235434Y-139475640D01*
X67216844Y-139699994D01*
X67216844Y-139700005D01*
X67235434Y-139924359D01*
X67235436Y-139924371D01*
X67290703Y-140142614D01*
X67381140Y-140348792D01*
X67504276Y-140537265D01*
X67504284Y-140537276D01*
X67652340Y-140698105D01*
X67656760Y-140702906D01*
X67834424Y-140841189D01*
X67834429Y-140841191D01*
X67834431Y-140841193D01*
X67870930Y-140860946D01*
X67920520Y-140910165D01*
X67935628Y-140978382D01*
X67911457Y-141043937D01*
X67870930Y-141079054D01*
X67834431Y-141098806D01*
X67834422Y-141098812D01*
X67656761Y-141237092D01*
X67656756Y-141237097D01*
X67504284Y-141402723D01*
X67504276Y-141402734D01*
X67381140Y-141591207D01*
X67290703Y-141797385D01*
X67235436Y-142015628D01*
X67235434Y-142015640D01*
X67216844Y-142239994D01*
X67216844Y-142240005D01*
X67235434Y-142464359D01*
X67235436Y-142464371D01*
X67290703Y-142682614D01*
X67381140Y-142888792D01*
X67504276Y-143077265D01*
X67504284Y-143077276D01*
X67656756Y-143242902D01*
X67656760Y-143242906D01*
X67834424Y-143381189D01*
X67834429Y-143381191D01*
X67834431Y-143381193D01*
X67870930Y-143400946D01*
X67920520Y-143450165D01*
X67935628Y-143518382D01*
X67911457Y-143583937D01*
X67870930Y-143619054D01*
X67834431Y-143638806D01*
X67834422Y-143638812D01*
X67656761Y-143777092D01*
X67656756Y-143777097D01*
X67504284Y-143942723D01*
X67504276Y-143942734D01*
X67381140Y-144131207D01*
X67290703Y-144337385D01*
X67235436Y-144555628D01*
X67235434Y-144555640D01*
X67216844Y-144779994D01*
X67216844Y-144780005D01*
X66325500Y-144780005D01*
X66325500Y-113700005D01*
X89836844Y-113700005D01*
X89855434Y-113924359D01*
X89855436Y-113924371D01*
X89910703Y-114142614D01*
X90001140Y-114348792D01*
X90124276Y-114537265D01*
X90124284Y-114537276D01*
X90250967Y-114674888D01*
X90276760Y-114702906D01*
X90454424Y-114841189D01*
X90454425Y-114841189D01*
X90454427Y-114841191D01*
X90581135Y-114909761D01*
X90652426Y-114948342D01*
X90865365Y-115021444D01*
X91087431Y-115058500D01*
X91312569Y-115058500D01*
X91534635Y-115021444D01*
X91747574Y-114948342D01*
X91945576Y-114841189D01*
X92123240Y-114702906D01*
X92186452Y-114634239D01*
X92246337Y-114598250D01*
X92316175Y-114600349D01*
X92373791Y-114639873D01*
X92393861Y-114674888D01*
X92439110Y-114796203D01*
X92439111Y-114796204D01*
X92526739Y-114913261D01*
X92643796Y-115000889D01*
X92780799Y-115051989D01*
X92808050Y-115054918D01*
X92841345Y-115058499D01*
X92841362Y-115058500D01*
X94638638Y-115058500D01*
X94638654Y-115058499D01*
X94665692Y-115055591D01*
X94699201Y-115051989D01*
X94836204Y-115000889D01*
X94953261Y-114913261D01*
X95040889Y-114796204D01*
X95091989Y-114659201D01*
X95095591Y-114625692D01*
X95098499Y-114598654D01*
X95098500Y-114598637D01*
X95098500Y-112801362D01*
X95098499Y-112801345D01*
X95094672Y-112765759D01*
X95091989Y-112740799D01*
X95040889Y-112603796D01*
X94953261Y-112486739D01*
X94836204Y-112399111D01*
X94836204Y-112399110D01*
X94699203Y-112348011D01*
X94638654Y-112341500D01*
X94638638Y-112341500D01*
X92841362Y-112341500D01*
X92841345Y-112341500D01*
X92780797Y-112348011D01*
X92780795Y-112348011D01*
X92643795Y-112399111D01*
X92526739Y-112486739D01*
X92439111Y-112603795D01*
X92393861Y-112725111D01*
X92351989Y-112781044D01*
X92286524Y-112805460D01*
X92218252Y-112790607D01*
X92186454Y-112765762D01*
X92123240Y-112697094D01*
X91945576Y-112558811D01*
X91945575Y-112558810D01*
X91945572Y-112558808D01*
X91747580Y-112451661D01*
X91747577Y-112451659D01*
X91747574Y-112451658D01*
X91747571Y-112451657D01*
X91747569Y-112451656D01*
X91534637Y-112378556D01*
X91312569Y-112341500D01*
X91087431Y-112341500D01*
X90865362Y-112378556D01*
X90652430Y-112451656D01*
X90652419Y-112451661D01*
X90454427Y-112558808D01*
X90454422Y-112558812D01*
X90276761Y-112697092D01*
X90276756Y-112697097D01*
X90124284Y-112862723D01*
X90124276Y-112862734D01*
X90001140Y-113051207D01*
X89910703Y-113257385D01*
X89855436Y-113475628D01*
X89855434Y-113475640D01*
X89836844Y-113699994D01*
X89836844Y-113700005D01*
X66325500Y-113700005D01*
X66325500Y-104922409D01*
X72121500Y-104922409D01*
X72136579Y-105109204D01*
X72195748Y-105349258D01*
X72196413Y-105351956D01*
X72294410Y-105581965D01*
X72424797Y-105788155D01*
X72428038Y-105793280D01*
X72593823Y-105980413D01*
X72787489Y-106138536D01*
X72787494Y-106138540D01*
X73004007Y-106263544D01*
X73004010Y-106263545D01*
X73237779Y-106352201D01*
X73482742Y-106402211D01*
X73557685Y-106405231D01*
X73732548Y-106412278D01*
X73732549Y-106412278D01*
X73732550Y-106412277D01*
X73732555Y-106412278D01*
X73980748Y-106382142D01*
X74220892Y-106312583D01*
X74446769Y-106205403D01*
X74652528Y-106063378D01*
X74832840Y-105890186D01*
X74983035Y-105690313D01*
X75099223Y-105468935D01*
X75178395Y-105231786D01*
X75218500Y-104985008D01*
X75218500Y-104922062D01*
X77210000Y-104922062D01*
X77224996Y-105107836D01*
X77284503Y-105349258D01*
X77381959Y-105577996D01*
X77381959Y-105577997D01*
X77514854Y-105788155D01*
X77679731Y-105974263D01*
X77872336Y-106131519D01*
X77872343Y-106131524D01*
X78087664Y-106255839D01*
X78320153Y-106344010D01*
X78500000Y-106380725D01*
X78500000Y-104753837D01*
X78581249Y-104784651D01*
X78707660Y-104800000D01*
X78792340Y-104800000D01*
X78918751Y-104784651D01*
X79000000Y-104753837D01*
X79000000Y-106380954D01*
X79059034Y-106373787D01*
X79059041Y-106373785D01*
X79297862Y-106304610D01*
X79297865Y-106304609D01*
X79522505Y-106198017D01*
X79727139Y-106056767D01*
X79727142Y-106056764D01*
X79906450Y-105884538D01*
X79906454Y-105884534D01*
X80055823Y-105685760D01*
X80055823Y-105685759D01*
X80171379Y-105465587D01*
X80250115Y-105229745D01*
X80250115Y-105229744D01*
X80290000Y-104984324D01*
X80290000Y-104922409D01*
X82281500Y-104922409D01*
X82296579Y-105109204D01*
X82355748Y-105349258D01*
X82356413Y-105351956D01*
X82454410Y-105581965D01*
X82584797Y-105788155D01*
X82588038Y-105793280D01*
X82753823Y-105980413D01*
X82947489Y-106138536D01*
X82947494Y-106138540D01*
X83164007Y-106263544D01*
X83164010Y-106263545D01*
X83397779Y-106352201D01*
X83642742Y-106402211D01*
X83717685Y-106405231D01*
X83892548Y-106412278D01*
X83892549Y-106412278D01*
X83892550Y-106412277D01*
X83892555Y-106412278D01*
X84140748Y-106382142D01*
X84380892Y-106312583D01*
X84606769Y-106205403D01*
X84812528Y-106063378D01*
X84992840Y-105890186D01*
X85143035Y-105690313D01*
X85259223Y-105468935D01*
X85338395Y-105231786D01*
X85378500Y-104985008D01*
X85378500Y-104922409D01*
X87361500Y-104922409D01*
X87376579Y-105109204D01*
X87435748Y-105349258D01*
X87436413Y-105351956D01*
X87534410Y-105581965D01*
X87664797Y-105788155D01*
X87668038Y-105793280D01*
X87833823Y-105980413D01*
X88027489Y-106138536D01*
X88027494Y-106138540D01*
X88244007Y-106263544D01*
X88244010Y-106263545D01*
X88477779Y-106352201D01*
X88722742Y-106402211D01*
X88797685Y-106405231D01*
X88972548Y-106412278D01*
X88972549Y-106412278D01*
X88972550Y-106412277D01*
X88972555Y-106412278D01*
X89220748Y-106382142D01*
X89460892Y-106312583D01*
X89686769Y-106205403D01*
X89892528Y-106063378D01*
X90072840Y-105890186D01*
X90223035Y-105690313D01*
X90339223Y-105468935D01*
X90418395Y-105231786D01*
X90458500Y-104985008D01*
X90458500Y-103277593D01*
X90453501Y-103215675D01*
X90443420Y-103090795D01*
X90413206Y-102968213D01*
X90383587Y-102848044D01*
X90285590Y-102618035D01*
X90151965Y-102406724D01*
X90151961Y-102406719D01*
X89986176Y-102219586D01*
X89792510Y-102061463D01*
X89792505Y-102061459D01*
X89575992Y-101936455D01*
X89342229Y-101847802D01*
X89342228Y-101847801D01*
X89342221Y-101847799D01*
X89342218Y-101847798D01*
X89342217Y-101847798D01*
X89097262Y-101797789D01*
X89097254Y-101797788D01*
X88847451Y-101787721D01*
X88847450Y-101787721D01*
X88599259Y-101817856D01*
X88599253Y-101817857D01*
X88599252Y-101817858D01*
X88516581Y-101841803D01*
X88359113Y-101887415D01*
X88359110Y-101887416D01*
X88133227Y-101994598D01*
X87927470Y-102136623D01*
X87927466Y-102136626D01*
X87747161Y-102309811D01*
X87596968Y-102509681D01*
X87596962Y-102509692D01*
X87480777Y-102731062D01*
X87480776Y-102731066D01*
X87401604Y-102968213D01*
X87401604Y-102968214D01*
X87361500Y-103214989D01*
X87361500Y-104922409D01*
X85378500Y-104922409D01*
X85378500Y-103277593D01*
X85373501Y-103215675D01*
X85363420Y-103090795D01*
X85333206Y-102968213D01*
X85303587Y-102848044D01*
X85205590Y-102618035D01*
X85071965Y-102406724D01*
X85071961Y-102406719D01*
X84906176Y-102219586D01*
X84712510Y-102061463D01*
X84712505Y-102061459D01*
X84495992Y-101936455D01*
X84262229Y-101847802D01*
X84262228Y-101847801D01*
X84262221Y-101847799D01*
X84262218Y-101847798D01*
X84262217Y-101847798D01*
X84017262Y-101797789D01*
X84017254Y-101797788D01*
X83767451Y-101787721D01*
X83767450Y-101787721D01*
X83519259Y-101817856D01*
X83519253Y-101817857D01*
X83519252Y-101817858D01*
X83436581Y-101841803D01*
X83279113Y-101887415D01*
X83279110Y-101887416D01*
X83053227Y-101994598D01*
X82847470Y-102136623D01*
X82847466Y-102136626D01*
X82667161Y-102309811D01*
X82516968Y-102509681D01*
X82516962Y-102509692D01*
X82400777Y-102731062D01*
X82400776Y-102731066D01*
X82321604Y-102968213D01*
X82321604Y-102968214D01*
X82281500Y-103214989D01*
X82281500Y-104922409D01*
X80290000Y-104922409D01*
X80290000Y-104350000D01*
X79409329Y-104350000D01*
X79450000Y-104184995D01*
X79450000Y-104015005D01*
X79409329Y-103850000D01*
X80290000Y-103850000D01*
X80290000Y-103277938D01*
X80275003Y-103092163D01*
X80215496Y-102850741D01*
X80118040Y-102622003D01*
X80118040Y-102622002D01*
X79985145Y-102411844D01*
X79820268Y-102225736D01*
X79627663Y-102068480D01*
X79627656Y-102068475D01*
X79412335Y-101944160D01*
X79179858Y-101855993D01*
X79179846Y-101855989D01*
X79000000Y-101819273D01*
X79000000Y-103446162D01*
X78918751Y-103415349D01*
X78792340Y-103400000D01*
X78707660Y-103400000D01*
X78581249Y-103415349D01*
X78500000Y-103446162D01*
X78500000Y-101819044D01*
X78440957Y-101826214D01*
X78440951Y-101826215D01*
X78202137Y-101895389D01*
X78202134Y-101895390D01*
X77977494Y-102001982D01*
X77772860Y-102143232D01*
X77772857Y-102143235D01*
X77593549Y-102315461D01*
X77593545Y-102315465D01*
X77444176Y-102514239D01*
X77444176Y-102514240D01*
X77328620Y-102734412D01*
X77249884Y-102970254D01*
X77249884Y-102970255D01*
X77210000Y-103215675D01*
X77210000Y-103850000D01*
X78090671Y-103850000D01*
X78050000Y-104015005D01*
X78050000Y-104184995D01*
X78090671Y-104350000D01*
X77210000Y-104350000D01*
X77210000Y-104922062D01*
X75218500Y-104922062D01*
X75218500Y-103277593D01*
X75213501Y-103215675D01*
X75203420Y-103090795D01*
X75173206Y-102968213D01*
X75143587Y-102848044D01*
X75045590Y-102618035D01*
X74911965Y-102406724D01*
X74911961Y-102406719D01*
X74746176Y-102219586D01*
X74552510Y-102061463D01*
X74552505Y-102061459D01*
X74335992Y-101936455D01*
X74102229Y-101847802D01*
X74102228Y-101847801D01*
X74102221Y-101847799D01*
X74102218Y-101847798D01*
X74102217Y-101847798D01*
X73857262Y-101797789D01*
X73857254Y-101797788D01*
X73607451Y-101787721D01*
X73607450Y-101787721D01*
X73359259Y-101817856D01*
X73359253Y-101817857D01*
X73359252Y-101817858D01*
X73276581Y-101841803D01*
X73119113Y-101887415D01*
X73119110Y-101887416D01*
X72893227Y-101994598D01*
X72687470Y-102136623D01*
X72687466Y-102136626D01*
X72507161Y-102309811D01*
X72356968Y-102509681D01*
X72356962Y-102509692D01*
X72240777Y-102731062D01*
X72240776Y-102731066D01*
X72161604Y-102968213D01*
X72161604Y-102968214D01*
X72121500Y-103214989D01*
X72121500Y-104922409D01*
X66325500Y-104922409D01*
X66325500Y-99199500D01*
X66345185Y-99132461D01*
X66397989Y-99086706D01*
X66449500Y-99075500D01*
X96050500Y-99075500D01*
X96117539Y-99095185D01*
G37*
G04 #@! TD.AperFunction*
M02*
