%TF.GenerationSoftware,KiCad,Pcbnew,8.0.1-8.0.1-1~ubuntu22.04.1*%
%TF.CreationDate,2024-05-04T13:13:53+02:00*%
%TF.ProjectId,MCU_Board,4d43555f-426f-4617-9264-2e6b69636164,rev?*%
%TF.SameCoordinates,Original*%
%TF.FileFunction,Drillmap*%
%TF.FilePolarity,Positive*%
%FSLAX45Y45*%
G04 Gerber Fmt 4.5, Leading zero omitted, Abs format (unit mm)*
G04 Created by KiCad (PCBNEW 8.0.1-8.0.1-1~ubuntu22.04.1) date 2024-05-04 13:13:53*
%MOMM*%
%LPD*%
G01*
G04 APERTURE LIST*
%ADD10C,0.150000*%
%ADD11C,0.200000*%
G04 APERTURE END LIST*
D10*
X4572000Y-9906000D02*
X4572000Y-16764000D01*
X9652000Y-16764000D02*
X9652000Y-9906000D01*
X4572000Y-9906000D02*
X9652000Y-9906000D01*
X4572000Y-16764000D02*
X9652000Y-16764000D01*
D11*
X4825277Y-17082984D02*
X4825277Y-16882984D01*
X4825277Y-16882984D02*
X4872896Y-16882984D01*
X4872896Y-16882984D02*
X4901467Y-16892508D01*
X4901467Y-16892508D02*
X4920515Y-16911555D01*
X4920515Y-16911555D02*
X4930039Y-16930603D01*
X4930039Y-16930603D02*
X4939563Y-16968698D01*
X4939563Y-16968698D02*
X4939563Y-16997270D01*
X4939563Y-16997270D02*
X4930039Y-17035365D01*
X4930039Y-17035365D02*
X4920515Y-17054412D01*
X4920515Y-17054412D02*
X4901467Y-17073460D01*
X4901467Y-17073460D02*
X4872896Y-17082984D01*
X4872896Y-17082984D02*
X4825277Y-17082984D01*
X5025277Y-17082984D02*
X5025277Y-16949650D01*
X5025277Y-16987746D02*
X5034801Y-16968698D01*
X5034801Y-16968698D02*
X5044324Y-16959174D01*
X5044324Y-16959174D02*
X5063372Y-16949650D01*
X5063372Y-16949650D02*
X5082420Y-16949650D01*
X5149086Y-17082984D02*
X5149086Y-16949650D01*
X5149086Y-16882984D02*
X5139563Y-16892508D01*
X5139563Y-16892508D02*
X5149086Y-16902031D01*
X5149086Y-16902031D02*
X5158610Y-16892508D01*
X5158610Y-16892508D02*
X5149086Y-16882984D01*
X5149086Y-16882984D02*
X5149086Y-16902031D01*
X5272896Y-17082984D02*
X5253848Y-17073460D01*
X5253848Y-17073460D02*
X5244324Y-17054412D01*
X5244324Y-17054412D02*
X5244324Y-16882984D01*
X5377658Y-17082984D02*
X5358610Y-17073460D01*
X5358610Y-17073460D02*
X5349086Y-17054412D01*
X5349086Y-17054412D02*
X5349086Y-16882984D01*
X5606229Y-17082984D02*
X5606229Y-16882984D01*
X5606229Y-16882984D02*
X5672896Y-17025841D01*
X5672896Y-17025841D02*
X5739562Y-16882984D01*
X5739562Y-16882984D02*
X5739562Y-17082984D01*
X5920515Y-17082984D02*
X5920515Y-16978222D01*
X5920515Y-16978222D02*
X5910991Y-16959174D01*
X5910991Y-16959174D02*
X5891943Y-16949650D01*
X5891943Y-16949650D02*
X5853848Y-16949650D01*
X5853848Y-16949650D02*
X5834801Y-16959174D01*
X5920515Y-17073460D02*
X5901467Y-17082984D01*
X5901467Y-17082984D02*
X5853848Y-17082984D01*
X5853848Y-17082984D02*
X5834801Y-17073460D01*
X5834801Y-17073460D02*
X5825277Y-17054412D01*
X5825277Y-17054412D02*
X5825277Y-17035365D01*
X5825277Y-17035365D02*
X5834801Y-17016317D01*
X5834801Y-17016317D02*
X5853848Y-17006793D01*
X5853848Y-17006793D02*
X5901467Y-17006793D01*
X5901467Y-17006793D02*
X5920515Y-16997270D01*
X6015753Y-16949650D02*
X6015753Y-17149650D01*
X6015753Y-16959174D02*
X6034801Y-16949650D01*
X6034801Y-16949650D02*
X6072896Y-16949650D01*
X6072896Y-16949650D02*
X6091943Y-16959174D01*
X6091943Y-16959174D02*
X6101467Y-16968698D01*
X6101467Y-16968698D02*
X6110991Y-16987746D01*
X6110991Y-16987746D02*
X6110991Y-17044889D01*
X6110991Y-17044889D02*
X6101467Y-17063936D01*
X6101467Y-17063936D02*
X6091943Y-17073460D01*
X6091943Y-17073460D02*
X6072896Y-17082984D01*
X6072896Y-17082984D02*
X6034801Y-17082984D01*
X6034801Y-17082984D02*
X6015753Y-17073460D01*
X6196705Y-17063936D02*
X6206229Y-17073460D01*
X6206229Y-17073460D02*
X6196705Y-17082984D01*
X6196705Y-17082984D02*
X6187182Y-17073460D01*
X6187182Y-17073460D02*
X6196705Y-17063936D01*
X6196705Y-17063936D02*
X6196705Y-17082984D01*
X6196705Y-16959174D02*
X6206229Y-16968698D01*
X6206229Y-16968698D02*
X6196705Y-16978222D01*
X6196705Y-16978222D02*
X6187182Y-16968698D01*
X6187182Y-16968698D02*
X6196705Y-16959174D01*
X6196705Y-16959174D02*
X6196705Y-16978222D01*
M02*
