%TF.GenerationSoftware,KiCad,Pcbnew,8.0.1-8.0.1-1~ubuntu22.04.1*%
%TF.CreationDate,2024-05-04T13:13:53+02:00*%
%TF.ProjectId,MCU_Board,4d43555f-426f-4617-9264-2e6b69636164,rev?*%
%TF.SameCoordinates,Original*%
%TF.FileFunction,Drillmap*%
%TF.FilePolarity,Positive*%
%FSLAX45Y45*%
G04 Gerber Fmt 4.5, Leading zero omitted, Abs format (unit mm)*
G04 Created by KiCad (PCBNEW 8.0.1-8.0.1-1~ubuntu22.04.1) date 2024-05-04 13:13:53*
%MOMM*%
%LPD*%
G01*
G04 APERTURE LIST*
%ADD10C,0.150000*%
%ADD11C,0.200000*%
%ADD12C,0.100000*%
%ADD13C,0.130000*%
%ADD14C,0.140000*%
G04 APERTURE END LIST*
D10*
X4572000Y-9906000D02*
X4572000Y-16764000D01*
X9652000Y-16764000D02*
X9652000Y-9906000D01*
X4572000Y-9906000D02*
X9652000Y-9906000D01*
X4572000Y-16764000D02*
X9652000Y-16764000D01*
D11*
D12*
X5641500Y-13041000D02*
X5721500Y-13121000D01*
X5721500Y-13041000D02*
X5641500Y-13121000D01*
X5895500Y-13041000D02*
X5975500Y-13121000D01*
X5975500Y-13041000D02*
X5895500Y-13121000D01*
X6564000Y-12533000D02*
X6644000Y-12613000D01*
X6644000Y-12533000D02*
X6564000Y-12613000D01*
X6564000Y-13041000D02*
X6644000Y-13121000D01*
X6644000Y-13041000D02*
X6564000Y-13121000D01*
X6818000Y-12533000D02*
X6898000Y-12613000D01*
X6898000Y-12533000D02*
X6818000Y-12613000D01*
X6818000Y-13041000D02*
X6898000Y-13121000D01*
X6898000Y-13041000D02*
X6818000Y-13121000D01*
X7389500Y-11394000D02*
X7469500Y-11474000D01*
X7469500Y-11394000D02*
X7389500Y-11474000D01*
X7389500Y-11894000D02*
X7469500Y-11974000D01*
X7469500Y-11894000D02*
X7389500Y-11974000D01*
X8350000Y-13295000D02*
X8430000Y-13375000D01*
X8430000Y-13295000D02*
X8350000Y-13375000D01*
X8710300Y-11923400D02*
X8790300Y-12003400D01*
X8790300Y-11923400D02*
X8710300Y-12003400D01*
X8710300Y-12177400D02*
X8790300Y-12257400D01*
X8790300Y-12177400D02*
X8710300Y-12257400D01*
X8850000Y-13295000D02*
X8930000Y-13375000D01*
X8930000Y-13295000D02*
X8850000Y-13375000D01*
X8854000Y-12723500D02*
X8934000Y-12803500D01*
X8934000Y-12723500D02*
X8854000Y-12803500D01*
X9167500Y-10602600D02*
X9247500Y-10682600D01*
X9247500Y-10602600D02*
X9167500Y-10682600D01*
X9354000Y-12723500D02*
X9434000Y-12803500D01*
X9434000Y-12723500D02*
X9354000Y-12803500D01*
X9421500Y-10602600D02*
X9501500Y-10682600D01*
X9501500Y-10602600D02*
X9421500Y-10682600D01*
X5003000Y-12700500D02*
G75*
G02*
X4903000Y-12700500I-50000J0D01*
G01*
X4903000Y-12700500D02*
G75*
G02*
X5003000Y-12700500I50000J0D01*
G01*
X5003000Y-12954500D02*
G75*
G02*
X4903000Y-12954500I-50000J0D01*
G01*
X4903000Y-12954500D02*
G75*
G02*
X5003000Y-12954500I50000J0D01*
G01*
X5511000Y-13716000D02*
G75*
G02*
X5411000Y-13716000I-50000J0D01*
G01*
X5411000Y-13716000D02*
G75*
G02*
X5511000Y-13716000I50000J0D01*
G01*
X5511000Y-14351000D02*
G75*
G02*
X5411000Y-14351000I-50000J0D01*
G01*
X5411000Y-14351000D02*
G75*
G02*
X5511000Y-14351000I50000J0D01*
G01*
X5511000Y-15875000D02*
G75*
G02*
X5411000Y-15875000I-50000J0D01*
G01*
X5411000Y-15875000D02*
G75*
G02*
X5511000Y-15875000I50000J0D01*
G01*
X5511000Y-16510000D02*
G75*
G02*
X5411000Y-16510000I-50000J0D01*
G01*
X5411000Y-16510000D02*
G75*
G02*
X5511000Y-16510000I50000J0D01*
G01*
X5765000Y-13716000D02*
G75*
G02*
X5665000Y-13716000I-50000J0D01*
G01*
X5665000Y-13716000D02*
G75*
G02*
X5765000Y-13716000I50000J0D01*
G01*
X5765000Y-14351000D02*
G75*
G02*
X5665000Y-14351000I-50000J0D01*
G01*
X5665000Y-14351000D02*
G75*
G02*
X5765000Y-14351000I50000J0D01*
G01*
X5765000Y-15875000D02*
G75*
G02*
X5665000Y-15875000I-50000J0D01*
G01*
X5665000Y-15875000D02*
G75*
G02*
X5765000Y-15875000I50000J0D01*
G01*
X5765000Y-16510000D02*
G75*
G02*
X5665000Y-16510000I-50000J0D01*
G01*
X5665000Y-16510000D02*
G75*
G02*
X5765000Y-16510000I50000J0D01*
G01*
X5950000Y-11676768D02*
G75*
G02*
X5850000Y-11676768I-50000J0D01*
G01*
X5850000Y-11676768D02*
G75*
G02*
X5950000Y-11676768I50000J0D01*
G01*
X5950000Y-12176768D02*
G75*
G02*
X5850000Y-12176768I-50000J0D01*
G01*
X5850000Y-12176768D02*
G75*
G02*
X5950000Y-12176768I50000J0D01*
G01*
X6019000Y-13716000D02*
G75*
G02*
X5919000Y-13716000I-50000J0D01*
G01*
X5919000Y-13716000D02*
G75*
G02*
X6019000Y-13716000I50000J0D01*
G01*
X6019000Y-14351000D02*
G75*
G02*
X5919000Y-14351000I-50000J0D01*
G01*
X5919000Y-14351000D02*
G75*
G02*
X6019000Y-14351000I50000J0D01*
G01*
X6019000Y-15875000D02*
G75*
G02*
X5919000Y-15875000I-50000J0D01*
G01*
X5919000Y-15875000D02*
G75*
G02*
X6019000Y-15875000I50000J0D01*
G01*
X6019000Y-16510000D02*
G75*
G02*
X5919000Y-16510000I-50000J0D01*
G01*
X5919000Y-16510000D02*
G75*
G02*
X6019000Y-16510000I50000J0D01*
G01*
X6273000Y-13716000D02*
G75*
G02*
X6173000Y-13716000I-50000J0D01*
G01*
X6173000Y-13716000D02*
G75*
G02*
X6273000Y-13716000I50000J0D01*
G01*
X6273000Y-14351000D02*
G75*
G02*
X6173000Y-14351000I-50000J0D01*
G01*
X6173000Y-14351000D02*
G75*
G02*
X6273000Y-14351000I50000J0D01*
G01*
X6273000Y-15875000D02*
G75*
G02*
X6173000Y-15875000I-50000J0D01*
G01*
X6173000Y-15875000D02*
G75*
G02*
X6273000Y-15875000I50000J0D01*
G01*
X6273000Y-16510000D02*
G75*
G02*
X6173000Y-16510000I-50000J0D01*
G01*
X6173000Y-16510000D02*
G75*
G02*
X6273000Y-16510000I50000J0D01*
G01*
X6527000Y-13716000D02*
G75*
G02*
X6427000Y-13716000I-50000J0D01*
G01*
X6427000Y-13716000D02*
G75*
G02*
X6527000Y-13716000I50000J0D01*
G01*
X6527000Y-14351000D02*
G75*
G02*
X6427000Y-14351000I-50000J0D01*
G01*
X6427000Y-14351000D02*
G75*
G02*
X6527000Y-14351000I50000J0D01*
G01*
X6527000Y-15875000D02*
G75*
G02*
X6427000Y-15875000I-50000J0D01*
G01*
X6427000Y-15875000D02*
G75*
G02*
X6527000Y-15875000I50000J0D01*
G01*
X6527000Y-16510000D02*
G75*
G02*
X6427000Y-16510000I-50000J0D01*
G01*
X6427000Y-16510000D02*
G75*
G02*
X6527000Y-16510000I50000J0D01*
G01*
X6781000Y-13716000D02*
G75*
G02*
X6681000Y-13716000I-50000J0D01*
G01*
X6681000Y-13716000D02*
G75*
G02*
X6781000Y-13716000I50000J0D01*
G01*
X6781000Y-14351000D02*
G75*
G02*
X6681000Y-14351000I-50000J0D01*
G01*
X6681000Y-14351000D02*
G75*
G02*
X6781000Y-14351000I50000J0D01*
G01*
X6781000Y-15875000D02*
G75*
G02*
X6681000Y-15875000I-50000J0D01*
G01*
X6681000Y-15875000D02*
G75*
G02*
X6781000Y-15875000I50000J0D01*
G01*
X6781000Y-16510000D02*
G75*
G02*
X6681000Y-16510000I-50000J0D01*
G01*
X6681000Y-16510000D02*
G75*
G02*
X6781000Y-16510000I50000J0D01*
G01*
X7035000Y-13716000D02*
G75*
G02*
X6935000Y-13716000I-50000J0D01*
G01*
X6935000Y-13716000D02*
G75*
G02*
X7035000Y-13716000I50000J0D01*
G01*
X7035000Y-14351000D02*
G75*
G02*
X6935000Y-14351000I-50000J0D01*
G01*
X6935000Y-14351000D02*
G75*
G02*
X7035000Y-14351000I50000J0D01*
G01*
X7035000Y-15875000D02*
G75*
G02*
X6935000Y-15875000I-50000J0D01*
G01*
X6935000Y-15875000D02*
G75*
G02*
X7035000Y-15875000I50000J0D01*
G01*
X7035000Y-16510000D02*
G75*
G02*
X6935000Y-16510000I-50000J0D01*
G01*
X6935000Y-16510000D02*
G75*
G02*
X7035000Y-16510000I50000J0D01*
G01*
X7289000Y-13716000D02*
G75*
G02*
X7189000Y-13716000I-50000J0D01*
G01*
X7189000Y-13716000D02*
G75*
G02*
X7289000Y-13716000I50000J0D01*
G01*
X7289000Y-14351000D02*
G75*
G02*
X7189000Y-14351000I-50000J0D01*
G01*
X7189000Y-14351000D02*
G75*
G02*
X7289000Y-14351000I50000J0D01*
G01*
X7289000Y-15875000D02*
G75*
G02*
X7189000Y-15875000I-50000J0D01*
G01*
X7189000Y-15875000D02*
G75*
G02*
X7289000Y-15875000I50000J0D01*
G01*
X7289000Y-16510000D02*
G75*
G02*
X7189000Y-16510000I-50000J0D01*
G01*
X7189000Y-16510000D02*
G75*
G02*
X7289000Y-16510000I50000J0D01*
G01*
X7543000Y-13716000D02*
G75*
G02*
X7443000Y-13716000I-50000J0D01*
G01*
X7443000Y-13716000D02*
G75*
G02*
X7543000Y-13716000I50000J0D01*
G01*
X7543000Y-14351000D02*
G75*
G02*
X7443000Y-14351000I-50000J0D01*
G01*
X7443000Y-14351000D02*
G75*
G02*
X7543000Y-14351000I50000J0D01*
G01*
X7543000Y-15875000D02*
G75*
G02*
X7443000Y-15875000I-50000J0D01*
G01*
X7443000Y-15875000D02*
G75*
G02*
X7543000Y-15875000I50000J0D01*
G01*
X7543000Y-16510000D02*
G75*
G02*
X7443000Y-16510000I-50000J0D01*
G01*
X7443000Y-16510000D02*
G75*
G02*
X7543000Y-16510000I50000J0D01*
G01*
X7660768Y-12827000D02*
G75*
G02*
X7560768Y-12827000I-50000J0D01*
G01*
X7560768Y-12827000D02*
G75*
G02*
X7660768Y-12827000I50000J0D01*
G01*
X7797000Y-13716000D02*
G75*
G02*
X7697000Y-13716000I-50000J0D01*
G01*
X7697000Y-13716000D02*
G75*
G02*
X7797000Y-13716000I50000J0D01*
G01*
X7797000Y-14351000D02*
G75*
G02*
X7697000Y-14351000I-50000J0D01*
G01*
X7697000Y-14351000D02*
G75*
G02*
X7797000Y-14351000I50000J0D01*
G01*
X7797000Y-15875000D02*
G75*
G02*
X7697000Y-15875000I-50000J0D01*
G01*
X7697000Y-15875000D02*
G75*
G02*
X7797000Y-15875000I50000J0D01*
G01*
X7797000Y-16510000D02*
G75*
G02*
X7697000Y-16510000I-50000J0D01*
G01*
X7697000Y-16510000D02*
G75*
G02*
X7797000Y-16510000I50000J0D01*
G01*
X8051000Y-13716000D02*
G75*
G02*
X7951000Y-13716000I-50000J0D01*
G01*
X7951000Y-13716000D02*
G75*
G02*
X8051000Y-13716000I50000J0D01*
G01*
X8051000Y-14351000D02*
G75*
G02*
X7951000Y-14351000I-50000J0D01*
G01*
X7951000Y-14351000D02*
G75*
G02*
X8051000Y-14351000I50000J0D01*
G01*
X8051000Y-15875000D02*
G75*
G02*
X7951000Y-15875000I-50000J0D01*
G01*
X7951000Y-15875000D02*
G75*
G02*
X8051000Y-15875000I50000J0D01*
G01*
X8051000Y-16510000D02*
G75*
G02*
X7951000Y-16510000I-50000J0D01*
G01*
X7951000Y-16510000D02*
G75*
G02*
X8051000Y-16510000I50000J0D01*
G01*
X8160768Y-12827000D02*
G75*
G02*
X8060768Y-12827000I-50000J0D01*
G01*
X8060768Y-12827000D02*
G75*
G02*
X8160768Y-12827000I50000J0D01*
G01*
X8305000Y-13716000D02*
G75*
G02*
X8205000Y-13716000I-50000J0D01*
G01*
X8205000Y-13716000D02*
G75*
G02*
X8305000Y-13716000I50000J0D01*
G01*
X8305000Y-14351000D02*
G75*
G02*
X8205000Y-14351000I-50000J0D01*
G01*
X8205000Y-14351000D02*
G75*
G02*
X8305000Y-14351000I50000J0D01*
G01*
X8305000Y-15875000D02*
G75*
G02*
X8205000Y-15875000I-50000J0D01*
G01*
X8205000Y-15875000D02*
G75*
G02*
X8305000Y-15875000I50000J0D01*
G01*
X8305000Y-16510000D02*
G75*
G02*
X8205000Y-16510000I-50000J0D01*
G01*
X8205000Y-16510000D02*
G75*
G02*
X8305000Y-16510000I50000J0D01*
G01*
X8559000Y-13716000D02*
G75*
G02*
X8459000Y-13716000I-50000J0D01*
G01*
X8459000Y-13716000D02*
G75*
G02*
X8559000Y-13716000I50000J0D01*
G01*
X8559000Y-14351000D02*
G75*
G02*
X8459000Y-14351000I-50000J0D01*
G01*
X8459000Y-14351000D02*
G75*
G02*
X8559000Y-14351000I50000J0D01*
G01*
X8559000Y-15875000D02*
G75*
G02*
X8459000Y-15875000I-50000J0D01*
G01*
X8459000Y-15875000D02*
G75*
G02*
X8559000Y-15875000I50000J0D01*
G01*
X8559000Y-16510000D02*
G75*
G02*
X8459000Y-16510000I-50000J0D01*
G01*
X8459000Y-16510000D02*
G75*
G02*
X8559000Y-16510000I50000J0D01*
G01*
X8813000Y-13716000D02*
G75*
G02*
X8713000Y-13716000I-50000J0D01*
G01*
X8713000Y-13716000D02*
G75*
G02*
X8813000Y-13716000I50000J0D01*
G01*
X8813000Y-14351000D02*
G75*
G02*
X8713000Y-14351000I-50000J0D01*
G01*
X8713000Y-14351000D02*
G75*
G02*
X8813000Y-14351000I50000J0D01*
G01*
X8813000Y-15875000D02*
G75*
G02*
X8713000Y-15875000I-50000J0D01*
G01*
X8713000Y-15875000D02*
G75*
G02*
X8813000Y-15875000I50000J0D01*
G01*
X8813000Y-16510000D02*
G75*
G02*
X8713000Y-16510000I-50000J0D01*
G01*
X8713000Y-16510000D02*
G75*
G02*
X8813000Y-16510000I50000J0D01*
G01*
X9067000Y-13716000D02*
G75*
G02*
X8967000Y-13716000I-50000J0D01*
G01*
X8967000Y-13716000D02*
G75*
G02*
X9067000Y-13716000I50000J0D01*
G01*
X9067000Y-14351000D02*
G75*
G02*
X8967000Y-14351000I-50000J0D01*
G01*
X8967000Y-14351000D02*
G75*
G02*
X9067000Y-14351000I50000J0D01*
G01*
X9067000Y-15875000D02*
G75*
G02*
X8967000Y-15875000I-50000J0D01*
G01*
X8967000Y-15875000D02*
G75*
G02*
X9067000Y-15875000I50000J0D01*
G01*
X9067000Y-16510000D02*
G75*
G02*
X8967000Y-16510000I-50000J0D01*
G01*
X8967000Y-16510000D02*
G75*
G02*
X9067000Y-16510000I50000J0D01*
G01*
X9193500Y-10160000D02*
G75*
G02*
X9093500Y-10160000I-50000J0D01*
G01*
X9093500Y-10160000D02*
G75*
G02*
X9193500Y-10160000I50000J0D01*
G01*
X9447500Y-10160000D02*
G75*
G02*
X9347500Y-10160000I-50000J0D01*
G01*
X9347500Y-10160000D02*
G75*
G02*
X9447500Y-10160000I50000J0D01*
G01*
D13*
X4953000Y-10086000D02*
X4953000Y-10216000D01*
X4888000Y-10151000D02*
X5018000Y-10151000D01*
X4953000Y-10546000D02*
X4953000Y-10676000D01*
X4888000Y-10611000D02*
X5018000Y-10611000D01*
X4953000Y-11676000D02*
X4953000Y-11806000D01*
X4888000Y-11741000D02*
X5018000Y-11741000D01*
X4953000Y-12136000D02*
X4953000Y-12266000D01*
X4888000Y-12201000D02*
X5018000Y-12201000D01*
X8089900Y-11369000D02*
X8089900Y-11499000D01*
X8024900Y-11434000D02*
X8154900Y-11434000D01*
X8089900Y-11869000D02*
X8089900Y-11999000D01*
X8024900Y-11934000D02*
X8154900Y-11934000D01*
D14*
X6907498Y-10459498D02*
X6907498Y-10360502D01*
X6808502Y-10360502D01*
X6808502Y-10459498D01*
X6907498Y-10459498D01*
X7415498Y-10459498D02*
X7415498Y-10360502D01*
X7316502Y-10360502D01*
X7316502Y-10459498D01*
X7415498Y-10459498D01*
X7923498Y-10459498D02*
X7923498Y-10360502D01*
X7824502Y-10360502D01*
X7824502Y-10459498D01*
X7923498Y-10459498D01*
X8431498Y-10459498D02*
X8431498Y-10360502D01*
X8332502Y-10360502D01*
X8332502Y-10459498D01*
X8431498Y-10459498D01*
D11*
X4825277Y-17082984D02*
X4825277Y-16882984D01*
X4825277Y-16882984D02*
X4872896Y-16882984D01*
X4872896Y-16882984D02*
X4901467Y-16892508D01*
X4901467Y-16892508D02*
X4920515Y-16911555D01*
X4920515Y-16911555D02*
X4930039Y-16930603D01*
X4930039Y-16930603D02*
X4939563Y-16968698D01*
X4939563Y-16968698D02*
X4939563Y-16997270D01*
X4939563Y-16997270D02*
X4930039Y-17035365D01*
X4930039Y-17035365D02*
X4920515Y-17054412D01*
X4920515Y-17054412D02*
X4901467Y-17073460D01*
X4901467Y-17073460D02*
X4872896Y-17082984D01*
X4872896Y-17082984D02*
X4825277Y-17082984D01*
X5025277Y-17082984D02*
X5025277Y-16949650D01*
X5025277Y-16987746D02*
X5034801Y-16968698D01*
X5034801Y-16968698D02*
X5044324Y-16959174D01*
X5044324Y-16959174D02*
X5063372Y-16949650D01*
X5063372Y-16949650D02*
X5082420Y-16949650D01*
X5149086Y-17082984D02*
X5149086Y-16949650D01*
X5149086Y-16882984D02*
X5139563Y-16892508D01*
X5139563Y-16892508D02*
X5149086Y-16902031D01*
X5149086Y-16902031D02*
X5158610Y-16892508D01*
X5158610Y-16892508D02*
X5149086Y-16882984D01*
X5149086Y-16882984D02*
X5149086Y-16902031D01*
X5272896Y-17082984D02*
X5253848Y-17073460D01*
X5253848Y-17073460D02*
X5244324Y-17054412D01*
X5244324Y-17054412D02*
X5244324Y-16882984D01*
X5377658Y-17082984D02*
X5358610Y-17073460D01*
X5358610Y-17073460D02*
X5349086Y-17054412D01*
X5349086Y-17054412D02*
X5349086Y-16882984D01*
X5606229Y-17082984D02*
X5606229Y-16882984D01*
X5606229Y-16882984D02*
X5672896Y-17025841D01*
X5672896Y-17025841D02*
X5739562Y-16882984D01*
X5739562Y-16882984D02*
X5739562Y-17082984D01*
X5920515Y-17082984D02*
X5920515Y-16978222D01*
X5920515Y-16978222D02*
X5910991Y-16959174D01*
X5910991Y-16959174D02*
X5891943Y-16949650D01*
X5891943Y-16949650D02*
X5853848Y-16949650D01*
X5853848Y-16949650D02*
X5834801Y-16959174D01*
X5920515Y-17073460D02*
X5901467Y-17082984D01*
X5901467Y-17082984D02*
X5853848Y-17082984D01*
X5853848Y-17082984D02*
X5834801Y-17073460D01*
X5834801Y-17073460D02*
X5825277Y-17054412D01*
X5825277Y-17054412D02*
X5825277Y-17035365D01*
X5825277Y-17035365D02*
X5834801Y-17016317D01*
X5834801Y-17016317D02*
X5853848Y-17006793D01*
X5853848Y-17006793D02*
X5901467Y-17006793D01*
X5901467Y-17006793D02*
X5920515Y-16997270D01*
X6015753Y-16949650D02*
X6015753Y-17149650D01*
X6015753Y-16959174D02*
X6034801Y-16949650D01*
X6034801Y-16949650D02*
X6072896Y-16949650D01*
X6072896Y-16949650D02*
X6091943Y-16959174D01*
X6091943Y-16959174D02*
X6101467Y-16968698D01*
X6101467Y-16968698D02*
X6110991Y-16987746D01*
X6110991Y-16987746D02*
X6110991Y-17044889D01*
X6110991Y-17044889D02*
X6101467Y-17063936D01*
X6101467Y-17063936D02*
X6091943Y-17073460D01*
X6091943Y-17073460D02*
X6072896Y-17082984D01*
X6072896Y-17082984D02*
X6034801Y-17082984D01*
X6034801Y-17082984D02*
X6015753Y-17073460D01*
X6196705Y-17063936D02*
X6206229Y-17073460D01*
X6206229Y-17073460D02*
X6196705Y-17082984D01*
X6196705Y-17082984D02*
X6187182Y-17073460D01*
X6187182Y-17073460D02*
X6196705Y-17063936D01*
X6196705Y-17063936D02*
X6196705Y-17082984D01*
X6196705Y-16959174D02*
X6206229Y-16968698D01*
X6206229Y-16968698D02*
X6196705Y-16978222D01*
X6196705Y-16978222D02*
X6187182Y-16968698D01*
X6187182Y-16968698D02*
X6196705Y-16959174D01*
X6196705Y-16959174D02*
X6196705Y-16978222D01*
D12*
X4484500Y-17371500D02*
X4564500Y-17451500D01*
X4564500Y-17371500D02*
X4484500Y-17451500D01*
D11*
X4863372Y-17302984D02*
X4882420Y-17302984D01*
X4882420Y-17302984D02*
X4901467Y-17312508D01*
X4901467Y-17312508D02*
X4910991Y-17322031D01*
X4910991Y-17322031D02*
X4920515Y-17341079D01*
X4920515Y-17341079D02*
X4930039Y-17379174D01*
X4930039Y-17379174D02*
X4930039Y-17426793D01*
X4930039Y-17426793D02*
X4920515Y-17464889D01*
X4920515Y-17464889D02*
X4910991Y-17483936D01*
X4910991Y-17483936D02*
X4901467Y-17493460D01*
X4901467Y-17493460D02*
X4882420Y-17502984D01*
X4882420Y-17502984D02*
X4863372Y-17502984D01*
X4863372Y-17502984D02*
X4844324Y-17493460D01*
X4844324Y-17493460D02*
X4834801Y-17483936D01*
X4834801Y-17483936D02*
X4825277Y-17464889D01*
X4825277Y-17464889D02*
X4815753Y-17426793D01*
X4815753Y-17426793D02*
X4815753Y-17379174D01*
X4815753Y-17379174D02*
X4825277Y-17341079D01*
X4825277Y-17341079D02*
X4834801Y-17322031D01*
X4834801Y-17322031D02*
X4844324Y-17312508D01*
X4844324Y-17312508D02*
X4863372Y-17302984D01*
X5015753Y-17483936D02*
X5025277Y-17493460D01*
X5025277Y-17493460D02*
X5015753Y-17502984D01*
X5015753Y-17502984D02*
X5006229Y-17493460D01*
X5006229Y-17493460D02*
X5015753Y-17483936D01*
X5015753Y-17483936D02*
X5015753Y-17502984D01*
X5139563Y-17388698D02*
X5120515Y-17379174D01*
X5120515Y-17379174D02*
X5110991Y-17369650D01*
X5110991Y-17369650D02*
X5101467Y-17350603D01*
X5101467Y-17350603D02*
X5101467Y-17341079D01*
X5101467Y-17341079D02*
X5110991Y-17322031D01*
X5110991Y-17322031D02*
X5120515Y-17312508D01*
X5120515Y-17312508D02*
X5139563Y-17302984D01*
X5139563Y-17302984D02*
X5177658Y-17302984D01*
X5177658Y-17302984D02*
X5196705Y-17312508D01*
X5196705Y-17312508D02*
X5206229Y-17322031D01*
X5206229Y-17322031D02*
X5215753Y-17341079D01*
X5215753Y-17341079D02*
X5215753Y-17350603D01*
X5215753Y-17350603D02*
X5206229Y-17369650D01*
X5206229Y-17369650D02*
X5196705Y-17379174D01*
X5196705Y-17379174D02*
X5177658Y-17388698D01*
X5177658Y-17388698D02*
X5139563Y-17388698D01*
X5139563Y-17388698D02*
X5120515Y-17398222D01*
X5120515Y-17398222D02*
X5110991Y-17407746D01*
X5110991Y-17407746D02*
X5101467Y-17426793D01*
X5101467Y-17426793D02*
X5101467Y-17464889D01*
X5101467Y-17464889D02*
X5110991Y-17483936D01*
X5110991Y-17483936D02*
X5120515Y-17493460D01*
X5120515Y-17493460D02*
X5139563Y-17502984D01*
X5139563Y-17502984D02*
X5177658Y-17502984D01*
X5177658Y-17502984D02*
X5196705Y-17493460D01*
X5196705Y-17493460D02*
X5206229Y-17483936D01*
X5206229Y-17483936D02*
X5215753Y-17464889D01*
X5215753Y-17464889D02*
X5215753Y-17426793D01*
X5215753Y-17426793D02*
X5206229Y-17407746D01*
X5206229Y-17407746D02*
X5196705Y-17398222D01*
X5196705Y-17398222D02*
X5177658Y-17388698D01*
X5339563Y-17302984D02*
X5358610Y-17302984D01*
X5358610Y-17302984D02*
X5377658Y-17312508D01*
X5377658Y-17312508D02*
X5387182Y-17322031D01*
X5387182Y-17322031D02*
X5396705Y-17341079D01*
X5396705Y-17341079D02*
X5406229Y-17379174D01*
X5406229Y-17379174D02*
X5406229Y-17426793D01*
X5406229Y-17426793D02*
X5396705Y-17464889D01*
X5396705Y-17464889D02*
X5387182Y-17483936D01*
X5387182Y-17483936D02*
X5377658Y-17493460D01*
X5377658Y-17493460D02*
X5358610Y-17502984D01*
X5358610Y-17502984D02*
X5339563Y-17502984D01*
X5339563Y-17502984D02*
X5320515Y-17493460D01*
X5320515Y-17493460D02*
X5310991Y-17483936D01*
X5310991Y-17483936D02*
X5301467Y-17464889D01*
X5301467Y-17464889D02*
X5291944Y-17426793D01*
X5291944Y-17426793D02*
X5291944Y-17379174D01*
X5291944Y-17379174D02*
X5301467Y-17341079D01*
X5301467Y-17341079D02*
X5310991Y-17322031D01*
X5310991Y-17322031D02*
X5320515Y-17312508D01*
X5320515Y-17312508D02*
X5339563Y-17302984D01*
X5530039Y-17302984D02*
X5549086Y-17302984D01*
X5549086Y-17302984D02*
X5568134Y-17312508D01*
X5568134Y-17312508D02*
X5577658Y-17322031D01*
X5577658Y-17322031D02*
X5587182Y-17341079D01*
X5587182Y-17341079D02*
X5596705Y-17379174D01*
X5596705Y-17379174D02*
X5596705Y-17426793D01*
X5596705Y-17426793D02*
X5587182Y-17464889D01*
X5587182Y-17464889D02*
X5577658Y-17483936D01*
X5577658Y-17483936D02*
X5568134Y-17493460D01*
X5568134Y-17493460D02*
X5549086Y-17502984D01*
X5549086Y-17502984D02*
X5530039Y-17502984D01*
X5530039Y-17502984D02*
X5510991Y-17493460D01*
X5510991Y-17493460D02*
X5501467Y-17483936D01*
X5501467Y-17483936D02*
X5491944Y-17464889D01*
X5491944Y-17464889D02*
X5482420Y-17426793D01*
X5482420Y-17426793D02*
X5482420Y-17379174D01*
X5482420Y-17379174D02*
X5491944Y-17341079D01*
X5491944Y-17341079D02*
X5501467Y-17322031D01*
X5501467Y-17322031D02*
X5510991Y-17312508D01*
X5510991Y-17312508D02*
X5530039Y-17302984D01*
X5682420Y-17502984D02*
X5682420Y-17369650D01*
X5682420Y-17388698D02*
X5691943Y-17379174D01*
X5691943Y-17379174D02*
X5710991Y-17369650D01*
X5710991Y-17369650D02*
X5739563Y-17369650D01*
X5739563Y-17369650D02*
X5758610Y-17379174D01*
X5758610Y-17379174D02*
X5768134Y-17398222D01*
X5768134Y-17398222D02*
X5768134Y-17502984D01*
X5768134Y-17398222D02*
X5777658Y-17379174D01*
X5777658Y-17379174D02*
X5796705Y-17369650D01*
X5796705Y-17369650D02*
X5825277Y-17369650D01*
X5825277Y-17369650D02*
X5844324Y-17379174D01*
X5844324Y-17379174D02*
X5853848Y-17398222D01*
X5853848Y-17398222D02*
X5853848Y-17502984D01*
X5949086Y-17502984D02*
X5949086Y-17369650D01*
X5949086Y-17388698D02*
X5958610Y-17379174D01*
X5958610Y-17379174D02*
X5977658Y-17369650D01*
X5977658Y-17369650D02*
X6006229Y-17369650D01*
X6006229Y-17369650D02*
X6025277Y-17379174D01*
X6025277Y-17379174D02*
X6034801Y-17398222D01*
X6034801Y-17398222D02*
X6034801Y-17502984D01*
X6034801Y-17398222D02*
X6044324Y-17379174D01*
X6044324Y-17379174D02*
X6063372Y-17369650D01*
X6063372Y-17369650D02*
X6091943Y-17369650D01*
X6091943Y-17369650D02*
X6110991Y-17379174D01*
X6110991Y-17379174D02*
X6120515Y-17398222D01*
X6120515Y-17398222D02*
X6120515Y-17502984D01*
X6510991Y-17293460D02*
X6339563Y-17550603D01*
X6768134Y-17302984D02*
X6787182Y-17302984D01*
X6787182Y-17302984D02*
X6806229Y-17312508D01*
X6806229Y-17312508D02*
X6815753Y-17322031D01*
X6815753Y-17322031D02*
X6825277Y-17341079D01*
X6825277Y-17341079D02*
X6834801Y-17379174D01*
X6834801Y-17379174D02*
X6834801Y-17426793D01*
X6834801Y-17426793D02*
X6825277Y-17464889D01*
X6825277Y-17464889D02*
X6815753Y-17483936D01*
X6815753Y-17483936D02*
X6806229Y-17493460D01*
X6806229Y-17493460D02*
X6787182Y-17502984D01*
X6787182Y-17502984D02*
X6768134Y-17502984D01*
X6768134Y-17502984D02*
X6749086Y-17493460D01*
X6749086Y-17493460D02*
X6739563Y-17483936D01*
X6739563Y-17483936D02*
X6730039Y-17464889D01*
X6730039Y-17464889D02*
X6720515Y-17426793D01*
X6720515Y-17426793D02*
X6720515Y-17379174D01*
X6720515Y-17379174D02*
X6730039Y-17341079D01*
X6730039Y-17341079D02*
X6739563Y-17322031D01*
X6739563Y-17322031D02*
X6749086Y-17312508D01*
X6749086Y-17312508D02*
X6768134Y-17302984D01*
X6920515Y-17483936D02*
X6930039Y-17493460D01*
X6930039Y-17493460D02*
X6920515Y-17502984D01*
X6920515Y-17502984D02*
X6910991Y-17493460D01*
X6910991Y-17493460D02*
X6920515Y-17483936D01*
X6920515Y-17483936D02*
X6920515Y-17502984D01*
X7053848Y-17302984D02*
X7072896Y-17302984D01*
X7072896Y-17302984D02*
X7091944Y-17312508D01*
X7091944Y-17312508D02*
X7101467Y-17322031D01*
X7101467Y-17322031D02*
X7110991Y-17341079D01*
X7110991Y-17341079D02*
X7120515Y-17379174D01*
X7120515Y-17379174D02*
X7120515Y-17426793D01*
X7120515Y-17426793D02*
X7110991Y-17464889D01*
X7110991Y-17464889D02*
X7101467Y-17483936D01*
X7101467Y-17483936D02*
X7091944Y-17493460D01*
X7091944Y-17493460D02*
X7072896Y-17502984D01*
X7072896Y-17502984D02*
X7053848Y-17502984D01*
X7053848Y-17502984D02*
X7034801Y-17493460D01*
X7034801Y-17493460D02*
X7025277Y-17483936D01*
X7025277Y-17483936D02*
X7015753Y-17464889D01*
X7015753Y-17464889D02*
X7006229Y-17426793D01*
X7006229Y-17426793D02*
X7006229Y-17379174D01*
X7006229Y-17379174D02*
X7015753Y-17341079D01*
X7015753Y-17341079D02*
X7025277Y-17322031D01*
X7025277Y-17322031D02*
X7034801Y-17312508D01*
X7034801Y-17312508D02*
X7053848Y-17302984D01*
X7187182Y-17302984D02*
X7310991Y-17302984D01*
X7310991Y-17302984D02*
X7244325Y-17379174D01*
X7244325Y-17379174D02*
X7272896Y-17379174D01*
X7272896Y-17379174D02*
X7291944Y-17388698D01*
X7291944Y-17388698D02*
X7301467Y-17398222D01*
X7301467Y-17398222D02*
X7310991Y-17417270D01*
X7310991Y-17417270D02*
X7310991Y-17464889D01*
X7310991Y-17464889D02*
X7301467Y-17483936D01*
X7301467Y-17483936D02*
X7291944Y-17493460D01*
X7291944Y-17493460D02*
X7272896Y-17502984D01*
X7272896Y-17502984D02*
X7215753Y-17502984D01*
X7215753Y-17502984D02*
X7196706Y-17493460D01*
X7196706Y-17493460D02*
X7187182Y-17483936D01*
X7501467Y-17502984D02*
X7387182Y-17502984D01*
X7444325Y-17502984D02*
X7444325Y-17302984D01*
X7444325Y-17302984D02*
X7425277Y-17331555D01*
X7425277Y-17331555D02*
X7406229Y-17350603D01*
X7406229Y-17350603D02*
X7387182Y-17360127D01*
X7682420Y-17302984D02*
X7587182Y-17302984D01*
X7587182Y-17302984D02*
X7577658Y-17398222D01*
X7577658Y-17398222D02*
X7587182Y-17388698D01*
X7587182Y-17388698D02*
X7606229Y-17379174D01*
X7606229Y-17379174D02*
X7653848Y-17379174D01*
X7653848Y-17379174D02*
X7672896Y-17388698D01*
X7672896Y-17388698D02*
X7682420Y-17398222D01*
X7682420Y-17398222D02*
X7691944Y-17417270D01*
X7691944Y-17417270D02*
X7691944Y-17464889D01*
X7691944Y-17464889D02*
X7682420Y-17483936D01*
X7682420Y-17483936D02*
X7672896Y-17493460D01*
X7672896Y-17493460D02*
X7653848Y-17502984D01*
X7653848Y-17502984D02*
X7606229Y-17502984D01*
X7606229Y-17502984D02*
X7587182Y-17493460D01*
X7587182Y-17493460D02*
X7577658Y-17483936D01*
X7768134Y-17302984D02*
X7768134Y-17341079D01*
X7844325Y-17302984D02*
X7844325Y-17341079D01*
X8139563Y-17579174D02*
X8130039Y-17569650D01*
X8130039Y-17569650D02*
X8110991Y-17541079D01*
X8110991Y-17541079D02*
X8101468Y-17522031D01*
X8101468Y-17522031D02*
X8091944Y-17493460D01*
X8091944Y-17493460D02*
X8082420Y-17445841D01*
X8082420Y-17445841D02*
X8082420Y-17407746D01*
X8082420Y-17407746D02*
X8091944Y-17360127D01*
X8091944Y-17360127D02*
X8101468Y-17331555D01*
X8101468Y-17331555D02*
X8110991Y-17312508D01*
X8110991Y-17312508D02*
X8130039Y-17283936D01*
X8130039Y-17283936D02*
X8139563Y-17274412D01*
X8320515Y-17502984D02*
X8206229Y-17502984D01*
X8263372Y-17502984D02*
X8263372Y-17302984D01*
X8263372Y-17302984D02*
X8244325Y-17331555D01*
X8244325Y-17331555D02*
X8225277Y-17350603D01*
X8225277Y-17350603D02*
X8206229Y-17360127D01*
X8491944Y-17302984D02*
X8453849Y-17302984D01*
X8453849Y-17302984D02*
X8434801Y-17312508D01*
X8434801Y-17312508D02*
X8425277Y-17322031D01*
X8425277Y-17322031D02*
X8406230Y-17350603D01*
X8406230Y-17350603D02*
X8396706Y-17388698D01*
X8396706Y-17388698D02*
X8396706Y-17464889D01*
X8396706Y-17464889D02*
X8406230Y-17483936D01*
X8406230Y-17483936D02*
X8415753Y-17493460D01*
X8415753Y-17493460D02*
X8434801Y-17502984D01*
X8434801Y-17502984D02*
X8472896Y-17502984D01*
X8472896Y-17502984D02*
X8491944Y-17493460D01*
X8491944Y-17493460D02*
X8501468Y-17483936D01*
X8501468Y-17483936D02*
X8510991Y-17464889D01*
X8510991Y-17464889D02*
X8510991Y-17417270D01*
X8510991Y-17417270D02*
X8501468Y-17398222D01*
X8501468Y-17398222D02*
X8491944Y-17388698D01*
X8491944Y-17388698D02*
X8472896Y-17379174D01*
X8472896Y-17379174D02*
X8434801Y-17379174D01*
X8434801Y-17379174D02*
X8415753Y-17388698D01*
X8415753Y-17388698D02*
X8406230Y-17398222D01*
X8406230Y-17398222D02*
X8396706Y-17417270D01*
X8749087Y-17502984D02*
X8749087Y-17302984D01*
X8834801Y-17502984D02*
X8834801Y-17398222D01*
X8834801Y-17398222D02*
X8825277Y-17379174D01*
X8825277Y-17379174D02*
X8806230Y-17369650D01*
X8806230Y-17369650D02*
X8777658Y-17369650D01*
X8777658Y-17369650D02*
X8758611Y-17379174D01*
X8758611Y-17379174D02*
X8749087Y-17388698D01*
X8958611Y-17502984D02*
X8939563Y-17493460D01*
X8939563Y-17493460D02*
X8930039Y-17483936D01*
X8930039Y-17483936D02*
X8920515Y-17464889D01*
X8920515Y-17464889D02*
X8920515Y-17407746D01*
X8920515Y-17407746D02*
X8930039Y-17388698D01*
X8930039Y-17388698D02*
X8939563Y-17379174D01*
X8939563Y-17379174D02*
X8958611Y-17369650D01*
X8958611Y-17369650D02*
X8987182Y-17369650D01*
X8987182Y-17369650D02*
X9006230Y-17379174D01*
X9006230Y-17379174D02*
X9015753Y-17388698D01*
X9015753Y-17388698D02*
X9025277Y-17407746D01*
X9025277Y-17407746D02*
X9025277Y-17464889D01*
X9025277Y-17464889D02*
X9015753Y-17483936D01*
X9015753Y-17483936D02*
X9006230Y-17493460D01*
X9006230Y-17493460D02*
X8987182Y-17502984D01*
X8987182Y-17502984D02*
X8958611Y-17502984D01*
X9139563Y-17502984D02*
X9120515Y-17493460D01*
X9120515Y-17493460D02*
X9110992Y-17474412D01*
X9110992Y-17474412D02*
X9110992Y-17302984D01*
X9291944Y-17493460D02*
X9272896Y-17502984D01*
X9272896Y-17502984D02*
X9234801Y-17502984D01*
X9234801Y-17502984D02*
X9215753Y-17493460D01*
X9215753Y-17493460D02*
X9206230Y-17474412D01*
X9206230Y-17474412D02*
X9206230Y-17398222D01*
X9206230Y-17398222D02*
X9215753Y-17379174D01*
X9215753Y-17379174D02*
X9234801Y-17369650D01*
X9234801Y-17369650D02*
X9272896Y-17369650D01*
X9272896Y-17369650D02*
X9291944Y-17379174D01*
X9291944Y-17379174D02*
X9301468Y-17398222D01*
X9301468Y-17398222D02*
X9301468Y-17417270D01*
X9301468Y-17417270D02*
X9206230Y-17436317D01*
X9377658Y-17493460D02*
X9396706Y-17502984D01*
X9396706Y-17502984D02*
X9434801Y-17502984D01*
X9434801Y-17502984D02*
X9453849Y-17493460D01*
X9453849Y-17493460D02*
X9463373Y-17474412D01*
X9463373Y-17474412D02*
X9463373Y-17464889D01*
X9463373Y-17464889D02*
X9453849Y-17445841D01*
X9453849Y-17445841D02*
X9434801Y-17436317D01*
X9434801Y-17436317D02*
X9406230Y-17436317D01*
X9406230Y-17436317D02*
X9387182Y-17426793D01*
X9387182Y-17426793D02*
X9377658Y-17407746D01*
X9377658Y-17407746D02*
X9377658Y-17398222D01*
X9377658Y-17398222D02*
X9387182Y-17379174D01*
X9387182Y-17379174D02*
X9406230Y-17369650D01*
X9406230Y-17369650D02*
X9434801Y-17369650D01*
X9434801Y-17369650D02*
X9453849Y-17379174D01*
X9530039Y-17579174D02*
X9539563Y-17569650D01*
X9539563Y-17569650D02*
X9558611Y-17541079D01*
X9558611Y-17541079D02*
X9568134Y-17522031D01*
X9568134Y-17522031D02*
X9577658Y-17493460D01*
X9577658Y-17493460D02*
X9587182Y-17445841D01*
X9587182Y-17445841D02*
X9587182Y-17407746D01*
X9587182Y-17407746D02*
X9577658Y-17360127D01*
X9577658Y-17360127D02*
X9568134Y-17331555D01*
X9568134Y-17331555D02*
X9558611Y-17312508D01*
X9558611Y-17312508D02*
X9539563Y-17283936D01*
X9539563Y-17283936D02*
X9530039Y-17274412D01*
D12*
X4564500Y-17675500D02*
G75*
G02*
X4464500Y-17675500I-50000J0D01*
G01*
X4464500Y-17675500D02*
G75*
G02*
X4564500Y-17675500I50000J0D01*
G01*
D11*
X4930039Y-17766984D02*
X4815753Y-17766984D01*
X4872896Y-17766984D02*
X4872896Y-17566984D01*
X4872896Y-17566984D02*
X4853848Y-17595555D01*
X4853848Y-17595555D02*
X4834801Y-17614603D01*
X4834801Y-17614603D02*
X4815753Y-17624127D01*
X5015753Y-17747936D02*
X5025277Y-17757460D01*
X5025277Y-17757460D02*
X5015753Y-17766984D01*
X5015753Y-17766984D02*
X5006229Y-17757460D01*
X5006229Y-17757460D02*
X5015753Y-17747936D01*
X5015753Y-17747936D02*
X5015753Y-17766984D01*
X5149086Y-17566984D02*
X5168134Y-17566984D01*
X5168134Y-17566984D02*
X5187182Y-17576508D01*
X5187182Y-17576508D02*
X5196705Y-17586031D01*
X5196705Y-17586031D02*
X5206229Y-17605079D01*
X5206229Y-17605079D02*
X5215753Y-17643174D01*
X5215753Y-17643174D02*
X5215753Y-17690793D01*
X5215753Y-17690793D02*
X5206229Y-17728889D01*
X5206229Y-17728889D02*
X5196705Y-17747936D01*
X5196705Y-17747936D02*
X5187182Y-17757460D01*
X5187182Y-17757460D02*
X5168134Y-17766984D01*
X5168134Y-17766984D02*
X5149086Y-17766984D01*
X5149086Y-17766984D02*
X5130039Y-17757460D01*
X5130039Y-17757460D02*
X5120515Y-17747936D01*
X5120515Y-17747936D02*
X5110991Y-17728889D01*
X5110991Y-17728889D02*
X5101467Y-17690793D01*
X5101467Y-17690793D02*
X5101467Y-17643174D01*
X5101467Y-17643174D02*
X5110991Y-17605079D01*
X5110991Y-17605079D02*
X5120515Y-17586031D01*
X5120515Y-17586031D02*
X5130039Y-17576508D01*
X5130039Y-17576508D02*
X5149086Y-17566984D01*
X5339563Y-17566984D02*
X5358610Y-17566984D01*
X5358610Y-17566984D02*
X5377658Y-17576508D01*
X5377658Y-17576508D02*
X5387182Y-17586031D01*
X5387182Y-17586031D02*
X5396705Y-17605079D01*
X5396705Y-17605079D02*
X5406229Y-17643174D01*
X5406229Y-17643174D02*
X5406229Y-17690793D01*
X5406229Y-17690793D02*
X5396705Y-17728889D01*
X5396705Y-17728889D02*
X5387182Y-17747936D01*
X5387182Y-17747936D02*
X5377658Y-17757460D01*
X5377658Y-17757460D02*
X5358610Y-17766984D01*
X5358610Y-17766984D02*
X5339563Y-17766984D01*
X5339563Y-17766984D02*
X5320515Y-17757460D01*
X5320515Y-17757460D02*
X5310991Y-17747936D01*
X5310991Y-17747936D02*
X5301467Y-17728889D01*
X5301467Y-17728889D02*
X5291944Y-17690793D01*
X5291944Y-17690793D02*
X5291944Y-17643174D01*
X5291944Y-17643174D02*
X5301467Y-17605079D01*
X5301467Y-17605079D02*
X5310991Y-17586031D01*
X5310991Y-17586031D02*
X5320515Y-17576508D01*
X5320515Y-17576508D02*
X5339563Y-17566984D01*
X5530039Y-17566984D02*
X5549086Y-17566984D01*
X5549086Y-17566984D02*
X5568134Y-17576508D01*
X5568134Y-17576508D02*
X5577658Y-17586031D01*
X5577658Y-17586031D02*
X5587182Y-17605079D01*
X5587182Y-17605079D02*
X5596705Y-17643174D01*
X5596705Y-17643174D02*
X5596705Y-17690793D01*
X5596705Y-17690793D02*
X5587182Y-17728889D01*
X5587182Y-17728889D02*
X5577658Y-17747936D01*
X5577658Y-17747936D02*
X5568134Y-17757460D01*
X5568134Y-17757460D02*
X5549086Y-17766984D01*
X5549086Y-17766984D02*
X5530039Y-17766984D01*
X5530039Y-17766984D02*
X5510991Y-17757460D01*
X5510991Y-17757460D02*
X5501467Y-17747936D01*
X5501467Y-17747936D02*
X5491944Y-17728889D01*
X5491944Y-17728889D02*
X5482420Y-17690793D01*
X5482420Y-17690793D02*
X5482420Y-17643174D01*
X5482420Y-17643174D02*
X5491944Y-17605079D01*
X5491944Y-17605079D02*
X5501467Y-17586031D01*
X5501467Y-17586031D02*
X5510991Y-17576508D01*
X5510991Y-17576508D02*
X5530039Y-17566984D01*
X5682420Y-17766984D02*
X5682420Y-17633650D01*
X5682420Y-17652698D02*
X5691943Y-17643174D01*
X5691943Y-17643174D02*
X5710991Y-17633650D01*
X5710991Y-17633650D02*
X5739563Y-17633650D01*
X5739563Y-17633650D02*
X5758610Y-17643174D01*
X5758610Y-17643174D02*
X5768134Y-17662222D01*
X5768134Y-17662222D02*
X5768134Y-17766984D01*
X5768134Y-17662222D02*
X5777658Y-17643174D01*
X5777658Y-17643174D02*
X5796705Y-17633650D01*
X5796705Y-17633650D02*
X5825277Y-17633650D01*
X5825277Y-17633650D02*
X5844324Y-17643174D01*
X5844324Y-17643174D02*
X5853848Y-17662222D01*
X5853848Y-17662222D02*
X5853848Y-17766984D01*
X5949086Y-17766984D02*
X5949086Y-17633650D01*
X5949086Y-17652698D02*
X5958610Y-17643174D01*
X5958610Y-17643174D02*
X5977658Y-17633650D01*
X5977658Y-17633650D02*
X6006229Y-17633650D01*
X6006229Y-17633650D02*
X6025277Y-17643174D01*
X6025277Y-17643174D02*
X6034801Y-17662222D01*
X6034801Y-17662222D02*
X6034801Y-17766984D01*
X6034801Y-17662222D02*
X6044324Y-17643174D01*
X6044324Y-17643174D02*
X6063372Y-17633650D01*
X6063372Y-17633650D02*
X6091943Y-17633650D01*
X6091943Y-17633650D02*
X6110991Y-17643174D01*
X6110991Y-17643174D02*
X6120515Y-17662222D01*
X6120515Y-17662222D02*
X6120515Y-17766984D01*
X6510991Y-17557460D02*
X6339563Y-17814603D01*
X6768134Y-17566984D02*
X6787182Y-17566984D01*
X6787182Y-17566984D02*
X6806229Y-17576508D01*
X6806229Y-17576508D02*
X6815753Y-17586031D01*
X6815753Y-17586031D02*
X6825277Y-17605079D01*
X6825277Y-17605079D02*
X6834801Y-17643174D01*
X6834801Y-17643174D02*
X6834801Y-17690793D01*
X6834801Y-17690793D02*
X6825277Y-17728889D01*
X6825277Y-17728889D02*
X6815753Y-17747936D01*
X6815753Y-17747936D02*
X6806229Y-17757460D01*
X6806229Y-17757460D02*
X6787182Y-17766984D01*
X6787182Y-17766984D02*
X6768134Y-17766984D01*
X6768134Y-17766984D02*
X6749086Y-17757460D01*
X6749086Y-17757460D02*
X6739563Y-17747936D01*
X6739563Y-17747936D02*
X6730039Y-17728889D01*
X6730039Y-17728889D02*
X6720515Y-17690793D01*
X6720515Y-17690793D02*
X6720515Y-17643174D01*
X6720515Y-17643174D02*
X6730039Y-17605079D01*
X6730039Y-17605079D02*
X6739563Y-17586031D01*
X6739563Y-17586031D02*
X6749086Y-17576508D01*
X6749086Y-17576508D02*
X6768134Y-17566984D01*
X6920515Y-17747936D02*
X6930039Y-17757460D01*
X6930039Y-17757460D02*
X6920515Y-17766984D01*
X6920515Y-17766984D02*
X6910991Y-17757460D01*
X6910991Y-17757460D02*
X6920515Y-17747936D01*
X6920515Y-17747936D02*
X6920515Y-17766984D01*
X7053848Y-17566984D02*
X7072896Y-17566984D01*
X7072896Y-17566984D02*
X7091944Y-17576508D01*
X7091944Y-17576508D02*
X7101467Y-17586031D01*
X7101467Y-17586031D02*
X7110991Y-17605079D01*
X7110991Y-17605079D02*
X7120515Y-17643174D01*
X7120515Y-17643174D02*
X7120515Y-17690793D01*
X7120515Y-17690793D02*
X7110991Y-17728889D01*
X7110991Y-17728889D02*
X7101467Y-17747936D01*
X7101467Y-17747936D02*
X7091944Y-17757460D01*
X7091944Y-17757460D02*
X7072896Y-17766984D01*
X7072896Y-17766984D02*
X7053848Y-17766984D01*
X7053848Y-17766984D02*
X7034801Y-17757460D01*
X7034801Y-17757460D02*
X7025277Y-17747936D01*
X7025277Y-17747936D02*
X7015753Y-17728889D01*
X7015753Y-17728889D02*
X7006229Y-17690793D01*
X7006229Y-17690793D02*
X7006229Y-17643174D01*
X7006229Y-17643174D02*
X7015753Y-17605079D01*
X7015753Y-17605079D02*
X7025277Y-17586031D01*
X7025277Y-17586031D02*
X7034801Y-17576508D01*
X7034801Y-17576508D02*
X7053848Y-17566984D01*
X7187182Y-17566984D02*
X7310991Y-17566984D01*
X7310991Y-17566984D02*
X7244325Y-17643174D01*
X7244325Y-17643174D02*
X7272896Y-17643174D01*
X7272896Y-17643174D02*
X7291944Y-17652698D01*
X7291944Y-17652698D02*
X7301467Y-17662222D01*
X7301467Y-17662222D02*
X7310991Y-17681270D01*
X7310991Y-17681270D02*
X7310991Y-17728889D01*
X7310991Y-17728889D02*
X7301467Y-17747936D01*
X7301467Y-17747936D02*
X7291944Y-17757460D01*
X7291944Y-17757460D02*
X7272896Y-17766984D01*
X7272896Y-17766984D02*
X7215753Y-17766984D01*
X7215753Y-17766984D02*
X7196706Y-17757460D01*
X7196706Y-17757460D02*
X7187182Y-17747936D01*
X7406229Y-17766984D02*
X7444325Y-17766984D01*
X7444325Y-17766984D02*
X7463372Y-17757460D01*
X7463372Y-17757460D02*
X7472896Y-17747936D01*
X7472896Y-17747936D02*
X7491944Y-17719365D01*
X7491944Y-17719365D02*
X7501467Y-17681270D01*
X7501467Y-17681270D02*
X7501467Y-17605079D01*
X7501467Y-17605079D02*
X7491944Y-17586031D01*
X7491944Y-17586031D02*
X7482420Y-17576508D01*
X7482420Y-17576508D02*
X7463372Y-17566984D01*
X7463372Y-17566984D02*
X7425277Y-17566984D01*
X7425277Y-17566984D02*
X7406229Y-17576508D01*
X7406229Y-17576508D02*
X7396706Y-17586031D01*
X7396706Y-17586031D02*
X7387182Y-17605079D01*
X7387182Y-17605079D02*
X7387182Y-17652698D01*
X7387182Y-17652698D02*
X7396706Y-17671746D01*
X7396706Y-17671746D02*
X7406229Y-17681270D01*
X7406229Y-17681270D02*
X7425277Y-17690793D01*
X7425277Y-17690793D02*
X7463372Y-17690793D01*
X7463372Y-17690793D02*
X7482420Y-17681270D01*
X7482420Y-17681270D02*
X7491944Y-17671746D01*
X7491944Y-17671746D02*
X7501467Y-17652698D01*
X7672896Y-17633650D02*
X7672896Y-17766984D01*
X7625277Y-17557460D02*
X7577658Y-17700317D01*
X7577658Y-17700317D02*
X7701467Y-17700317D01*
X7768134Y-17566984D02*
X7768134Y-17605079D01*
X7844325Y-17566984D02*
X7844325Y-17605079D01*
X8139563Y-17843174D02*
X8130039Y-17833650D01*
X8130039Y-17833650D02*
X8110991Y-17805079D01*
X8110991Y-17805079D02*
X8101468Y-17786031D01*
X8101468Y-17786031D02*
X8091944Y-17757460D01*
X8091944Y-17757460D02*
X8082420Y-17709841D01*
X8082420Y-17709841D02*
X8082420Y-17671746D01*
X8082420Y-17671746D02*
X8091944Y-17624127D01*
X8091944Y-17624127D02*
X8101468Y-17595555D01*
X8101468Y-17595555D02*
X8110991Y-17576508D01*
X8110991Y-17576508D02*
X8130039Y-17547936D01*
X8130039Y-17547936D02*
X8139563Y-17538412D01*
X8301468Y-17566984D02*
X8263372Y-17566984D01*
X8263372Y-17566984D02*
X8244325Y-17576508D01*
X8244325Y-17576508D02*
X8234801Y-17586031D01*
X8234801Y-17586031D02*
X8215753Y-17614603D01*
X8215753Y-17614603D02*
X8206229Y-17652698D01*
X8206229Y-17652698D02*
X8206229Y-17728889D01*
X8206229Y-17728889D02*
X8215753Y-17747936D01*
X8215753Y-17747936D02*
X8225277Y-17757460D01*
X8225277Y-17757460D02*
X8244325Y-17766984D01*
X8244325Y-17766984D02*
X8282420Y-17766984D01*
X8282420Y-17766984D02*
X8301468Y-17757460D01*
X8301468Y-17757460D02*
X8310991Y-17747936D01*
X8310991Y-17747936D02*
X8320515Y-17728889D01*
X8320515Y-17728889D02*
X8320515Y-17681270D01*
X8320515Y-17681270D02*
X8310991Y-17662222D01*
X8310991Y-17662222D02*
X8301468Y-17652698D01*
X8301468Y-17652698D02*
X8282420Y-17643174D01*
X8282420Y-17643174D02*
X8244325Y-17643174D01*
X8244325Y-17643174D02*
X8225277Y-17652698D01*
X8225277Y-17652698D02*
X8215753Y-17662222D01*
X8215753Y-17662222D02*
X8206229Y-17681270D01*
X8434801Y-17652698D02*
X8415753Y-17643174D01*
X8415753Y-17643174D02*
X8406230Y-17633650D01*
X8406230Y-17633650D02*
X8396706Y-17614603D01*
X8396706Y-17614603D02*
X8396706Y-17605079D01*
X8396706Y-17605079D02*
X8406230Y-17586031D01*
X8406230Y-17586031D02*
X8415753Y-17576508D01*
X8415753Y-17576508D02*
X8434801Y-17566984D01*
X8434801Y-17566984D02*
X8472896Y-17566984D01*
X8472896Y-17566984D02*
X8491944Y-17576508D01*
X8491944Y-17576508D02*
X8501468Y-17586031D01*
X8501468Y-17586031D02*
X8510991Y-17605079D01*
X8510991Y-17605079D02*
X8510991Y-17614603D01*
X8510991Y-17614603D02*
X8501468Y-17633650D01*
X8501468Y-17633650D02*
X8491944Y-17643174D01*
X8491944Y-17643174D02*
X8472896Y-17652698D01*
X8472896Y-17652698D02*
X8434801Y-17652698D01*
X8434801Y-17652698D02*
X8415753Y-17662222D01*
X8415753Y-17662222D02*
X8406230Y-17671746D01*
X8406230Y-17671746D02*
X8396706Y-17690793D01*
X8396706Y-17690793D02*
X8396706Y-17728889D01*
X8396706Y-17728889D02*
X8406230Y-17747936D01*
X8406230Y-17747936D02*
X8415753Y-17757460D01*
X8415753Y-17757460D02*
X8434801Y-17766984D01*
X8434801Y-17766984D02*
X8472896Y-17766984D01*
X8472896Y-17766984D02*
X8491944Y-17757460D01*
X8491944Y-17757460D02*
X8501468Y-17747936D01*
X8501468Y-17747936D02*
X8510991Y-17728889D01*
X8510991Y-17728889D02*
X8510991Y-17690793D01*
X8510991Y-17690793D02*
X8501468Y-17671746D01*
X8501468Y-17671746D02*
X8491944Y-17662222D01*
X8491944Y-17662222D02*
X8472896Y-17652698D01*
X8749087Y-17766984D02*
X8749087Y-17566984D01*
X8834801Y-17766984D02*
X8834801Y-17662222D01*
X8834801Y-17662222D02*
X8825277Y-17643174D01*
X8825277Y-17643174D02*
X8806230Y-17633650D01*
X8806230Y-17633650D02*
X8777658Y-17633650D01*
X8777658Y-17633650D02*
X8758611Y-17643174D01*
X8758611Y-17643174D02*
X8749087Y-17652698D01*
X8958611Y-17766984D02*
X8939563Y-17757460D01*
X8939563Y-17757460D02*
X8930039Y-17747936D01*
X8930039Y-17747936D02*
X8920515Y-17728889D01*
X8920515Y-17728889D02*
X8920515Y-17671746D01*
X8920515Y-17671746D02*
X8930039Y-17652698D01*
X8930039Y-17652698D02*
X8939563Y-17643174D01*
X8939563Y-17643174D02*
X8958611Y-17633650D01*
X8958611Y-17633650D02*
X8987182Y-17633650D01*
X8987182Y-17633650D02*
X9006230Y-17643174D01*
X9006230Y-17643174D02*
X9015753Y-17652698D01*
X9015753Y-17652698D02*
X9025277Y-17671746D01*
X9025277Y-17671746D02*
X9025277Y-17728889D01*
X9025277Y-17728889D02*
X9015753Y-17747936D01*
X9015753Y-17747936D02*
X9006230Y-17757460D01*
X9006230Y-17757460D02*
X8987182Y-17766984D01*
X8987182Y-17766984D02*
X8958611Y-17766984D01*
X9139563Y-17766984D02*
X9120515Y-17757460D01*
X9120515Y-17757460D02*
X9110992Y-17738412D01*
X9110992Y-17738412D02*
X9110992Y-17566984D01*
X9291944Y-17757460D02*
X9272896Y-17766984D01*
X9272896Y-17766984D02*
X9234801Y-17766984D01*
X9234801Y-17766984D02*
X9215753Y-17757460D01*
X9215753Y-17757460D02*
X9206230Y-17738412D01*
X9206230Y-17738412D02*
X9206230Y-17662222D01*
X9206230Y-17662222D02*
X9215753Y-17643174D01*
X9215753Y-17643174D02*
X9234801Y-17633650D01*
X9234801Y-17633650D02*
X9272896Y-17633650D01*
X9272896Y-17633650D02*
X9291944Y-17643174D01*
X9291944Y-17643174D02*
X9301468Y-17662222D01*
X9301468Y-17662222D02*
X9301468Y-17681270D01*
X9301468Y-17681270D02*
X9206230Y-17700317D01*
X9377658Y-17757460D02*
X9396706Y-17766984D01*
X9396706Y-17766984D02*
X9434801Y-17766984D01*
X9434801Y-17766984D02*
X9453849Y-17757460D01*
X9453849Y-17757460D02*
X9463373Y-17738412D01*
X9463373Y-17738412D02*
X9463373Y-17728889D01*
X9463373Y-17728889D02*
X9453849Y-17709841D01*
X9453849Y-17709841D02*
X9434801Y-17700317D01*
X9434801Y-17700317D02*
X9406230Y-17700317D01*
X9406230Y-17700317D02*
X9387182Y-17690793D01*
X9387182Y-17690793D02*
X9377658Y-17671746D01*
X9377658Y-17671746D02*
X9377658Y-17662222D01*
X9377658Y-17662222D02*
X9387182Y-17643174D01*
X9387182Y-17643174D02*
X9406230Y-17633650D01*
X9406230Y-17633650D02*
X9434801Y-17633650D01*
X9434801Y-17633650D02*
X9453849Y-17643174D01*
X9530039Y-17843174D02*
X9539563Y-17833650D01*
X9539563Y-17833650D02*
X9558611Y-17805079D01*
X9558611Y-17805079D02*
X9568134Y-17786031D01*
X9568134Y-17786031D02*
X9577658Y-17757460D01*
X9577658Y-17757460D02*
X9587182Y-17709841D01*
X9587182Y-17709841D02*
X9587182Y-17671746D01*
X9587182Y-17671746D02*
X9577658Y-17624127D01*
X9577658Y-17624127D02*
X9568134Y-17595555D01*
X9568134Y-17595555D02*
X9558611Y-17576508D01*
X9558611Y-17576508D02*
X9539563Y-17547936D01*
X9539563Y-17547936D02*
X9530039Y-17538412D01*
D13*
X4499500Y-17874500D02*
X4499500Y-18004500D01*
X4434500Y-17939500D02*
X4564500Y-17939500D01*
D11*
X4930039Y-18030984D02*
X4815753Y-18030984D01*
X4872896Y-18030984D02*
X4872896Y-17830984D01*
X4872896Y-17830984D02*
X4853848Y-17859555D01*
X4853848Y-17859555D02*
X4834801Y-17878603D01*
X4834801Y-17878603D02*
X4815753Y-17888127D01*
X5015753Y-18011936D02*
X5025277Y-18021460D01*
X5025277Y-18021460D02*
X5015753Y-18030984D01*
X5015753Y-18030984D02*
X5006229Y-18021460D01*
X5006229Y-18021460D02*
X5015753Y-18011936D01*
X5015753Y-18011936D02*
X5015753Y-18030984D01*
X5091944Y-17830984D02*
X5215753Y-17830984D01*
X5215753Y-17830984D02*
X5149086Y-17907174D01*
X5149086Y-17907174D02*
X5177658Y-17907174D01*
X5177658Y-17907174D02*
X5196705Y-17916698D01*
X5196705Y-17916698D02*
X5206229Y-17926222D01*
X5206229Y-17926222D02*
X5215753Y-17945270D01*
X5215753Y-17945270D02*
X5215753Y-17992889D01*
X5215753Y-17992889D02*
X5206229Y-18011936D01*
X5206229Y-18011936D02*
X5196705Y-18021460D01*
X5196705Y-18021460D02*
X5177658Y-18030984D01*
X5177658Y-18030984D02*
X5120515Y-18030984D01*
X5120515Y-18030984D02*
X5101467Y-18021460D01*
X5101467Y-18021460D02*
X5091944Y-18011936D01*
X5339563Y-17830984D02*
X5358610Y-17830984D01*
X5358610Y-17830984D02*
X5377658Y-17840508D01*
X5377658Y-17840508D02*
X5387182Y-17850031D01*
X5387182Y-17850031D02*
X5396705Y-17869079D01*
X5396705Y-17869079D02*
X5406229Y-17907174D01*
X5406229Y-17907174D02*
X5406229Y-17954793D01*
X5406229Y-17954793D02*
X5396705Y-17992889D01*
X5396705Y-17992889D02*
X5387182Y-18011936D01*
X5387182Y-18011936D02*
X5377658Y-18021460D01*
X5377658Y-18021460D02*
X5358610Y-18030984D01*
X5358610Y-18030984D02*
X5339563Y-18030984D01*
X5339563Y-18030984D02*
X5320515Y-18021460D01*
X5320515Y-18021460D02*
X5310991Y-18011936D01*
X5310991Y-18011936D02*
X5301467Y-17992889D01*
X5301467Y-17992889D02*
X5291944Y-17954793D01*
X5291944Y-17954793D02*
X5291944Y-17907174D01*
X5291944Y-17907174D02*
X5301467Y-17869079D01*
X5301467Y-17869079D02*
X5310991Y-17850031D01*
X5310991Y-17850031D02*
X5320515Y-17840508D01*
X5320515Y-17840508D02*
X5339563Y-17830984D01*
X5530039Y-17830984D02*
X5549086Y-17830984D01*
X5549086Y-17830984D02*
X5568134Y-17840508D01*
X5568134Y-17840508D02*
X5577658Y-17850031D01*
X5577658Y-17850031D02*
X5587182Y-17869079D01*
X5587182Y-17869079D02*
X5596705Y-17907174D01*
X5596705Y-17907174D02*
X5596705Y-17954793D01*
X5596705Y-17954793D02*
X5587182Y-17992889D01*
X5587182Y-17992889D02*
X5577658Y-18011936D01*
X5577658Y-18011936D02*
X5568134Y-18021460D01*
X5568134Y-18021460D02*
X5549086Y-18030984D01*
X5549086Y-18030984D02*
X5530039Y-18030984D01*
X5530039Y-18030984D02*
X5510991Y-18021460D01*
X5510991Y-18021460D02*
X5501467Y-18011936D01*
X5501467Y-18011936D02*
X5491944Y-17992889D01*
X5491944Y-17992889D02*
X5482420Y-17954793D01*
X5482420Y-17954793D02*
X5482420Y-17907174D01*
X5482420Y-17907174D02*
X5491944Y-17869079D01*
X5491944Y-17869079D02*
X5501467Y-17850031D01*
X5501467Y-17850031D02*
X5510991Y-17840508D01*
X5510991Y-17840508D02*
X5530039Y-17830984D01*
X5682420Y-18030984D02*
X5682420Y-17897650D01*
X5682420Y-17916698D02*
X5691943Y-17907174D01*
X5691943Y-17907174D02*
X5710991Y-17897650D01*
X5710991Y-17897650D02*
X5739563Y-17897650D01*
X5739563Y-17897650D02*
X5758610Y-17907174D01*
X5758610Y-17907174D02*
X5768134Y-17926222D01*
X5768134Y-17926222D02*
X5768134Y-18030984D01*
X5768134Y-17926222D02*
X5777658Y-17907174D01*
X5777658Y-17907174D02*
X5796705Y-17897650D01*
X5796705Y-17897650D02*
X5825277Y-17897650D01*
X5825277Y-17897650D02*
X5844324Y-17907174D01*
X5844324Y-17907174D02*
X5853848Y-17926222D01*
X5853848Y-17926222D02*
X5853848Y-18030984D01*
X5949086Y-18030984D02*
X5949086Y-17897650D01*
X5949086Y-17916698D02*
X5958610Y-17907174D01*
X5958610Y-17907174D02*
X5977658Y-17897650D01*
X5977658Y-17897650D02*
X6006229Y-17897650D01*
X6006229Y-17897650D02*
X6025277Y-17907174D01*
X6025277Y-17907174D02*
X6034801Y-17926222D01*
X6034801Y-17926222D02*
X6034801Y-18030984D01*
X6034801Y-17926222D02*
X6044324Y-17907174D01*
X6044324Y-17907174D02*
X6063372Y-17897650D01*
X6063372Y-17897650D02*
X6091943Y-17897650D01*
X6091943Y-17897650D02*
X6110991Y-17907174D01*
X6110991Y-17907174D02*
X6120515Y-17926222D01*
X6120515Y-17926222D02*
X6120515Y-18030984D01*
X6510991Y-17821460D02*
X6339563Y-18078603D01*
X6768134Y-17830984D02*
X6787182Y-17830984D01*
X6787182Y-17830984D02*
X6806229Y-17840508D01*
X6806229Y-17840508D02*
X6815753Y-17850031D01*
X6815753Y-17850031D02*
X6825277Y-17869079D01*
X6825277Y-17869079D02*
X6834801Y-17907174D01*
X6834801Y-17907174D02*
X6834801Y-17954793D01*
X6834801Y-17954793D02*
X6825277Y-17992889D01*
X6825277Y-17992889D02*
X6815753Y-18011936D01*
X6815753Y-18011936D02*
X6806229Y-18021460D01*
X6806229Y-18021460D02*
X6787182Y-18030984D01*
X6787182Y-18030984D02*
X6768134Y-18030984D01*
X6768134Y-18030984D02*
X6749086Y-18021460D01*
X6749086Y-18021460D02*
X6739563Y-18011936D01*
X6739563Y-18011936D02*
X6730039Y-17992889D01*
X6730039Y-17992889D02*
X6720515Y-17954793D01*
X6720515Y-17954793D02*
X6720515Y-17907174D01*
X6720515Y-17907174D02*
X6730039Y-17869079D01*
X6730039Y-17869079D02*
X6739563Y-17850031D01*
X6739563Y-17850031D02*
X6749086Y-17840508D01*
X6749086Y-17840508D02*
X6768134Y-17830984D01*
X6920515Y-18011936D02*
X6930039Y-18021460D01*
X6930039Y-18021460D02*
X6920515Y-18030984D01*
X6920515Y-18030984D02*
X6910991Y-18021460D01*
X6910991Y-18021460D02*
X6920515Y-18011936D01*
X6920515Y-18011936D02*
X6920515Y-18030984D01*
X7053848Y-17830984D02*
X7072896Y-17830984D01*
X7072896Y-17830984D02*
X7091944Y-17840508D01*
X7091944Y-17840508D02*
X7101467Y-17850031D01*
X7101467Y-17850031D02*
X7110991Y-17869079D01*
X7110991Y-17869079D02*
X7120515Y-17907174D01*
X7120515Y-17907174D02*
X7120515Y-17954793D01*
X7120515Y-17954793D02*
X7110991Y-17992889D01*
X7110991Y-17992889D02*
X7101467Y-18011936D01*
X7101467Y-18011936D02*
X7091944Y-18021460D01*
X7091944Y-18021460D02*
X7072896Y-18030984D01*
X7072896Y-18030984D02*
X7053848Y-18030984D01*
X7053848Y-18030984D02*
X7034801Y-18021460D01*
X7034801Y-18021460D02*
X7025277Y-18011936D01*
X7025277Y-18011936D02*
X7015753Y-17992889D01*
X7015753Y-17992889D02*
X7006229Y-17954793D01*
X7006229Y-17954793D02*
X7006229Y-17907174D01*
X7006229Y-17907174D02*
X7015753Y-17869079D01*
X7015753Y-17869079D02*
X7025277Y-17850031D01*
X7025277Y-17850031D02*
X7034801Y-17840508D01*
X7034801Y-17840508D02*
X7053848Y-17830984D01*
X7301467Y-17830984D02*
X7206229Y-17830984D01*
X7206229Y-17830984D02*
X7196706Y-17926222D01*
X7196706Y-17926222D02*
X7206229Y-17916698D01*
X7206229Y-17916698D02*
X7225277Y-17907174D01*
X7225277Y-17907174D02*
X7272896Y-17907174D01*
X7272896Y-17907174D02*
X7291944Y-17916698D01*
X7291944Y-17916698D02*
X7301467Y-17926222D01*
X7301467Y-17926222D02*
X7310991Y-17945270D01*
X7310991Y-17945270D02*
X7310991Y-17992889D01*
X7310991Y-17992889D02*
X7301467Y-18011936D01*
X7301467Y-18011936D02*
X7291944Y-18021460D01*
X7291944Y-18021460D02*
X7272896Y-18030984D01*
X7272896Y-18030984D02*
X7225277Y-18030984D01*
X7225277Y-18030984D02*
X7206229Y-18021460D01*
X7206229Y-18021460D02*
X7196706Y-18011936D01*
X7501467Y-18030984D02*
X7387182Y-18030984D01*
X7444325Y-18030984D02*
X7444325Y-17830984D01*
X7444325Y-17830984D02*
X7425277Y-17859555D01*
X7425277Y-17859555D02*
X7406229Y-17878603D01*
X7406229Y-17878603D02*
X7387182Y-17888127D01*
X7577658Y-17850031D02*
X7587182Y-17840508D01*
X7587182Y-17840508D02*
X7606229Y-17830984D01*
X7606229Y-17830984D02*
X7653848Y-17830984D01*
X7653848Y-17830984D02*
X7672896Y-17840508D01*
X7672896Y-17840508D02*
X7682420Y-17850031D01*
X7682420Y-17850031D02*
X7691944Y-17869079D01*
X7691944Y-17869079D02*
X7691944Y-17888127D01*
X7691944Y-17888127D02*
X7682420Y-17916698D01*
X7682420Y-17916698D02*
X7568134Y-18030984D01*
X7568134Y-18030984D02*
X7691944Y-18030984D01*
X7768134Y-17830984D02*
X7768134Y-17869079D01*
X7844325Y-17830984D02*
X7844325Y-17869079D01*
X8139563Y-18107174D02*
X8130039Y-18097650D01*
X8130039Y-18097650D02*
X8110991Y-18069079D01*
X8110991Y-18069079D02*
X8101468Y-18050031D01*
X8101468Y-18050031D02*
X8091944Y-18021460D01*
X8091944Y-18021460D02*
X8082420Y-17973841D01*
X8082420Y-17973841D02*
X8082420Y-17935746D01*
X8082420Y-17935746D02*
X8091944Y-17888127D01*
X8091944Y-17888127D02*
X8101468Y-17859555D01*
X8101468Y-17859555D02*
X8110991Y-17840508D01*
X8110991Y-17840508D02*
X8130039Y-17811936D01*
X8130039Y-17811936D02*
X8139563Y-17802412D01*
X8301468Y-17830984D02*
X8263372Y-17830984D01*
X8263372Y-17830984D02*
X8244325Y-17840508D01*
X8244325Y-17840508D02*
X8234801Y-17850031D01*
X8234801Y-17850031D02*
X8215753Y-17878603D01*
X8215753Y-17878603D02*
X8206229Y-17916698D01*
X8206229Y-17916698D02*
X8206229Y-17992889D01*
X8206229Y-17992889D02*
X8215753Y-18011936D01*
X8215753Y-18011936D02*
X8225277Y-18021460D01*
X8225277Y-18021460D02*
X8244325Y-18030984D01*
X8244325Y-18030984D02*
X8282420Y-18030984D01*
X8282420Y-18030984D02*
X8301468Y-18021460D01*
X8301468Y-18021460D02*
X8310991Y-18011936D01*
X8310991Y-18011936D02*
X8320515Y-17992889D01*
X8320515Y-17992889D02*
X8320515Y-17945270D01*
X8320515Y-17945270D02*
X8310991Y-17926222D01*
X8310991Y-17926222D02*
X8301468Y-17916698D01*
X8301468Y-17916698D02*
X8282420Y-17907174D01*
X8282420Y-17907174D02*
X8244325Y-17907174D01*
X8244325Y-17907174D02*
X8225277Y-17916698D01*
X8225277Y-17916698D02*
X8215753Y-17926222D01*
X8215753Y-17926222D02*
X8206229Y-17945270D01*
X8558611Y-18030984D02*
X8558611Y-17830984D01*
X8644325Y-18030984D02*
X8644325Y-17926222D01*
X8644325Y-17926222D02*
X8634801Y-17907174D01*
X8634801Y-17907174D02*
X8615753Y-17897650D01*
X8615753Y-17897650D02*
X8587182Y-17897650D01*
X8587182Y-17897650D02*
X8568134Y-17907174D01*
X8568134Y-17907174D02*
X8558611Y-17916698D01*
X8768134Y-18030984D02*
X8749087Y-18021460D01*
X8749087Y-18021460D02*
X8739563Y-18011936D01*
X8739563Y-18011936D02*
X8730039Y-17992889D01*
X8730039Y-17992889D02*
X8730039Y-17935746D01*
X8730039Y-17935746D02*
X8739563Y-17916698D01*
X8739563Y-17916698D02*
X8749087Y-17907174D01*
X8749087Y-17907174D02*
X8768134Y-17897650D01*
X8768134Y-17897650D02*
X8796706Y-17897650D01*
X8796706Y-17897650D02*
X8815753Y-17907174D01*
X8815753Y-17907174D02*
X8825277Y-17916698D01*
X8825277Y-17916698D02*
X8834801Y-17935746D01*
X8834801Y-17935746D02*
X8834801Y-17992889D01*
X8834801Y-17992889D02*
X8825277Y-18011936D01*
X8825277Y-18011936D02*
X8815753Y-18021460D01*
X8815753Y-18021460D02*
X8796706Y-18030984D01*
X8796706Y-18030984D02*
X8768134Y-18030984D01*
X8949087Y-18030984D02*
X8930039Y-18021460D01*
X8930039Y-18021460D02*
X8920515Y-18002412D01*
X8920515Y-18002412D02*
X8920515Y-17830984D01*
X9101468Y-18021460D02*
X9082420Y-18030984D01*
X9082420Y-18030984D02*
X9044325Y-18030984D01*
X9044325Y-18030984D02*
X9025277Y-18021460D01*
X9025277Y-18021460D02*
X9015753Y-18002412D01*
X9015753Y-18002412D02*
X9015753Y-17926222D01*
X9015753Y-17926222D02*
X9025277Y-17907174D01*
X9025277Y-17907174D02*
X9044325Y-17897650D01*
X9044325Y-17897650D02*
X9082420Y-17897650D01*
X9082420Y-17897650D02*
X9101468Y-17907174D01*
X9101468Y-17907174D02*
X9110992Y-17926222D01*
X9110992Y-17926222D02*
X9110992Y-17945270D01*
X9110992Y-17945270D02*
X9015753Y-17964317D01*
X9187182Y-18021460D02*
X9206230Y-18030984D01*
X9206230Y-18030984D02*
X9244325Y-18030984D01*
X9244325Y-18030984D02*
X9263373Y-18021460D01*
X9263373Y-18021460D02*
X9272896Y-18002412D01*
X9272896Y-18002412D02*
X9272896Y-17992889D01*
X9272896Y-17992889D02*
X9263373Y-17973841D01*
X9263373Y-17973841D02*
X9244325Y-17964317D01*
X9244325Y-17964317D02*
X9215753Y-17964317D01*
X9215753Y-17964317D02*
X9196706Y-17954793D01*
X9196706Y-17954793D02*
X9187182Y-17935746D01*
X9187182Y-17935746D02*
X9187182Y-17926222D01*
X9187182Y-17926222D02*
X9196706Y-17907174D01*
X9196706Y-17907174D02*
X9215753Y-17897650D01*
X9215753Y-17897650D02*
X9244325Y-17897650D01*
X9244325Y-17897650D02*
X9263373Y-17907174D01*
X9339563Y-18107174D02*
X9349087Y-18097650D01*
X9349087Y-18097650D02*
X9368134Y-18069079D01*
X9368134Y-18069079D02*
X9377658Y-18050031D01*
X9377658Y-18050031D02*
X9387182Y-18021460D01*
X9387182Y-18021460D02*
X9396706Y-17973841D01*
X9396706Y-17973841D02*
X9396706Y-17935746D01*
X9396706Y-17935746D02*
X9387182Y-17888127D01*
X9387182Y-17888127D02*
X9377658Y-17859555D01*
X9377658Y-17859555D02*
X9368134Y-17840508D01*
X9368134Y-17840508D02*
X9349087Y-17811936D01*
X9349087Y-17811936D02*
X9339563Y-17802412D01*
D14*
X4543998Y-18252998D02*
X4543998Y-18154002D01*
X4445002Y-18154002D01*
X4445002Y-18252998D01*
X4543998Y-18252998D01*
D11*
X4930039Y-18294984D02*
X4815753Y-18294984D01*
X4872896Y-18294984D02*
X4872896Y-18094984D01*
X4872896Y-18094984D02*
X4853848Y-18123555D01*
X4853848Y-18123555D02*
X4834801Y-18142603D01*
X4834801Y-18142603D02*
X4815753Y-18152127D01*
X5015753Y-18275936D02*
X5025277Y-18285460D01*
X5025277Y-18285460D02*
X5015753Y-18294984D01*
X5015753Y-18294984D02*
X5006229Y-18285460D01*
X5006229Y-18285460D02*
X5015753Y-18275936D01*
X5015753Y-18275936D02*
X5015753Y-18294984D01*
X5196705Y-18161650D02*
X5196705Y-18294984D01*
X5149086Y-18085460D02*
X5101467Y-18228317D01*
X5101467Y-18228317D02*
X5225277Y-18228317D01*
X5339563Y-18094984D02*
X5358610Y-18094984D01*
X5358610Y-18094984D02*
X5377658Y-18104508D01*
X5377658Y-18104508D02*
X5387182Y-18114031D01*
X5387182Y-18114031D02*
X5396705Y-18133079D01*
X5396705Y-18133079D02*
X5406229Y-18171174D01*
X5406229Y-18171174D02*
X5406229Y-18218793D01*
X5406229Y-18218793D02*
X5396705Y-18256889D01*
X5396705Y-18256889D02*
X5387182Y-18275936D01*
X5387182Y-18275936D02*
X5377658Y-18285460D01*
X5377658Y-18285460D02*
X5358610Y-18294984D01*
X5358610Y-18294984D02*
X5339563Y-18294984D01*
X5339563Y-18294984D02*
X5320515Y-18285460D01*
X5320515Y-18285460D02*
X5310991Y-18275936D01*
X5310991Y-18275936D02*
X5301467Y-18256889D01*
X5301467Y-18256889D02*
X5291944Y-18218793D01*
X5291944Y-18218793D02*
X5291944Y-18171174D01*
X5291944Y-18171174D02*
X5301467Y-18133079D01*
X5301467Y-18133079D02*
X5310991Y-18114031D01*
X5310991Y-18114031D02*
X5320515Y-18104508D01*
X5320515Y-18104508D02*
X5339563Y-18094984D01*
X5530039Y-18094984D02*
X5549086Y-18094984D01*
X5549086Y-18094984D02*
X5568134Y-18104508D01*
X5568134Y-18104508D02*
X5577658Y-18114031D01*
X5577658Y-18114031D02*
X5587182Y-18133079D01*
X5587182Y-18133079D02*
X5596705Y-18171174D01*
X5596705Y-18171174D02*
X5596705Y-18218793D01*
X5596705Y-18218793D02*
X5587182Y-18256889D01*
X5587182Y-18256889D02*
X5577658Y-18275936D01*
X5577658Y-18275936D02*
X5568134Y-18285460D01*
X5568134Y-18285460D02*
X5549086Y-18294984D01*
X5549086Y-18294984D02*
X5530039Y-18294984D01*
X5530039Y-18294984D02*
X5510991Y-18285460D01*
X5510991Y-18285460D02*
X5501467Y-18275936D01*
X5501467Y-18275936D02*
X5491944Y-18256889D01*
X5491944Y-18256889D02*
X5482420Y-18218793D01*
X5482420Y-18218793D02*
X5482420Y-18171174D01*
X5482420Y-18171174D02*
X5491944Y-18133079D01*
X5491944Y-18133079D02*
X5501467Y-18114031D01*
X5501467Y-18114031D02*
X5510991Y-18104508D01*
X5510991Y-18104508D02*
X5530039Y-18094984D01*
X5682420Y-18294984D02*
X5682420Y-18161650D01*
X5682420Y-18180698D02*
X5691943Y-18171174D01*
X5691943Y-18171174D02*
X5710991Y-18161650D01*
X5710991Y-18161650D02*
X5739563Y-18161650D01*
X5739563Y-18161650D02*
X5758610Y-18171174D01*
X5758610Y-18171174D02*
X5768134Y-18190222D01*
X5768134Y-18190222D02*
X5768134Y-18294984D01*
X5768134Y-18190222D02*
X5777658Y-18171174D01*
X5777658Y-18171174D02*
X5796705Y-18161650D01*
X5796705Y-18161650D02*
X5825277Y-18161650D01*
X5825277Y-18161650D02*
X5844324Y-18171174D01*
X5844324Y-18171174D02*
X5853848Y-18190222D01*
X5853848Y-18190222D02*
X5853848Y-18294984D01*
X5949086Y-18294984D02*
X5949086Y-18161650D01*
X5949086Y-18180698D02*
X5958610Y-18171174D01*
X5958610Y-18171174D02*
X5977658Y-18161650D01*
X5977658Y-18161650D02*
X6006229Y-18161650D01*
X6006229Y-18161650D02*
X6025277Y-18171174D01*
X6025277Y-18171174D02*
X6034801Y-18190222D01*
X6034801Y-18190222D02*
X6034801Y-18294984D01*
X6034801Y-18190222D02*
X6044324Y-18171174D01*
X6044324Y-18171174D02*
X6063372Y-18161650D01*
X6063372Y-18161650D02*
X6091943Y-18161650D01*
X6091943Y-18161650D02*
X6110991Y-18171174D01*
X6110991Y-18171174D02*
X6120515Y-18190222D01*
X6120515Y-18190222D02*
X6120515Y-18294984D01*
X6510991Y-18085460D02*
X6339563Y-18342603D01*
X6768134Y-18094984D02*
X6787182Y-18094984D01*
X6787182Y-18094984D02*
X6806229Y-18104508D01*
X6806229Y-18104508D02*
X6815753Y-18114031D01*
X6815753Y-18114031D02*
X6825277Y-18133079D01*
X6825277Y-18133079D02*
X6834801Y-18171174D01*
X6834801Y-18171174D02*
X6834801Y-18218793D01*
X6834801Y-18218793D02*
X6825277Y-18256889D01*
X6825277Y-18256889D02*
X6815753Y-18275936D01*
X6815753Y-18275936D02*
X6806229Y-18285460D01*
X6806229Y-18285460D02*
X6787182Y-18294984D01*
X6787182Y-18294984D02*
X6768134Y-18294984D01*
X6768134Y-18294984D02*
X6749086Y-18285460D01*
X6749086Y-18285460D02*
X6739563Y-18275936D01*
X6739563Y-18275936D02*
X6730039Y-18256889D01*
X6730039Y-18256889D02*
X6720515Y-18218793D01*
X6720515Y-18218793D02*
X6720515Y-18171174D01*
X6720515Y-18171174D02*
X6730039Y-18133079D01*
X6730039Y-18133079D02*
X6739563Y-18114031D01*
X6739563Y-18114031D02*
X6749086Y-18104508D01*
X6749086Y-18104508D02*
X6768134Y-18094984D01*
X6920515Y-18275936D02*
X6930039Y-18285460D01*
X6930039Y-18285460D02*
X6920515Y-18294984D01*
X6920515Y-18294984D02*
X6910991Y-18285460D01*
X6910991Y-18285460D02*
X6920515Y-18275936D01*
X6920515Y-18275936D02*
X6920515Y-18294984D01*
X7053848Y-18094984D02*
X7072896Y-18094984D01*
X7072896Y-18094984D02*
X7091944Y-18104508D01*
X7091944Y-18104508D02*
X7101467Y-18114031D01*
X7101467Y-18114031D02*
X7110991Y-18133079D01*
X7110991Y-18133079D02*
X7120515Y-18171174D01*
X7120515Y-18171174D02*
X7120515Y-18218793D01*
X7120515Y-18218793D02*
X7110991Y-18256889D01*
X7110991Y-18256889D02*
X7101467Y-18275936D01*
X7101467Y-18275936D02*
X7091944Y-18285460D01*
X7091944Y-18285460D02*
X7072896Y-18294984D01*
X7072896Y-18294984D02*
X7053848Y-18294984D01*
X7053848Y-18294984D02*
X7034801Y-18285460D01*
X7034801Y-18285460D02*
X7025277Y-18275936D01*
X7025277Y-18275936D02*
X7015753Y-18256889D01*
X7015753Y-18256889D02*
X7006229Y-18218793D01*
X7006229Y-18218793D02*
X7006229Y-18171174D01*
X7006229Y-18171174D02*
X7015753Y-18133079D01*
X7015753Y-18133079D02*
X7025277Y-18114031D01*
X7025277Y-18114031D02*
X7034801Y-18104508D01*
X7034801Y-18104508D02*
X7053848Y-18094984D01*
X7301467Y-18094984D02*
X7206229Y-18094984D01*
X7206229Y-18094984D02*
X7196706Y-18190222D01*
X7196706Y-18190222D02*
X7206229Y-18180698D01*
X7206229Y-18180698D02*
X7225277Y-18171174D01*
X7225277Y-18171174D02*
X7272896Y-18171174D01*
X7272896Y-18171174D02*
X7291944Y-18180698D01*
X7291944Y-18180698D02*
X7301467Y-18190222D01*
X7301467Y-18190222D02*
X7310991Y-18209270D01*
X7310991Y-18209270D02*
X7310991Y-18256889D01*
X7310991Y-18256889D02*
X7301467Y-18275936D01*
X7301467Y-18275936D02*
X7291944Y-18285460D01*
X7291944Y-18285460D02*
X7272896Y-18294984D01*
X7272896Y-18294984D02*
X7225277Y-18294984D01*
X7225277Y-18294984D02*
X7206229Y-18285460D01*
X7206229Y-18285460D02*
X7196706Y-18275936D01*
X7491944Y-18094984D02*
X7396706Y-18094984D01*
X7396706Y-18094984D02*
X7387182Y-18190222D01*
X7387182Y-18190222D02*
X7396706Y-18180698D01*
X7396706Y-18180698D02*
X7415753Y-18171174D01*
X7415753Y-18171174D02*
X7463372Y-18171174D01*
X7463372Y-18171174D02*
X7482420Y-18180698D01*
X7482420Y-18180698D02*
X7491944Y-18190222D01*
X7491944Y-18190222D02*
X7501467Y-18209270D01*
X7501467Y-18209270D02*
X7501467Y-18256889D01*
X7501467Y-18256889D02*
X7491944Y-18275936D01*
X7491944Y-18275936D02*
X7482420Y-18285460D01*
X7482420Y-18285460D02*
X7463372Y-18294984D01*
X7463372Y-18294984D02*
X7415753Y-18294984D01*
X7415753Y-18294984D02*
X7396706Y-18285460D01*
X7396706Y-18285460D02*
X7387182Y-18275936D01*
X7691944Y-18294984D02*
X7577658Y-18294984D01*
X7634801Y-18294984D02*
X7634801Y-18094984D01*
X7634801Y-18094984D02*
X7615753Y-18123555D01*
X7615753Y-18123555D02*
X7596706Y-18142603D01*
X7596706Y-18142603D02*
X7577658Y-18152127D01*
X7768134Y-18094984D02*
X7768134Y-18133079D01*
X7844325Y-18094984D02*
X7844325Y-18133079D01*
X8139563Y-18371174D02*
X8130039Y-18361650D01*
X8130039Y-18361650D02*
X8110991Y-18333079D01*
X8110991Y-18333079D02*
X8101468Y-18314031D01*
X8101468Y-18314031D02*
X8091944Y-18285460D01*
X8091944Y-18285460D02*
X8082420Y-18237841D01*
X8082420Y-18237841D02*
X8082420Y-18199746D01*
X8082420Y-18199746D02*
X8091944Y-18152127D01*
X8091944Y-18152127D02*
X8101468Y-18123555D01*
X8101468Y-18123555D02*
X8110991Y-18104508D01*
X8110991Y-18104508D02*
X8130039Y-18075936D01*
X8130039Y-18075936D02*
X8139563Y-18066412D01*
X8301468Y-18161650D02*
X8301468Y-18294984D01*
X8253848Y-18085460D02*
X8206229Y-18228317D01*
X8206229Y-18228317D02*
X8330039Y-18228317D01*
X8558611Y-18294984D02*
X8558611Y-18094984D01*
X8644325Y-18294984D02*
X8644325Y-18190222D01*
X8644325Y-18190222D02*
X8634801Y-18171174D01*
X8634801Y-18171174D02*
X8615753Y-18161650D01*
X8615753Y-18161650D02*
X8587182Y-18161650D01*
X8587182Y-18161650D02*
X8568134Y-18171174D01*
X8568134Y-18171174D02*
X8558611Y-18180698D01*
X8768134Y-18294984D02*
X8749087Y-18285460D01*
X8749087Y-18285460D02*
X8739563Y-18275936D01*
X8739563Y-18275936D02*
X8730039Y-18256889D01*
X8730039Y-18256889D02*
X8730039Y-18199746D01*
X8730039Y-18199746D02*
X8739563Y-18180698D01*
X8739563Y-18180698D02*
X8749087Y-18171174D01*
X8749087Y-18171174D02*
X8768134Y-18161650D01*
X8768134Y-18161650D02*
X8796706Y-18161650D01*
X8796706Y-18161650D02*
X8815753Y-18171174D01*
X8815753Y-18171174D02*
X8825277Y-18180698D01*
X8825277Y-18180698D02*
X8834801Y-18199746D01*
X8834801Y-18199746D02*
X8834801Y-18256889D01*
X8834801Y-18256889D02*
X8825277Y-18275936D01*
X8825277Y-18275936D02*
X8815753Y-18285460D01*
X8815753Y-18285460D02*
X8796706Y-18294984D01*
X8796706Y-18294984D02*
X8768134Y-18294984D01*
X8949087Y-18294984D02*
X8930039Y-18285460D01*
X8930039Y-18285460D02*
X8920515Y-18266412D01*
X8920515Y-18266412D02*
X8920515Y-18094984D01*
X9101468Y-18285460D02*
X9082420Y-18294984D01*
X9082420Y-18294984D02*
X9044325Y-18294984D01*
X9044325Y-18294984D02*
X9025277Y-18285460D01*
X9025277Y-18285460D02*
X9015753Y-18266412D01*
X9015753Y-18266412D02*
X9015753Y-18190222D01*
X9015753Y-18190222D02*
X9025277Y-18171174D01*
X9025277Y-18171174D02*
X9044325Y-18161650D01*
X9044325Y-18161650D02*
X9082420Y-18161650D01*
X9082420Y-18161650D02*
X9101468Y-18171174D01*
X9101468Y-18171174D02*
X9110992Y-18190222D01*
X9110992Y-18190222D02*
X9110992Y-18209270D01*
X9110992Y-18209270D02*
X9015753Y-18228317D01*
X9187182Y-18285460D02*
X9206230Y-18294984D01*
X9206230Y-18294984D02*
X9244325Y-18294984D01*
X9244325Y-18294984D02*
X9263373Y-18285460D01*
X9263373Y-18285460D02*
X9272896Y-18266412D01*
X9272896Y-18266412D02*
X9272896Y-18256889D01*
X9272896Y-18256889D02*
X9263373Y-18237841D01*
X9263373Y-18237841D02*
X9244325Y-18228317D01*
X9244325Y-18228317D02*
X9215753Y-18228317D01*
X9215753Y-18228317D02*
X9196706Y-18218793D01*
X9196706Y-18218793D02*
X9187182Y-18199746D01*
X9187182Y-18199746D02*
X9187182Y-18190222D01*
X9187182Y-18190222D02*
X9196706Y-18171174D01*
X9196706Y-18171174D02*
X9215753Y-18161650D01*
X9215753Y-18161650D02*
X9244325Y-18161650D01*
X9244325Y-18161650D02*
X9263373Y-18171174D01*
X9339563Y-18371174D02*
X9349087Y-18361650D01*
X9349087Y-18361650D02*
X9368134Y-18333079D01*
X9368134Y-18333079D02*
X9377658Y-18314031D01*
X9377658Y-18314031D02*
X9387182Y-18285460D01*
X9387182Y-18285460D02*
X9396706Y-18237841D01*
X9396706Y-18237841D02*
X9396706Y-18199746D01*
X9396706Y-18199746D02*
X9387182Y-18152127D01*
X9387182Y-18152127D02*
X9377658Y-18123555D01*
X9377658Y-18123555D02*
X9368134Y-18104508D01*
X9368134Y-18104508D02*
X9349087Y-18075936D01*
X9349087Y-18075936D02*
X9339563Y-18066412D01*
M02*
