G04 #@! TF.GenerationSoftware,KiCad,Pcbnew,8.0.1-8.0.1-1~ubuntu22.04.1*
G04 #@! TF.CreationDate,2024-04-21T12:37:43+02:00*
G04 #@! TF.ProjectId,MCU_Board,4d43555f-426f-4617-9264-2e6b69636164,rev?*
G04 #@! TF.SameCoordinates,Original*
G04 #@! TF.FileFunction,Soldermask,Bot*
G04 #@! TF.FilePolarity,Negative*
%FSLAX46Y46*%
G04 Gerber Fmt 4.6, Leading zero omitted, Abs format (unit mm)*
G04 Created by KiCad (PCBNEW 8.0.1-8.0.1-1~ubuntu22.04.1) date 2024-04-21 12:37:43*
%MOMM*%
%LPD*%
G01*
G04 APERTURE LIST*
G04 APERTURE END LIST*
G36*
X50026676Y-151553591D02*
G01*
X50064184Y-151553591D01*
X50094671Y-151562542D01*
X50116450Y-151565410D01*
X50145703Y-151577527D01*
X50187352Y-151589756D01*
X50209334Y-151603883D01*
X50224961Y-151610356D01*
X50253595Y-151632327D01*
X50295342Y-151659157D01*
X50308799Y-151674688D01*
X50318141Y-151681856D01*
X50342357Y-151713416D01*
X50379405Y-151756171D01*
X50385639Y-151769822D01*
X50389643Y-151775040D01*
X50405451Y-151813205D01*
X50432731Y-151872939D01*
X50434079Y-151882319D01*
X50434589Y-151883549D01*
X50438197Y-151910960D01*
X50451000Y-152000000D01*
X50438196Y-152089048D01*
X50434589Y-152116450D01*
X50434079Y-152117678D01*
X50432731Y-152127061D01*
X50405452Y-152186791D01*
X50389643Y-152224961D01*
X50385638Y-152230180D01*
X50379405Y-152243829D01*
X50342356Y-152286584D01*
X50318142Y-152318142D01*
X50308803Y-152325308D01*
X50295342Y-152340843D01*
X50253586Y-152367677D01*
X50224961Y-152389643D01*
X50209339Y-152396113D01*
X50187352Y-152410244D01*
X50145695Y-152422475D01*
X50116450Y-152434589D01*
X50094677Y-152437455D01*
X50064184Y-152446409D01*
X50026669Y-152446409D01*
X50000000Y-152449920D01*
X49973331Y-152446409D01*
X49935816Y-152446409D01*
X49905323Y-152437455D01*
X49883549Y-152434589D01*
X49854301Y-152422474D01*
X49812648Y-152410244D01*
X49790662Y-152396114D01*
X49775038Y-152389643D01*
X49746407Y-152367673D01*
X49704658Y-152340843D01*
X49691198Y-152325310D01*
X49681857Y-152318142D01*
X49657634Y-152286574D01*
X49620595Y-152243829D01*
X49614363Y-152230183D01*
X49610356Y-152224961D01*
X49594536Y-152186768D01*
X49567269Y-152127061D01*
X49565920Y-152117682D01*
X49565410Y-152116450D01*
X49561791Y-152088965D01*
X49549000Y-152000000D01*
X49561790Y-151911042D01*
X49565410Y-151883549D01*
X49565920Y-151882315D01*
X49567269Y-151872939D01*
X49594537Y-151813228D01*
X49610356Y-151775040D01*
X49614362Y-151769818D01*
X49620595Y-151756171D01*
X49657632Y-151713427D01*
X49681857Y-151681857D01*
X49691201Y-151674687D01*
X49704658Y-151659157D01*
X49746407Y-151632326D01*
X49775040Y-151610356D01*
X49790663Y-151603884D01*
X49812648Y-151589756D01*
X49854294Y-151577527D01*
X49883549Y-151565410D01*
X49905329Y-151562542D01*
X49935816Y-151553591D01*
X49973324Y-151553591D01*
X50000000Y-151550079D01*
X50026676Y-151553591D01*
G37*
G36*
X74195023Y-147004073D02*
G01*
X74233657Y-147004073D01*
X74277240Y-147013336D01*
X74328239Y-147019083D01*
X74365321Y-147032058D01*
X74397306Y-147038857D01*
X74443401Y-147059379D01*
X74497541Y-147078324D01*
X74525719Y-147096029D01*
X74550157Y-147106910D01*
X74595720Y-147140014D01*
X74649415Y-147173753D01*
X74668700Y-147193038D01*
X74685512Y-147205253D01*
X74727076Y-147251414D01*
X74776247Y-147300585D01*
X74787555Y-147318582D01*
X74797467Y-147329590D01*
X74831376Y-147388322D01*
X74871676Y-147452459D01*
X74876707Y-147466838D01*
X74881120Y-147474481D01*
X74903718Y-147544030D01*
X74930917Y-147621761D01*
X74931948Y-147630913D01*
X74932823Y-147633606D01*
X74940750Y-147709038D01*
X74951000Y-147800000D01*
X74940750Y-147890969D01*
X74932823Y-147966393D01*
X74931948Y-147969084D01*
X74930917Y-147978239D01*
X74903713Y-148055982D01*
X74881120Y-148125518D01*
X74876708Y-148133159D01*
X74871676Y-148147541D01*
X74831369Y-148211688D01*
X74797467Y-148270409D01*
X74787557Y-148281414D01*
X74776247Y-148299415D01*
X74727067Y-148348594D01*
X74685512Y-148394746D01*
X74668704Y-148406957D01*
X74649415Y-148426247D01*
X74595710Y-148459992D01*
X74550157Y-148493089D01*
X74525725Y-148503966D01*
X74497541Y-148521676D01*
X74443391Y-148540623D01*
X74397306Y-148561142D01*
X74365327Y-148567939D01*
X74328239Y-148580917D01*
X74277237Y-148586663D01*
X74233657Y-148595927D01*
X74195023Y-148595927D01*
X74150000Y-148601000D01*
X74104977Y-148595927D01*
X74066343Y-148595927D01*
X74022761Y-148586663D01*
X73971761Y-148580917D01*
X73934674Y-148567939D01*
X73902693Y-148561142D01*
X73856603Y-148540622D01*
X73802459Y-148521676D01*
X73774277Y-148503968D01*
X73749842Y-148493089D01*
X73704282Y-148459987D01*
X73650585Y-148426247D01*
X73631298Y-148406960D01*
X73614487Y-148394746D01*
X73572922Y-148348584D01*
X73523753Y-148299415D01*
X73512444Y-148281418D01*
X73502532Y-148270409D01*
X73468618Y-148211668D01*
X73428324Y-148147541D01*
X73423293Y-148133163D01*
X73418879Y-148125518D01*
X73396272Y-148055942D01*
X73369083Y-147978239D01*
X73368052Y-147969089D01*
X73367176Y-147966393D01*
X73359235Y-147890837D01*
X73349000Y-147800000D01*
X73359234Y-147709170D01*
X73367176Y-147633606D01*
X73368052Y-147630909D01*
X73369083Y-147621761D01*
X73396267Y-147544070D01*
X73418879Y-147474481D01*
X73423293Y-147466834D01*
X73428324Y-147452459D01*
X73468611Y-147388342D01*
X73502532Y-147329590D01*
X73512446Y-147318578D01*
X73523753Y-147300585D01*
X73572913Y-147251424D01*
X73614487Y-147205253D01*
X73631301Y-147193036D01*
X73650585Y-147173753D01*
X73704278Y-147140015D01*
X73749846Y-147106908D01*
X73774284Y-147096027D01*
X73802459Y-147078324D01*
X73856587Y-147059383D01*
X73902689Y-147038858D01*
X73934679Y-147032058D01*
X73971761Y-147019083D01*
X74022759Y-147013336D01*
X74066343Y-147004073D01*
X74104977Y-147004073D01*
X74150000Y-146999000D01*
X74195023Y-147004073D01*
G37*
G36*
X79095023Y-147004073D02*
G01*
X79133657Y-147004073D01*
X79177240Y-147013336D01*
X79228239Y-147019083D01*
X79265321Y-147032058D01*
X79297306Y-147038857D01*
X79343401Y-147059379D01*
X79397541Y-147078324D01*
X79425719Y-147096029D01*
X79450157Y-147106910D01*
X79495720Y-147140014D01*
X79549415Y-147173753D01*
X79568700Y-147193038D01*
X79585512Y-147205253D01*
X79627076Y-147251414D01*
X79676247Y-147300585D01*
X79687555Y-147318582D01*
X79697467Y-147329590D01*
X79731376Y-147388322D01*
X79771676Y-147452459D01*
X79776707Y-147466838D01*
X79781120Y-147474481D01*
X79803718Y-147544030D01*
X79830917Y-147621761D01*
X79831948Y-147630913D01*
X79832823Y-147633606D01*
X79840750Y-147709038D01*
X79851000Y-147800000D01*
X79840750Y-147890969D01*
X79832823Y-147966393D01*
X79831948Y-147969084D01*
X79830917Y-147978239D01*
X79803713Y-148055982D01*
X79781120Y-148125518D01*
X79776708Y-148133159D01*
X79771676Y-148147541D01*
X79731369Y-148211688D01*
X79697467Y-148270409D01*
X79687557Y-148281414D01*
X79676247Y-148299415D01*
X79627067Y-148348594D01*
X79585512Y-148394746D01*
X79568704Y-148406957D01*
X79549415Y-148426247D01*
X79495710Y-148459992D01*
X79450157Y-148493089D01*
X79425725Y-148503966D01*
X79397541Y-148521676D01*
X79343391Y-148540623D01*
X79297306Y-148561142D01*
X79265327Y-148567939D01*
X79228239Y-148580917D01*
X79177237Y-148586663D01*
X79133657Y-148595927D01*
X79095023Y-148595927D01*
X79050000Y-148601000D01*
X79004977Y-148595927D01*
X78966343Y-148595927D01*
X78922761Y-148586663D01*
X78871761Y-148580917D01*
X78834674Y-148567939D01*
X78802693Y-148561142D01*
X78756603Y-148540622D01*
X78702459Y-148521676D01*
X78674277Y-148503968D01*
X78649842Y-148493089D01*
X78604282Y-148459987D01*
X78550585Y-148426247D01*
X78531298Y-148406960D01*
X78514487Y-148394746D01*
X78472922Y-148348584D01*
X78423753Y-148299415D01*
X78412444Y-148281418D01*
X78402532Y-148270409D01*
X78368618Y-148211668D01*
X78328324Y-148147541D01*
X78323293Y-148133163D01*
X78318879Y-148125518D01*
X78296272Y-148055942D01*
X78269083Y-147978239D01*
X78268052Y-147969089D01*
X78267176Y-147966393D01*
X78259235Y-147890837D01*
X78249000Y-147800000D01*
X78259234Y-147709170D01*
X78267176Y-147633606D01*
X78268052Y-147630909D01*
X78269083Y-147621761D01*
X78296267Y-147544070D01*
X78318879Y-147474481D01*
X78323293Y-147466834D01*
X78328324Y-147452459D01*
X78368611Y-147388342D01*
X78402532Y-147329590D01*
X78412446Y-147318578D01*
X78423753Y-147300585D01*
X78472913Y-147251424D01*
X78514487Y-147205253D01*
X78531301Y-147193036D01*
X78550585Y-147173753D01*
X78604278Y-147140015D01*
X78649846Y-147106908D01*
X78674284Y-147096027D01*
X78702459Y-147078324D01*
X78756587Y-147059383D01*
X78802689Y-147038858D01*
X78834679Y-147032058D01*
X78871761Y-147019083D01*
X78922759Y-147013336D01*
X78966343Y-147004073D01*
X79004977Y-147004073D01*
X79050000Y-146999000D01*
X79095023Y-147004073D01*
G37*
G36*
X48303983Y-143883936D02*
G01*
X48354180Y-143883936D01*
X48397524Y-143893149D01*
X48435659Y-143896905D01*
X48483566Y-143911437D01*
X48538424Y-143923098D01*
X48573530Y-143938728D01*
X48604566Y-143948143D01*
X48653884Y-143974504D01*
X48710500Y-143999711D01*
X48736822Y-144018835D01*
X48760232Y-144031348D01*
X48807988Y-144070540D01*
X48862887Y-144110427D01*
X48880711Y-144130223D01*
X48896675Y-144143324D01*
X48939572Y-144195594D01*
X48988924Y-144250405D01*
X48999292Y-144268363D01*
X49008651Y-144279767D01*
X49043273Y-144344542D01*
X49083104Y-144413530D01*
X49087685Y-144427630D01*
X49091856Y-144435433D01*
X49114852Y-144511242D01*
X49141311Y-144592672D01*
X49142242Y-144601532D01*
X49143094Y-144604340D01*
X49151384Y-144688513D01*
X49161000Y-144780000D01*
X49151383Y-144871494D01*
X49143094Y-144955659D01*
X49142242Y-144958466D01*
X49141311Y-144967328D01*
X49114848Y-145048771D01*
X49091856Y-145124566D01*
X49087686Y-145132366D01*
X49083104Y-145146470D01*
X49043266Y-145215470D01*
X49008651Y-145280232D01*
X48999294Y-145291633D01*
X48988924Y-145309595D01*
X48939563Y-145364415D01*
X48896675Y-145416675D01*
X48880714Y-145429773D01*
X48862887Y-145449573D01*
X48807977Y-145489467D01*
X48760232Y-145528651D01*
X48736827Y-145541161D01*
X48710500Y-145560289D01*
X48653873Y-145585500D01*
X48604566Y-145611856D01*
X48573537Y-145621268D01*
X48538424Y-145636902D01*
X48483555Y-145648564D01*
X48435659Y-145663094D01*
X48397532Y-145666849D01*
X48354180Y-145676064D01*
X48303973Y-145676064D01*
X48260000Y-145680395D01*
X48216027Y-145676064D01*
X48165820Y-145676064D01*
X48122467Y-145666849D01*
X48084340Y-145663094D01*
X48036441Y-145648563D01*
X47981576Y-145636902D01*
X47946464Y-145621269D01*
X47915433Y-145611856D01*
X47866120Y-145585498D01*
X47809500Y-145560289D01*
X47783175Y-145541163D01*
X47759767Y-145528651D01*
X47712013Y-145489460D01*
X47657113Y-145449573D01*
X47639287Y-145429776D01*
X47623324Y-145416675D01*
X47580425Y-145364402D01*
X47531076Y-145309595D01*
X47520708Y-145291637D01*
X47511348Y-145280232D01*
X47476719Y-145215447D01*
X47436896Y-145146470D01*
X47432315Y-145132371D01*
X47428143Y-145124566D01*
X47405136Y-145048725D01*
X47378689Y-144967328D01*
X47377758Y-144958471D01*
X47376905Y-144955659D01*
X47368600Y-144871342D01*
X47359000Y-144780000D01*
X47368599Y-144688664D01*
X47376905Y-144604340D01*
X47377758Y-144601527D01*
X47378689Y-144592672D01*
X47405132Y-144511288D01*
X47428143Y-144435433D01*
X47432315Y-144427626D01*
X47436896Y-144413530D01*
X47476712Y-144344565D01*
X47511348Y-144279767D01*
X47520710Y-144268359D01*
X47531076Y-144250405D01*
X47580416Y-144195607D01*
X47623324Y-144143324D01*
X47639291Y-144130219D01*
X47657113Y-144110427D01*
X47712002Y-144070546D01*
X47759767Y-144031348D01*
X47783180Y-144018833D01*
X47809500Y-143999711D01*
X47866109Y-143974506D01*
X47915433Y-143948143D01*
X47946471Y-143938727D01*
X47981576Y-143923098D01*
X48036430Y-143911438D01*
X48084340Y-143896905D01*
X48122476Y-143893148D01*
X48165820Y-143883936D01*
X48216016Y-143883936D01*
X48260000Y-143879604D01*
X48303983Y-143883936D01*
G37*
G36*
X94023983Y-143883936D02*
G01*
X94074180Y-143883936D01*
X94117524Y-143893149D01*
X94155659Y-143896905D01*
X94203566Y-143911437D01*
X94258424Y-143923098D01*
X94293530Y-143938728D01*
X94324566Y-143948143D01*
X94373884Y-143974504D01*
X94430500Y-143999711D01*
X94456822Y-144018835D01*
X94480232Y-144031348D01*
X94527988Y-144070540D01*
X94582887Y-144110427D01*
X94600711Y-144130223D01*
X94616675Y-144143324D01*
X94659572Y-144195594D01*
X94708924Y-144250405D01*
X94719292Y-144268363D01*
X94728651Y-144279767D01*
X94763273Y-144344542D01*
X94803104Y-144413530D01*
X94807685Y-144427630D01*
X94811856Y-144435433D01*
X94834852Y-144511242D01*
X94861311Y-144592672D01*
X94862242Y-144601532D01*
X94863094Y-144604340D01*
X94871384Y-144688513D01*
X94881000Y-144780000D01*
X94871383Y-144871494D01*
X94863094Y-144955659D01*
X94862242Y-144958466D01*
X94861311Y-144967328D01*
X94834848Y-145048771D01*
X94811856Y-145124566D01*
X94807686Y-145132366D01*
X94803104Y-145146470D01*
X94763266Y-145215470D01*
X94728651Y-145280232D01*
X94719294Y-145291633D01*
X94708924Y-145309595D01*
X94659563Y-145364415D01*
X94616675Y-145416675D01*
X94600714Y-145429773D01*
X94582887Y-145449573D01*
X94527977Y-145489467D01*
X94480232Y-145528651D01*
X94456827Y-145541161D01*
X94430500Y-145560289D01*
X94373873Y-145585500D01*
X94324566Y-145611856D01*
X94293537Y-145621268D01*
X94258424Y-145636902D01*
X94203555Y-145648564D01*
X94155659Y-145663094D01*
X94117532Y-145666849D01*
X94074180Y-145676064D01*
X94023973Y-145676064D01*
X93980000Y-145680395D01*
X93936027Y-145676064D01*
X93885820Y-145676064D01*
X93842467Y-145666849D01*
X93804340Y-145663094D01*
X93756441Y-145648563D01*
X93701576Y-145636902D01*
X93666464Y-145621269D01*
X93635433Y-145611856D01*
X93586120Y-145585498D01*
X93529500Y-145560289D01*
X93503175Y-145541163D01*
X93479767Y-145528651D01*
X93432013Y-145489460D01*
X93377113Y-145449573D01*
X93359287Y-145429776D01*
X93343324Y-145416675D01*
X93300425Y-145364402D01*
X93251076Y-145309595D01*
X93240708Y-145291637D01*
X93231348Y-145280232D01*
X93196719Y-145215447D01*
X93156896Y-145146470D01*
X93152315Y-145132371D01*
X93148143Y-145124566D01*
X93125136Y-145048725D01*
X93098689Y-144967328D01*
X93097758Y-144958471D01*
X93096905Y-144955659D01*
X93088600Y-144871342D01*
X93079000Y-144780000D01*
X93088599Y-144688664D01*
X93096905Y-144604340D01*
X93097758Y-144601527D01*
X93098689Y-144592672D01*
X93125132Y-144511288D01*
X93148143Y-144435433D01*
X93152315Y-144427626D01*
X93156896Y-144413530D01*
X93196712Y-144344565D01*
X93231348Y-144279767D01*
X93240710Y-144268359D01*
X93251076Y-144250405D01*
X93300416Y-144195607D01*
X93343324Y-144143324D01*
X93359291Y-144130219D01*
X93377113Y-144110427D01*
X93432002Y-144070546D01*
X93479767Y-144031348D01*
X93503180Y-144018833D01*
X93529500Y-143999711D01*
X93586109Y-143974506D01*
X93635433Y-143948143D01*
X93666471Y-143938727D01*
X93701576Y-143923098D01*
X93756430Y-143911438D01*
X93804340Y-143896905D01*
X93842476Y-143893148D01*
X93885820Y-143883936D01*
X93936016Y-143883936D01*
X93980000Y-143879604D01*
X94023983Y-143883936D01*
G37*
G36*
X57851840Y-141552882D02*
G01*
X57868385Y-141563938D01*
X57879441Y-141580483D01*
X57883323Y-141600000D01*
X57883323Y-143600000D01*
X57879441Y-143619517D01*
X57868385Y-143636062D01*
X57851840Y-143647118D01*
X57832323Y-143651000D01*
X55832323Y-143651000D01*
X55812806Y-143647118D01*
X55796261Y-143636062D01*
X55785205Y-143619517D01*
X55781323Y-143600000D01*
X55781323Y-141600000D01*
X55785205Y-141580483D01*
X55796261Y-141563938D01*
X55812806Y-141552882D01*
X55832323Y-141549000D01*
X57832323Y-141549000D01*
X57851840Y-141552882D01*
G37*
G36*
X61883261Y-141554017D02*
G01*
X61929246Y-141554017D01*
X61980462Y-141563590D01*
X62037363Y-141569195D01*
X62080584Y-141582306D01*
X62119797Y-141589636D01*
X62174108Y-141610676D01*
X62234523Y-141629003D01*
X62269043Y-141647454D01*
X62300555Y-141659662D01*
X62355300Y-141693559D01*
X62416227Y-141726125D01*
X62441829Y-141747136D01*
X62465371Y-141761713D01*
X62517535Y-141809267D01*
X62575492Y-141856831D01*
X62592665Y-141877757D01*
X62608624Y-141892305D01*
X62654952Y-141953653D01*
X62706198Y-142016096D01*
X62716106Y-142034634D01*
X62725445Y-142047000D01*
X62762597Y-142121613D01*
X62803320Y-142197800D01*
X62807663Y-142212117D01*
X62811851Y-142220528D01*
X62836590Y-142307476D01*
X62863128Y-142394960D01*
X62863999Y-142403811D01*
X62864900Y-142406975D01*
X62874261Y-142508002D01*
X62883323Y-142600000D01*
X62874261Y-142692005D01*
X62864900Y-142793024D01*
X62863999Y-142796187D01*
X62863128Y-142805040D01*
X62836585Y-142892538D01*
X62811851Y-142979471D01*
X62807664Y-142987879D01*
X62803320Y-143002200D01*
X62762590Y-143078399D01*
X62725445Y-143152999D01*
X62716108Y-143165362D01*
X62706198Y-143183904D01*
X62654943Y-143246357D01*
X62608624Y-143307694D01*
X62592668Y-143322238D01*
X62575492Y-143343169D01*
X62517524Y-143390741D01*
X62465371Y-143438286D01*
X62441834Y-143452859D01*
X62416227Y-143473875D01*
X62355288Y-143506447D01*
X62300555Y-143540337D01*
X62269049Y-143552542D01*
X62234523Y-143570997D01*
X62174096Y-143589327D01*
X62119797Y-143610363D01*
X62080591Y-143617691D01*
X62037363Y-143630805D01*
X61980459Y-143636409D01*
X61929246Y-143645983D01*
X61883261Y-143645983D01*
X61832323Y-143651000D01*
X61781385Y-143645983D01*
X61735400Y-143645983D01*
X61684186Y-143636409D01*
X61627283Y-143630805D01*
X61584055Y-143617692D01*
X61544848Y-143610363D01*
X61490544Y-143589325D01*
X61430123Y-143570997D01*
X61395598Y-143552543D01*
X61364090Y-143540337D01*
X61309350Y-143506443D01*
X61248419Y-143473875D01*
X61222814Y-143452861D01*
X61199274Y-143438286D01*
X61147111Y-143390733D01*
X61089154Y-143343169D01*
X61071979Y-143322242D01*
X61056021Y-143307694D01*
X61009690Y-143246342D01*
X60958448Y-143183904D01*
X60948539Y-143165366D01*
X60939200Y-143152999D01*
X60902040Y-143078372D01*
X60861326Y-143002200D01*
X60856983Y-142987884D01*
X60852794Y-142979471D01*
X60828044Y-142892485D01*
X60801518Y-142805040D01*
X60800646Y-142796192D01*
X60799745Y-142793024D01*
X60790367Y-142691833D01*
X60781323Y-142600000D01*
X60790367Y-142508173D01*
X60799745Y-142406975D01*
X60800646Y-142403805D01*
X60801518Y-142394960D01*
X60828039Y-142307529D01*
X60852794Y-142220528D01*
X60856984Y-142212112D01*
X60861326Y-142197800D01*
X60902033Y-142121641D01*
X60939200Y-142047000D01*
X60948541Y-142034629D01*
X60958448Y-142016096D01*
X61009680Y-141953668D01*
X61056021Y-141892305D01*
X61071983Y-141877753D01*
X61089154Y-141856831D01*
X61147100Y-141809275D01*
X61199274Y-141761713D01*
X61222819Y-141747134D01*
X61248419Y-141726125D01*
X61309338Y-141693563D01*
X61364090Y-141659662D01*
X61395605Y-141647452D01*
X61430123Y-141629003D01*
X61490532Y-141610677D01*
X61544848Y-141589636D01*
X61584062Y-141582305D01*
X61627283Y-141569195D01*
X61684183Y-141563590D01*
X61735400Y-141554017D01*
X61781385Y-141554017D01*
X61832323Y-141549000D01*
X61883261Y-141554017D01*
G37*
G36*
X48303983Y-141343936D02*
G01*
X48354180Y-141343936D01*
X48397524Y-141353149D01*
X48435659Y-141356905D01*
X48483566Y-141371437D01*
X48538424Y-141383098D01*
X48573530Y-141398728D01*
X48604566Y-141408143D01*
X48653884Y-141434504D01*
X48710500Y-141459711D01*
X48736822Y-141478835D01*
X48760232Y-141491348D01*
X48807988Y-141530540D01*
X48862887Y-141570427D01*
X48880711Y-141590223D01*
X48896675Y-141603324D01*
X48939572Y-141655594D01*
X48988924Y-141710405D01*
X48999292Y-141728363D01*
X49008651Y-141739767D01*
X49043273Y-141804542D01*
X49083104Y-141873530D01*
X49087685Y-141887630D01*
X49091856Y-141895433D01*
X49114852Y-141971242D01*
X49141311Y-142052672D01*
X49142242Y-142061532D01*
X49143094Y-142064340D01*
X49151384Y-142148513D01*
X49161000Y-142240000D01*
X49151383Y-142331494D01*
X49143094Y-142415659D01*
X49142242Y-142418466D01*
X49141311Y-142427328D01*
X49114848Y-142508771D01*
X49091856Y-142584566D01*
X49087686Y-142592366D01*
X49083104Y-142606470D01*
X49043266Y-142675470D01*
X49008651Y-142740232D01*
X48999294Y-142751633D01*
X48988924Y-142769595D01*
X48939563Y-142824415D01*
X48896675Y-142876675D01*
X48880714Y-142889773D01*
X48862887Y-142909573D01*
X48807977Y-142949467D01*
X48760232Y-142988651D01*
X48736827Y-143001161D01*
X48710500Y-143020289D01*
X48653873Y-143045500D01*
X48604566Y-143071856D01*
X48573537Y-143081268D01*
X48538424Y-143096902D01*
X48483555Y-143108564D01*
X48435659Y-143123094D01*
X48397532Y-143126849D01*
X48354180Y-143136064D01*
X48303973Y-143136064D01*
X48260000Y-143140395D01*
X48216027Y-143136064D01*
X48165820Y-143136064D01*
X48122467Y-143126849D01*
X48084340Y-143123094D01*
X48036441Y-143108563D01*
X47981576Y-143096902D01*
X47946464Y-143081269D01*
X47915433Y-143071856D01*
X47866120Y-143045498D01*
X47809500Y-143020289D01*
X47783175Y-143001163D01*
X47759767Y-142988651D01*
X47712013Y-142949460D01*
X47657113Y-142909573D01*
X47639287Y-142889776D01*
X47623324Y-142876675D01*
X47580425Y-142824402D01*
X47531076Y-142769595D01*
X47520708Y-142751637D01*
X47511348Y-142740232D01*
X47476719Y-142675447D01*
X47436896Y-142606470D01*
X47432315Y-142592371D01*
X47428143Y-142584566D01*
X47405136Y-142508725D01*
X47378689Y-142427328D01*
X47377758Y-142418471D01*
X47376905Y-142415659D01*
X47368600Y-142331342D01*
X47359000Y-142240000D01*
X47368599Y-142148664D01*
X47376905Y-142064340D01*
X47377758Y-142061527D01*
X47378689Y-142052672D01*
X47405132Y-141971288D01*
X47428143Y-141895433D01*
X47432315Y-141887626D01*
X47436896Y-141873530D01*
X47476712Y-141804565D01*
X47511348Y-141739767D01*
X47520710Y-141728359D01*
X47531076Y-141710405D01*
X47580416Y-141655607D01*
X47623324Y-141603324D01*
X47639291Y-141590219D01*
X47657113Y-141570427D01*
X47712002Y-141530546D01*
X47759767Y-141491348D01*
X47783180Y-141478833D01*
X47809500Y-141459711D01*
X47866109Y-141434506D01*
X47915433Y-141408143D01*
X47946471Y-141398727D01*
X47981576Y-141383098D01*
X48036430Y-141371438D01*
X48084340Y-141356905D01*
X48122476Y-141353148D01*
X48165820Y-141343936D01*
X48216016Y-141343936D01*
X48260000Y-141339604D01*
X48303983Y-141343936D01*
G37*
G36*
X94023983Y-141343936D02*
G01*
X94074180Y-141343936D01*
X94117524Y-141353149D01*
X94155659Y-141356905D01*
X94203566Y-141371437D01*
X94258424Y-141383098D01*
X94293530Y-141398728D01*
X94324566Y-141408143D01*
X94373884Y-141434504D01*
X94430500Y-141459711D01*
X94456822Y-141478835D01*
X94480232Y-141491348D01*
X94527988Y-141530540D01*
X94582887Y-141570427D01*
X94600711Y-141590223D01*
X94616675Y-141603324D01*
X94659572Y-141655594D01*
X94708924Y-141710405D01*
X94719292Y-141728363D01*
X94728651Y-141739767D01*
X94763273Y-141804542D01*
X94803104Y-141873530D01*
X94807685Y-141887630D01*
X94811856Y-141895433D01*
X94834852Y-141971242D01*
X94861311Y-142052672D01*
X94862242Y-142061532D01*
X94863094Y-142064340D01*
X94871384Y-142148513D01*
X94881000Y-142240000D01*
X94871383Y-142331494D01*
X94863094Y-142415659D01*
X94862242Y-142418466D01*
X94861311Y-142427328D01*
X94834848Y-142508771D01*
X94811856Y-142584566D01*
X94807686Y-142592366D01*
X94803104Y-142606470D01*
X94763266Y-142675470D01*
X94728651Y-142740232D01*
X94719294Y-142751633D01*
X94708924Y-142769595D01*
X94659563Y-142824415D01*
X94616675Y-142876675D01*
X94600714Y-142889773D01*
X94582887Y-142909573D01*
X94527977Y-142949467D01*
X94480232Y-142988651D01*
X94456827Y-143001161D01*
X94430500Y-143020289D01*
X94373873Y-143045500D01*
X94324566Y-143071856D01*
X94293537Y-143081268D01*
X94258424Y-143096902D01*
X94203555Y-143108564D01*
X94155659Y-143123094D01*
X94117532Y-143126849D01*
X94074180Y-143136064D01*
X94023973Y-143136064D01*
X93980000Y-143140395D01*
X93936027Y-143136064D01*
X93885820Y-143136064D01*
X93842467Y-143126849D01*
X93804340Y-143123094D01*
X93756441Y-143108563D01*
X93701576Y-143096902D01*
X93666464Y-143081269D01*
X93635433Y-143071856D01*
X93586120Y-143045498D01*
X93529500Y-143020289D01*
X93503175Y-143001163D01*
X93479767Y-142988651D01*
X93432013Y-142949460D01*
X93377113Y-142909573D01*
X93359287Y-142889776D01*
X93343324Y-142876675D01*
X93300425Y-142824402D01*
X93251076Y-142769595D01*
X93240708Y-142751637D01*
X93231348Y-142740232D01*
X93196719Y-142675447D01*
X93156896Y-142606470D01*
X93152315Y-142592371D01*
X93148143Y-142584566D01*
X93125136Y-142508725D01*
X93098689Y-142427328D01*
X93097758Y-142418471D01*
X93096905Y-142415659D01*
X93088600Y-142331342D01*
X93079000Y-142240000D01*
X93088599Y-142148664D01*
X93096905Y-142064340D01*
X93097758Y-142061527D01*
X93098689Y-142052672D01*
X93125132Y-141971288D01*
X93148143Y-141895433D01*
X93152315Y-141887626D01*
X93156896Y-141873530D01*
X93196712Y-141804565D01*
X93231348Y-141739767D01*
X93240710Y-141728359D01*
X93251076Y-141710405D01*
X93300416Y-141655607D01*
X93343324Y-141603324D01*
X93359291Y-141590219D01*
X93377113Y-141570427D01*
X93432002Y-141530546D01*
X93479767Y-141491348D01*
X93503180Y-141478833D01*
X93529500Y-141459711D01*
X93586109Y-141434506D01*
X93635433Y-141408143D01*
X93666471Y-141398727D01*
X93701576Y-141383098D01*
X93756430Y-141371438D01*
X93804340Y-141356905D01*
X93842476Y-141353148D01*
X93885820Y-141343936D01*
X93936016Y-141343936D01*
X93980000Y-141339604D01*
X94023983Y-141343936D01*
G37*
G36*
X87953611Y-141492616D02*
G01*
X88098004Y-141521338D01*
X88234019Y-141577677D01*
X88356429Y-141659469D01*
X88460531Y-141763571D01*
X88542323Y-141885981D01*
X88598662Y-142021996D01*
X88627384Y-142166389D01*
X88627384Y-142313611D01*
X88598662Y-142458004D01*
X88542323Y-142594019D01*
X88460531Y-142716429D01*
X88356429Y-142820531D01*
X88234019Y-142902323D01*
X88098004Y-142958662D01*
X87953611Y-142987384D01*
X87380000Y-142991000D01*
X87306389Y-142987384D01*
X87161996Y-142958662D01*
X87025981Y-142902323D01*
X86903571Y-142820531D01*
X86799469Y-142716429D01*
X86717677Y-142594019D01*
X86661338Y-142458004D01*
X86632616Y-142313611D01*
X86632616Y-142166389D01*
X86661338Y-142021996D01*
X86717677Y-141885981D01*
X86799469Y-141763571D01*
X86903571Y-141659469D01*
X87025981Y-141577677D01*
X87161996Y-141521338D01*
X87306389Y-141492616D01*
X87880000Y-141489000D01*
X87953611Y-141492616D01*
G37*
G36*
X90493611Y-141492616D02*
G01*
X90638004Y-141521338D01*
X90774019Y-141577677D01*
X90896429Y-141659469D01*
X91000531Y-141763571D01*
X91082323Y-141885981D01*
X91138662Y-142021996D01*
X91167384Y-142166389D01*
X91167384Y-142313611D01*
X91138662Y-142458004D01*
X91082323Y-142594019D01*
X91000531Y-142716429D01*
X90896429Y-142820531D01*
X90774019Y-142902323D01*
X90638004Y-142958662D01*
X90493611Y-142987384D01*
X89920000Y-142991000D01*
X89846389Y-142987384D01*
X89701996Y-142958662D01*
X89565981Y-142902323D01*
X89443571Y-142820531D01*
X89339469Y-142716429D01*
X89257677Y-142594019D01*
X89201338Y-142458004D01*
X89172616Y-142313611D01*
X89172616Y-142166389D01*
X89201338Y-142021996D01*
X89257677Y-141885981D01*
X89339469Y-141763571D01*
X89443571Y-141659469D01*
X89565981Y-141577677D01*
X89701996Y-141521338D01*
X89846389Y-141492616D01*
X90420000Y-141489000D01*
X90493611Y-141492616D01*
G37*
G36*
X48303983Y-138803936D02*
G01*
X48354180Y-138803936D01*
X48397524Y-138813149D01*
X48435659Y-138816905D01*
X48483566Y-138831437D01*
X48538424Y-138843098D01*
X48573530Y-138858728D01*
X48604566Y-138868143D01*
X48653884Y-138894504D01*
X48710500Y-138919711D01*
X48736822Y-138938835D01*
X48760232Y-138951348D01*
X48807988Y-138990540D01*
X48862887Y-139030427D01*
X48880711Y-139050223D01*
X48896675Y-139063324D01*
X48939572Y-139115594D01*
X48988924Y-139170405D01*
X48999292Y-139188363D01*
X49008651Y-139199767D01*
X49043273Y-139264542D01*
X49083104Y-139333530D01*
X49087685Y-139347630D01*
X49091856Y-139355433D01*
X49114852Y-139431242D01*
X49141311Y-139512672D01*
X49142242Y-139521532D01*
X49143094Y-139524340D01*
X49151384Y-139608513D01*
X49161000Y-139700000D01*
X49151383Y-139791494D01*
X49143094Y-139875659D01*
X49142242Y-139878466D01*
X49141311Y-139887328D01*
X49114848Y-139968771D01*
X49091856Y-140044566D01*
X49087686Y-140052366D01*
X49083104Y-140066470D01*
X49043266Y-140135470D01*
X49008651Y-140200232D01*
X48999294Y-140211633D01*
X48988924Y-140229595D01*
X48939563Y-140284415D01*
X48896675Y-140336675D01*
X48880714Y-140349773D01*
X48862887Y-140369573D01*
X48807977Y-140409467D01*
X48760232Y-140448651D01*
X48736827Y-140461161D01*
X48710500Y-140480289D01*
X48653873Y-140505500D01*
X48604566Y-140531856D01*
X48573537Y-140541268D01*
X48538424Y-140556902D01*
X48483555Y-140568564D01*
X48435659Y-140583094D01*
X48397532Y-140586849D01*
X48354180Y-140596064D01*
X48303973Y-140596064D01*
X48260000Y-140600395D01*
X48216027Y-140596064D01*
X48165820Y-140596064D01*
X48122467Y-140586849D01*
X48084340Y-140583094D01*
X48036441Y-140568563D01*
X47981576Y-140556902D01*
X47946464Y-140541269D01*
X47915433Y-140531856D01*
X47866120Y-140505498D01*
X47809500Y-140480289D01*
X47783175Y-140461163D01*
X47759767Y-140448651D01*
X47712013Y-140409460D01*
X47657113Y-140369573D01*
X47639287Y-140349776D01*
X47623324Y-140336675D01*
X47580425Y-140284402D01*
X47531076Y-140229595D01*
X47520708Y-140211637D01*
X47511348Y-140200232D01*
X47476719Y-140135447D01*
X47436896Y-140066470D01*
X47432315Y-140052371D01*
X47428143Y-140044566D01*
X47405136Y-139968725D01*
X47378689Y-139887328D01*
X47377758Y-139878471D01*
X47376905Y-139875659D01*
X47368600Y-139791342D01*
X47359000Y-139700000D01*
X47368599Y-139608664D01*
X47376905Y-139524340D01*
X47377758Y-139521527D01*
X47378689Y-139512672D01*
X47405132Y-139431288D01*
X47428143Y-139355433D01*
X47432315Y-139347626D01*
X47436896Y-139333530D01*
X47476712Y-139264565D01*
X47511348Y-139199767D01*
X47520710Y-139188359D01*
X47531076Y-139170405D01*
X47580416Y-139115607D01*
X47623324Y-139063324D01*
X47639291Y-139050219D01*
X47657113Y-139030427D01*
X47712002Y-138990546D01*
X47759767Y-138951348D01*
X47783180Y-138938833D01*
X47809500Y-138919711D01*
X47866109Y-138894506D01*
X47915433Y-138868143D01*
X47946471Y-138858727D01*
X47981576Y-138843098D01*
X48036430Y-138831438D01*
X48084340Y-138816905D01*
X48122476Y-138813148D01*
X48165820Y-138803936D01*
X48216016Y-138803936D01*
X48260000Y-138799604D01*
X48303983Y-138803936D01*
G37*
G36*
X94023983Y-138803936D02*
G01*
X94074180Y-138803936D01*
X94117524Y-138813149D01*
X94155659Y-138816905D01*
X94203566Y-138831437D01*
X94258424Y-138843098D01*
X94293530Y-138858728D01*
X94324566Y-138868143D01*
X94373884Y-138894504D01*
X94430500Y-138919711D01*
X94456822Y-138938835D01*
X94480232Y-138951348D01*
X94527988Y-138990540D01*
X94582887Y-139030427D01*
X94600711Y-139050223D01*
X94616675Y-139063324D01*
X94659572Y-139115594D01*
X94708924Y-139170405D01*
X94719292Y-139188363D01*
X94728651Y-139199767D01*
X94763273Y-139264542D01*
X94803104Y-139333530D01*
X94807685Y-139347630D01*
X94811856Y-139355433D01*
X94834852Y-139431242D01*
X94861311Y-139512672D01*
X94862242Y-139521532D01*
X94863094Y-139524340D01*
X94871384Y-139608513D01*
X94881000Y-139700000D01*
X94871383Y-139791494D01*
X94863094Y-139875659D01*
X94862242Y-139878466D01*
X94861311Y-139887328D01*
X94834848Y-139968771D01*
X94811856Y-140044566D01*
X94807686Y-140052366D01*
X94803104Y-140066470D01*
X94763266Y-140135470D01*
X94728651Y-140200232D01*
X94719294Y-140211633D01*
X94708924Y-140229595D01*
X94659563Y-140284415D01*
X94616675Y-140336675D01*
X94600714Y-140349773D01*
X94582887Y-140369573D01*
X94527977Y-140409467D01*
X94480232Y-140448651D01*
X94456827Y-140461161D01*
X94430500Y-140480289D01*
X94373873Y-140505500D01*
X94324566Y-140531856D01*
X94293537Y-140541268D01*
X94258424Y-140556902D01*
X94203555Y-140568564D01*
X94155659Y-140583094D01*
X94117532Y-140586849D01*
X94074180Y-140596064D01*
X94023973Y-140596064D01*
X93980000Y-140600395D01*
X93936027Y-140596064D01*
X93885820Y-140596064D01*
X93842467Y-140586849D01*
X93804340Y-140583094D01*
X93756441Y-140568563D01*
X93701576Y-140556902D01*
X93666464Y-140541269D01*
X93635433Y-140531856D01*
X93586120Y-140505498D01*
X93529500Y-140480289D01*
X93503175Y-140461163D01*
X93479767Y-140448651D01*
X93432013Y-140409460D01*
X93377113Y-140369573D01*
X93359287Y-140349776D01*
X93343324Y-140336675D01*
X93300425Y-140284402D01*
X93251076Y-140229595D01*
X93240708Y-140211637D01*
X93231348Y-140200232D01*
X93196719Y-140135447D01*
X93156896Y-140066470D01*
X93152315Y-140052371D01*
X93148143Y-140044566D01*
X93125136Y-139968725D01*
X93098689Y-139887328D01*
X93097758Y-139878471D01*
X93096905Y-139875659D01*
X93088600Y-139791342D01*
X93079000Y-139700000D01*
X93088599Y-139608664D01*
X93096905Y-139524340D01*
X93097758Y-139521527D01*
X93098689Y-139512672D01*
X93125132Y-139431288D01*
X93148143Y-139355433D01*
X93152315Y-139347626D01*
X93156896Y-139333530D01*
X93196712Y-139264565D01*
X93231348Y-139199767D01*
X93240710Y-139188359D01*
X93251076Y-139170405D01*
X93300416Y-139115607D01*
X93343324Y-139063324D01*
X93359291Y-139050219D01*
X93377113Y-139030427D01*
X93432002Y-138990546D01*
X93479767Y-138951348D01*
X93503180Y-138938833D01*
X93529500Y-138919711D01*
X93586109Y-138894506D01*
X93635433Y-138868143D01*
X93666471Y-138858727D01*
X93701576Y-138843098D01*
X93756430Y-138831438D01*
X93804340Y-138816905D01*
X93842476Y-138813148D01*
X93885820Y-138803936D01*
X93936016Y-138803936D01*
X93980000Y-138799604D01*
X94023983Y-138803936D01*
G37*
G36*
X87953611Y-138952616D02*
G01*
X88098004Y-138981338D01*
X88234019Y-139037677D01*
X88356429Y-139119469D01*
X88460531Y-139223571D01*
X88542323Y-139345981D01*
X88598662Y-139481996D01*
X88627384Y-139626389D01*
X88627384Y-139773611D01*
X88598662Y-139918004D01*
X88542323Y-140054019D01*
X88460531Y-140176429D01*
X88356429Y-140280531D01*
X88234019Y-140362323D01*
X88098004Y-140418662D01*
X87953611Y-140447384D01*
X87380000Y-140451000D01*
X87306389Y-140447384D01*
X87161996Y-140418662D01*
X87025981Y-140362323D01*
X86903571Y-140280531D01*
X86799469Y-140176429D01*
X86717677Y-140054019D01*
X86661338Y-139918004D01*
X86632616Y-139773611D01*
X86632616Y-139626389D01*
X86661338Y-139481996D01*
X86717677Y-139345981D01*
X86799469Y-139223571D01*
X86903571Y-139119469D01*
X87025981Y-139037677D01*
X87161996Y-138981338D01*
X87306389Y-138952616D01*
X87880000Y-138949000D01*
X87953611Y-138952616D01*
G37*
G36*
X90493611Y-138952616D02*
G01*
X90638004Y-138981338D01*
X90774019Y-139037677D01*
X90896429Y-139119469D01*
X91000531Y-139223571D01*
X91082323Y-139345981D01*
X91138662Y-139481996D01*
X91167384Y-139626389D01*
X91167384Y-139773611D01*
X91138662Y-139918004D01*
X91082323Y-140054019D01*
X91000531Y-140176429D01*
X90896429Y-140280531D01*
X90774019Y-140362323D01*
X90638004Y-140418662D01*
X90493611Y-140447384D01*
X89920000Y-140451000D01*
X89846389Y-140447384D01*
X89701996Y-140418662D01*
X89565981Y-140362323D01*
X89443571Y-140280531D01*
X89339469Y-140176429D01*
X89257677Y-140054019D01*
X89201338Y-139918004D01*
X89172616Y-139773611D01*
X89172616Y-139626389D01*
X89201338Y-139481996D01*
X89257677Y-139345981D01*
X89339469Y-139223571D01*
X89443571Y-139119469D01*
X89565981Y-139037677D01*
X89701996Y-138981338D01*
X89846389Y-138952616D01*
X90420000Y-138949000D01*
X90493611Y-138952616D01*
G37*
G36*
X48303983Y-136263936D02*
G01*
X48354180Y-136263936D01*
X48397524Y-136273149D01*
X48435659Y-136276905D01*
X48483566Y-136291437D01*
X48538424Y-136303098D01*
X48573530Y-136318728D01*
X48604566Y-136328143D01*
X48653884Y-136354504D01*
X48710500Y-136379711D01*
X48736822Y-136398835D01*
X48760232Y-136411348D01*
X48807988Y-136450540D01*
X48862887Y-136490427D01*
X48880711Y-136510223D01*
X48896675Y-136523324D01*
X48939572Y-136575594D01*
X48988924Y-136630405D01*
X48999292Y-136648363D01*
X49008651Y-136659767D01*
X49043273Y-136724542D01*
X49083104Y-136793530D01*
X49087685Y-136807630D01*
X49091856Y-136815433D01*
X49114852Y-136891242D01*
X49141311Y-136972672D01*
X49142242Y-136981532D01*
X49143094Y-136984340D01*
X49151384Y-137068513D01*
X49161000Y-137160000D01*
X49151383Y-137251494D01*
X49143094Y-137335659D01*
X49142242Y-137338466D01*
X49141311Y-137347328D01*
X49114848Y-137428771D01*
X49091856Y-137504566D01*
X49087686Y-137512366D01*
X49083104Y-137526470D01*
X49043266Y-137595470D01*
X49008651Y-137660232D01*
X48999294Y-137671633D01*
X48988924Y-137689595D01*
X48939563Y-137744415D01*
X48896675Y-137796675D01*
X48880714Y-137809773D01*
X48862887Y-137829573D01*
X48807977Y-137869467D01*
X48760232Y-137908651D01*
X48736827Y-137921161D01*
X48710500Y-137940289D01*
X48653873Y-137965500D01*
X48604566Y-137991856D01*
X48573537Y-138001268D01*
X48538424Y-138016902D01*
X48483555Y-138028564D01*
X48435659Y-138043094D01*
X48397532Y-138046849D01*
X48354180Y-138056064D01*
X48303973Y-138056064D01*
X48260000Y-138060395D01*
X48216027Y-138056064D01*
X48165820Y-138056064D01*
X48122467Y-138046849D01*
X48084340Y-138043094D01*
X48036441Y-138028563D01*
X47981576Y-138016902D01*
X47946464Y-138001269D01*
X47915433Y-137991856D01*
X47866120Y-137965498D01*
X47809500Y-137940289D01*
X47783175Y-137921163D01*
X47759767Y-137908651D01*
X47712013Y-137869460D01*
X47657113Y-137829573D01*
X47639287Y-137809776D01*
X47623324Y-137796675D01*
X47580425Y-137744402D01*
X47531076Y-137689595D01*
X47520708Y-137671637D01*
X47511348Y-137660232D01*
X47476719Y-137595447D01*
X47436896Y-137526470D01*
X47432315Y-137512371D01*
X47428143Y-137504566D01*
X47405136Y-137428725D01*
X47378689Y-137347328D01*
X47377758Y-137338471D01*
X47376905Y-137335659D01*
X47368600Y-137251342D01*
X47359000Y-137160000D01*
X47368599Y-137068664D01*
X47376905Y-136984340D01*
X47377758Y-136981527D01*
X47378689Y-136972672D01*
X47405132Y-136891288D01*
X47428143Y-136815433D01*
X47432315Y-136807626D01*
X47436896Y-136793530D01*
X47476712Y-136724565D01*
X47511348Y-136659767D01*
X47520710Y-136648359D01*
X47531076Y-136630405D01*
X47580416Y-136575607D01*
X47623324Y-136523324D01*
X47639291Y-136510219D01*
X47657113Y-136490427D01*
X47712002Y-136450546D01*
X47759767Y-136411348D01*
X47783180Y-136398833D01*
X47809500Y-136379711D01*
X47866109Y-136354506D01*
X47915433Y-136328143D01*
X47946471Y-136318727D01*
X47981576Y-136303098D01*
X48036430Y-136291438D01*
X48084340Y-136276905D01*
X48122476Y-136273148D01*
X48165820Y-136263936D01*
X48216016Y-136263936D01*
X48260000Y-136259604D01*
X48303983Y-136263936D01*
G37*
G36*
X94023983Y-136263936D02*
G01*
X94074180Y-136263936D01*
X94117524Y-136273149D01*
X94155659Y-136276905D01*
X94203566Y-136291437D01*
X94258424Y-136303098D01*
X94293530Y-136318728D01*
X94324566Y-136328143D01*
X94373884Y-136354504D01*
X94430500Y-136379711D01*
X94456822Y-136398835D01*
X94480232Y-136411348D01*
X94527988Y-136450540D01*
X94582887Y-136490427D01*
X94600711Y-136510223D01*
X94616675Y-136523324D01*
X94659572Y-136575594D01*
X94708924Y-136630405D01*
X94719292Y-136648363D01*
X94728651Y-136659767D01*
X94763273Y-136724542D01*
X94803104Y-136793530D01*
X94807685Y-136807630D01*
X94811856Y-136815433D01*
X94834852Y-136891242D01*
X94861311Y-136972672D01*
X94862242Y-136981532D01*
X94863094Y-136984340D01*
X94871384Y-137068513D01*
X94881000Y-137160000D01*
X94871383Y-137251494D01*
X94863094Y-137335659D01*
X94862242Y-137338466D01*
X94861311Y-137347328D01*
X94834848Y-137428771D01*
X94811856Y-137504566D01*
X94807686Y-137512366D01*
X94803104Y-137526470D01*
X94763266Y-137595470D01*
X94728651Y-137660232D01*
X94719294Y-137671633D01*
X94708924Y-137689595D01*
X94659563Y-137744415D01*
X94616675Y-137796675D01*
X94600714Y-137809773D01*
X94582887Y-137829573D01*
X94527977Y-137869467D01*
X94480232Y-137908651D01*
X94456827Y-137921161D01*
X94430500Y-137940289D01*
X94373873Y-137965500D01*
X94324566Y-137991856D01*
X94293537Y-138001268D01*
X94258424Y-138016902D01*
X94203555Y-138028564D01*
X94155659Y-138043094D01*
X94117532Y-138046849D01*
X94074180Y-138056064D01*
X94023973Y-138056064D01*
X93980000Y-138060395D01*
X93936027Y-138056064D01*
X93885820Y-138056064D01*
X93842467Y-138046849D01*
X93804340Y-138043094D01*
X93756441Y-138028563D01*
X93701576Y-138016902D01*
X93666464Y-138001269D01*
X93635433Y-137991856D01*
X93586120Y-137965498D01*
X93529500Y-137940289D01*
X93503175Y-137921163D01*
X93479767Y-137908651D01*
X93432013Y-137869460D01*
X93377113Y-137829573D01*
X93359287Y-137809776D01*
X93343324Y-137796675D01*
X93300425Y-137744402D01*
X93251076Y-137689595D01*
X93240708Y-137671637D01*
X93231348Y-137660232D01*
X93196719Y-137595447D01*
X93156896Y-137526470D01*
X93152315Y-137512371D01*
X93148143Y-137504566D01*
X93125136Y-137428725D01*
X93098689Y-137347328D01*
X93097758Y-137338471D01*
X93096905Y-137335659D01*
X93088600Y-137251342D01*
X93079000Y-137160000D01*
X93088599Y-137068664D01*
X93096905Y-136984340D01*
X93097758Y-136981527D01*
X93098689Y-136972672D01*
X93125132Y-136891288D01*
X93148143Y-136815433D01*
X93152315Y-136807626D01*
X93156896Y-136793530D01*
X93196712Y-136724565D01*
X93231348Y-136659767D01*
X93240710Y-136648359D01*
X93251076Y-136630405D01*
X93300416Y-136575607D01*
X93343324Y-136523324D01*
X93359291Y-136510219D01*
X93377113Y-136490427D01*
X93432002Y-136450546D01*
X93479767Y-136411348D01*
X93503180Y-136398833D01*
X93529500Y-136379711D01*
X93586109Y-136354506D01*
X93635433Y-136328143D01*
X93666471Y-136318727D01*
X93701576Y-136303098D01*
X93756430Y-136291438D01*
X93804340Y-136276905D01*
X93842476Y-136273148D01*
X93885820Y-136263936D01*
X93936016Y-136263936D01*
X93980000Y-136259604D01*
X94023983Y-136263936D01*
G37*
G36*
X87953611Y-136412616D02*
G01*
X88098004Y-136441338D01*
X88234019Y-136497677D01*
X88356429Y-136579469D01*
X88460531Y-136683571D01*
X88542323Y-136805981D01*
X88598662Y-136941996D01*
X88627384Y-137086389D01*
X88627384Y-137233611D01*
X88598662Y-137378004D01*
X88542323Y-137514019D01*
X88460531Y-137636429D01*
X88356429Y-137740531D01*
X88234019Y-137822323D01*
X88098004Y-137878662D01*
X87953611Y-137907384D01*
X87380000Y-137911000D01*
X87306389Y-137907384D01*
X87161996Y-137878662D01*
X87025981Y-137822323D01*
X86903571Y-137740531D01*
X86799469Y-137636429D01*
X86717677Y-137514019D01*
X86661338Y-137378004D01*
X86632616Y-137233611D01*
X86632616Y-137086389D01*
X86661338Y-136941996D01*
X86717677Y-136805981D01*
X86799469Y-136683571D01*
X86903571Y-136579469D01*
X87025981Y-136497677D01*
X87161996Y-136441338D01*
X87306389Y-136412616D01*
X87880000Y-136409000D01*
X87953611Y-136412616D01*
G37*
G36*
X90493611Y-136412616D02*
G01*
X90638004Y-136441338D01*
X90774019Y-136497677D01*
X90896429Y-136579469D01*
X91000531Y-136683571D01*
X91082323Y-136805981D01*
X91138662Y-136941996D01*
X91167384Y-137086389D01*
X91167384Y-137233611D01*
X91138662Y-137378004D01*
X91082323Y-137514019D01*
X91000531Y-137636429D01*
X90896429Y-137740531D01*
X90774019Y-137822323D01*
X90638004Y-137878662D01*
X90493611Y-137907384D01*
X89920000Y-137911000D01*
X89846389Y-137907384D01*
X89701996Y-137878662D01*
X89565981Y-137822323D01*
X89443571Y-137740531D01*
X89339469Y-137636429D01*
X89257677Y-137514019D01*
X89201338Y-137378004D01*
X89172616Y-137233611D01*
X89172616Y-137086389D01*
X89201338Y-136941996D01*
X89257677Y-136805981D01*
X89339469Y-136683571D01*
X89443571Y-136579469D01*
X89565981Y-136497677D01*
X89701996Y-136441338D01*
X89846389Y-136412616D01*
X90420000Y-136409000D01*
X90493611Y-136412616D01*
G37*
G36*
X48303983Y-133723936D02*
G01*
X48354180Y-133723936D01*
X48397524Y-133733149D01*
X48435659Y-133736905D01*
X48483566Y-133751437D01*
X48538424Y-133763098D01*
X48573530Y-133778728D01*
X48604566Y-133788143D01*
X48653884Y-133814504D01*
X48710500Y-133839711D01*
X48736822Y-133858835D01*
X48760232Y-133871348D01*
X48807988Y-133910540D01*
X48862887Y-133950427D01*
X48880711Y-133970223D01*
X48896675Y-133983324D01*
X48939572Y-134035594D01*
X48988924Y-134090405D01*
X48999292Y-134108363D01*
X49008651Y-134119767D01*
X49043273Y-134184542D01*
X49083104Y-134253530D01*
X49087685Y-134267630D01*
X49091856Y-134275433D01*
X49114852Y-134351242D01*
X49141311Y-134432672D01*
X49142242Y-134441532D01*
X49143094Y-134444340D01*
X49151384Y-134528513D01*
X49161000Y-134620000D01*
X49151383Y-134711494D01*
X49143094Y-134795659D01*
X49142242Y-134798466D01*
X49141311Y-134807328D01*
X49114848Y-134888771D01*
X49091856Y-134964566D01*
X49087686Y-134972366D01*
X49083104Y-134986470D01*
X49043266Y-135055470D01*
X49008651Y-135120232D01*
X48999294Y-135131633D01*
X48988924Y-135149595D01*
X48939563Y-135204415D01*
X48896675Y-135256675D01*
X48880714Y-135269773D01*
X48862887Y-135289573D01*
X48807977Y-135329467D01*
X48760232Y-135368651D01*
X48736827Y-135381161D01*
X48710500Y-135400289D01*
X48653873Y-135425500D01*
X48604566Y-135451856D01*
X48573537Y-135461268D01*
X48538424Y-135476902D01*
X48483555Y-135488564D01*
X48435659Y-135503094D01*
X48397532Y-135506849D01*
X48354180Y-135516064D01*
X48303973Y-135516064D01*
X48260000Y-135520395D01*
X48216027Y-135516064D01*
X48165820Y-135516064D01*
X48122467Y-135506849D01*
X48084340Y-135503094D01*
X48036441Y-135488563D01*
X47981576Y-135476902D01*
X47946464Y-135461269D01*
X47915433Y-135451856D01*
X47866120Y-135425498D01*
X47809500Y-135400289D01*
X47783175Y-135381163D01*
X47759767Y-135368651D01*
X47712013Y-135329460D01*
X47657113Y-135289573D01*
X47639287Y-135269776D01*
X47623324Y-135256675D01*
X47580425Y-135204402D01*
X47531076Y-135149595D01*
X47520708Y-135131637D01*
X47511348Y-135120232D01*
X47476719Y-135055447D01*
X47436896Y-134986470D01*
X47432315Y-134972371D01*
X47428143Y-134964566D01*
X47405136Y-134888725D01*
X47378689Y-134807328D01*
X47377758Y-134798471D01*
X47376905Y-134795659D01*
X47368600Y-134711342D01*
X47359000Y-134620000D01*
X47368599Y-134528664D01*
X47376905Y-134444340D01*
X47377758Y-134441527D01*
X47378689Y-134432672D01*
X47405132Y-134351288D01*
X47428143Y-134275433D01*
X47432315Y-134267626D01*
X47436896Y-134253530D01*
X47476712Y-134184565D01*
X47511348Y-134119767D01*
X47520710Y-134108359D01*
X47531076Y-134090405D01*
X47580416Y-134035607D01*
X47623324Y-133983324D01*
X47639291Y-133970219D01*
X47657113Y-133950427D01*
X47712002Y-133910546D01*
X47759767Y-133871348D01*
X47783180Y-133858833D01*
X47809500Y-133839711D01*
X47866109Y-133814506D01*
X47915433Y-133788143D01*
X47946471Y-133778727D01*
X47981576Y-133763098D01*
X48036430Y-133751438D01*
X48084340Y-133736905D01*
X48122476Y-133733148D01*
X48165820Y-133723936D01*
X48216016Y-133723936D01*
X48260000Y-133719604D01*
X48303983Y-133723936D01*
G37*
G36*
X94023983Y-133723936D02*
G01*
X94074180Y-133723936D01*
X94117524Y-133733149D01*
X94155659Y-133736905D01*
X94203566Y-133751437D01*
X94258424Y-133763098D01*
X94293530Y-133778728D01*
X94324566Y-133788143D01*
X94373884Y-133814504D01*
X94430500Y-133839711D01*
X94456822Y-133858835D01*
X94480232Y-133871348D01*
X94527988Y-133910540D01*
X94582887Y-133950427D01*
X94600711Y-133970223D01*
X94616675Y-133983324D01*
X94659572Y-134035594D01*
X94708924Y-134090405D01*
X94719292Y-134108363D01*
X94728651Y-134119767D01*
X94763273Y-134184542D01*
X94803104Y-134253530D01*
X94807685Y-134267630D01*
X94811856Y-134275433D01*
X94834852Y-134351242D01*
X94861311Y-134432672D01*
X94862242Y-134441532D01*
X94863094Y-134444340D01*
X94871384Y-134528513D01*
X94881000Y-134620000D01*
X94871383Y-134711494D01*
X94863094Y-134795659D01*
X94862242Y-134798466D01*
X94861311Y-134807328D01*
X94834848Y-134888771D01*
X94811856Y-134964566D01*
X94807686Y-134972366D01*
X94803104Y-134986470D01*
X94763266Y-135055470D01*
X94728651Y-135120232D01*
X94719294Y-135131633D01*
X94708924Y-135149595D01*
X94659563Y-135204415D01*
X94616675Y-135256675D01*
X94600714Y-135269773D01*
X94582887Y-135289573D01*
X94527977Y-135329467D01*
X94480232Y-135368651D01*
X94456827Y-135381161D01*
X94430500Y-135400289D01*
X94373873Y-135425500D01*
X94324566Y-135451856D01*
X94293537Y-135461268D01*
X94258424Y-135476902D01*
X94203555Y-135488564D01*
X94155659Y-135503094D01*
X94117532Y-135506849D01*
X94074180Y-135516064D01*
X94023973Y-135516064D01*
X93980000Y-135520395D01*
X93936027Y-135516064D01*
X93885820Y-135516064D01*
X93842467Y-135506849D01*
X93804340Y-135503094D01*
X93756441Y-135488563D01*
X93701576Y-135476902D01*
X93666464Y-135461269D01*
X93635433Y-135451856D01*
X93586120Y-135425498D01*
X93529500Y-135400289D01*
X93503175Y-135381163D01*
X93479767Y-135368651D01*
X93432013Y-135329460D01*
X93377113Y-135289573D01*
X93359287Y-135269776D01*
X93343324Y-135256675D01*
X93300425Y-135204402D01*
X93251076Y-135149595D01*
X93240708Y-135131637D01*
X93231348Y-135120232D01*
X93196719Y-135055447D01*
X93156896Y-134986470D01*
X93152315Y-134972371D01*
X93148143Y-134964566D01*
X93125136Y-134888725D01*
X93098689Y-134807328D01*
X93097758Y-134798471D01*
X93096905Y-134795659D01*
X93088600Y-134711342D01*
X93079000Y-134620000D01*
X93088599Y-134528664D01*
X93096905Y-134444340D01*
X93097758Y-134441527D01*
X93098689Y-134432672D01*
X93125132Y-134351288D01*
X93148143Y-134275433D01*
X93152315Y-134267626D01*
X93156896Y-134253530D01*
X93196712Y-134184565D01*
X93231348Y-134119767D01*
X93240710Y-134108359D01*
X93251076Y-134090405D01*
X93300416Y-134035607D01*
X93343324Y-133983324D01*
X93359291Y-133970219D01*
X93377113Y-133950427D01*
X93432002Y-133910546D01*
X93479767Y-133871348D01*
X93503180Y-133858833D01*
X93529500Y-133839711D01*
X93586109Y-133814506D01*
X93635433Y-133788143D01*
X93666471Y-133778727D01*
X93701576Y-133763098D01*
X93756430Y-133751438D01*
X93804340Y-133736905D01*
X93842476Y-133733148D01*
X93885820Y-133723936D01*
X93936016Y-133723936D01*
X93980000Y-133719604D01*
X94023983Y-133723936D01*
G37*
G36*
X87953611Y-133872616D02*
G01*
X88098004Y-133901338D01*
X88234019Y-133957677D01*
X88356429Y-134039469D01*
X88460531Y-134143571D01*
X88542323Y-134265981D01*
X88598662Y-134401996D01*
X88627384Y-134546389D01*
X88627384Y-134693611D01*
X88598662Y-134838004D01*
X88542323Y-134974019D01*
X88460531Y-135096429D01*
X88356429Y-135200531D01*
X88234019Y-135282323D01*
X88098004Y-135338662D01*
X87953611Y-135367384D01*
X87380000Y-135371000D01*
X87306389Y-135367384D01*
X87161996Y-135338662D01*
X87025981Y-135282323D01*
X86903571Y-135200531D01*
X86799469Y-135096429D01*
X86717677Y-134974019D01*
X86661338Y-134838004D01*
X86632616Y-134693611D01*
X86632616Y-134546389D01*
X86661338Y-134401996D01*
X86717677Y-134265981D01*
X86799469Y-134143571D01*
X86903571Y-134039469D01*
X87025981Y-133957677D01*
X87161996Y-133901338D01*
X87306389Y-133872616D01*
X87880000Y-133869000D01*
X87953611Y-133872616D01*
G37*
G36*
X90493611Y-133872616D02*
G01*
X90638004Y-133901338D01*
X90774019Y-133957677D01*
X90896429Y-134039469D01*
X91000531Y-134143571D01*
X91082323Y-134265981D01*
X91138662Y-134401996D01*
X91167384Y-134546389D01*
X91167384Y-134693611D01*
X91138662Y-134838004D01*
X91082323Y-134974019D01*
X91000531Y-135096429D01*
X90896429Y-135200531D01*
X90774019Y-135282323D01*
X90638004Y-135338662D01*
X90493611Y-135367384D01*
X89920000Y-135371000D01*
X89846389Y-135367384D01*
X89701996Y-135338662D01*
X89565981Y-135282323D01*
X89443571Y-135200531D01*
X89339469Y-135096429D01*
X89257677Y-134974019D01*
X89201338Y-134838004D01*
X89172616Y-134693611D01*
X89172616Y-134546389D01*
X89201338Y-134401996D01*
X89257677Y-134265981D01*
X89339469Y-134143571D01*
X89443571Y-134039469D01*
X89565981Y-133957677D01*
X89701996Y-133901338D01*
X89846389Y-133872616D01*
X90420000Y-133869000D01*
X90493611Y-133872616D01*
G37*
G36*
X57131651Y-130690340D02*
G01*
X57342691Y-130762790D01*
X57538927Y-130868988D01*
X57715007Y-131006037D01*
X57866129Y-131170199D01*
X57988169Y-131356995D01*
X58077799Y-131561331D01*
X58132574Y-131777633D01*
X58151000Y-132000000D01*
X58132574Y-132222367D01*
X58077799Y-132438669D01*
X57988169Y-132643005D01*
X57866129Y-132829801D01*
X57715007Y-132993963D01*
X57538927Y-133131012D01*
X57342691Y-133237210D01*
X57131651Y-133309660D01*
X56911565Y-133346386D01*
X56688435Y-133346386D01*
X56468349Y-133309660D01*
X56257309Y-133237210D01*
X56061073Y-133131012D01*
X55884993Y-132993963D01*
X55733871Y-132829801D01*
X55611831Y-132643005D01*
X55522201Y-132438669D01*
X55467426Y-132222367D01*
X55449000Y-132000000D01*
X55467426Y-131777633D01*
X55522201Y-131561331D01*
X55611831Y-131356995D01*
X55733871Y-131170199D01*
X55884993Y-131006037D01*
X56061073Y-130868988D01*
X56257309Y-130762790D01*
X56468349Y-130690340D01*
X56688435Y-130653614D01*
X56911565Y-130653614D01*
X57131651Y-130690340D01*
G37*
G36*
X62131651Y-130690340D02*
G01*
X62342691Y-130762790D01*
X62538927Y-130868988D01*
X62715007Y-131006037D01*
X62866129Y-131170199D01*
X62988169Y-131356995D01*
X63077799Y-131561331D01*
X63132574Y-131777633D01*
X63151000Y-132000000D01*
X63132574Y-132222367D01*
X63077799Y-132438669D01*
X62988169Y-132643005D01*
X62866129Y-132829801D01*
X62715007Y-132993963D01*
X62538927Y-133131012D01*
X62342691Y-133237210D01*
X62131651Y-133309660D01*
X61911565Y-133346386D01*
X61688435Y-133346386D01*
X61468349Y-133309660D01*
X61257309Y-133237210D01*
X61061073Y-133131012D01*
X60884993Y-132993963D01*
X60733871Y-132829801D01*
X60611831Y-132643005D01*
X60522201Y-132438669D01*
X60467426Y-132222367D01*
X60449000Y-132000000D01*
X60467426Y-131777633D01*
X60522201Y-131561331D01*
X60611831Y-131356995D01*
X60733871Y-131170199D01*
X60884993Y-131006037D01*
X61061073Y-130868988D01*
X61257309Y-130762790D01*
X61468349Y-130690340D01*
X61688435Y-130653614D01*
X61911565Y-130653614D01*
X62131651Y-130690340D01*
G37*
G36*
X48303983Y-131183936D02*
G01*
X48354180Y-131183936D01*
X48397524Y-131193149D01*
X48435659Y-131196905D01*
X48483566Y-131211437D01*
X48538424Y-131223098D01*
X48573530Y-131238728D01*
X48604566Y-131248143D01*
X48653884Y-131274504D01*
X48710500Y-131299711D01*
X48736822Y-131318835D01*
X48760232Y-131331348D01*
X48807988Y-131370540D01*
X48862887Y-131410427D01*
X48880711Y-131430223D01*
X48896675Y-131443324D01*
X48939572Y-131495594D01*
X48988924Y-131550405D01*
X48999292Y-131568363D01*
X49008651Y-131579767D01*
X49043273Y-131644542D01*
X49083104Y-131713530D01*
X49087685Y-131727630D01*
X49091856Y-131735433D01*
X49114852Y-131811242D01*
X49141311Y-131892672D01*
X49142242Y-131901532D01*
X49143094Y-131904340D01*
X49151384Y-131988513D01*
X49161000Y-132080000D01*
X49151383Y-132171494D01*
X49143094Y-132255659D01*
X49142242Y-132258466D01*
X49141311Y-132267328D01*
X49114848Y-132348771D01*
X49091856Y-132424566D01*
X49087686Y-132432366D01*
X49083104Y-132446470D01*
X49043266Y-132515470D01*
X49008651Y-132580232D01*
X48999294Y-132591633D01*
X48988924Y-132609595D01*
X48939563Y-132664415D01*
X48896675Y-132716675D01*
X48880714Y-132729773D01*
X48862887Y-132749573D01*
X48807977Y-132789467D01*
X48760232Y-132828651D01*
X48736827Y-132841161D01*
X48710500Y-132860289D01*
X48653873Y-132885500D01*
X48604566Y-132911856D01*
X48573537Y-132921268D01*
X48538424Y-132936902D01*
X48483555Y-132948564D01*
X48435659Y-132963094D01*
X48397532Y-132966849D01*
X48354180Y-132976064D01*
X48303973Y-132976064D01*
X48260000Y-132980395D01*
X48216027Y-132976064D01*
X48165820Y-132976064D01*
X48122467Y-132966849D01*
X48084340Y-132963094D01*
X48036441Y-132948563D01*
X47981576Y-132936902D01*
X47946464Y-132921269D01*
X47915433Y-132911856D01*
X47866120Y-132885498D01*
X47809500Y-132860289D01*
X47783175Y-132841163D01*
X47759767Y-132828651D01*
X47712013Y-132789460D01*
X47657113Y-132749573D01*
X47639287Y-132729776D01*
X47623324Y-132716675D01*
X47580425Y-132664402D01*
X47531076Y-132609595D01*
X47520708Y-132591637D01*
X47511348Y-132580232D01*
X47476719Y-132515447D01*
X47436896Y-132446470D01*
X47432315Y-132432371D01*
X47428143Y-132424566D01*
X47405136Y-132348725D01*
X47378689Y-132267328D01*
X47377758Y-132258471D01*
X47376905Y-132255659D01*
X47368600Y-132171342D01*
X47359000Y-132080000D01*
X47368599Y-131988664D01*
X47376905Y-131904340D01*
X47377758Y-131901527D01*
X47378689Y-131892672D01*
X47405132Y-131811288D01*
X47428143Y-131735433D01*
X47432315Y-131727626D01*
X47436896Y-131713530D01*
X47476712Y-131644565D01*
X47511348Y-131579767D01*
X47520710Y-131568359D01*
X47531076Y-131550405D01*
X47580416Y-131495607D01*
X47623324Y-131443324D01*
X47639291Y-131430219D01*
X47657113Y-131410427D01*
X47712002Y-131370546D01*
X47759767Y-131331348D01*
X47783180Y-131318833D01*
X47809500Y-131299711D01*
X47866109Y-131274506D01*
X47915433Y-131248143D01*
X47946471Y-131238727D01*
X47981576Y-131223098D01*
X48036430Y-131211438D01*
X48084340Y-131196905D01*
X48122476Y-131193148D01*
X48165820Y-131183936D01*
X48216016Y-131183936D01*
X48260000Y-131179604D01*
X48303983Y-131183936D01*
G37*
G36*
X94023983Y-131183936D02*
G01*
X94074180Y-131183936D01*
X94117524Y-131193149D01*
X94155659Y-131196905D01*
X94203566Y-131211437D01*
X94258424Y-131223098D01*
X94293530Y-131238728D01*
X94324566Y-131248143D01*
X94373884Y-131274504D01*
X94430500Y-131299711D01*
X94456822Y-131318835D01*
X94480232Y-131331348D01*
X94527988Y-131370540D01*
X94582887Y-131410427D01*
X94600711Y-131430223D01*
X94616675Y-131443324D01*
X94659572Y-131495594D01*
X94708924Y-131550405D01*
X94719292Y-131568363D01*
X94728651Y-131579767D01*
X94763273Y-131644542D01*
X94803104Y-131713530D01*
X94807685Y-131727630D01*
X94811856Y-131735433D01*
X94834852Y-131811242D01*
X94861311Y-131892672D01*
X94862242Y-131901532D01*
X94863094Y-131904340D01*
X94871384Y-131988513D01*
X94881000Y-132080000D01*
X94871383Y-132171494D01*
X94863094Y-132255659D01*
X94862242Y-132258466D01*
X94861311Y-132267328D01*
X94834848Y-132348771D01*
X94811856Y-132424566D01*
X94807686Y-132432366D01*
X94803104Y-132446470D01*
X94763266Y-132515470D01*
X94728651Y-132580232D01*
X94719294Y-132591633D01*
X94708924Y-132609595D01*
X94659563Y-132664415D01*
X94616675Y-132716675D01*
X94600714Y-132729773D01*
X94582887Y-132749573D01*
X94527977Y-132789467D01*
X94480232Y-132828651D01*
X94456827Y-132841161D01*
X94430500Y-132860289D01*
X94373873Y-132885500D01*
X94324566Y-132911856D01*
X94293537Y-132921268D01*
X94258424Y-132936902D01*
X94203555Y-132948564D01*
X94155659Y-132963094D01*
X94117532Y-132966849D01*
X94074180Y-132976064D01*
X94023973Y-132976064D01*
X93980000Y-132980395D01*
X93936027Y-132976064D01*
X93885820Y-132976064D01*
X93842467Y-132966849D01*
X93804340Y-132963094D01*
X93756441Y-132948563D01*
X93701576Y-132936902D01*
X93666464Y-132921269D01*
X93635433Y-132911856D01*
X93586120Y-132885498D01*
X93529500Y-132860289D01*
X93503175Y-132841163D01*
X93479767Y-132828651D01*
X93432013Y-132789460D01*
X93377113Y-132749573D01*
X93359287Y-132729776D01*
X93343324Y-132716675D01*
X93300425Y-132664402D01*
X93251076Y-132609595D01*
X93240708Y-132591637D01*
X93231348Y-132580232D01*
X93196719Y-132515447D01*
X93156896Y-132446470D01*
X93152315Y-132432371D01*
X93148143Y-132424566D01*
X93125136Y-132348725D01*
X93098689Y-132267328D01*
X93097758Y-132258471D01*
X93096905Y-132255659D01*
X93088600Y-132171342D01*
X93079000Y-132080000D01*
X93088599Y-131988664D01*
X93096905Y-131904340D01*
X93097758Y-131901527D01*
X93098689Y-131892672D01*
X93125132Y-131811288D01*
X93148143Y-131735433D01*
X93152315Y-131727626D01*
X93156896Y-131713530D01*
X93196712Y-131644565D01*
X93231348Y-131579767D01*
X93240710Y-131568359D01*
X93251076Y-131550405D01*
X93300416Y-131495607D01*
X93343324Y-131443324D01*
X93359291Y-131430219D01*
X93377113Y-131410427D01*
X93432002Y-131370546D01*
X93479767Y-131331348D01*
X93503180Y-131318833D01*
X93529500Y-131299711D01*
X93586109Y-131274506D01*
X93635433Y-131248143D01*
X93666471Y-131238727D01*
X93701576Y-131223098D01*
X93756430Y-131211438D01*
X93804340Y-131196905D01*
X93842476Y-131193148D01*
X93885820Y-131183936D01*
X93936016Y-131183936D01*
X93980000Y-131179604D01*
X94023983Y-131183936D01*
G37*
G36*
X87953611Y-131332616D02*
G01*
X88098004Y-131361338D01*
X88234019Y-131417677D01*
X88356429Y-131499469D01*
X88460531Y-131603571D01*
X88542323Y-131725981D01*
X88598662Y-131861996D01*
X88627384Y-132006389D01*
X88627384Y-132153611D01*
X88598662Y-132298004D01*
X88542323Y-132434019D01*
X88460531Y-132556429D01*
X88356429Y-132660531D01*
X88234019Y-132742323D01*
X88098004Y-132798662D01*
X87953611Y-132827384D01*
X87380000Y-132831000D01*
X87306389Y-132827384D01*
X87161996Y-132798662D01*
X87025981Y-132742323D01*
X86903571Y-132660531D01*
X86799469Y-132556429D01*
X86717677Y-132434019D01*
X86661338Y-132298004D01*
X86632616Y-132153611D01*
X86632616Y-132006389D01*
X86661338Y-131861996D01*
X86717677Y-131725981D01*
X86799469Y-131603571D01*
X86903571Y-131499469D01*
X87025981Y-131417677D01*
X87161996Y-131361338D01*
X87306389Y-131332616D01*
X87880000Y-131329000D01*
X87953611Y-131332616D01*
G37*
G36*
X90493611Y-131332616D02*
G01*
X90638004Y-131361338D01*
X90774019Y-131417677D01*
X90896429Y-131499469D01*
X91000531Y-131603571D01*
X91082323Y-131725981D01*
X91138662Y-131861996D01*
X91167384Y-132006389D01*
X91167384Y-132153611D01*
X91138662Y-132298004D01*
X91082323Y-132434019D01*
X91000531Y-132556429D01*
X90896429Y-132660531D01*
X90774019Y-132742323D01*
X90638004Y-132798662D01*
X90493611Y-132827384D01*
X89920000Y-132831000D01*
X89846389Y-132827384D01*
X89701996Y-132798662D01*
X89565981Y-132742323D01*
X89443571Y-132660531D01*
X89339469Y-132556429D01*
X89257677Y-132434019D01*
X89201338Y-132298004D01*
X89172616Y-132153611D01*
X89172616Y-132006389D01*
X89201338Y-131861996D01*
X89257677Y-131725981D01*
X89339469Y-131603571D01*
X89443571Y-131499469D01*
X89565981Y-131417677D01*
X89701996Y-131361338D01*
X89846389Y-131332616D01*
X90420000Y-131329000D01*
X90493611Y-131332616D01*
G37*
G36*
X48303983Y-128643936D02*
G01*
X48354180Y-128643936D01*
X48397524Y-128653149D01*
X48435659Y-128656905D01*
X48483566Y-128671437D01*
X48538424Y-128683098D01*
X48573530Y-128698728D01*
X48604566Y-128708143D01*
X48653884Y-128734504D01*
X48710500Y-128759711D01*
X48736822Y-128778835D01*
X48760232Y-128791348D01*
X48807988Y-128830540D01*
X48862887Y-128870427D01*
X48880711Y-128890223D01*
X48896675Y-128903324D01*
X48939572Y-128955594D01*
X48988924Y-129010405D01*
X48999292Y-129028363D01*
X49008651Y-129039767D01*
X49043273Y-129104542D01*
X49083104Y-129173530D01*
X49087685Y-129187630D01*
X49091856Y-129195433D01*
X49114852Y-129271242D01*
X49141311Y-129352672D01*
X49142242Y-129361532D01*
X49143094Y-129364340D01*
X49151384Y-129448513D01*
X49161000Y-129540000D01*
X49151383Y-129631494D01*
X49143094Y-129715659D01*
X49142242Y-129718466D01*
X49141311Y-129727328D01*
X49114848Y-129808771D01*
X49091856Y-129884566D01*
X49087686Y-129892366D01*
X49083104Y-129906470D01*
X49043266Y-129975470D01*
X49008651Y-130040232D01*
X48999294Y-130051633D01*
X48988924Y-130069595D01*
X48939563Y-130124415D01*
X48896675Y-130176675D01*
X48880714Y-130189773D01*
X48862887Y-130209573D01*
X48807977Y-130249467D01*
X48760232Y-130288651D01*
X48736827Y-130301161D01*
X48710500Y-130320289D01*
X48653873Y-130345500D01*
X48604566Y-130371856D01*
X48573537Y-130381268D01*
X48538424Y-130396902D01*
X48483555Y-130408564D01*
X48435659Y-130423094D01*
X48397532Y-130426849D01*
X48354180Y-130436064D01*
X48303973Y-130436064D01*
X48260000Y-130440395D01*
X48216027Y-130436064D01*
X48165820Y-130436064D01*
X48122467Y-130426849D01*
X48084340Y-130423094D01*
X48036441Y-130408563D01*
X47981576Y-130396902D01*
X47946464Y-130381269D01*
X47915433Y-130371856D01*
X47866120Y-130345498D01*
X47809500Y-130320289D01*
X47783175Y-130301163D01*
X47759767Y-130288651D01*
X47712013Y-130249460D01*
X47657113Y-130209573D01*
X47639287Y-130189776D01*
X47623324Y-130176675D01*
X47580425Y-130124402D01*
X47531076Y-130069595D01*
X47520708Y-130051637D01*
X47511348Y-130040232D01*
X47476719Y-129975447D01*
X47436896Y-129906470D01*
X47432315Y-129892371D01*
X47428143Y-129884566D01*
X47405136Y-129808725D01*
X47378689Y-129727328D01*
X47377758Y-129718471D01*
X47376905Y-129715659D01*
X47368600Y-129631342D01*
X47359000Y-129540000D01*
X47368599Y-129448664D01*
X47376905Y-129364340D01*
X47377758Y-129361527D01*
X47378689Y-129352672D01*
X47405132Y-129271288D01*
X47428143Y-129195433D01*
X47432315Y-129187626D01*
X47436896Y-129173530D01*
X47476712Y-129104565D01*
X47511348Y-129039767D01*
X47520710Y-129028359D01*
X47531076Y-129010405D01*
X47580416Y-128955607D01*
X47623324Y-128903324D01*
X47639291Y-128890219D01*
X47657113Y-128870427D01*
X47712002Y-128830546D01*
X47759767Y-128791348D01*
X47783180Y-128778833D01*
X47809500Y-128759711D01*
X47866109Y-128734506D01*
X47915433Y-128708143D01*
X47946471Y-128698727D01*
X47981576Y-128683098D01*
X48036430Y-128671438D01*
X48084340Y-128656905D01*
X48122476Y-128653148D01*
X48165820Y-128643936D01*
X48216016Y-128643936D01*
X48260000Y-128639604D01*
X48303983Y-128643936D01*
G37*
G36*
X94023983Y-128643936D02*
G01*
X94074180Y-128643936D01*
X94117524Y-128653149D01*
X94155659Y-128656905D01*
X94203566Y-128671437D01*
X94258424Y-128683098D01*
X94293530Y-128698728D01*
X94324566Y-128708143D01*
X94373884Y-128734504D01*
X94430500Y-128759711D01*
X94456822Y-128778835D01*
X94480232Y-128791348D01*
X94527988Y-128830540D01*
X94582887Y-128870427D01*
X94600711Y-128890223D01*
X94616675Y-128903324D01*
X94659572Y-128955594D01*
X94708924Y-129010405D01*
X94719292Y-129028363D01*
X94728651Y-129039767D01*
X94763273Y-129104542D01*
X94803104Y-129173530D01*
X94807685Y-129187630D01*
X94811856Y-129195433D01*
X94834852Y-129271242D01*
X94861311Y-129352672D01*
X94862242Y-129361532D01*
X94863094Y-129364340D01*
X94871384Y-129448513D01*
X94881000Y-129540000D01*
X94871383Y-129631494D01*
X94863094Y-129715659D01*
X94862242Y-129718466D01*
X94861311Y-129727328D01*
X94834848Y-129808771D01*
X94811856Y-129884566D01*
X94807686Y-129892366D01*
X94803104Y-129906470D01*
X94763266Y-129975470D01*
X94728651Y-130040232D01*
X94719294Y-130051633D01*
X94708924Y-130069595D01*
X94659563Y-130124415D01*
X94616675Y-130176675D01*
X94600714Y-130189773D01*
X94582887Y-130209573D01*
X94527977Y-130249467D01*
X94480232Y-130288651D01*
X94456827Y-130301161D01*
X94430500Y-130320289D01*
X94373873Y-130345500D01*
X94324566Y-130371856D01*
X94293537Y-130381268D01*
X94258424Y-130396902D01*
X94203555Y-130408564D01*
X94155659Y-130423094D01*
X94117532Y-130426849D01*
X94074180Y-130436064D01*
X94023973Y-130436064D01*
X93980000Y-130440395D01*
X93936027Y-130436064D01*
X93885820Y-130436064D01*
X93842467Y-130426849D01*
X93804340Y-130423094D01*
X93756441Y-130408563D01*
X93701576Y-130396902D01*
X93666464Y-130381269D01*
X93635433Y-130371856D01*
X93586120Y-130345498D01*
X93529500Y-130320289D01*
X93503175Y-130301163D01*
X93479767Y-130288651D01*
X93432013Y-130249460D01*
X93377113Y-130209573D01*
X93359287Y-130189776D01*
X93343324Y-130176675D01*
X93300425Y-130124402D01*
X93251076Y-130069595D01*
X93240708Y-130051637D01*
X93231348Y-130040232D01*
X93196719Y-129975447D01*
X93156896Y-129906470D01*
X93152315Y-129892371D01*
X93148143Y-129884566D01*
X93125136Y-129808725D01*
X93098689Y-129727328D01*
X93097758Y-129718471D01*
X93096905Y-129715659D01*
X93088600Y-129631342D01*
X93079000Y-129540000D01*
X93088599Y-129448664D01*
X93096905Y-129364340D01*
X93097758Y-129361527D01*
X93098689Y-129352672D01*
X93125132Y-129271288D01*
X93148143Y-129195433D01*
X93152315Y-129187626D01*
X93156896Y-129173530D01*
X93196712Y-129104565D01*
X93231348Y-129039767D01*
X93240710Y-129028359D01*
X93251076Y-129010405D01*
X93300416Y-128955607D01*
X93343324Y-128903324D01*
X93359291Y-128890219D01*
X93377113Y-128870427D01*
X93432002Y-128830546D01*
X93479767Y-128791348D01*
X93503180Y-128778833D01*
X93529500Y-128759711D01*
X93586109Y-128734506D01*
X93635433Y-128708143D01*
X93666471Y-128698727D01*
X93701576Y-128683098D01*
X93756430Y-128671438D01*
X93804340Y-128656905D01*
X93842476Y-128653148D01*
X93885820Y-128643936D01*
X93936016Y-128643936D01*
X93980000Y-128639604D01*
X94023983Y-128643936D01*
G37*
G36*
X87953611Y-128792616D02*
G01*
X88098004Y-128821338D01*
X88234019Y-128877677D01*
X88356429Y-128959469D01*
X88460531Y-129063571D01*
X88542323Y-129185981D01*
X88598662Y-129321996D01*
X88627384Y-129466389D01*
X88627384Y-129613611D01*
X88598662Y-129758004D01*
X88542323Y-129894019D01*
X88460531Y-130016429D01*
X88356429Y-130120531D01*
X88234019Y-130202323D01*
X88098004Y-130258662D01*
X87953611Y-130287384D01*
X87380000Y-130291000D01*
X87306389Y-130287384D01*
X87161996Y-130258662D01*
X87025981Y-130202323D01*
X86903571Y-130120531D01*
X86799469Y-130016429D01*
X86717677Y-129894019D01*
X86661338Y-129758004D01*
X86632616Y-129613611D01*
X86632616Y-129466389D01*
X86661338Y-129321996D01*
X86717677Y-129185981D01*
X86799469Y-129063571D01*
X86903571Y-128959469D01*
X87025981Y-128877677D01*
X87161996Y-128821338D01*
X87306389Y-128792616D01*
X87880000Y-128789000D01*
X87953611Y-128792616D01*
G37*
G36*
X90493611Y-128792616D02*
G01*
X90638004Y-128821338D01*
X90774019Y-128877677D01*
X90896429Y-128959469D01*
X91000531Y-129063571D01*
X91082323Y-129185981D01*
X91138662Y-129321996D01*
X91167384Y-129466389D01*
X91167384Y-129613611D01*
X91138662Y-129758004D01*
X91082323Y-129894019D01*
X91000531Y-130016429D01*
X90896429Y-130120531D01*
X90774019Y-130202323D01*
X90638004Y-130258662D01*
X90493611Y-130287384D01*
X89920000Y-130291000D01*
X89846389Y-130287384D01*
X89701996Y-130258662D01*
X89565981Y-130202323D01*
X89443571Y-130120531D01*
X89339469Y-130016429D01*
X89257677Y-129894019D01*
X89201338Y-129758004D01*
X89172616Y-129613611D01*
X89172616Y-129466389D01*
X89201338Y-129321996D01*
X89257677Y-129185981D01*
X89339469Y-129063571D01*
X89443571Y-128959469D01*
X89565981Y-128877677D01*
X89701996Y-128821338D01*
X89846389Y-128792616D01*
X90420000Y-128789000D01*
X90493611Y-128792616D01*
G37*
G36*
X48303983Y-126103936D02*
G01*
X48354180Y-126103936D01*
X48397524Y-126113149D01*
X48435659Y-126116905D01*
X48483566Y-126131437D01*
X48538424Y-126143098D01*
X48573530Y-126158728D01*
X48604566Y-126168143D01*
X48653884Y-126194504D01*
X48710500Y-126219711D01*
X48736822Y-126238835D01*
X48760232Y-126251348D01*
X48807988Y-126290540D01*
X48862887Y-126330427D01*
X48880711Y-126350223D01*
X48896675Y-126363324D01*
X48939572Y-126415594D01*
X48988924Y-126470405D01*
X48999292Y-126488363D01*
X49008651Y-126499767D01*
X49043273Y-126564542D01*
X49083104Y-126633530D01*
X49087685Y-126647630D01*
X49091856Y-126655433D01*
X49114852Y-126731242D01*
X49141311Y-126812672D01*
X49142242Y-126821532D01*
X49143094Y-126824340D01*
X49151384Y-126908513D01*
X49161000Y-127000000D01*
X49151383Y-127091494D01*
X49143094Y-127175659D01*
X49142242Y-127178466D01*
X49141311Y-127187328D01*
X49114848Y-127268771D01*
X49091856Y-127344566D01*
X49087686Y-127352366D01*
X49083104Y-127366470D01*
X49043266Y-127435470D01*
X49008651Y-127500232D01*
X48999294Y-127511633D01*
X48988924Y-127529595D01*
X48939563Y-127584415D01*
X48896675Y-127636675D01*
X48880714Y-127649773D01*
X48862887Y-127669573D01*
X48807977Y-127709467D01*
X48760232Y-127748651D01*
X48736827Y-127761161D01*
X48710500Y-127780289D01*
X48653873Y-127805500D01*
X48604566Y-127831856D01*
X48573537Y-127841268D01*
X48538424Y-127856902D01*
X48483555Y-127868564D01*
X48435659Y-127883094D01*
X48397532Y-127886849D01*
X48354180Y-127896064D01*
X48303973Y-127896064D01*
X48260000Y-127900395D01*
X48216027Y-127896064D01*
X48165820Y-127896064D01*
X48122467Y-127886849D01*
X48084340Y-127883094D01*
X48036441Y-127868563D01*
X47981576Y-127856902D01*
X47946464Y-127841269D01*
X47915433Y-127831856D01*
X47866120Y-127805498D01*
X47809500Y-127780289D01*
X47783175Y-127761163D01*
X47759767Y-127748651D01*
X47712013Y-127709460D01*
X47657113Y-127669573D01*
X47639287Y-127649776D01*
X47623324Y-127636675D01*
X47580425Y-127584402D01*
X47531076Y-127529595D01*
X47520708Y-127511637D01*
X47511348Y-127500232D01*
X47476719Y-127435447D01*
X47436896Y-127366470D01*
X47432315Y-127352371D01*
X47428143Y-127344566D01*
X47405136Y-127268725D01*
X47378689Y-127187328D01*
X47377758Y-127178471D01*
X47376905Y-127175659D01*
X47368600Y-127091342D01*
X47359000Y-127000000D01*
X47368599Y-126908664D01*
X47376905Y-126824340D01*
X47377758Y-126821527D01*
X47378689Y-126812672D01*
X47405132Y-126731288D01*
X47428143Y-126655433D01*
X47432315Y-126647626D01*
X47436896Y-126633530D01*
X47476712Y-126564565D01*
X47511348Y-126499767D01*
X47520710Y-126488359D01*
X47531076Y-126470405D01*
X47580416Y-126415607D01*
X47623324Y-126363324D01*
X47639291Y-126350219D01*
X47657113Y-126330427D01*
X47712002Y-126290546D01*
X47759767Y-126251348D01*
X47783180Y-126238833D01*
X47809500Y-126219711D01*
X47866109Y-126194506D01*
X47915433Y-126168143D01*
X47946471Y-126158727D01*
X47981576Y-126143098D01*
X48036430Y-126131438D01*
X48084340Y-126116905D01*
X48122476Y-126113148D01*
X48165820Y-126103936D01*
X48216016Y-126103936D01*
X48260000Y-126099604D01*
X48303983Y-126103936D01*
G37*
G36*
X94023983Y-126103936D02*
G01*
X94074180Y-126103936D01*
X94117524Y-126113149D01*
X94155659Y-126116905D01*
X94203566Y-126131437D01*
X94258424Y-126143098D01*
X94293530Y-126158728D01*
X94324566Y-126168143D01*
X94373884Y-126194504D01*
X94430500Y-126219711D01*
X94456822Y-126238835D01*
X94480232Y-126251348D01*
X94527988Y-126290540D01*
X94582887Y-126330427D01*
X94600711Y-126350223D01*
X94616675Y-126363324D01*
X94659572Y-126415594D01*
X94708924Y-126470405D01*
X94719292Y-126488363D01*
X94728651Y-126499767D01*
X94763273Y-126564542D01*
X94803104Y-126633530D01*
X94807685Y-126647630D01*
X94811856Y-126655433D01*
X94834852Y-126731242D01*
X94861311Y-126812672D01*
X94862242Y-126821532D01*
X94863094Y-126824340D01*
X94871384Y-126908513D01*
X94881000Y-127000000D01*
X94871383Y-127091494D01*
X94863094Y-127175659D01*
X94862242Y-127178466D01*
X94861311Y-127187328D01*
X94834848Y-127268771D01*
X94811856Y-127344566D01*
X94807686Y-127352366D01*
X94803104Y-127366470D01*
X94763266Y-127435470D01*
X94728651Y-127500232D01*
X94719294Y-127511633D01*
X94708924Y-127529595D01*
X94659563Y-127584415D01*
X94616675Y-127636675D01*
X94600714Y-127649773D01*
X94582887Y-127669573D01*
X94527977Y-127709467D01*
X94480232Y-127748651D01*
X94456827Y-127761161D01*
X94430500Y-127780289D01*
X94373873Y-127805500D01*
X94324566Y-127831856D01*
X94293537Y-127841268D01*
X94258424Y-127856902D01*
X94203555Y-127868564D01*
X94155659Y-127883094D01*
X94117532Y-127886849D01*
X94074180Y-127896064D01*
X94023973Y-127896064D01*
X93980000Y-127900395D01*
X93936027Y-127896064D01*
X93885820Y-127896064D01*
X93842467Y-127886849D01*
X93804340Y-127883094D01*
X93756441Y-127868563D01*
X93701576Y-127856902D01*
X93666464Y-127841269D01*
X93635433Y-127831856D01*
X93586120Y-127805498D01*
X93529500Y-127780289D01*
X93503175Y-127761163D01*
X93479767Y-127748651D01*
X93432013Y-127709460D01*
X93377113Y-127669573D01*
X93359287Y-127649776D01*
X93343324Y-127636675D01*
X93300425Y-127584402D01*
X93251076Y-127529595D01*
X93240708Y-127511637D01*
X93231348Y-127500232D01*
X93196719Y-127435447D01*
X93156896Y-127366470D01*
X93152315Y-127352371D01*
X93148143Y-127344566D01*
X93125136Y-127268725D01*
X93098689Y-127187328D01*
X93097758Y-127178471D01*
X93096905Y-127175659D01*
X93088600Y-127091342D01*
X93079000Y-127000000D01*
X93088599Y-126908664D01*
X93096905Y-126824340D01*
X93097758Y-126821527D01*
X93098689Y-126812672D01*
X93125132Y-126731288D01*
X93148143Y-126655433D01*
X93152315Y-126647626D01*
X93156896Y-126633530D01*
X93196712Y-126564565D01*
X93231348Y-126499767D01*
X93240710Y-126488359D01*
X93251076Y-126470405D01*
X93300416Y-126415607D01*
X93343324Y-126363324D01*
X93359291Y-126350219D01*
X93377113Y-126330427D01*
X93432002Y-126290546D01*
X93479767Y-126251348D01*
X93503180Y-126238833D01*
X93529500Y-126219711D01*
X93586109Y-126194506D01*
X93635433Y-126168143D01*
X93666471Y-126158727D01*
X93701576Y-126143098D01*
X93756430Y-126131438D01*
X93804340Y-126116905D01*
X93842476Y-126113148D01*
X93885820Y-126103936D01*
X93936016Y-126103936D01*
X93980000Y-126099604D01*
X94023983Y-126103936D01*
G37*
G36*
X87953611Y-126252616D02*
G01*
X88098004Y-126281338D01*
X88234019Y-126337677D01*
X88356429Y-126419469D01*
X88460531Y-126523571D01*
X88542323Y-126645981D01*
X88598662Y-126781996D01*
X88627384Y-126926389D01*
X88627384Y-127073611D01*
X88598662Y-127218004D01*
X88542323Y-127354019D01*
X88460531Y-127476429D01*
X88356429Y-127580531D01*
X88234019Y-127662323D01*
X88098004Y-127718662D01*
X87953611Y-127747384D01*
X87380000Y-127751000D01*
X87306389Y-127747384D01*
X87161996Y-127718662D01*
X87025981Y-127662323D01*
X86903571Y-127580531D01*
X86799469Y-127476429D01*
X86717677Y-127354019D01*
X86661338Y-127218004D01*
X86632616Y-127073611D01*
X86632616Y-126926389D01*
X86661338Y-126781996D01*
X86717677Y-126645981D01*
X86799469Y-126523571D01*
X86903571Y-126419469D01*
X87025981Y-126337677D01*
X87161996Y-126281338D01*
X87306389Y-126252616D01*
X87880000Y-126249000D01*
X87953611Y-126252616D01*
G37*
G36*
X90493611Y-126252616D02*
G01*
X90638004Y-126281338D01*
X90774019Y-126337677D01*
X90896429Y-126419469D01*
X91000531Y-126523571D01*
X91082323Y-126645981D01*
X91138662Y-126781996D01*
X91167384Y-126926389D01*
X91167384Y-127073611D01*
X91138662Y-127218004D01*
X91082323Y-127354019D01*
X91000531Y-127476429D01*
X90896429Y-127580531D01*
X90774019Y-127662323D01*
X90638004Y-127718662D01*
X90493611Y-127747384D01*
X89920000Y-127751000D01*
X89846389Y-127747384D01*
X89701996Y-127718662D01*
X89565981Y-127662323D01*
X89443571Y-127580531D01*
X89339469Y-127476429D01*
X89257677Y-127354019D01*
X89201338Y-127218004D01*
X89172616Y-127073611D01*
X89172616Y-126926389D01*
X89201338Y-126781996D01*
X89257677Y-126645981D01*
X89339469Y-126523571D01*
X89443571Y-126419469D01*
X89565981Y-126337677D01*
X89701996Y-126281338D01*
X89846389Y-126252616D01*
X90420000Y-126249000D01*
X90493611Y-126252616D01*
G37*
G36*
X50202928Y-120816707D02*
G01*
X50218576Y-120821253D01*
X50230544Y-120822476D01*
X50285741Y-120840766D01*
X50353615Y-120860486D01*
X50364275Y-120866790D01*
X50369196Y-120868421D01*
X50419544Y-120899476D01*
X50488680Y-120940363D01*
X50599637Y-121051320D01*
X50640532Y-121120470D01*
X50671578Y-121170803D01*
X50673208Y-121175722D01*
X50679514Y-121186385D01*
X50699237Y-121254274D01*
X50717523Y-121309455D01*
X50718745Y-121321418D01*
X50723293Y-121337072D01*
X50731000Y-121435000D01*
X50731000Y-122585000D01*
X50723293Y-122682928D01*
X50718744Y-122698582D01*
X50717523Y-122710544D01*
X50699240Y-122765717D01*
X50679514Y-122833615D01*
X50673207Y-122844279D01*
X50671578Y-122849196D01*
X50640546Y-122899505D01*
X50599637Y-122968680D01*
X50488680Y-123079637D01*
X50419505Y-123120546D01*
X50369196Y-123151578D01*
X50364279Y-123153207D01*
X50353615Y-123159514D01*
X50285717Y-123179240D01*
X50230544Y-123197523D01*
X50218582Y-123198744D01*
X50202928Y-123203293D01*
X50105000Y-123211000D01*
X48955000Y-123211000D01*
X48857072Y-123203293D01*
X48841418Y-123198745D01*
X48829455Y-123197523D01*
X48774274Y-123179237D01*
X48706385Y-123159514D01*
X48695722Y-123153208D01*
X48690803Y-123151578D01*
X48640470Y-123120532D01*
X48571320Y-123079637D01*
X48460363Y-122968680D01*
X48419476Y-122899544D01*
X48388421Y-122849196D01*
X48386790Y-122844275D01*
X48380486Y-122833615D01*
X48360766Y-122765741D01*
X48342476Y-122710544D01*
X48341253Y-122698576D01*
X48336707Y-122682928D01*
X48329000Y-122585000D01*
X48329000Y-121435000D01*
X48336707Y-121337072D01*
X48341253Y-121321423D01*
X48342476Y-121309455D01*
X48360769Y-121254250D01*
X48380486Y-121186385D01*
X48386789Y-121175726D01*
X48388421Y-121170803D01*
X48419491Y-121120430D01*
X48460363Y-121051320D01*
X48571320Y-120940363D01*
X48640430Y-120899491D01*
X48690803Y-120868421D01*
X48695726Y-120866789D01*
X48706385Y-120860486D01*
X48774250Y-120840769D01*
X48829455Y-120822476D01*
X48841423Y-120821253D01*
X48857072Y-120816707D01*
X48955000Y-120809000D01*
X50105000Y-120809000D01*
X50202928Y-120816707D01*
G37*
G36*
X74568975Y-121127032D02*
G01*
X74686879Y-121175869D01*
X74792990Y-121246770D01*
X74883230Y-121337010D01*
X74954131Y-121443121D01*
X75002968Y-121561025D01*
X75027865Y-121686191D01*
X75031000Y-122450000D01*
X75027865Y-122513809D01*
X75002968Y-122638975D01*
X74954131Y-122756879D01*
X74883230Y-122862990D01*
X74792990Y-122953230D01*
X74686879Y-123024131D01*
X74568975Y-123072968D01*
X74443809Y-123097865D01*
X74316191Y-123097865D01*
X74191025Y-123072968D01*
X74073121Y-123024131D01*
X73967010Y-122953230D01*
X73876770Y-122862990D01*
X73805869Y-122756879D01*
X73757032Y-122638975D01*
X73732135Y-122513809D01*
X73729000Y-121750000D01*
X73732135Y-121686191D01*
X73757032Y-121561025D01*
X73805869Y-121443121D01*
X73876770Y-121337010D01*
X73967010Y-121246770D01*
X74073121Y-121175869D01*
X74191025Y-121127032D01*
X74316191Y-121102135D01*
X74443809Y-121102135D01*
X74568975Y-121127032D01*
G37*
G36*
X77108975Y-121127032D02*
G01*
X77226879Y-121175869D01*
X77332990Y-121246770D01*
X77423230Y-121337010D01*
X77494131Y-121443121D01*
X77542968Y-121561025D01*
X77567865Y-121686191D01*
X77571000Y-122450000D01*
X77567865Y-122513809D01*
X77542968Y-122638975D01*
X77494131Y-122756879D01*
X77423230Y-122862990D01*
X77332990Y-122953230D01*
X77226879Y-123024131D01*
X77108975Y-123072968D01*
X76983809Y-123097865D01*
X76856191Y-123097865D01*
X76731025Y-123072968D01*
X76613121Y-123024131D01*
X76507010Y-122953230D01*
X76416770Y-122862990D01*
X76345869Y-122756879D01*
X76297032Y-122638975D01*
X76272135Y-122513809D01*
X76269000Y-121750000D01*
X76272135Y-121686191D01*
X76297032Y-121561025D01*
X76345869Y-121443121D01*
X76416770Y-121337010D01*
X76507010Y-121246770D01*
X76613121Y-121175869D01*
X76731025Y-121127032D01*
X76856191Y-121102135D01*
X76983809Y-121102135D01*
X77108975Y-121127032D01*
G37*
G36*
X79648975Y-121127032D02*
G01*
X79766879Y-121175869D01*
X79872990Y-121246770D01*
X79963230Y-121337010D01*
X80034131Y-121443121D01*
X80082968Y-121561025D01*
X80107865Y-121686191D01*
X80111000Y-122450000D01*
X80107865Y-122513809D01*
X80082968Y-122638975D01*
X80034131Y-122756879D01*
X79963230Y-122862990D01*
X79872990Y-122953230D01*
X79766879Y-123024131D01*
X79648975Y-123072968D01*
X79523809Y-123097865D01*
X79396191Y-123097865D01*
X79271025Y-123072968D01*
X79153121Y-123024131D01*
X79047010Y-122953230D01*
X78956770Y-122862990D01*
X78885869Y-122756879D01*
X78837032Y-122638975D01*
X78812135Y-122513809D01*
X78809000Y-121750000D01*
X78812135Y-121686191D01*
X78837032Y-121561025D01*
X78885869Y-121443121D01*
X78956770Y-121337010D01*
X79047010Y-121246770D01*
X79153121Y-121175869D01*
X79271025Y-121127032D01*
X79396191Y-121102135D01*
X79523809Y-121102135D01*
X79648975Y-121127032D01*
G37*
G36*
X82188975Y-121127032D02*
G01*
X82306879Y-121175869D01*
X82412990Y-121246770D01*
X82503230Y-121337010D01*
X82574131Y-121443121D01*
X82622968Y-121561025D01*
X82647865Y-121686191D01*
X82651000Y-122450000D01*
X82647865Y-122513809D01*
X82622968Y-122638975D01*
X82574131Y-122756879D01*
X82503230Y-122862990D01*
X82412990Y-122953230D01*
X82306879Y-123024131D01*
X82188975Y-123072968D01*
X82063809Y-123097865D01*
X81936191Y-123097865D01*
X81811025Y-123072968D01*
X81693121Y-123024131D01*
X81587010Y-122953230D01*
X81496770Y-122862990D01*
X81425869Y-122756879D01*
X81377032Y-122638975D01*
X81352135Y-122513809D01*
X81349000Y-121750000D01*
X81352135Y-121686191D01*
X81377032Y-121561025D01*
X81425869Y-121443121D01*
X81496770Y-121337010D01*
X81587010Y-121246770D01*
X81693121Y-121175869D01*
X81811025Y-121127032D01*
X81936191Y-121102135D01*
X82063809Y-121102135D01*
X82188975Y-121127032D01*
G37*
G36*
X60019517Y-120720559D02*
G01*
X60036062Y-120731615D01*
X60047118Y-120748160D01*
X60051000Y-120767677D01*
X60051000Y-122767677D01*
X60047118Y-122787194D01*
X60036062Y-122803739D01*
X60019517Y-122814795D01*
X60000000Y-122818677D01*
X58000000Y-122818677D01*
X57980483Y-122814795D01*
X57963938Y-122803739D01*
X57952882Y-122787194D01*
X57949000Y-122767677D01*
X57949000Y-120767677D01*
X57952882Y-120748160D01*
X57963938Y-120731615D01*
X57980483Y-120720559D01*
X58000000Y-120716677D01*
X60000000Y-120716677D01*
X60019517Y-120720559D01*
G37*
G36*
X50202928Y-116216707D02*
G01*
X50218576Y-116221253D01*
X50230544Y-116222476D01*
X50285741Y-116240766D01*
X50353615Y-116260486D01*
X50364275Y-116266790D01*
X50369196Y-116268421D01*
X50419544Y-116299476D01*
X50488680Y-116340363D01*
X50599637Y-116451320D01*
X50640532Y-116520470D01*
X50671578Y-116570803D01*
X50673208Y-116575722D01*
X50679514Y-116586385D01*
X50699237Y-116654274D01*
X50717523Y-116709455D01*
X50718745Y-116721418D01*
X50723293Y-116737072D01*
X50731000Y-116835000D01*
X50731000Y-117985000D01*
X50723293Y-118082928D01*
X50718744Y-118098582D01*
X50717523Y-118110544D01*
X50699240Y-118165717D01*
X50679514Y-118233615D01*
X50673207Y-118244279D01*
X50671578Y-118249196D01*
X50640546Y-118299505D01*
X50599637Y-118368680D01*
X50488680Y-118479637D01*
X50419505Y-118520546D01*
X50369196Y-118551578D01*
X50364279Y-118553207D01*
X50353615Y-118559514D01*
X50285717Y-118579240D01*
X50230544Y-118597523D01*
X50218582Y-118598744D01*
X50202928Y-118603293D01*
X50105000Y-118611000D01*
X48955000Y-118611000D01*
X48857072Y-118603293D01*
X48841418Y-118598745D01*
X48829455Y-118597523D01*
X48774274Y-118579237D01*
X48706385Y-118559514D01*
X48695722Y-118553208D01*
X48690803Y-118551578D01*
X48640470Y-118520532D01*
X48571320Y-118479637D01*
X48460363Y-118368680D01*
X48419476Y-118299544D01*
X48388421Y-118249196D01*
X48386790Y-118244275D01*
X48380486Y-118233615D01*
X48360766Y-118165741D01*
X48342476Y-118110544D01*
X48341253Y-118098576D01*
X48336707Y-118082928D01*
X48329000Y-117985000D01*
X48329000Y-116835000D01*
X48336707Y-116737072D01*
X48341253Y-116721423D01*
X48342476Y-116709455D01*
X48360769Y-116654250D01*
X48380486Y-116586385D01*
X48386789Y-116575726D01*
X48388421Y-116570803D01*
X48419491Y-116520430D01*
X48460363Y-116451320D01*
X48571320Y-116340363D01*
X48640430Y-116299491D01*
X48690803Y-116268421D01*
X48695726Y-116266789D01*
X48706385Y-116260486D01*
X48774250Y-116240769D01*
X48829455Y-116222476D01*
X48841423Y-116221253D01*
X48857072Y-116216707D01*
X48955000Y-116209000D01*
X50105000Y-116209000D01*
X50202928Y-116216707D01*
G37*
G36*
X59050938Y-115721694D02*
G01*
X59096923Y-115721694D01*
X59148139Y-115731267D01*
X59205040Y-115736872D01*
X59248261Y-115749983D01*
X59287474Y-115757313D01*
X59341785Y-115778353D01*
X59402200Y-115796680D01*
X59436720Y-115815131D01*
X59468232Y-115827339D01*
X59522977Y-115861236D01*
X59583904Y-115893802D01*
X59609506Y-115914813D01*
X59633048Y-115929390D01*
X59685212Y-115976944D01*
X59743169Y-116024508D01*
X59760342Y-116045434D01*
X59776301Y-116059982D01*
X59822629Y-116121330D01*
X59873875Y-116183773D01*
X59883783Y-116202311D01*
X59893122Y-116214677D01*
X59930274Y-116289290D01*
X59970997Y-116365477D01*
X59975340Y-116379794D01*
X59979528Y-116388205D01*
X60004267Y-116475153D01*
X60030805Y-116562637D01*
X60031676Y-116571488D01*
X60032577Y-116574652D01*
X60041938Y-116675679D01*
X60051000Y-116767677D01*
X60041938Y-116859682D01*
X60032577Y-116960701D01*
X60031676Y-116963864D01*
X60030805Y-116972717D01*
X60004262Y-117060215D01*
X59979528Y-117147148D01*
X59975341Y-117155556D01*
X59970997Y-117169877D01*
X59930267Y-117246076D01*
X59893122Y-117320676D01*
X59883785Y-117333039D01*
X59873875Y-117351581D01*
X59822620Y-117414034D01*
X59776301Y-117475371D01*
X59760345Y-117489915D01*
X59743169Y-117510846D01*
X59685201Y-117558418D01*
X59633048Y-117605963D01*
X59609511Y-117620536D01*
X59583904Y-117641552D01*
X59522965Y-117674124D01*
X59468232Y-117708014D01*
X59436726Y-117720219D01*
X59402200Y-117738674D01*
X59341773Y-117757004D01*
X59287474Y-117778040D01*
X59248268Y-117785368D01*
X59205040Y-117798482D01*
X59148136Y-117804086D01*
X59096923Y-117813660D01*
X59050938Y-117813660D01*
X59000000Y-117818677D01*
X58949062Y-117813660D01*
X58903077Y-117813660D01*
X58851863Y-117804086D01*
X58794960Y-117798482D01*
X58751732Y-117785369D01*
X58712525Y-117778040D01*
X58658221Y-117757002D01*
X58597800Y-117738674D01*
X58563275Y-117720220D01*
X58531767Y-117708014D01*
X58477027Y-117674120D01*
X58416096Y-117641552D01*
X58390491Y-117620538D01*
X58366951Y-117605963D01*
X58314788Y-117558410D01*
X58256831Y-117510846D01*
X58239656Y-117489919D01*
X58223698Y-117475371D01*
X58177367Y-117414019D01*
X58126125Y-117351581D01*
X58116216Y-117333043D01*
X58106877Y-117320676D01*
X58069717Y-117246049D01*
X58029003Y-117169877D01*
X58024660Y-117155561D01*
X58020471Y-117147148D01*
X57995721Y-117060162D01*
X57969195Y-116972717D01*
X57968323Y-116963869D01*
X57967422Y-116960701D01*
X57958044Y-116859510D01*
X57949000Y-116767677D01*
X57958044Y-116675850D01*
X57967422Y-116574652D01*
X57968323Y-116571482D01*
X57969195Y-116562637D01*
X57995716Y-116475206D01*
X58020471Y-116388205D01*
X58024661Y-116379789D01*
X58029003Y-116365477D01*
X58069710Y-116289318D01*
X58106877Y-116214677D01*
X58116218Y-116202306D01*
X58126125Y-116183773D01*
X58177357Y-116121345D01*
X58223698Y-116059982D01*
X58239660Y-116045430D01*
X58256831Y-116024508D01*
X58314777Y-115976952D01*
X58366951Y-115929390D01*
X58390496Y-115914811D01*
X58416096Y-115893802D01*
X58477015Y-115861240D01*
X58531767Y-115827339D01*
X58563282Y-115815129D01*
X58597800Y-115796680D01*
X58658209Y-115778354D01*
X58712525Y-115757313D01*
X58751739Y-115749982D01*
X58794960Y-115736872D01*
X58851860Y-115731267D01*
X58903077Y-115721694D01*
X58949062Y-115721694D01*
X59000000Y-115716677D01*
X59050938Y-115721694D01*
G37*
G36*
X91043983Y-105783936D02*
G01*
X91094180Y-105783936D01*
X91137524Y-105793149D01*
X91175659Y-105796905D01*
X91223566Y-105811437D01*
X91278424Y-105823098D01*
X91313530Y-105838728D01*
X91344566Y-105848143D01*
X91393884Y-105874504D01*
X91450500Y-105899711D01*
X91476822Y-105918835D01*
X91500232Y-105931348D01*
X91547988Y-105970540D01*
X91602887Y-106010427D01*
X91620711Y-106030223D01*
X91636675Y-106043324D01*
X91679572Y-106095594D01*
X91728924Y-106150405D01*
X91739292Y-106168363D01*
X91748651Y-106179767D01*
X91783273Y-106244542D01*
X91823104Y-106313530D01*
X91827685Y-106327630D01*
X91831856Y-106335433D01*
X91854852Y-106411242D01*
X91881311Y-106492672D01*
X91882242Y-106501532D01*
X91883094Y-106504340D01*
X91891384Y-106588513D01*
X91901000Y-106680000D01*
X91891383Y-106771494D01*
X91883094Y-106855659D01*
X91882242Y-106858466D01*
X91881311Y-106867328D01*
X91854848Y-106948771D01*
X91831856Y-107024566D01*
X91827686Y-107032366D01*
X91823104Y-107046470D01*
X91783266Y-107115470D01*
X91748651Y-107180232D01*
X91739294Y-107191633D01*
X91728924Y-107209595D01*
X91679563Y-107264415D01*
X91636675Y-107316675D01*
X91620714Y-107329773D01*
X91602887Y-107349573D01*
X91547977Y-107389467D01*
X91500232Y-107428651D01*
X91476827Y-107441161D01*
X91450500Y-107460289D01*
X91393873Y-107485500D01*
X91344566Y-107511856D01*
X91313537Y-107521268D01*
X91278424Y-107536902D01*
X91223555Y-107548564D01*
X91175659Y-107563094D01*
X91137532Y-107566849D01*
X91094180Y-107576064D01*
X91043973Y-107576064D01*
X91000000Y-107580395D01*
X90956027Y-107576064D01*
X90905820Y-107576064D01*
X90862467Y-107566849D01*
X90824340Y-107563094D01*
X90776441Y-107548563D01*
X90721576Y-107536902D01*
X90686464Y-107521269D01*
X90655433Y-107511856D01*
X90606120Y-107485498D01*
X90549500Y-107460289D01*
X90523175Y-107441163D01*
X90499767Y-107428651D01*
X90452013Y-107389460D01*
X90397113Y-107349573D01*
X90379287Y-107329776D01*
X90363324Y-107316675D01*
X90320425Y-107264402D01*
X90271076Y-107209595D01*
X90260708Y-107191637D01*
X90251348Y-107180232D01*
X90216719Y-107115447D01*
X90176896Y-107046470D01*
X90172315Y-107032371D01*
X90168143Y-107024566D01*
X90145136Y-106948725D01*
X90118689Y-106867328D01*
X90117758Y-106858471D01*
X90116905Y-106855659D01*
X90108600Y-106771342D01*
X90099000Y-106680000D01*
X90108599Y-106588664D01*
X90116905Y-106504340D01*
X90117758Y-106501527D01*
X90118689Y-106492672D01*
X90145132Y-106411288D01*
X90168143Y-106335433D01*
X90172315Y-106327626D01*
X90176896Y-106313530D01*
X90216712Y-106244565D01*
X90251348Y-106179767D01*
X90260710Y-106168359D01*
X90271076Y-106150405D01*
X90320416Y-106095607D01*
X90363324Y-106043324D01*
X90379291Y-106030219D01*
X90397113Y-106010427D01*
X90452002Y-105970546D01*
X90499767Y-105931348D01*
X90523180Y-105918833D01*
X90549500Y-105899711D01*
X90606109Y-105874506D01*
X90655433Y-105848143D01*
X90686471Y-105838727D01*
X90721576Y-105823098D01*
X90776430Y-105811438D01*
X90824340Y-105796905D01*
X90862476Y-105793148D01*
X90905820Y-105783936D01*
X90956016Y-105783936D01*
X91000000Y-105779604D01*
X91043983Y-105783936D01*
G37*
G36*
X49583105Y-104914123D02*
G01*
X49640814Y-104914123D01*
X49691584Y-104923613D01*
X49738464Y-104927715D01*
X49796005Y-104943133D01*
X49858669Y-104954847D01*
X49901169Y-104971311D01*
X49940603Y-104981878D01*
X50000306Y-105009717D01*
X50065332Y-105034909D01*
X50098892Y-105055688D01*
X50130261Y-105070316D01*
X50189433Y-105111749D01*
X50253764Y-105151581D01*
X50278423Y-105174061D01*
X50301679Y-105190345D01*
X50357308Y-105245974D01*
X50417550Y-105300892D01*
X50433971Y-105322637D01*
X50449656Y-105338322D01*
X50498581Y-105408194D01*
X50551111Y-105477755D01*
X50560522Y-105496655D01*
X50569680Y-105509734D01*
X50608674Y-105593357D01*
X50649899Y-105676149D01*
X50653998Y-105690557D01*
X50658121Y-105699398D01*
X50684100Y-105796354D01*
X50710551Y-105889317D01*
X50711365Y-105898107D01*
X50712284Y-105901535D01*
X50722441Y-106017636D01*
X50731000Y-106110000D01*
X50722440Y-106202370D01*
X50712284Y-106318464D01*
X50711365Y-106321891D01*
X50710551Y-106330683D01*
X50684100Y-106423644D01*
X50658121Y-106520603D01*
X50653997Y-106529445D01*
X50649899Y-106543851D01*
X50608683Y-106626623D01*
X50569683Y-106710261D01*
X50560523Y-106723341D01*
X50551111Y-106742245D01*
X50498568Y-106811822D01*
X50449654Y-106881679D01*
X50433974Y-106897358D01*
X50417550Y-106919108D01*
X50357297Y-106974035D01*
X50301679Y-107029654D01*
X50278428Y-107045934D01*
X50253764Y-107068419D01*
X50189420Y-107108258D01*
X50130261Y-107149683D01*
X50098899Y-107164307D01*
X50065332Y-107185091D01*
X50000293Y-107210287D01*
X49940603Y-107238121D01*
X49901177Y-107248684D01*
X49858669Y-107265153D01*
X49795993Y-107276869D01*
X49738464Y-107292284D01*
X49691594Y-107296384D01*
X49640814Y-107305877D01*
X49583093Y-107305877D01*
X49530000Y-107310522D01*
X49476906Y-107305877D01*
X49419186Y-107305877D01*
X49368405Y-107296384D01*
X49321535Y-107292284D01*
X49264003Y-107276868D01*
X49201331Y-107265153D01*
X49158824Y-107248685D01*
X49119396Y-107238121D01*
X49059700Y-107210284D01*
X48994668Y-107185091D01*
X48961103Y-107164308D01*
X48929738Y-107149683D01*
X48870570Y-107108253D01*
X48806236Y-107068419D01*
X48781574Y-107045937D01*
X48758320Y-107029654D01*
X48702691Y-106974025D01*
X48642450Y-106919108D01*
X48626028Y-106897362D01*
X48610345Y-106881679D01*
X48561418Y-106811804D01*
X48508889Y-106742245D01*
X48499478Y-106723346D01*
X48490316Y-106710261D01*
X48451301Y-106626592D01*
X48410101Y-106543851D01*
X48406003Y-106529450D01*
X48401878Y-106520603D01*
X48375881Y-106423584D01*
X48349449Y-106330683D01*
X48348634Y-106321896D01*
X48347715Y-106318464D01*
X48337541Y-106202177D01*
X48329000Y-106110000D01*
X48337540Y-106017829D01*
X48347715Y-105901535D01*
X48348635Y-105898101D01*
X48349449Y-105889317D01*
X48375882Y-105796414D01*
X48401878Y-105699398D01*
X48406003Y-105690551D01*
X48410101Y-105676149D01*
X48451310Y-105593389D01*
X48490319Y-105509734D01*
X48499480Y-105496650D01*
X48508889Y-105477755D01*
X48561404Y-105408212D01*
X48610343Y-105338322D01*
X48626031Y-105322633D01*
X48642450Y-105300892D01*
X48702680Y-105245984D01*
X48758322Y-105190343D01*
X48781581Y-105174056D01*
X48806236Y-105151581D01*
X48870557Y-105111755D01*
X48929734Y-105070319D01*
X48961103Y-105055691D01*
X48994668Y-105034909D01*
X49059700Y-105009715D01*
X49119398Y-104981878D01*
X49158829Y-104971312D01*
X49201331Y-104954847D01*
X49263993Y-104943133D01*
X49321535Y-104927715D01*
X49368416Y-104923613D01*
X49419186Y-104914123D01*
X49476895Y-104914123D01*
X49530000Y-104909477D01*
X49583105Y-104914123D01*
G37*
G36*
X68834689Y-102279144D02*
G01*
X68997508Y-102332047D01*
X69150046Y-102409770D01*
X69288548Y-102510397D01*
X69409603Y-102631452D01*
X69510230Y-102769954D01*
X69587953Y-102922492D01*
X69640856Y-103085311D01*
X69667637Y-103254401D01*
X69671000Y-104860000D01*
X69667637Y-104945599D01*
X69640856Y-105114689D01*
X69587953Y-105277508D01*
X69510230Y-105430046D01*
X69409603Y-105568548D01*
X69288548Y-105689603D01*
X69150046Y-105790230D01*
X68997508Y-105867953D01*
X68834689Y-105920856D01*
X68665599Y-105947637D01*
X68494401Y-105947637D01*
X68325311Y-105920856D01*
X68162492Y-105867953D01*
X68009954Y-105790230D01*
X67871452Y-105689603D01*
X67750397Y-105568548D01*
X67649770Y-105430046D01*
X67572047Y-105277508D01*
X67519144Y-105114689D01*
X67492363Y-104945599D01*
X67489000Y-103340000D01*
X67492363Y-103254401D01*
X67519144Y-103085311D01*
X67572047Y-102922492D01*
X67649770Y-102769954D01*
X67750397Y-102631452D01*
X67871452Y-102510397D01*
X68009954Y-102409770D01*
X68162492Y-102332047D01*
X68325311Y-102279144D01*
X68494401Y-102252363D01*
X68665599Y-102252363D01*
X68834689Y-102279144D01*
G37*
G36*
X73914689Y-102279144D02*
G01*
X74077508Y-102332047D01*
X74230046Y-102409770D01*
X74368548Y-102510397D01*
X74489603Y-102631452D01*
X74590230Y-102769954D01*
X74667953Y-102922492D01*
X74720856Y-103085311D01*
X74747637Y-103254401D01*
X74751000Y-104860000D01*
X74747637Y-104945599D01*
X74720856Y-105114689D01*
X74667953Y-105277508D01*
X74590230Y-105430046D01*
X74489603Y-105568548D01*
X74368548Y-105689603D01*
X74230046Y-105790230D01*
X74077508Y-105867953D01*
X73914689Y-105920856D01*
X73745599Y-105947637D01*
X73574401Y-105947637D01*
X73405311Y-105920856D01*
X73242492Y-105867953D01*
X73089954Y-105790230D01*
X72951452Y-105689603D01*
X72830397Y-105568548D01*
X72729770Y-105430046D01*
X72652047Y-105277508D01*
X72599144Y-105114689D01*
X72572363Y-104945599D01*
X72569000Y-103340000D01*
X72572363Y-103254401D01*
X72599144Y-103085311D01*
X72652047Y-102922492D01*
X72729770Y-102769954D01*
X72830397Y-102631452D01*
X72951452Y-102510397D01*
X73089954Y-102409770D01*
X73242492Y-102332047D01*
X73405311Y-102279144D01*
X73574401Y-102252363D01*
X73745599Y-102252363D01*
X73914689Y-102279144D01*
G37*
G36*
X78994689Y-102279144D02*
G01*
X79157508Y-102332047D01*
X79310046Y-102409770D01*
X79448548Y-102510397D01*
X79569603Y-102631452D01*
X79670230Y-102769954D01*
X79747953Y-102922492D01*
X79800856Y-103085311D01*
X79827637Y-103254401D01*
X79831000Y-104860000D01*
X79827637Y-104945599D01*
X79800856Y-105114689D01*
X79747953Y-105277508D01*
X79670230Y-105430046D01*
X79569603Y-105568548D01*
X79448548Y-105689603D01*
X79310046Y-105790230D01*
X79157508Y-105867953D01*
X78994689Y-105920856D01*
X78825599Y-105947637D01*
X78654401Y-105947637D01*
X78485311Y-105920856D01*
X78322492Y-105867953D01*
X78169954Y-105790230D01*
X78031452Y-105689603D01*
X77910397Y-105568548D01*
X77809770Y-105430046D01*
X77732047Y-105277508D01*
X77679144Y-105114689D01*
X77652363Y-104945599D01*
X77649000Y-103340000D01*
X77652363Y-103254401D01*
X77679144Y-103085311D01*
X77732047Y-102922492D01*
X77809770Y-102769954D01*
X77910397Y-102631452D01*
X78031452Y-102510397D01*
X78169954Y-102409770D01*
X78322492Y-102332047D01*
X78485311Y-102279144D01*
X78654401Y-102252363D01*
X78825599Y-102252363D01*
X78994689Y-102279144D01*
G37*
G36*
X84074689Y-102279144D02*
G01*
X84237508Y-102332047D01*
X84390046Y-102409770D01*
X84528548Y-102510397D01*
X84649603Y-102631452D01*
X84750230Y-102769954D01*
X84827953Y-102922492D01*
X84880856Y-103085311D01*
X84907637Y-103254401D01*
X84911000Y-104860000D01*
X84907637Y-104945599D01*
X84880856Y-105114689D01*
X84827953Y-105277508D01*
X84750230Y-105430046D01*
X84649603Y-105568548D01*
X84528548Y-105689603D01*
X84390046Y-105790230D01*
X84237508Y-105867953D01*
X84074689Y-105920856D01*
X83905599Y-105947637D01*
X83734401Y-105947637D01*
X83565311Y-105920856D01*
X83402492Y-105867953D01*
X83249954Y-105790230D01*
X83111452Y-105689603D01*
X82990397Y-105568548D01*
X82889770Y-105430046D01*
X82812047Y-105277508D01*
X82759144Y-105114689D01*
X82732363Y-104945599D01*
X82729000Y-103340000D01*
X82732363Y-103254401D01*
X82759144Y-103085311D01*
X82812047Y-102922492D01*
X82889770Y-102769954D01*
X82990397Y-102631452D01*
X83111452Y-102510397D01*
X83249954Y-102409770D01*
X83402492Y-102332047D01*
X83565311Y-102279144D01*
X83734401Y-102252363D01*
X83905599Y-102252363D01*
X84074689Y-102279144D01*
G37*
G36*
X91869517Y-103242882D02*
G01*
X91886062Y-103253938D01*
X91897118Y-103270483D01*
X91901000Y-103290000D01*
X91901000Y-104990000D01*
X91897118Y-105009517D01*
X91886062Y-105026062D01*
X91869517Y-105037118D01*
X91850000Y-105041000D01*
X90150000Y-105041000D01*
X90130483Y-105037118D01*
X90113938Y-105026062D01*
X90102882Y-105009517D01*
X90099000Y-104990000D01*
X90099000Y-103290000D01*
X90102882Y-103270483D01*
X90113938Y-103253938D01*
X90130483Y-103242882D01*
X90150000Y-103239000D01*
X91850000Y-103239000D01*
X91869517Y-103242882D01*
G37*
G36*
X49583105Y-100314123D02*
G01*
X49640814Y-100314123D01*
X49691584Y-100323613D01*
X49738464Y-100327715D01*
X49796005Y-100343133D01*
X49858669Y-100354847D01*
X49901169Y-100371311D01*
X49940603Y-100381878D01*
X50000306Y-100409717D01*
X50065332Y-100434909D01*
X50098892Y-100455688D01*
X50130261Y-100470316D01*
X50189433Y-100511749D01*
X50253764Y-100551581D01*
X50278423Y-100574061D01*
X50301679Y-100590345D01*
X50357308Y-100645974D01*
X50417550Y-100700892D01*
X50433971Y-100722637D01*
X50449656Y-100738322D01*
X50498581Y-100808194D01*
X50551111Y-100877755D01*
X50560522Y-100896655D01*
X50569680Y-100909734D01*
X50608674Y-100993357D01*
X50649899Y-101076149D01*
X50653998Y-101090557D01*
X50658121Y-101099398D01*
X50684100Y-101196354D01*
X50710551Y-101289317D01*
X50711365Y-101298107D01*
X50712284Y-101301535D01*
X50722441Y-101417636D01*
X50731000Y-101510000D01*
X50722440Y-101602370D01*
X50712284Y-101718464D01*
X50711365Y-101721891D01*
X50710551Y-101730683D01*
X50684100Y-101823644D01*
X50658121Y-101920603D01*
X50653997Y-101929445D01*
X50649899Y-101943851D01*
X50608683Y-102026623D01*
X50569683Y-102110261D01*
X50560523Y-102123341D01*
X50551111Y-102142245D01*
X50498568Y-102211822D01*
X50449654Y-102281679D01*
X50433974Y-102297358D01*
X50417550Y-102319108D01*
X50357297Y-102374035D01*
X50301679Y-102429654D01*
X50278428Y-102445934D01*
X50253764Y-102468419D01*
X50189420Y-102508258D01*
X50130261Y-102549683D01*
X50098899Y-102564307D01*
X50065332Y-102585091D01*
X50000293Y-102610287D01*
X49940603Y-102638121D01*
X49901177Y-102648684D01*
X49858669Y-102665153D01*
X49795993Y-102676869D01*
X49738464Y-102692284D01*
X49691594Y-102696384D01*
X49640814Y-102705877D01*
X49583093Y-102705877D01*
X49530000Y-102710522D01*
X49476906Y-102705877D01*
X49419186Y-102705877D01*
X49368405Y-102696384D01*
X49321535Y-102692284D01*
X49264003Y-102676868D01*
X49201331Y-102665153D01*
X49158824Y-102648685D01*
X49119396Y-102638121D01*
X49059700Y-102610284D01*
X48994668Y-102585091D01*
X48961103Y-102564308D01*
X48929738Y-102549683D01*
X48870570Y-102508253D01*
X48806236Y-102468419D01*
X48781574Y-102445937D01*
X48758320Y-102429654D01*
X48702691Y-102374025D01*
X48642450Y-102319108D01*
X48626028Y-102297362D01*
X48610345Y-102281679D01*
X48561418Y-102211804D01*
X48508889Y-102142245D01*
X48499478Y-102123346D01*
X48490316Y-102110261D01*
X48451301Y-102026592D01*
X48410101Y-101943851D01*
X48406003Y-101929450D01*
X48401878Y-101920603D01*
X48375881Y-101823584D01*
X48349449Y-101730683D01*
X48348634Y-101721896D01*
X48347715Y-101718464D01*
X48337541Y-101602177D01*
X48329000Y-101510000D01*
X48337540Y-101417829D01*
X48347715Y-101301535D01*
X48348635Y-101298101D01*
X48349449Y-101289317D01*
X48375882Y-101196414D01*
X48401878Y-101099398D01*
X48406003Y-101090551D01*
X48410101Y-101076149D01*
X48451310Y-100993389D01*
X48490319Y-100909734D01*
X48499480Y-100896650D01*
X48508889Y-100877755D01*
X48561404Y-100808212D01*
X48610343Y-100738322D01*
X48626031Y-100722633D01*
X48642450Y-100700892D01*
X48702680Y-100645984D01*
X48758322Y-100590343D01*
X48781581Y-100574056D01*
X48806236Y-100551581D01*
X48870557Y-100511755D01*
X48929734Y-100470319D01*
X48961103Y-100455691D01*
X48994668Y-100434909D01*
X49059700Y-100409715D01*
X49119398Y-100381878D01*
X49158829Y-100371312D01*
X49201331Y-100354847D01*
X49263993Y-100343133D01*
X49321535Y-100327715D01*
X49368416Y-100323613D01*
X49419186Y-100314123D01*
X49476895Y-100314123D01*
X49530000Y-100309477D01*
X49583105Y-100314123D01*
G37*
M02*
