%TF.GenerationSoftware,KiCad,Pcbnew,7.0.6*%
%TF.CreationDate,2023-08-02T15:47:34+02:00*%
%TF.ProjectId,MCU_Board,4d43555f-426f-4617-9264-2e6b69636164,rev?*%
%TF.SameCoordinates,Original*%
%TF.FileFunction,Drillmap*%
%TF.FilePolarity,Positive*%
%FSLAX45Y45*%
G04 Gerber Fmt 4.5, Leading zero omitted, Abs format (unit mm)*
G04 Created by KiCad (PCBNEW 7.0.6) date 2023-08-02 15:47:34*
%MOMM*%
%LPD*%
G01*
G04 APERTURE LIST*
%ADD10C,0.150000*%
%ADD11C,0.200000*%
%ADD12C,0.040000*%
%ADD13C,0.080000*%
%ADD14C,0.090000*%
%ADD15C,0.100000*%
%ADD16C,0.140000*%
G04 APERTURE END LIST*
D10*
X6625000Y-9900000D02*
X6625000Y-15400000D01*
X9625000Y-15400000D02*
X9625000Y-9900000D01*
X6625000Y-9900000D02*
X9625000Y-9900000D01*
X6625000Y-15400000D02*
X9625000Y-15400000D01*
D11*
D12*
X7810000Y-14190000D02*
X7850000Y-14230000D01*
X7850000Y-14190000D02*
X7810000Y-14230000D01*
X7893742Y-12911265D02*
X7933742Y-12951265D01*
X7933742Y-12911265D02*
X7893742Y-12951265D01*
X7988569Y-12942854D02*
X8028569Y-12982854D01*
X8028569Y-12942854D02*
X7988569Y-12982854D01*
X8100000Y-12960000D02*
X8140000Y-13000000D01*
X8140000Y-12960000D02*
X8100000Y-13000000D01*
D13*
X7986000Y-14575600D02*
G75*
G03*
X7986000Y-14575600I-40000J0D01*
G01*
X8476000Y-14575600D02*
G75*
G03*
X8476000Y-14575600I-40000J0D01*
G01*
D14*
X7434740Y-12694340D02*
X7434740Y-12784340D01*
X7389740Y-12739340D02*
X7479740Y-12739340D01*
X7688740Y-12694340D02*
X7688740Y-12784340D01*
X7643740Y-12739340D02*
X7733740Y-12739340D01*
X7942740Y-12694340D02*
X7942740Y-12784340D01*
X7897740Y-12739340D02*
X7987740Y-12739340D01*
X8196740Y-12694340D02*
X8196740Y-12784340D01*
X8151740Y-12739340D02*
X8241740Y-12739340D01*
D15*
X6893356Y-12735356D02*
X6893356Y-12664644D01*
X6822644Y-12664644D01*
X6822644Y-12735356D01*
X6893356Y-12735356D01*
X6893356Y-12989356D02*
X6893356Y-12918644D01*
X6822644Y-12918644D01*
X6822644Y-12989356D01*
X6893356Y-12989356D01*
X6893356Y-13243356D02*
X6893356Y-13172644D01*
X6822644Y-13172644D01*
X6822644Y-13243356D01*
X6893356Y-13243356D01*
X6893356Y-13497356D02*
X6893356Y-13426644D01*
X6822644Y-13426644D01*
X6822644Y-13497356D01*
X6893356Y-13497356D01*
X6893356Y-13751356D02*
X6893356Y-13680644D01*
X6822644Y-13680644D01*
X6822644Y-13751356D01*
X6893356Y-13751356D01*
X6893356Y-14005356D02*
X6893356Y-13934644D01*
X6822644Y-13934644D01*
X6822644Y-14005356D01*
X6893356Y-14005356D01*
X6893356Y-14259356D02*
X6893356Y-14188644D01*
X6822644Y-14188644D01*
X6822644Y-14259356D01*
X6893356Y-14259356D01*
X6893356Y-14513356D02*
X6893356Y-14442644D01*
X6822644Y-14442644D01*
X6822644Y-14513356D01*
X6893356Y-14513356D01*
X8731356Y-12477356D02*
X8731356Y-12406644D01*
X8660644Y-12406644D01*
X8660644Y-12477356D01*
X8731356Y-12477356D01*
X8731356Y-12731356D02*
X8731356Y-12660644D01*
X8660644Y-12660644D01*
X8660644Y-12731356D01*
X8731356Y-12731356D01*
X8731356Y-12985356D02*
X8731356Y-12914644D01*
X8660644Y-12914644D01*
X8660644Y-12985356D01*
X8731356Y-12985356D01*
X8731356Y-13239356D02*
X8731356Y-13168644D01*
X8660644Y-13168644D01*
X8660644Y-13239356D01*
X8731356Y-13239356D01*
X8731356Y-13493356D02*
X8731356Y-13422644D01*
X8660644Y-13422644D01*
X8660644Y-13493356D01*
X8731356Y-13493356D01*
X8731356Y-13747356D02*
X8731356Y-13676644D01*
X8660644Y-13676644D01*
X8660644Y-13747356D01*
X8731356Y-13747356D01*
X8731356Y-14001356D02*
X8731356Y-13930644D01*
X8660644Y-13930644D01*
X8660644Y-14001356D01*
X8731356Y-14001356D01*
X8985356Y-12477356D02*
X8985356Y-12406644D01*
X8914644Y-12406644D01*
X8914644Y-12477356D01*
X8985356Y-12477356D01*
X8985356Y-12731356D02*
X8985356Y-12660644D01*
X8914644Y-12660644D01*
X8914644Y-12731356D01*
X8985356Y-12731356D01*
X8985356Y-12985356D02*
X8985356Y-12914644D01*
X8914644Y-12914644D01*
X8914644Y-12985356D01*
X8985356Y-12985356D01*
X8985356Y-13239356D02*
X8985356Y-13168644D01*
X8914644Y-13168644D01*
X8914644Y-13239356D01*
X8985356Y-13239356D01*
X8985356Y-13493356D02*
X8985356Y-13422644D01*
X8914644Y-13422644D01*
X8914644Y-13493356D01*
X8985356Y-13493356D01*
X8985356Y-13747356D02*
X8985356Y-13676644D01*
X8914644Y-13676644D01*
X8914644Y-13747356D01*
X8985356Y-13747356D01*
X8985356Y-14001356D02*
X8985356Y-13930644D01*
X8914644Y-13930644D01*
X8914644Y-14001356D01*
X8985356Y-14001356D01*
X9155356Y-11405356D02*
X9155356Y-11334644D01*
X9084644Y-11334644D01*
X9084644Y-11405356D01*
X9155356Y-11405356D01*
X9409356Y-11405356D02*
X9409356Y-11334644D01*
X9338644Y-11334644D01*
X9338644Y-11405356D01*
X9409356Y-11405356D01*
X9433356Y-12731356D02*
X9433356Y-12660644D01*
X9362644Y-12660644D01*
X9362644Y-12731356D01*
X9433356Y-12731356D01*
X9433356Y-12985356D02*
X9433356Y-12914644D01*
X9362644Y-12914644D01*
X9362644Y-12985356D01*
X9433356Y-12985356D01*
X9433356Y-13239356D02*
X9433356Y-13168644D01*
X9362644Y-13168644D01*
X9362644Y-13239356D01*
X9433356Y-13239356D01*
X9433356Y-13493356D02*
X9433356Y-13422644D01*
X9362644Y-13422644D01*
X9362644Y-13493356D01*
X9433356Y-13493356D01*
X9433356Y-13747356D02*
X9433356Y-13676644D01*
X9362644Y-13676644D01*
X9362644Y-13747356D01*
X9433356Y-13747356D01*
X9433356Y-14001356D02*
X9433356Y-13930644D01*
X9362644Y-13930644D01*
X9362644Y-14001356D01*
X9433356Y-14001356D01*
X9433356Y-14255356D02*
X9433356Y-14184644D01*
X9362644Y-14184644D01*
X9362644Y-14255356D01*
X9433356Y-14255356D01*
X9433356Y-14509356D02*
X9433356Y-14438644D01*
X9362644Y-14438644D01*
X9362644Y-14509356D01*
X9433356Y-14509356D01*
D16*
X7367000Y-10480000D02*
X7437000Y-10410000D01*
X7367000Y-10340000D01*
X7297000Y-10410000D01*
X7367000Y-10480000D01*
X7875000Y-10480000D02*
X7945000Y-10410000D01*
X7875000Y-10340000D01*
X7805000Y-10410000D01*
X7875000Y-10480000D01*
X8383000Y-10480000D02*
X8453000Y-10410000D01*
X8383000Y-10340000D01*
X8313000Y-10410000D01*
X8383000Y-10480000D01*
X8891000Y-10480000D02*
X8961000Y-10410000D01*
X8891000Y-10340000D01*
X8821000Y-10410000D01*
X8891000Y-10480000D01*
D11*
X6878277Y-15718984D02*
X6878277Y-15518984D01*
X6878277Y-15518984D02*
X6925896Y-15518984D01*
X6925896Y-15518984D02*
X6954467Y-15528508D01*
X6954467Y-15528508D02*
X6973515Y-15547555D01*
X6973515Y-15547555D02*
X6983039Y-15566603D01*
X6983039Y-15566603D02*
X6992562Y-15604698D01*
X6992562Y-15604698D02*
X6992562Y-15633269D01*
X6992562Y-15633269D02*
X6983039Y-15671365D01*
X6983039Y-15671365D02*
X6973515Y-15690412D01*
X6973515Y-15690412D02*
X6954467Y-15709460D01*
X6954467Y-15709460D02*
X6925896Y-15718984D01*
X6925896Y-15718984D02*
X6878277Y-15718984D01*
X7078277Y-15718984D02*
X7078277Y-15585650D01*
X7078277Y-15623746D02*
X7087801Y-15604698D01*
X7087801Y-15604698D02*
X7097324Y-15595174D01*
X7097324Y-15595174D02*
X7116372Y-15585650D01*
X7116372Y-15585650D02*
X7135420Y-15585650D01*
X7202086Y-15718984D02*
X7202086Y-15585650D01*
X7202086Y-15518984D02*
X7192562Y-15528508D01*
X7192562Y-15528508D02*
X7202086Y-15538031D01*
X7202086Y-15538031D02*
X7211610Y-15528508D01*
X7211610Y-15528508D02*
X7202086Y-15518984D01*
X7202086Y-15518984D02*
X7202086Y-15538031D01*
X7325896Y-15718984D02*
X7306848Y-15709460D01*
X7306848Y-15709460D02*
X7297324Y-15690412D01*
X7297324Y-15690412D02*
X7297324Y-15518984D01*
X7430658Y-15718984D02*
X7411610Y-15709460D01*
X7411610Y-15709460D02*
X7402086Y-15690412D01*
X7402086Y-15690412D02*
X7402086Y-15518984D01*
X7659229Y-15718984D02*
X7659229Y-15518984D01*
X7659229Y-15518984D02*
X7725896Y-15661841D01*
X7725896Y-15661841D02*
X7792562Y-15518984D01*
X7792562Y-15518984D02*
X7792562Y-15718984D01*
X7973515Y-15718984D02*
X7973515Y-15614222D01*
X7973515Y-15614222D02*
X7963991Y-15595174D01*
X7963991Y-15595174D02*
X7944943Y-15585650D01*
X7944943Y-15585650D02*
X7906848Y-15585650D01*
X7906848Y-15585650D02*
X7887801Y-15595174D01*
X7973515Y-15709460D02*
X7954467Y-15718984D01*
X7954467Y-15718984D02*
X7906848Y-15718984D01*
X7906848Y-15718984D02*
X7887801Y-15709460D01*
X7887801Y-15709460D02*
X7878277Y-15690412D01*
X7878277Y-15690412D02*
X7878277Y-15671365D01*
X7878277Y-15671365D02*
X7887801Y-15652317D01*
X7887801Y-15652317D02*
X7906848Y-15642793D01*
X7906848Y-15642793D02*
X7954467Y-15642793D01*
X7954467Y-15642793D02*
X7973515Y-15633269D01*
X8068753Y-15585650D02*
X8068753Y-15785650D01*
X8068753Y-15595174D02*
X8087801Y-15585650D01*
X8087801Y-15585650D02*
X8125896Y-15585650D01*
X8125896Y-15585650D02*
X8144943Y-15595174D01*
X8144943Y-15595174D02*
X8154467Y-15604698D01*
X8154467Y-15604698D02*
X8163991Y-15623746D01*
X8163991Y-15623746D02*
X8163991Y-15680888D01*
X8163991Y-15680888D02*
X8154467Y-15699936D01*
X8154467Y-15699936D02*
X8144943Y-15709460D01*
X8144943Y-15709460D02*
X8125896Y-15718984D01*
X8125896Y-15718984D02*
X8087801Y-15718984D01*
X8087801Y-15718984D02*
X8068753Y-15709460D01*
X8249705Y-15699936D02*
X8259229Y-15709460D01*
X8259229Y-15709460D02*
X8249705Y-15718984D01*
X8249705Y-15718984D02*
X8240182Y-15709460D01*
X8240182Y-15709460D02*
X8249705Y-15699936D01*
X8249705Y-15699936D02*
X8249705Y-15718984D01*
X8249705Y-15595174D02*
X8259229Y-15604698D01*
X8259229Y-15604698D02*
X8249705Y-15614222D01*
X8249705Y-15614222D02*
X8240182Y-15604698D01*
X8240182Y-15604698D02*
X8249705Y-15595174D01*
X8249705Y-15595174D02*
X8249705Y-15614222D01*
D12*
X6577500Y-16027500D02*
X6617500Y-16067500D01*
X6617500Y-16027500D02*
X6577500Y-16067500D01*
D11*
X6916372Y-15938984D02*
X6935420Y-15938984D01*
X6935420Y-15938984D02*
X6954467Y-15948508D01*
X6954467Y-15948508D02*
X6963991Y-15958031D01*
X6963991Y-15958031D02*
X6973515Y-15977079D01*
X6973515Y-15977079D02*
X6983039Y-16015174D01*
X6983039Y-16015174D02*
X6983039Y-16062793D01*
X6983039Y-16062793D02*
X6973515Y-16100888D01*
X6973515Y-16100888D02*
X6963991Y-16119936D01*
X6963991Y-16119936D02*
X6954467Y-16129460D01*
X6954467Y-16129460D02*
X6935420Y-16138984D01*
X6935420Y-16138984D02*
X6916372Y-16138984D01*
X6916372Y-16138984D02*
X6897324Y-16129460D01*
X6897324Y-16129460D02*
X6887801Y-16119936D01*
X6887801Y-16119936D02*
X6878277Y-16100888D01*
X6878277Y-16100888D02*
X6868753Y-16062793D01*
X6868753Y-16062793D02*
X6868753Y-16015174D01*
X6868753Y-16015174D02*
X6878277Y-15977079D01*
X6878277Y-15977079D02*
X6887801Y-15958031D01*
X6887801Y-15958031D02*
X6897324Y-15948508D01*
X6897324Y-15948508D02*
X6916372Y-15938984D01*
X7068753Y-16119936D02*
X7078277Y-16129460D01*
X7078277Y-16129460D02*
X7068753Y-16138984D01*
X7068753Y-16138984D02*
X7059229Y-16129460D01*
X7059229Y-16129460D02*
X7068753Y-16119936D01*
X7068753Y-16119936D02*
X7068753Y-16138984D01*
X7249705Y-16005650D02*
X7249705Y-16138984D01*
X7202086Y-15929460D02*
X7154467Y-16072317D01*
X7154467Y-16072317D02*
X7278277Y-16072317D01*
X7392562Y-15938984D02*
X7411610Y-15938984D01*
X7411610Y-15938984D02*
X7430658Y-15948508D01*
X7430658Y-15948508D02*
X7440182Y-15958031D01*
X7440182Y-15958031D02*
X7449705Y-15977079D01*
X7449705Y-15977079D02*
X7459229Y-16015174D01*
X7459229Y-16015174D02*
X7459229Y-16062793D01*
X7459229Y-16062793D02*
X7449705Y-16100888D01*
X7449705Y-16100888D02*
X7440182Y-16119936D01*
X7440182Y-16119936D02*
X7430658Y-16129460D01*
X7430658Y-16129460D02*
X7411610Y-16138984D01*
X7411610Y-16138984D02*
X7392562Y-16138984D01*
X7392562Y-16138984D02*
X7373515Y-16129460D01*
X7373515Y-16129460D02*
X7363991Y-16119936D01*
X7363991Y-16119936D02*
X7354467Y-16100888D01*
X7354467Y-16100888D02*
X7344943Y-16062793D01*
X7344943Y-16062793D02*
X7344943Y-16015174D01*
X7344943Y-16015174D02*
X7354467Y-15977079D01*
X7354467Y-15977079D02*
X7363991Y-15958031D01*
X7363991Y-15958031D02*
X7373515Y-15948508D01*
X7373515Y-15948508D02*
X7392562Y-15938984D01*
X7583039Y-15938984D02*
X7602086Y-15938984D01*
X7602086Y-15938984D02*
X7621134Y-15948508D01*
X7621134Y-15948508D02*
X7630658Y-15958031D01*
X7630658Y-15958031D02*
X7640182Y-15977079D01*
X7640182Y-15977079D02*
X7649705Y-16015174D01*
X7649705Y-16015174D02*
X7649705Y-16062793D01*
X7649705Y-16062793D02*
X7640182Y-16100888D01*
X7640182Y-16100888D02*
X7630658Y-16119936D01*
X7630658Y-16119936D02*
X7621134Y-16129460D01*
X7621134Y-16129460D02*
X7602086Y-16138984D01*
X7602086Y-16138984D02*
X7583039Y-16138984D01*
X7583039Y-16138984D02*
X7563991Y-16129460D01*
X7563991Y-16129460D02*
X7554467Y-16119936D01*
X7554467Y-16119936D02*
X7544943Y-16100888D01*
X7544943Y-16100888D02*
X7535420Y-16062793D01*
X7535420Y-16062793D02*
X7535420Y-16015174D01*
X7535420Y-16015174D02*
X7544943Y-15977079D01*
X7544943Y-15977079D02*
X7554467Y-15958031D01*
X7554467Y-15958031D02*
X7563991Y-15948508D01*
X7563991Y-15948508D02*
X7583039Y-15938984D01*
X7735420Y-16138984D02*
X7735420Y-16005650D01*
X7735420Y-16024698D02*
X7744943Y-16015174D01*
X7744943Y-16015174D02*
X7763991Y-16005650D01*
X7763991Y-16005650D02*
X7792563Y-16005650D01*
X7792563Y-16005650D02*
X7811610Y-16015174D01*
X7811610Y-16015174D02*
X7821134Y-16034222D01*
X7821134Y-16034222D02*
X7821134Y-16138984D01*
X7821134Y-16034222D02*
X7830658Y-16015174D01*
X7830658Y-16015174D02*
X7849705Y-16005650D01*
X7849705Y-16005650D02*
X7878277Y-16005650D01*
X7878277Y-16005650D02*
X7897324Y-16015174D01*
X7897324Y-16015174D02*
X7906848Y-16034222D01*
X7906848Y-16034222D02*
X7906848Y-16138984D01*
X8002086Y-16138984D02*
X8002086Y-16005650D01*
X8002086Y-16024698D02*
X8011610Y-16015174D01*
X8011610Y-16015174D02*
X8030658Y-16005650D01*
X8030658Y-16005650D02*
X8059229Y-16005650D01*
X8059229Y-16005650D02*
X8078277Y-16015174D01*
X8078277Y-16015174D02*
X8087801Y-16034222D01*
X8087801Y-16034222D02*
X8087801Y-16138984D01*
X8087801Y-16034222D02*
X8097324Y-16015174D01*
X8097324Y-16015174D02*
X8116372Y-16005650D01*
X8116372Y-16005650D02*
X8144943Y-16005650D01*
X8144943Y-16005650D02*
X8163991Y-16015174D01*
X8163991Y-16015174D02*
X8173515Y-16034222D01*
X8173515Y-16034222D02*
X8173515Y-16138984D01*
X8563991Y-15929460D02*
X8392563Y-16186603D01*
X8821134Y-15938984D02*
X8840182Y-15938984D01*
X8840182Y-15938984D02*
X8859229Y-15948508D01*
X8859229Y-15948508D02*
X8868753Y-15958031D01*
X8868753Y-15958031D02*
X8878277Y-15977079D01*
X8878277Y-15977079D02*
X8887801Y-16015174D01*
X8887801Y-16015174D02*
X8887801Y-16062793D01*
X8887801Y-16062793D02*
X8878277Y-16100888D01*
X8878277Y-16100888D02*
X8868753Y-16119936D01*
X8868753Y-16119936D02*
X8859229Y-16129460D01*
X8859229Y-16129460D02*
X8840182Y-16138984D01*
X8840182Y-16138984D02*
X8821134Y-16138984D01*
X8821134Y-16138984D02*
X8802087Y-16129460D01*
X8802087Y-16129460D02*
X8792563Y-16119936D01*
X8792563Y-16119936D02*
X8783039Y-16100888D01*
X8783039Y-16100888D02*
X8773515Y-16062793D01*
X8773515Y-16062793D02*
X8773515Y-16015174D01*
X8773515Y-16015174D02*
X8783039Y-15977079D01*
X8783039Y-15977079D02*
X8792563Y-15958031D01*
X8792563Y-15958031D02*
X8802087Y-15948508D01*
X8802087Y-15948508D02*
X8821134Y-15938984D01*
X8973515Y-16119936D02*
X8983039Y-16129460D01*
X8983039Y-16129460D02*
X8973515Y-16138984D01*
X8973515Y-16138984D02*
X8963991Y-16129460D01*
X8963991Y-16129460D02*
X8973515Y-16119936D01*
X8973515Y-16119936D02*
X8973515Y-16138984D01*
X9106848Y-15938984D02*
X9125896Y-15938984D01*
X9125896Y-15938984D02*
X9144944Y-15948508D01*
X9144944Y-15948508D02*
X9154468Y-15958031D01*
X9154468Y-15958031D02*
X9163991Y-15977079D01*
X9163991Y-15977079D02*
X9173515Y-16015174D01*
X9173515Y-16015174D02*
X9173515Y-16062793D01*
X9173515Y-16062793D02*
X9163991Y-16100888D01*
X9163991Y-16100888D02*
X9154468Y-16119936D01*
X9154468Y-16119936D02*
X9144944Y-16129460D01*
X9144944Y-16129460D02*
X9125896Y-16138984D01*
X9125896Y-16138984D02*
X9106848Y-16138984D01*
X9106848Y-16138984D02*
X9087801Y-16129460D01*
X9087801Y-16129460D02*
X9078277Y-16119936D01*
X9078277Y-16119936D02*
X9068753Y-16100888D01*
X9068753Y-16100888D02*
X9059229Y-16062793D01*
X9059229Y-16062793D02*
X9059229Y-16015174D01*
X9059229Y-16015174D02*
X9068753Y-15977079D01*
X9068753Y-15977079D02*
X9078277Y-15958031D01*
X9078277Y-15958031D02*
X9087801Y-15948508D01*
X9087801Y-15948508D02*
X9106848Y-15938984D01*
X9363991Y-16138984D02*
X9249706Y-16138984D01*
X9306848Y-16138984D02*
X9306848Y-15938984D01*
X9306848Y-15938984D02*
X9287801Y-15967555D01*
X9287801Y-15967555D02*
X9268753Y-15986603D01*
X9268753Y-15986603D02*
X9249706Y-15996127D01*
X9544944Y-15938984D02*
X9449706Y-15938984D01*
X9449706Y-15938984D02*
X9440182Y-16034222D01*
X9440182Y-16034222D02*
X9449706Y-16024698D01*
X9449706Y-16024698D02*
X9468753Y-16015174D01*
X9468753Y-16015174D02*
X9516372Y-16015174D01*
X9516372Y-16015174D02*
X9535420Y-16024698D01*
X9535420Y-16024698D02*
X9544944Y-16034222D01*
X9544944Y-16034222D02*
X9554468Y-16053269D01*
X9554468Y-16053269D02*
X9554468Y-16100888D01*
X9554468Y-16100888D02*
X9544944Y-16119936D01*
X9544944Y-16119936D02*
X9535420Y-16129460D01*
X9535420Y-16129460D02*
X9516372Y-16138984D01*
X9516372Y-16138984D02*
X9468753Y-16138984D01*
X9468753Y-16138984D02*
X9449706Y-16129460D01*
X9449706Y-16129460D02*
X9440182Y-16119936D01*
X9621134Y-15938984D02*
X9754468Y-15938984D01*
X9754468Y-15938984D02*
X9668753Y-16138984D01*
X9821134Y-15938984D02*
X9821134Y-15977079D01*
X9897325Y-15938984D02*
X9897325Y-15977079D01*
X10192563Y-16215174D02*
X10183039Y-16205650D01*
X10183039Y-16205650D02*
X10163991Y-16177079D01*
X10163991Y-16177079D02*
X10154468Y-16158031D01*
X10154468Y-16158031D02*
X10144944Y-16129460D01*
X10144944Y-16129460D02*
X10135420Y-16081841D01*
X10135420Y-16081841D02*
X10135420Y-16043746D01*
X10135420Y-16043746D02*
X10144944Y-15996127D01*
X10144944Y-15996127D02*
X10154468Y-15967555D01*
X10154468Y-15967555D02*
X10163991Y-15948508D01*
X10163991Y-15948508D02*
X10183039Y-15919936D01*
X10183039Y-15919936D02*
X10192563Y-15910412D01*
X10354468Y-16005650D02*
X10354468Y-16138984D01*
X10306849Y-15929460D02*
X10259230Y-16072317D01*
X10259230Y-16072317D02*
X10383039Y-16072317D01*
X10611611Y-16138984D02*
X10611611Y-15938984D01*
X10697325Y-16138984D02*
X10697325Y-16034222D01*
X10697325Y-16034222D02*
X10687801Y-16015174D01*
X10687801Y-16015174D02*
X10668753Y-16005650D01*
X10668753Y-16005650D02*
X10640182Y-16005650D01*
X10640182Y-16005650D02*
X10621134Y-16015174D01*
X10621134Y-16015174D02*
X10611611Y-16024698D01*
X10821134Y-16138984D02*
X10802087Y-16129460D01*
X10802087Y-16129460D02*
X10792563Y-16119936D01*
X10792563Y-16119936D02*
X10783039Y-16100888D01*
X10783039Y-16100888D02*
X10783039Y-16043746D01*
X10783039Y-16043746D02*
X10792563Y-16024698D01*
X10792563Y-16024698D02*
X10802087Y-16015174D01*
X10802087Y-16015174D02*
X10821134Y-16005650D01*
X10821134Y-16005650D02*
X10849706Y-16005650D01*
X10849706Y-16005650D02*
X10868753Y-16015174D01*
X10868753Y-16015174D02*
X10878277Y-16024698D01*
X10878277Y-16024698D02*
X10887801Y-16043746D01*
X10887801Y-16043746D02*
X10887801Y-16100888D01*
X10887801Y-16100888D02*
X10878277Y-16119936D01*
X10878277Y-16119936D02*
X10868753Y-16129460D01*
X10868753Y-16129460D02*
X10849706Y-16138984D01*
X10849706Y-16138984D02*
X10821134Y-16138984D01*
X11002087Y-16138984D02*
X10983039Y-16129460D01*
X10983039Y-16129460D02*
X10973515Y-16110412D01*
X10973515Y-16110412D02*
X10973515Y-15938984D01*
X11154468Y-16129460D02*
X11135420Y-16138984D01*
X11135420Y-16138984D02*
X11097325Y-16138984D01*
X11097325Y-16138984D02*
X11078277Y-16129460D01*
X11078277Y-16129460D02*
X11068753Y-16110412D01*
X11068753Y-16110412D02*
X11068753Y-16034222D01*
X11068753Y-16034222D02*
X11078277Y-16015174D01*
X11078277Y-16015174D02*
X11097325Y-16005650D01*
X11097325Y-16005650D02*
X11135420Y-16005650D01*
X11135420Y-16005650D02*
X11154468Y-16015174D01*
X11154468Y-16015174D02*
X11163992Y-16034222D01*
X11163992Y-16034222D02*
X11163992Y-16053269D01*
X11163992Y-16053269D02*
X11068753Y-16072317D01*
X11240182Y-16129460D02*
X11259230Y-16138984D01*
X11259230Y-16138984D02*
X11297325Y-16138984D01*
X11297325Y-16138984D02*
X11316372Y-16129460D01*
X11316372Y-16129460D02*
X11325896Y-16110412D01*
X11325896Y-16110412D02*
X11325896Y-16100888D01*
X11325896Y-16100888D02*
X11316372Y-16081841D01*
X11316372Y-16081841D02*
X11297325Y-16072317D01*
X11297325Y-16072317D02*
X11268753Y-16072317D01*
X11268753Y-16072317D02*
X11249706Y-16062793D01*
X11249706Y-16062793D02*
X11240182Y-16043746D01*
X11240182Y-16043746D02*
X11240182Y-16034222D01*
X11240182Y-16034222D02*
X11249706Y-16015174D01*
X11249706Y-16015174D02*
X11268753Y-16005650D01*
X11268753Y-16005650D02*
X11297325Y-16005650D01*
X11297325Y-16005650D02*
X11316372Y-16015174D01*
X11392563Y-16215174D02*
X11402087Y-16205650D01*
X11402087Y-16205650D02*
X11421134Y-16177079D01*
X11421134Y-16177079D02*
X11430658Y-16158031D01*
X11430658Y-16158031D02*
X11440182Y-16129460D01*
X11440182Y-16129460D02*
X11449706Y-16081841D01*
X11449706Y-16081841D02*
X11449706Y-16043746D01*
X11449706Y-16043746D02*
X11440182Y-15996127D01*
X11440182Y-15996127D02*
X11430658Y-15967555D01*
X11430658Y-15967555D02*
X11421134Y-15948508D01*
X11421134Y-15948508D02*
X11402087Y-15919936D01*
X11402087Y-15919936D02*
X11392563Y-15910412D01*
D13*
X6617500Y-16311500D02*
G75*
G03*
X6617500Y-16311500I-40000J0D01*
G01*
D11*
X6916372Y-16202984D02*
X6935420Y-16202984D01*
X6935420Y-16202984D02*
X6954467Y-16212508D01*
X6954467Y-16212508D02*
X6963991Y-16222031D01*
X6963991Y-16222031D02*
X6973515Y-16241079D01*
X6973515Y-16241079D02*
X6983039Y-16279174D01*
X6983039Y-16279174D02*
X6983039Y-16326793D01*
X6983039Y-16326793D02*
X6973515Y-16364888D01*
X6973515Y-16364888D02*
X6963991Y-16383936D01*
X6963991Y-16383936D02*
X6954467Y-16393460D01*
X6954467Y-16393460D02*
X6935420Y-16402984D01*
X6935420Y-16402984D02*
X6916372Y-16402984D01*
X6916372Y-16402984D02*
X6897324Y-16393460D01*
X6897324Y-16393460D02*
X6887801Y-16383936D01*
X6887801Y-16383936D02*
X6878277Y-16364888D01*
X6878277Y-16364888D02*
X6868753Y-16326793D01*
X6868753Y-16326793D02*
X6868753Y-16279174D01*
X6868753Y-16279174D02*
X6878277Y-16241079D01*
X6878277Y-16241079D02*
X6887801Y-16222031D01*
X6887801Y-16222031D02*
X6897324Y-16212508D01*
X6897324Y-16212508D02*
X6916372Y-16202984D01*
X7068753Y-16383936D02*
X7078277Y-16393460D01*
X7078277Y-16393460D02*
X7068753Y-16402984D01*
X7068753Y-16402984D02*
X7059229Y-16393460D01*
X7059229Y-16393460D02*
X7068753Y-16383936D01*
X7068753Y-16383936D02*
X7068753Y-16402984D01*
X7192562Y-16288698D02*
X7173515Y-16279174D01*
X7173515Y-16279174D02*
X7163991Y-16269650D01*
X7163991Y-16269650D02*
X7154467Y-16250603D01*
X7154467Y-16250603D02*
X7154467Y-16241079D01*
X7154467Y-16241079D02*
X7163991Y-16222031D01*
X7163991Y-16222031D02*
X7173515Y-16212508D01*
X7173515Y-16212508D02*
X7192562Y-16202984D01*
X7192562Y-16202984D02*
X7230658Y-16202984D01*
X7230658Y-16202984D02*
X7249705Y-16212508D01*
X7249705Y-16212508D02*
X7259229Y-16222031D01*
X7259229Y-16222031D02*
X7268753Y-16241079D01*
X7268753Y-16241079D02*
X7268753Y-16250603D01*
X7268753Y-16250603D02*
X7259229Y-16269650D01*
X7259229Y-16269650D02*
X7249705Y-16279174D01*
X7249705Y-16279174D02*
X7230658Y-16288698D01*
X7230658Y-16288698D02*
X7192562Y-16288698D01*
X7192562Y-16288698D02*
X7173515Y-16298222D01*
X7173515Y-16298222D02*
X7163991Y-16307746D01*
X7163991Y-16307746D02*
X7154467Y-16326793D01*
X7154467Y-16326793D02*
X7154467Y-16364888D01*
X7154467Y-16364888D02*
X7163991Y-16383936D01*
X7163991Y-16383936D02*
X7173515Y-16393460D01*
X7173515Y-16393460D02*
X7192562Y-16402984D01*
X7192562Y-16402984D02*
X7230658Y-16402984D01*
X7230658Y-16402984D02*
X7249705Y-16393460D01*
X7249705Y-16393460D02*
X7259229Y-16383936D01*
X7259229Y-16383936D02*
X7268753Y-16364888D01*
X7268753Y-16364888D02*
X7268753Y-16326793D01*
X7268753Y-16326793D02*
X7259229Y-16307746D01*
X7259229Y-16307746D02*
X7249705Y-16298222D01*
X7249705Y-16298222D02*
X7230658Y-16288698D01*
X7392562Y-16202984D02*
X7411610Y-16202984D01*
X7411610Y-16202984D02*
X7430658Y-16212508D01*
X7430658Y-16212508D02*
X7440182Y-16222031D01*
X7440182Y-16222031D02*
X7449705Y-16241079D01*
X7449705Y-16241079D02*
X7459229Y-16279174D01*
X7459229Y-16279174D02*
X7459229Y-16326793D01*
X7459229Y-16326793D02*
X7449705Y-16364888D01*
X7449705Y-16364888D02*
X7440182Y-16383936D01*
X7440182Y-16383936D02*
X7430658Y-16393460D01*
X7430658Y-16393460D02*
X7411610Y-16402984D01*
X7411610Y-16402984D02*
X7392562Y-16402984D01*
X7392562Y-16402984D02*
X7373515Y-16393460D01*
X7373515Y-16393460D02*
X7363991Y-16383936D01*
X7363991Y-16383936D02*
X7354467Y-16364888D01*
X7354467Y-16364888D02*
X7344943Y-16326793D01*
X7344943Y-16326793D02*
X7344943Y-16279174D01*
X7344943Y-16279174D02*
X7354467Y-16241079D01*
X7354467Y-16241079D02*
X7363991Y-16222031D01*
X7363991Y-16222031D02*
X7373515Y-16212508D01*
X7373515Y-16212508D02*
X7392562Y-16202984D01*
X7583039Y-16202984D02*
X7602086Y-16202984D01*
X7602086Y-16202984D02*
X7621134Y-16212508D01*
X7621134Y-16212508D02*
X7630658Y-16222031D01*
X7630658Y-16222031D02*
X7640182Y-16241079D01*
X7640182Y-16241079D02*
X7649705Y-16279174D01*
X7649705Y-16279174D02*
X7649705Y-16326793D01*
X7649705Y-16326793D02*
X7640182Y-16364888D01*
X7640182Y-16364888D02*
X7630658Y-16383936D01*
X7630658Y-16383936D02*
X7621134Y-16393460D01*
X7621134Y-16393460D02*
X7602086Y-16402984D01*
X7602086Y-16402984D02*
X7583039Y-16402984D01*
X7583039Y-16402984D02*
X7563991Y-16393460D01*
X7563991Y-16393460D02*
X7554467Y-16383936D01*
X7554467Y-16383936D02*
X7544943Y-16364888D01*
X7544943Y-16364888D02*
X7535420Y-16326793D01*
X7535420Y-16326793D02*
X7535420Y-16279174D01*
X7535420Y-16279174D02*
X7544943Y-16241079D01*
X7544943Y-16241079D02*
X7554467Y-16222031D01*
X7554467Y-16222031D02*
X7563991Y-16212508D01*
X7563991Y-16212508D02*
X7583039Y-16202984D01*
X7735420Y-16402984D02*
X7735420Y-16269650D01*
X7735420Y-16288698D02*
X7744943Y-16279174D01*
X7744943Y-16279174D02*
X7763991Y-16269650D01*
X7763991Y-16269650D02*
X7792563Y-16269650D01*
X7792563Y-16269650D02*
X7811610Y-16279174D01*
X7811610Y-16279174D02*
X7821134Y-16298222D01*
X7821134Y-16298222D02*
X7821134Y-16402984D01*
X7821134Y-16298222D02*
X7830658Y-16279174D01*
X7830658Y-16279174D02*
X7849705Y-16269650D01*
X7849705Y-16269650D02*
X7878277Y-16269650D01*
X7878277Y-16269650D02*
X7897324Y-16279174D01*
X7897324Y-16279174D02*
X7906848Y-16298222D01*
X7906848Y-16298222D02*
X7906848Y-16402984D01*
X8002086Y-16402984D02*
X8002086Y-16269650D01*
X8002086Y-16288698D02*
X8011610Y-16279174D01*
X8011610Y-16279174D02*
X8030658Y-16269650D01*
X8030658Y-16269650D02*
X8059229Y-16269650D01*
X8059229Y-16269650D02*
X8078277Y-16279174D01*
X8078277Y-16279174D02*
X8087801Y-16298222D01*
X8087801Y-16298222D02*
X8087801Y-16402984D01*
X8087801Y-16298222D02*
X8097324Y-16279174D01*
X8097324Y-16279174D02*
X8116372Y-16269650D01*
X8116372Y-16269650D02*
X8144943Y-16269650D01*
X8144943Y-16269650D02*
X8163991Y-16279174D01*
X8163991Y-16279174D02*
X8173515Y-16298222D01*
X8173515Y-16298222D02*
X8173515Y-16402984D01*
X8563991Y-16193460D02*
X8392563Y-16450603D01*
X8821134Y-16202984D02*
X8840182Y-16202984D01*
X8840182Y-16202984D02*
X8859229Y-16212508D01*
X8859229Y-16212508D02*
X8868753Y-16222031D01*
X8868753Y-16222031D02*
X8878277Y-16241079D01*
X8878277Y-16241079D02*
X8887801Y-16279174D01*
X8887801Y-16279174D02*
X8887801Y-16326793D01*
X8887801Y-16326793D02*
X8878277Y-16364888D01*
X8878277Y-16364888D02*
X8868753Y-16383936D01*
X8868753Y-16383936D02*
X8859229Y-16393460D01*
X8859229Y-16393460D02*
X8840182Y-16402984D01*
X8840182Y-16402984D02*
X8821134Y-16402984D01*
X8821134Y-16402984D02*
X8802087Y-16393460D01*
X8802087Y-16393460D02*
X8792563Y-16383936D01*
X8792563Y-16383936D02*
X8783039Y-16364888D01*
X8783039Y-16364888D02*
X8773515Y-16326793D01*
X8773515Y-16326793D02*
X8773515Y-16279174D01*
X8773515Y-16279174D02*
X8783039Y-16241079D01*
X8783039Y-16241079D02*
X8792563Y-16222031D01*
X8792563Y-16222031D02*
X8802087Y-16212508D01*
X8802087Y-16212508D02*
X8821134Y-16202984D01*
X8973515Y-16383936D02*
X8983039Y-16393460D01*
X8983039Y-16393460D02*
X8973515Y-16402984D01*
X8973515Y-16402984D02*
X8963991Y-16393460D01*
X8963991Y-16393460D02*
X8973515Y-16383936D01*
X8973515Y-16383936D02*
X8973515Y-16402984D01*
X9106848Y-16202984D02*
X9125896Y-16202984D01*
X9125896Y-16202984D02*
X9144944Y-16212508D01*
X9144944Y-16212508D02*
X9154468Y-16222031D01*
X9154468Y-16222031D02*
X9163991Y-16241079D01*
X9163991Y-16241079D02*
X9173515Y-16279174D01*
X9173515Y-16279174D02*
X9173515Y-16326793D01*
X9173515Y-16326793D02*
X9163991Y-16364888D01*
X9163991Y-16364888D02*
X9154468Y-16383936D01*
X9154468Y-16383936D02*
X9144944Y-16393460D01*
X9144944Y-16393460D02*
X9125896Y-16402984D01*
X9125896Y-16402984D02*
X9106848Y-16402984D01*
X9106848Y-16402984D02*
X9087801Y-16393460D01*
X9087801Y-16393460D02*
X9078277Y-16383936D01*
X9078277Y-16383936D02*
X9068753Y-16364888D01*
X9068753Y-16364888D02*
X9059229Y-16326793D01*
X9059229Y-16326793D02*
X9059229Y-16279174D01*
X9059229Y-16279174D02*
X9068753Y-16241079D01*
X9068753Y-16241079D02*
X9078277Y-16222031D01*
X9078277Y-16222031D02*
X9087801Y-16212508D01*
X9087801Y-16212508D02*
X9106848Y-16202984D01*
X9240182Y-16202984D02*
X9363991Y-16202984D01*
X9363991Y-16202984D02*
X9297325Y-16279174D01*
X9297325Y-16279174D02*
X9325896Y-16279174D01*
X9325896Y-16279174D02*
X9344944Y-16288698D01*
X9344944Y-16288698D02*
X9354468Y-16298222D01*
X9354468Y-16298222D02*
X9363991Y-16317269D01*
X9363991Y-16317269D02*
X9363991Y-16364888D01*
X9363991Y-16364888D02*
X9354468Y-16383936D01*
X9354468Y-16383936D02*
X9344944Y-16393460D01*
X9344944Y-16393460D02*
X9325896Y-16402984D01*
X9325896Y-16402984D02*
X9268753Y-16402984D01*
X9268753Y-16402984D02*
X9249706Y-16393460D01*
X9249706Y-16393460D02*
X9240182Y-16383936D01*
X9554468Y-16402984D02*
X9440182Y-16402984D01*
X9497325Y-16402984D02*
X9497325Y-16202984D01*
X9497325Y-16202984D02*
X9478277Y-16231555D01*
X9478277Y-16231555D02*
X9459229Y-16250603D01*
X9459229Y-16250603D02*
X9440182Y-16260127D01*
X9735420Y-16202984D02*
X9640182Y-16202984D01*
X9640182Y-16202984D02*
X9630658Y-16298222D01*
X9630658Y-16298222D02*
X9640182Y-16288698D01*
X9640182Y-16288698D02*
X9659229Y-16279174D01*
X9659229Y-16279174D02*
X9706849Y-16279174D01*
X9706849Y-16279174D02*
X9725896Y-16288698D01*
X9725896Y-16288698D02*
X9735420Y-16298222D01*
X9735420Y-16298222D02*
X9744944Y-16317269D01*
X9744944Y-16317269D02*
X9744944Y-16364888D01*
X9744944Y-16364888D02*
X9735420Y-16383936D01*
X9735420Y-16383936D02*
X9725896Y-16393460D01*
X9725896Y-16393460D02*
X9706849Y-16402984D01*
X9706849Y-16402984D02*
X9659229Y-16402984D01*
X9659229Y-16402984D02*
X9640182Y-16393460D01*
X9640182Y-16393460D02*
X9630658Y-16383936D01*
X9821134Y-16202984D02*
X9821134Y-16241079D01*
X9897325Y-16202984D02*
X9897325Y-16241079D01*
X10192563Y-16479174D02*
X10183039Y-16469650D01*
X10183039Y-16469650D02*
X10163991Y-16441079D01*
X10163991Y-16441079D02*
X10154468Y-16422031D01*
X10154468Y-16422031D02*
X10144944Y-16393460D01*
X10144944Y-16393460D02*
X10135420Y-16345841D01*
X10135420Y-16345841D02*
X10135420Y-16307746D01*
X10135420Y-16307746D02*
X10144944Y-16260127D01*
X10144944Y-16260127D02*
X10154468Y-16231555D01*
X10154468Y-16231555D02*
X10163991Y-16212508D01*
X10163991Y-16212508D02*
X10183039Y-16183936D01*
X10183039Y-16183936D02*
X10192563Y-16174412D01*
X10259230Y-16222031D02*
X10268753Y-16212508D01*
X10268753Y-16212508D02*
X10287801Y-16202984D01*
X10287801Y-16202984D02*
X10335420Y-16202984D01*
X10335420Y-16202984D02*
X10354468Y-16212508D01*
X10354468Y-16212508D02*
X10363991Y-16222031D01*
X10363991Y-16222031D02*
X10373515Y-16241079D01*
X10373515Y-16241079D02*
X10373515Y-16260127D01*
X10373515Y-16260127D02*
X10363991Y-16288698D01*
X10363991Y-16288698D02*
X10249706Y-16402984D01*
X10249706Y-16402984D02*
X10373515Y-16402984D01*
X10611611Y-16402984D02*
X10611611Y-16202984D01*
X10697325Y-16402984D02*
X10697325Y-16298222D01*
X10697325Y-16298222D02*
X10687801Y-16279174D01*
X10687801Y-16279174D02*
X10668753Y-16269650D01*
X10668753Y-16269650D02*
X10640182Y-16269650D01*
X10640182Y-16269650D02*
X10621134Y-16279174D01*
X10621134Y-16279174D02*
X10611611Y-16288698D01*
X10821134Y-16402984D02*
X10802087Y-16393460D01*
X10802087Y-16393460D02*
X10792563Y-16383936D01*
X10792563Y-16383936D02*
X10783039Y-16364888D01*
X10783039Y-16364888D02*
X10783039Y-16307746D01*
X10783039Y-16307746D02*
X10792563Y-16288698D01*
X10792563Y-16288698D02*
X10802087Y-16279174D01*
X10802087Y-16279174D02*
X10821134Y-16269650D01*
X10821134Y-16269650D02*
X10849706Y-16269650D01*
X10849706Y-16269650D02*
X10868753Y-16279174D01*
X10868753Y-16279174D02*
X10878277Y-16288698D01*
X10878277Y-16288698D02*
X10887801Y-16307746D01*
X10887801Y-16307746D02*
X10887801Y-16364888D01*
X10887801Y-16364888D02*
X10878277Y-16383936D01*
X10878277Y-16383936D02*
X10868753Y-16393460D01*
X10868753Y-16393460D02*
X10849706Y-16402984D01*
X10849706Y-16402984D02*
X10821134Y-16402984D01*
X11002087Y-16402984D02*
X10983039Y-16393460D01*
X10983039Y-16393460D02*
X10973515Y-16374412D01*
X10973515Y-16374412D02*
X10973515Y-16202984D01*
X11154468Y-16393460D02*
X11135420Y-16402984D01*
X11135420Y-16402984D02*
X11097325Y-16402984D01*
X11097325Y-16402984D02*
X11078277Y-16393460D01*
X11078277Y-16393460D02*
X11068753Y-16374412D01*
X11068753Y-16374412D02*
X11068753Y-16298222D01*
X11068753Y-16298222D02*
X11078277Y-16279174D01*
X11078277Y-16279174D02*
X11097325Y-16269650D01*
X11097325Y-16269650D02*
X11135420Y-16269650D01*
X11135420Y-16269650D02*
X11154468Y-16279174D01*
X11154468Y-16279174D02*
X11163992Y-16298222D01*
X11163992Y-16298222D02*
X11163992Y-16317269D01*
X11163992Y-16317269D02*
X11068753Y-16336317D01*
X11240182Y-16393460D02*
X11259230Y-16402984D01*
X11259230Y-16402984D02*
X11297325Y-16402984D01*
X11297325Y-16402984D02*
X11316372Y-16393460D01*
X11316372Y-16393460D02*
X11325896Y-16374412D01*
X11325896Y-16374412D02*
X11325896Y-16364888D01*
X11325896Y-16364888D02*
X11316372Y-16345841D01*
X11316372Y-16345841D02*
X11297325Y-16336317D01*
X11297325Y-16336317D02*
X11268753Y-16336317D01*
X11268753Y-16336317D02*
X11249706Y-16326793D01*
X11249706Y-16326793D02*
X11240182Y-16307746D01*
X11240182Y-16307746D02*
X11240182Y-16298222D01*
X11240182Y-16298222D02*
X11249706Y-16279174D01*
X11249706Y-16279174D02*
X11268753Y-16269650D01*
X11268753Y-16269650D02*
X11297325Y-16269650D01*
X11297325Y-16269650D02*
X11316372Y-16279174D01*
X11392563Y-16479174D02*
X11402087Y-16469650D01*
X11402087Y-16469650D02*
X11421134Y-16441079D01*
X11421134Y-16441079D02*
X11430658Y-16422031D01*
X11430658Y-16422031D02*
X11440182Y-16393460D01*
X11440182Y-16393460D02*
X11449706Y-16345841D01*
X11449706Y-16345841D02*
X11449706Y-16307746D01*
X11449706Y-16307746D02*
X11440182Y-16260127D01*
X11440182Y-16260127D02*
X11430658Y-16231555D01*
X11430658Y-16231555D02*
X11421134Y-16212508D01*
X11421134Y-16212508D02*
X11402087Y-16183936D01*
X11402087Y-16183936D02*
X11392563Y-16174412D01*
D14*
X6572500Y-16530500D02*
X6572500Y-16620500D01*
X6527500Y-16575500D02*
X6617500Y-16575500D01*
D11*
X6916372Y-16466984D02*
X6935420Y-16466984D01*
X6935420Y-16466984D02*
X6954467Y-16476508D01*
X6954467Y-16476508D02*
X6963991Y-16486031D01*
X6963991Y-16486031D02*
X6973515Y-16505079D01*
X6973515Y-16505079D02*
X6983039Y-16543174D01*
X6983039Y-16543174D02*
X6983039Y-16590793D01*
X6983039Y-16590793D02*
X6973515Y-16628888D01*
X6973515Y-16628888D02*
X6963991Y-16647936D01*
X6963991Y-16647936D02*
X6954467Y-16657460D01*
X6954467Y-16657460D02*
X6935420Y-16666984D01*
X6935420Y-16666984D02*
X6916372Y-16666984D01*
X6916372Y-16666984D02*
X6897324Y-16657460D01*
X6897324Y-16657460D02*
X6887801Y-16647936D01*
X6887801Y-16647936D02*
X6878277Y-16628888D01*
X6878277Y-16628888D02*
X6868753Y-16590793D01*
X6868753Y-16590793D02*
X6868753Y-16543174D01*
X6868753Y-16543174D02*
X6878277Y-16505079D01*
X6878277Y-16505079D02*
X6887801Y-16486031D01*
X6887801Y-16486031D02*
X6897324Y-16476508D01*
X6897324Y-16476508D02*
X6916372Y-16466984D01*
X7068753Y-16647936D02*
X7078277Y-16657460D01*
X7078277Y-16657460D02*
X7068753Y-16666984D01*
X7068753Y-16666984D02*
X7059229Y-16657460D01*
X7059229Y-16657460D02*
X7068753Y-16647936D01*
X7068753Y-16647936D02*
X7068753Y-16666984D01*
X7173515Y-16666984D02*
X7211610Y-16666984D01*
X7211610Y-16666984D02*
X7230658Y-16657460D01*
X7230658Y-16657460D02*
X7240182Y-16647936D01*
X7240182Y-16647936D02*
X7259229Y-16619365D01*
X7259229Y-16619365D02*
X7268753Y-16581269D01*
X7268753Y-16581269D02*
X7268753Y-16505079D01*
X7268753Y-16505079D02*
X7259229Y-16486031D01*
X7259229Y-16486031D02*
X7249705Y-16476508D01*
X7249705Y-16476508D02*
X7230658Y-16466984D01*
X7230658Y-16466984D02*
X7192562Y-16466984D01*
X7192562Y-16466984D02*
X7173515Y-16476508D01*
X7173515Y-16476508D02*
X7163991Y-16486031D01*
X7163991Y-16486031D02*
X7154467Y-16505079D01*
X7154467Y-16505079D02*
X7154467Y-16552698D01*
X7154467Y-16552698D02*
X7163991Y-16571746D01*
X7163991Y-16571746D02*
X7173515Y-16581269D01*
X7173515Y-16581269D02*
X7192562Y-16590793D01*
X7192562Y-16590793D02*
X7230658Y-16590793D01*
X7230658Y-16590793D02*
X7249705Y-16581269D01*
X7249705Y-16581269D02*
X7259229Y-16571746D01*
X7259229Y-16571746D02*
X7268753Y-16552698D01*
X7392562Y-16466984D02*
X7411610Y-16466984D01*
X7411610Y-16466984D02*
X7430658Y-16476508D01*
X7430658Y-16476508D02*
X7440182Y-16486031D01*
X7440182Y-16486031D02*
X7449705Y-16505079D01*
X7449705Y-16505079D02*
X7459229Y-16543174D01*
X7459229Y-16543174D02*
X7459229Y-16590793D01*
X7459229Y-16590793D02*
X7449705Y-16628888D01*
X7449705Y-16628888D02*
X7440182Y-16647936D01*
X7440182Y-16647936D02*
X7430658Y-16657460D01*
X7430658Y-16657460D02*
X7411610Y-16666984D01*
X7411610Y-16666984D02*
X7392562Y-16666984D01*
X7392562Y-16666984D02*
X7373515Y-16657460D01*
X7373515Y-16657460D02*
X7363991Y-16647936D01*
X7363991Y-16647936D02*
X7354467Y-16628888D01*
X7354467Y-16628888D02*
X7344943Y-16590793D01*
X7344943Y-16590793D02*
X7344943Y-16543174D01*
X7344943Y-16543174D02*
X7354467Y-16505079D01*
X7354467Y-16505079D02*
X7363991Y-16486031D01*
X7363991Y-16486031D02*
X7373515Y-16476508D01*
X7373515Y-16476508D02*
X7392562Y-16466984D01*
X7583039Y-16466984D02*
X7602086Y-16466984D01*
X7602086Y-16466984D02*
X7621134Y-16476508D01*
X7621134Y-16476508D02*
X7630658Y-16486031D01*
X7630658Y-16486031D02*
X7640182Y-16505079D01*
X7640182Y-16505079D02*
X7649705Y-16543174D01*
X7649705Y-16543174D02*
X7649705Y-16590793D01*
X7649705Y-16590793D02*
X7640182Y-16628888D01*
X7640182Y-16628888D02*
X7630658Y-16647936D01*
X7630658Y-16647936D02*
X7621134Y-16657460D01*
X7621134Y-16657460D02*
X7602086Y-16666984D01*
X7602086Y-16666984D02*
X7583039Y-16666984D01*
X7583039Y-16666984D02*
X7563991Y-16657460D01*
X7563991Y-16657460D02*
X7554467Y-16647936D01*
X7554467Y-16647936D02*
X7544943Y-16628888D01*
X7544943Y-16628888D02*
X7535420Y-16590793D01*
X7535420Y-16590793D02*
X7535420Y-16543174D01*
X7535420Y-16543174D02*
X7544943Y-16505079D01*
X7544943Y-16505079D02*
X7554467Y-16486031D01*
X7554467Y-16486031D02*
X7563991Y-16476508D01*
X7563991Y-16476508D02*
X7583039Y-16466984D01*
X7735420Y-16666984D02*
X7735420Y-16533650D01*
X7735420Y-16552698D02*
X7744943Y-16543174D01*
X7744943Y-16543174D02*
X7763991Y-16533650D01*
X7763991Y-16533650D02*
X7792563Y-16533650D01*
X7792563Y-16533650D02*
X7811610Y-16543174D01*
X7811610Y-16543174D02*
X7821134Y-16562222D01*
X7821134Y-16562222D02*
X7821134Y-16666984D01*
X7821134Y-16562222D02*
X7830658Y-16543174D01*
X7830658Y-16543174D02*
X7849705Y-16533650D01*
X7849705Y-16533650D02*
X7878277Y-16533650D01*
X7878277Y-16533650D02*
X7897324Y-16543174D01*
X7897324Y-16543174D02*
X7906848Y-16562222D01*
X7906848Y-16562222D02*
X7906848Y-16666984D01*
X8002086Y-16666984D02*
X8002086Y-16533650D01*
X8002086Y-16552698D02*
X8011610Y-16543174D01*
X8011610Y-16543174D02*
X8030658Y-16533650D01*
X8030658Y-16533650D02*
X8059229Y-16533650D01*
X8059229Y-16533650D02*
X8078277Y-16543174D01*
X8078277Y-16543174D02*
X8087801Y-16562222D01*
X8087801Y-16562222D02*
X8087801Y-16666984D01*
X8087801Y-16562222D02*
X8097324Y-16543174D01*
X8097324Y-16543174D02*
X8116372Y-16533650D01*
X8116372Y-16533650D02*
X8144943Y-16533650D01*
X8144943Y-16533650D02*
X8163991Y-16543174D01*
X8163991Y-16543174D02*
X8173515Y-16562222D01*
X8173515Y-16562222D02*
X8173515Y-16666984D01*
X8563991Y-16457460D02*
X8392563Y-16714603D01*
X8821134Y-16466984D02*
X8840182Y-16466984D01*
X8840182Y-16466984D02*
X8859229Y-16476508D01*
X8859229Y-16476508D02*
X8868753Y-16486031D01*
X8868753Y-16486031D02*
X8878277Y-16505079D01*
X8878277Y-16505079D02*
X8887801Y-16543174D01*
X8887801Y-16543174D02*
X8887801Y-16590793D01*
X8887801Y-16590793D02*
X8878277Y-16628888D01*
X8878277Y-16628888D02*
X8868753Y-16647936D01*
X8868753Y-16647936D02*
X8859229Y-16657460D01*
X8859229Y-16657460D02*
X8840182Y-16666984D01*
X8840182Y-16666984D02*
X8821134Y-16666984D01*
X8821134Y-16666984D02*
X8802087Y-16657460D01*
X8802087Y-16657460D02*
X8792563Y-16647936D01*
X8792563Y-16647936D02*
X8783039Y-16628888D01*
X8783039Y-16628888D02*
X8773515Y-16590793D01*
X8773515Y-16590793D02*
X8773515Y-16543174D01*
X8773515Y-16543174D02*
X8783039Y-16505079D01*
X8783039Y-16505079D02*
X8792563Y-16486031D01*
X8792563Y-16486031D02*
X8802087Y-16476508D01*
X8802087Y-16476508D02*
X8821134Y-16466984D01*
X8973515Y-16647936D02*
X8983039Y-16657460D01*
X8983039Y-16657460D02*
X8973515Y-16666984D01*
X8973515Y-16666984D02*
X8963991Y-16657460D01*
X8963991Y-16657460D02*
X8973515Y-16647936D01*
X8973515Y-16647936D02*
X8973515Y-16666984D01*
X9106848Y-16466984D02*
X9125896Y-16466984D01*
X9125896Y-16466984D02*
X9144944Y-16476508D01*
X9144944Y-16476508D02*
X9154468Y-16486031D01*
X9154468Y-16486031D02*
X9163991Y-16505079D01*
X9163991Y-16505079D02*
X9173515Y-16543174D01*
X9173515Y-16543174D02*
X9173515Y-16590793D01*
X9173515Y-16590793D02*
X9163991Y-16628888D01*
X9163991Y-16628888D02*
X9154468Y-16647936D01*
X9154468Y-16647936D02*
X9144944Y-16657460D01*
X9144944Y-16657460D02*
X9125896Y-16666984D01*
X9125896Y-16666984D02*
X9106848Y-16666984D01*
X9106848Y-16666984D02*
X9087801Y-16657460D01*
X9087801Y-16657460D02*
X9078277Y-16647936D01*
X9078277Y-16647936D02*
X9068753Y-16628888D01*
X9068753Y-16628888D02*
X9059229Y-16590793D01*
X9059229Y-16590793D02*
X9059229Y-16543174D01*
X9059229Y-16543174D02*
X9068753Y-16505079D01*
X9068753Y-16505079D02*
X9078277Y-16486031D01*
X9078277Y-16486031D02*
X9087801Y-16476508D01*
X9087801Y-16476508D02*
X9106848Y-16466984D01*
X9240182Y-16466984D02*
X9363991Y-16466984D01*
X9363991Y-16466984D02*
X9297325Y-16543174D01*
X9297325Y-16543174D02*
X9325896Y-16543174D01*
X9325896Y-16543174D02*
X9344944Y-16552698D01*
X9344944Y-16552698D02*
X9354468Y-16562222D01*
X9354468Y-16562222D02*
X9363991Y-16581269D01*
X9363991Y-16581269D02*
X9363991Y-16628888D01*
X9363991Y-16628888D02*
X9354468Y-16647936D01*
X9354468Y-16647936D02*
X9344944Y-16657460D01*
X9344944Y-16657460D02*
X9325896Y-16666984D01*
X9325896Y-16666984D02*
X9268753Y-16666984D01*
X9268753Y-16666984D02*
X9249706Y-16657460D01*
X9249706Y-16657460D02*
X9240182Y-16647936D01*
X9544944Y-16466984D02*
X9449706Y-16466984D01*
X9449706Y-16466984D02*
X9440182Y-16562222D01*
X9440182Y-16562222D02*
X9449706Y-16552698D01*
X9449706Y-16552698D02*
X9468753Y-16543174D01*
X9468753Y-16543174D02*
X9516372Y-16543174D01*
X9516372Y-16543174D02*
X9535420Y-16552698D01*
X9535420Y-16552698D02*
X9544944Y-16562222D01*
X9544944Y-16562222D02*
X9554468Y-16581269D01*
X9554468Y-16581269D02*
X9554468Y-16628888D01*
X9554468Y-16628888D02*
X9544944Y-16647936D01*
X9544944Y-16647936D02*
X9535420Y-16657460D01*
X9535420Y-16657460D02*
X9516372Y-16666984D01*
X9516372Y-16666984D02*
X9468753Y-16666984D01*
X9468753Y-16666984D02*
X9449706Y-16657460D01*
X9449706Y-16657460D02*
X9440182Y-16647936D01*
X9725896Y-16533650D02*
X9725896Y-16666984D01*
X9678277Y-16457460D02*
X9630658Y-16600317D01*
X9630658Y-16600317D02*
X9754468Y-16600317D01*
X9821134Y-16466984D02*
X9821134Y-16505079D01*
X9897325Y-16466984D02*
X9897325Y-16505079D01*
X10192563Y-16743174D02*
X10183039Y-16733650D01*
X10183039Y-16733650D02*
X10163991Y-16705079D01*
X10163991Y-16705079D02*
X10154468Y-16686031D01*
X10154468Y-16686031D02*
X10144944Y-16657460D01*
X10144944Y-16657460D02*
X10135420Y-16609841D01*
X10135420Y-16609841D02*
X10135420Y-16571746D01*
X10135420Y-16571746D02*
X10144944Y-16524127D01*
X10144944Y-16524127D02*
X10154468Y-16495555D01*
X10154468Y-16495555D02*
X10163991Y-16476508D01*
X10163991Y-16476508D02*
X10183039Y-16447936D01*
X10183039Y-16447936D02*
X10192563Y-16438412D01*
X10354468Y-16533650D02*
X10354468Y-16666984D01*
X10306849Y-16457460D02*
X10259230Y-16600317D01*
X10259230Y-16600317D02*
X10383039Y-16600317D01*
X10611611Y-16666984D02*
X10611611Y-16466984D01*
X10697325Y-16666984D02*
X10697325Y-16562222D01*
X10697325Y-16562222D02*
X10687801Y-16543174D01*
X10687801Y-16543174D02*
X10668753Y-16533650D01*
X10668753Y-16533650D02*
X10640182Y-16533650D01*
X10640182Y-16533650D02*
X10621134Y-16543174D01*
X10621134Y-16543174D02*
X10611611Y-16552698D01*
X10821134Y-16666984D02*
X10802087Y-16657460D01*
X10802087Y-16657460D02*
X10792563Y-16647936D01*
X10792563Y-16647936D02*
X10783039Y-16628888D01*
X10783039Y-16628888D02*
X10783039Y-16571746D01*
X10783039Y-16571746D02*
X10792563Y-16552698D01*
X10792563Y-16552698D02*
X10802087Y-16543174D01*
X10802087Y-16543174D02*
X10821134Y-16533650D01*
X10821134Y-16533650D02*
X10849706Y-16533650D01*
X10849706Y-16533650D02*
X10868753Y-16543174D01*
X10868753Y-16543174D02*
X10878277Y-16552698D01*
X10878277Y-16552698D02*
X10887801Y-16571746D01*
X10887801Y-16571746D02*
X10887801Y-16628888D01*
X10887801Y-16628888D02*
X10878277Y-16647936D01*
X10878277Y-16647936D02*
X10868753Y-16657460D01*
X10868753Y-16657460D02*
X10849706Y-16666984D01*
X10849706Y-16666984D02*
X10821134Y-16666984D01*
X11002087Y-16666984D02*
X10983039Y-16657460D01*
X10983039Y-16657460D02*
X10973515Y-16638412D01*
X10973515Y-16638412D02*
X10973515Y-16466984D01*
X11154468Y-16657460D02*
X11135420Y-16666984D01*
X11135420Y-16666984D02*
X11097325Y-16666984D01*
X11097325Y-16666984D02*
X11078277Y-16657460D01*
X11078277Y-16657460D02*
X11068753Y-16638412D01*
X11068753Y-16638412D02*
X11068753Y-16562222D01*
X11068753Y-16562222D02*
X11078277Y-16543174D01*
X11078277Y-16543174D02*
X11097325Y-16533650D01*
X11097325Y-16533650D02*
X11135420Y-16533650D01*
X11135420Y-16533650D02*
X11154468Y-16543174D01*
X11154468Y-16543174D02*
X11163992Y-16562222D01*
X11163992Y-16562222D02*
X11163992Y-16581269D01*
X11163992Y-16581269D02*
X11068753Y-16600317D01*
X11240182Y-16657460D02*
X11259230Y-16666984D01*
X11259230Y-16666984D02*
X11297325Y-16666984D01*
X11297325Y-16666984D02*
X11316372Y-16657460D01*
X11316372Y-16657460D02*
X11325896Y-16638412D01*
X11325896Y-16638412D02*
X11325896Y-16628888D01*
X11325896Y-16628888D02*
X11316372Y-16609841D01*
X11316372Y-16609841D02*
X11297325Y-16600317D01*
X11297325Y-16600317D02*
X11268753Y-16600317D01*
X11268753Y-16600317D02*
X11249706Y-16590793D01*
X11249706Y-16590793D02*
X11240182Y-16571746D01*
X11240182Y-16571746D02*
X11240182Y-16562222D01*
X11240182Y-16562222D02*
X11249706Y-16543174D01*
X11249706Y-16543174D02*
X11268753Y-16533650D01*
X11268753Y-16533650D02*
X11297325Y-16533650D01*
X11297325Y-16533650D02*
X11316372Y-16543174D01*
X11392563Y-16743174D02*
X11402087Y-16733650D01*
X11402087Y-16733650D02*
X11421134Y-16705079D01*
X11421134Y-16705079D02*
X11430658Y-16686031D01*
X11430658Y-16686031D02*
X11440182Y-16657460D01*
X11440182Y-16657460D02*
X11449706Y-16609841D01*
X11449706Y-16609841D02*
X11449706Y-16571746D01*
X11449706Y-16571746D02*
X11440182Y-16524127D01*
X11440182Y-16524127D02*
X11430658Y-16495555D01*
X11430658Y-16495555D02*
X11421134Y-16476508D01*
X11421134Y-16476508D02*
X11402087Y-16447936D01*
X11402087Y-16447936D02*
X11392563Y-16438412D01*
D15*
X6602856Y-16874856D02*
X6602856Y-16804144D01*
X6532144Y-16804144D01*
X6532144Y-16874856D01*
X6602856Y-16874856D01*
D11*
X6983039Y-16930984D02*
X6868753Y-16930984D01*
X6925896Y-16930984D02*
X6925896Y-16730984D01*
X6925896Y-16730984D02*
X6906848Y-16759555D01*
X6906848Y-16759555D02*
X6887801Y-16778603D01*
X6887801Y-16778603D02*
X6868753Y-16788127D01*
X7068753Y-16911936D02*
X7078277Y-16921460D01*
X7078277Y-16921460D02*
X7068753Y-16930984D01*
X7068753Y-16930984D02*
X7059229Y-16921460D01*
X7059229Y-16921460D02*
X7068753Y-16911936D01*
X7068753Y-16911936D02*
X7068753Y-16930984D01*
X7202086Y-16730984D02*
X7221134Y-16730984D01*
X7221134Y-16730984D02*
X7240182Y-16740508D01*
X7240182Y-16740508D02*
X7249705Y-16750031D01*
X7249705Y-16750031D02*
X7259229Y-16769079D01*
X7259229Y-16769079D02*
X7268753Y-16807174D01*
X7268753Y-16807174D02*
X7268753Y-16854793D01*
X7268753Y-16854793D02*
X7259229Y-16892889D01*
X7259229Y-16892889D02*
X7249705Y-16911936D01*
X7249705Y-16911936D02*
X7240182Y-16921460D01*
X7240182Y-16921460D02*
X7221134Y-16930984D01*
X7221134Y-16930984D02*
X7202086Y-16930984D01*
X7202086Y-16930984D02*
X7183039Y-16921460D01*
X7183039Y-16921460D02*
X7173515Y-16911936D01*
X7173515Y-16911936D02*
X7163991Y-16892889D01*
X7163991Y-16892889D02*
X7154467Y-16854793D01*
X7154467Y-16854793D02*
X7154467Y-16807174D01*
X7154467Y-16807174D02*
X7163991Y-16769079D01*
X7163991Y-16769079D02*
X7173515Y-16750031D01*
X7173515Y-16750031D02*
X7183039Y-16740508D01*
X7183039Y-16740508D02*
X7202086Y-16730984D01*
X7392562Y-16730984D02*
X7411610Y-16730984D01*
X7411610Y-16730984D02*
X7430658Y-16740508D01*
X7430658Y-16740508D02*
X7440182Y-16750031D01*
X7440182Y-16750031D02*
X7449705Y-16769079D01*
X7449705Y-16769079D02*
X7459229Y-16807174D01*
X7459229Y-16807174D02*
X7459229Y-16854793D01*
X7459229Y-16854793D02*
X7449705Y-16892889D01*
X7449705Y-16892889D02*
X7440182Y-16911936D01*
X7440182Y-16911936D02*
X7430658Y-16921460D01*
X7430658Y-16921460D02*
X7411610Y-16930984D01*
X7411610Y-16930984D02*
X7392562Y-16930984D01*
X7392562Y-16930984D02*
X7373515Y-16921460D01*
X7373515Y-16921460D02*
X7363991Y-16911936D01*
X7363991Y-16911936D02*
X7354467Y-16892889D01*
X7354467Y-16892889D02*
X7344943Y-16854793D01*
X7344943Y-16854793D02*
X7344943Y-16807174D01*
X7344943Y-16807174D02*
X7354467Y-16769079D01*
X7354467Y-16769079D02*
X7363991Y-16750031D01*
X7363991Y-16750031D02*
X7373515Y-16740508D01*
X7373515Y-16740508D02*
X7392562Y-16730984D01*
X7583039Y-16730984D02*
X7602086Y-16730984D01*
X7602086Y-16730984D02*
X7621134Y-16740508D01*
X7621134Y-16740508D02*
X7630658Y-16750031D01*
X7630658Y-16750031D02*
X7640182Y-16769079D01*
X7640182Y-16769079D02*
X7649705Y-16807174D01*
X7649705Y-16807174D02*
X7649705Y-16854793D01*
X7649705Y-16854793D02*
X7640182Y-16892889D01*
X7640182Y-16892889D02*
X7630658Y-16911936D01*
X7630658Y-16911936D02*
X7621134Y-16921460D01*
X7621134Y-16921460D02*
X7602086Y-16930984D01*
X7602086Y-16930984D02*
X7583039Y-16930984D01*
X7583039Y-16930984D02*
X7563991Y-16921460D01*
X7563991Y-16921460D02*
X7554467Y-16911936D01*
X7554467Y-16911936D02*
X7544943Y-16892889D01*
X7544943Y-16892889D02*
X7535420Y-16854793D01*
X7535420Y-16854793D02*
X7535420Y-16807174D01*
X7535420Y-16807174D02*
X7544943Y-16769079D01*
X7544943Y-16769079D02*
X7554467Y-16750031D01*
X7554467Y-16750031D02*
X7563991Y-16740508D01*
X7563991Y-16740508D02*
X7583039Y-16730984D01*
X7735420Y-16930984D02*
X7735420Y-16797650D01*
X7735420Y-16816698D02*
X7744943Y-16807174D01*
X7744943Y-16807174D02*
X7763991Y-16797650D01*
X7763991Y-16797650D02*
X7792563Y-16797650D01*
X7792563Y-16797650D02*
X7811610Y-16807174D01*
X7811610Y-16807174D02*
X7821134Y-16826222D01*
X7821134Y-16826222D02*
X7821134Y-16930984D01*
X7821134Y-16826222D02*
X7830658Y-16807174D01*
X7830658Y-16807174D02*
X7849705Y-16797650D01*
X7849705Y-16797650D02*
X7878277Y-16797650D01*
X7878277Y-16797650D02*
X7897324Y-16807174D01*
X7897324Y-16807174D02*
X7906848Y-16826222D01*
X7906848Y-16826222D02*
X7906848Y-16930984D01*
X8002086Y-16930984D02*
X8002086Y-16797650D01*
X8002086Y-16816698D02*
X8011610Y-16807174D01*
X8011610Y-16807174D02*
X8030658Y-16797650D01*
X8030658Y-16797650D02*
X8059229Y-16797650D01*
X8059229Y-16797650D02*
X8078277Y-16807174D01*
X8078277Y-16807174D02*
X8087801Y-16826222D01*
X8087801Y-16826222D02*
X8087801Y-16930984D01*
X8087801Y-16826222D02*
X8097324Y-16807174D01*
X8097324Y-16807174D02*
X8116372Y-16797650D01*
X8116372Y-16797650D02*
X8144943Y-16797650D01*
X8144943Y-16797650D02*
X8163991Y-16807174D01*
X8163991Y-16807174D02*
X8173515Y-16826222D01*
X8173515Y-16826222D02*
X8173515Y-16930984D01*
X8563991Y-16721460D02*
X8392563Y-16978603D01*
X8821134Y-16730984D02*
X8840182Y-16730984D01*
X8840182Y-16730984D02*
X8859229Y-16740508D01*
X8859229Y-16740508D02*
X8868753Y-16750031D01*
X8868753Y-16750031D02*
X8878277Y-16769079D01*
X8878277Y-16769079D02*
X8887801Y-16807174D01*
X8887801Y-16807174D02*
X8887801Y-16854793D01*
X8887801Y-16854793D02*
X8878277Y-16892889D01*
X8878277Y-16892889D02*
X8868753Y-16911936D01*
X8868753Y-16911936D02*
X8859229Y-16921460D01*
X8859229Y-16921460D02*
X8840182Y-16930984D01*
X8840182Y-16930984D02*
X8821134Y-16930984D01*
X8821134Y-16930984D02*
X8802087Y-16921460D01*
X8802087Y-16921460D02*
X8792563Y-16911936D01*
X8792563Y-16911936D02*
X8783039Y-16892889D01*
X8783039Y-16892889D02*
X8773515Y-16854793D01*
X8773515Y-16854793D02*
X8773515Y-16807174D01*
X8773515Y-16807174D02*
X8783039Y-16769079D01*
X8783039Y-16769079D02*
X8792563Y-16750031D01*
X8792563Y-16750031D02*
X8802087Y-16740508D01*
X8802087Y-16740508D02*
X8821134Y-16730984D01*
X8973515Y-16911936D02*
X8983039Y-16921460D01*
X8983039Y-16921460D02*
X8973515Y-16930984D01*
X8973515Y-16930984D02*
X8963991Y-16921460D01*
X8963991Y-16921460D02*
X8973515Y-16911936D01*
X8973515Y-16911936D02*
X8973515Y-16930984D01*
X9106848Y-16730984D02*
X9125896Y-16730984D01*
X9125896Y-16730984D02*
X9144944Y-16740508D01*
X9144944Y-16740508D02*
X9154468Y-16750031D01*
X9154468Y-16750031D02*
X9163991Y-16769079D01*
X9163991Y-16769079D02*
X9173515Y-16807174D01*
X9173515Y-16807174D02*
X9173515Y-16854793D01*
X9173515Y-16854793D02*
X9163991Y-16892889D01*
X9163991Y-16892889D02*
X9154468Y-16911936D01*
X9154468Y-16911936D02*
X9144944Y-16921460D01*
X9144944Y-16921460D02*
X9125896Y-16930984D01*
X9125896Y-16930984D02*
X9106848Y-16930984D01*
X9106848Y-16930984D02*
X9087801Y-16921460D01*
X9087801Y-16921460D02*
X9078277Y-16911936D01*
X9078277Y-16911936D02*
X9068753Y-16892889D01*
X9068753Y-16892889D02*
X9059229Y-16854793D01*
X9059229Y-16854793D02*
X9059229Y-16807174D01*
X9059229Y-16807174D02*
X9068753Y-16769079D01*
X9068753Y-16769079D02*
X9078277Y-16750031D01*
X9078277Y-16750031D02*
X9087801Y-16740508D01*
X9087801Y-16740508D02*
X9106848Y-16730984D01*
X9240182Y-16730984D02*
X9363991Y-16730984D01*
X9363991Y-16730984D02*
X9297325Y-16807174D01*
X9297325Y-16807174D02*
X9325896Y-16807174D01*
X9325896Y-16807174D02*
X9344944Y-16816698D01*
X9344944Y-16816698D02*
X9354468Y-16826222D01*
X9354468Y-16826222D02*
X9363991Y-16845270D01*
X9363991Y-16845270D02*
X9363991Y-16892889D01*
X9363991Y-16892889D02*
X9354468Y-16911936D01*
X9354468Y-16911936D02*
X9344944Y-16921460D01*
X9344944Y-16921460D02*
X9325896Y-16930984D01*
X9325896Y-16930984D02*
X9268753Y-16930984D01*
X9268753Y-16930984D02*
X9249706Y-16921460D01*
X9249706Y-16921460D02*
X9240182Y-16911936D01*
X9459229Y-16930984D02*
X9497325Y-16930984D01*
X9497325Y-16930984D02*
X9516372Y-16921460D01*
X9516372Y-16921460D02*
X9525896Y-16911936D01*
X9525896Y-16911936D02*
X9544944Y-16883365D01*
X9544944Y-16883365D02*
X9554468Y-16845270D01*
X9554468Y-16845270D02*
X9554468Y-16769079D01*
X9554468Y-16769079D02*
X9544944Y-16750031D01*
X9544944Y-16750031D02*
X9535420Y-16740508D01*
X9535420Y-16740508D02*
X9516372Y-16730984D01*
X9516372Y-16730984D02*
X9478277Y-16730984D01*
X9478277Y-16730984D02*
X9459229Y-16740508D01*
X9459229Y-16740508D02*
X9449706Y-16750031D01*
X9449706Y-16750031D02*
X9440182Y-16769079D01*
X9440182Y-16769079D02*
X9440182Y-16816698D01*
X9440182Y-16816698D02*
X9449706Y-16835746D01*
X9449706Y-16835746D02*
X9459229Y-16845270D01*
X9459229Y-16845270D02*
X9478277Y-16854793D01*
X9478277Y-16854793D02*
X9516372Y-16854793D01*
X9516372Y-16854793D02*
X9535420Y-16845270D01*
X9535420Y-16845270D02*
X9544944Y-16835746D01*
X9544944Y-16835746D02*
X9554468Y-16816698D01*
X9725896Y-16797650D02*
X9725896Y-16930984D01*
X9678277Y-16721460D02*
X9630658Y-16864317D01*
X9630658Y-16864317D02*
X9754468Y-16864317D01*
X9821134Y-16730984D02*
X9821134Y-16769079D01*
X9897325Y-16730984D02*
X9897325Y-16769079D01*
X10192563Y-17007174D02*
X10183039Y-16997650D01*
X10183039Y-16997650D02*
X10163991Y-16969079D01*
X10163991Y-16969079D02*
X10154468Y-16950031D01*
X10154468Y-16950031D02*
X10144944Y-16921460D01*
X10144944Y-16921460D02*
X10135420Y-16873841D01*
X10135420Y-16873841D02*
X10135420Y-16835746D01*
X10135420Y-16835746D02*
X10144944Y-16788127D01*
X10144944Y-16788127D02*
X10154468Y-16759555D01*
X10154468Y-16759555D02*
X10163991Y-16740508D01*
X10163991Y-16740508D02*
X10183039Y-16711936D01*
X10183039Y-16711936D02*
X10192563Y-16702412D01*
X10249706Y-16730984D02*
X10373515Y-16730984D01*
X10373515Y-16730984D02*
X10306849Y-16807174D01*
X10306849Y-16807174D02*
X10335420Y-16807174D01*
X10335420Y-16807174D02*
X10354468Y-16816698D01*
X10354468Y-16816698D02*
X10363991Y-16826222D01*
X10363991Y-16826222D02*
X10373515Y-16845270D01*
X10373515Y-16845270D02*
X10373515Y-16892889D01*
X10373515Y-16892889D02*
X10363991Y-16911936D01*
X10363991Y-16911936D02*
X10354468Y-16921460D01*
X10354468Y-16921460D02*
X10335420Y-16930984D01*
X10335420Y-16930984D02*
X10278277Y-16930984D01*
X10278277Y-16930984D02*
X10259230Y-16921460D01*
X10259230Y-16921460D02*
X10249706Y-16911936D01*
X10449706Y-16750031D02*
X10459230Y-16740508D01*
X10459230Y-16740508D02*
X10478277Y-16730984D01*
X10478277Y-16730984D02*
X10525896Y-16730984D01*
X10525896Y-16730984D02*
X10544944Y-16740508D01*
X10544944Y-16740508D02*
X10554468Y-16750031D01*
X10554468Y-16750031D02*
X10563991Y-16769079D01*
X10563991Y-16769079D02*
X10563991Y-16788127D01*
X10563991Y-16788127D02*
X10554468Y-16816698D01*
X10554468Y-16816698D02*
X10440182Y-16930984D01*
X10440182Y-16930984D02*
X10563991Y-16930984D01*
X10802087Y-16930984D02*
X10802087Y-16730984D01*
X10887801Y-16930984D02*
X10887801Y-16826222D01*
X10887801Y-16826222D02*
X10878277Y-16807174D01*
X10878277Y-16807174D02*
X10859230Y-16797650D01*
X10859230Y-16797650D02*
X10830658Y-16797650D01*
X10830658Y-16797650D02*
X10811611Y-16807174D01*
X10811611Y-16807174D02*
X10802087Y-16816698D01*
X11011611Y-16930984D02*
X10992563Y-16921460D01*
X10992563Y-16921460D02*
X10983039Y-16911936D01*
X10983039Y-16911936D02*
X10973515Y-16892889D01*
X10973515Y-16892889D02*
X10973515Y-16835746D01*
X10973515Y-16835746D02*
X10983039Y-16816698D01*
X10983039Y-16816698D02*
X10992563Y-16807174D01*
X10992563Y-16807174D02*
X11011611Y-16797650D01*
X11011611Y-16797650D02*
X11040182Y-16797650D01*
X11040182Y-16797650D02*
X11059230Y-16807174D01*
X11059230Y-16807174D02*
X11068753Y-16816698D01*
X11068753Y-16816698D02*
X11078277Y-16835746D01*
X11078277Y-16835746D02*
X11078277Y-16892889D01*
X11078277Y-16892889D02*
X11068753Y-16911936D01*
X11068753Y-16911936D02*
X11059230Y-16921460D01*
X11059230Y-16921460D02*
X11040182Y-16930984D01*
X11040182Y-16930984D02*
X11011611Y-16930984D01*
X11192563Y-16930984D02*
X11173515Y-16921460D01*
X11173515Y-16921460D02*
X11163992Y-16902412D01*
X11163992Y-16902412D02*
X11163992Y-16730984D01*
X11344944Y-16921460D02*
X11325896Y-16930984D01*
X11325896Y-16930984D02*
X11287801Y-16930984D01*
X11287801Y-16930984D02*
X11268753Y-16921460D01*
X11268753Y-16921460D02*
X11259230Y-16902412D01*
X11259230Y-16902412D02*
X11259230Y-16826222D01*
X11259230Y-16826222D02*
X11268753Y-16807174D01*
X11268753Y-16807174D02*
X11287801Y-16797650D01*
X11287801Y-16797650D02*
X11325896Y-16797650D01*
X11325896Y-16797650D02*
X11344944Y-16807174D01*
X11344944Y-16807174D02*
X11354468Y-16826222D01*
X11354468Y-16826222D02*
X11354468Y-16845270D01*
X11354468Y-16845270D02*
X11259230Y-16864317D01*
X11430658Y-16921460D02*
X11449706Y-16930984D01*
X11449706Y-16930984D02*
X11487801Y-16930984D01*
X11487801Y-16930984D02*
X11506849Y-16921460D01*
X11506849Y-16921460D02*
X11516372Y-16902412D01*
X11516372Y-16902412D02*
X11516372Y-16892889D01*
X11516372Y-16892889D02*
X11506849Y-16873841D01*
X11506849Y-16873841D02*
X11487801Y-16864317D01*
X11487801Y-16864317D02*
X11459230Y-16864317D01*
X11459230Y-16864317D02*
X11440182Y-16854793D01*
X11440182Y-16854793D02*
X11430658Y-16835746D01*
X11430658Y-16835746D02*
X11430658Y-16826222D01*
X11430658Y-16826222D02*
X11440182Y-16807174D01*
X11440182Y-16807174D02*
X11459230Y-16797650D01*
X11459230Y-16797650D02*
X11487801Y-16797650D01*
X11487801Y-16797650D02*
X11506849Y-16807174D01*
X11583039Y-17007174D02*
X11592563Y-16997650D01*
X11592563Y-16997650D02*
X11611611Y-16969079D01*
X11611611Y-16969079D02*
X11621134Y-16950031D01*
X11621134Y-16950031D02*
X11630658Y-16921460D01*
X11630658Y-16921460D02*
X11640182Y-16873841D01*
X11640182Y-16873841D02*
X11640182Y-16835746D01*
X11640182Y-16835746D02*
X11630658Y-16788127D01*
X11630658Y-16788127D02*
X11621134Y-16759555D01*
X11621134Y-16759555D02*
X11611611Y-16740508D01*
X11611611Y-16740508D02*
X11592563Y-16711936D01*
X11592563Y-16711936D02*
X11583039Y-16702412D01*
D16*
X6547500Y-17173500D02*
X6617500Y-17103500D01*
X6547500Y-17033500D01*
X6477500Y-17103500D01*
X6547500Y-17173500D01*
D11*
X6983039Y-17194984D02*
X6868753Y-17194984D01*
X6925896Y-17194984D02*
X6925896Y-16994984D01*
X6925896Y-16994984D02*
X6906848Y-17023555D01*
X6906848Y-17023555D02*
X6887801Y-17042603D01*
X6887801Y-17042603D02*
X6868753Y-17052127D01*
X7068753Y-17175936D02*
X7078277Y-17185460D01*
X7078277Y-17185460D02*
X7068753Y-17194984D01*
X7068753Y-17194984D02*
X7059229Y-17185460D01*
X7059229Y-17185460D02*
X7068753Y-17175936D01*
X7068753Y-17175936D02*
X7068753Y-17194984D01*
X7249705Y-17061650D02*
X7249705Y-17194984D01*
X7202086Y-16985460D02*
X7154467Y-17128317D01*
X7154467Y-17128317D02*
X7278277Y-17128317D01*
X7392562Y-16994984D02*
X7411610Y-16994984D01*
X7411610Y-16994984D02*
X7430658Y-17004508D01*
X7430658Y-17004508D02*
X7440182Y-17014031D01*
X7440182Y-17014031D02*
X7449705Y-17033079D01*
X7449705Y-17033079D02*
X7459229Y-17071174D01*
X7459229Y-17071174D02*
X7459229Y-17118793D01*
X7459229Y-17118793D02*
X7449705Y-17156889D01*
X7449705Y-17156889D02*
X7440182Y-17175936D01*
X7440182Y-17175936D02*
X7430658Y-17185460D01*
X7430658Y-17185460D02*
X7411610Y-17194984D01*
X7411610Y-17194984D02*
X7392562Y-17194984D01*
X7392562Y-17194984D02*
X7373515Y-17185460D01*
X7373515Y-17185460D02*
X7363991Y-17175936D01*
X7363991Y-17175936D02*
X7354467Y-17156889D01*
X7354467Y-17156889D02*
X7344943Y-17118793D01*
X7344943Y-17118793D02*
X7344943Y-17071174D01*
X7344943Y-17071174D02*
X7354467Y-17033079D01*
X7354467Y-17033079D02*
X7363991Y-17014031D01*
X7363991Y-17014031D02*
X7373515Y-17004508D01*
X7373515Y-17004508D02*
X7392562Y-16994984D01*
X7583039Y-16994984D02*
X7602086Y-16994984D01*
X7602086Y-16994984D02*
X7621134Y-17004508D01*
X7621134Y-17004508D02*
X7630658Y-17014031D01*
X7630658Y-17014031D02*
X7640182Y-17033079D01*
X7640182Y-17033079D02*
X7649705Y-17071174D01*
X7649705Y-17071174D02*
X7649705Y-17118793D01*
X7649705Y-17118793D02*
X7640182Y-17156889D01*
X7640182Y-17156889D02*
X7630658Y-17175936D01*
X7630658Y-17175936D02*
X7621134Y-17185460D01*
X7621134Y-17185460D02*
X7602086Y-17194984D01*
X7602086Y-17194984D02*
X7583039Y-17194984D01*
X7583039Y-17194984D02*
X7563991Y-17185460D01*
X7563991Y-17185460D02*
X7554467Y-17175936D01*
X7554467Y-17175936D02*
X7544943Y-17156889D01*
X7544943Y-17156889D02*
X7535420Y-17118793D01*
X7535420Y-17118793D02*
X7535420Y-17071174D01*
X7535420Y-17071174D02*
X7544943Y-17033079D01*
X7544943Y-17033079D02*
X7554467Y-17014031D01*
X7554467Y-17014031D02*
X7563991Y-17004508D01*
X7563991Y-17004508D02*
X7583039Y-16994984D01*
X7735420Y-17194984D02*
X7735420Y-17061650D01*
X7735420Y-17080698D02*
X7744943Y-17071174D01*
X7744943Y-17071174D02*
X7763991Y-17061650D01*
X7763991Y-17061650D02*
X7792563Y-17061650D01*
X7792563Y-17061650D02*
X7811610Y-17071174D01*
X7811610Y-17071174D02*
X7821134Y-17090222D01*
X7821134Y-17090222D02*
X7821134Y-17194984D01*
X7821134Y-17090222D02*
X7830658Y-17071174D01*
X7830658Y-17071174D02*
X7849705Y-17061650D01*
X7849705Y-17061650D02*
X7878277Y-17061650D01*
X7878277Y-17061650D02*
X7897324Y-17071174D01*
X7897324Y-17071174D02*
X7906848Y-17090222D01*
X7906848Y-17090222D02*
X7906848Y-17194984D01*
X8002086Y-17194984D02*
X8002086Y-17061650D01*
X8002086Y-17080698D02*
X8011610Y-17071174D01*
X8011610Y-17071174D02*
X8030658Y-17061650D01*
X8030658Y-17061650D02*
X8059229Y-17061650D01*
X8059229Y-17061650D02*
X8078277Y-17071174D01*
X8078277Y-17071174D02*
X8087801Y-17090222D01*
X8087801Y-17090222D02*
X8087801Y-17194984D01*
X8087801Y-17090222D02*
X8097324Y-17071174D01*
X8097324Y-17071174D02*
X8116372Y-17061650D01*
X8116372Y-17061650D02*
X8144943Y-17061650D01*
X8144943Y-17061650D02*
X8163991Y-17071174D01*
X8163991Y-17071174D02*
X8173515Y-17090222D01*
X8173515Y-17090222D02*
X8173515Y-17194984D01*
X8563991Y-16985460D02*
X8392563Y-17242603D01*
X8821134Y-16994984D02*
X8840182Y-16994984D01*
X8840182Y-16994984D02*
X8859229Y-17004508D01*
X8859229Y-17004508D02*
X8868753Y-17014031D01*
X8868753Y-17014031D02*
X8878277Y-17033079D01*
X8878277Y-17033079D02*
X8887801Y-17071174D01*
X8887801Y-17071174D02*
X8887801Y-17118793D01*
X8887801Y-17118793D02*
X8878277Y-17156889D01*
X8878277Y-17156889D02*
X8868753Y-17175936D01*
X8868753Y-17175936D02*
X8859229Y-17185460D01*
X8859229Y-17185460D02*
X8840182Y-17194984D01*
X8840182Y-17194984D02*
X8821134Y-17194984D01*
X8821134Y-17194984D02*
X8802087Y-17185460D01*
X8802087Y-17185460D02*
X8792563Y-17175936D01*
X8792563Y-17175936D02*
X8783039Y-17156889D01*
X8783039Y-17156889D02*
X8773515Y-17118793D01*
X8773515Y-17118793D02*
X8773515Y-17071174D01*
X8773515Y-17071174D02*
X8783039Y-17033079D01*
X8783039Y-17033079D02*
X8792563Y-17014031D01*
X8792563Y-17014031D02*
X8802087Y-17004508D01*
X8802087Y-17004508D02*
X8821134Y-16994984D01*
X8973515Y-17175936D02*
X8983039Y-17185460D01*
X8983039Y-17185460D02*
X8973515Y-17194984D01*
X8973515Y-17194984D02*
X8963991Y-17185460D01*
X8963991Y-17185460D02*
X8973515Y-17175936D01*
X8973515Y-17175936D02*
X8973515Y-17194984D01*
X9106848Y-16994984D02*
X9125896Y-16994984D01*
X9125896Y-16994984D02*
X9144944Y-17004508D01*
X9144944Y-17004508D02*
X9154468Y-17014031D01*
X9154468Y-17014031D02*
X9163991Y-17033079D01*
X9163991Y-17033079D02*
X9173515Y-17071174D01*
X9173515Y-17071174D02*
X9173515Y-17118793D01*
X9173515Y-17118793D02*
X9163991Y-17156889D01*
X9163991Y-17156889D02*
X9154468Y-17175936D01*
X9154468Y-17175936D02*
X9144944Y-17185460D01*
X9144944Y-17185460D02*
X9125896Y-17194984D01*
X9125896Y-17194984D02*
X9106848Y-17194984D01*
X9106848Y-17194984D02*
X9087801Y-17185460D01*
X9087801Y-17185460D02*
X9078277Y-17175936D01*
X9078277Y-17175936D02*
X9068753Y-17156889D01*
X9068753Y-17156889D02*
X9059229Y-17118793D01*
X9059229Y-17118793D02*
X9059229Y-17071174D01*
X9059229Y-17071174D02*
X9068753Y-17033079D01*
X9068753Y-17033079D02*
X9078277Y-17014031D01*
X9078277Y-17014031D02*
X9087801Y-17004508D01*
X9087801Y-17004508D02*
X9106848Y-16994984D01*
X9354468Y-16994984D02*
X9259229Y-16994984D01*
X9259229Y-16994984D02*
X9249706Y-17090222D01*
X9249706Y-17090222D02*
X9259229Y-17080698D01*
X9259229Y-17080698D02*
X9278277Y-17071174D01*
X9278277Y-17071174D02*
X9325896Y-17071174D01*
X9325896Y-17071174D02*
X9344944Y-17080698D01*
X9344944Y-17080698D02*
X9354468Y-17090222D01*
X9354468Y-17090222D02*
X9363991Y-17109270D01*
X9363991Y-17109270D02*
X9363991Y-17156889D01*
X9363991Y-17156889D02*
X9354468Y-17175936D01*
X9354468Y-17175936D02*
X9344944Y-17185460D01*
X9344944Y-17185460D02*
X9325896Y-17194984D01*
X9325896Y-17194984D02*
X9278277Y-17194984D01*
X9278277Y-17194984D02*
X9259229Y-17185460D01*
X9259229Y-17185460D02*
X9249706Y-17175936D01*
X9544944Y-16994984D02*
X9449706Y-16994984D01*
X9449706Y-16994984D02*
X9440182Y-17090222D01*
X9440182Y-17090222D02*
X9449706Y-17080698D01*
X9449706Y-17080698D02*
X9468753Y-17071174D01*
X9468753Y-17071174D02*
X9516372Y-17071174D01*
X9516372Y-17071174D02*
X9535420Y-17080698D01*
X9535420Y-17080698D02*
X9544944Y-17090222D01*
X9544944Y-17090222D02*
X9554468Y-17109270D01*
X9554468Y-17109270D02*
X9554468Y-17156889D01*
X9554468Y-17156889D02*
X9544944Y-17175936D01*
X9544944Y-17175936D02*
X9535420Y-17185460D01*
X9535420Y-17185460D02*
X9516372Y-17194984D01*
X9516372Y-17194984D02*
X9468753Y-17194984D01*
X9468753Y-17194984D02*
X9449706Y-17185460D01*
X9449706Y-17185460D02*
X9440182Y-17175936D01*
X9744944Y-17194984D02*
X9630658Y-17194984D01*
X9687801Y-17194984D02*
X9687801Y-16994984D01*
X9687801Y-16994984D02*
X9668753Y-17023555D01*
X9668753Y-17023555D02*
X9649706Y-17042603D01*
X9649706Y-17042603D02*
X9630658Y-17052127D01*
X9821134Y-16994984D02*
X9821134Y-17033079D01*
X9897325Y-16994984D02*
X9897325Y-17033079D01*
X10192563Y-17271174D02*
X10183039Y-17261650D01*
X10183039Y-17261650D02*
X10163991Y-17233079D01*
X10163991Y-17233079D02*
X10154468Y-17214031D01*
X10154468Y-17214031D02*
X10144944Y-17185460D01*
X10144944Y-17185460D02*
X10135420Y-17137841D01*
X10135420Y-17137841D02*
X10135420Y-17099746D01*
X10135420Y-17099746D02*
X10144944Y-17052127D01*
X10144944Y-17052127D02*
X10154468Y-17023555D01*
X10154468Y-17023555D02*
X10163991Y-17004508D01*
X10163991Y-17004508D02*
X10183039Y-16975936D01*
X10183039Y-16975936D02*
X10192563Y-16966412D01*
X10354468Y-17061650D02*
X10354468Y-17194984D01*
X10306849Y-16985460D02*
X10259230Y-17128317D01*
X10259230Y-17128317D02*
X10383039Y-17128317D01*
X10611611Y-17194984D02*
X10611611Y-16994984D01*
X10697325Y-17194984D02*
X10697325Y-17090222D01*
X10697325Y-17090222D02*
X10687801Y-17071174D01*
X10687801Y-17071174D02*
X10668753Y-17061650D01*
X10668753Y-17061650D02*
X10640182Y-17061650D01*
X10640182Y-17061650D02*
X10621134Y-17071174D01*
X10621134Y-17071174D02*
X10611611Y-17080698D01*
X10821134Y-17194984D02*
X10802087Y-17185460D01*
X10802087Y-17185460D02*
X10792563Y-17175936D01*
X10792563Y-17175936D02*
X10783039Y-17156889D01*
X10783039Y-17156889D02*
X10783039Y-17099746D01*
X10783039Y-17099746D02*
X10792563Y-17080698D01*
X10792563Y-17080698D02*
X10802087Y-17071174D01*
X10802087Y-17071174D02*
X10821134Y-17061650D01*
X10821134Y-17061650D02*
X10849706Y-17061650D01*
X10849706Y-17061650D02*
X10868753Y-17071174D01*
X10868753Y-17071174D02*
X10878277Y-17080698D01*
X10878277Y-17080698D02*
X10887801Y-17099746D01*
X10887801Y-17099746D02*
X10887801Y-17156889D01*
X10887801Y-17156889D02*
X10878277Y-17175936D01*
X10878277Y-17175936D02*
X10868753Y-17185460D01*
X10868753Y-17185460D02*
X10849706Y-17194984D01*
X10849706Y-17194984D02*
X10821134Y-17194984D01*
X11002087Y-17194984D02*
X10983039Y-17185460D01*
X10983039Y-17185460D02*
X10973515Y-17166412D01*
X10973515Y-17166412D02*
X10973515Y-16994984D01*
X11154468Y-17185460D02*
X11135420Y-17194984D01*
X11135420Y-17194984D02*
X11097325Y-17194984D01*
X11097325Y-17194984D02*
X11078277Y-17185460D01*
X11078277Y-17185460D02*
X11068753Y-17166412D01*
X11068753Y-17166412D02*
X11068753Y-17090222D01*
X11068753Y-17090222D02*
X11078277Y-17071174D01*
X11078277Y-17071174D02*
X11097325Y-17061650D01*
X11097325Y-17061650D02*
X11135420Y-17061650D01*
X11135420Y-17061650D02*
X11154468Y-17071174D01*
X11154468Y-17071174D02*
X11163992Y-17090222D01*
X11163992Y-17090222D02*
X11163992Y-17109270D01*
X11163992Y-17109270D02*
X11068753Y-17128317D01*
X11240182Y-17185460D02*
X11259230Y-17194984D01*
X11259230Y-17194984D02*
X11297325Y-17194984D01*
X11297325Y-17194984D02*
X11316372Y-17185460D01*
X11316372Y-17185460D02*
X11325896Y-17166412D01*
X11325896Y-17166412D02*
X11325896Y-17156889D01*
X11325896Y-17156889D02*
X11316372Y-17137841D01*
X11316372Y-17137841D02*
X11297325Y-17128317D01*
X11297325Y-17128317D02*
X11268753Y-17128317D01*
X11268753Y-17128317D02*
X11249706Y-17118793D01*
X11249706Y-17118793D02*
X11240182Y-17099746D01*
X11240182Y-17099746D02*
X11240182Y-17090222D01*
X11240182Y-17090222D02*
X11249706Y-17071174D01*
X11249706Y-17071174D02*
X11268753Y-17061650D01*
X11268753Y-17061650D02*
X11297325Y-17061650D01*
X11297325Y-17061650D02*
X11316372Y-17071174D01*
X11392563Y-17271174D02*
X11402087Y-17261650D01*
X11402087Y-17261650D02*
X11421134Y-17233079D01*
X11421134Y-17233079D02*
X11430658Y-17214031D01*
X11430658Y-17214031D02*
X11440182Y-17185460D01*
X11440182Y-17185460D02*
X11449706Y-17137841D01*
X11449706Y-17137841D02*
X11449706Y-17099746D01*
X11449706Y-17099746D02*
X11440182Y-17052127D01*
X11440182Y-17052127D02*
X11430658Y-17023555D01*
X11430658Y-17023555D02*
X11421134Y-17004508D01*
X11421134Y-17004508D02*
X11402087Y-16975936D01*
X11402087Y-16975936D02*
X11392563Y-16966412D01*
M02*
