%TF.GenerationSoftware,KiCad,Pcbnew,8.0.1-8.0.1-1~ubuntu22.04.1*%
%TF.CreationDate,2024-04-21T12:36:48+02:00*%
%TF.ProjectId,MCU_Board,4d43555f-426f-4617-9264-2e6b69636164,rev?*%
%TF.SameCoordinates,Original*%
%TF.FileFunction,Drillmap*%
%TF.FilePolarity,Positive*%
%FSLAX45Y45*%
G04 Gerber Fmt 4.5, Leading zero omitted, Abs format (unit mm)*
G04 Created by KiCad (PCBNEW 8.0.1-8.0.1-1~ubuntu22.04.1) date 2024-04-21 12:36:48*
%MOMM*%
%LPD*%
G01*
G04 APERTURE LIST*
%ADD10C,0.150000*%
%ADD11C,0.200000*%
%ADD12C,0.100000*%
%ADD13C,0.130000*%
%ADD14C,0.140000*%
G04 APERTURE END LIST*
D10*
X4572000Y-9906000D02*
X4572000Y-15494000D01*
X9652000Y-15494000D02*
X9652000Y-9906000D01*
X4572000Y-9906000D02*
X9652000Y-9906000D01*
X4572000Y-15494000D02*
X9652000Y-15494000D01*
D11*
D12*
X7820000Y-12890000D02*
X7860000Y-12930000D01*
X7860000Y-12890000D02*
X7820000Y-12930000D01*
X7900000Y-12830000D02*
X7940000Y-12870000D01*
X7940000Y-12830000D02*
X7900000Y-12870000D01*
X7975000Y-12760000D02*
X8015000Y-12800000D01*
X8015000Y-12760000D02*
X7975000Y-12800000D01*
X7455000Y-14780000D02*
G75*
G02*
X7375000Y-14780000I-40000J0D01*
G01*
X7375000Y-14780000D02*
G75*
G02*
X7455000Y-14780000I40000J0D01*
G01*
X7945000Y-14780000D02*
G75*
G02*
X7865000Y-14780000I-40000J0D01*
G01*
X7865000Y-14780000D02*
G75*
G02*
X7945000Y-14780000I40000J0D01*
G01*
X7438000Y-12165000D02*
X7438000Y-12255000D01*
X7393000Y-12210000D02*
X7483000Y-12210000D01*
X7692000Y-12165000D02*
X7692000Y-12255000D01*
X7647000Y-12210000D02*
X7737000Y-12210000D01*
X7946000Y-12165000D02*
X7946000Y-12255000D01*
X7901000Y-12210000D02*
X7991000Y-12210000D01*
X8200000Y-12165000D02*
X8200000Y-12255000D01*
X8155000Y-12210000D02*
X8245000Y-12210000D01*
X4861356Y-12735356D02*
X4861356Y-12664644D01*
X4790644Y-12664644D01*
X4790644Y-12735356D01*
X4861356Y-12735356D01*
X4861356Y-12989356D02*
X4861356Y-12918644D01*
X4790644Y-12918644D01*
X4790644Y-12989356D01*
X4861356Y-12989356D01*
X4861356Y-13243356D02*
X4861356Y-13172644D01*
X4790644Y-13172644D01*
X4790644Y-13243356D01*
X4861356Y-13243356D01*
X4861356Y-13497356D02*
X4861356Y-13426644D01*
X4790644Y-13426644D01*
X4790644Y-13497356D01*
X4861356Y-13497356D01*
X4861356Y-13751356D02*
X4861356Y-13680644D01*
X4790644Y-13680644D01*
X4790644Y-13751356D01*
X4861356Y-13751356D01*
X4861356Y-14005356D02*
X4861356Y-13934644D01*
X4790644Y-13934644D01*
X4790644Y-14005356D01*
X4861356Y-14005356D01*
X4861356Y-14259356D02*
X4861356Y-14188644D01*
X4790644Y-14188644D01*
X4790644Y-14259356D01*
X4861356Y-14259356D01*
X4861356Y-14513356D02*
X4861356Y-14442644D01*
X4790644Y-14442644D01*
X4790644Y-14513356D01*
X4861356Y-14513356D01*
X5718588Y-14295356D02*
X5718588Y-14224644D01*
X5647877Y-14224644D01*
X5647877Y-14295356D01*
X5718588Y-14295356D01*
X5935356Y-11712123D02*
X5935356Y-11641412D01*
X5864644Y-11641412D01*
X5864644Y-11712123D01*
X5935356Y-11712123D01*
X5935356Y-12212123D02*
X5935356Y-12141412D01*
X5864644Y-12141412D01*
X5864644Y-12212123D01*
X5935356Y-12212123D01*
X6218588Y-14295356D02*
X6218588Y-14224644D01*
X6147877Y-14224644D01*
X6147877Y-14295356D01*
X6218588Y-14295356D01*
X8798356Y-12735356D02*
X8798356Y-12664644D01*
X8727644Y-12664644D01*
X8727644Y-12735356D01*
X8798356Y-12735356D01*
X8798356Y-12989356D02*
X8798356Y-12918644D01*
X8727644Y-12918644D01*
X8727644Y-12989356D01*
X8798356Y-12989356D01*
X8798356Y-13243356D02*
X8798356Y-13172644D01*
X8727644Y-13172644D01*
X8727644Y-13243356D01*
X8798356Y-13243356D01*
X8798356Y-13497356D02*
X8798356Y-13426644D01*
X8727644Y-13426644D01*
X8727644Y-13497356D01*
X8798356Y-13497356D01*
X8798356Y-13751356D02*
X8798356Y-13680644D01*
X8727644Y-13680644D01*
X8727644Y-13751356D01*
X8798356Y-13751356D01*
X8798356Y-14005356D02*
X8798356Y-13934644D01*
X8727644Y-13934644D01*
X8727644Y-14005356D01*
X8798356Y-14005356D01*
X8798356Y-14259356D02*
X8798356Y-14188644D01*
X8727644Y-14188644D01*
X8727644Y-14259356D01*
X8798356Y-14259356D01*
X9052356Y-12735356D02*
X9052356Y-12664644D01*
X8981644Y-12664644D01*
X8981644Y-12735356D01*
X9052356Y-12735356D01*
X9052356Y-12989356D02*
X9052356Y-12918644D01*
X8981644Y-12918644D01*
X8981644Y-12989356D01*
X9052356Y-12989356D01*
X9052356Y-13243356D02*
X9052356Y-13172644D01*
X8981644Y-13172644D01*
X8981644Y-13243356D01*
X9052356Y-13243356D01*
X9052356Y-13497356D02*
X9052356Y-13426644D01*
X8981644Y-13426644D01*
X8981644Y-13497356D01*
X9052356Y-13497356D01*
X9052356Y-13751356D02*
X9052356Y-13680644D01*
X8981644Y-13680644D01*
X8981644Y-13751356D01*
X9052356Y-13751356D01*
X9052356Y-14005356D02*
X9052356Y-13934644D01*
X8981644Y-13934644D01*
X8981644Y-14005356D01*
X9052356Y-14005356D01*
X9052356Y-14259356D02*
X9052356Y-14188644D01*
X8981644Y-14188644D01*
X8981644Y-14259356D01*
X9052356Y-14259356D01*
X9135356Y-10449356D02*
X9135356Y-10378644D01*
X9064644Y-10378644D01*
X9064644Y-10449356D01*
X9135356Y-10449356D01*
X9135356Y-10703356D02*
X9135356Y-10632644D01*
X9064644Y-10632644D01*
X9064644Y-10703356D01*
X9135356Y-10703356D01*
X9433356Y-12735356D02*
X9433356Y-12664644D01*
X9362644Y-12664644D01*
X9362644Y-12735356D01*
X9433356Y-12735356D01*
X9433356Y-12989356D02*
X9433356Y-12918644D01*
X9362644Y-12918644D01*
X9362644Y-12989356D01*
X9433356Y-12989356D01*
X9433356Y-13243356D02*
X9433356Y-13172644D01*
X9362644Y-13172644D01*
X9362644Y-13243356D01*
X9433356Y-13243356D01*
X9433356Y-13497356D02*
X9433356Y-13426644D01*
X9362644Y-13426644D01*
X9362644Y-13497356D01*
X9433356Y-13497356D01*
X9433356Y-13751356D02*
X9433356Y-13680644D01*
X9362644Y-13680644D01*
X9362644Y-13751356D01*
X9433356Y-13751356D01*
X9433356Y-14005356D02*
X9433356Y-13934644D01*
X9362644Y-13934644D01*
X9362644Y-14005356D01*
X9433356Y-14005356D01*
X9433356Y-14259356D02*
X9433356Y-14188644D01*
X9362644Y-14188644D01*
X9362644Y-14259356D01*
X9433356Y-14259356D01*
X9433356Y-14513356D02*
X9433356Y-14442644D01*
X9362644Y-14442644D01*
X9362644Y-14513356D01*
X9433356Y-14513356D01*
D13*
X4953000Y-10216000D02*
X5018000Y-10151000D01*
X4953000Y-10086000D01*
X4888000Y-10151000D01*
X4953000Y-10216000D01*
X4953000Y-10676000D02*
X5018000Y-10611000D01*
X4953000Y-10546000D01*
X4888000Y-10611000D01*
X4953000Y-10676000D01*
X4953000Y-11806000D02*
X5018000Y-11741000D01*
X4953000Y-11676000D01*
X4888000Y-11741000D01*
X4953000Y-11806000D01*
X4953000Y-12266000D02*
X5018000Y-12201000D01*
X4953000Y-12136000D01*
X4888000Y-12201000D01*
X4953000Y-12266000D01*
X5680000Y-13265000D02*
X5745000Y-13200000D01*
X5680000Y-13135000D01*
X5615000Y-13200000D01*
X5680000Y-13265000D01*
X6180000Y-13265000D02*
X6245000Y-13200000D01*
X6180000Y-13135000D01*
X6115000Y-13200000D01*
X6180000Y-13265000D01*
D14*
X6788000Y-10340000D02*
X6928000Y-10480000D01*
X6928000Y-10340000D02*
X6788000Y-10480000D01*
X6928000Y-10410000D02*
G75*
G02*
X6788000Y-10410000I-70000J0D01*
G01*
X6788000Y-10410000D02*
G75*
G02*
X6928000Y-10410000I70000J0D01*
G01*
X7296000Y-10340000D02*
X7436000Y-10480000D01*
X7436000Y-10340000D02*
X7296000Y-10480000D01*
X7436000Y-10410000D02*
G75*
G02*
X7296000Y-10410000I-70000J0D01*
G01*
X7296000Y-10410000D02*
G75*
G02*
X7436000Y-10410000I70000J0D01*
G01*
X7804000Y-10340000D02*
X7944000Y-10480000D01*
X7944000Y-10340000D02*
X7804000Y-10480000D01*
X7944000Y-10410000D02*
G75*
G02*
X7804000Y-10410000I-70000J0D01*
G01*
X7804000Y-10410000D02*
G75*
G02*
X7944000Y-10410000I70000J0D01*
G01*
X8312000Y-10340000D02*
X8452000Y-10480000D01*
X8452000Y-10340000D02*
X8312000Y-10480000D01*
X8452000Y-10410000D02*
G75*
G02*
X8312000Y-10410000I-70000J0D01*
G01*
X8312000Y-10410000D02*
G75*
G02*
X8452000Y-10410000I70000J0D01*
G01*
D11*
X4825277Y-15812984D02*
X4825277Y-15612984D01*
X4825277Y-15612984D02*
X4872896Y-15612984D01*
X4872896Y-15612984D02*
X4901467Y-15622508D01*
X4901467Y-15622508D02*
X4920515Y-15641555D01*
X4920515Y-15641555D02*
X4930039Y-15660603D01*
X4930039Y-15660603D02*
X4939563Y-15698698D01*
X4939563Y-15698698D02*
X4939563Y-15727269D01*
X4939563Y-15727269D02*
X4930039Y-15765365D01*
X4930039Y-15765365D02*
X4920515Y-15784412D01*
X4920515Y-15784412D02*
X4901467Y-15803460D01*
X4901467Y-15803460D02*
X4872896Y-15812984D01*
X4872896Y-15812984D02*
X4825277Y-15812984D01*
X5025277Y-15812984D02*
X5025277Y-15679650D01*
X5025277Y-15717746D02*
X5034801Y-15698698D01*
X5034801Y-15698698D02*
X5044324Y-15689174D01*
X5044324Y-15689174D02*
X5063372Y-15679650D01*
X5063372Y-15679650D02*
X5082420Y-15679650D01*
X5149086Y-15812984D02*
X5149086Y-15679650D01*
X5149086Y-15612984D02*
X5139563Y-15622508D01*
X5139563Y-15622508D02*
X5149086Y-15632031D01*
X5149086Y-15632031D02*
X5158610Y-15622508D01*
X5158610Y-15622508D02*
X5149086Y-15612984D01*
X5149086Y-15612984D02*
X5149086Y-15632031D01*
X5272896Y-15812984D02*
X5253848Y-15803460D01*
X5253848Y-15803460D02*
X5244324Y-15784412D01*
X5244324Y-15784412D02*
X5244324Y-15612984D01*
X5377658Y-15812984D02*
X5358610Y-15803460D01*
X5358610Y-15803460D02*
X5349086Y-15784412D01*
X5349086Y-15784412D02*
X5349086Y-15612984D01*
X5606229Y-15812984D02*
X5606229Y-15612984D01*
X5606229Y-15612984D02*
X5672896Y-15755841D01*
X5672896Y-15755841D02*
X5739562Y-15612984D01*
X5739562Y-15612984D02*
X5739562Y-15812984D01*
X5920515Y-15812984D02*
X5920515Y-15708222D01*
X5920515Y-15708222D02*
X5910991Y-15689174D01*
X5910991Y-15689174D02*
X5891943Y-15679650D01*
X5891943Y-15679650D02*
X5853848Y-15679650D01*
X5853848Y-15679650D02*
X5834801Y-15689174D01*
X5920515Y-15803460D02*
X5901467Y-15812984D01*
X5901467Y-15812984D02*
X5853848Y-15812984D01*
X5853848Y-15812984D02*
X5834801Y-15803460D01*
X5834801Y-15803460D02*
X5825277Y-15784412D01*
X5825277Y-15784412D02*
X5825277Y-15765365D01*
X5825277Y-15765365D02*
X5834801Y-15746317D01*
X5834801Y-15746317D02*
X5853848Y-15736793D01*
X5853848Y-15736793D02*
X5901467Y-15736793D01*
X5901467Y-15736793D02*
X5920515Y-15727269D01*
X6015753Y-15679650D02*
X6015753Y-15879650D01*
X6015753Y-15689174D02*
X6034801Y-15679650D01*
X6034801Y-15679650D02*
X6072896Y-15679650D01*
X6072896Y-15679650D02*
X6091943Y-15689174D01*
X6091943Y-15689174D02*
X6101467Y-15698698D01*
X6101467Y-15698698D02*
X6110991Y-15717746D01*
X6110991Y-15717746D02*
X6110991Y-15774888D01*
X6110991Y-15774888D02*
X6101467Y-15793936D01*
X6101467Y-15793936D02*
X6091943Y-15803460D01*
X6091943Y-15803460D02*
X6072896Y-15812984D01*
X6072896Y-15812984D02*
X6034801Y-15812984D01*
X6034801Y-15812984D02*
X6015753Y-15803460D01*
X6196705Y-15793936D02*
X6206229Y-15803460D01*
X6206229Y-15803460D02*
X6196705Y-15812984D01*
X6196705Y-15812984D02*
X6187182Y-15803460D01*
X6187182Y-15803460D02*
X6196705Y-15793936D01*
X6196705Y-15793936D02*
X6196705Y-15812984D01*
X6196705Y-15689174D02*
X6206229Y-15698698D01*
X6206229Y-15698698D02*
X6196705Y-15708222D01*
X6196705Y-15708222D02*
X6187182Y-15698698D01*
X6187182Y-15698698D02*
X6196705Y-15689174D01*
X6196705Y-15689174D02*
X6196705Y-15708222D01*
D12*
X4524500Y-16121500D02*
X4564500Y-16161500D01*
X4564500Y-16121500D02*
X4524500Y-16161500D01*
D11*
X4863372Y-16032984D02*
X4882420Y-16032984D01*
X4882420Y-16032984D02*
X4901467Y-16042508D01*
X4901467Y-16042508D02*
X4910991Y-16052031D01*
X4910991Y-16052031D02*
X4920515Y-16071079D01*
X4920515Y-16071079D02*
X4930039Y-16109174D01*
X4930039Y-16109174D02*
X4930039Y-16156793D01*
X4930039Y-16156793D02*
X4920515Y-16194888D01*
X4920515Y-16194888D02*
X4910991Y-16213936D01*
X4910991Y-16213936D02*
X4901467Y-16223460D01*
X4901467Y-16223460D02*
X4882420Y-16232984D01*
X4882420Y-16232984D02*
X4863372Y-16232984D01*
X4863372Y-16232984D02*
X4844324Y-16223460D01*
X4844324Y-16223460D02*
X4834801Y-16213936D01*
X4834801Y-16213936D02*
X4825277Y-16194888D01*
X4825277Y-16194888D02*
X4815753Y-16156793D01*
X4815753Y-16156793D02*
X4815753Y-16109174D01*
X4815753Y-16109174D02*
X4825277Y-16071079D01*
X4825277Y-16071079D02*
X4834801Y-16052031D01*
X4834801Y-16052031D02*
X4844324Y-16042508D01*
X4844324Y-16042508D02*
X4863372Y-16032984D01*
X5015753Y-16213936D02*
X5025277Y-16223460D01*
X5025277Y-16223460D02*
X5015753Y-16232984D01*
X5015753Y-16232984D02*
X5006229Y-16223460D01*
X5006229Y-16223460D02*
X5015753Y-16213936D01*
X5015753Y-16213936D02*
X5015753Y-16232984D01*
X5196705Y-16099650D02*
X5196705Y-16232984D01*
X5149086Y-16023460D02*
X5101467Y-16166317D01*
X5101467Y-16166317D02*
X5225277Y-16166317D01*
X5339563Y-16032984D02*
X5358610Y-16032984D01*
X5358610Y-16032984D02*
X5377658Y-16042508D01*
X5377658Y-16042508D02*
X5387182Y-16052031D01*
X5387182Y-16052031D02*
X5396705Y-16071079D01*
X5396705Y-16071079D02*
X5406229Y-16109174D01*
X5406229Y-16109174D02*
X5406229Y-16156793D01*
X5406229Y-16156793D02*
X5396705Y-16194888D01*
X5396705Y-16194888D02*
X5387182Y-16213936D01*
X5387182Y-16213936D02*
X5377658Y-16223460D01*
X5377658Y-16223460D02*
X5358610Y-16232984D01*
X5358610Y-16232984D02*
X5339563Y-16232984D01*
X5339563Y-16232984D02*
X5320515Y-16223460D01*
X5320515Y-16223460D02*
X5310991Y-16213936D01*
X5310991Y-16213936D02*
X5301467Y-16194888D01*
X5301467Y-16194888D02*
X5291944Y-16156793D01*
X5291944Y-16156793D02*
X5291944Y-16109174D01*
X5291944Y-16109174D02*
X5301467Y-16071079D01*
X5301467Y-16071079D02*
X5310991Y-16052031D01*
X5310991Y-16052031D02*
X5320515Y-16042508D01*
X5320515Y-16042508D02*
X5339563Y-16032984D01*
X5530039Y-16032984D02*
X5549086Y-16032984D01*
X5549086Y-16032984D02*
X5568134Y-16042508D01*
X5568134Y-16042508D02*
X5577658Y-16052031D01*
X5577658Y-16052031D02*
X5587182Y-16071079D01*
X5587182Y-16071079D02*
X5596705Y-16109174D01*
X5596705Y-16109174D02*
X5596705Y-16156793D01*
X5596705Y-16156793D02*
X5587182Y-16194888D01*
X5587182Y-16194888D02*
X5577658Y-16213936D01*
X5577658Y-16213936D02*
X5568134Y-16223460D01*
X5568134Y-16223460D02*
X5549086Y-16232984D01*
X5549086Y-16232984D02*
X5530039Y-16232984D01*
X5530039Y-16232984D02*
X5510991Y-16223460D01*
X5510991Y-16223460D02*
X5501467Y-16213936D01*
X5501467Y-16213936D02*
X5491944Y-16194888D01*
X5491944Y-16194888D02*
X5482420Y-16156793D01*
X5482420Y-16156793D02*
X5482420Y-16109174D01*
X5482420Y-16109174D02*
X5491944Y-16071079D01*
X5491944Y-16071079D02*
X5501467Y-16052031D01*
X5501467Y-16052031D02*
X5510991Y-16042508D01*
X5510991Y-16042508D02*
X5530039Y-16032984D01*
X5682420Y-16232984D02*
X5682420Y-16099650D01*
X5682420Y-16118698D02*
X5691943Y-16109174D01*
X5691943Y-16109174D02*
X5710991Y-16099650D01*
X5710991Y-16099650D02*
X5739563Y-16099650D01*
X5739563Y-16099650D02*
X5758610Y-16109174D01*
X5758610Y-16109174D02*
X5768134Y-16128222D01*
X5768134Y-16128222D02*
X5768134Y-16232984D01*
X5768134Y-16128222D02*
X5777658Y-16109174D01*
X5777658Y-16109174D02*
X5796705Y-16099650D01*
X5796705Y-16099650D02*
X5825277Y-16099650D01*
X5825277Y-16099650D02*
X5844324Y-16109174D01*
X5844324Y-16109174D02*
X5853848Y-16128222D01*
X5853848Y-16128222D02*
X5853848Y-16232984D01*
X5949086Y-16232984D02*
X5949086Y-16099650D01*
X5949086Y-16118698D02*
X5958610Y-16109174D01*
X5958610Y-16109174D02*
X5977658Y-16099650D01*
X5977658Y-16099650D02*
X6006229Y-16099650D01*
X6006229Y-16099650D02*
X6025277Y-16109174D01*
X6025277Y-16109174D02*
X6034801Y-16128222D01*
X6034801Y-16128222D02*
X6034801Y-16232984D01*
X6034801Y-16128222D02*
X6044324Y-16109174D01*
X6044324Y-16109174D02*
X6063372Y-16099650D01*
X6063372Y-16099650D02*
X6091943Y-16099650D01*
X6091943Y-16099650D02*
X6110991Y-16109174D01*
X6110991Y-16109174D02*
X6120515Y-16128222D01*
X6120515Y-16128222D02*
X6120515Y-16232984D01*
X6510991Y-16023460D02*
X6339563Y-16280603D01*
X6768134Y-16032984D02*
X6787182Y-16032984D01*
X6787182Y-16032984D02*
X6806229Y-16042508D01*
X6806229Y-16042508D02*
X6815753Y-16052031D01*
X6815753Y-16052031D02*
X6825277Y-16071079D01*
X6825277Y-16071079D02*
X6834801Y-16109174D01*
X6834801Y-16109174D02*
X6834801Y-16156793D01*
X6834801Y-16156793D02*
X6825277Y-16194888D01*
X6825277Y-16194888D02*
X6815753Y-16213936D01*
X6815753Y-16213936D02*
X6806229Y-16223460D01*
X6806229Y-16223460D02*
X6787182Y-16232984D01*
X6787182Y-16232984D02*
X6768134Y-16232984D01*
X6768134Y-16232984D02*
X6749086Y-16223460D01*
X6749086Y-16223460D02*
X6739563Y-16213936D01*
X6739563Y-16213936D02*
X6730039Y-16194888D01*
X6730039Y-16194888D02*
X6720515Y-16156793D01*
X6720515Y-16156793D02*
X6720515Y-16109174D01*
X6720515Y-16109174D02*
X6730039Y-16071079D01*
X6730039Y-16071079D02*
X6739563Y-16052031D01*
X6739563Y-16052031D02*
X6749086Y-16042508D01*
X6749086Y-16042508D02*
X6768134Y-16032984D01*
X6920515Y-16213936D02*
X6930039Y-16223460D01*
X6930039Y-16223460D02*
X6920515Y-16232984D01*
X6920515Y-16232984D02*
X6910991Y-16223460D01*
X6910991Y-16223460D02*
X6920515Y-16213936D01*
X6920515Y-16213936D02*
X6920515Y-16232984D01*
X7053848Y-16032984D02*
X7072896Y-16032984D01*
X7072896Y-16032984D02*
X7091944Y-16042508D01*
X7091944Y-16042508D02*
X7101467Y-16052031D01*
X7101467Y-16052031D02*
X7110991Y-16071079D01*
X7110991Y-16071079D02*
X7120515Y-16109174D01*
X7120515Y-16109174D02*
X7120515Y-16156793D01*
X7120515Y-16156793D02*
X7110991Y-16194888D01*
X7110991Y-16194888D02*
X7101467Y-16213936D01*
X7101467Y-16213936D02*
X7091944Y-16223460D01*
X7091944Y-16223460D02*
X7072896Y-16232984D01*
X7072896Y-16232984D02*
X7053848Y-16232984D01*
X7053848Y-16232984D02*
X7034801Y-16223460D01*
X7034801Y-16223460D02*
X7025277Y-16213936D01*
X7025277Y-16213936D02*
X7015753Y-16194888D01*
X7015753Y-16194888D02*
X7006229Y-16156793D01*
X7006229Y-16156793D02*
X7006229Y-16109174D01*
X7006229Y-16109174D02*
X7015753Y-16071079D01*
X7015753Y-16071079D02*
X7025277Y-16052031D01*
X7025277Y-16052031D02*
X7034801Y-16042508D01*
X7034801Y-16042508D02*
X7053848Y-16032984D01*
X7310991Y-16232984D02*
X7196706Y-16232984D01*
X7253848Y-16232984D02*
X7253848Y-16032984D01*
X7253848Y-16032984D02*
X7234801Y-16061555D01*
X7234801Y-16061555D02*
X7215753Y-16080603D01*
X7215753Y-16080603D02*
X7196706Y-16090127D01*
X7491944Y-16032984D02*
X7396706Y-16032984D01*
X7396706Y-16032984D02*
X7387182Y-16128222D01*
X7387182Y-16128222D02*
X7396706Y-16118698D01*
X7396706Y-16118698D02*
X7415753Y-16109174D01*
X7415753Y-16109174D02*
X7463372Y-16109174D01*
X7463372Y-16109174D02*
X7482420Y-16118698D01*
X7482420Y-16118698D02*
X7491944Y-16128222D01*
X7491944Y-16128222D02*
X7501467Y-16147269D01*
X7501467Y-16147269D02*
X7501467Y-16194888D01*
X7501467Y-16194888D02*
X7491944Y-16213936D01*
X7491944Y-16213936D02*
X7482420Y-16223460D01*
X7482420Y-16223460D02*
X7463372Y-16232984D01*
X7463372Y-16232984D02*
X7415753Y-16232984D01*
X7415753Y-16232984D02*
X7396706Y-16223460D01*
X7396706Y-16223460D02*
X7387182Y-16213936D01*
X7568134Y-16032984D02*
X7701467Y-16032984D01*
X7701467Y-16032984D02*
X7615753Y-16232984D01*
X7768134Y-16032984D02*
X7768134Y-16071079D01*
X7844325Y-16032984D02*
X7844325Y-16071079D01*
X8139563Y-16309174D02*
X8130039Y-16299650D01*
X8130039Y-16299650D02*
X8110991Y-16271079D01*
X8110991Y-16271079D02*
X8101468Y-16252031D01*
X8101468Y-16252031D02*
X8091944Y-16223460D01*
X8091944Y-16223460D02*
X8082420Y-16175841D01*
X8082420Y-16175841D02*
X8082420Y-16137746D01*
X8082420Y-16137746D02*
X8091944Y-16090127D01*
X8091944Y-16090127D02*
X8101468Y-16061555D01*
X8101468Y-16061555D02*
X8110991Y-16042508D01*
X8110991Y-16042508D02*
X8130039Y-16013936D01*
X8130039Y-16013936D02*
X8139563Y-16004412D01*
X8196706Y-16032984D02*
X8320515Y-16032984D01*
X8320515Y-16032984D02*
X8253848Y-16109174D01*
X8253848Y-16109174D02*
X8282420Y-16109174D01*
X8282420Y-16109174D02*
X8301468Y-16118698D01*
X8301468Y-16118698D02*
X8310991Y-16128222D01*
X8310991Y-16128222D02*
X8320515Y-16147269D01*
X8320515Y-16147269D02*
X8320515Y-16194888D01*
X8320515Y-16194888D02*
X8310991Y-16213936D01*
X8310991Y-16213936D02*
X8301468Y-16223460D01*
X8301468Y-16223460D02*
X8282420Y-16232984D01*
X8282420Y-16232984D02*
X8225277Y-16232984D01*
X8225277Y-16232984D02*
X8206229Y-16223460D01*
X8206229Y-16223460D02*
X8196706Y-16213936D01*
X8558611Y-16232984D02*
X8558611Y-16032984D01*
X8644325Y-16232984D02*
X8644325Y-16128222D01*
X8644325Y-16128222D02*
X8634801Y-16109174D01*
X8634801Y-16109174D02*
X8615753Y-16099650D01*
X8615753Y-16099650D02*
X8587182Y-16099650D01*
X8587182Y-16099650D02*
X8568134Y-16109174D01*
X8568134Y-16109174D02*
X8558611Y-16118698D01*
X8768134Y-16232984D02*
X8749087Y-16223460D01*
X8749087Y-16223460D02*
X8739563Y-16213936D01*
X8739563Y-16213936D02*
X8730039Y-16194888D01*
X8730039Y-16194888D02*
X8730039Y-16137746D01*
X8730039Y-16137746D02*
X8739563Y-16118698D01*
X8739563Y-16118698D02*
X8749087Y-16109174D01*
X8749087Y-16109174D02*
X8768134Y-16099650D01*
X8768134Y-16099650D02*
X8796706Y-16099650D01*
X8796706Y-16099650D02*
X8815753Y-16109174D01*
X8815753Y-16109174D02*
X8825277Y-16118698D01*
X8825277Y-16118698D02*
X8834801Y-16137746D01*
X8834801Y-16137746D02*
X8834801Y-16194888D01*
X8834801Y-16194888D02*
X8825277Y-16213936D01*
X8825277Y-16213936D02*
X8815753Y-16223460D01*
X8815753Y-16223460D02*
X8796706Y-16232984D01*
X8796706Y-16232984D02*
X8768134Y-16232984D01*
X8949087Y-16232984D02*
X8930039Y-16223460D01*
X8930039Y-16223460D02*
X8920515Y-16204412D01*
X8920515Y-16204412D02*
X8920515Y-16032984D01*
X9101468Y-16223460D02*
X9082420Y-16232984D01*
X9082420Y-16232984D02*
X9044325Y-16232984D01*
X9044325Y-16232984D02*
X9025277Y-16223460D01*
X9025277Y-16223460D02*
X9015753Y-16204412D01*
X9015753Y-16204412D02*
X9015753Y-16128222D01*
X9015753Y-16128222D02*
X9025277Y-16109174D01*
X9025277Y-16109174D02*
X9044325Y-16099650D01*
X9044325Y-16099650D02*
X9082420Y-16099650D01*
X9082420Y-16099650D02*
X9101468Y-16109174D01*
X9101468Y-16109174D02*
X9110992Y-16128222D01*
X9110992Y-16128222D02*
X9110992Y-16147269D01*
X9110992Y-16147269D02*
X9015753Y-16166317D01*
X9187182Y-16223460D02*
X9206230Y-16232984D01*
X9206230Y-16232984D02*
X9244325Y-16232984D01*
X9244325Y-16232984D02*
X9263373Y-16223460D01*
X9263373Y-16223460D02*
X9272896Y-16204412D01*
X9272896Y-16204412D02*
X9272896Y-16194888D01*
X9272896Y-16194888D02*
X9263373Y-16175841D01*
X9263373Y-16175841D02*
X9244325Y-16166317D01*
X9244325Y-16166317D02*
X9215753Y-16166317D01*
X9215753Y-16166317D02*
X9196706Y-16156793D01*
X9196706Y-16156793D02*
X9187182Y-16137746D01*
X9187182Y-16137746D02*
X9187182Y-16128222D01*
X9187182Y-16128222D02*
X9196706Y-16109174D01*
X9196706Y-16109174D02*
X9215753Y-16099650D01*
X9215753Y-16099650D02*
X9244325Y-16099650D01*
X9244325Y-16099650D02*
X9263373Y-16109174D01*
X9339563Y-16309174D02*
X9349087Y-16299650D01*
X9349087Y-16299650D02*
X9368134Y-16271079D01*
X9368134Y-16271079D02*
X9377658Y-16252031D01*
X9377658Y-16252031D02*
X9387182Y-16223460D01*
X9387182Y-16223460D02*
X9396706Y-16175841D01*
X9396706Y-16175841D02*
X9396706Y-16137746D01*
X9396706Y-16137746D02*
X9387182Y-16090127D01*
X9387182Y-16090127D02*
X9377658Y-16061555D01*
X9377658Y-16061555D02*
X9368134Y-16042508D01*
X9368134Y-16042508D02*
X9349087Y-16013936D01*
X9349087Y-16013936D02*
X9339563Y-16004412D01*
D12*
X4564500Y-16405500D02*
G75*
G02*
X4484500Y-16405500I-40000J0D01*
G01*
X4484500Y-16405500D02*
G75*
G02*
X4564500Y-16405500I40000J0D01*
G01*
D11*
X4863372Y-16296984D02*
X4882420Y-16296984D01*
X4882420Y-16296984D02*
X4901467Y-16306508D01*
X4901467Y-16306508D02*
X4910991Y-16316031D01*
X4910991Y-16316031D02*
X4920515Y-16335079D01*
X4920515Y-16335079D02*
X4930039Y-16373174D01*
X4930039Y-16373174D02*
X4930039Y-16420793D01*
X4930039Y-16420793D02*
X4920515Y-16458888D01*
X4920515Y-16458888D02*
X4910991Y-16477936D01*
X4910991Y-16477936D02*
X4901467Y-16487460D01*
X4901467Y-16487460D02*
X4882420Y-16496984D01*
X4882420Y-16496984D02*
X4863372Y-16496984D01*
X4863372Y-16496984D02*
X4844324Y-16487460D01*
X4844324Y-16487460D02*
X4834801Y-16477936D01*
X4834801Y-16477936D02*
X4825277Y-16458888D01*
X4825277Y-16458888D02*
X4815753Y-16420793D01*
X4815753Y-16420793D02*
X4815753Y-16373174D01*
X4815753Y-16373174D02*
X4825277Y-16335079D01*
X4825277Y-16335079D02*
X4834801Y-16316031D01*
X4834801Y-16316031D02*
X4844324Y-16306508D01*
X4844324Y-16306508D02*
X4863372Y-16296984D01*
X5015753Y-16477936D02*
X5025277Y-16487460D01*
X5025277Y-16487460D02*
X5015753Y-16496984D01*
X5015753Y-16496984D02*
X5006229Y-16487460D01*
X5006229Y-16487460D02*
X5015753Y-16477936D01*
X5015753Y-16477936D02*
X5015753Y-16496984D01*
X5139563Y-16382698D02*
X5120515Y-16373174D01*
X5120515Y-16373174D02*
X5110991Y-16363650D01*
X5110991Y-16363650D02*
X5101467Y-16344603D01*
X5101467Y-16344603D02*
X5101467Y-16335079D01*
X5101467Y-16335079D02*
X5110991Y-16316031D01*
X5110991Y-16316031D02*
X5120515Y-16306508D01*
X5120515Y-16306508D02*
X5139563Y-16296984D01*
X5139563Y-16296984D02*
X5177658Y-16296984D01*
X5177658Y-16296984D02*
X5196705Y-16306508D01*
X5196705Y-16306508D02*
X5206229Y-16316031D01*
X5206229Y-16316031D02*
X5215753Y-16335079D01*
X5215753Y-16335079D02*
X5215753Y-16344603D01*
X5215753Y-16344603D02*
X5206229Y-16363650D01*
X5206229Y-16363650D02*
X5196705Y-16373174D01*
X5196705Y-16373174D02*
X5177658Y-16382698D01*
X5177658Y-16382698D02*
X5139563Y-16382698D01*
X5139563Y-16382698D02*
X5120515Y-16392222D01*
X5120515Y-16392222D02*
X5110991Y-16401746D01*
X5110991Y-16401746D02*
X5101467Y-16420793D01*
X5101467Y-16420793D02*
X5101467Y-16458888D01*
X5101467Y-16458888D02*
X5110991Y-16477936D01*
X5110991Y-16477936D02*
X5120515Y-16487460D01*
X5120515Y-16487460D02*
X5139563Y-16496984D01*
X5139563Y-16496984D02*
X5177658Y-16496984D01*
X5177658Y-16496984D02*
X5196705Y-16487460D01*
X5196705Y-16487460D02*
X5206229Y-16477936D01*
X5206229Y-16477936D02*
X5215753Y-16458888D01*
X5215753Y-16458888D02*
X5215753Y-16420793D01*
X5215753Y-16420793D02*
X5206229Y-16401746D01*
X5206229Y-16401746D02*
X5196705Y-16392222D01*
X5196705Y-16392222D02*
X5177658Y-16382698D01*
X5339563Y-16296984D02*
X5358610Y-16296984D01*
X5358610Y-16296984D02*
X5377658Y-16306508D01*
X5377658Y-16306508D02*
X5387182Y-16316031D01*
X5387182Y-16316031D02*
X5396705Y-16335079D01*
X5396705Y-16335079D02*
X5406229Y-16373174D01*
X5406229Y-16373174D02*
X5406229Y-16420793D01*
X5406229Y-16420793D02*
X5396705Y-16458888D01*
X5396705Y-16458888D02*
X5387182Y-16477936D01*
X5387182Y-16477936D02*
X5377658Y-16487460D01*
X5377658Y-16487460D02*
X5358610Y-16496984D01*
X5358610Y-16496984D02*
X5339563Y-16496984D01*
X5339563Y-16496984D02*
X5320515Y-16487460D01*
X5320515Y-16487460D02*
X5310991Y-16477936D01*
X5310991Y-16477936D02*
X5301467Y-16458888D01*
X5301467Y-16458888D02*
X5291944Y-16420793D01*
X5291944Y-16420793D02*
X5291944Y-16373174D01*
X5291944Y-16373174D02*
X5301467Y-16335079D01*
X5301467Y-16335079D02*
X5310991Y-16316031D01*
X5310991Y-16316031D02*
X5320515Y-16306508D01*
X5320515Y-16306508D02*
X5339563Y-16296984D01*
X5530039Y-16296984D02*
X5549086Y-16296984D01*
X5549086Y-16296984D02*
X5568134Y-16306508D01*
X5568134Y-16306508D02*
X5577658Y-16316031D01*
X5577658Y-16316031D02*
X5587182Y-16335079D01*
X5587182Y-16335079D02*
X5596705Y-16373174D01*
X5596705Y-16373174D02*
X5596705Y-16420793D01*
X5596705Y-16420793D02*
X5587182Y-16458888D01*
X5587182Y-16458888D02*
X5577658Y-16477936D01*
X5577658Y-16477936D02*
X5568134Y-16487460D01*
X5568134Y-16487460D02*
X5549086Y-16496984D01*
X5549086Y-16496984D02*
X5530039Y-16496984D01*
X5530039Y-16496984D02*
X5510991Y-16487460D01*
X5510991Y-16487460D02*
X5501467Y-16477936D01*
X5501467Y-16477936D02*
X5491944Y-16458888D01*
X5491944Y-16458888D02*
X5482420Y-16420793D01*
X5482420Y-16420793D02*
X5482420Y-16373174D01*
X5482420Y-16373174D02*
X5491944Y-16335079D01*
X5491944Y-16335079D02*
X5501467Y-16316031D01*
X5501467Y-16316031D02*
X5510991Y-16306508D01*
X5510991Y-16306508D02*
X5530039Y-16296984D01*
X5682420Y-16496984D02*
X5682420Y-16363650D01*
X5682420Y-16382698D02*
X5691943Y-16373174D01*
X5691943Y-16373174D02*
X5710991Y-16363650D01*
X5710991Y-16363650D02*
X5739563Y-16363650D01*
X5739563Y-16363650D02*
X5758610Y-16373174D01*
X5758610Y-16373174D02*
X5768134Y-16392222D01*
X5768134Y-16392222D02*
X5768134Y-16496984D01*
X5768134Y-16392222D02*
X5777658Y-16373174D01*
X5777658Y-16373174D02*
X5796705Y-16363650D01*
X5796705Y-16363650D02*
X5825277Y-16363650D01*
X5825277Y-16363650D02*
X5844324Y-16373174D01*
X5844324Y-16373174D02*
X5853848Y-16392222D01*
X5853848Y-16392222D02*
X5853848Y-16496984D01*
X5949086Y-16496984D02*
X5949086Y-16363650D01*
X5949086Y-16382698D02*
X5958610Y-16373174D01*
X5958610Y-16373174D02*
X5977658Y-16363650D01*
X5977658Y-16363650D02*
X6006229Y-16363650D01*
X6006229Y-16363650D02*
X6025277Y-16373174D01*
X6025277Y-16373174D02*
X6034801Y-16392222D01*
X6034801Y-16392222D02*
X6034801Y-16496984D01*
X6034801Y-16392222D02*
X6044324Y-16373174D01*
X6044324Y-16373174D02*
X6063372Y-16363650D01*
X6063372Y-16363650D02*
X6091943Y-16363650D01*
X6091943Y-16363650D02*
X6110991Y-16373174D01*
X6110991Y-16373174D02*
X6120515Y-16392222D01*
X6120515Y-16392222D02*
X6120515Y-16496984D01*
X6510991Y-16287460D02*
X6339563Y-16544603D01*
X6768134Y-16296984D02*
X6787182Y-16296984D01*
X6787182Y-16296984D02*
X6806229Y-16306508D01*
X6806229Y-16306508D02*
X6815753Y-16316031D01*
X6815753Y-16316031D02*
X6825277Y-16335079D01*
X6825277Y-16335079D02*
X6834801Y-16373174D01*
X6834801Y-16373174D02*
X6834801Y-16420793D01*
X6834801Y-16420793D02*
X6825277Y-16458888D01*
X6825277Y-16458888D02*
X6815753Y-16477936D01*
X6815753Y-16477936D02*
X6806229Y-16487460D01*
X6806229Y-16487460D02*
X6787182Y-16496984D01*
X6787182Y-16496984D02*
X6768134Y-16496984D01*
X6768134Y-16496984D02*
X6749086Y-16487460D01*
X6749086Y-16487460D02*
X6739563Y-16477936D01*
X6739563Y-16477936D02*
X6730039Y-16458888D01*
X6730039Y-16458888D02*
X6720515Y-16420793D01*
X6720515Y-16420793D02*
X6720515Y-16373174D01*
X6720515Y-16373174D02*
X6730039Y-16335079D01*
X6730039Y-16335079D02*
X6739563Y-16316031D01*
X6739563Y-16316031D02*
X6749086Y-16306508D01*
X6749086Y-16306508D02*
X6768134Y-16296984D01*
X6920515Y-16477936D02*
X6930039Y-16487460D01*
X6930039Y-16487460D02*
X6920515Y-16496984D01*
X6920515Y-16496984D02*
X6910991Y-16487460D01*
X6910991Y-16487460D02*
X6920515Y-16477936D01*
X6920515Y-16477936D02*
X6920515Y-16496984D01*
X7053848Y-16296984D02*
X7072896Y-16296984D01*
X7072896Y-16296984D02*
X7091944Y-16306508D01*
X7091944Y-16306508D02*
X7101467Y-16316031D01*
X7101467Y-16316031D02*
X7110991Y-16335079D01*
X7110991Y-16335079D02*
X7120515Y-16373174D01*
X7120515Y-16373174D02*
X7120515Y-16420793D01*
X7120515Y-16420793D02*
X7110991Y-16458888D01*
X7110991Y-16458888D02*
X7101467Y-16477936D01*
X7101467Y-16477936D02*
X7091944Y-16487460D01*
X7091944Y-16487460D02*
X7072896Y-16496984D01*
X7072896Y-16496984D02*
X7053848Y-16496984D01*
X7053848Y-16496984D02*
X7034801Y-16487460D01*
X7034801Y-16487460D02*
X7025277Y-16477936D01*
X7025277Y-16477936D02*
X7015753Y-16458888D01*
X7015753Y-16458888D02*
X7006229Y-16420793D01*
X7006229Y-16420793D02*
X7006229Y-16373174D01*
X7006229Y-16373174D02*
X7015753Y-16335079D01*
X7015753Y-16335079D02*
X7025277Y-16316031D01*
X7025277Y-16316031D02*
X7034801Y-16306508D01*
X7034801Y-16306508D02*
X7053848Y-16296984D01*
X7187182Y-16296984D02*
X7310991Y-16296984D01*
X7310991Y-16296984D02*
X7244325Y-16373174D01*
X7244325Y-16373174D02*
X7272896Y-16373174D01*
X7272896Y-16373174D02*
X7291944Y-16382698D01*
X7291944Y-16382698D02*
X7301467Y-16392222D01*
X7301467Y-16392222D02*
X7310991Y-16411269D01*
X7310991Y-16411269D02*
X7310991Y-16458888D01*
X7310991Y-16458888D02*
X7301467Y-16477936D01*
X7301467Y-16477936D02*
X7291944Y-16487460D01*
X7291944Y-16487460D02*
X7272896Y-16496984D01*
X7272896Y-16496984D02*
X7215753Y-16496984D01*
X7215753Y-16496984D02*
X7196706Y-16487460D01*
X7196706Y-16487460D02*
X7187182Y-16477936D01*
X7501467Y-16496984D02*
X7387182Y-16496984D01*
X7444325Y-16496984D02*
X7444325Y-16296984D01*
X7444325Y-16296984D02*
X7425277Y-16325555D01*
X7425277Y-16325555D02*
X7406229Y-16344603D01*
X7406229Y-16344603D02*
X7387182Y-16354127D01*
X7682420Y-16296984D02*
X7587182Y-16296984D01*
X7587182Y-16296984D02*
X7577658Y-16392222D01*
X7577658Y-16392222D02*
X7587182Y-16382698D01*
X7587182Y-16382698D02*
X7606229Y-16373174D01*
X7606229Y-16373174D02*
X7653848Y-16373174D01*
X7653848Y-16373174D02*
X7672896Y-16382698D01*
X7672896Y-16382698D02*
X7682420Y-16392222D01*
X7682420Y-16392222D02*
X7691944Y-16411269D01*
X7691944Y-16411269D02*
X7691944Y-16458888D01*
X7691944Y-16458888D02*
X7682420Y-16477936D01*
X7682420Y-16477936D02*
X7672896Y-16487460D01*
X7672896Y-16487460D02*
X7653848Y-16496984D01*
X7653848Y-16496984D02*
X7606229Y-16496984D01*
X7606229Y-16496984D02*
X7587182Y-16487460D01*
X7587182Y-16487460D02*
X7577658Y-16477936D01*
X7768134Y-16296984D02*
X7768134Y-16335079D01*
X7844325Y-16296984D02*
X7844325Y-16335079D01*
X8139563Y-16573174D02*
X8130039Y-16563650D01*
X8130039Y-16563650D02*
X8110991Y-16535079D01*
X8110991Y-16535079D02*
X8101468Y-16516031D01*
X8101468Y-16516031D02*
X8091944Y-16487460D01*
X8091944Y-16487460D02*
X8082420Y-16439841D01*
X8082420Y-16439841D02*
X8082420Y-16401746D01*
X8082420Y-16401746D02*
X8091944Y-16354127D01*
X8091944Y-16354127D02*
X8101468Y-16325555D01*
X8101468Y-16325555D02*
X8110991Y-16306508D01*
X8110991Y-16306508D02*
X8130039Y-16277936D01*
X8130039Y-16277936D02*
X8139563Y-16268412D01*
X8206229Y-16316031D02*
X8215753Y-16306508D01*
X8215753Y-16306508D02*
X8234801Y-16296984D01*
X8234801Y-16296984D02*
X8282420Y-16296984D01*
X8282420Y-16296984D02*
X8301468Y-16306508D01*
X8301468Y-16306508D02*
X8310991Y-16316031D01*
X8310991Y-16316031D02*
X8320515Y-16335079D01*
X8320515Y-16335079D02*
X8320515Y-16354127D01*
X8320515Y-16354127D02*
X8310991Y-16382698D01*
X8310991Y-16382698D02*
X8196706Y-16496984D01*
X8196706Y-16496984D02*
X8320515Y-16496984D01*
X8558611Y-16496984D02*
X8558611Y-16296984D01*
X8644325Y-16496984D02*
X8644325Y-16392222D01*
X8644325Y-16392222D02*
X8634801Y-16373174D01*
X8634801Y-16373174D02*
X8615753Y-16363650D01*
X8615753Y-16363650D02*
X8587182Y-16363650D01*
X8587182Y-16363650D02*
X8568134Y-16373174D01*
X8568134Y-16373174D02*
X8558611Y-16382698D01*
X8768134Y-16496984D02*
X8749087Y-16487460D01*
X8749087Y-16487460D02*
X8739563Y-16477936D01*
X8739563Y-16477936D02*
X8730039Y-16458888D01*
X8730039Y-16458888D02*
X8730039Y-16401746D01*
X8730039Y-16401746D02*
X8739563Y-16382698D01*
X8739563Y-16382698D02*
X8749087Y-16373174D01*
X8749087Y-16373174D02*
X8768134Y-16363650D01*
X8768134Y-16363650D02*
X8796706Y-16363650D01*
X8796706Y-16363650D02*
X8815753Y-16373174D01*
X8815753Y-16373174D02*
X8825277Y-16382698D01*
X8825277Y-16382698D02*
X8834801Y-16401746D01*
X8834801Y-16401746D02*
X8834801Y-16458888D01*
X8834801Y-16458888D02*
X8825277Y-16477936D01*
X8825277Y-16477936D02*
X8815753Y-16487460D01*
X8815753Y-16487460D02*
X8796706Y-16496984D01*
X8796706Y-16496984D02*
X8768134Y-16496984D01*
X8949087Y-16496984D02*
X8930039Y-16487460D01*
X8930039Y-16487460D02*
X8920515Y-16468412D01*
X8920515Y-16468412D02*
X8920515Y-16296984D01*
X9101468Y-16487460D02*
X9082420Y-16496984D01*
X9082420Y-16496984D02*
X9044325Y-16496984D01*
X9044325Y-16496984D02*
X9025277Y-16487460D01*
X9025277Y-16487460D02*
X9015753Y-16468412D01*
X9015753Y-16468412D02*
X9015753Y-16392222D01*
X9015753Y-16392222D02*
X9025277Y-16373174D01*
X9025277Y-16373174D02*
X9044325Y-16363650D01*
X9044325Y-16363650D02*
X9082420Y-16363650D01*
X9082420Y-16363650D02*
X9101468Y-16373174D01*
X9101468Y-16373174D02*
X9110992Y-16392222D01*
X9110992Y-16392222D02*
X9110992Y-16411269D01*
X9110992Y-16411269D02*
X9015753Y-16430317D01*
X9187182Y-16487460D02*
X9206230Y-16496984D01*
X9206230Y-16496984D02*
X9244325Y-16496984D01*
X9244325Y-16496984D02*
X9263373Y-16487460D01*
X9263373Y-16487460D02*
X9272896Y-16468412D01*
X9272896Y-16468412D02*
X9272896Y-16458888D01*
X9272896Y-16458888D02*
X9263373Y-16439841D01*
X9263373Y-16439841D02*
X9244325Y-16430317D01*
X9244325Y-16430317D02*
X9215753Y-16430317D01*
X9215753Y-16430317D02*
X9196706Y-16420793D01*
X9196706Y-16420793D02*
X9187182Y-16401746D01*
X9187182Y-16401746D02*
X9187182Y-16392222D01*
X9187182Y-16392222D02*
X9196706Y-16373174D01*
X9196706Y-16373174D02*
X9215753Y-16363650D01*
X9215753Y-16363650D02*
X9244325Y-16363650D01*
X9244325Y-16363650D02*
X9263373Y-16373174D01*
X9339563Y-16573174D02*
X9349087Y-16563650D01*
X9349087Y-16563650D02*
X9368134Y-16535079D01*
X9368134Y-16535079D02*
X9377658Y-16516031D01*
X9377658Y-16516031D02*
X9387182Y-16487460D01*
X9387182Y-16487460D02*
X9396706Y-16439841D01*
X9396706Y-16439841D02*
X9396706Y-16401746D01*
X9396706Y-16401746D02*
X9387182Y-16354127D01*
X9387182Y-16354127D02*
X9377658Y-16325555D01*
X9377658Y-16325555D02*
X9368134Y-16306508D01*
X9368134Y-16306508D02*
X9349087Y-16277936D01*
X9349087Y-16277936D02*
X9339563Y-16268412D01*
D12*
X4519500Y-16624500D02*
X4519500Y-16714500D01*
X4474500Y-16669500D02*
X4564500Y-16669500D01*
D11*
X4863372Y-16560984D02*
X4882420Y-16560984D01*
X4882420Y-16560984D02*
X4901467Y-16570508D01*
X4901467Y-16570508D02*
X4910991Y-16580031D01*
X4910991Y-16580031D02*
X4920515Y-16599079D01*
X4920515Y-16599079D02*
X4930039Y-16637174D01*
X4930039Y-16637174D02*
X4930039Y-16684793D01*
X4930039Y-16684793D02*
X4920515Y-16722888D01*
X4920515Y-16722888D02*
X4910991Y-16741936D01*
X4910991Y-16741936D02*
X4901467Y-16751460D01*
X4901467Y-16751460D02*
X4882420Y-16760984D01*
X4882420Y-16760984D02*
X4863372Y-16760984D01*
X4863372Y-16760984D02*
X4844324Y-16751460D01*
X4844324Y-16751460D02*
X4834801Y-16741936D01*
X4834801Y-16741936D02*
X4825277Y-16722888D01*
X4825277Y-16722888D02*
X4815753Y-16684793D01*
X4815753Y-16684793D02*
X4815753Y-16637174D01*
X4815753Y-16637174D02*
X4825277Y-16599079D01*
X4825277Y-16599079D02*
X4834801Y-16580031D01*
X4834801Y-16580031D02*
X4844324Y-16570508D01*
X4844324Y-16570508D02*
X4863372Y-16560984D01*
X5015753Y-16741936D02*
X5025277Y-16751460D01*
X5025277Y-16751460D02*
X5015753Y-16760984D01*
X5015753Y-16760984D02*
X5006229Y-16751460D01*
X5006229Y-16751460D02*
X5015753Y-16741936D01*
X5015753Y-16741936D02*
X5015753Y-16760984D01*
X5120515Y-16760984D02*
X5158610Y-16760984D01*
X5158610Y-16760984D02*
X5177658Y-16751460D01*
X5177658Y-16751460D02*
X5187182Y-16741936D01*
X5187182Y-16741936D02*
X5206229Y-16713365D01*
X5206229Y-16713365D02*
X5215753Y-16675269D01*
X5215753Y-16675269D02*
X5215753Y-16599079D01*
X5215753Y-16599079D02*
X5206229Y-16580031D01*
X5206229Y-16580031D02*
X5196705Y-16570508D01*
X5196705Y-16570508D02*
X5177658Y-16560984D01*
X5177658Y-16560984D02*
X5139563Y-16560984D01*
X5139563Y-16560984D02*
X5120515Y-16570508D01*
X5120515Y-16570508D02*
X5110991Y-16580031D01*
X5110991Y-16580031D02*
X5101467Y-16599079D01*
X5101467Y-16599079D02*
X5101467Y-16646698D01*
X5101467Y-16646698D02*
X5110991Y-16665746D01*
X5110991Y-16665746D02*
X5120515Y-16675269D01*
X5120515Y-16675269D02*
X5139563Y-16684793D01*
X5139563Y-16684793D02*
X5177658Y-16684793D01*
X5177658Y-16684793D02*
X5196705Y-16675269D01*
X5196705Y-16675269D02*
X5206229Y-16665746D01*
X5206229Y-16665746D02*
X5215753Y-16646698D01*
X5339563Y-16560984D02*
X5358610Y-16560984D01*
X5358610Y-16560984D02*
X5377658Y-16570508D01*
X5377658Y-16570508D02*
X5387182Y-16580031D01*
X5387182Y-16580031D02*
X5396705Y-16599079D01*
X5396705Y-16599079D02*
X5406229Y-16637174D01*
X5406229Y-16637174D02*
X5406229Y-16684793D01*
X5406229Y-16684793D02*
X5396705Y-16722888D01*
X5396705Y-16722888D02*
X5387182Y-16741936D01*
X5387182Y-16741936D02*
X5377658Y-16751460D01*
X5377658Y-16751460D02*
X5358610Y-16760984D01*
X5358610Y-16760984D02*
X5339563Y-16760984D01*
X5339563Y-16760984D02*
X5320515Y-16751460D01*
X5320515Y-16751460D02*
X5310991Y-16741936D01*
X5310991Y-16741936D02*
X5301467Y-16722888D01*
X5301467Y-16722888D02*
X5291944Y-16684793D01*
X5291944Y-16684793D02*
X5291944Y-16637174D01*
X5291944Y-16637174D02*
X5301467Y-16599079D01*
X5301467Y-16599079D02*
X5310991Y-16580031D01*
X5310991Y-16580031D02*
X5320515Y-16570508D01*
X5320515Y-16570508D02*
X5339563Y-16560984D01*
X5530039Y-16560984D02*
X5549086Y-16560984D01*
X5549086Y-16560984D02*
X5568134Y-16570508D01*
X5568134Y-16570508D02*
X5577658Y-16580031D01*
X5577658Y-16580031D02*
X5587182Y-16599079D01*
X5587182Y-16599079D02*
X5596705Y-16637174D01*
X5596705Y-16637174D02*
X5596705Y-16684793D01*
X5596705Y-16684793D02*
X5587182Y-16722888D01*
X5587182Y-16722888D02*
X5577658Y-16741936D01*
X5577658Y-16741936D02*
X5568134Y-16751460D01*
X5568134Y-16751460D02*
X5549086Y-16760984D01*
X5549086Y-16760984D02*
X5530039Y-16760984D01*
X5530039Y-16760984D02*
X5510991Y-16751460D01*
X5510991Y-16751460D02*
X5501467Y-16741936D01*
X5501467Y-16741936D02*
X5491944Y-16722888D01*
X5491944Y-16722888D02*
X5482420Y-16684793D01*
X5482420Y-16684793D02*
X5482420Y-16637174D01*
X5482420Y-16637174D02*
X5491944Y-16599079D01*
X5491944Y-16599079D02*
X5501467Y-16580031D01*
X5501467Y-16580031D02*
X5510991Y-16570508D01*
X5510991Y-16570508D02*
X5530039Y-16560984D01*
X5682420Y-16760984D02*
X5682420Y-16627650D01*
X5682420Y-16646698D02*
X5691943Y-16637174D01*
X5691943Y-16637174D02*
X5710991Y-16627650D01*
X5710991Y-16627650D02*
X5739563Y-16627650D01*
X5739563Y-16627650D02*
X5758610Y-16637174D01*
X5758610Y-16637174D02*
X5768134Y-16656222D01*
X5768134Y-16656222D02*
X5768134Y-16760984D01*
X5768134Y-16656222D02*
X5777658Y-16637174D01*
X5777658Y-16637174D02*
X5796705Y-16627650D01*
X5796705Y-16627650D02*
X5825277Y-16627650D01*
X5825277Y-16627650D02*
X5844324Y-16637174D01*
X5844324Y-16637174D02*
X5853848Y-16656222D01*
X5853848Y-16656222D02*
X5853848Y-16760984D01*
X5949086Y-16760984D02*
X5949086Y-16627650D01*
X5949086Y-16646698D02*
X5958610Y-16637174D01*
X5958610Y-16637174D02*
X5977658Y-16627650D01*
X5977658Y-16627650D02*
X6006229Y-16627650D01*
X6006229Y-16627650D02*
X6025277Y-16637174D01*
X6025277Y-16637174D02*
X6034801Y-16656222D01*
X6034801Y-16656222D02*
X6034801Y-16760984D01*
X6034801Y-16656222D02*
X6044324Y-16637174D01*
X6044324Y-16637174D02*
X6063372Y-16627650D01*
X6063372Y-16627650D02*
X6091943Y-16627650D01*
X6091943Y-16627650D02*
X6110991Y-16637174D01*
X6110991Y-16637174D02*
X6120515Y-16656222D01*
X6120515Y-16656222D02*
X6120515Y-16760984D01*
X6510991Y-16551460D02*
X6339563Y-16808603D01*
X6768134Y-16560984D02*
X6787182Y-16560984D01*
X6787182Y-16560984D02*
X6806229Y-16570508D01*
X6806229Y-16570508D02*
X6815753Y-16580031D01*
X6815753Y-16580031D02*
X6825277Y-16599079D01*
X6825277Y-16599079D02*
X6834801Y-16637174D01*
X6834801Y-16637174D02*
X6834801Y-16684793D01*
X6834801Y-16684793D02*
X6825277Y-16722888D01*
X6825277Y-16722888D02*
X6815753Y-16741936D01*
X6815753Y-16741936D02*
X6806229Y-16751460D01*
X6806229Y-16751460D02*
X6787182Y-16760984D01*
X6787182Y-16760984D02*
X6768134Y-16760984D01*
X6768134Y-16760984D02*
X6749086Y-16751460D01*
X6749086Y-16751460D02*
X6739563Y-16741936D01*
X6739563Y-16741936D02*
X6730039Y-16722888D01*
X6730039Y-16722888D02*
X6720515Y-16684793D01*
X6720515Y-16684793D02*
X6720515Y-16637174D01*
X6720515Y-16637174D02*
X6730039Y-16599079D01*
X6730039Y-16599079D02*
X6739563Y-16580031D01*
X6739563Y-16580031D02*
X6749086Y-16570508D01*
X6749086Y-16570508D02*
X6768134Y-16560984D01*
X6920515Y-16741936D02*
X6930039Y-16751460D01*
X6930039Y-16751460D02*
X6920515Y-16760984D01*
X6920515Y-16760984D02*
X6910991Y-16751460D01*
X6910991Y-16751460D02*
X6920515Y-16741936D01*
X6920515Y-16741936D02*
X6920515Y-16760984D01*
X7053848Y-16560984D02*
X7072896Y-16560984D01*
X7072896Y-16560984D02*
X7091944Y-16570508D01*
X7091944Y-16570508D02*
X7101467Y-16580031D01*
X7101467Y-16580031D02*
X7110991Y-16599079D01*
X7110991Y-16599079D02*
X7120515Y-16637174D01*
X7120515Y-16637174D02*
X7120515Y-16684793D01*
X7120515Y-16684793D02*
X7110991Y-16722888D01*
X7110991Y-16722888D02*
X7101467Y-16741936D01*
X7101467Y-16741936D02*
X7091944Y-16751460D01*
X7091944Y-16751460D02*
X7072896Y-16760984D01*
X7072896Y-16760984D02*
X7053848Y-16760984D01*
X7053848Y-16760984D02*
X7034801Y-16751460D01*
X7034801Y-16751460D02*
X7025277Y-16741936D01*
X7025277Y-16741936D02*
X7015753Y-16722888D01*
X7015753Y-16722888D02*
X7006229Y-16684793D01*
X7006229Y-16684793D02*
X7006229Y-16637174D01*
X7006229Y-16637174D02*
X7015753Y-16599079D01*
X7015753Y-16599079D02*
X7025277Y-16580031D01*
X7025277Y-16580031D02*
X7034801Y-16570508D01*
X7034801Y-16570508D02*
X7053848Y-16560984D01*
X7187182Y-16560984D02*
X7310991Y-16560984D01*
X7310991Y-16560984D02*
X7244325Y-16637174D01*
X7244325Y-16637174D02*
X7272896Y-16637174D01*
X7272896Y-16637174D02*
X7291944Y-16646698D01*
X7291944Y-16646698D02*
X7301467Y-16656222D01*
X7301467Y-16656222D02*
X7310991Y-16675269D01*
X7310991Y-16675269D02*
X7310991Y-16722888D01*
X7310991Y-16722888D02*
X7301467Y-16741936D01*
X7301467Y-16741936D02*
X7291944Y-16751460D01*
X7291944Y-16751460D02*
X7272896Y-16760984D01*
X7272896Y-16760984D02*
X7215753Y-16760984D01*
X7215753Y-16760984D02*
X7196706Y-16751460D01*
X7196706Y-16751460D02*
X7187182Y-16741936D01*
X7491944Y-16560984D02*
X7396706Y-16560984D01*
X7396706Y-16560984D02*
X7387182Y-16656222D01*
X7387182Y-16656222D02*
X7396706Y-16646698D01*
X7396706Y-16646698D02*
X7415753Y-16637174D01*
X7415753Y-16637174D02*
X7463372Y-16637174D01*
X7463372Y-16637174D02*
X7482420Y-16646698D01*
X7482420Y-16646698D02*
X7491944Y-16656222D01*
X7491944Y-16656222D02*
X7501467Y-16675269D01*
X7501467Y-16675269D02*
X7501467Y-16722888D01*
X7501467Y-16722888D02*
X7491944Y-16741936D01*
X7491944Y-16741936D02*
X7482420Y-16751460D01*
X7482420Y-16751460D02*
X7463372Y-16760984D01*
X7463372Y-16760984D02*
X7415753Y-16760984D01*
X7415753Y-16760984D02*
X7396706Y-16751460D01*
X7396706Y-16751460D02*
X7387182Y-16741936D01*
X7672896Y-16627650D02*
X7672896Y-16760984D01*
X7625277Y-16551460D02*
X7577658Y-16694317D01*
X7577658Y-16694317D02*
X7701467Y-16694317D01*
X7768134Y-16560984D02*
X7768134Y-16599079D01*
X7844325Y-16560984D02*
X7844325Y-16599079D01*
X8139563Y-16837174D02*
X8130039Y-16827650D01*
X8130039Y-16827650D02*
X8110991Y-16799079D01*
X8110991Y-16799079D02*
X8101468Y-16780031D01*
X8101468Y-16780031D02*
X8091944Y-16751460D01*
X8091944Y-16751460D02*
X8082420Y-16703841D01*
X8082420Y-16703841D02*
X8082420Y-16665746D01*
X8082420Y-16665746D02*
X8091944Y-16618127D01*
X8091944Y-16618127D02*
X8101468Y-16589555D01*
X8101468Y-16589555D02*
X8110991Y-16570508D01*
X8110991Y-16570508D02*
X8130039Y-16541936D01*
X8130039Y-16541936D02*
X8139563Y-16532412D01*
X8301468Y-16627650D02*
X8301468Y-16760984D01*
X8253848Y-16551460D02*
X8206229Y-16694317D01*
X8206229Y-16694317D02*
X8330039Y-16694317D01*
X8558611Y-16760984D02*
X8558611Y-16560984D01*
X8644325Y-16760984D02*
X8644325Y-16656222D01*
X8644325Y-16656222D02*
X8634801Y-16637174D01*
X8634801Y-16637174D02*
X8615753Y-16627650D01*
X8615753Y-16627650D02*
X8587182Y-16627650D01*
X8587182Y-16627650D02*
X8568134Y-16637174D01*
X8568134Y-16637174D02*
X8558611Y-16646698D01*
X8768134Y-16760984D02*
X8749087Y-16751460D01*
X8749087Y-16751460D02*
X8739563Y-16741936D01*
X8739563Y-16741936D02*
X8730039Y-16722888D01*
X8730039Y-16722888D02*
X8730039Y-16665746D01*
X8730039Y-16665746D02*
X8739563Y-16646698D01*
X8739563Y-16646698D02*
X8749087Y-16637174D01*
X8749087Y-16637174D02*
X8768134Y-16627650D01*
X8768134Y-16627650D02*
X8796706Y-16627650D01*
X8796706Y-16627650D02*
X8815753Y-16637174D01*
X8815753Y-16637174D02*
X8825277Y-16646698D01*
X8825277Y-16646698D02*
X8834801Y-16665746D01*
X8834801Y-16665746D02*
X8834801Y-16722888D01*
X8834801Y-16722888D02*
X8825277Y-16741936D01*
X8825277Y-16741936D02*
X8815753Y-16751460D01*
X8815753Y-16751460D02*
X8796706Y-16760984D01*
X8796706Y-16760984D02*
X8768134Y-16760984D01*
X8949087Y-16760984D02*
X8930039Y-16751460D01*
X8930039Y-16751460D02*
X8920515Y-16732412D01*
X8920515Y-16732412D02*
X8920515Y-16560984D01*
X9101468Y-16751460D02*
X9082420Y-16760984D01*
X9082420Y-16760984D02*
X9044325Y-16760984D01*
X9044325Y-16760984D02*
X9025277Y-16751460D01*
X9025277Y-16751460D02*
X9015753Y-16732412D01*
X9015753Y-16732412D02*
X9015753Y-16656222D01*
X9015753Y-16656222D02*
X9025277Y-16637174D01*
X9025277Y-16637174D02*
X9044325Y-16627650D01*
X9044325Y-16627650D02*
X9082420Y-16627650D01*
X9082420Y-16627650D02*
X9101468Y-16637174D01*
X9101468Y-16637174D02*
X9110992Y-16656222D01*
X9110992Y-16656222D02*
X9110992Y-16675269D01*
X9110992Y-16675269D02*
X9015753Y-16694317D01*
X9187182Y-16751460D02*
X9206230Y-16760984D01*
X9206230Y-16760984D02*
X9244325Y-16760984D01*
X9244325Y-16760984D02*
X9263373Y-16751460D01*
X9263373Y-16751460D02*
X9272896Y-16732412D01*
X9272896Y-16732412D02*
X9272896Y-16722888D01*
X9272896Y-16722888D02*
X9263373Y-16703841D01*
X9263373Y-16703841D02*
X9244325Y-16694317D01*
X9244325Y-16694317D02*
X9215753Y-16694317D01*
X9215753Y-16694317D02*
X9196706Y-16684793D01*
X9196706Y-16684793D02*
X9187182Y-16665746D01*
X9187182Y-16665746D02*
X9187182Y-16656222D01*
X9187182Y-16656222D02*
X9196706Y-16637174D01*
X9196706Y-16637174D02*
X9215753Y-16627650D01*
X9215753Y-16627650D02*
X9244325Y-16627650D01*
X9244325Y-16627650D02*
X9263373Y-16637174D01*
X9339563Y-16837174D02*
X9349087Y-16827650D01*
X9349087Y-16827650D02*
X9368134Y-16799079D01*
X9368134Y-16799079D02*
X9377658Y-16780031D01*
X9377658Y-16780031D02*
X9387182Y-16751460D01*
X9387182Y-16751460D02*
X9396706Y-16703841D01*
X9396706Y-16703841D02*
X9396706Y-16665746D01*
X9396706Y-16665746D02*
X9387182Y-16618127D01*
X9387182Y-16618127D02*
X9377658Y-16589555D01*
X9377658Y-16589555D02*
X9368134Y-16570508D01*
X9368134Y-16570508D02*
X9349087Y-16541936D01*
X9349087Y-16541936D02*
X9339563Y-16532412D01*
D12*
X4549856Y-16968856D02*
X4549856Y-16898144D01*
X4479144Y-16898144D01*
X4479144Y-16968856D01*
X4549856Y-16968856D01*
D11*
X4930039Y-17024984D02*
X4815753Y-17024984D01*
X4872896Y-17024984D02*
X4872896Y-16824984D01*
X4872896Y-16824984D02*
X4853848Y-16853555D01*
X4853848Y-16853555D02*
X4834801Y-16872603D01*
X4834801Y-16872603D02*
X4815753Y-16882127D01*
X5015753Y-17005936D02*
X5025277Y-17015460D01*
X5025277Y-17015460D02*
X5015753Y-17024984D01*
X5015753Y-17024984D02*
X5006229Y-17015460D01*
X5006229Y-17015460D02*
X5015753Y-17005936D01*
X5015753Y-17005936D02*
X5015753Y-17024984D01*
X5149086Y-16824984D02*
X5168134Y-16824984D01*
X5168134Y-16824984D02*
X5187182Y-16834508D01*
X5187182Y-16834508D02*
X5196705Y-16844031D01*
X5196705Y-16844031D02*
X5206229Y-16863079D01*
X5206229Y-16863079D02*
X5215753Y-16901174D01*
X5215753Y-16901174D02*
X5215753Y-16948793D01*
X5215753Y-16948793D02*
X5206229Y-16986889D01*
X5206229Y-16986889D02*
X5196705Y-17005936D01*
X5196705Y-17005936D02*
X5187182Y-17015460D01*
X5187182Y-17015460D02*
X5168134Y-17024984D01*
X5168134Y-17024984D02*
X5149086Y-17024984D01*
X5149086Y-17024984D02*
X5130039Y-17015460D01*
X5130039Y-17015460D02*
X5120515Y-17005936D01*
X5120515Y-17005936D02*
X5110991Y-16986889D01*
X5110991Y-16986889D02*
X5101467Y-16948793D01*
X5101467Y-16948793D02*
X5101467Y-16901174D01*
X5101467Y-16901174D02*
X5110991Y-16863079D01*
X5110991Y-16863079D02*
X5120515Y-16844031D01*
X5120515Y-16844031D02*
X5130039Y-16834508D01*
X5130039Y-16834508D02*
X5149086Y-16824984D01*
X5339563Y-16824984D02*
X5358610Y-16824984D01*
X5358610Y-16824984D02*
X5377658Y-16834508D01*
X5377658Y-16834508D02*
X5387182Y-16844031D01*
X5387182Y-16844031D02*
X5396705Y-16863079D01*
X5396705Y-16863079D02*
X5406229Y-16901174D01*
X5406229Y-16901174D02*
X5406229Y-16948793D01*
X5406229Y-16948793D02*
X5396705Y-16986889D01*
X5396705Y-16986889D02*
X5387182Y-17005936D01*
X5387182Y-17005936D02*
X5377658Y-17015460D01*
X5377658Y-17015460D02*
X5358610Y-17024984D01*
X5358610Y-17024984D02*
X5339563Y-17024984D01*
X5339563Y-17024984D02*
X5320515Y-17015460D01*
X5320515Y-17015460D02*
X5310991Y-17005936D01*
X5310991Y-17005936D02*
X5301467Y-16986889D01*
X5301467Y-16986889D02*
X5291944Y-16948793D01*
X5291944Y-16948793D02*
X5291944Y-16901174D01*
X5291944Y-16901174D02*
X5301467Y-16863079D01*
X5301467Y-16863079D02*
X5310991Y-16844031D01*
X5310991Y-16844031D02*
X5320515Y-16834508D01*
X5320515Y-16834508D02*
X5339563Y-16824984D01*
X5530039Y-16824984D02*
X5549086Y-16824984D01*
X5549086Y-16824984D02*
X5568134Y-16834508D01*
X5568134Y-16834508D02*
X5577658Y-16844031D01*
X5577658Y-16844031D02*
X5587182Y-16863079D01*
X5587182Y-16863079D02*
X5596705Y-16901174D01*
X5596705Y-16901174D02*
X5596705Y-16948793D01*
X5596705Y-16948793D02*
X5587182Y-16986889D01*
X5587182Y-16986889D02*
X5577658Y-17005936D01*
X5577658Y-17005936D02*
X5568134Y-17015460D01*
X5568134Y-17015460D02*
X5549086Y-17024984D01*
X5549086Y-17024984D02*
X5530039Y-17024984D01*
X5530039Y-17024984D02*
X5510991Y-17015460D01*
X5510991Y-17015460D02*
X5501467Y-17005936D01*
X5501467Y-17005936D02*
X5491944Y-16986889D01*
X5491944Y-16986889D02*
X5482420Y-16948793D01*
X5482420Y-16948793D02*
X5482420Y-16901174D01*
X5482420Y-16901174D02*
X5491944Y-16863079D01*
X5491944Y-16863079D02*
X5501467Y-16844031D01*
X5501467Y-16844031D02*
X5510991Y-16834508D01*
X5510991Y-16834508D02*
X5530039Y-16824984D01*
X5682420Y-17024984D02*
X5682420Y-16891650D01*
X5682420Y-16910698D02*
X5691943Y-16901174D01*
X5691943Y-16901174D02*
X5710991Y-16891650D01*
X5710991Y-16891650D02*
X5739563Y-16891650D01*
X5739563Y-16891650D02*
X5758610Y-16901174D01*
X5758610Y-16901174D02*
X5768134Y-16920222D01*
X5768134Y-16920222D02*
X5768134Y-17024984D01*
X5768134Y-16920222D02*
X5777658Y-16901174D01*
X5777658Y-16901174D02*
X5796705Y-16891650D01*
X5796705Y-16891650D02*
X5825277Y-16891650D01*
X5825277Y-16891650D02*
X5844324Y-16901174D01*
X5844324Y-16901174D02*
X5853848Y-16920222D01*
X5853848Y-16920222D02*
X5853848Y-17024984D01*
X5949086Y-17024984D02*
X5949086Y-16891650D01*
X5949086Y-16910698D02*
X5958610Y-16901174D01*
X5958610Y-16901174D02*
X5977658Y-16891650D01*
X5977658Y-16891650D02*
X6006229Y-16891650D01*
X6006229Y-16891650D02*
X6025277Y-16901174D01*
X6025277Y-16901174D02*
X6034801Y-16920222D01*
X6034801Y-16920222D02*
X6034801Y-17024984D01*
X6034801Y-16920222D02*
X6044324Y-16901174D01*
X6044324Y-16901174D02*
X6063372Y-16891650D01*
X6063372Y-16891650D02*
X6091943Y-16891650D01*
X6091943Y-16891650D02*
X6110991Y-16901174D01*
X6110991Y-16901174D02*
X6120515Y-16920222D01*
X6120515Y-16920222D02*
X6120515Y-17024984D01*
X6510991Y-16815460D02*
X6339563Y-17072603D01*
X6768134Y-16824984D02*
X6787182Y-16824984D01*
X6787182Y-16824984D02*
X6806229Y-16834508D01*
X6806229Y-16834508D02*
X6815753Y-16844031D01*
X6815753Y-16844031D02*
X6825277Y-16863079D01*
X6825277Y-16863079D02*
X6834801Y-16901174D01*
X6834801Y-16901174D02*
X6834801Y-16948793D01*
X6834801Y-16948793D02*
X6825277Y-16986889D01*
X6825277Y-16986889D02*
X6815753Y-17005936D01*
X6815753Y-17005936D02*
X6806229Y-17015460D01*
X6806229Y-17015460D02*
X6787182Y-17024984D01*
X6787182Y-17024984D02*
X6768134Y-17024984D01*
X6768134Y-17024984D02*
X6749086Y-17015460D01*
X6749086Y-17015460D02*
X6739563Y-17005936D01*
X6739563Y-17005936D02*
X6730039Y-16986889D01*
X6730039Y-16986889D02*
X6720515Y-16948793D01*
X6720515Y-16948793D02*
X6720515Y-16901174D01*
X6720515Y-16901174D02*
X6730039Y-16863079D01*
X6730039Y-16863079D02*
X6739563Y-16844031D01*
X6739563Y-16844031D02*
X6749086Y-16834508D01*
X6749086Y-16834508D02*
X6768134Y-16824984D01*
X6920515Y-17005936D02*
X6930039Y-17015460D01*
X6930039Y-17015460D02*
X6920515Y-17024984D01*
X6920515Y-17024984D02*
X6910991Y-17015460D01*
X6910991Y-17015460D02*
X6920515Y-17005936D01*
X6920515Y-17005936D02*
X6920515Y-17024984D01*
X7053848Y-16824984D02*
X7072896Y-16824984D01*
X7072896Y-16824984D02*
X7091944Y-16834508D01*
X7091944Y-16834508D02*
X7101467Y-16844031D01*
X7101467Y-16844031D02*
X7110991Y-16863079D01*
X7110991Y-16863079D02*
X7120515Y-16901174D01*
X7120515Y-16901174D02*
X7120515Y-16948793D01*
X7120515Y-16948793D02*
X7110991Y-16986889D01*
X7110991Y-16986889D02*
X7101467Y-17005936D01*
X7101467Y-17005936D02*
X7091944Y-17015460D01*
X7091944Y-17015460D02*
X7072896Y-17024984D01*
X7072896Y-17024984D02*
X7053848Y-17024984D01*
X7053848Y-17024984D02*
X7034801Y-17015460D01*
X7034801Y-17015460D02*
X7025277Y-17005936D01*
X7025277Y-17005936D02*
X7015753Y-16986889D01*
X7015753Y-16986889D02*
X7006229Y-16948793D01*
X7006229Y-16948793D02*
X7006229Y-16901174D01*
X7006229Y-16901174D02*
X7015753Y-16863079D01*
X7015753Y-16863079D02*
X7025277Y-16844031D01*
X7025277Y-16844031D02*
X7034801Y-16834508D01*
X7034801Y-16834508D02*
X7053848Y-16824984D01*
X7187182Y-16824984D02*
X7310991Y-16824984D01*
X7310991Y-16824984D02*
X7244325Y-16901174D01*
X7244325Y-16901174D02*
X7272896Y-16901174D01*
X7272896Y-16901174D02*
X7291944Y-16910698D01*
X7291944Y-16910698D02*
X7301467Y-16920222D01*
X7301467Y-16920222D02*
X7310991Y-16939270D01*
X7310991Y-16939270D02*
X7310991Y-16986889D01*
X7310991Y-16986889D02*
X7301467Y-17005936D01*
X7301467Y-17005936D02*
X7291944Y-17015460D01*
X7291944Y-17015460D02*
X7272896Y-17024984D01*
X7272896Y-17024984D02*
X7215753Y-17024984D01*
X7215753Y-17024984D02*
X7196706Y-17015460D01*
X7196706Y-17015460D02*
X7187182Y-17005936D01*
X7406229Y-17024984D02*
X7444325Y-17024984D01*
X7444325Y-17024984D02*
X7463372Y-17015460D01*
X7463372Y-17015460D02*
X7472896Y-17005936D01*
X7472896Y-17005936D02*
X7491944Y-16977365D01*
X7491944Y-16977365D02*
X7501467Y-16939270D01*
X7501467Y-16939270D02*
X7501467Y-16863079D01*
X7501467Y-16863079D02*
X7491944Y-16844031D01*
X7491944Y-16844031D02*
X7482420Y-16834508D01*
X7482420Y-16834508D02*
X7463372Y-16824984D01*
X7463372Y-16824984D02*
X7425277Y-16824984D01*
X7425277Y-16824984D02*
X7406229Y-16834508D01*
X7406229Y-16834508D02*
X7396706Y-16844031D01*
X7396706Y-16844031D02*
X7387182Y-16863079D01*
X7387182Y-16863079D02*
X7387182Y-16910698D01*
X7387182Y-16910698D02*
X7396706Y-16929746D01*
X7396706Y-16929746D02*
X7406229Y-16939270D01*
X7406229Y-16939270D02*
X7425277Y-16948793D01*
X7425277Y-16948793D02*
X7463372Y-16948793D01*
X7463372Y-16948793D02*
X7482420Y-16939270D01*
X7482420Y-16939270D02*
X7491944Y-16929746D01*
X7491944Y-16929746D02*
X7501467Y-16910698D01*
X7672896Y-16891650D02*
X7672896Y-17024984D01*
X7625277Y-16815460D02*
X7577658Y-16958317D01*
X7577658Y-16958317D02*
X7701467Y-16958317D01*
X7768134Y-16824984D02*
X7768134Y-16863079D01*
X7844325Y-16824984D02*
X7844325Y-16863079D01*
X8139563Y-17101174D02*
X8130039Y-17091650D01*
X8130039Y-17091650D02*
X8110991Y-17063079D01*
X8110991Y-17063079D02*
X8101468Y-17044031D01*
X8101468Y-17044031D02*
X8091944Y-17015460D01*
X8091944Y-17015460D02*
X8082420Y-16967841D01*
X8082420Y-16967841D02*
X8082420Y-16929746D01*
X8082420Y-16929746D02*
X8091944Y-16882127D01*
X8091944Y-16882127D02*
X8101468Y-16853555D01*
X8101468Y-16853555D02*
X8110991Y-16834508D01*
X8110991Y-16834508D02*
X8130039Y-16805936D01*
X8130039Y-16805936D02*
X8139563Y-16796412D01*
X8196706Y-16824984D02*
X8320515Y-16824984D01*
X8320515Y-16824984D02*
X8253848Y-16901174D01*
X8253848Y-16901174D02*
X8282420Y-16901174D01*
X8282420Y-16901174D02*
X8301468Y-16910698D01*
X8301468Y-16910698D02*
X8310991Y-16920222D01*
X8310991Y-16920222D02*
X8320515Y-16939270D01*
X8320515Y-16939270D02*
X8320515Y-16986889D01*
X8320515Y-16986889D02*
X8310991Y-17005936D01*
X8310991Y-17005936D02*
X8301468Y-17015460D01*
X8301468Y-17015460D02*
X8282420Y-17024984D01*
X8282420Y-17024984D02*
X8225277Y-17024984D01*
X8225277Y-17024984D02*
X8206229Y-17015460D01*
X8206229Y-17015460D02*
X8196706Y-17005936D01*
X8491944Y-16824984D02*
X8453849Y-16824984D01*
X8453849Y-16824984D02*
X8434801Y-16834508D01*
X8434801Y-16834508D02*
X8425277Y-16844031D01*
X8425277Y-16844031D02*
X8406230Y-16872603D01*
X8406230Y-16872603D02*
X8396706Y-16910698D01*
X8396706Y-16910698D02*
X8396706Y-16986889D01*
X8396706Y-16986889D02*
X8406230Y-17005936D01*
X8406230Y-17005936D02*
X8415753Y-17015460D01*
X8415753Y-17015460D02*
X8434801Y-17024984D01*
X8434801Y-17024984D02*
X8472896Y-17024984D01*
X8472896Y-17024984D02*
X8491944Y-17015460D01*
X8491944Y-17015460D02*
X8501468Y-17005936D01*
X8501468Y-17005936D02*
X8510991Y-16986889D01*
X8510991Y-16986889D02*
X8510991Y-16939270D01*
X8510991Y-16939270D02*
X8501468Y-16920222D01*
X8501468Y-16920222D02*
X8491944Y-16910698D01*
X8491944Y-16910698D02*
X8472896Y-16901174D01*
X8472896Y-16901174D02*
X8434801Y-16901174D01*
X8434801Y-16901174D02*
X8415753Y-16910698D01*
X8415753Y-16910698D02*
X8406230Y-16920222D01*
X8406230Y-16920222D02*
X8396706Y-16939270D01*
X8749087Y-17024984D02*
X8749087Y-16824984D01*
X8834801Y-17024984D02*
X8834801Y-16920222D01*
X8834801Y-16920222D02*
X8825277Y-16901174D01*
X8825277Y-16901174D02*
X8806230Y-16891650D01*
X8806230Y-16891650D02*
X8777658Y-16891650D01*
X8777658Y-16891650D02*
X8758611Y-16901174D01*
X8758611Y-16901174D02*
X8749087Y-16910698D01*
X8958611Y-17024984D02*
X8939563Y-17015460D01*
X8939563Y-17015460D02*
X8930039Y-17005936D01*
X8930039Y-17005936D02*
X8920515Y-16986889D01*
X8920515Y-16986889D02*
X8920515Y-16929746D01*
X8920515Y-16929746D02*
X8930039Y-16910698D01*
X8930039Y-16910698D02*
X8939563Y-16901174D01*
X8939563Y-16901174D02*
X8958611Y-16891650D01*
X8958611Y-16891650D02*
X8987182Y-16891650D01*
X8987182Y-16891650D02*
X9006230Y-16901174D01*
X9006230Y-16901174D02*
X9015753Y-16910698D01*
X9015753Y-16910698D02*
X9025277Y-16929746D01*
X9025277Y-16929746D02*
X9025277Y-16986889D01*
X9025277Y-16986889D02*
X9015753Y-17005936D01*
X9015753Y-17005936D02*
X9006230Y-17015460D01*
X9006230Y-17015460D02*
X8987182Y-17024984D01*
X8987182Y-17024984D02*
X8958611Y-17024984D01*
X9139563Y-17024984D02*
X9120515Y-17015460D01*
X9120515Y-17015460D02*
X9110992Y-16996412D01*
X9110992Y-16996412D02*
X9110992Y-16824984D01*
X9291944Y-17015460D02*
X9272896Y-17024984D01*
X9272896Y-17024984D02*
X9234801Y-17024984D01*
X9234801Y-17024984D02*
X9215753Y-17015460D01*
X9215753Y-17015460D02*
X9206230Y-16996412D01*
X9206230Y-16996412D02*
X9206230Y-16920222D01*
X9206230Y-16920222D02*
X9215753Y-16901174D01*
X9215753Y-16901174D02*
X9234801Y-16891650D01*
X9234801Y-16891650D02*
X9272896Y-16891650D01*
X9272896Y-16891650D02*
X9291944Y-16901174D01*
X9291944Y-16901174D02*
X9301468Y-16920222D01*
X9301468Y-16920222D02*
X9301468Y-16939270D01*
X9301468Y-16939270D02*
X9206230Y-16958317D01*
X9377658Y-17015460D02*
X9396706Y-17024984D01*
X9396706Y-17024984D02*
X9434801Y-17024984D01*
X9434801Y-17024984D02*
X9453849Y-17015460D01*
X9453849Y-17015460D02*
X9463373Y-16996412D01*
X9463373Y-16996412D02*
X9463373Y-16986889D01*
X9463373Y-16986889D02*
X9453849Y-16967841D01*
X9453849Y-16967841D02*
X9434801Y-16958317D01*
X9434801Y-16958317D02*
X9406230Y-16958317D01*
X9406230Y-16958317D02*
X9387182Y-16948793D01*
X9387182Y-16948793D02*
X9377658Y-16929746D01*
X9377658Y-16929746D02*
X9377658Y-16920222D01*
X9377658Y-16920222D02*
X9387182Y-16901174D01*
X9387182Y-16901174D02*
X9406230Y-16891650D01*
X9406230Y-16891650D02*
X9434801Y-16891650D01*
X9434801Y-16891650D02*
X9453849Y-16901174D01*
X9530039Y-17101174D02*
X9539563Y-17091650D01*
X9539563Y-17091650D02*
X9558611Y-17063079D01*
X9558611Y-17063079D02*
X9568134Y-17044031D01*
X9568134Y-17044031D02*
X9577658Y-17015460D01*
X9577658Y-17015460D02*
X9587182Y-16967841D01*
X9587182Y-16967841D02*
X9587182Y-16929746D01*
X9587182Y-16929746D02*
X9577658Y-16882127D01*
X9577658Y-16882127D02*
X9568134Y-16853555D01*
X9568134Y-16853555D02*
X9558611Y-16834508D01*
X9558611Y-16834508D02*
X9539563Y-16805936D01*
X9539563Y-16805936D02*
X9530039Y-16796412D01*
D13*
X4499500Y-17262500D02*
X4564500Y-17197500D01*
X4499500Y-17132500D01*
X4434500Y-17197500D01*
X4499500Y-17262500D01*
D11*
X4930039Y-17288984D02*
X4815753Y-17288984D01*
X4872896Y-17288984D02*
X4872896Y-17088984D01*
X4872896Y-17088984D02*
X4853848Y-17117555D01*
X4853848Y-17117555D02*
X4834801Y-17136603D01*
X4834801Y-17136603D02*
X4815753Y-17146127D01*
X5015753Y-17269936D02*
X5025277Y-17279460D01*
X5025277Y-17279460D02*
X5015753Y-17288984D01*
X5015753Y-17288984D02*
X5006229Y-17279460D01*
X5006229Y-17279460D02*
X5015753Y-17269936D01*
X5015753Y-17269936D02*
X5015753Y-17288984D01*
X5091944Y-17088984D02*
X5215753Y-17088984D01*
X5215753Y-17088984D02*
X5149086Y-17165174D01*
X5149086Y-17165174D02*
X5177658Y-17165174D01*
X5177658Y-17165174D02*
X5196705Y-17174698D01*
X5196705Y-17174698D02*
X5206229Y-17184222D01*
X5206229Y-17184222D02*
X5215753Y-17203270D01*
X5215753Y-17203270D02*
X5215753Y-17250889D01*
X5215753Y-17250889D02*
X5206229Y-17269936D01*
X5206229Y-17269936D02*
X5196705Y-17279460D01*
X5196705Y-17279460D02*
X5177658Y-17288984D01*
X5177658Y-17288984D02*
X5120515Y-17288984D01*
X5120515Y-17288984D02*
X5101467Y-17279460D01*
X5101467Y-17279460D02*
X5091944Y-17269936D01*
X5339563Y-17088984D02*
X5358610Y-17088984D01*
X5358610Y-17088984D02*
X5377658Y-17098508D01*
X5377658Y-17098508D02*
X5387182Y-17108031D01*
X5387182Y-17108031D02*
X5396705Y-17127079D01*
X5396705Y-17127079D02*
X5406229Y-17165174D01*
X5406229Y-17165174D02*
X5406229Y-17212793D01*
X5406229Y-17212793D02*
X5396705Y-17250889D01*
X5396705Y-17250889D02*
X5387182Y-17269936D01*
X5387182Y-17269936D02*
X5377658Y-17279460D01*
X5377658Y-17279460D02*
X5358610Y-17288984D01*
X5358610Y-17288984D02*
X5339563Y-17288984D01*
X5339563Y-17288984D02*
X5320515Y-17279460D01*
X5320515Y-17279460D02*
X5310991Y-17269936D01*
X5310991Y-17269936D02*
X5301467Y-17250889D01*
X5301467Y-17250889D02*
X5291944Y-17212793D01*
X5291944Y-17212793D02*
X5291944Y-17165174D01*
X5291944Y-17165174D02*
X5301467Y-17127079D01*
X5301467Y-17127079D02*
X5310991Y-17108031D01*
X5310991Y-17108031D02*
X5320515Y-17098508D01*
X5320515Y-17098508D02*
X5339563Y-17088984D01*
X5530039Y-17088984D02*
X5549086Y-17088984D01*
X5549086Y-17088984D02*
X5568134Y-17098508D01*
X5568134Y-17098508D02*
X5577658Y-17108031D01*
X5577658Y-17108031D02*
X5587182Y-17127079D01*
X5587182Y-17127079D02*
X5596705Y-17165174D01*
X5596705Y-17165174D02*
X5596705Y-17212793D01*
X5596705Y-17212793D02*
X5587182Y-17250889D01*
X5587182Y-17250889D02*
X5577658Y-17269936D01*
X5577658Y-17269936D02*
X5568134Y-17279460D01*
X5568134Y-17279460D02*
X5549086Y-17288984D01*
X5549086Y-17288984D02*
X5530039Y-17288984D01*
X5530039Y-17288984D02*
X5510991Y-17279460D01*
X5510991Y-17279460D02*
X5501467Y-17269936D01*
X5501467Y-17269936D02*
X5491944Y-17250889D01*
X5491944Y-17250889D02*
X5482420Y-17212793D01*
X5482420Y-17212793D02*
X5482420Y-17165174D01*
X5482420Y-17165174D02*
X5491944Y-17127079D01*
X5491944Y-17127079D02*
X5501467Y-17108031D01*
X5501467Y-17108031D02*
X5510991Y-17098508D01*
X5510991Y-17098508D02*
X5530039Y-17088984D01*
X5682420Y-17288984D02*
X5682420Y-17155650D01*
X5682420Y-17174698D02*
X5691943Y-17165174D01*
X5691943Y-17165174D02*
X5710991Y-17155650D01*
X5710991Y-17155650D02*
X5739563Y-17155650D01*
X5739563Y-17155650D02*
X5758610Y-17165174D01*
X5758610Y-17165174D02*
X5768134Y-17184222D01*
X5768134Y-17184222D02*
X5768134Y-17288984D01*
X5768134Y-17184222D02*
X5777658Y-17165174D01*
X5777658Y-17165174D02*
X5796705Y-17155650D01*
X5796705Y-17155650D02*
X5825277Y-17155650D01*
X5825277Y-17155650D02*
X5844324Y-17165174D01*
X5844324Y-17165174D02*
X5853848Y-17184222D01*
X5853848Y-17184222D02*
X5853848Y-17288984D01*
X5949086Y-17288984D02*
X5949086Y-17155650D01*
X5949086Y-17174698D02*
X5958610Y-17165174D01*
X5958610Y-17165174D02*
X5977658Y-17155650D01*
X5977658Y-17155650D02*
X6006229Y-17155650D01*
X6006229Y-17155650D02*
X6025277Y-17165174D01*
X6025277Y-17165174D02*
X6034801Y-17184222D01*
X6034801Y-17184222D02*
X6034801Y-17288984D01*
X6034801Y-17184222D02*
X6044324Y-17165174D01*
X6044324Y-17165174D02*
X6063372Y-17155650D01*
X6063372Y-17155650D02*
X6091943Y-17155650D01*
X6091943Y-17155650D02*
X6110991Y-17165174D01*
X6110991Y-17165174D02*
X6120515Y-17184222D01*
X6120515Y-17184222D02*
X6120515Y-17288984D01*
X6510991Y-17079460D02*
X6339563Y-17336603D01*
X6768134Y-17088984D02*
X6787182Y-17088984D01*
X6787182Y-17088984D02*
X6806229Y-17098508D01*
X6806229Y-17098508D02*
X6815753Y-17108031D01*
X6815753Y-17108031D02*
X6825277Y-17127079D01*
X6825277Y-17127079D02*
X6834801Y-17165174D01*
X6834801Y-17165174D02*
X6834801Y-17212793D01*
X6834801Y-17212793D02*
X6825277Y-17250889D01*
X6825277Y-17250889D02*
X6815753Y-17269936D01*
X6815753Y-17269936D02*
X6806229Y-17279460D01*
X6806229Y-17279460D02*
X6787182Y-17288984D01*
X6787182Y-17288984D02*
X6768134Y-17288984D01*
X6768134Y-17288984D02*
X6749086Y-17279460D01*
X6749086Y-17279460D02*
X6739563Y-17269936D01*
X6739563Y-17269936D02*
X6730039Y-17250889D01*
X6730039Y-17250889D02*
X6720515Y-17212793D01*
X6720515Y-17212793D02*
X6720515Y-17165174D01*
X6720515Y-17165174D02*
X6730039Y-17127079D01*
X6730039Y-17127079D02*
X6739563Y-17108031D01*
X6739563Y-17108031D02*
X6749086Y-17098508D01*
X6749086Y-17098508D02*
X6768134Y-17088984D01*
X6920515Y-17269936D02*
X6930039Y-17279460D01*
X6930039Y-17279460D02*
X6920515Y-17288984D01*
X6920515Y-17288984D02*
X6910991Y-17279460D01*
X6910991Y-17279460D02*
X6920515Y-17269936D01*
X6920515Y-17269936D02*
X6920515Y-17288984D01*
X7053848Y-17088984D02*
X7072896Y-17088984D01*
X7072896Y-17088984D02*
X7091944Y-17098508D01*
X7091944Y-17098508D02*
X7101467Y-17108031D01*
X7101467Y-17108031D02*
X7110991Y-17127079D01*
X7110991Y-17127079D02*
X7120515Y-17165174D01*
X7120515Y-17165174D02*
X7120515Y-17212793D01*
X7120515Y-17212793D02*
X7110991Y-17250889D01*
X7110991Y-17250889D02*
X7101467Y-17269936D01*
X7101467Y-17269936D02*
X7091944Y-17279460D01*
X7091944Y-17279460D02*
X7072896Y-17288984D01*
X7072896Y-17288984D02*
X7053848Y-17288984D01*
X7053848Y-17288984D02*
X7034801Y-17279460D01*
X7034801Y-17279460D02*
X7025277Y-17269936D01*
X7025277Y-17269936D02*
X7015753Y-17250889D01*
X7015753Y-17250889D02*
X7006229Y-17212793D01*
X7006229Y-17212793D02*
X7006229Y-17165174D01*
X7006229Y-17165174D02*
X7015753Y-17127079D01*
X7015753Y-17127079D02*
X7025277Y-17108031D01*
X7025277Y-17108031D02*
X7034801Y-17098508D01*
X7034801Y-17098508D02*
X7053848Y-17088984D01*
X7301467Y-17088984D02*
X7206229Y-17088984D01*
X7206229Y-17088984D02*
X7196706Y-17184222D01*
X7196706Y-17184222D02*
X7206229Y-17174698D01*
X7206229Y-17174698D02*
X7225277Y-17165174D01*
X7225277Y-17165174D02*
X7272896Y-17165174D01*
X7272896Y-17165174D02*
X7291944Y-17174698D01*
X7291944Y-17174698D02*
X7301467Y-17184222D01*
X7301467Y-17184222D02*
X7310991Y-17203270D01*
X7310991Y-17203270D02*
X7310991Y-17250889D01*
X7310991Y-17250889D02*
X7301467Y-17269936D01*
X7301467Y-17269936D02*
X7291944Y-17279460D01*
X7291944Y-17279460D02*
X7272896Y-17288984D01*
X7272896Y-17288984D02*
X7225277Y-17288984D01*
X7225277Y-17288984D02*
X7206229Y-17279460D01*
X7206229Y-17279460D02*
X7196706Y-17269936D01*
X7501467Y-17288984D02*
X7387182Y-17288984D01*
X7444325Y-17288984D02*
X7444325Y-17088984D01*
X7444325Y-17088984D02*
X7425277Y-17117555D01*
X7425277Y-17117555D02*
X7406229Y-17136603D01*
X7406229Y-17136603D02*
X7387182Y-17146127D01*
X7577658Y-17108031D02*
X7587182Y-17098508D01*
X7587182Y-17098508D02*
X7606229Y-17088984D01*
X7606229Y-17088984D02*
X7653848Y-17088984D01*
X7653848Y-17088984D02*
X7672896Y-17098508D01*
X7672896Y-17098508D02*
X7682420Y-17108031D01*
X7682420Y-17108031D02*
X7691944Y-17127079D01*
X7691944Y-17127079D02*
X7691944Y-17146127D01*
X7691944Y-17146127D02*
X7682420Y-17174698D01*
X7682420Y-17174698D02*
X7568134Y-17288984D01*
X7568134Y-17288984D02*
X7691944Y-17288984D01*
X7768134Y-17088984D02*
X7768134Y-17127079D01*
X7844325Y-17088984D02*
X7844325Y-17127079D01*
X8139563Y-17365174D02*
X8130039Y-17355650D01*
X8130039Y-17355650D02*
X8110991Y-17327079D01*
X8110991Y-17327079D02*
X8101468Y-17308031D01*
X8101468Y-17308031D02*
X8091944Y-17279460D01*
X8091944Y-17279460D02*
X8082420Y-17231841D01*
X8082420Y-17231841D02*
X8082420Y-17193746D01*
X8082420Y-17193746D02*
X8091944Y-17146127D01*
X8091944Y-17146127D02*
X8101468Y-17117555D01*
X8101468Y-17117555D02*
X8110991Y-17098508D01*
X8110991Y-17098508D02*
X8130039Y-17069936D01*
X8130039Y-17069936D02*
X8139563Y-17060412D01*
X8301468Y-17088984D02*
X8263372Y-17088984D01*
X8263372Y-17088984D02*
X8244325Y-17098508D01*
X8244325Y-17098508D02*
X8234801Y-17108031D01*
X8234801Y-17108031D02*
X8215753Y-17136603D01*
X8215753Y-17136603D02*
X8206229Y-17174698D01*
X8206229Y-17174698D02*
X8206229Y-17250889D01*
X8206229Y-17250889D02*
X8215753Y-17269936D01*
X8215753Y-17269936D02*
X8225277Y-17279460D01*
X8225277Y-17279460D02*
X8244325Y-17288984D01*
X8244325Y-17288984D02*
X8282420Y-17288984D01*
X8282420Y-17288984D02*
X8301468Y-17279460D01*
X8301468Y-17279460D02*
X8310991Y-17269936D01*
X8310991Y-17269936D02*
X8320515Y-17250889D01*
X8320515Y-17250889D02*
X8320515Y-17203270D01*
X8320515Y-17203270D02*
X8310991Y-17184222D01*
X8310991Y-17184222D02*
X8301468Y-17174698D01*
X8301468Y-17174698D02*
X8282420Y-17165174D01*
X8282420Y-17165174D02*
X8244325Y-17165174D01*
X8244325Y-17165174D02*
X8225277Y-17174698D01*
X8225277Y-17174698D02*
X8215753Y-17184222D01*
X8215753Y-17184222D02*
X8206229Y-17203270D01*
X8558611Y-17288984D02*
X8558611Y-17088984D01*
X8644325Y-17288984D02*
X8644325Y-17184222D01*
X8644325Y-17184222D02*
X8634801Y-17165174D01*
X8634801Y-17165174D02*
X8615753Y-17155650D01*
X8615753Y-17155650D02*
X8587182Y-17155650D01*
X8587182Y-17155650D02*
X8568134Y-17165174D01*
X8568134Y-17165174D02*
X8558611Y-17174698D01*
X8768134Y-17288984D02*
X8749087Y-17279460D01*
X8749087Y-17279460D02*
X8739563Y-17269936D01*
X8739563Y-17269936D02*
X8730039Y-17250889D01*
X8730039Y-17250889D02*
X8730039Y-17193746D01*
X8730039Y-17193746D02*
X8739563Y-17174698D01*
X8739563Y-17174698D02*
X8749087Y-17165174D01*
X8749087Y-17165174D02*
X8768134Y-17155650D01*
X8768134Y-17155650D02*
X8796706Y-17155650D01*
X8796706Y-17155650D02*
X8815753Y-17165174D01*
X8815753Y-17165174D02*
X8825277Y-17174698D01*
X8825277Y-17174698D02*
X8834801Y-17193746D01*
X8834801Y-17193746D02*
X8834801Y-17250889D01*
X8834801Y-17250889D02*
X8825277Y-17269936D01*
X8825277Y-17269936D02*
X8815753Y-17279460D01*
X8815753Y-17279460D02*
X8796706Y-17288984D01*
X8796706Y-17288984D02*
X8768134Y-17288984D01*
X8949087Y-17288984D02*
X8930039Y-17279460D01*
X8930039Y-17279460D02*
X8920515Y-17260412D01*
X8920515Y-17260412D02*
X8920515Y-17088984D01*
X9101468Y-17279460D02*
X9082420Y-17288984D01*
X9082420Y-17288984D02*
X9044325Y-17288984D01*
X9044325Y-17288984D02*
X9025277Y-17279460D01*
X9025277Y-17279460D02*
X9015753Y-17260412D01*
X9015753Y-17260412D02*
X9015753Y-17184222D01*
X9015753Y-17184222D02*
X9025277Y-17165174D01*
X9025277Y-17165174D02*
X9044325Y-17155650D01*
X9044325Y-17155650D02*
X9082420Y-17155650D01*
X9082420Y-17155650D02*
X9101468Y-17165174D01*
X9101468Y-17165174D02*
X9110992Y-17184222D01*
X9110992Y-17184222D02*
X9110992Y-17203270D01*
X9110992Y-17203270D02*
X9015753Y-17222317D01*
X9187182Y-17279460D02*
X9206230Y-17288984D01*
X9206230Y-17288984D02*
X9244325Y-17288984D01*
X9244325Y-17288984D02*
X9263373Y-17279460D01*
X9263373Y-17279460D02*
X9272896Y-17260412D01*
X9272896Y-17260412D02*
X9272896Y-17250889D01*
X9272896Y-17250889D02*
X9263373Y-17231841D01*
X9263373Y-17231841D02*
X9244325Y-17222317D01*
X9244325Y-17222317D02*
X9215753Y-17222317D01*
X9215753Y-17222317D02*
X9196706Y-17212793D01*
X9196706Y-17212793D02*
X9187182Y-17193746D01*
X9187182Y-17193746D02*
X9187182Y-17184222D01*
X9187182Y-17184222D02*
X9196706Y-17165174D01*
X9196706Y-17165174D02*
X9215753Y-17155650D01*
X9215753Y-17155650D02*
X9244325Y-17155650D01*
X9244325Y-17155650D02*
X9263373Y-17165174D01*
X9339563Y-17365174D02*
X9349087Y-17355650D01*
X9349087Y-17355650D02*
X9368134Y-17327079D01*
X9368134Y-17327079D02*
X9377658Y-17308031D01*
X9377658Y-17308031D02*
X9387182Y-17279460D01*
X9387182Y-17279460D02*
X9396706Y-17231841D01*
X9396706Y-17231841D02*
X9396706Y-17193746D01*
X9396706Y-17193746D02*
X9387182Y-17146127D01*
X9387182Y-17146127D02*
X9377658Y-17117555D01*
X9377658Y-17117555D02*
X9368134Y-17098508D01*
X9368134Y-17098508D02*
X9349087Y-17069936D01*
X9349087Y-17069936D02*
X9339563Y-17060412D01*
D14*
X4424500Y-17391500D02*
X4564500Y-17531500D01*
X4564500Y-17391500D02*
X4424500Y-17531500D01*
X4564500Y-17461500D02*
G75*
G02*
X4424500Y-17461500I-70000J0D01*
G01*
X4424500Y-17461500D02*
G75*
G02*
X4564500Y-17461500I70000J0D01*
G01*
D11*
X4930039Y-17552984D02*
X4815753Y-17552984D01*
X4872896Y-17552984D02*
X4872896Y-17352984D01*
X4872896Y-17352984D02*
X4853848Y-17381555D01*
X4853848Y-17381555D02*
X4834801Y-17400603D01*
X4834801Y-17400603D02*
X4815753Y-17410127D01*
X5015753Y-17533936D02*
X5025277Y-17543460D01*
X5025277Y-17543460D02*
X5015753Y-17552984D01*
X5015753Y-17552984D02*
X5006229Y-17543460D01*
X5006229Y-17543460D02*
X5015753Y-17533936D01*
X5015753Y-17533936D02*
X5015753Y-17552984D01*
X5196705Y-17419650D02*
X5196705Y-17552984D01*
X5149086Y-17343460D02*
X5101467Y-17486317D01*
X5101467Y-17486317D02*
X5225277Y-17486317D01*
X5339563Y-17352984D02*
X5358610Y-17352984D01*
X5358610Y-17352984D02*
X5377658Y-17362508D01*
X5377658Y-17362508D02*
X5387182Y-17372031D01*
X5387182Y-17372031D02*
X5396705Y-17391079D01*
X5396705Y-17391079D02*
X5406229Y-17429174D01*
X5406229Y-17429174D02*
X5406229Y-17476793D01*
X5406229Y-17476793D02*
X5396705Y-17514889D01*
X5396705Y-17514889D02*
X5387182Y-17533936D01*
X5387182Y-17533936D02*
X5377658Y-17543460D01*
X5377658Y-17543460D02*
X5358610Y-17552984D01*
X5358610Y-17552984D02*
X5339563Y-17552984D01*
X5339563Y-17552984D02*
X5320515Y-17543460D01*
X5320515Y-17543460D02*
X5310991Y-17533936D01*
X5310991Y-17533936D02*
X5301467Y-17514889D01*
X5301467Y-17514889D02*
X5291944Y-17476793D01*
X5291944Y-17476793D02*
X5291944Y-17429174D01*
X5291944Y-17429174D02*
X5301467Y-17391079D01*
X5301467Y-17391079D02*
X5310991Y-17372031D01*
X5310991Y-17372031D02*
X5320515Y-17362508D01*
X5320515Y-17362508D02*
X5339563Y-17352984D01*
X5530039Y-17352984D02*
X5549086Y-17352984D01*
X5549086Y-17352984D02*
X5568134Y-17362508D01*
X5568134Y-17362508D02*
X5577658Y-17372031D01*
X5577658Y-17372031D02*
X5587182Y-17391079D01*
X5587182Y-17391079D02*
X5596705Y-17429174D01*
X5596705Y-17429174D02*
X5596705Y-17476793D01*
X5596705Y-17476793D02*
X5587182Y-17514889D01*
X5587182Y-17514889D02*
X5577658Y-17533936D01*
X5577658Y-17533936D02*
X5568134Y-17543460D01*
X5568134Y-17543460D02*
X5549086Y-17552984D01*
X5549086Y-17552984D02*
X5530039Y-17552984D01*
X5530039Y-17552984D02*
X5510991Y-17543460D01*
X5510991Y-17543460D02*
X5501467Y-17533936D01*
X5501467Y-17533936D02*
X5491944Y-17514889D01*
X5491944Y-17514889D02*
X5482420Y-17476793D01*
X5482420Y-17476793D02*
X5482420Y-17429174D01*
X5482420Y-17429174D02*
X5491944Y-17391079D01*
X5491944Y-17391079D02*
X5501467Y-17372031D01*
X5501467Y-17372031D02*
X5510991Y-17362508D01*
X5510991Y-17362508D02*
X5530039Y-17352984D01*
X5682420Y-17552984D02*
X5682420Y-17419650D01*
X5682420Y-17438698D02*
X5691943Y-17429174D01*
X5691943Y-17429174D02*
X5710991Y-17419650D01*
X5710991Y-17419650D02*
X5739563Y-17419650D01*
X5739563Y-17419650D02*
X5758610Y-17429174D01*
X5758610Y-17429174D02*
X5768134Y-17448222D01*
X5768134Y-17448222D02*
X5768134Y-17552984D01*
X5768134Y-17448222D02*
X5777658Y-17429174D01*
X5777658Y-17429174D02*
X5796705Y-17419650D01*
X5796705Y-17419650D02*
X5825277Y-17419650D01*
X5825277Y-17419650D02*
X5844324Y-17429174D01*
X5844324Y-17429174D02*
X5853848Y-17448222D01*
X5853848Y-17448222D02*
X5853848Y-17552984D01*
X5949086Y-17552984D02*
X5949086Y-17419650D01*
X5949086Y-17438698D02*
X5958610Y-17429174D01*
X5958610Y-17429174D02*
X5977658Y-17419650D01*
X5977658Y-17419650D02*
X6006229Y-17419650D01*
X6006229Y-17419650D02*
X6025277Y-17429174D01*
X6025277Y-17429174D02*
X6034801Y-17448222D01*
X6034801Y-17448222D02*
X6034801Y-17552984D01*
X6034801Y-17448222D02*
X6044324Y-17429174D01*
X6044324Y-17429174D02*
X6063372Y-17419650D01*
X6063372Y-17419650D02*
X6091943Y-17419650D01*
X6091943Y-17419650D02*
X6110991Y-17429174D01*
X6110991Y-17429174D02*
X6120515Y-17448222D01*
X6120515Y-17448222D02*
X6120515Y-17552984D01*
X6510991Y-17343460D02*
X6339563Y-17600603D01*
X6768134Y-17352984D02*
X6787182Y-17352984D01*
X6787182Y-17352984D02*
X6806229Y-17362508D01*
X6806229Y-17362508D02*
X6815753Y-17372031D01*
X6815753Y-17372031D02*
X6825277Y-17391079D01*
X6825277Y-17391079D02*
X6834801Y-17429174D01*
X6834801Y-17429174D02*
X6834801Y-17476793D01*
X6834801Y-17476793D02*
X6825277Y-17514889D01*
X6825277Y-17514889D02*
X6815753Y-17533936D01*
X6815753Y-17533936D02*
X6806229Y-17543460D01*
X6806229Y-17543460D02*
X6787182Y-17552984D01*
X6787182Y-17552984D02*
X6768134Y-17552984D01*
X6768134Y-17552984D02*
X6749086Y-17543460D01*
X6749086Y-17543460D02*
X6739563Y-17533936D01*
X6739563Y-17533936D02*
X6730039Y-17514889D01*
X6730039Y-17514889D02*
X6720515Y-17476793D01*
X6720515Y-17476793D02*
X6720515Y-17429174D01*
X6720515Y-17429174D02*
X6730039Y-17391079D01*
X6730039Y-17391079D02*
X6739563Y-17372031D01*
X6739563Y-17372031D02*
X6749086Y-17362508D01*
X6749086Y-17362508D02*
X6768134Y-17352984D01*
X6920515Y-17533936D02*
X6930039Y-17543460D01*
X6930039Y-17543460D02*
X6920515Y-17552984D01*
X6920515Y-17552984D02*
X6910991Y-17543460D01*
X6910991Y-17543460D02*
X6920515Y-17533936D01*
X6920515Y-17533936D02*
X6920515Y-17552984D01*
X7053848Y-17352984D02*
X7072896Y-17352984D01*
X7072896Y-17352984D02*
X7091944Y-17362508D01*
X7091944Y-17362508D02*
X7101467Y-17372031D01*
X7101467Y-17372031D02*
X7110991Y-17391079D01*
X7110991Y-17391079D02*
X7120515Y-17429174D01*
X7120515Y-17429174D02*
X7120515Y-17476793D01*
X7120515Y-17476793D02*
X7110991Y-17514889D01*
X7110991Y-17514889D02*
X7101467Y-17533936D01*
X7101467Y-17533936D02*
X7091944Y-17543460D01*
X7091944Y-17543460D02*
X7072896Y-17552984D01*
X7072896Y-17552984D02*
X7053848Y-17552984D01*
X7053848Y-17552984D02*
X7034801Y-17543460D01*
X7034801Y-17543460D02*
X7025277Y-17533936D01*
X7025277Y-17533936D02*
X7015753Y-17514889D01*
X7015753Y-17514889D02*
X7006229Y-17476793D01*
X7006229Y-17476793D02*
X7006229Y-17429174D01*
X7006229Y-17429174D02*
X7015753Y-17391079D01*
X7015753Y-17391079D02*
X7025277Y-17372031D01*
X7025277Y-17372031D02*
X7034801Y-17362508D01*
X7034801Y-17362508D02*
X7053848Y-17352984D01*
X7301467Y-17352984D02*
X7206229Y-17352984D01*
X7206229Y-17352984D02*
X7196706Y-17448222D01*
X7196706Y-17448222D02*
X7206229Y-17438698D01*
X7206229Y-17438698D02*
X7225277Y-17429174D01*
X7225277Y-17429174D02*
X7272896Y-17429174D01*
X7272896Y-17429174D02*
X7291944Y-17438698D01*
X7291944Y-17438698D02*
X7301467Y-17448222D01*
X7301467Y-17448222D02*
X7310991Y-17467270D01*
X7310991Y-17467270D02*
X7310991Y-17514889D01*
X7310991Y-17514889D02*
X7301467Y-17533936D01*
X7301467Y-17533936D02*
X7291944Y-17543460D01*
X7291944Y-17543460D02*
X7272896Y-17552984D01*
X7272896Y-17552984D02*
X7225277Y-17552984D01*
X7225277Y-17552984D02*
X7206229Y-17543460D01*
X7206229Y-17543460D02*
X7196706Y-17533936D01*
X7491944Y-17352984D02*
X7396706Y-17352984D01*
X7396706Y-17352984D02*
X7387182Y-17448222D01*
X7387182Y-17448222D02*
X7396706Y-17438698D01*
X7396706Y-17438698D02*
X7415753Y-17429174D01*
X7415753Y-17429174D02*
X7463372Y-17429174D01*
X7463372Y-17429174D02*
X7482420Y-17438698D01*
X7482420Y-17438698D02*
X7491944Y-17448222D01*
X7491944Y-17448222D02*
X7501467Y-17467270D01*
X7501467Y-17467270D02*
X7501467Y-17514889D01*
X7501467Y-17514889D02*
X7491944Y-17533936D01*
X7491944Y-17533936D02*
X7482420Y-17543460D01*
X7482420Y-17543460D02*
X7463372Y-17552984D01*
X7463372Y-17552984D02*
X7415753Y-17552984D01*
X7415753Y-17552984D02*
X7396706Y-17543460D01*
X7396706Y-17543460D02*
X7387182Y-17533936D01*
X7691944Y-17552984D02*
X7577658Y-17552984D01*
X7634801Y-17552984D02*
X7634801Y-17352984D01*
X7634801Y-17352984D02*
X7615753Y-17381555D01*
X7615753Y-17381555D02*
X7596706Y-17400603D01*
X7596706Y-17400603D02*
X7577658Y-17410127D01*
X7768134Y-17352984D02*
X7768134Y-17391079D01*
X7844325Y-17352984D02*
X7844325Y-17391079D01*
X8139563Y-17629174D02*
X8130039Y-17619650D01*
X8130039Y-17619650D02*
X8110991Y-17591079D01*
X8110991Y-17591079D02*
X8101468Y-17572031D01*
X8101468Y-17572031D02*
X8091944Y-17543460D01*
X8091944Y-17543460D02*
X8082420Y-17495841D01*
X8082420Y-17495841D02*
X8082420Y-17457746D01*
X8082420Y-17457746D02*
X8091944Y-17410127D01*
X8091944Y-17410127D02*
X8101468Y-17381555D01*
X8101468Y-17381555D02*
X8110991Y-17362508D01*
X8110991Y-17362508D02*
X8130039Y-17333936D01*
X8130039Y-17333936D02*
X8139563Y-17324412D01*
X8301468Y-17419650D02*
X8301468Y-17552984D01*
X8253848Y-17343460D02*
X8206229Y-17486317D01*
X8206229Y-17486317D02*
X8330039Y-17486317D01*
X8558611Y-17552984D02*
X8558611Y-17352984D01*
X8644325Y-17552984D02*
X8644325Y-17448222D01*
X8644325Y-17448222D02*
X8634801Y-17429174D01*
X8634801Y-17429174D02*
X8615753Y-17419650D01*
X8615753Y-17419650D02*
X8587182Y-17419650D01*
X8587182Y-17419650D02*
X8568134Y-17429174D01*
X8568134Y-17429174D02*
X8558611Y-17438698D01*
X8768134Y-17552984D02*
X8749087Y-17543460D01*
X8749087Y-17543460D02*
X8739563Y-17533936D01*
X8739563Y-17533936D02*
X8730039Y-17514889D01*
X8730039Y-17514889D02*
X8730039Y-17457746D01*
X8730039Y-17457746D02*
X8739563Y-17438698D01*
X8739563Y-17438698D02*
X8749087Y-17429174D01*
X8749087Y-17429174D02*
X8768134Y-17419650D01*
X8768134Y-17419650D02*
X8796706Y-17419650D01*
X8796706Y-17419650D02*
X8815753Y-17429174D01*
X8815753Y-17429174D02*
X8825277Y-17438698D01*
X8825277Y-17438698D02*
X8834801Y-17457746D01*
X8834801Y-17457746D02*
X8834801Y-17514889D01*
X8834801Y-17514889D02*
X8825277Y-17533936D01*
X8825277Y-17533936D02*
X8815753Y-17543460D01*
X8815753Y-17543460D02*
X8796706Y-17552984D01*
X8796706Y-17552984D02*
X8768134Y-17552984D01*
X8949087Y-17552984D02*
X8930039Y-17543460D01*
X8930039Y-17543460D02*
X8920515Y-17524412D01*
X8920515Y-17524412D02*
X8920515Y-17352984D01*
X9101468Y-17543460D02*
X9082420Y-17552984D01*
X9082420Y-17552984D02*
X9044325Y-17552984D01*
X9044325Y-17552984D02*
X9025277Y-17543460D01*
X9025277Y-17543460D02*
X9015753Y-17524412D01*
X9015753Y-17524412D02*
X9015753Y-17448222D01*
X9015753Y-17448222D02*
X9025277Y-17429174D01*
X9025277Y-17429174D02*
X9044325Y-17419650D01*
X9044325Y-17419650D02*
X9082420Y-17419650D01*
X9082420Y-17419650D02*
X9101468Y-17429174D01*
X9101468Y-17429174D02*
X9110992Y-17448222D01*
X9110992Y-17448222D02*
X9110992Y-17467270D01*
X9110992Y-17467270D02*
X9015753Y-17486317D01*
X9187182Y-17543460D02*
X9206230Y-17552984D01*
X9206230Y-17552984D02*
X9244325Y-17552984D01*
X9244325Y-17552984D02*
X9263373Y-17543460D01*
X9263373Y-17543460D02*
X9272896Y-17524412D01*
X9272896Y-17524412D02*
X9272896Y-17514889D01*
X9272896Y-17514889D02*
X9263373Y-17495841D01*
X9263373Y-17495841D02*
X9244325Y-17486317D01*
X9244325Y-17486317D02*
X9215753Y-17486317D01*
X9215753Y-17486317D02*
X9196706Y-17476793D01*
X9196706Y-17476793D02*
X9187182Y-17457746D01*
X9187182Y-17457746D02*
X9187182Y-17448222D01*
X9187182Y-17448222D02*
X9196706Y-17429174D01*
X9196706Y-17429174D02*
X9215753Y-17419650D01*
X9215753Y-17419650D02*
X9244325Y-17419650D01*
X9244325Y-17419650D02*
X9263373Y-17429174D01*
X9339563Y-17629174D02*
X9349087Y-17619650D01*
X9349087Y-17619650D02*
X9368134Y-17591079D01*
X9368134Y-17591079D02*
X9377658Y-17572031D01*
X9377658Y-17572031D02*
X9387182Y-17543460D01*
X9387182Y-17543460D02*
X9396706Y-17495841D01*
X9396706Y-17495841D02*
X9396706Y-17457746D01*
X9396706Y-17457746D02*
X9387182Y-17410127D01*
X9387182Y-17410127D02*
X9377658Y-17381555D01*
X9377658Y-17381555D02*
X9368134Y-17362508D01*
X9368134Y-17362508D02*
X9349087Y-17333936D01*
X9349087Y-17333936D02*
X9339563Y-17324412D01*
M02*
