G04 #@! TF.GenerationSoftware,KiCad,Pcbnew,8.0.1-8.0.1-1~ubuntu22.04.1*
G04 #@! TF.CreationDate,2024-04-21T12:37:43+02:00*
G04 #@! TF.ProjectId,MCU_Board,4d43555f-426f-4617-9264-2e6b69636164,rev?*
G04 #@! TF.SameCoordinates,Original*
G04 #@! TF.FileFunction,Copper,L2,Bot*
G04 #@! TF.FilePolarity,Positive*
%FSLAX46Y46*%
G04 Gerber Fmt 4.6, Leading zero omitted, Abs format (unit mm)*
G04 Created by KiCad (PCBNEW 8.0.1-8.0.1-1~ubuntu22.04.1) date 2024-04-21 12:37:43*
%MOMM*%
%LPD*%
G01*
G04 APERTURE LIST*
G04 Aperture macros list*
%AMRoundRect*
0 Rectangle with rounded corners*
0 $1 Rounding radius*
0 $2 $3 $4 $5 $6 $7 $8 $9 X,Y pos of 4 corners*
0 Add a 4 corners polygon primitive as box body*
4,1,4,$2,$3,$4,$5,$6,$7,$8,$9,$2,$3,0*
0 Add four circle primitives for the rounded corners*
1,1,$1+$1,$2,$3*
1,1,$1+$1,$4,$5*
1,1,$1+$1,$6,$7*
1,1,$1+$1,$8,$9*
0 Add four rect primitives between the rounded corners*
20,1,$1+$1,$2,$3,$4,$5,0*
20,1,$1+$1,$4,$5,$6,$7,0*
20,1,$1+$1,$6,$7,$8,$9,0*
20,1,$1+$1,$8,$9,$2,$3,0*%
G04 Aperture macros list end*
G04 #@! TA.AperFunction,ComponentPad*
%ADD10O,1.200000X1.900000*%
G04 #@! TD*
G04 #@! TA.AperFunction,ComponentPad*
%ADD11C,1.500000*%
G04 #@! TD*
G04 #@! TA.AperFunction,ComponentPad*
%ADD12O,2.080000X3.600000*%
G04 #@! TD*
G04 #@! TA.AperFunction,ComponentPad*
%ADD13R,2.000000X2.000000*%
G04 #@! TD*
G04 #@! TA.AperFunction,ComponentPad*
%ADD14C,2.000000*%
G04 #@! TD*
G04 #@! TA.AperFunction,ComponentPad*
%ADD15O,1.700000X1.700000*%
G04 #@! TD*
G04 #@! TA.AperFunction,ComponentPad*
%ADD16RoundRect,0.575000X0.575000X-0.575000X0.575000X0.575000X-0.575000X0.575000X-0.575000X-0.575000X0*%
G04 #@! TD*
G04 #@! TA.AperFunction,ComponentPad*
%ADD17C,2.300000*%
G04 #@! TD*
G04 #@! TA.AperFunction,ComponentPad*
%ADD18R,1.700000X1.700000*%
G04 #@! TD*
G04 #@! TA.AperFunction,ComponentPad*
%ADD19C,2.600000*%
G04 #@! TD*
G04 #@! TA.AperFunction,ComponentPad*
%ADD20O,1.900000X1.400000*%
G04 #@! TD*
G04 #@! TA.AperFunction,ViaPad*
%ADD21C,0.800000*%
G04 #@! TD*
G04 #@! TA.AperFunction,Conductor*
%ADD22C,1.000000*%
G04 #@! TD*
G04 #@! TA.AperFunction,Conductor*
%ADD23C,0.300000*%
G04 #@! TD*
G04 APERTURE END LIST*
D10*
X82000000Y-122100000D03*
X79460000Y-122100000D03*
X76920000Y-122100000D03*
X74380000Y-122100000D03*
D11*
X74150000Y-147800000D03*
X79050000Y-147800000D03*
D12*
X83820000Y-104100000D03*
X78740000Y-104100000D03*
X73660000Y-104100000D03*
X68580000Y-104100000D03*
D13*
X56832323Y-142600000D03*
D14*
X61832323Y-142600000D03*
D15*
X93980000Y-127000000D03*
X93980000Y-129540000D03*
X93980000Y-132080000D03*
X93980000Y-134620000D03*
X93980000Y-137160000D03*
X93980000Y-139700000D03*
X93980000Y-142240000D03*
X93980000Y-144780000D03*
D16*
X49530000Y-122010000D03*
X49530000Y-117410000D03*
D17*
X49530000Y-106110000D03*
X49530000Y-101510000D03*
D18*
X91000000Y-104140000D03*
D15*
X91000000Y-106680000D03*
D19*
X61800000Y-132000000D03*
X56800000Y-132000000D03*
D20*
X87630000Y-127000000D03*
X90170000Y-127000000D03*
X87630000Y-129540000D03*
X90170000Y-129540000D03*
X87630000Y-132080000D03*
X90170000Y-132080000D03*
X87630000Y-134620000D03*
X90170000Y-134620000D03*
X87630000Y-137160000D03*
X90170000Y-137160000D03*
X87630000Y-139700000D03*
X90170000Y-139700000D03*
X87630000Y-142240000D03*
X90170000Y-142240000D03*
D15*
X48260000Y-127000000D03*
X48260000Y-129540000D03*
X48260000Y-132080000D03*
X48260000Y-134620000D03*
X48260000Y-137160000D03*
X48260000Y-139700000D03*
X48260000Y-142240000D03*
X48260000Y-144780000D03*
D13*
X59000000Y-121767677D03*
D14*
X59000000Y-116767677D03*
D21*
X79950000Y-127800000D03*
X79200000Y-128500000D03*
X78400000Y-129100000D03*
D22*
X82000000Y-123846536D02*
X82000000Y-122100000D01*
X82000000Y-112440000D02*
X73660000Y-104100000D01*
X61832323Y-142600000D02*
X63246536Y-142600000D01*
X90170000Y-127000000D02*
X85270000Y-122100000D01*
X85270000Y-122100000D02*
X82000000Y-122100000D01*
X63246536Y-142600000D02*
X82000000Y-123846536D01*
X82000000Y-122100000D02*
X82000000Y-112440000D01*
X56832323Y-142600000D02*
X56832323Y-132032323D01*
X56800000Y-132000000D02*
X51800000Y-127000000D01*
X79460000Y-123540000D02*
X75000000Y-128000000D01*
X60800000Y-128000000D02*
X56800000Y-132000000D01*
X51800000Y-127000000D02*
X48260000Y-127000000D01*
X75000000Y-128000000D02*
X60800000Y-128000000D01*
X56832323Y-132032323D02*
X56800000Y-132000000D01*
X56700000Y-132100000D02*
X56800000Y-132000000D01*
X79460000Y-122100000D02*
X79460000Y-123540000D01*
D23*
X79950000Y-127800000D02*
X82850000Y-130700000D01*
X82850000Y-130700000D02*
X92720000Y-130700000D01*
X92720000Y-130700000D02*
X93980000Y-131960000D01*
X79200000Y-128500000D02*
X83940000Y-133240000D01*
X83940000Y-133240000D02*
X92720000Y-133240000D01*
X92720000Y-133240000D02*
X93980000Y-134500000D01*
X85080000Y-135780000D02*
X92720000Y-135780000D01*
X92720000Y-135780000D02*
X93980000Y-137040000D01*
X78400000Y-129100000D02*
X85080000Y-135780000D01*
G04 #@! TA.AperFunction,Conductor*
G36*
X92462917Y-133918185D02*
G01*
X92483559Y-133934819D01*
X92648040Y-134099300D01*
X92681525Y-134160623D01*
X92680565Y-134217421D01*
X92635436Y-134395628D01*
X92635434Y-134395640D01*
X92616844Y-134619994D01*
X92616844Y-134620005D01*
X92635434Y-134844359D01*
X92635436Y-134844371D01*
X92666506Y-134967060D01*
X92663881Y-135036880D01*
X92623925Y-135094197D01*
X92559324Y-135120814D01*
X92546300Y-135121500D01*
X91689479Y-135121500D01*
X91622440Y-135101815D01*
X91576685Y-135049011D01*
X91566741Y-134979853D01*
X91571548Y-134959182D01*
X91590452Y-134901001D01*
X91595362Y-134870000D01*
X90603012Y-134870000D01*
X90635925Y-134812993D01*
X90670000Y-134685826D01*
X90670000Y-134554174D01*
X90635925Y-134427007D01*
X90603012Y-134370000D01*
X91595362Y-134370000D01*
X91590451Y-134338997D01*
X91532085Y-134159362D01*
X91491034Y-134078795D01*
X91478138Y-134010126D01*
X91504414Y-133945385D01*
X91561521Y-133905128D01*
X91601519Y-133898500D01*
X92395878Y-133898500D01*
X92462917Y-133918185D01*
G37*
G04 #@! TD.AperFunction*
G04 #@! TA.AperFunction,Conductor*
G36*
X92462917Y-131378185D02*
G01*
X92483559Y-131394819D01*
X92648040Y-131559300D01*
X92681525Y-131620623D01*
X92680565Y-131677421D01*
X92635436Y-131855628D01*
X92635434Y-131855640D01*
X92616844Y-132079994D01*
X92616844Y-132080005D01*
X92635434Y-132304359D01*
X92635436Y-132304371D01*
X92666506Y-132427060D01*
X92663881Y-132496880D01*
X92623925Y-132554197D01*
X92559324Y-132580814D01*
X92546300Y-132581500D01*
X91689479Y-132581500D01*
X91622440Y-132561815D01*
X91576685Y-132509011D01*
X91566741Y-132439853D01*
X91571548Y-132419182D01*
X91590452Y-132361001D01*
X91595362Y-132330000D01*
X90603012Y-132330000D01*
X90635925Y-132272993D01*
X90670000Y-132145826D01*
X90670000Y-132014174D01*
X90635925Y-131887007D01*
X90603012Y-131830000D01*
X91595362Y-131830000D01*
X91590451Y-131798997D01*
X91532085Y-131619362D01*
X91491034Y-131538795D01*
X91478138Y-131470126D01*
X91504414Y-131405385D01*
X91561521Y-131365128D01*
X91601519Y-131358500D01*
X92395878Y-131358500D01*
X92462917Y-131378185D01*
G37*
G04 #@! TD.AperFunction*
G04 #@! TA.AperFunction,Conductor*
G36*
X96387539Y-99155185D02*
G01*
X96433294Y-99207989D01*
X96444500Y-99259500D01*
X96444500Y-154740500D01*
X96424815Y-154807539D01*
X96372011Y-154853294D01*
X96320500Y-154864500D01*
X45919500Y-154864500D01*
X45852461Y-154844815D01*
X45806706Y-154792011D01*
X45795500Y-154740500D01*
X45795500Y-152064071D01*
X49349499Y-152064071D01*
X49374497Y-152189738D01*
X49374499Y-152189744D01*
X49423533Y-152308124D01*
X49423538Y-152308133D01*
X49494723Y-152414668D01*
X49494726Y-152414672D01*
X49585327Y-152505273D01*
X49585331Y-152505276D01*
X49691866Y-152576461D01*
X49691872Y-152576464D01*
X49691873Y-152576465D01*
X49810256Y-152625501D01*
X49810260Y-152625501D01*
X49810261Y-152625502D01*
X49935928Y-152650500D01*
X49935931Y-152650500D01*
X50064071Y-152650500D01*
X50148615Y-152633682D01*
X50189744Y-152625501D01*
X50308127Y-152576465D01*
X50414669Y-152505276D01*
X50505276Y-152414669D01*
X50576465Y-152308127D01*
X50625501Y-152189744D01*
X50650500Y-152064069D01*
X50650500Y-151935931D01*
X50650500Y-151935928D01*
X50625502Y-151810261D01*
X50625501Y-151810260D01*
X50625501Y-151810256D01*
X50576465Y-151691873D01*
X50576464Y-151691872D01*
X50576461Y-151691866D01*
X50505276Y-151585331D01*
X50505273Y-151585327D01*
X50414672Y-151494726D01*
X50414668Y-151494723D01*
X50308133Y-151423538D01*
X50308124Y-151423533D01*
X50189744Y-151374499D01*
X50189738Y-151374497D01*
X50064071Y-151349500D01*
X50064069Y-151349500D01*
X49935931Y-151349500D01*
X49935929Y-151349500D01*
X49810261Y-151374497D01*
X49810255Y-151374499D01*
X49691875Y-151423533D01*
X49691866Y-151423538D01*
X49585331Y-151494723D01*
X49585327Y-151494726D01*
X49494726Y-151585327D01*
X49494723Y-151585331D01*
X49423538Y-151691866D01*
X49423533Y-151691875D01*
X49374499Y-151810255D01*
X49374497Y-151810261D01*
X49349500Y-151935928D01*
X49349500Y-151935931D01*
X49349500Y-152064069D01*
X49349500Y-152064071D01*
X49349499Y-152064071D01*
X45795500Y-152064071D01*
X45795500Y-147800000D01*
X72886693Y-147800000D01*
X72905885Y-148019371D01*
X72962880Y-148232076D01*
X73055944Y-148431654D01*
X73182251Y-148612038D01*
X73337962Y-148767749D01*
X73518346Y-148894056D01*
X73717924Y-148987120D01*
X73930629Y-149044115D01*
X74087322Y-149057823D01*
X74149998Y-149063307D01*
X74150000Y-149063307D01*
X74150002Y-149063307D01*
X74204842Y-149058509D01*
X74369371Y-149044115D01*
X74582076Y-148987120D01*
X74781654Y-148894056D01*
X74962038Y-148767749D01*
X75117749Y-148612038D01*
X75244056Y-148431654D01*
X75337120Y-148232076D01*
X75394115Y-148019371D01*
X75413307Y-147800000D01*
X77786693Y-147800000D01*
X77805885Y-148019371D01*
X77862880Y-148232076D01*
X77955944Y-148431654D01*
X78082251Y-148612038D01*
X78237962Y-148767749D01*
X78418346Y-148894056D01*
X78617924Y-148987120D01*
X78830629Y-149044115D01*
X78987322Y-149057823D01*
X79049998Y-149063307D01*
X79050000Y-149063307D01*
X79050002Y-149063307D01*
X79104842Y-149058509D01*
X79269371Y-149044115D01*
X79482076Y-148987120D01*
X79681654Y-148894056D01*
X79862038Y-148767749D01*
X80017749Y-148612038D01*
X80144056Y-148431654D01*
X80237120Y-148232076D01*
X80294115Y-148019371D01*
X80313307Y-147800000D01*
X80294115Y-147580629D01*
X80237120Y-147367924D01*
X80144056Y-147168347D01*
X80144054Y-147168344D01*
X80144053Y-147168342D01*
X80080902Y-147078154D01*
X80017749Y-146987962D01*
X79862038Y-146832251D01*
X79681654Y-146705944D01*
X79681650Y-146705942D01*
X79482081Y-146612882D01*
X79482079Y-146612881D01*
X79482076Y-146612880D01*
X79330777Y-146572339D01*
X79269372Y-146555885D01*
X79269365Y-146555884D01*
X79050002Y-146536693D01*
X79049998Y-146536693D01*
X78830634Y-146555884D01*
X78830627Y-146555885D01*
X78617920Y-146612881D01*
X78418346Y-146705944D01*
X78418342Y-146705946D01*
X78237967Y-146832247D01*
X78237960Y-146832252D01*
X78082252Y-146987960D01*
X78082247Y-146987967D01*
X77955946Y-147168342D01*
X77955944Y-147168346D01*
X77862881Y-147367920D01*
X77805885Y-147580627D01*
X77805884Y-147580634D01*
X77786693Y-147799997D01*
X77786693Y-147800000D01*
X75413307Y-147800000D01*
X75394115Y-147580629D01*
X75337120Y-147367924D01*
X75244056Y-147168347D01*
X75244054Y-147168344D01*
X75244053Y-147168342D01*
X75180902Y-147078154D01*
X75117749Y-146987962D01*
X74962038Y-146832251D01*
X74781654Y-146705944D01*
X74781650Y-146705942D01*
X74582081Y-146612882D01*
X74582079Y-146612881D01*
X74582076Y-146612880D01*
X74430777Y-146572339D01*
X74369372Y-146555885D01*
X74369365Y-146555884D01*
X74150002Y-146536693D01*
X74149998Y-146536693D01*
X73930634Y-146555884D01*
X73930627Y-146555885D01*
X73717920Y-146612881D01*
X73518346Y-146705944D01*
X73518342Y-146705946D01*
X73337967Y-146832247D01*
X73337960Y-146832252D01*
X73182252Y-146987960D01*
X73182247Y-146987967D01*
X73055946Y-147168342D01*
X73055944Y-147168346D01*
X72962881Y-147367920D01*
X72905885Y-147580627D01*
X72905884Y-147580634D01*
X72886693Y-147799997D01*
X72886693Y-147800000D01*
X45795500Y-147800000D01*
X45795500Y-144780005D01*
X46896844Y-144780005D01*
X46915434Y-145004359D01*
X46915436Y-145004371D01*
X46970703Y-145222614D01*
X47061140Y-145428792D01*
X47184276Y-145617265D01*
X47184284Y-145617276D01*
X47336756Y-145782902D01*
X47336760Y-145782906D01*
X47514424Y-145921189D01*
X47514425Y-145921189D01*
X47514427Y-145921191D01*
X47641135Y-145989761D01*
X47712426Y-146028342D01*
X47925365Y-146101444D01*
X48147431Y-146138500D01*
X48372569Y-146138500D01*
X48594635Y-146101444D01*
X48807574Y-146028342D01*
X49005576Y-145921189D01*
X49183240Y-145782906D01*
X49335722Y-145617268D01*
X49458860Y-145428791D01*
X49549296Y-145222616D01*
X49604564Y-145004368D01*
X49623156Y-144780000D01*
X49604564Y-144555632D01*
X49549296Y-144337384D01*
X49458860Y-144131209D01*
X49444023Y-144108500D01*
X49359005Y-143978369D01*
X49335722Y-143942732D01*
X49335719Y-143942729D01*
X49335715Y-143942723D01*
X49183243Y-143777097D01*
X49183238Y-143777092D01*
X49018222Y-143648654D01*
X49005576Y-143638811D01*
X48969070Y-143619055D01*
X48919479Y-143569836D01*
X48904371Y-143501619D01*
X48928541Y-143436064D01*
X48969070Y-143400945D01*
X48969084Y-143400936D01*
X49005576Y-143381189D01*
X49183240Y-143242906D01*
X49314796Y-143100000D01*
X49335715Y-143077276D01*
X49335716Y-143077274D01*
X49335722Y-143077268D01*
X49458860Y-142888791D01*
X49549296Y-142682616D01*
X49604564Y-142464368D01*
X49613854Y-142352261D01*
X49623156Y-142240005D01*
X49623156Y-142239994D01*
X49604565Y-142015640D01*
X49604563Y-142015628D01*
X49549296Y-141797385D01*
X49541390Y-141779362D01*
X49458860Y-141591209D01*
X49402982Y-141505682D01*
X49368376Y-141452713D01*
X49335722Y-141402732D01*
X49335719Y-141402729D01*
X49335715Y-141402723D01*
X49183243Y-141237097D01*
X49183238Y-141237092D01*
X49032849Y-141120039D01*
X49005576Y-141098811D01*
X48969070Y-141079055D01*
X48919479Y-141029836D01*
X48904371Y-140961619D01*
X48928541Y-140896064D01*
X48969070Y-140860945D01*
X48969084Y-140860936D01*
X49005576Y-140841189D01*
X49183240Y-140702906D01*
X49335722Y-140537268D01*
X49458860Y-140348791D01*
X49549296Y-140142616D01*
X49604564Y-139924368D01*
X49612715Y-139826000D01*
X49623156Y-139700005D01*
X49623156Y-139699994D01*
X49604565Y-139475640D01*
X49604563Y-139475628D01*
X49549296Y-139257385D01*
X49541390Y-139239362D01*
X49458860Y-139051209D01*
X49402982Y-138965682D01*
X49368376Y-138912713D01*
X49335722Y-138862732D01*
X49335719Y-138862729D01*
X49335715Y-138862723D01*
X49183243Y-138697097D01*
X49183238Y-138697092D01*
X49005577Y-138558812D01*
X49005578Y-138558812D01*
X49005576Y-138558811D01*
X48969070Y-138539055D01*
X48919479Y-138489836D01*
X48904371Y-138421619D01*
X48928541Y-138356064D01*
X48969070Y-138320945D01*
X48969084Y-138320936D01*
X49005576Y-138301189D01*
X49183240Y-138162906D01*
X49335722Y-137997268D01*
X49458860Y-137808791D01*
X49549296Y-137602616D01*
X49604564Y-137384368D01*
X49612715Y-137286000D01*
X49623156Y-137160005D01*
X49623156Y-137159994D01*
X49604565Y-136935640D01*
X49604563Y-136935628D01*
X49549296Y-136717385D01*
X49541390Y-136699362D01*
X49458860Y-136511209D01*
X49458716Y-136510989D01*
X49394823Y-136413193D01*
X49335722Y-136322732D01*
X49335719Y-136322729D01*
X49335715Y-136322723D01*
X49183243Y-136157097D01*
X49183238Y-136157092D01*
X49005577Y-136018812D01*
X49005578Y-136018812D01*
X49005576Y-136018811D01*
X48969070Y-135999055D01*
X48919479Y-135949836D01*
X48904371Y-135881619D01*
X48928541Y-135816064D01*
X48969070Y-135780945D01*
X48969084Y-135780936D01*
X49005576Y-135761189D01*
X49183240Y-135622906D01*
X49335722Y-135457268D01*
X49458860Y-135268791D01*
X49549296Y-135062616D01*
X49604564Y-134844368D01*
X49612715Y-134746000D01*
X49623156Y-134620005D01*
X49623156Y-134619994D01*
X49604565Y-134395640D01*
X49604563Y-134395628D01*
X49549296Y-134177385D01*
X49541390Y-134159362D01*
X49458860Y-133971209D01*
X49458716Y-133970989D01*
X49335723Y-133782734D01*
X49335715Y-133782723D01*
X49183243Y-133617097D01*
X49183238Y-133617092D01*
X49062719Y-133523288D01*
X49005576Y-133478811D01*
X48969070Y-133459055D01*
X48919479Y-133409836D01*
X48904371Y-133341619D01*
X48928541Y-133276064D01*
X48969070Y-133240945D01*
X48969084Y-133240936D01*
X49005576Y-133221189D01*
X49183240Y-133082906D01*
X49335722Y-132917268D01*
X49458860Y-132728791D01*
X49549296Y-132522616D01*
X49604564Y-132304368D01*
X49612715Y-132206000D01*
X49623156Y-132080005D01*
X49623156Y-132079994D01*
X49604565Y-131855640D01*
X49604563Y-131855628D01*
X49572672Y-131729694D01*
X49549296Y-131637384D01*
X49458860Y-131431209D01*
X49458716Y-131430989D01*
X49335723Y-131242734D01*
X49335715Y-131242723D01*
X49183243Y-131077097D01*
X49183238Y-131077092D01*
X49005577Y-130938812D01*
X49005578Y-130938812D01*
X49005576Y-130938811D01*
X48969070Y-130919055D01*
X48919479Y-130869836D01*
X48904371Y-130801619D01*
X48928541Y-130736064D01*
X48969070Y-130700945D01*
X48969084Y-130700936D01*
X49005576Y-130681189D01*
X49183240Y-130542906D01*
X49287730Y-130429401D01*
X49335715Y-130377276D01*
X49335716Y-130377274D01*
X49335722Y-130377268D01*
X49458860Y-130188791D01*
X49549296Y-129982616D01*
X49604564Y-129764368D01*
X49615123Y-129636942D01*
X49623156Y-129540005D01*
X49623156Y-129539994D01*
X49604565Y-129315640D01*
X49604563Y-129315628D01*
X49549296Y-129097385D01*
X49541390Y-129079362D01*
X49458860Y-128891209D01*
X49402982Y-128805682D01*
X49368376Y-128752713D01*
X49335722Y-128702732D01*
X49335719Y-128702729D01*
X49335715Y-128702723D01*
X49183243Y-128537097D01*
X49183238Y-128537092D01*
X49042967Y-128427914D01*
X49005576Y-128398811D01*
X48969070Y-128379055D01*
X48919479Y-128329836D01*
X48904371Y-128261619D01*
X48928541Y-128196064D01*
X48969070Y-128160945D01*
X48985471Y-128152069D01*
X49005576Y-128141189D01*
X49059723Y-128099043D01*
X49142461Y-128034647D01*
X49207455Y-128009004D01*
X49218623Y-128008500D01*
X51330904Y-128008500D01*
X51397943Y-128028185D01*
X51418585Y-128044819D01*
X54976209Y-131602444D01*
X55009694Y-131663767D01*
X55009420Y-131717712D01*
X55006685Y-131729694D01*
X55006683Y-131729707D01*
X54986429Y-131999995D01*
X54986429Y-132000004D01*
X55006683Y-132270289D01*
X55006684Y-132270294D01*
X55066997Y-132534545D01*
X55066999Y-132534554D01*
X55067001Y-132534559D01*
X55166029Y-132786879D01*
X55301557Y-133021621D01*
X55470558Y-133233542D01*
X55669257Y-133417907D01*
X55769676Y-133486371D01*
X55813977Y-133540399D01*
X55823823Y-133588824D01*
X55823823Y-140976101D01*
X55804138Y-141043140D01*
X55751334Y-141088895D01*
X55728340Y-141096777D01*
X55723123Y-141098009D01*
X55586118Y-141149111D01*
X55469062Y-141236739D01*
X55381434Y-141353795D01*
X55330334Y-141490795D01*
X55330334Y-141490797D01*
X55323823Y-141551345D01*
X55323823Y-143648654D01*
X55330334Y-143709202D01*
X55330334Y-143709204D01*
X55355658Y-143777097D01*
X55381434Y-143846204D01*
X55469062Y-143963261D01*
X55586119Y-144050889D01*
X55723122Y-144101989D01*
X55750373Y-144104918D01*
X55783668Y-144108499D01*
X55783685Y-144108500D01*
X57880961Y-144108500D01*
X57880977Y-144108499D01*
X57908015Y-144105591D01*
X57941524Y-144101989D01*
X58078527Y-144050889D01*
X58195584Y-143963261D01*
X58283212Y-143846204D01*
X58334312Y-143709201D01*
X58337914Y-143675692D01*
X58340822Y-143648654D01*
X58340823Y-143648637D01*
X58340823Y-142600005D01*
X60327182Y-142600005D01*
X60347708Y-142847729D01*
X60347710Y-142847738D01*
X60408735Y-143088717D01*
X60508589Y-143316364D01*
X60608887Y-143469882D01*
X61349360Y-142729409D01*
X61366398Y-142792993D01*
X61432224Y-142907007D01*
X61525316Y-143000099D01*
X61639330Y-143065925D01*
X61702913Y-143082962D01*
X60962265Y-143823609D01*
X61009091Y-143860055D01*
X61009093Y-143860056D01*
X61227708Y-143978364D01*
X61227719Y-143978369D01*
X61462829Y-144059083D01*
X61708030Y-144100000D01*
X61956616Y-144100000D01*
X62201816Y-144059083D01*
X62436926Y-143978369D01*
X62436937Y-143978364D01*
X62655551Y-143860057D01*
X62655554Y-143860055D01*
X62702379Y-143823609D01*
X61961732Y-143082962D01*
X62025316Y-143065925D01*
X62139330Y-143000099D01*
X62232422Y-142907007D01*
X62298248Y-142792993D01*
X62315285Y-142729410D01*
X63055757Y-143469882D01*
X63156054Y-143316369D01*
X63255910Y-143088717D01*
X63316935Y-142847738D01*
X63316937Y-142847729D01*
X63337464Y-142600005D01*
X63337464Y-142599994D01*
X63316937Y-142352270D01*
X63316935Y-142352261D01*
X63255910Y-142111282D01*
X63156054Y-141883630D01*
X63055757Y-141730116D01*
X62315285Y-142470589D01*
X62298248Y-142407007D01*
X62232422Y-142292993D01*
X62139330Y-142199901D01*
X62025316Y-142134075D01*
X61961733Y-142117037D01*
X62702380Y-141376390D01*
X62702379Y-141376389D01*
X62655552Y-141339943D01*
X62436937Y-141221635D01*
X62436926Y-141221630D01*
X62201816Y-141140916D01*
X61956616Y-141100000D01*
X61708030Y-141100000D01*
X61462829Y-141140916D01*
X61227719Y-141221630D01*
X61227713Y-141221632D01*
X61009084Y-141339949D01*
X60962265Y-141376388D01*
X60962265Y-141376390D01*
X61702913Y-142117037D01*
X61639330Y-142134075D01*
X61525316Y-142199901D01*
X61432224Y-142292993D01*
X61366398Y-142407007D01*
X61349360Y-142470589D01*
X60608887Y-141730116D01*
X60508590Y-141883632D01*
X60408735Y-142111282D01*
X60347710Y-142352261D01*
X60347708Y-142352270D01*
X60327182Y-142599994D01*
X60327182Y-142600005D01*
X58340823Y-142600005D01*
X58340823Y-141551362D01*
X58340822Y-141551345D01*
X58335270Y-141499712D01*
X58334312Y-141490799D01*
X58323557Y-141461965D01*
X58291639Y-141376390D01*
X58283212Y-141353796D01*
X58195584Y-141236739D01*
X58078527Y-141149111D01*
X58056556Y-141140916D01*
X57941522Y-141098009D01*
X57936306Y-141096777D01*
X57875590Y-141062203D01*
X57843205Y-141000291D01*
X57840823Y-140976101D01*
X57840823Y-133544749D01*
X57860508Y-133477710D01*
X57894972Y-133442295D01*
X57930743Y-133417907D01*
X58129442Y-133233542D01*
X58298443Y-133021621D01*
X58433971Y-132786879D01*
X58532999Y-132534559D01*
X58593315Y-132270299D01*
X58593316Y-132270289D01*
X58613571Y-132000004D01*
X59986429Y-132000004D01*
X60006683Y-132270289D01*
X60006684Y-132270294D01*
X60066997Y-132534545D01*
X60066999Y-132534554D01*
X60067001Y-132534559D01*
X60166029Y-132786879D01*
X60301557Y-133021621D01*
X60470558Y-133233542D01*
X60669257Y-133417907D01*
X60893215Y-133570599D01*
X61137428Y-133688206D01*
X61396442Y-133768101D01*
X61396443Y-133768101D01*
X61396446Y-133768102D01*
X61664464Y-133808499D01*
X61664469Y-133808499D01*
X61664472Y-133808500D01*
X61664473Y-133808500D01*
X61935527Y-133808500D01*
X61935528Y-133808500D01*
X61935535Y-133808499D01*
X62203553Y-133768102D01*
X62203554Y-133768101D01*
X62203558Y-133768101D01*
X62462572Y-133688206D01*
X62706786Y-133570599D01*
X62930743Y-133417907D01*
X63129442Y-133233542D01*
X63298443Y-133021621D01*
X63433971Y-132786879D01*
X63532999Y-132534559D01*
X63593315Y-132270299D01*
X63593316Y-132270289D01*
X63613571Y-132000004D01*
X63613571Y-131999995D01*
X63593316Y-131729710D01*
X63593315Y-131729705D01*
X63593315Y-131729701D01*
X63532999Y-131465441D01*
X63433971Y-131213121D01*
X63298443Y-130978379D01*
X63129442Y-130766458D01*
X62930743Y-130582093D01*
X62706786Y-130429401D01*
X62706780Y-130429398D01*
X62706779Y-130429397D01*
X62706778Y-130429396D01*
X62462574Y-130311795D01*
X62462576Y-130311795D01*
X62203559Y-130231899D01*
X62203553Y-130231897D01*
X61935535Y-130191500D01*
X61935528Y-130191500D01*
X61664472Y-130191500D01*
X61664464Y-130191500D01*
X61396446Y-130231897D01*
X61396440Y-130231899D01*
X61137427Y-130311794D01*
X60893219Y-130429398D01*
X60669256Y-130582093D01*
X60470560Y-130766456D01*
X60470558Y-130766458D01*
X60301557Y-130978379D01*
X60166029Y-131213120D01*
X60067003Y-131465435D01*
X60066997Y-131465454D01*
X60006684Y-131729705D01*
X60006683Y-131729710D01*
X59986429Y-131999995D01*
X59986429Y-132000004D01*
X58613571Y-132000004D01*
X58613571Y-131999995D01*
X58593316Y-131729709D01*
X58593315Y-131729702D01*
X58590580Y-131717719D01*
X58594851Y-131647980D01*
X58623787Y-131602445D01*
X61126234Y-129100000D01*
X77486496Y-129100000D01*
X77506458Y-129289928D01*
X77506459Y-129289931D01*
X77565470Y-129471549D01*
X77565473Y-129471556D01*
X77660960Y-129636944D01*
X77788747Y-129778866D01*
X77943248Y-129891118D01*
X78117712Y-129968794D01*
X78304513Y-130008500D01*
X78325878Y-130008500D01*
X78392917Y-130028185D01*
X78413559Y-130044819D01*
X84660227Y-136291488D01*
X84660231Y-136291491D01*
X84768076Y-136363551D01*
X84768080Y-136363553D01*
X84768083Y-136363555D01*
X84887923Y-136413195D01*
X84994036Y-136434301D01*
X85015143Y-136438500D01*
X85015144Y-136438500D01*
X85144857Y-136438500D01*
X86188941Y-136438500D01*
X86255980Y-136458185D01*
X86301735Y-136510989D01*
X86311679Y-136580147D01*
X86299426Y-136618795D01*
X86260040Y-136696092D01*
X86201256Y-136877008D01*
X86171500Y-137064883D01*
X86171500Y-137255116D01*
X86201256Y-137442991D01*
X86260040Y-137623907D01*
X86278431Y-137660000D01*
X86346398Y-137793392D01*
X86458208Y-137947285D01*
X86592715Y-138081792D01*
X86746608Y-138193602D01*
X86826683Y-138234402D01*
X86916092Y-138279959D01*
X86916094Y-138279959D01*
X86916097Y-138279961D01*
X87010975Y-138310788D01*
X87014915Y-138312069D01*
X87072590Y-138351507D01*
X87099788Y-138415866D01*
X87087873Y-138484712D01*
X87040629Y-138536188D01*
X87014915Y-138547931D01*
X86916092Y-138580040D01*
X86746607Y-138666398D01*
X86658806Y-138730189D01*
X86592715Y-138778208D01*
X86592713Y-138778210D01*
X86592712Y-138778210D01*
X86458210Y-138912712D01*
X86458210Y-138912713D01*
X86458208Y-138912715D01*
X86443421Y-138933068D01*
X86346398Y-139066607D01*
X86260040Y-139236092D01*
X86201256Y-139417008D01*
X86171500Y-139604883D01*
X86171500Y-139795116D01*
X86201256Y-139982991D01*
X86260040Y-140163907D01*
X86278431Y-140200000D01*
X86346398Y-140333392D01*
X86458208Y-140487285D01*
X86592715Y-140621792D01*
X86746608Y-140733602D01*
X86826683Y-140774402D01*
X86916092Y-140819959D01*
X86916094Y-140819959D01*
X86916097Y-140819961D01*
X87010975Y-140850788D01*
X87014915Y-140852069D01*
X87072590Y-140891507D01*
X87099788Y-140955866D01*
X87087873Y-141024712D01*
X87040629Y-141076188D01*
X87014915Y-141087931D01*
X86916092Y-141120040D01*
X86746607Y-141206398D01*
X86658806Y-141270189D01*
X86592715Y-141318208D01*
X86592713Y-141318210D01*
X86592712Y-141318210D01*
X86458210Y-141452712D01*
X86458210Y-141452713D01*
X86458208Y-141452715D01*
X86424063Y-141499712D01*
X86346398Y-141606607D01*
X86260040Y-141776092D01*
X86201256Y-141957008D01*
X86171500Y-142144883D01*
X86171500Y-142335116D01*
X86201256Y-142522991D01*
X86260040Y-142703907D01*
X86344130Y-142868940D01*
X86346398Y-142873392D01*
X86458208Y-143027285D01*
X86592715Y-143161792D01*
X86746608Y-143273602D01*
X86826683Y-143314402D01*
X86916092Y-143359959D01*
X86916094Y-143359959D01*
X86916097Y-143359961D01*
X87013070Y-143391469D01*
X87097008Y-143418743D01*
X87284884Y-143448500D01*
X87284889Y-143448500D01*
X87975116Y-143448500D01*
X88162991Y-143418743D01*
X88217767Y-143400945D01*
X88343903Y-143359961D01*
X88513392Y-143273602D01*
X88667285Y-143161792D01*
X88801792Y-143027285D01*
X88804928Y-143022968D01*
X88860252Y-142980299D01*
X88929864Y-142974312D01*
X88991663Y-143006912D01*
X89001395Y-143018140D01*
X89001519Y-143018035D01*
X89004689Y-143021746D01*
X89138253Y-143155310D01*
X89138258Y-143155314D01*
X89291059Y-143266329D01*
X89459362Y-143352085D01*
X89638997Y-143410451D01*
X89825553Y-143440000D01*
X89920000Y-143440000D01*
X89920000Y-142673012D01*
X89977007Y-142705925D01*
X90104174Y-142740000D01*
X90235826Y-142740000D01*
X90362993Y-142705925D01*
X90420000Y-142673012D01*
X90420000Y-143440000D01*
X90514447Y-143440000D01*
X90701002Y-143410451D01*
X90880637Y-143352085D01*
X91048940Y-143266329D01*
X91201741Y-143155314D01*
X91201746Y-143155310D01*
X91335310Y-143021746D01*
X91335314Y-143021741D01*
X91446329Y-142868940D01*
X91532085Y-142700637D01*
X91590451Y-142521002D01*
X91595362Y-142490000D01*
X90603012Y-142490000D01*
X90635925Y-142432993D01*
X90670000Y-142305826D01*
X90670000Y-142174174D01*
X90635925Y-142047007D01*
X90603012Y-141990000D01*
X91595362Y-141990000D01*
X91590451Y-141958997D01*
X91532085Y-141779362D01*
X91446329Y-141611059D01*
X91335314Y-141458258D01*
X91335310Y-141458253D01*
X91201746Y-141324689D01*
X91201741Y-141324685D01*
X91048940Y-141213670D01*
X90880637Y-141127914D01*
X90757579Y-141087931D01*
X90699904Y-141048494D01*
X90672705Y-140984135D01*
X90684619Y-140915289D01*
X90731863Y-140863813D01*
X90757579Y-140852069D01*
X90880637Y-140812085D01*
X91048940Y-140726329D01*
X91201741Y-140615314D01*
X91201746Y-140615310D01*
X91335310Y-140481746D01*
X91335314Y-140481741D01*
X91446329Y-140328940D01*
X91532085Y-140160637D01*
X91590451Y-139981002D01*
X91595362Y-139950000D01*
X90603012Y-139950000D01*
X90635925Y-139892993D01*
X90670000Y-139765826D01*
X90670000Y-139634174D01*
X90635925Y-139507007D01*
X90603012Y-139450000D01*
X91595362Y-139450000D01*
X91590451Y-139418997D01*
X91532085Y-139239362D01*
X91446329Y-139071059D01*
X91335314Y-138918258D01*
X91335310Y-138918253D01*
X91201746Y-138784689D01*
X91201741Y-138784685D01*
X91048940Y-138673670D01*
X90880637Y-138587914D01*
X90757579Y-138547931D01*
X90699904Y-138508494D01*
X90672705Y-138444135D01*
X90684619Y-138375289D01*
X90731863Y-138323813D01*
X90757579Y-138312069D01*
X90880637Y-138272085D01*
X91048940Y-138186329D01*
X91201741Y-138075314D01*
X91201746Y-138075310D01*
X91335310Y-137941746D01*
X91335314Y-137941741D01*
X91446329Y-137788940D01*
X91532085Y-137620637D01*
X91590451Y-137441002D01*
X91595362Y-137410000D01*
X90603012Y-137410000D01*
X90635925Y-137352993D01*
X90670000Y-137225826D01*
X90670000Y-137094174D01*
X90635925Y-136967007D01*
X90603012Y-136910000D01*
X91595362Y-136910000D01*
X91590451Y-136878997D01*
X91532085Y-136699362D01*
X91491034Y-136618795D01*
X91478138Y-136550126D01*
X91504414Y-136485385D01*
X91561521Y-136445128D01*
X91601519Y-136438500D01*
X92395878Y-136438500D01*
X92462917Y-136458185D01*
X92483559Y-136474819D01*
X92648040Y-136639300D01*
X92681525Y-136700623D01*
X92680565Y-136757421D01*
X92635436Y-136935628D01*
X92635434Y-136935640D01*
X92616844Y-137159994D01*
X92616844Y-137160005D01*
X92635434Y-137384359D01*
X92635436Y-137384371D01*
X92690703Y-137602614D01*
X92781140Y-137808792D01*
X92904276Y-137997265D01*
X92904284Y-137997276D01*
X93056756Y-138162902D01*
X93056761Y-138162907D01*
X93096196Y-138193601D01*
X93234424Y-138301189D01*
X93234429Y-138301191D01*
X93234431Y-138301193D01*
X93270930Y-138320946D01*
X93320520Y-138370165D01*
X93335628Y-138438382D01*
X93311457Y-138503937D01*
X93270930Y-138539054D01*
X93234431Y-138558806D01*
X93234422Y-138558812D01*
X93056761Y-138697092D01*
X93056756Y-138697097D01*
X92904284Y-138862723D01*
X92904276Y-138862734D01*
X92781140Y-139051207D01*
X92690703Y-139257385D01*
X92635436Y-139475628D01*
X92635434Y-139475640D01*
X92616844Y-139699994D01*
X92616844Y-139700005D01*
X92635434Y-139924359D01*
X92635436Y-139924371D01*
X92690703Y-140142614D01*
X92781140Y-140348792D01*
X92904276Y-140537265D01*
X92904284Y-140537276D01*
X93056756Y-140702902D01*
X93056761Y-140702907D01*
X93096196Y-140733601D01*
X93234424Y-140841189D01*
X93234429Y-140841191D01*
X93234431Y-140841193D01*
X93270930Y-140860946D01*
X93320520Y-140910165D01*
X93335628Y-140978382D01*
X93311457Y-141043937D01*
X93270930Y-141079054D01*
X93234431Y-141098806D01*
X93234422Y-141098812D01*
X93056761Y-141237092D01*
X93056756Y-141237097D01*
X92904284Y-141402723D01*
X92904276Y-141402734D01*
X92781140Y-141591207D01*
X92690703Y-141797385D01*
X92635436Y-142015628D01*
X92635434Y-142015640D01*
X92616844Y-142239994D01*
X92616844Y-142240005D01*
X92635434Y-142464359D01*
X92635436Y-142464371D01*
X92690703Y-142682614D01*
X92781140Y-142888792D01*
X92904276Y-143077265D01*
X92904284Y-143077276D01*
X93056756Y-143242902D01*
X93056761Y-143242907D01*
X93096196Y-143273601D01*
X93234424Y-143381189D01*
X93234429Y-143381191D01*
X93234431Y-143381193D01*
X93270930Y-143400946D01*
X93320520Y-143450165D01*
X93335628Y-143518382D01*
X93311457Y-143583937D01*
X93270930Y-143619054D01*
X93234431Y-143638806D01*
X93234422Y-143638812D01*
X93056761Y-143777092D01*
X93056756Y-143777097D01*
X92904284Y-143942723D01*
X92904276Y-143942734D01*
X92781140Y-144131207D01*
X92690703Y-144337385D01*
X92635436Y-144555628D01*
X92635434Y-144555640D01*
X92616844Y-144779994D01*
X92616844Y-144780005D01*
X92635434Y-145004359D01*
X92635436Y-145004371D01*
X92690703Y-145222614D01*
X92781140Y-145428792D01*
X92904276Y-145617265D01*
X92904284Y-145617276D01*
X93056756Y-145782902D01*
X93056760Y-145782906D01*
X93234424Y-145921189D01*
X93234425Y-145921189D01*
X93234427Y-145921191D01*
X93361135Y-145989761D01*
X93432426Y-146028342D01*
X93645365Y-146101444D01*
X93867431Y-146138500D01*
X94092569Y-146138500D01*
X94314635Y-146101444D01*
X94527574Y-146028342D01*
X94725576Y-145921189D01*
X94903240Y-145782906D01*
X95055722Y-145617268D01*
X95178860Y-145428791D01*
X95269296Y-145222616D01*
X95324564Y-145004368D01*
X95343156Y-144780000D01*
X95324564Y-144555632D01*
X95269296Y-144337384D01*
X95178860Y-144131209D01*
X95164023Y-144108500D01*
X95079005Y-143978369D01*
X95055722Y-143942732D01*
X95055719Y-143942729D01*
X95055715Y-143942723D01*
X94903243Y-143777097D01*
X94903238Y-143777092D01*
X94738222Y-143648654D01*
X94725576Y-143638811D01*
X94689070Y-143619055D01*
X94639479Y-143569836D01*
X94624371Y-143501619D01*
X94648541Y-143436064D01*
X94689070Y-143400945D01*
X94689084Y-143400936D01*
X94725576Y-143381189D01*
X94903240Y-143242906D01*
X95034796Y-143100000D01*
X95055715Y-143077276D01*
X95055716Y-143077274D01*
X95055722Y-143077268D01*
X95178860Y-142888791D01*
X95269296Y-142682616D01*
X95324564Y-142464368D01*
X95333854Y-142352261D01*
X95343156Y-142240005D01*
X95343156Y-142239994D01*
X95324565Y-142015640D01*
X95324563Y-142015628D01*
X95269296Y-141797385D01*
X95261390Y-141779362D01*
X95178860Y-141591209D01*
X95122982Y-141505682D01*
X95088376Y-141452713D01*
X95055722Y-141402732D01*
X95055719Y-141402729D01*
X95055715Y-141402723D01*
X94903243Y-141237097D01*
X94903238Y-141237092D01*
X94752849Y-141120039D01*
X94725576Y-141098811D01*
X94689070Y-141079055D01*
X94639479Y-141029836D01*
X94624371Y-140961619D01*
X94648541Y-140896064D01*
X94689070Y-140860945D01*
X94689084Y-140860936D01*
X94725576Y-140841189D01*
X94903240Y-140702906D01*
X95055722Y-140537268D01*
X95178860Y-140348791D01*
X95269296Y-140142616D01*
X95324564Y-139924368D01*
X95332715Y-139826000D01*
X95343156Y-139700005D01*
X95343156Y-139699994D01*
X95324565Y-139475640D01*
X95324563Y-139475628D01*
X95269296Y-139257385D01*
X95261390Y-139239362D01*
X95178860Y-139051209D01*
X95122982Y-138965682D01*
X95088376Y-138912713D01*
X95055722Y-138862732D01*
X95055719Y-138862729D01*
X95055715Y-138862723D01*
X94903243Y-138697097D01*
X94903238Y-138697092D01*
X94725577Y-138558812D01*
X94725578Y-138558812D01*
X94725576Y-138558811D01*
X94689070Y-138539055D01*
X94639479Y-138489836D01*
X94624371Y-138421619D01*
X94648541Y-138356064D01*
X94689070Y-138320945D01*
X94689084Y-138320936D01*
X94725576Y-138301189D01*
X94903240Y-138162906D01*
X95055722Y-137997268D01*
X95178860Y-137808791D01*
X95269296Y-137602616D01*
X95324564Y-137384368D01*
X95332715Y-137286000D01*
X95343156Y-137160005D01*
X95343156Y-137159994D01*
X95324565Y-136935640D01*
X95324563Y-136935628D01*
X95269296Y-136717385D01*
X95261390Y-136699362D01*
X95178860Y-136511209D01*
X95178716Y-136510989D01*
X95114823Y-136413193D01*
X95055722Y-136322732D01*
X95055719Y-136322729D01*
X95055715Y-136322723D01*
X94903243Y-136157097D01*
X94903238Y-136157092D01*
X94725577Y-136018812D01*
X94725578Y-136018812D01*
X94725576Y-136018811D01*
X94689070Y-135999055D01*
X94639479Y-135949836D01*
X94624371Y-135881619D01*
X94648541Y-135816064D01*
X94689070Y-135780945D01*
X94689084Y-135780936D01*
X94725576Y-135761189D01*
X94903240Y-135622906D01*
X95055722Y-135457268D01*
X95178860Y-135268791D01*
X95269296Y-135062616D01*
X95324564Y-134844368D01*
X95332715Y-134746000D01*
X95343156Y-134620005D01*
X95343156Y-134619994D01*
X95324565Y-134395640D01*
X95324563Y-134395628D01*
X95269296Y-134177385D01*
X95261390Y-134159362D01*
X95178860Y-133971209D01*
X95178716Y-133970989D01*
X95055723Y-133782734D01*
X95055715Y-133782723D01*
X94903243Y-133617097D01*
X94903238Y-133617092D01*
X94782719Y-133523288D01*
X94725576Y-133478811D01*
X94689070Y-133459055D01*
X94639479Y-133409836D01*
X94624371Y-133341619D01*
X94648541Y-133276064D01*
X94689070Y-133240945D01*
X94689084Y-133240936D01*
X94725576Y-133221189D01*
X94903240Y-133082906D01*
X95055722Y-132917268D01*
X95178860Y-132728791D01*
X95269296Y-132522616D01*
X95324564Y-132304368D01*
X95332715Y-132206000D01*
X95343156Y-132080005D01*
X95343156Y-132079994D01*
X95324565Y-131855640D01*
X95324563Y-131855628D01*
X95292672Y-131729694D01*
X95269296Y-131637384D01*
X95178860Y-131431209D01*
X95178716Y-131430989D01*
X95055723Y-131242734D01*
X95055715Y-131242723D01*
X94903243Y-131077097D01*
X94903238Y-131077092D01*
X94725577Y-130938812D01*
X94725577Y-130938811D01*
X94682303Y-130915393D01*
X94632713Y-130866173D01*
X94617605Y-130797957D01*
X94641775Y-130732401D01*
X94670198Y-130704763D01*
X94851079Y-130578108D01*
X95018105Y-130411082D01*
X95153600Y-130217578D01*
X95253429Y-130003492D01*
X95253432Y-130003486D01*
X95310636Y-129790000D01*
X94413012Y-129790000D01*
X94445925Y-129732993D01*
X94480000Y-129605826D01*
X94480000Y-129474174D01*
X94445925Y-129347007D01*
X94413012Y-129290000D01*
X95310636Y-129290000D01*
X95310635Y-129289999D01*
X95253432Y-129076513D01*
X95253429Y-129076507D01*
X95153600Y-128862422D01*
X95153599Y-128862420D01*
X95018113Y-128668926D01*
X95018108Y-128668920D01*
X94851082Y-128501894D01*
X94670197Y-128375236D01*
X94626572Y-128320659D01*
X94619380Y-128251160D01*
X94650902Y-128188806D01*
X94682300Y-128164608D01*
X94725576Y-128141189D01*
X94903240Y-128002906D01*
X95055722Y-127837268D01*
X95178860Y-127648791D01*
X95269296Y-127442616D01*
X95324564Y-127224368D01*
X95332715Y-127126000D01*
X95343156Y-127000005D01*
X95343156Y-126999994D01*
X95324565Y-126775640D01*
X95324563Y-126775628D01*
X95269296Y-126557385D01*
X95261390Y-126539362D01*
X95178860Y-126351209D01*
X95122982Y-126265682D01*
X95088376Y-126212713D01*
X95055722Y-126162732D01*
X95055719Y-126162729D01*
X95055715Y-126162723D01*
X94903243Y-125997097D01*
X94903238Y-125997092D01*
X94752849Y-125880039D01*
X94725576Y-125858811D01*
X94725575Y-125858810D01*
X94725572Y-125858808D01*
X94527580Y-125751661D01*
X94527577Y-125751659D01*
X94527574Y-125751658D01*
X94527571Y-125751657D01*
X94527569Y-125751656D01*
X94314637Y-125678556D01*
X94092569Y-125641500D01*
X93867431Y-125641500D01*
X93645362Y-125678556D01*
X93432430Y-125751656D01*
X93432419Y-125751661D01*
X93234427Y-125858808D01*
X93234422Y-125858812D01*
X93056761Y-125997092D01*
X93056756Y-125997097D01*
X92904284Y-126162723D01*
X92904276Y-126162734D01*
X92781140Y-126351207D01*
X92690703Y-126557385D01*
X92635436Y-126775628D01*
X92635434Y-126775640D01*
X92616844Y-126999994D01*
X92616844Y-127000005D01*
X92635434Y-127224359D01*
X92635436Y-127224371D01*
X92690703Y-127442614D01*
X92781140Y-127648792D01*
X92904276Y-127837265D01*
X92904284Y-127837276D01*
X93056756Y-128002902D01*
X93056761Y-128002907D01*
X93089238Y-128028185D01*
X93234424Y-128141189D01*
X93254529Y-128152069D01*
X93277695Y-128164606D01*
X93327286Y-128213825D01*
X93342394Y-128282042D01*
X93318224Y-128347597D01*
X93289802Y-128375236D01*
X93108922Y-128501890D01*
X93108920Y-128501891D01*
X92941891Y-128668920D01*
X92941886Y-128668926D01*
X92806400Y-128862420D01*
X92806399Y-128862422D01*
X92706570Y-129076507D01*
X92706567Y-129076513D01*
X92649364Y-129289999D01*
X92649364Y-129290000D01*
X93546988Y-129290000D01*
X93514075Y-129347007D01*
X93480000Y-129474174D01*
X93480000Y-129605826D01*
X93514075Y-129732993D01*
X93546988Y-129790000D01*
X92649364Y-129790000D01*
X92674928Y-129885406D01*
X92673265Y-129955256D01*
X92634103Y-130013119D01*
X92569874Y-130040623D01*
X92555153Y-130041500D01*
X91689479Y-130041500D01*
X91622440Y-130021815D01*
X91576685Y-129969011D01*
X91566741Y-129899853D01*
X91571548Y-129879182D01*
X91590452Y-129821001D01*
X91595362Y-129790000D01*
X90603012Y-129790000D01*
X90635925Y-129732993D01*
X90670000Y-129605826D01*
X90670000Y-129474174D01*
X90635925Y-129347007D01*
X90603012Y-129290000D01*
X91595362Y-129290000D01*
X91590451Y-129258997D01*
X91532085Y-129079362D01*
X91446329Y-128911059D01*
X91335314Y-128758258D01*
X91335310Y-128758253D01*
X91201746Y-128624689D01*
X91201741Y-128624685D01*
X91048940Y-128513670D01*
X90880637Y-128427914D01*
X90757579Y-128387931D01*
X90699904Y-128348494D01*
X90672705Y-128284135D01*
X90684619Y-128215289D01*
X90731863Y-128163813D01*
X90757579Y-128152069D01*
X90880637Y-128112085D01*
X91048940Y-128026329D01*
X91201741Y-127915314D01*
X91201746Y-127915310D01*
X91335310Y-127781746D01*
X91335314Y-127781741D01*
X91446329Y-127628940D01*
X91532085Y-127460637D01*
X91590451Y-127281002D01*
X91595362Y-127250000D01*
X90603012Y-127250000D01*
X90635925Y-127192993D01*
X90670000Y-127065826D01*
X90670000Y-126934174D01*
X90635925Y-126807007D01*
X90603012Y-126750000D01*
X91595362Y-126750000D01*
X91590451Y-126718997D01*
X91532085Y-126539362D01*
X91446329Y-126371059D01*
X91335314Y-126218258D01*
X91335310Y-126218253D01*
X91201746Y-126084689D01*
X91201741Y-126084685D01*
X91048940Y-125973670D01*
X90880637Y-125887914D01*
X90701002Y-125829548D01*
X90514447Y-125800000D01*
X90420000Y-125800000D01*
X90420000Y-126566988D01*
X90362993Y-126534075D01*
X90235826Y-126500000D01*
X90104174Y-126500000D01*
X89977007Y-126534075D01*
X89920000Y-126566988D01*
X89920000Y-125800000D01*
X89825553Y-125800000D01*
X89638997Y-125829548D01*
X89459362Y-125887914D01*
X89291059Y-125973670D01*
X89138258Y-126084685D01*
X89138253Y-126084689D01*
X89004689Y-126218253D01*
X89001519Y-126221965D01*
X89000413Y-126221020D01*
X88950225Y-126259712D01*
X88880611Y-126265682D01*
X88818820Y-126233068D01*
X88804937Y-126217044D01*
X88801792Y-126212715D01*
X88667285Y-126078208D01*
X88513392Y-125966398D01*
X88511341Y-125965353D01*
X88343907Y-125880040D01*
X88162991Y-125821256D01*
X87975116Y-125791500D01*
X87975111Y-125791500D01*
X87284889Y-125791500D01*
X87284884Y-125791500D01*
X87097008Y-125821256D01*
X86916092Y-125880040D01*
X86746607Y-125966398D01*
X86592712Y-126078210D01*
X86458210Y-126212712D01*
X86458210Y-126212713D01*
X86458208Y-126212715D01*
X86443421Y-126233068D01*
X86346398Y-126366607D01*
X86260040Y-126536092D01*
X86201256Y-126717008D01*
X86171500Y-126904883D01*
X86171500Y-127095116D01*
X86201256Y-127282991D01*
X86260040Y-127463907D01*
X86278431Y-127500000D01*
X86346398Y-127633392D01*
X86458208Y-127787285D01*
X86592715Y-127921792D01*
X86746608Y-128033602D01*
X86768623Y-128044819D01*
X86916092Y-128119959D01*
X86916094Y-128119959D01*
X86916097Y-128119961D01*
X87010975Y-128150788D01*
X87014915Y-128152069D01*
X87072590Y-128191507D01*
X87099788Y-128255866D01*
X87087873Y-128324712D01*
X87040629Y-128376188D01*
X87014915Y-128387931D01*
X86916092Y-128420040D01*
X86746607Y-128506398D01*
X86668625Y-128563056D01*
X86592715Y-128618208D01*
X86592713Y-128618210D01*
X86592712Y-128618210D01*
X86458210Y-128752712D01*
X86458210Y-128752713D01*
X86458208Y-128752715D01*
X86424063Y-128799712D01*
X86346398Y-128906607D01*
X86260040Y-129076092D01*
X86201256Y-129257008D01*
X86171500Y-129444883D01*
X86171500Y-129635116D01*
X86201257Y-129822992D01*
X86201257Y-129822995D01*
X86219514Y-129879182D01*
X86221509Y-129949023D01*
X86185429Y-130008856D01*
X86122728Y-130039684D01*
X86101583Y-130041500D01*
X83174121Y-130041500D01*
X83107082Y-130021815D01*
X83086440Y-130005181D01*
X81991331Y-128910072D01*
X80892468Y-127811208D01*
X80858983Y-127749885D01*
X80856828Y-127736488D01*
X80843542Y-127610072D01*
X80784527Y-127428444D01*
X80689040Y-127263056D01*
X80561253Y-127121134D01*
X80406752Y-127008882D01*
X80232288Y-126931206D01*
X80232286Y-126931205D01*
X80045487Y-126891500D01*
X79854513Y-126891500D01*
X79667714Y-126931205D01*
X79667712Y-126931206D01*
X79513198Y-127000000D01*
X79493246Y-127008883D01*
X79338745Y-127121135D01*
X79210959Y-127263057D01*
X79115473Y-127428443D01*
X79115471Y-127428447D01*
X79081497Y-127533007D01*
X79042058Y-127590682D01*
X78989349Y-127615978D01*
X78917713Y-127631205D01*
X78743244Y-127708884D01*
X78588745Y-127821135D01*
X78460959Y-127963057D01*
X78362224Y-128134072D01*
X78360553Y-128133107D01*
X78321257Y-128179315D01*
X78279035Y-128196915D01*
X78117714Y-128231205D01*
X78117712Y-128231206D01*
X78011753Y-128278382D01*
X77943246Y-128308883D01*
X77788745Y-128421135D01*
X77660959Y-128563057D01*
X77565473Y-128728443D01*
X77565470Y-128728450D01*
X77506459Y-128910068D01*
X77506458Y-128910072D01*
X77486496Y-129100000D01*
X61126234Y-129100000D01*
X61181415Y-129044819D01*
X61242738Y-129011334D01*
X61269096Y-129008500D01*
X75099330Y-129008500D01*
X75099331Y-129008499D01*
X75294169Y-128969744D01*
X75477704Y-128893721D01*
X75642881Y-128783353D01*
X75783353Y-128642881D01*
X80243353Y-124182881D01*
X80353721Y-124017704D01*
X80429744Y-123834169D01*
X80468500Y-123639329D01*
X80468500Y-122942157D01*
X80482016Y-122885862D01*
X80487288Y-122875516D01*
X80541205Y-122709574D01*
X80568500Y-122537241D01*
X80568500Y-122536571D01*
X80900000Y-122536571D01*
X80927085Y-122707584D01*
X80980591Y-122872257D01*
X81059195Y-123026524D01*
X81160967Y-123166602D01*
X81283397Y-123289032D01*
X81423475Y-123390804D01*
X81577744Y-123469408D01*
X81742415Y-123522914D01*
X81742414Y-123522914D01*
X81749999Y-123524115D01*
X81750000Y-123524114D01*
X81750000Y-122475277D01*
X81826306Y-122519333D01*
X81940756Y-122550000D01*
X82059244Y-122550000D01*
X82173694Y-122519333D01*
X82250000Y-122475277D01*
X82250000Y-123524115D01*
X82257584Y-123522914D01*
X82422255Y-123469408D01*
X82576524Y-123390804D01*
X82716602Y-123289032D01*
X82839032Y-123166602D01*
X82940804Y-123026524D01*
X83019408Y-122872257D01*
X83072914Y-122707584D01*
X83100000Y-122536571D01*
X83100000Y-122350000D01*
X82375278Y-122350000D01*
X82419333Y-122273694D01*
X82450000Y-122159244D01*
X82450000Y-122040756D01*
X82419333Y-121926306D01*
X82375278Y-121850000D01*
X83100000Y-121850000D01*
X83100000Y-121663428D01*
X83072914Y-121492415D01*
X83019408Y-121327742D01*
X82940804Y-121173475D01*
X82839032Y-121033397D01*
X82716602Y-120910967D01*
X82576524Y-120809195D01*
X82422257Y-120730591D01*
X82257589Y-120677087D01*
X82257581Y-120677085D01*
X82250000Y-120675884D01*
X82250000Y-121724722D01*
X82173694Y-121680667D01*
X82059244Y-121650000D01*
X81940756Y-121650000D01*
X81826306Y-121680667D01*
X81750000Y-121724722D01*
X81750000Y-120675884D01*
X81749999Y-120675884D01*
X81742418Y-120677085D01*
X81742410Y-120677087D01*
X81577742Y-120730591D01*
X81423475Y-120809195D01*
X81283397Y-120910967D01*
X81160967Y-121033397D01*
X81059195Y-121173475D01*
X80980591Y-121327742D01*
X80927085Y-121492415D01*
X80900000Y-121663428D01*
X80900000Y-121850000D01*
X81624722Y-121850000D01*
X81580667Y-121926306D01*
X81550000Y-122040756D01*
X81550000Y-122159244D01*
X81580667Y-122273694D01*
X81624722Y-122350000D01*
X80900000Y-122350000D01*
X80900000Y-122536571D01*
X80568500Y-122536571D01*
X80568500Y-121662759D01*
X80541205Y-121490426D01*
X80496320Y-121352282D01*
X80487289Y-121324486D01*
X80487288Y-121324483D01*
X80410344Y-121173475D01*
X80408074Y-121169019D01*
X80394971Y-121150984D01*
X80305522Y-121027867D01*
X80305518Y-121027862D01*
X80182137Y-120904481D01*
X80182132Y-120904477D01*
X80040984Y-120801928D01*
X80040983Y-120801927D01*
X80040981Y-120801926D01*
X79991175Y-120776548D01*
X79885516Y-120722711D01*
X79885513Y-120722710D01*
X79719575Y-120668795D01*
X79633407Y-120655147D01*
X79547241Y-120641500D01*
X79372759Y-120641500D01*
X79315314Y-120650598D01*
X79200424Y-120668795D01*
X79034486Y-120722710D01*
X79034483Y-120722711D01*
X78879015Y-120801928D01*
X78737867Y-120904477D01*
X78737862Y-120904481D01*
X78614481Y-121027862D01*
X78614477Y-121027867D01*
X78511928Y-121169015D01*
X78432711Y-121324483D01*
X78432710Y-121324486D01*
X78378795Y-121490424D01*
X78351500Y-121662759D01*
X78351500Y-122537240D01*
X78378795Y-122709575D01*
X78413476Y-122816315D01*
X78432712Y-122875516D01*
X78437983Y-122885862D01*
X78451500Y-122942157D01*
X78451500Y-123070904D01*
X78431815Y-123137943D01*
X78415181Y-123158585D01*
X74618585Y-126955181D01*
X74557262Y-126988666D01*
X74530904Y-126991500D01*
X60700666Y-126991500D01*
X60505838Y-127030254D01*
X60505830Y-127030256D01*
X60322298Y-127106277D01*
X60322289Y-127106282D01*
X60157119Y-127216646D01*
X60157115Y-127216649D01*
X57194210Y-130179554D01*
X57132887Y-130213039D01*
X57088048Y-130214488D01*
X56935535Y-130191500D01*
X56935528Y-130191500D01*
X56664472Y-130191500D01*
X56664464Y-130191500D01*
X56511951Y-130214488D01*
X56442726Y-130205015D01*
X56405789Y-130179554D01*
X52442884Y-126216649D01*
X52442880Y-126216646D01*
X52277710Y-126106282D01*
X52277701Y-126106277D01*
X52209935Y-126078208D01*
X52094169Y-126030256D01*
X52094161Y-126030254D01*
X51899333Y-125991500D01*
X51899329Y-125991500D01*
X49218623Y-125991500D01*
X49151584Y-125971815D01*
X49142461Y-125965353D01*
X49005579Y-125858813D01*
X49005570Y-125858807D01*
X48807580Y-125751661D01*
X48807577Y-125751659D01*
X48807574Y-125751658D01*
X48807571Y-125751657D01*
X48807569Y-125751656D01*
X48594637Y-125678556D01*
X48372569Y-125641500D01*
X48147431Y-125641500D01*
X47925362Y-125678556D01*
X47712430Y-125751656D01*
X47712419Y-125751661D01*
X47514427Y-125858808D01*
X47514422Y-125858812D01*
X47336761Y-125997092D01*
X47336756Y-125997097D01*
X47184284Y-126162723D01*
X47184276Y-126162734D01*
X47061140Y-126351207D01*
X46970703Y-126557385D01*
X46915436Y-126775628D01*
X46915434Y-126775640D01*
X46896844Y-126999994D01*
X46896844Y-127000005D01*
X46915434Y-127224359D01*
X46915436Y-127224371D01*
X46970703Y-127442614D01*
X47061140Y-127648792D01*
X47184276Y-127837265D01*
X47184284Y-127837276D01*
X47336756Y-128002902D01*
X47336761Y-128002907D01*
X47369238Y-128028185D01*
X47514424Y-128141189D01*
X47514429Y-128141191D01*
X47514431Y-128141193D01*
X47550930Y-128160946D01*
X47600520Y-128210165D01*
X47615628Y-128278382D01*
X47591457Y-128343937D01*
X47550930Y-128379054D01*
X47514431Y-128398806D01*
X47514422Y-128398812D01*
X47336761Y-128537092D01*
X47336756Y-128537097D01*
X47184284Y-128702723D01*
X47184276Y-128702734D01*
X47061140Y-128891207D01*
X46970703Y-129097385D01*
X46915436Y-129315628D01*
X46915434Y-129315640D01*
X46896844Y-129539994D01*
X46896844Y-129540005D01*
X46915434Y-129764359D01*
X46915436Y-129764371D01*
X46970703Y-129982614D01*
X47061140Y-130188792D01*
X47184276Y-130377265D01*
X47184284Y-130377276D01*
X47336756Y-130542902D01*
X47336760Y-130542906D01*
X47514424Y-130681189D01*
X47514429Y-130681191D01*
X47514431Y-130681193D01*
X47550930Y-130700946D01*
X47600520Y-130750165D01*
X47615628Y-130818382D01*
X47591457Y-130883937D01*
X47550930Y-130919054D01*
X47514431Y-130938806D01*
X47514422Y-130938812D01*
X47336761Y-131077092D01*
X47336756Y-131077097D01*
X47184284Y-131242723D01*
X47184276Y-131242734D01*
X47061140Y-131431207D01*
X46970703Y-131637385D01*
X46915436Y-131855628D01*
X46915434Y-131855640D01*
X46896844Y-132079994D01*
X46896844Y-132080005D01*
X46915434Y-132304359D01*
X46915436Y-132304371D01*
X46970703Y-132522614D01*
X47061140Y-132728792D01*
X47184276Y-132917265D01*
X47184284Y-132917276D01*
X47336756Y-133082902D01*
X47336760Y-133082906D01*
X47514424Y-133221189D01*
X47514429Y-133221191D01*
X47514431Y-133221193D01*
X47550930Y-133240946D01*
X47600520Y-133290165D01*
X47615628Y-133358382D01*
X47591457Y-133423937D01*
X47550930Y-133459054D01*
X47514431Y-133478806D01*
X47514422Y-133478812D01*
X47336761Y-133617092D01*
X47336756Y-133617097D01*
X47184284Y-133782723D01*
X47184276Y-133782734D01*
X47061140Y-133971207D01*
X46970703Y-134177385D01*
X46915436Y-134395628D01*
X46915434Y-134395640D01*
X46896844Y-134619994D01*
X46896844Y-134620005D01*
X46915434Y-134844359D01*
X46915436Y-134844371D01*
X46970703Y-135062614D01*
X47061140Y-135268792D01*
X47184276Y-135457265D01*
X47184284Y-135457276D01*
X47336756Y-135622902D01*
X47336760Y-135622906D01*
X47514424Y-135761189D01*
X47514429Y-135761191D01*
X47514431Y-135761193D01*
X47550930Y-135780946D01*
X47600520Y-135830165D01*
X47615628Y-135898382D01*
X47591457Y-135963937D01*
X47550930Y-135999054D01*
X47514431Y-136018806D01*
X47514422Y-136018812D01*
X47336761Y-136157092D01*
X47336756Y-136157097D01*
X47184284Y-136322723D01*
X47184276Y-136322734D01*
X47061140Y-136511207D01*
X46970703Y-136717385D01*
X46915436Y-136935628D01*
X46915434Y-136935640D01*
X46896844Y-137159994D01*
X46896844Y-137160005D01*
X46915434Y-137384359D01*
X46915436Y-137384371D01*
X46970703Y-137602614D01*
X47061140Y-137808792D01*
X47184276Y-137997265D01*
X47184284Y-137997276D01*
X47336756Y-138162902D01*
X47336761Y-138162907D01*
X47376196Y-138193601D01*
X47514424Y-138301189D01*
X47514429Y-138301191D01*
X47514431Y-138301193D01*
X47550930Y-138320946D01*
X47600520Y-138370165D01*
X47615628Y-138438382D01*
X47591457Y-138503937D01*
X47550930Y-138539054D01*
X47514431Y-138558806D01*
X47514422Y-138558812D01*
X47336761Y-138697092D01*
X47336756Y-138697097D01*
X47184284Y-138862723D01*
X47184276Y-138862734D01*
X47061140Y-139051207D01*
X46970703Y-139257385D01*
X46915436Y-139475628D01*
X46915434Y-139475640D01*
X46896844Y-139699994D01*
X46896844Y-139700005D01*
X46915434Y-139924359D01*
X46915436Y-139924371D01*
X46970703Y-140142614D01*
X47061140Y-140348792D01*
X47184276Y-140537265D01*
X47184284Y-140537276D01*
X47336756Y-140702902D01*
X47336761Y-140702907D01*
X47376196Y-140733601D01*
X47514424Y-140841189D01*
X47514429Y-140841191D01*
X47514431Y-140841193D01*
X47550930Y-140860946D01*
X47600520Y-140910165D01*
X47615628Y-140978382D01*
X47591457Y-141043937D01*
X47550930Y-141079054D01*
X47514431Y-141098806D01*
X47514422Y-141098812D01*
X47336761Y-141237092D01*
X47336756Y-141237097D01*
X47184284Y-141402723D01*
X47184276Y-141402734D01*
X47061140Y-141591207D01*
X46970703Y-141797385D01*
X46915436Y-142015628D01*
X46915434Y-142015640D01*
X46896844Y-142239994D01*
X46896844Y-142240005D01*
X46915434Y-142464359D01*
X46915436Y-142464371D01*
X46970703Y-142682614D01*
X47061140Y-142888792D01*
X47184276Y-143077265D01*
X47184284Y-143077276D01*
X47336756Y-143242902D01*
X47336761Y-143242907D01*
X47376196Y-143273601D01*
X47514424Y-143381189D01*
X47514429Y-143381191D01*
X47514431Y-143381193D01*
X47550930Y-143400946D01*
X47600520Y-143450165D01*
X47615628Y-143518382D01*
X47591457Y-143583937D01*
X47550930Y-143619054D01*
X47514431Y-143638806D01*
X47514422Y-143638812D01*
X47336761Y-143777092D01*
X47336756Y-143777097D01*
X47184284Y-143942723D01*
X47184276Y-143942734D01*
X47061140Y-144131207D01*
X46970703Y-144337385D01*
X46915436Y-144555628D01*
X46915434Y-144555640D01*
X46896844Y-144779994D01*
X46896844Y-144780005D01*
X45795500Y-144780005D01*
X45795500Y-122667717D01*
X47871500Y-122667717D01*
X47871501Y-122667728D01*
X47874268Y-122714208D01*
X47874269Y-122714221D01*
X47918251Y-122916402D01*
X47918254Y-122916413D01*
X47967315Y-123030981D01*
X47999710Y-123106628D01*
X48115692Y-123277991D01*
X48262009Y-123424308D01*
X48433372Y-123540290D01*
X48623588Y-123621746D01*
X48825783Y-123665731D01*
X48872269Y-123668500D01*
X50187730Y-123668499D01*
X50234217Y-123665731D01*
X50436412Y-123621746D01*
X50626628Y-123540290D01*
X50797991Y-123424308D01*
X50944308Y-123277991D01*
X51060290Y-123106628D01*
X51141746Y-122916412D01*
X51163517Y-122816331D01*
X57491500Y-122816331D01*
X57498011Y-122876879D01*
X57498011Y-122876881D01*
X57549111Y-123013881D01*
X57636739Y-123130938D01*
X57753796Y-123218566D01*
X57890799Y-123269666D01*
X57918050Y-123272595D01*
X57951345Y-123276176D01*
X57951362Y-123276177D01*
X60048638Y-123276177D01*
X60048654Y-123276176D01*
X60075692Y-123273268D01*
X60109201Y-123269666D01*
X60246204Y-123218566D01*
X60363261Y-123130938D01*
X60450889Y-123013881D01*
X60501989Y-122876878D01*
X60505591Y-122843369D01*
X60508499Y-122816331D01*
X60508500Y-122816314D01*
X60508500Y-122537240D01*
X73271500Y-122537240D01*
X73298795Y-122709575D01*
X73352710Y-122875513D01*
X73352711Y-122875516D01*
X73431928Y-123030984D01*
X73534477Y-123172132D01*
X73534481Y-123172137D01*
X73657862Y-123295518D01*
X73657867Y-123295522D01*
X73780984Y-123384971D01*
X73799019Y-123398074D01*
X73900646Y-123449856D01*
X73954483Y-123477288D01*
X73954486Y-123477289D01*
X74037455Y-123504246D01*
X74120426Y-123531205D01*
X74292759Y-123558500D01*
X74292760Y-123558500D01*
X74467240Y-123558500D01*
X74467241Y-123558500D01*
X74639574Y-123531205D01*
X74805516Y-123477288D01*
X74960981Y-123398074D01*
X75102139Y-123295517D01*
X75225517Y-123172139D01*
X75328074Y-123030981D01*
X75407288Y-122875516D01*
X75461205Y-122709574D01*
X75488500Y-122537241D01*
X75488500Y-122537240D01*
X75811500Y-122537240D01*
X75838795Y-122709575D01*
X75892710Y-122875513D01*
X75892711Y-122875516D01*
X75971928Y-123030984D01*
X76074477Y-123172132D01*
X76074481Y-123172137D01*
X76197862Y-123295518D01*
X76197867Y-123295522D01*
X76320984Y-123384971D01*
X76339019Y-123398074D01*
X76440646Y-123449856D01*
X76494483Y-123477288D01*
X76494486Y-123477289D01*
X76577455Y-123504246D01*
X76660426Y-123531205D01*
X76832759Y-123558500D01*
X76832760Y-123558500D01*
X77007240Y-123558500D01*
X77007241Y-123558500D01*
X77179574Y-123531205D01*
X77345516Y-123477288D01*
X77500981Y-123398074D01*
X77642139Y-123295517D01*
X77765517Y-123172139D01*
X77868074Y-123030981D01*
X77947288Y-122875516D01*
X78001205Y-122709574D01*
X78028500Y-122537241D01*
X78028500Y-121662759D01*
X78001205Y-121490426D01*
X77956320Y-121352282D01*
X77947289Y-121324486D01*
X77947288Y-121324483D01*
X77870344Y-121173475D01*
X77868074Y-121169019D01*
X77854971Y-121150984D01*
X77765522Y-121027867D01*
X77765518Y-121027862D01*
X77642137Y-120904481D01*
X77642132Y-120904477D01*
X77500984Y-120801928D01*
X77500983Y-120801927D01*
X77500981Y-120801926D01*
X77451175Y-120776548D01*
X77345516Y-120722711D01*
X77345513Y-120722710D01*
X77179575Y-120668795D01*
X77093407Y-120655147D01*
X77007241Y-120641500D01*
X76832759Y-120641500D01*
X76775314Y-120650598D01*
X76660424Y-120668795D01*
X76494486Y-120722710D01*
X76494483Y-120722711D01*
X76339015Y-120801928D01*
X76197867Y-120904477D01*
X76197862Y-120904481D01*
X76074481Y-121027862D01*
X76074477Y-121027867D01*
X75971928Y-121169015D01*
X75892711Y-121324483D01*
X75892710Y-121324486D01*
X75838795Y-121490424D01*
X75811500Y-121662759D01*
X75811500Y-122537240D01*
X75488500Y-122537240D01*
X75488500Y-121662759D01*
X75461205Y-121490426D01*
X75416320Y-121352282D01*
X75407289Y-121324486D01*
X75407288Y-121324483D01*
X75330344Y-121173475D01*
X75328074Y-121169019D01*
X75314971Y-121150984D01*
X75225522Y-121027867D01*
X75225518Y-121027862D01*
X75102137Y-120904481D01*
X75102132Y-120904477D01*
X74960984Y-120801928D01*
X74960983Y-120801927D01*
X74960981Y-120801926D01*
X74911175Y-120776548D01*
X74805516Y-120722711D01*
X74805513Y-120722710D01*
X74639575Y-120668795D01*
X74553407Y-120655147D01*
X74467241Y-120641500D01*
X74292759Y-120641500D01*
X74235314Y-120650598D01*
X74120424Y-120668795D01*
X73954486Y-120722710D01*
X73954483Y-120722711D01*
X73799015Y-120801928D01*
X73657867Y-120904477D01*
X73657862Y-120904481D01*
X73534481Y-121027862D01*
X73534477Y-121027867D01*
X73431928Y-121169015D01*
X73352711Y-121324483D01*
X73352710Y-121324486D01*
X73298795Y-121490424D01*
X73271500Y-121662759D01*
X73271500Y-122537240D01*
X60508500Y-122537240D01*
X60508500Y-120719039D01*
X60508499Y-120719022D01*
X60503990Y-120677087D01*
X60501989Y-120658476D01*
X60495657Y-120641500D01*
X60478571Y-120595690D01*
X60450889Y-120521473D01*
X60363261Y-120404416D01*
X60246204Y-120316788D01*
X60109203Y-120265688D01*
X60048654Y-120259177D01*
X60048638Y-120259177D01*
X57951362Y-120259177D01*
X57951345Y-120259177D01*
X57890797Y-120265688D01*
X57890795Y-120265688D01*
X57753795Y-120316788D01*
X57636739Y-120404416D01*
X57549111Y-120521472D01*
X57498011Y-120658472D01*
X57498011Y-120658474D01*
X57491500Y-120719022D01*
X57491500Y-122816331D01*
X51163517Y-122816331D01*
X51185731Y-122714217D01*
X51188500Y-122667731D01*
X51188499Y-121352270D01*
X51185731Y-121305783D01*
X51141746Y-121103588D01*
X51060290Y-120913372D01*
X50944308Y-120742009D01*
X50797991Y-120595692D01*
X50626628Y-120479710D01*
X50626623Y-120479708D01*
X50626622Y-120479707D01*
X50436413Y-120398254D01*
X50436402Y-120398251D01*
X50234222Y-120354270D01*
X50234221Y-120354269D01*
X50234217Y-120354269D01*
X50187731Y-120351500D01*
X50187719Y-120351500D01*
X48872282Y-120351500D01*
X48872271Y-120351500D01*
X48872270Y-120351501D01*
X48867525Y-120351783D01*
X48825791Y-120354268D01*
X48825778Y-120354269D01*
X48623597Y-120398251D01*
X48623586Y-120398254D01*
X48433377Y-120479707D01*
X48433373Y-120479709D01*
X48433372Y-120479710D01*
X48371669Y-120521472D01*
X48262011Y-120595690D01*
X48262006Y-120595694D01*
X48115694Y-120742006D01*
X48115690Y-120742011D01*
X48070219Y-120809195D01*
X48005727Y-120904483D01*
X47999707Y-120913377D01*
X47918254Y-121103586D01*
X47918251Y-121103597D01*
X47874270Y-121305777D01*
X47874269Y-121305783D01*
X47871500Y-121352269D01*
X47871500Y-121352279D01*
X47871500Y-121352280D01*
X47871500Y-122667717D01*
X45795500Y-122667717D01*
X45795500Y-118067717D01*
X47871500Y-118067717D01*
X47871501Y-118067728D01*
X47874268Y-118114208D01*
X47874269Y-118114221D01*
X47918251Y-118316402D01*
X47918254Y-118316412D01*
X47999710Y-118506628D01*
X48115692Y-118677991D01*
X48262009Y-118824308D01*
X48433372Y-118940290D01*
X48623588Y-119021746D01*
X48825783Y-119065731D01*
X48872269Y-119068500D01*
X50187730Y-119068499D01*
X50234217Y-119065731D01*
X50436412Y-119021746D01*
X50626628Y-118940290D01*
X50797991Y-118824308D01*
X50944308Y-118677991D01*
X51060290Y-118506628D01*
X51141746Y-118316412D01*
X51185731Y-118114217D01*
X51188500Y-118067731D01*
X51188499Y-116767682D01*
X57494859Y-116767682D01*
X57515385Y-117015406D01*
X57515387Y-117015415D01*
X57576412Y-117256394D01*
X57676266Y-117484041D01*
X57776564Y-117637559D01*
X58517037Y-116897086D01*
X58534075Y-116960670D01*
X58599901Y-117074684D01*
X58692993Y-117167776D01*
X58807007Y-117233602D01*
X58870590Y-117250639D01*
X58129942Y-117991286D01*
X58176768Y-118027732D01*
X58176770Y-118027733D01*
X58395385Y-118146041D01*
X58395396Y-118146046D01*
X58630506Y-118226760D01*
X58875707Y-118267677D01*
X59124293Y-118267677D01*
X59369493Y-118226760D01*
X59604603Y-118146046D01*
X59604614Y-118146041D01*
X59823228Y-118027734D01*
X59823231Y-118027732D01*
X59870056Y-117991286D01*
X59129409Y-117250639D01*
X59192993Y-117233602D01*
X59307007Y-117167776D01*
X59400099Y-117074684D01*
X59465925Y-116960670D01*
X59482962Y-116897086D01*
X60223434Y-117637559D01*
X60323731Y-117484046D01*
X60423587Y-117256394D01*
X60484612Y-117015415D01*
X60484614Y-117015406D01*
X60505141Y-116767682D01*
X60505141Y-116767671D01*
X60484614Y-116519947D01*
X60484612Y-116519938D01*
X60423587Y-116278959D01*
X60323731Y-116051307D01*
X60223434Y-115897793D01*
X59482962Y-116638266D01*
X59465925Y-116574684D01*
X59400099Y-116460670D01*
X59307007Y-116367578D01*
X59192993Y-116301752D01*
X59129410Y-116284714D01*
X59870057Y-115544067D01*
X59870056Y-115544066D01*
X59823229Y-115507620D01*
X59604614Y-115389312D01*
X59604603Y-115389307D01*
X59369493Y-115308593D01*
X59124293Y-115267677D01*
X58875707Y-115267677D01*
X58630506Y-115308593D01*
X58395396Y-115389307D01*
X58395390Y-115389309D01*
X58176761Y-115507626D01*
X58129942Y-115544065D01*
X58129942Y-115544067D01*
X58870590Y-116284714D01*
X58807007Y-116301752D01*
X58692993Y-116367578D01*
X58599901Y-116460670D01*
X58534075Y-116574684D01*
X58517037Y-116638266D01*
X57776564Y-115897793D01*
X57676267Y-116051309D01*
X57576412Y-116278959D01*
X57515387Y-116519938D01*
X57515385Y-116519947D01*
X57494859Y-116767671D01*
X57494859Y-116767682D01*
X51188499Y-116767682D01*
X51188499Y-116752270D01*
X51185731Y-116705783D01*
X51141746Y-116503588D01*
X51060290Y-116313372D01*
X50944308Y-116142009D01*
X50797991Y-115995692D01*
X50626628Y-115879710D01*
X50626623Y-115879708D01*
X50626622Y-115879707D01*
X50436413Y-115798254D01*
X50436402Y-115798251D01*
X50234222Y-115754270D01*
X50234221Y-115754269D01*
X50234217Y-115754269D01*
X50187731Y-115751500D01*
X50187719Y-115751500D01*
X48872282Y-115751500D01*
X48872271Y-115751500D01*
X48872270Y-115751501D01*
X48867525Y-115751783D01*
X48825791Y-115754268D01*
X48825778Y-115754269D01*
X48623597Y-115798251D01*
X48623586Y-115798254D01*
X48433377Y-115879707D01*
X48433373Y-115879709D01*
X48433372Y-115879710D01*
X48369500Y-115922939D01*
X48262011Y-115995690D01*
X48262006Y-115995694D01*
X48115694Y-116142006D01*
X48115690Y-116142011D01*
X48042939Y-116249500D01*
X48023002Y-116278959D01*
X47999707Y-116313377D01*
X47918254Y-116503586D01*
X47918251Y-116503597D01*
X47875124Y-116701851D01*
X47874269Y-116705783D01*
X47871500Y-116752269D01*
X47871500Y-116752279D01*
X47871500Y-116752280D01*
X47871500Y-118067717D01*
X45795500Y-118067717D01*
X45795500Y-106110000D01*
X47866372Y-106110000D01*
X47886854Y-106370249D01*
X47947796Y-106624089D01*
X47947797Y-106624091D01*
X48047696Y-106865271D01*
X48184095Y-107087853D01*
X48184098Y-107087858D01*
X48260949Y-107177839D01*
X48353637Y-107286363D01*
X48480701Y-107394885D01*
X48552141Y-107455901D01*
X48552146Y-107455904D01*
X48774728Y-107592303D01*
X48859998Y-107627622D01*
X49015911Y-107692204D01*
X49269751Y-107753146D01*
X49530000Y-107773628D01*
X49790249Y-107753146D01*
X50044089Y-107692204D01*
X50285271Y-107592303D01*
X50507856Y-107455903D01*
X50706363Y-107286363D01*
X50875903Y-107087856D01*
X51012303Y-106865271D01*
X51089043Y-106680005D01*
X89636844Y-106680005D01*
X89655434Y-106904359D01*
X89655436Y-106904371D01*
X89710703Y-107122614D01*
X89801140Y-107328792D01*
X89924276Y-107517265D01*
X89924284Y-107517276D01*
X90076756Y-107682902D01*
X90076760Y-107682906D01*
X90254424Y-107821189D01*
X90254425Y-107821189D01*
X90254427Y-107821191D01*
X90381135Y-107889761D01*
X90452426Y-107928342D01*
X90665365Y-108001444D01*
X90887431Y-108038500D01*
X91112569Y-108038500D01*
X91334635Y-108001444D01*
X91547574Y-107928342D01*
X91745576Y-107821189D01*
X91923240Y-107682906D01*
X92075722Y-107517268D01*
X92198860Y-107328791D01*
X92289296Y-107122616D01*
X92344564Y-106904368D01*
X92363156Y-106680000D01*
X92358523Y-106624091D01*
X92344565Y-106455640D01*
X92344563Y-106455628D01*
X92341876Y-106445018D01*
X92289296Y-106237384D01*
X92198860Y-106031209D01*
X92075722Y-105842732D01*
X92075719Y-105842729D01*
X92075715Y-105842723D01*
X91930510Y-105684991D01*
X91899587Y-105622337D01*
X91907447Y-105552911D01*
X91951594Y-105498755D01*
X91978405Y-105484827D01*
X92068669Y-105451159D01*
X92096204Y-105440889D01*
X92213261Y-105353261D01*
X92300889Y-105236204D01*
X92351989Y-105099201D01*
X92355591Y-105065692D01*
X92358499Y-105038654D01*
X92358500Y-105038637D01*
X92358500Y-103241362D01*
X92358499Y-103241345D01*
X92355157Y-103210270D01*
X92351989Y-103180799D01*
X92349314Y-103173628D01*
X92318944Y-103092204D01*
X92300889Y-103043796D01*
X92213261Y-102926739D01*
X92096204Y-102839111D01*
X91959203Y-102788011D01*
X91898654Y-102781500D01*
X91898638Y-102781500D01*
X90101362Y-102781500D01*
X90101345Y-102781500D01*
X90040797Y-102788011D01*
X90040795Y-102788011D01*
X89903795Y-102839111D01*
X89786739Y-102926739D01*
X89699111Y-103043795D01*
X89648011Y-103180795D01*
X89648011Y-103180797D01*
X89641500Y-103241345D01*
X89641500Y-105038654D01*
X89648011Y-105099202D01*
X89648011Y-105099204D01*
X89693298Y-105220618D01*
X89699111Y-105236204D01*
X89786739Y-105353261D01*
X89903796Y-105440889D01*
X89955737Y-105460262D01*
X90021595Y-105484827D01*
X90077528Y-105526699D01*
X90101944Y-105592163D01*
X90087092Y-105660436D01*
X90069490Y-105684991D01*
X89924279Y-105842730D01*
X89924276Y-105842734D01*
X89801140Y-106031207D01*
X89710703Y-106237385D01*
X89655436Y-106455628D01*
X89655434Y-106455640D01*
X89636844Y-106679994D01*
X89636844Y-106680005D01*
X51089043Y-106680005D01*
X51112204Y-106624089D01*
X51173146Y-106370249D01*
X51193628Y-106110000D01*
X51173146Y-105849751D01*
X51112204Y-105595911D01*
X51012303Y-105354729D01*
X51012303Y-105354728D01*
X50875904Y-105132146D01*
X50875901Y-105132141D01*
X50796041Y-105038637D01*
X50747562Y-104981875D01*
X67031500Y-104981875D01*
X67069628Y-105222608D01*
X67144950Y-105454422D01*
X67217043Y-105595911D01*
X67255604Y-105671591D01*
X67398871Y-105868780D01*
X67571220Y-106041129D01*
X67768409Y-106184396D01*
X67871014Y-106236676D01*
X67985577Y-106295049D01*
X67985579Y-106295049D01*
X67985582Y-106295051D01*
X68109837Y-106335424D01*
X68217391Y-106370371D01*
X68458125Y-106408500D01*
X68458130Y-106408500D01*
X68701875Y-106408500D01*
X68942608Y-106370371D01*
X68968125Y-106362080D01*
X69174418Y-106295051D01*
X69391591Y-106184396D01*
X69588780Y-106041129D01*
X69761129Y-105868780D01*
X69904396Y-105671591D01*
X70015051Y-105454418D01*
X70090371Y-105222608D01*
X70104700Y-105132141D01*
X70128500Y-104981875D01*
X70128500Y-104981200D01*
X72120000Y-104981200D01*
X72157920Y-105220618D01*
X72232827Y-105451159D01*
X72342874Y-105667136D01*
X72485356Y-105863245D01*
X72656754Y-106034643D01*
X72852863Y-106177125D01*
X73068840Y-106287172D01*
X73299381Y-106362080D01*
X73410000Y-106379600D01*
X73410000Y-104754120D01*
X73455818Y-104773099D01*
X73591056Y-104800000D01*
X73728944Y-104800000D01*
X73864182Y-104773099D01*
X73910000Y-104754120D01*
X73910000Y-106379599D01*
X74020618Y-106362080D01*
X74251159Y-106287172D01*
X74467136Y-106177125D01*
X74663245Y-106034643D01*
X74834643Y-105863245D01*
X74977125Y-105667136D01*
X75087172Y-105451159D01*
X75162079Y-105220618D01*
X75199893Y-104981875D01*
X77191500Y-104981875D01*
X77229628Y-105222608D01*
X77304950Y-105454422D01*
X77377043Y-105595911D01*
X77415604Y-105671591D01*
X77558871Y-105868780D01*
X77731220Y-106041129D01*
X77928409Y-106184396D01*
X78031014Y-106236676D01*
X78145577Y-106295049D01*
X78145579Y-106295049D01*
X78145582Y-106295051D01*
X78269837Y-106335424D01*
X78377391Y-106370371D01*
X78618125Y-106408500D01*
X78618130Y-106408500D01*
X78861875Y-106408500D01*
X79102608Y-106370371D01*
X79128125Y-106362080D01*
X79334418Y-106295051D01*
X79551591Y-106184396D01*
X79748780Y-106041129D01*
X79921129Y-105868780D01*
X80064396Y-105671591D01*
X80175051Y-105454418D01*
X80250371Y-105222608D01*
X80264700Y-105132141D01*
X80288500Y-104981875D01*
X82271500Y-104981875D01*
X82309628Y-105222608D01*
X82384950Y-105454422D01*
X82457043Y-105595911D01*
X82495604Y-105671591D01*
X82638871Y-105868780D01*
X82811220Y-106041129D01*
X83008409Y-106184396D01*
X83111014Y-106236676D01*
X83225577Y-106295049D01*
X83225579Y-106295049D01*
X83225582Y-106295051D01*
X83349837Y-106335424D01*
X83457391Y-106370371D01*
X83698125Y-106408500D01*
X83698130Y-106408500D01*
X83941875Y-106408500D01*
X84182608Y-106370371D01*
X84208125Y-106362080D01*
X84414418Y-106295051D01*
X84631591Y-106184396D01*
X84828780Y-106041129D01*
X85001129Y-105868780D01*
X85144396Y-105671591D01*
X85255051Y-105454418D01*
X85330371Y-105222608D01*
X85344700Y-105132141D01*
X85368500Y-104981875D01*
X85368500Y-103218124D01*
X85330371Y-102977391D01*
X85290896Y-102855901D01*
X85255051Y-102745582D01*
X85255049Y-102745579D01*
X85255049Y-102745577D01*
X85144395Y-102528408D01*
X85001129Y-102331220D01*
X84828780Y-102158871D01*
X84631591Y-102015604D01*
X84414422Y-101904950D01*
X84182608Y-101829628D01*
X83941875Y-101791500D01*
X83941870Y-101791500D01*
X83698130Y-101791500D01*
X83698125Y-101791500D01*
X83457391Y-101829628D01*
X83225577Y-101904950D01*
X83008408Y-102015604D01*
X82895904Y-102097343D01*
X82811220Y-102158871D01*
X82811218Y-102158873D01*
X82811217Y-102158873D01*
X82638873Y-102331217D01*
X82638873Y-102331218D01*
X82638871Y-102331220D01*
X82577343Y-102415904D01*
X82495604Y-102528408D01*
X82384950Y-102745577D01*
X82309628Y-102977391D01*
X82271500Y-103218124D01*
X82271500Y-104981875D01*
X80288500Y-104981875D01*
X80288500Y-103218124D01*
X80250371Y-102977391D01*
X80210896Y-102855901D01*
X80175051Y-102745582D01*
X80175049Y-102745579D01*
X80175049Y-102745577D01*
X80064395Y-102528408D01*
X79921129Y-102331220D01*
X79748780Y-102158871D01*
X79551591Y-102015604D01*
X79334422Y-101904950D01*
X79102608Y-101829628D01*
X78861875Y-101791500D01*
X78861870Y-101791500D01*
X78618130Y-101791500D01*
X78618125Y-101791500D01*
X78377391Y-101829628D01*
X78145577Y-101904950D01*
X77928408Y-102015604D01*
X77815904Y-102097343D01*
X77731220Y-102158871D01*
X77731218Y-102158873D01*
X77731217Y-102158873D01*
X77558873Y-102331217D01*
X77558873Y-102331218D01*
X77558871Y-102331220D01*
X77497343Y-102415904D01*
X77415604Y-102528408D01*
X77304950Y-102745577D01*
X77229628Y-102977391D01*
X77191500Y-103218124D01*
X77191500Y-104981875D01*
X75199893Y-104981875D01*
X75200000Y-104981200D01*
X75200000Y-104350000D01*
X74314121Y-104350000D01*
X74333099Y-104304182D01*
X74360000Y-104168944D01*
X74360000Y-104031056D01*
X74333099Y-103895818D01*
X74314121Y-103850000D01*
X75200000Y-103850000D01*
X75200000Y-103218799D01*
X75162079Y-102979381D01*
X75087172Y-102748840D01*
X74977125Y-102532863D01*
X74834643Y-102336754D01*
X74663245Y-102165356D01*
X74467136Y-102022874D01*
X74251157Y-101912827D01*
X74020614Y-101837919D01*
X73910000Y-101820399D01*
X73910000Y-103445879D01*
X73864182Y-103426901D01*
X73728944Y-103400000D01*
X73591056Y-103400000D01*
X73455818Y-103426901D01*
X73410000Y-103445879D01*
X73410000Y-101820399D01*
X73409999Y-101820399D01*
X73299385Y-101837919D01*
X73068842Y-101912827D01*
X72852863Y-102022874D01*
X72656754Y-102165356D01*
X72485356Y-102336754D01*
X72342874Y-102532863D01*
X72232827Y-102748840D01*
X72157920Y-102979381D01*
X72120000Y-103218799D01*
X72120000Y-103850000D01*
X73005879Y-103850000D01*
X72986901Y-103895818D01*
X72960000Y-104031056D01*
X72960000Y-104168944D01*
X72986901Y-104304182D01*
X73005879Y-104350000D01*
X72120000Y-104350000D01*
X72120000Y-104981200D01*
X70128500Y-104981200D01*
X70128500Y-103218124D01*
X70090371Y-102977391D01*
X70050896Y-102855901D01*
X70015051Y-102745582D01*
X70015049Y-102745579D01*
X70015049Y-102745577D01*
X69904395Y-102528408D01*
X69761129Y-102331220D01*
X69588780Y-102158871D01*
X69391591Y-102015604D01*
X69174422Y-101904950D01*
X68942608Y-101829628D01*
X68701875Y-101791500D01*
X68701870Y-101791500D01*
X68458130Y-101791500D01*
X68458125Y-101791500D01*
X68217391Y-101829628D01*
X67985577Y-101904950D01*
X67768408Y-102015604D01*
X67655904Y-102097343D01*
X67571220Y-102158871D01*
X67571218Y-102158873D01*
X67571217Y-102158873D01*
X67398873Y-102331217D01*
X67398873Y-102331218D01*
X67398871Y-102331220D01*
X67337343Y-102415904D01*
X67255604Y-102528408D01*
X67144950Y-102745577D01*
X67069628Y-102977391D01*
X67031500Y-103218124D01*
X67031500Y-104981875D01*
X50747562Y-104981875D01*
X50706363Y-104933637D01*
X50597839Y-104840949D01*
X50507858Y-104764098D01*
X50507853Y-104764095D01*
X50285271Y-104627696D01*
X50044091Y-104527797D01*
X50044089Y-104527796D01*
X49870445Y-104486107D01*
X49790250Y-104466854D01*
X49530000Y-104446372D01*
X49269749Y-104466854D01*
X49109357Y-104505361D01*
X49015911Y-104527796D01*
X49015909Y-104527796D01*
X49015908Y-104527797D01*
X48774728Y-104627696D01*
X48552146Y-104764095D01*
X48552141Y-104764098D01*
X48353637Y-104933637D01*
X48184098Y-105132141D01*
X48184095Y-105132146D01*
X48047696Y-105354728D01*
X47947797Y-105595908D01*
X47888539Y-105842734D01*
X47886854Y-105849751D01*
X47866372Y-106110000D01*
X45795500Y-106110000D01*
X45795500Y-101510000D01*
X47866372Y-101510000D01*
X47886854Y-101770249D01*
X47947796Y-102024089D01*
X47947797Y-102024091D01*
X48047696Y-102265271D01*
X48184095Y-102487853D01*
X48184098Y-102487858D01*
X48218731Y-102528408D01*
X48353637Y-102686363D01*
X48422974Y-102745582D01*
X48552141Y-102855901D01*
X48552146Y-102855904D01*
X48774728Y-102992303D01*
X48859998Y-103027622D01*
X49015911Y-103092204D01*
X49269751Y-103153146D01*
X49530000Y-103173628D01*
X49790249Y-103153146D01*
X50044089Y-103092204D01*
X50285271Y-102992303D01*
X50507856Y-102855903D01*
X50706363Y-102686363D01*
X50875903Y-102487856D01*
X51012303Y-102265271D01*
X51112204Y-102024089D01*
X51173146Y-101770249D01*
X51193628Y-101510000D01*
X51173146Y-101249751D01*
X51112204Y-100995911D01*
X51012303Y-100754729D01*
X51012303Y-100754728D01*
X50875904Y-100532146D01*
X50875901Y-100532141D01*
X50814885Y-100460701D01*
X50706363Y-100333637D01*
X50597839Y-100240949D01*
X50507858Y-100164098D01*
X50507853Y-100164095D01*
X50285271Y-100027696D01*
X50044091Y-99927797D01*
X50044089Y-99927796D01*
X49870445Y-99886107D01*
X49790250Y-99866854D01*
X49530000Y-99846372D01*
X49269749Y-99866854D01*
X49109357Y-99905361D01*
X49015911Y-99927796D01*
X49015909Y-99927796D01*
X49015908Y-99927797D01*
X48774728Y-100027696D01*
X48552146Y-100164095D01*
X48552141Y-100164098D01*
X48353637Y-100333637D01*
X48184098Y-100532141D01*
X48184095Y-100532146D01*
X48047696Y-100754728D01*
X47947797Y-100995908D01*
X47947796Y-100995911D01*
X47886854Y-101249751D01*
X47866372Y-101510000D01*
X45795500Y-101510000D01*
X45795500Y-99259500D01*
X45815185Y-99192461D01*
X45867989Y-99146706D01*
X45919500Y-99135500D01*
X96320500Y-99135500D01*
X96387539Y-99155185D01*
G37*
G04 #@! TD.AperFunction*
M02*
