G04 #@! TF.GenerationSoftware,KiCad,Pcbnew,7.0.6*
G04 #@! TF.CreationDate,2023-08-02T00:38:46+02:00*
G04 #@! TF.ProjectId,MCU_Board,4d43555f-426f-4617-9264-2e6b69636164,rev?*
G04 #@! TF.SameCoordinates,Original*
G04 #@! TF.FileFunction,Legend,Top*
G04 #@! TF.FilePolarity,Positive*
%FSLAX46Y46*%
G04 Gerber Fmt 4.6, Leading zero omitted, Abs format (unit mm)*
G04 Created by KiCad (PCBNEW 7.0.6) date 2023-08-02 00:38:46*
%MOMM*%
%LPD*%
G01*
G04 APERTURE LIST*
%ADD10C,0.200000*%
%ADD11C,0.150000*%
%ADD12C,0.120000*%
%ADD13C,0.100000*%
G04 APERTURE END LIST*
D10*
X83524000Y-117308000D02*
X85556000Y-117308000D01*
D11*
X84314286Y-110854819D02*
X84314286Y-109854819D01*
X84314286Y-110331009D02*
X84885714Y-110331009D01*
X84885714Y-110854819D02*
X84885714Y-109854819D01*
X84435714Y-124854819D02*
X83864286Y-124854819D01*
X84150000Y-124854819D02*
X84150000Y-123854819D01*
X84150000Y-123854819D02*
X84054762Y-123997676D01*
X84054762Y-123997676D02*
X83959524Y-124092914D01*
X83959524Y-124092914D02*
X83864286Y-124140533D01*
X89909523Y-110854819D02*
X89433333Y-110854819D01*
X89433333Y-110854819D02*
X89433333Y-109854819D01*
X78738095Y-109902438D02*
X78642857Y-109854819D01*
X78642857Y-109854819D02*
X78500000Y-109854819D01*
X78500000Y-109854819D02*
X78357143Y-109902438D01*
X78357143Y-109902438D02*
X78261905Y-109997676D01*
X78261905Y-109997676D02*
X78214286Y-110092914D01*
X78214286Y-110092914D02*
X78166667Y-110283390D01*
X78166667Y-110283390D02*
X78166667Y-110426247D01*
X78166667Y-110426247D02*
X78214286Y-110616723D01*
X78214286Y-110616723D02*
X78261905Y-110711961D01*
X78261905Y-110711961D02*
X78357143Y-110807200D01*
X78357143Y-110807200D02*
X78500000Y-110854819D01*
X78500000Y-110854819D02*
X78595238Y-110854819D01*
X78595238Y-110854819D02*
X78738095Y-110807200D01*
X78738095Y-110807200D02*
X78785714Y-110759580D01*
X78785714Y-110759580D02*
X78785714Y-110426247D01*
X78785714Y-110426247D02*
X78595238Y-110426247D01*
X79214286Y-110854819D02*
X79214286Y-109854819D01*
X79214286Y-109854819D02*
X79785714Y-110854819D01*
X79785714Y-110854819D02*
X79785714Y-109854819D01*
X80261905Y-110854819D02*
X80261905Y-109854819D01*
X80261905Y-109854819D02*
X80500000Y-109854819D01*
X80500000Y-109854819D02*
X80642857Y-109902438D01*
X80642857Y-109902438D02*
X80738095Y-109997676D01*
X80738095Y-109997676D02*
X80785714Y-110092914D01*
X80785714Y-110092914D02*
X80833333Y-110283390D01*
X80833333Y-110283390D02*
X80833333Y-110426247D01*
X80833333Y-110426247D02*
X80785714Y-110616723D01*
X80785714Y-110616723D02*
X80738095Y-110711961D01*
X80738095Y-110711961D02*
X80642857Y-110807200D01*
X80642857Y-110807200D02*
X80500000Y-110854819D01*
X80500000Y-110854819D02*
X80261905Y-110854819D01*
X73376191Y-109854819D02*
X73709524Y-110854819D01*
X73709524Y-110854819D02*
X74042857Y-109854819D01*
X74376191Y-110854819D02*
X74376191Y-110188152D01*
X74376191Y-109854819D02*
X74328572Y-109902438D01*
X74328572Y-109902438D02*
X74376191Y-109950057D01*
X74376191Y-109950057D02*
X74423810Y-109902438D01*
X74423810Y-109902438D02*
X74376191Y-109854819D01*
X74376191Y-109854819D02*
X74376191Y-109950057D01*
X74852381Y-110188152D02*
X74852381Y-110854819D01*
X74852381Y-110283390D02*
X74900000Y-110235771D01*
X74900000Y-110235771D02*
X74995238Y-110188152D01*
X74995238Y-110188152D02*
X75138095Y-110188152D01*
X75138095Y-110188152D02*
X75233333Y-110235771D01*
X75233333Y-110235771D02*
X75280952Y-110331009D01*
X75280952Y-110331009D02*
X75280952Y-110854819D01*
X83914285Y-139154819D02*
X83723809Y-139154819D01*
X83723809Y-139154819D02*
X83628571Y-139202438D01*
X83628571Y-139202438D02*
X83580952Y-139250057D01*
X83580952Y-139250057D02*
X83485714Y-139392914D01*
X83485714Y-139392914D02*
X83438095Y-139583390D01*
X83438095Y-139583390D02*
X83438095Y-139964342D01*
X83438095Y-139964342D02*
X83485714Y-140059580D01*
X83485714Y-140059580D02*
X83533333Y-140107200D01*
X83533333Y-140107200D02*
X83628571Y-140154819D01*
X83628571Y-140154819D02*
X83819047Y-140154819D01*
X83819047Y-140154819D02*
X83914285Y-140107200D01*
X83914285Y-140107200D02*
X83961904Y-140059580D01*
X83961904Y-140059580D02*
X84009523Y-139964342D01*
X84009523Y-139964342D02*
X84009523Y-139726247D01*
X84009523Y-139726247D02*
X83961904Y-139631009D01*
X83961904Y-139631009D02*
X83914285Y-139583390D01*
X83914285Y-139583390D02*
X83819047Y-139535771D01*
X83819047Y-139535771D02*
X83628571Y-139535771D01*
X83628571Y-139535771D02*
X83533333Y-139583390D01*
X83533333Y-139583390D02*
X83485714Y-139631009D01*
X83485714Y-139631009D02*
X83438095Y-139726247D01*
X84866666Y-139488152D02*
X84866666Y-140154819D01*
X84628571Y-139107200D02*
X84390476Y-139821485D01*
X84390476Y-139821485D02*
X85009523Y-139821485D01*
X74566667Y-149286104D02*
X74528571Y-149324200D01*
X74528571Y-149324200D02*
X74414286Y-149362295D01*
X74414286Y-149362295D02*
X74338095Y-149362295D01*
X74338095Y-149362295D02*
X74223809Y-149324200D01*
X74223809Y-149324200D02*
X74147619Y-149248009D01*
X74147619Y-149248009D02*
X74109524Y-149171819D01*
X74109524Y-149171819D02*
X74071428Y-149019438D01*
X74071428Y-149019438D02*
X74071428Y-148905152D01*
X74071428Y-148905152D02*
X74109524Y-148752771D01*
X74109524Y-148752771D02*
X74147619Y-148676580D01*
X74147619Y-148676580D02*
X74223809Y-148600390D01*
X74223809Y-148600390D02*
X74338095Y-148562295D01*
X74338095Y-148562295D02*
X74414286Y-148562295D01*
X74414286Y-148562295D02*
X74528571Y-148600390D01*
X74528571Y-148600390D02*
X74566667Y-148638485D01*
X74833333Y-148562295D02*
X75328571Y-148562295D01*
X75328571Y-148562295D02*
X75061905Y-148867057D01*
X75061905Y-148867057D02*
X75176190Y-148867057D01*
X75176190Y-148867057D02*
X75252381Y-148905152D01*
X75252381Y-148905152D02*
X75290476Y-148943247D01*
X75290476Y-148943247D02*
X75328571Y-149019438D01*
X75328571Y-149019438D02*
X75328571Y-149209914D01*
X75328571Y-149209914D02*
X75290476Y-149286104D01*
X75290476Y-149286104D02*
X75252381Y-149324200D01*
X75252381Y-149324200D02*
X75176190Y-149362295D01*
X75176190Y-149362295D02*
X74947619Y-149362295D01*
X74947619Y-149362295D02*
X74871428Y-149324200D01*
X74871428Y-149324200D02*
X74833333Y-149286104D01*
X75135667Y-116578104D02*
X75097571Y-116616200D01*
X75097571Y-116616200D02*
X74983286Y-116654295D01*
X74983286Y-116654295D02*
X74907095Y-116654295D01*
X74907095Y-116654295D02*
X74792809Y-116616200D01*
X74792809Y-116616200D02*
X74716619Y-116540009D01*
X74716619Y-116540009D02*
X74678524Y-116463819D01*
X74678524Y-116463819D02*
X74640428Y-116311438D01*
X74640428Y-116311438D02*
X74640428Y-116197152D01*
X74640428Y-116197152D02*
X74678524Y-116044771D01*
X74678524Y-116044771D02*
X74716619Y-115968580D01*
X74716619Y-115968580D02*
X74792809Y-115892390D01*
X74792809Y-115892390D02*
X74907095Y-115854295D01*
X74907095Y-115854295D02*
X74983286Y-115854295D01*
X74983286Y-115854295D02*
X75097571Y-115892390D01*
X75097571Y-115892390D02*
X75135667Y-115930485D01*
X75821381Y-116120961D02*
X75821381Y-116654295D01*
X75630905Y-115816200D02*
X75440428Y-116387628D01*
X75440428Y-116387628D02*
X75935667Y-116387628D01*
X69266667Y-117646104D02*
X69228571Y-117684200D01*
X69228571Y-117684200D02*
X69114286Y-117722295D01*
X69114286Y-117722295D02*
X69038095Y-117722295D01*
X69038095Y-117722295D02*
X68923809Y-117684200D01*
X68923809Y-117684200D02*
X68847619Y-117608009D01*
X68847619Y-117608009D02*
X68809524Y-117531819D01*
X68809524Y-117531819D02*
X68771428Y-117379438D01*
X68771428Y-117379438D02*
X68771428Y-117265152D01*
X68771428Y-117265152D02*
X68809524Y-117112771D01*
X68809524Y-117112771D02*
X68847619Y-117036580D01*
X68847619Y-117036580D02*
X68923809Y-116960390D01*
X68923809Y-116960390D02*
X69038095Y-116922295D01*
X69038095Y-116922295D02*
X69114286Y-116922295D01*
X69114286Y-116922295D02*
X69228571Y-116960390D01*
X69228571Y-116960390D02*
X69266667Y-116998485D01*
X69952381Y-116922295D02*
X69800000Y-116922295D01*
X69800000Y-116922295D02*
X69723809Y-116960390D01*
X69723809Y-116960390D02*
X69685714Y-116998485D01*
X69685714Y-116998485D02*
X69609524Y-117112771D01*
X69609524Y-117112771D02*
X69571428Y-117265152D01*
X69571428Y-117265152D02*
X69571428Y-117569914D01*
X69571428Y-117569914D02*
X69609524Y-117646104D01*
X69609524Y-117646104D02*
X69647619Y-117684200D01*
X69647619Y-117684200D02*
X69723809Y-117722295D01*
X69723809Y-117722295D02*
X69876190Y-117722295D01*
X69876190Y-117722295D02*
X69952381Y-117684200D01*
X69952381Y-117684200D02*
X69990476Y-117646104D01*
X69990476Y-117646104D02*
X70028571Y-117569914D01*
X70028571Y-117569914D02*
X70028571Y-117379438D01*
X70028571Y-117379438D02*
X69990476Y-117303247D01*
X69990476Y-117303247D02*
X69952381Y-117265152D01*
X69952381Y-117265152D02*
X69876190Y-117227057D01*
X69876190Y-117227057D02*
X69723809Y-117227057D01*
X69723809Y-117227057D02*
X69647619Y-117265152D01*
X69647619Y-117265152D02*
X69609524Y-117303247D01*
X69609524Y-117303247D02*
X69571428Y-117379438D01*
X77802667Y-124198104D02*
X77764571Y-124236200D01*
X77764571Y-124236200D02*
X77650286Y-124274295D01*
X77650286Y-124274295D02*
X77574095Y-124274295D01*
X77574095Y-124274295D02*
X77459809Y-124236200D01*
X77459809Y-124236200D02*
X77383619Y-124160009D01*
X77383619Y-124160009D02*
X77345524Y-124083819D01*
X77345524Y-124083819D02*
X77307428Y-123931438D01*
X77307428Y-123931438D02*
X77307428Y-123817152D01*
X77307428Y-123817152D02*
X77345524Y-123664771D01*
X77345524Y-123664771D02*
X77383619Y-123588580D01*
X77383619Y-123588580D02*
X77459809Y-123512390D01*
X77459809Y-123512390D02*
X77574095Y-123474295D01*
X77574095Y-123474295D02*
X77650286Y-123474295D01*
X77650286Y-123474295D02*
X77764571Y-123512390D01*
X77764571Y-123512390D02*
X77802667Y-123550485D01*
X78069333Y-123474295D02*
X78602667Y-123474295D01*
X78602667Y-123474295D02*
X78259809Y-124274295D01*
X82902667Y-149379605D02*
X82864571Y-149417701D01*
X82864571Y-149417701D02*
X82750286Y-149455796D01*
X82750286Y-149455796D02*
X82674095Y-149455796D01*
X82674095Y-149455796D02*
X82559809Y-149417701D01*
X82559809Y-149417701D02*
X82483619Y-149341510D01*
X82483619Y-149341510D02*
X82445524Y-149265320D01*
X82445524Y-149265320D02*
X82407428Y-149112939D01*
X82407428Y-149112939D02*
X82407428Y-148998653D01*
X82407428Y-148998653D02*
X82445524Y-148846272D01*
X82445524Y-148846272D02*
X82483619Y-148770081D01*
X82483619Y-148770081D02*
X82559809Y-148693891D01*
X82559809Y-148693891D02*
X82674095Y-148655796D01*
X82674095Y-148655796D02*
X82750286Y-148655796D01*
X82750286Y-148655796D02*
X82864571Y-148693891D01*
X82864571Y-148693891D02*
X82902667Y-148731986D01*
X83359809Y-148998653D02*
X83283619Y-148960558D01*
X83283619Y-148960558D02*
X83245524Y-148922462D01*
X83245524Y-148922462D02*
X83207428Y-148846272D01*
X83207428Y-148846272D02*
X83207428Y-148808177D01*
X83207428Y-148808177D02*
X83245524Y-148731986D01*
X83245524Y-148731986D02*
X83283619Y-148693891D01*
X83283619Y-148693891D02*
X83359809Y-148655796D01*
X83359809Y-148655796D02*
X83512190Y-148655796D01*
X83512190Y-148655796D02*
X83588381Y-148693891D01*
X83588381Y-148693891D02*
X83626476Y-148731986D01*
X83626476Y-148731986D02*
X83664571Y-148808177D01*
X83664571Y-148808177D02*
X83664571Y-148846272D01*
X83664571Y-148846272D02*
X83626476Y-148922462D01*
X83626476Y-148922462D02*
X83588381Y-148960558D01*
X83588381Y-148960558D02*
X83512190Y-148998653D01*
X83512190Y-148998653D02*
X83359809Y-148998653D01*
X83359809Y-148998653D02*
X83283619Y-149036748D01*
X83283619Y-149036748D02*
X83245524Y-149074843D01*
X83245524Y-149074843D02*
X83207428Y-149151034D01*
X83207428Y-149151034D02*
X83207428Y-149303415D01*
X83207428Y-149303415D02*
X83245524Y-149379605D01*
X83245524Y-149379605D02*
X83283619Y-149417701D01*
X83283619Y-149417701D02*
X83359809Y-149455796D01*
X83359809Y-149455796D02*
X83512190Y-149455796D01*
X83512190Y-149455796D02*
X83588381Y-149417701D01*
X83588381Y-149417701D02*
X83626476Y-149379605D01*
X83626476Y-149379605D02*
X83664571Y-149303415D01*
X83664571Y-149303415D02*
X83664571Y-149151034D01*
X83664571Y-149151034D02*
X83626476Y-149074843D01*
X83626476Y-149074843D02*
X83588381Y-149036748D01*
X83588381Y-149036748D02*
X83512190Y-148998653D01*
X88966667Y-152786104D02*
X88928571Y-152824200D01*
X88928571Y-152824200D02*
X88814286Y-152862295D01*
X88814286Y-152862295D02*
X88738095Y-152862295D01*
X88738095Y-152862295D02*
X88623809Y-152824200D01*
X88623809Y-152824200D02*
X88547619Y-152748009D01*
X88547619Y-152748009D02*
X88509524Y-152671819D01*
X88509524Y-152671819D02*
X88471428Y-152519438D01*
X88471428Y-152519438D02*
X88471428Y-152405152D01*
X88471428Y-152405152D02*
X88509524Y-152252771D01*
X88509524Y-152252771D02*
X88547619Y-152176580D01*
X88547619Y-152176580D02*
X88623809Y-152100390D01*
X88623809Y-152100390D02*
X88738095Y-152062295D01*
X88738095Y-152062295D02*
X88814286Y-152062295D01*
X88814286Y-152062295D02*
X88928571Y-152100390D01*
X88928571Y-152100390D02*
X88966667Y-152138485D01*
X89347619Y-152862295D02*
X89500000Y-152862295D01*
X89500000Y-152862295D02*
X89576190Y-152824200D01*
X89576190Y-152824200D02*
X89614286Y-152786104D01*
X89614286Y-152786104D02*
X89690476Y-152671819D01*
X89690476Y-152671819D02*
X89728571Y-152519438D01*
X89728571Y-152519438D02*
X89728571Y-152214676D01*
X89728571Y-152214676D02*
X89690476Y-152138485D01*
X89690476Y-152138485D02*
X89652381Y-152100390D01*
X89652381Y-152100390D02*
X89576190Y-152062295D01*
X89576190Y-152062295D02*
X89423809Y-152062295D01*
X89423809Y-152062295D02*
X89347619Y-152100390D01*
X89347619Y-152100390D02*
X89309524Y-152138485D01*
X89309524Y-152138485D02*
X89271428Y-152214676D01*
X89271428Y-152214676D02*
X89271428Y-152405152D01*
X89271428Y-152405152D02*
X89309524Y-152481342D01*
X89309524Y-152481342D02*
X89347619Y-152519438D01*
X89347619Y-152519438D02*
X89423809Y-152557533D01*
X89423809Y-152557533D02*
X89576190Y-152557533D01*
X89576190Y-152557533D02*
X89652381Y-152519438D01*
X89652381Y-152519438D02*
X89690476Y-152481342D01*
X89690476Y-152481342D02*
X89728571Y-152405152D01*
X85845333Y-148866344D02*
X85578667Y-148866344D01*
X85578667Y-149285392D02*
X85578667Y-148485392D01*
X85578667Y-148485392D02*
X85959619Y-148485392D01*
X86531047Y-148866344D02*
X86645333Y-148904439D01*
X86645333Y-148904439D02*
X86683428Y-148942535D01*
X86683428Y-148942535D02*
X86721524Y-149018725D01*
X86721524Y-149018725D02*
X86721524Y-149133011D01*
X86721524Y-149133011D02*
X86683428Y-149209201D01*
X86683428Y-149209201D02*
X86645333Y-149247297D01*
X86645333Y-149247297D02*
X86569143Y-149285392D01*
X86569143Y-149285392D02*
X86264381Y-149285392D01*
X86264381Y-149285392D02*
X86264381Y-148485392D01*
X86264381Y-148485392D02*
X86531047Y-148485392D01*
X86531047Y-148485392D02*
X86607238Y-148523487D01*
X86607238Y-148523487D02*
X86645333Y-148561582D01*
X86645333Y-148561582D02*
X86683428Y-148637773D01*
X86683428Y-148637773D02*
X86683428Y-148713963D01*
X86683428Y-148713963D02*
X86645333Y-148790154D01*
X86645333Y-148790154D02*
X86607238Y-148828249D01*
X86607238Y-148828249D02*
X86531047Y-148866344D01*
X86531047Y-148866344D02*
X86264381Y-148866344D01*
X87483428Y-149285392D02*
X87026285Y-149285392D01*
X87254857Y-149285392D02*
X87254857Y-148485392D01*
X87254857Y-148485392D02*
X87178666Y-148599677D01*
X87178666Y-148599677D02*
X87102476Y-148675868D01*
X87102476Y-148675868D02*
X87026285Y-148713963D01*
X77266667Y-149455796D02*
X77000000Y-149074843D01*
X76809524Y-149455796D02*
X76809524Y-148655796D01*
X76809524Y-148655796D02*
X77114286Y-148655796D01*
X77114286Y-148655796D02*
X77190476Y-148693891D01*
X77190476Y-148693891D02*
X77228571Y-148731986D01*
X77228571Y-148731986D02*
X77266667Y-148808177D01*
X77266667Y-148808177D02*
X77266667Y-148922462D01*
X77266667Y-148922462D02*
X77228571Y-148998653D01*
X77228571Y-148998653D02*
X77190476Y-149036748D01*
X77190476Y-149036748D02*
X77114286Y-149074843D01*
X77114286Y-149074843D02*
X76809524Y-149074843D01*
X78028571Y-149455796D02*
X77571428Y-149455796D01*
X77800000Y-149455796D02*
X77800000Y-148655796D01*
X77800000Y-148655796D02*
X77723809Y-148770081D01*
X77723809Y-148770081D02*
X77647619Y-148846272D01*
X77647619Y-148846272D02*
X77571428Y-148884367D01*
X87066667Y-115262295D02*
X86800000Y-114881342D01*
X86609524Y-115262295D02*
X86609524Y-114462295D01*
X86609524Y-114462295D02*
X86914286Y-114462295D01*
X86914286Y-114462295D02*
X86990476Y-114500390D01*
X86990476Y-114500390D02*
X87028571Y-114538485D01*
X87028571Y-114538485D02*
X87066667Y-114614676D01*
X87066667Y-114614676D02*
X87066667Y-114728961D01*
X87066667Y-114728961D02*
X87028571Y-114805152D01*
X87028571Y-114805152D02*
X86990476Y-114843247D01*
X86990476Y-114843247D02*
X86914286Y-114881342D01*
X86914286Y-114881342D02*
X86609524Y-114881342D01*
X87371428Y-114538485D02*
X87409524Y-114500390D01*
X87409524Y-114500390D02*
X87485714Y-114462295D01*
X87485714Y-114462295D02*
X87676190Y-114462295D01*
X87676190Y-114462295D02*
X87752381Y-114500390D01*
X87752381Y-114500390D02*
X87790476Y-114538485D01*
X87790476Y-114538485D02*
X87828571Y-114614676D01*
X87828571Y-114614676D02*
X87828571Y-114690866D01*
X87828571Y-114690866D02*
X87790476Y-114805152D01*
X87790476Y-114805152D02*
X87333333Y-115262295D01*
X87333333Y-115262295D02*
X87828571Y-115262295D01*
X84166667Y-113162295D02*
X83900000Y-112781342D01*
X83709524Y-113162295D02*
X83709524Y-112362295D01*
X83709524Y-112362295D02*
X84014286Y-112362295D01*
X84014286Y-112362295D02*
X84090476Y-112400390D01*
X84090476Y-112400390D02*
X84128571Y-112438485D01*
X84128571Y-112438485D02*
X84166667Y-112514676D01*
X84166667Y-112514676D02*
X84166667Y-112628961D01*
X84166667Y-112628961D02*
X84128571Y-112705152D01*
X84128571Y-112705152D02*
X84090476Y-112743247D01*
X84090476Y-112743247D02*
X84014286Y-112781342D01*
X84014286Y-112781342D02*
X83709524Y-112781342D01*
X84852381Y-112628961D02*
X84852381Y-113162295D01*
X84661905Y-112324200D02*
X84471428Y-112895628D01*
X84471428Y-112895628D02*
X84966667Y-112895628D01*
X88502476Y-121061295D02*
X88502476Y-121708914D01*
X88502476Y-121708914D02*
X88540571Y-121785104D01*
X88540571Y-121785104D02*
X88578666Y-121823200D01*
X88578666Y-121823200D02*
X88654857Y-121861295D01*
X88654857Y-121861295D02*
X88807238Y-121861295D01*
X88807238Y-121861295D02*
X88883428Y-121823200D01*
X88883428Y-121823200D02*
X88921523Y-121785104D01*
X88921523Y-121785104D02*
X88959619Y-121708914D01*
X88959619Y-121708914D02*
X88959619Y-121061295D01*
X89264380Y-121061295D02*
X89759618Y-121061295D01*
X89759618Y-121061295D02*
X89492952Y-121366057D01*
X89492952Y-121366057D02*
X89607237Y-121366057D01*
X89607237Y-121366057D02*
X89683428Y-121404152D01*
X89683428Y-121404152D02*
X89721523Y-121442247D01*
X89721523Y-121442247D02*
X89759618Y-121518438D01*
X89759618Y-121518438D02*
X89759618Y-121708914D01*
X89759618Y-121708914D02*
X89721523Y-121785104D01*
X89721523Y-121785104D02*
X89683428Y-121823200D01*
X89683428Y-121823200D02*
X89607237Y-121861295D01*
X89607237Y-121861295D02*
X89378666Y-121861295D01*
X89378666Y-121861295D02*
X89302475Y-121823200D01*
X89302475Y-121823200D02*
X89264380Y-121785104D01*
X80026265Y-149351604D02*
X79988169Y-149389700D01*
X79988169Y-149389700D02*
X79873884Y-149427795D01*
X79873884Y-149427795D02*
X79797693Y-149427795D01*
X79797693Y-149427795D02*
X79683407Y-149389700D01*
X79683407Y-149389700D02*
X79607217Y-149313509D01*
X79607217Y-149313509D02*
X79569122Y-149237319D01*
X79569122Y-149237319D02*
X79531026Y-149084938D01*
X79531026Y-149084938D02*
X79531026Y-148970652D01*
X79531026Y-148970652D02*
X79569122Y-148818271D01*
X79569122Y-148818271D02*
X79607217Y-148742080D01*
X79607217Y-148742080D02*
X79683407Y-148665890D01*
X79683407Y-148665890D02*
X79797693Y-148627795D01*
X79797693Y-148627795D02*
X79873884Y-148627795D01*
X79873884Y-148627795D02*
X79988169Y-148665890D01*
X79988169Y-148665890D02*
X80026265Y-148703985D01*
X80788169Y-149427795D02*
X80331026Y-149427795D01*
X80559598Y-149427795D02*
X80559598Y-148627795D01*
X80559598Y-148627795D02*
X80483407Y-148742080D01*
X80483407Y-148742080D02*
X80407217Y-148818271D01*
X80407217Y-148818271D02*
X80331026Y-148856366D01*
X90647265Y-149186104D02*
X90609169Y-149224200D01*
X90609169Y-149224200D02*
X90494884Y-149262295D01*
X90494884Y-149262295D02*
X90418693Y-149262295D01*
X90418693Y-149262295D02*
X90304407Y-149224200D01*
X90304407Y-149224200D02*
X90228217Y-149148009D01*
X90228217Y-149148009D02*
X90190122Y-149071819D01*
X90190122Y-149071819D02*
X90152026Y-148919438D01*
X90152026Y-148919438D02*
X90152026Y-148805152D01*
X90152026Y-148805152D02*
X90190122Y-148652771D01*
X90190122Y-148652771D02*
X90228217Y-148576580D01*
X90228217Y-148576580D02*
X90304407Y-148500390D01*
X90304407Y-148500390D02*
X90418693Y-148462295D01*
X90418693Y-148462295D02*
X90494884Y-148462295D01*
X90494884Y-148462295D02*
X90609169Y-148500390D01*
X90609169Y-148500390D02*
X90647265Y-148538485D01*
X90952026Y-148538485D02*
X90990122Y-148500390D01*
X90990122Y-148500390D02*
X91066312Y-148462295D01*
X91066312Y-148462295D02*
X91256788Y-148462295D01*
X91256788Y-148462295D02*
X91332979Y-148500390D01*
X91332979Y-148500390D02*
X91371074Y-148538485D01*
X91371074Y-148538485D02*
X91409169Y-148614676D01*
X91409169Y-148614676D02*
X91409169Y-148690866D01*
X91409169Y-148690866D02*
X91371074Y-148805152D01*
X91371074Y-148805152D02*
X90913931Y-149262295D01*
X90913931Y-149262295D02*
X91409169Y-149262295D01*
X78945714Y-117086104D02*
X78907618Y-117124200D01*
X78907618Y-117124200D02*
X78793333Y-117162295D01*
X78793333Y-117162295D02*
X78717142Y-117162295D01*
X78717142Y-117162295D02*
X78602856Y-117124200D01*
X78602856Y-117124200D02*
X78526666Y-117048009D01*
X78526666Y-117048009D02*
X78488571Y-116971819D01*
X78488571Y-116971819D02*
X78450475Y-116819438D01*
X78450475Y-116819438D02*
X78450475Y-116705152D01*
X78450475Y-116705152D02*
X78488571Y-116552771D01*
X78488571Y-116552771D02*
X78526666Y-116476580D01*
X78526666Y-116476580D02*
X78602856Y-116400390D01*
X78602856Y-116400390D02*
X78717142Y-116362295D01*
X78717142Y-116362295D02*
X78793333Y-116362295D01*
X78793333Y-116362295D02*
X78907618Y-116400390D01*
X78907618Y-116400390D02*
X78945714Y-116438485D01*
X79707618Y-117162295D02*
X79250475Y-117162295D01*
X79479047Y-117162295D02*
X79479047Y-116362295D01*
X79479047Y-116362295D02*
X79402856Y-116476580D01*
X79402856Y-116476580D02*
X79326666Y-116552771D01*
X79326666Y-116552771D02*
X79250475Y-116590866D01*
X80202857Y-116362295D02*
X80279047Y-116362295D01*
X80279047Y-116362295D02*
X80355238Y-116400390D01*
X80355238Y-116400390D02*
X80393333Y-116438485D01*
X80393333Y-116438485D02*
X80431428Y-116514676D01*
X80431428Y-116514676D02*
X80469523Y-116667057D01*
X80469523Y-116667057D02*
X80469523Y-116857533D01*
X80469523Y-116857533D02*
X80431428Y-117009914D01*
X80431428Y-117009914D02*
X80393333Y-117086104D01*
X80393333Y-117086104D02*
X80355238Y-117124200D01*
X80355238Y-117124200D02*
X80279047Y-117162295D01*
X80279047Y-117162295D02*
X80202857Y-117162295D01*
X80202857Y-117162295D02*
X80126666Y-117124200D01*
X80126666Y-117124200D02*
X80088571Y-117086104D01*
X80088571Y-117086104D02*
X80050476Y-117009914D01*
X80050476Y-117009914D02*
X80012380Y-116857533D01*
X80012380Y-116857533D02*
X80012380Y-116667057D01*
X80012380Y-116667057D02*
X80050476Y-116514676D01*
X80050476Y-116514676D02*
X80088571Y-116438485D01*
X80088571Y-116438485D02*
X80126666Y-116400390D01*
X80126666Y-116400390D02*
X80202857Y-116362295D01*
X75135667Y-123690104D02*
X75097571Y-123728200D01*
X75097571Y-123728200D02*
X74983286Y-123766295D01*
X74983286Y-123766295D02*
X74907095Y-123766295D01*
X74907095Y-123766295D02*
X74792809Y-123728200D01*
X74792809Y-123728200D02*
X74716619Y-123652009D01*
X74716619Y-123652009D02*
X74678524Y-123575819D01*
X74678524Y-123575819D02*
X74640428Y-123423438D01*
X74640428Y-123423438D02*
X74640428Y-123309152D01*
X74640428Y-123309152D02*
X74678524Y-123156771D01*
X74678524Y-123156771D02*
X74716619Y-123080580D01*
X74716619Y-123080580D02*
X74792809Y-123004390D01*
X74792809Y-123004390D02*
X74907095Y-122966295D01*
X74907095Y-122966295D02*
X74983286Y-122966295D01*
X74983286Y-122966295D02*
X75097571Y-123004390D01*
X75097571Y-123004390D02*
X75135667Y-123042485D01*
X75859476Y-122966295D02*
X75478524Y-122966295D01*
X75478524Y-122966295D02*
X75440428Y-123347247D01*
X75440428Y-123347247D02*
X75478524Y-123309152D01*
X75478524Y-123309152D02*
X75554714Y-123271057D01*
X75554714Y-123271057D02*
X75745190Y-123271057D01*
X75745190Y-123271057D02*
X75821381Y-123309152D01*
X75821381Y-123309152D02*
X75859476Y-123347247D01*
X75859476Y-123347247D02*
X75897571Y-123423438D01*
X75897571Y-123423438D02*
X75897571Y-123613914D01*
X75897571Y-123613914D02*
X75859476Y-123690104D01*
X75859476Y-123690104D02*
X75821381Y-123728200D01*
X75821381Y-123728200D02*
X75745190Y-123766295D01*
X75745190Y-123766295D02*
X75554714Y-123766295D01*
X75554714Y-123766295D02*
X75478524Y-123728200D01*
X75478524Y-123728200D02*
X75440428Y-123690104D01*
X93949524Y-119362295D02*
X93949524Y-118562295D01*
X93949524Y-118562295D02*
X94140000Y-118562295D01*
X94140000Y-118562295D02*
X94254286Y-118600390D01*
X94254286Y-118600390D02*
X94330476Y-118676580D01*
X94330476Y-118676580D02*
X94368571Y-118752771D01*
X94368571Y-118752771D02*
X94406667Y-118905152D01*
X94406667Y-118905152D02*
X94406667Y-119019438D01*
X94406667Y-119019438D02*
X94368571Y-119171819D01*
X94368571Y-119171819D02*
X94330476Y-119248009D01*
X94330476Y-119248009D02*
X94254286Y-119324200D01*
X94254286Y-119324200D02*
X94140000Y-119362295D01*
X94140000Y-119362295D02*
X93949524Y-119362295D01*
X94673333Y-118562295D02*
X95168571Y-118562295D01*
X95168571Y-118562295D02*
X94901905Y-118867057D01*
X94901905Y-118867057D02*
X95016190Y-118867057D01*
X95016190Y-118867057D02*
X95092381Y-118905152D01*
X95092381Y-118905152D02*
X95130476Y-118943247D01*
X95130476Y-118943247D02*
X95168571Y-119019438D01*
X95168571Y-119019438D02*
X95168571Y-119209914D01*
X95168571Y-119209914D02*
X95130476Y-119286104D01*
X95130476Y-119286104D02*
X95092381Y-119324200D01*
X95092381Y-119324200D02*
X95016190Y-119362295D01*
X95016190Y-119362295D02*
X94787619Y-119362295D01*
X94787619Y-119362295D02*
X94711428Y-119324200D01*
X94711428Y-119324200D02*
X94673333Y-119286104D01*
X78009524Y-113562295D02*
X78009524Y-112762295D01*
X78009524Y-112762295D02*
X78200000Y-112762295D01*
X78200000Y-112762295D02*
X78314286Y-112800390D01*
X78314286Y-112800390D02*
X78390476Y-112876580D01*
X78390476Y-112876580D02*
X78428571Y-112952771D01*
X78428571Y-112952771D02*
X78466667Y-113105152D01*
X78466667Y-113105152D02*
X78466667Y-113219438D01*
X78466667Y-113219438D02*
X78428571Y-113371819D01*
X78428571Y-113371819D02*
X78390476Y-113448009D01*
X78390476Y-113448009D02*
X78314286Y-113524200D01*
X78314286Y-113524200D02*
X78200000Y-113562295D01*
X78200000Y-113562295D02*
X78009524Y-113562295D01*
X79152381Y-113028961D02*
X79152381Y-113562295D01*
X78961905Y-112724200D02*
X78771428Y-113295628D01*
X78771428Y-113295628D02*
X79266667Y-113295628D01*
X74532476Y-119410295D02*
X74532476Y-120057914D01*
X74532476Y-120057914D02*
X74570571Y-120134104D01*
X74570571Y-120134104D02*
X74608666Y-120172200D01*
X74608666Y-120172200D02*
X74684857Y-120210295D01*
X74684857Y-120210295D02*
X74837238Y-120210295D01*
X74837238Y-120210295D02*
X74913428Y-120172200D01*
X74913428Y-120172200D02*
X74951523Y-120134104D01*
X74951523Y-120134104D02*
X74989619Y-120057914D01*
X74989619Y-120057914D02*
X74989619Y-119410295D01*
X75713428Y-119676961D02*
X75713428Y-120210295D01*
X75522952Y-119372200D02*
X75332475Y-119943628D01*
X75332475Y-119943628D02*
X75827714Y-119943628D01*
D12*
X75435000Y-151176248D02*
X75435000Y-151698752D01*
X73965000Y-151176248D02*
X73965000Y-151698752D01*
X72340748Y-115557000D02*
X72863252Y-115557000D01*
X72340748Y-117027000D02*
X72863252Y-117027000D01*
X70135000Y-119638748D02*
X70135000Y-120161252D01*
X68665000Y-119638748D02*
X68665000Y-120161252D01*
X80468748Y-123050000D02*
X80991252Y-123050000D01*
X80468748Y-124520000D02*
X80991252Y-124520000D01*
X83835000Y-151238748D02*
X83835000Y-151761252D01*
X82365000Y-151238748D02*
X82365000Y-151761252D01*
X86250748Y-151787499D02*
X86773252Y-151787499D01*
X86250748Y-153257499D02*
X86773252Y-153257499D01*
X86773252Y-151157097D02*
X86250748Y-151157097D01*
X86773252Y-149737097D02*
X86250748Y-149737097D01*
X83237402Y-126063402D02*
X73017402Y-126063402D01*
X83237402Y-126063402D02*
X83237402Y-128723402D01*
X73017402Y-126063402D02*
X73017402Y-128723402D01*
X83237402Y-128723402D02*
X73017402Y-128723402D01*
X78135000Y-151272936D02*
X78135000Y-151727064D01*
X76665000Y-151272936D02*
X76665000Y-151727064D01*
X84312936Y-114160000D02*
X84767064Y-114160000D01*
X84312936Y-115630000D02*
X84767064Y-115630000D01*
X86872936Y-112065000D02*
X87327064Y-112065000D01*
X86872936Y-113535000D02*
X87327064Y-113535000D01*
X74547402Y-139131402D02*
X74847402Y-139131402D01*
X74847402Y-139131402D02*
X74847402Y-140446402D01*
X81767402Y-139131402D02*
X81467402Y-139131402D01*
X74547402Y-138831402D02*
X74547402Y-139131402D01*
X81767402Y-138831402D02*
X81767402Y-139131402D01*
X74547402Y-132211402D02*
X74547402Y-131911402D01*
X81767402Y-132211402D02*
X81767402Y-131911402D01*
X74547402Y-131911402D02*
X74847402Y-131911402D01*
X81767402Y-131911402D02*
X81467402Y-131911402D01*
X84540000Y-116780000D02*
X81090000Y-116780000D01*
X84540000Y-116780000D02*
X86490000Y-116780000D01*
X84540000Y-121900000D02*
X82590000Y-121900000D01*
X84540000Y-121900000D02*
X86490000Y-121900000D01*
X80935000Y-151238748D02*
X80935000Y-151761252D01*
X79465000Y-151238748D02*
X79465000Y-151761252D01*
X91498000Y-151104248D02*
X91498000Y-151626752D01*
X90028000Y-151104248D02*
X90028000Y-151626752D01*
X78785000Y-143231000D02*
X85035000Y-143231000D01*
X78785000Y-148281000D02*
X85035000Y-148281000D01*
X78785000Y-143231000D02*
G75*
G03*
X78785000Y-148281000I0J-2525000D01*
G01*
X85035000Y-148281000D02*
G75*
G03*
X85035000Y-143231000I0J2525000D01*
G01*
X67310000Y-125730000D02*
X67310000Y-146110000D01*
X67310000Y-125730000D02*
X69850000Y-125730000D01*
X67310000Y-146110000D02*
X69850000Y-146110000D01*
X69850000Y-125730000D02*
X69850000Y-146110000D01*
X92710000Y-125690000D02*
X92710000Y-146070000D01*
X92710000Y-125690000D02*
X95250000Y-125690000D01*
X92710000Y-146070000D02*
X95250000Y-146070000D01*
X95250000Y-125690000D02*
X95250000Y-146070000D01*
X71950000Y-152900000D02*
X68650000Y-152900000D01*
X71950000Y-152600000D02*
X71950000Y-152900000D01*
X71950000Y-150400000D02*
X71950000Y-150100000D01*
X71950000Y-150100000D02*
X68650000Y-150100000D01*
X68650000Y-152900000D02*
X68650000Y-152600000D01*
X68650000Y-150100000D02*
X68650000Y-150400000D01*
X80195000Y-119078748D02*
X80195000Y-119601252D01*
X78725000Y-119078748D02*
X78725000Y-119601252D01*
X92560000Y-109010000D02*
X92560000Y-100190000D01*
X92560000Y-108200000D02*
X90020000Y-108200000D01*
X92560000Y-100190000D02*
X70020000Y-100190000D01*
X91650000Y-107200000D02*
X70930000Y-107200000D01*
X91650000Y-101900000D02*
X91650000Y-107200000D01*
X90910000Y-101900000D02*
X91650000Y-101900000D01*
X89910000Y-109010000D02*
X87910000Y-109010000D01*
X89910000Y-107200000D02*
X89910000Y-109010000D01*
X87910000Y-109010000D02*
X87910000Y-107200000D01*
X87910000Y-108200000D02*
X84830000Y-108200000D01*
X87910000Y-107200000D02*
X89910000Y-107200000D01*
X86910000Y-101900000D02*
X85830000Y-101900000D01*
X84830000Y-109010000D02*
X82830000Y-109010000D01*
X84830000Y-107200000D02*
X84830000Y-109010000D01*
X82830000Y-109010000D02*
X82830000Y-107200000D01*
X82830000Y-108200000D02*
X79750000Y-108200000D01*
X82830000Y-107200000D02*
X84830000Y-107200000D01*
X81830000Y-101900000D02*
X80750000Y-101900000D01*
X79750000Y-109010000D02*
X77750000Y-109010000D01*
X79750000Y-107200000D02*
X79750000Y-109010000D01*
X77750000Y-109010000D02*
X77750000Y-107200000D01*
X77750000Y-108200000D02*
X74670000Y-108200000D01*
X77750000Y-107200000D02*
X79750000Y-107200000D01*
X76750000Y-101900000D02*
X75670000Y-101900000D01*
X74670000Y-109010000D02*
X72670000Y-109010000D01*
X74670000Y-107200000D02*
X74670000Y-109010000D01*
X72670000Y-109010000D02*
X72670000Y-107200000D01*
X72670000Y-107200000D02*
X74670000Y-107200000D01*
X70930000Y-107200000D02*
X70930000Y-101900000D01*
X70930000Y-101900000D02*
X71670000Y-101900000D01*
X70020000Y-109010000D02*
X92560000Y-109010000D01*
X70020000Y-108200000D02*
X72560000Y-108200000D01*
X70020000Y-100190000D02*
X70020000Y-109010000D01*
X90910000Y-101900000D02*
G75*
G03*
X86923158Y-101884179I-2000000J-1650000D01*
G01*
X85830000Y-101900000D02*
G75*
G03*
X81843158Y-101884179I-2000000J-1650000D01*
G01*
X80750000Y-101900000D02*
G75*
G03*
X76763158Y-101884179I-2000000J-1650000D01*
G01*
X75670000Y-101900000D02*
G75*
G03*
X71683158Y-101884179I-2000000J-1650000D01*
G01*
X72340748Y-122669000D02*
X72863252Y-122669000D01*
X72340748Y-124139000D02*
X72863252Y-124139000D01*
X93580000Y-119760000D02*
X93580000Y-116600000D01*
X93580000Y-119760000D02*
X92650000Y-119760000D01*
X90420000Y-119760000D02*
X90420000Y-118300000D01*
X90420000Y-119760000D02*
X91350000Y-119760000D01*
D13*
X71950000Y-111800000D02*
X71950000Y-112200000D01*
X71950000Y-111800000D02*
X72350000Y-111800000D01*
X71950000Y-114600000D02*
X71950000Y-114200000D01*
X71950000Y-114600000D02*
X72350000Y-114600000D01*
X76450000Y-111800000D02*
X76050000Y-111800000D01*
X76450000Y-111800000D02*
X76450000Y-112200000D01*
X76450000Y-114600000D02*
X76050000Y-114600000D01*
X76450000Y-114600000D02*
X76450000Y-114200000D01*
D12*
X68450000Y-114854000D02*
X70150000Y-114854000D01*
X68450000Y-114854000D02*
X68450000Y-112194000D01*
X70150000Y-114854000D02*
X70150000Y-112194000D01*
X95070000Y-112370000D02*
X95070000Y-113700000D01*
X93740000Y-112370000D02*
X95070000Y-112370000D01*
X92470000Y-112370000D02*
X89870000Y-112370000D01*
X92470000Y-112370000D02*
X92470000Y-115030000D01*
X89870000Y-112370000D02*
X89870000Y-115030000D01*
X92470000Y-115030000D02*
X89870000Y-115030000D01*
X74162000Y-119848000D02*
X74162000Y-118048000D01*
X74162000Y-119848000D02*
X74162000Y-120648000D01*
X71042000Y-119848000D02*
X71042000Y-119048000D01*
X71042000Y-119848000D02*
X71042000Y-120648000D01*
X85630000Y-140990000D02*
X90830000Y-140990000D01*
X85639200Y-123090000D02*
X85630000Y-140990000D01*
X85639200Y-123090000D02*
X90830000Y-123090000D01*
X90830000Y-123090000D02*
X90830000Y-140990000D01*
M02*
